<svg width="246" height="60" viewBox="0 0 246 60" fill="none" xmlns="http://www.w3.org/2000/svg">
<path d="M205.898 7.41401C206.005 7.56676 206.086 7.72023 206.219 7.91672C205.974 8.10173 205.729 8.28673 205.457 8.45022C205.61 8.49039 205.763 8.53055 205.941 8.59223C205.369 8.80877 205.089 9.41759 204.324 9.1723C204.166 8.99875 204.007 8.78075 203.874 8.60648C203.55 8.70471 203.301 8.77856 203.026 8.85313C202.944 8.67743 202.889 8.54548 202.834 8.41353C201.896 8.2844 200.899 8.60204 199.854 8.2757C199.763 8.54533 199.647 8.83791 199.557 9.12977C199.398 8.91176 199.213 8.69447 199.082 8.54243C198.428 8.58328 198.961 9.39149 198.206 9.41297C198.198 9.21289 198.192 9.03505 198.182 8.76829C198.034 8.83927 197.959 8.86365 197.884 8.88803C197.809 8.91241 197.736 8.98125 197.686 8.98268C197.457 8.92243 197.098 8.75461 197.049 8.8005C196.832 9.07371 196.673 8.8557 196.47 8.81697C195.785 8.70291 195.059 8.85705 194.49 9.14029C193.845 9.4479 193.335 9.28437 192.774 9.10005C192.672 9.08068 192.64 8.88133 192.532 8.70635C192.129 8.7178 191.676 8.73069 191.197 8.74429C191.054 8.94866 190.911 9.17526 190.72 9.46999C190.109 9.30932 189.572 9.12428 188.988 9.00737C188.404 8.89045 187.797 8.84094 187.113 8.74912C187.086 8.70537 187.031 8.57342 186.977 8.4637C186.143 8.42063 186.143 8.42063 185.579 8.85948C185.55 8.74904 185.521 8.63861 185.464 8.4622C184.982 8.38688 184.428 8.40263 183.927 8.48364C183.5 8.54027 183.29 8.99132 182.846 9.27098C182.784 8.96118 182.727 8.76254 182.694 8.56318C182.668 8.54167 182.616 8.49863 182.616 8.49863C182.518 8.56819 182.372 8.70587 182.372 8.70587C181.878 8.31932 181.336 8.6463 180.777 8.52867C180.786 8.7732 180.791 8.92882 180.801 9.19559C180.525 9.22569 180.299 9.25437 180.023 9.28447C180.015 9.06217 179.983 8.88504 179.976 8.70719C179.466 8.54366 178.999 8.17863 178.408 8.57374C178.36 8.61963 178.178 8.46903 178.051 8.45038C177.268 8.40588 176.515 8.51628 175.879 9.0462C175.745 8.82747 175.664 8.67401 175.583 8.52054C175.484 8.59009 175.411 8.65893 175.338 8.72777C175.148 8.35486 174.705 8.65675 174.47 8.44089C174.157 8.16048 174.075 8.67465 173.744 8.5728C173.463 8.46953 173.088 8.56918 172.71 8.57992C172.718 8.78 172.724 8.95784 172.735 9.24684C172.177 9.17367 171.697 9.14281 171.215 9.06749C170.911 9.00939 170.622 8.70604 170.301 8.89319C170.005 9.0574 169.857 8.46074 169.594 8.84654C169.569 8.86949 169.52 8.89315 169.52 8.89315C168.782 8.02397 168.105 8.82209 167.203 8.98125C167.15 8.89376 167.042 8.69655 166.988 8.60906C165.976 8.50431 165.08 8.81909 164.329 8.28408C164.402 8.21524 164.474 8.12417 164.572 8.03238C164.444 7.9915 164.318 7.97285 164.115 7.93412C164.097 8.15714 164.054 8.35864 164.036 8.55944C163.962 8.58381 163.889 8.65266 163.837 8.63186C163.356 8.57877 162.886 8.81468 162.394 8.47259C162.161 8.30119 161.882 8.93224 161.439 8.54426C161.231 8.37214 160.78 8.45172 160.436 8.68405C160.214 8.82387 159.711 8.86042 159.479 8.73348C158.99 8.45809 158.516 8.58285 158.036 8.57422C157.658 8.56273 157.281 8.5957 156.903 8.60644C156.525 8.61718 156.099 8.69604 155.817 8.5483C155.406 8.33745 155.224 8.87671 154.838 8.66514C154.657 8.559 154.405 8.54392 154.151 8.50662C153.872 8.47004 153.491 8.39186 153.319 8.50802C152.903 8.85365 152.441 8.622 152.091 8.72095C151.883 8.54883 151.727 8.41974 151.598 8.31217C151.302 8.49861 151.031 8.68432 150.76 8.84781C150.841 9.00128 150.897 9.15546 151.033 9.41865C150.675 9.29529 150.471 9.2121 150.241 9.12962C150.311 8.99408 150.382 8.85855 150.475 8.65561C150.042 8.5344 149.661 8.43399 149.278 8.31134C149.184 8.49205 149.113 8.62758 148.972 8.89865C148.788 8.70358 148.656 8.55155 148.524 8.37728C148.373 8.38158 148.171 8.38731 147.945 8.39375C147.923 8.50562 147.902 8.61748 147.859 8.81899C147.658 8.82472 147.408 8.87634 147.204 8.81538C147.026 8.77593 146.845 8.64756 146.689 8.5407C146.327 8.28396 146.027 8.35924 145.661 8.68121C145.479 8.53061 145.297 8.38 145.115 8.2294C144.916 8.30182 144.495 8.51406 144.416 8.42729C144.025 8.08234 143.521 8.76429 143.175 8.26229C143.13 8.41934 143.084 8.53193 143.013 8.66746C142.443 8.92846 141.794 8.43505 141.177 8.78641C141.121 8.65446 141.066 8.52251 141.011 8.39056C140.96 8.36976 140.883 8.32744 140.807 8.32959C140.605 8.31309 140.377 8.2973 140.177 8.34749C139.154 8.62138 139.154 8.62138 138.147 7.98238C139.003 7.93581 139.757 7.89211 140.512 7.8484C140.511 7.80394 140.509 7.75947 140.507 7.71501C139.726 7.7372 138.946 7.7594 138.115 7.78302C138.022 8.00819 137.907 8.30077 137.815 8.54817C136.887 8.68581 136.059 8.79836 135.257 8.93243C134.996 8.69505 134.735 8.45767 134.527 8.26332C134.18 8.42896 133.981 8.52361 133.733 8.6197C133.741 8.842 133.75 9.08654 133.76 9.37554C133.282 9.38914 132.828 9.40203 132.375 9.41491C132.217 9.21913 132.031 8.9796 131.794 8.69705C131.525 8.905 131.329 9.06635 131.083 9.25135C130.978 9.12083 130.847 8.99103 130.714 8.79453C130.541 8.91069 130.443 8.98025 130.32 9.05052C129.938 8.95011 129.581 8.84897 129.225 8.77007C129.195 8.6374 129.167 8.5492 129.137 8.43876C128.79 8.58217 128.656 9.05331 128.221 8.88764C127.889 8.76356 127.435 8.75422 127.335 8.11168C127.17 8.40569 127.076 8.60863 126.91 8.88041C126.722 8.57419 126.641 8.42072 126.56 8.28948C126.178 8.87893 125.334 9.23674 124.542 8.9477C124.159 8.82506 123.833 8.8566 123.478 8.79993C123.123 8.74326 122.764 8.59767 122.438 8.6292C122.01 8.6636 121.651 8.47355 121.271 8.43983C120.892 8.40611 120.444 8.57461 120.161 8.42688C119.827 8.25834 119.46 8.55807 119.172 8.27694C119.094 8.2124 118.749 8.4225 118.523 8.42895C118.322 8.45691 118.118 8.39594 117.864 8.35864C117.845 8.51497 117.827 8.71576 117.787 9.00619C117.582 8.92299 117.43 8.88283 117.351 8.79605C117.194 8.64473 117.111 8.44681 117.032 8.3378C116.534 8.52996 116.136 8.67481 115.689 8.84331C115.58 8.62387 115.524 8.49191 115.442 8.31621C115.243 8.38863 114.947 8.55284 114.895 8.50981C114.582 8.2294 114.412 8.41226 114.167 8.59727C113.995 8.71343 113.744 8.76505 113.496 8.86113C113.289 8.71125 113.081 8.56136 112.848 8.38996C112.725 8.46023 112.574 8.48676 112.552 8.55416C112.201 9.29852 111.499 9.42971 110.69 9.3637C110.446 8.88107 109.948 9.76309 109.727 9.21305C109.348 9.20156 108.995 9.18936 108.641 9.17715C108.459 9.02655 108.303 8.89746 108.225 8.83292C107.678 9.04874 107.156 9.24162 106.634 9.45673C106.498 9.17131 106.361 8.8859 106.223 8.55602C105.98 8.78548 105.808 8.92388 105.637 9.06228C105.533 8.99845 105.455 8.91168 105.377 8.86936C105.028 8.96831 104.704 9.06653 104.43 9.16333C104.221 8.94675 104.306 8.52151 103.761 8.7818C103.872 9.06793 103.96 9.39924 104.127 9.83956C103.822 9.78146 103.645 9.76424 103.315 9.68462C103.191 9.75489 102.893 9.87464 102.646 10.0152C102.159 9.80648 102.271 9.40275 102.284 9.0908C101.95 8.90003 101.641 8.73078 101.357 8.56081C100.624 9.20475 100.083 8.17423 99.3839 8.37212C98.9947 8.7615 98.7883 9.3237 98.0067 9.32366C98.1131 9.47641 98.1927 9.58542 98.2715 9.6722C98.1967 10.3864 97.403 10.0529 97.0325 10.2638C97.1275 10.7951 97.4663 11.0971 98.0009 11.2376C98.0496 11.1918 98.148 11.1222 98.2942 10.9845C98.5834 11.3101 99.2805 11.0678 99.5096 11.8179C99.5763 11.5712 99.621 11.4141 99.6868 11.1452C99.608 11.0584 99.3204 10.7773 99.032 10.474C99.8063 10.2739 100.556 10.0968 101.406 9.89465C101.764 10.018 102.274 10.1815 102.886 10.3867C102.663 10.482 102.439 10.5552 102.289 10.6039C102.484 11.1102 102.622 11.4401 102.763 11.8367C102.886 11.7664 103.036 11.7176 103.16 11.6696C102.841 11.2113 103.278 10.7538 103.055 10.1593C103.848 10.4706 104.442 9.4968 105.124 10.2118C105.346 10.072 105.494 9.97874 105.741 9.8382C105.823 10.0139 105.878 10.1458 105.959 10.2993C106.499 10.5733 107.236 10.0627 107.834 10.5576C107.88 10.4228 107.925 10.2879 107.993 10.0635C108.248 10.1452 108.477 10.2055 108.808 10.3073C108.879 10.1718 108.924 10.0148 108.97 9.90217C109.679 9.99328 110.4 10.3956 111.057 9.75383C111.882 10.2422 113.017 9.5646 113.854 10.3865C113.899 10.2294 113.945 10.1168 113.99 9.982C115.716 9.59915 117.45 10.1285 119.184 9.96791C119.241 10.1443 119.27 10.2548 119.354 10.4749C119.571 10.2239 119.715 10.0196 119.883 9.79225C120.368 9.93426 120.872 9.94217 121.502 9.92427C122.71 9.86768 123.945 9.85483 125.154 9.82046C125.28 9.81688 125.407 9.83553 125.484 9.87784C126.048 10.1511 126.573 10.0249 127.118 9.74239C127.325 9.89227 127.533 10.0644 127.843 10.2781C127.963 10.0967 128.033 9.96116 128.153 9.77973C128.178 9.77902 128.301 9.70874 128.403 9.7281C128.886 9.84788 129.375 10.1233 129.839 9.6873C130.671 9.6859 131.435 9.90896 132.04 10.6039C132.076 10.2023 132.091 9.91257 132.129 9.57768C132.712 9.67237 132.677 10.0962 132.914 10.3565C132.69 10.4519 132.516 10.5236 132.17 10.6892C132.598 10.677 132.903 10.7574 133.025 10.6426C133.22 10.4591 133.31 10.1672 133.524 9.80508C134.154 9.78718 134.934 9.76498 135.715 9.74279C136.315 10.2821 137.172 9.59011 137.797 10.1287C137.842 9.99388 137.888 9.85906 137.957 9.67907C138.361 9.71208 138.791 9.74437 139.397 9.77165C139.423 9.79316 139.605 9.94377 139.708 10.0076C140.184 9.90507 140.584 9.80469 141.108 9.6785C141.262 9.7409 141.544 9.8664 141.826 9.99191C141.875 9.94602 141.996 9.80906 142.047 9.82986C142.557 9.99339 143.161 9.95397 143.503 10.3448C143.722 10.1383 143.966 9.90883 144.185 9.70231C144.72 9.84289 145.124 9.8759 145.458 10.0444C145.767 10.2137 146.049 9.64933 146.368 10.0854C146.554 10.3471 147.035 10.4224 147.651 10.7165C147.438 10.411 147.385 10.3235 147.304 10.1922C147.377 10.1234 147.474 10.0094 147.572 9.9176C147.776 10.0008 147.98 10.0618 148.236 10.1658C148.27 10.3873 148.278 10.6319 148.312 10.8535C148.796 10.9955 149.256 11.1604 149.74 11.3025C149.989 11.2286 150.263 11.1318 150.587 11.0336C150.383 10.9504 150.229 10.888 149.948 10.7847C150.19 10.5108 150.408 10.2598 150.553 10.0999C151.179 9.97084 151.68 9.88983 152.206 9.78587C152.26 9.89559 152.316 10.0275 152.398 10.2032C153.178 9.46895 153.997 9.80173 154.842 10.156C155.138 9.99182 155.435 9.82762 155.806 9.63903C156.266 9.80399 156.753 10.0127 157.29 10.22C157.314 10.197 157.437 10.1045 157.633 9.9654C157.819 10.2272 157.953 10.4459 158.087 10.6646C157.973 10.9794 157.883 11.2713 157.745 11.6535C157.087 11.5832 156.429 11.5129 155.721 11.444C155.649 11.5573 155.579 11.7151 155.509 11.8728C154.873 11.7129 154.237 11.5529 153.601 11.393C153.772 11.2546 153.945 11.1384 154.337 10.838C153.782 10.8315 153.454 10.8186 153.101 10.8286C153.112 11.1176 153.122 11.3844 153.13 11.6067C152.515 12.047 151.987 11.3944 151.464 11.565C150.966 11.7349 150.463 11.7715 149.936 11.831C149.408 11.8905 148.882 11.2823 148.373 11.8531C147.693 11.8502 147.346 11.326 146.807 11.0743C146.861 11.184 146.94 11.2708 146.995 11.3805C146.895 11.4056 146.796 11.4751 146.745 11.4543C146.385 11.2421 146.048 11.0068 145.48 10.6447C145.621 11.0412 145.755 11.26 145.736 11.4385C145.717 11.6171 145.522 11.8007 145.427 11.9591C145.046 11.8587 144.69 11.7798 144.308 11.6794C144.303 11.546 144.296 11.3682 144.292 11.2348C144.136 11.1057 144.006 10.9981 143.85 10.869C143.78 11.0268 143.709 11.1623 143.592 11.4105C143.409 11.2376 143.278 11.1078 143.07 10.9135C142.925 11.0956 142.78 11.2777 142.659 11.4147C142.384 11.467 142.134 11.5187 141.783 11.5954C141.751 11.396 141.693 11.1974 141.661 10.998C141.61 10.9994 141.509 10.9801 141.484 11.003C141.338 11.1407 141.166 11.2569 141.046 11.4161C140.879 11.6879 140.816 12.0235 140.597 12.2522C140.403 12.458 140.079 12.5562 139.782 12.7204C139.751 12.5655 139.694 12.3669 139.636 12.1683C139.331 12.1102 139.052 12.0513 138.721 11.9717C138.698 12.0169 138.677 12.1288 138.633 12.308C138.457 12.3353 138.23 12.3417 137.929 12.3726C138.022 12.1474 138.116 11.9667 138.232 11.6963C138.56 11.687 138.963 11.6756 139.366 11.6641C139.363 11.5974 139.361 11.553 139.359 11.4863C139.106 11.4712 138.879 11.4554 138.626 11.4403C138.324 11.4489 138.047 11.4568 137.669 11.4675C137.654 11.735 137.639 12.0247 137.599 12.3152C137.523 12.2951 137.422 12.298 137.421 12.2757C137.411 11.9867 137.291 11.4783 137.043 11.5744C136.57 11.7436 136.48 11.3678 136.201 11.309C135.896 11.2509 135.545 11.3054 135.142 11.3168C135.099 11.5183 135.081 11.7191 135.041 11.9873C134.711 11.9299 134.379 11.8281 134.051 11.8152C133.723 11.8023 133.95 11.1282 133.407 11.4329C133.464 11.6093 133.546 11.785 133.552 11.9629C133.553 11.9851 133.353 12.0353 133.154 12.1077C133.091 11.7535 133.055 11.4652 132.992 11.1109C132.706 11.5641 132.468 11.9714 132.23 12.3565C131.821 12.1901 131.513 12.0431 131.18 11.8968C131.034 12.0345 130.862 12.1729 130.716 12.3105C130.005 12.175 129.318 12.0165 128.658 11.8795C128.699 11.6113 128.739 11.3431 128.802 10.9852C127.975 11.1422 128.023 11.7418 127.687 12.2186C127.628 11.9755 127.571 11.7991 127.512 11.5782C127.047 11.2577 126.763 11.7775 126.336 11.8119C126.293 12.0135 126.276 12.2365 126.234 12.4824C126.026 12.3103 125.895 12.1805 125.765 12.073C125.54 12.1239 125.341 12.1963 125.14 12.202C124.989 12.2063 124.856 12.032 124.706 12.0586C123.575 12.1575 123.499 12.1596 122.85 11.6217C122.798 11.5787 122.72 11.5142 122.616 11.4281C122.447 11.6554 122.304 11.882 122.135 12.0871C121.796 11.763 121.824 11.1613 121.087 11.0042C120.925 11.3872 120.787 11.7471 120.578 12.2427C120.389 11.892 120.226 11.5851 120.09 11.2996C119.769 11.509 119.736 11.9773 119.262 12.102C119.111 12.1286 118.961 12.1551 118.812 12.2261C118.417 12.4376 118.01 11.6703 117.628 12.2375C117.174 12.2504 116.697 12.2862 116.242 12.2769C116.041 12.2826 115.861 12.1987 115.684 12.1592C115.276 12.0373 114.897 12.0258 114.605 12.3012C114.323 12.1757 114.041 12.0502 113.707 11.8816C113.608 11.9512 113.485 12.0215 113.288 12.1383C113.255 11.939 113.198 11.7626 113.166 11.5632C113.062 11.4771 112.594 11.7797 112.452 12.0508C112.1 12.0608 111.744 11.9819 111.471 12.101C110.874 12.3405 110.441 12.2192 110.047 11.7631C109.546 11.8664 109.059 12.3475 108.51 11.8068C108.44 11.9646 108.395 12.0994 108.349 12.2342C108.275 12.2586 108.201 12.3052 108.124 12.2851C107.87 12.2256 107.615 12.1438 107.335 12.085C106.904 12.0082 106.41 12.2893 106.044 11.9214C105.676 12.2212 105.275 12.2771 104.836 12.0003C104.566 12.2082 104.176 11.8855 103.935 12.1816C103.445 11.884 102.92 11.988 102.391 12.003C101.962 12.0152 101.56 12.0489 101.131 12.0388C100.728 12.028 100.354 12.1499 99.941 11.8946C99.6835 11.7462 99.1546 11.7612 98.8572 11.9032C98.0642 12.2818 97.2493 12.0601 96.2971 12.2207C96.2499 12.3111 96.1305 12.4925 95.9136 12.7657C95.8502 12.4115 95.7917 12.1906 95.7617 12.0579C95.4481 11.7553 95.3188 12.3598 95.0069 12.1016C94.8769 11.9941 94.5503 12.0256 94.2984 12.0328C93.9954 12.0191 93.7191 12.0492 93.4169 12.0578C93.2609 11.9287 93.1301 11.7989 92.9741 11.6698C92.6263 11.8132 92.3054 12.0004 91.9552 12.0771C91.605 12.1538 91.2256 12.1201 90.8226 12.1316C91.181 11.5873 91.7278 11.3715 92.3014 11.1994C92.4549 11.2618 92.6345 11.3457 92.7889 11.4303C92.9871 11.3357 93.135 11.2424 93.2829 11.1492C93.4632 11.2554 93.5916 11.3185 93.7208 11.4038C94.0921 11.2152 94.4894 11.0482 94.9355 10.8352C95.1004 10.519 95.3125 10.1124 95.5481 9.66059C95.3442 9.59963 95.1915 9.55947 95.1151 9.53938C94.8974 9.1005 94.6805 8.68384 94.4376 8.24567C93.959 8.25928 93.556 8.27073 93.1027 8.28362C93.3106 8.45573 93.5178 8.60562 93.7778 8.82077C93.1538 8.99428 92.6712 9.58659 92.139 8.82284C92.4356 8.65864 92.7313 8.4722 93.1027 8.28362C93.1165 7.97167 92.8679 8.06775 92.6664 8.07348C91.6085 8.10355 90.5759 8.13291 89.518 8.16297C89.3498 8.39029 89.1817 8.61761 89.0143 8.86716C88.4545 8.7273 87.8402 9.16758 87.3901 8.57952C87.1212 8.8097 86.9002 8.97176 86.6556 9.179C86.4517 9.11804 86.2185 8.94663 86.0431 8.97387C85.6921 9.02836 85.4264 8.6576 85.0811 8.86769C84.7601 9.05485 84.4807 8.99603 84.2199 8.75865C83.9282 9.05624 83.6276 9.1093 83.2644 8.83032C82.9459 9.08417 82.6672 9.04758 82.356 8.81163C81.849 9.42689 81.0894 8.64735 80.5255 9.0862C80.2314 9.3171 79.8617 8.86028 79.4661 9.07181C79.1687 9.21378 78.8128 9.13488 78.4294 8.99001C78.0963 8.8437 77.491 8.83866 77.2196 9.00214C76.7516 9.30475 76.2682 9.18497 75.7904 9.2208C75.2883 9.27958 74.7285 9.13972 74.306 9.3075C73.8592 9.49823 73.4952 9.19702 73.1206 9.29668C72.8964 9.36982 72.6721 9.44296 72.4471 9.49386C72.322 9.51967 72.1733 9.59066 72.0961 9.54834C71.4811 9.27653 70.8303 9.40629 70.1738 9.38045C69.5929 9.35245 68.8641 9.41768 68.418 9.63064C67.9834 9.46496 67.5999 9.32009 67.14 9.15513C66.9718 9.38245 66.8532 9.5861 66.7086 9.76824C66.3738 9.57748 66.1423 9.45054 65.654 9.19737C66.2065 9.13716 66.4844 9.15152 66.7078 9.05615C66.9564 8.96007 67.2075 8.93068 67.4594 8.92352C67.2928 8.50543 67.8794 8.68905 67.9436 8.37567C67.2888 8.39428 66.6274 8.23505 66.1139 8.67247C65.9587 8.56561 65.8799 8.47884 65.7767 8.41501C65.6305 8.55269 65.4842 8.69036 65.4111 8.7592C64.9813 8.72691 64.5775 8.71614 64.1973 8.66019C63.843 8.62575 63.5522 8.2557 63.085 8.58053C62.8884 8.71965 62.3765 8.51166 62.0475 8.4765C61.8557 8.749 61.6883 8.99854 61.4966 9.27104C61.0335 9.01716 60.6476 8.8056 60.2357 8.57251C59.9935 8.84644 59.7181 8.89878 59.3842 8.73024C59.0495 8.53947 58.7139 8.32647 58.3532 8.11419C58.3418 7.80296 58.3305 7.49173 58.3208 7.22497C58.5166 7.06363 58.662 6.90371 58.8334 6.76532C58.8066 6.72157 58.7546 6.67855 58.7286 6.65703C58.58 6.72802 58.4321 6.82123 58.2566 6.84848C58.0559 6.87643 57.8536 6.85993 57.6269 6.86637C57.5335 7.06931 57.414 7.25074 57.3206 7.45368C57.3726 7.49671 57.4514 7.58349 57.5814 7.69106C57.3311 7.74268 57.1061 7.79358 56.8055 7.84663C57.1678 8.10337 57.505 8.36084 57.8941 8.66133C57.7487 8.82124 57.6032 8.98115 57.409 9.18695C57.2019 9.03706 56.9216 8.95602 56.8395 8.78032C56.6454 8.29626 56.3537 7.90398 55.8118 7.56332C55.6924 7.74475 55.5477 7.92689 55.4275 8.08609C54.9928 7.92041 54.537 7.86661 54.3949 7.42558C53.6254 7.759 53.4491 7.76401 52.3726 7.28277C52.3239 7.32867 52.2508 7.3975 52.1516 7.44483C51.7056 7.65779 51.2896 7.31356 50.8866 7.32502C50.4584 7.33719 50.0692 7.72656 49.6338 7.53865C49.3778 7.43466 49.3039 7.48127 49.0537 7.53289C48.7035 7.60961 48.2956 7.48768 47.7643 7.43602C47.7407 7.4812 47.6708 7.63896 47.579 7.88636C47.3986 7.78021 47.2686 7.67265 46.9323 7.43742C47.1102 7.47687 47.033 7.43455 47.0087 7.4575C46.1897 7.81458 45.3049 7.75072 44.4924 7.59579C43.8319 7.45879 43.03 7.59285 42.4572 7.0973C42.3532 7.01124 42.0274 7.06501 41.8527 7.11448C41.678 7.16395 41.5326 7.32386 41.4351 7.41565C41.5423 7.59063 41.6236 7.7441 41.704 7.87533C41.0378 8.27258 40.4861 7.66515 39.8865 7.81572C40.1457 8.00864 40.3805 8.2245 40.6656 8.43893C40.6063 8.88569 40.1814 8.98679 39.6801 9.0678C39.9368 9.19402 40.1943 9.34247 40.4511 9.4687C40.3536 9.56049 40.2317 9.67522 40.1098 9.78995C39.8482 9.53034 39.5704 9.51598 39.2811 9.88027C39.2218 9.63716 39.1893 9.4378 39.1308 9.21693C38.4215 9.12582 37.7504 9.38969 37.0712 9.43125C36.4927 9.46995 35.6867 9.49286 35.0416 9.77824C34.9612 9.647 34.8791 9.47131 34.7175 9.18661C34.6939 9.23178 34.7646 9.09625 34.8597 8.93777C34.8085 8.91697 34.7305 8.85243 34.6549 8.85458C33.7734 8.87964 32.8902 8.86023 32.0103 8.92975C31.4822 8.96702 30.751 8.96555 30.2148 8.78051C30.0709 8.98488 29.9531 9.21076 29.8093 9.41513C29.6297 9.33122 29.4234 9.20357 29.399 9.22652C29.0837 9.56928 28.7677 9.19995 28.4663 9.23077C28.0893 9.26374 27.7107 9.25225 27.3329 9.26299C26.6025 9.28375 25.9111 8.99186 25.1587 9.10226C24.5567 9.18613 23.9449 9.00324 23.3136 8.97668C22.8586 8.9451 22.6734 8.70558 22.3907 8.55784C22.268 8.65034 22.1445 8.72061 21.9478 8.85972C21.7602 8.5535 21.5993 8.29103 21.4645 8.05008C21.5376 7.98124 21.562 7.95829 21.5863 7.93535C22.0048 7.65641 22.4865 8.42159 22.8701 7.8766C23.3234 7.86372 23.8012 7.82788 24.2553 7.83722C24.6348 7.87095 25.0166 7.97136 25.3717 8.02803C25.535 7.66733 25.6756 7.37403 25.8633 6.99039C26.8967 7.67313 28.0756 7.50609 29.0733 7.90055C29.1757 7.94215 29.352 7.93714 29.4511 7.88981C30.3432 7.46389 31.31 7.70345 32.2631 7.56509C32.2566 7.38725 32.2509 7.23164 32.2412 6.96487C31.7594 6.88955 31.1801 6.90601 30.6942 6.71954C30.3619 6.59546 30.2173 6.7776 30.015 6.7611C29.6616 6.74889 29.2659 6.96042 28.9515 6.63556C28.6891 6.35372 28.4591 6.96111 28.1447 6.63624C28.0659 6.54946 27.7393 6.581 27.5638 6.60824C26.9357 6.6706 26.3053 6.66626 25.6943 6.5056C25.6691 6.50632 25.6415 6.44034 25.5911 6.44178C24.409 6.51989 23.2342 6.10821 22.0317 6.32042C21.8066 6.37133 21.6084 6.46597 21.4345 6.53767C21.0697 6.21424 20.7057 5.91303 20.3166 5.61254C19.9185 5.75738 19.6447 5.85418 19.3213 5.97464C18.6949 5.3916 17.7484 5.7078 17.0042 5.35064C15.8017 5.56285 14.6488 5.06154 13.4455 5.25152C13.2635 5.10091 13.0564 4.95103 12.9004 4.82194C12.6233 4.82982 12.3966 4.83626 12.1448 4.84342C11.784 5.321 11.7523 5.83374 11.8457 6.32066C11.2753 6.58167 11.385 6.13347 11.0999 5.91904C10.8513 6.01512 10.5539 6.1571 10.1809 6.30122C10.3662 6.54075 10.4718 6.67127 10.5514 6.78027C10.4425 7.2507 10.1085 7.77202 10.2483 8.14637C10.418 8.65337 10.31 9.14602 10.4862 9.83087C10.2287 9.68242 10.1263 9.64082 9.91995 9.51317C9.75175 9.74049 9.53481 10.0137 9.34223 10.264C9.13101 10.0029 8.99696 9.78419 8.83854 9.58841C8.25925 9.60488 7.73114 9.64215 7.17622 9.63567C6.77242 9.6249 6.39867 9.74678 5.98595 9.49147C5.77959 9.36382 5.30186 9.39965 5.00286 9.49716C4.40649 9.73665 3.75083 9.73304 3.12521 9.86209C3.55744 9.96107 3.96449 10.0608 4.57465 10.1992C4.07821 10.4136 3.75565 10.5563 3.45828 10.6983C3.54276 10.9406 3.65243 11.1823 3.73853 11.4692C4.24389 11.4993 4.77443 11.5287 5.45691 11.5761C5.6056 11.5051 5.92735 11.3402 6.29947 11.1738C6.38071 11.3273 6.43513 11.437 6.51718 11.6127C6.76905 11.6056 7.07129 11.597 7.39872 11.5877C7.44179 11.3862 7.45968 11.1854 7.50194 10.9616C7.9553 10.9487 8.13891 11.1438 8.20064 11.4536C8.28755 11.7627 8.37366 12.0495 8.46301 12.4253C7.71065 12.5357 6.97533 13.113 6.12389 12.5808C5.85495 12.811 5.60632 12.9071 5.34229 12.5808C5.13102 13.0096 4.88731 12.5492 4.66225 12.6001C4.21213 12.7019 3.71002 12.7607 3.26072 12.8847C2.88616 12.9844 2.54003 13.1723 2.11024 13.14C1.9843 13.1436 1.84048 13.3479 1.64548 13.5315C2.95843 13.5832 4.08125 13.9518 5.31783 13.9835C6.42848 14.0186 7.5066 14.5443 8.74075 14.5093C8.94954 14.7036 9.18515 14.9417 9.63035 15.3964C8.91783 15.2163 8.51078 15.1166 8.00137 14.9754C7.78118 15.1596 7.48786 15.4128 7.21892 15.6429C7.16692 15.5999 7.08893 15.5354 6.95894 15.4278C6.88906 15.5856 6.81918 15.7433 6.77367 15.8781C7.02797 15.9377 7.43582 16.0596 7.86887 16.1808C7.87454 16.3364 7.88103 16.5143 7.88914 16.7366C7.45854 16.6821 6.9995 16.5393 6.62332 16.5945C6.22195 16.6504 5.88317 16.3485 5.41192 16.5622C5.11455 16.7042 4.49547 16.3212 4.17291 16.4639C3.70085 16.6553 3.36044 16.309 2.96394 16.4983C2.89325 16.6338 2.77462 16.8375 2.63323 17.1085C3.19383 17.2706 3.75524 17.4549 4.3922 17.6371C4.42145 17.7476 4.45312 17.9247 4.48561 18.124C5.34601 18.2108 6.23161 18.2969 7.21875 18.4024C7.91177 18.7388 7.3487 19.1998 7.19024 19.6939C6.88638 19.6581 6.5817 19.6 6.27784 19.5641C6.25265 19.5648 6.22503 19.4988 6.17466 19.5003C5.662 19.27 5.25573 19.8824 4.71545 19.5863C4.17518 19.2901 3.71204 19.726 3.23592 19.8063C2.73381 19.8651 2.77928 20.4202 2.53714 20.6941C2.76703 21.4664 3.90047 20.7444 4.10517 21.5174C4.68446 21.5009 5.21338 21.4859 5.69193 21.4723C5.85116 21.6903 5.98359 21.8646 6.1412 22.0381C6.53522 22.472 6.53522 22.472 6.10051 22.9962C4.985 22.8276 4.05881 22.3199 2.88562 21.9526C2.94411 22.1735 2.97497 22.3284 3.00502 22.4611C3.00502 22.4611 3.08058 22.4589 3.13096 22.4575C3.70863 22.3966 3.48759 23.2485 4.21476 23.1388C4.56575 23.0843 5.00528 23.3834 5.38876 23.5283C5.51631 23.5691 5.61949 23.633 5.77305 23.6954C5.11977 24.4483 4.86065 23.5655 4.30573 23.559C4.1611 23.7412 3.99209 23.9463 3.77514 24.2195C3.6744 24.2224 3.47371 24.2503 3.27303 24.2783C3.20964 24.6139 3.14624 24.9495 3.0601 25.3525C3.31197 25.3453 3.61421 25.3368 3.96682 25.3267C3.9278 25.6394 3.91073 25.8624 3.87171 26.1751C3.67346 26.2697 3.35171 26.4346 3.05434 26.5766C3.16238 26.7738 3.29481 26.9481 3.45566 27.2106C3.72947 27.1138 4.00247 26.9947 6.18069 27.2666C7.83567 27.7092 7.5643 27.8727 7.36037 27.8117C6.21399 27.4882 4.97335 27.3454 4.14223 26.6792C4.23568 26.4763 4.30475 26.2963 4.37625 26.183C4.73292 26.2841 5.09203 26.4519 5.14078 26.406C5.43085 26.064 5.66402 26.2354 5.97194 26.3824C6.17749 26.4878 6.56016 26.6105 6.70885 26.5395C7.32716 26.2104 7.644 26.6019 8.05672 26.8572C8.06564 27.1018 8.07456 27.3463 6.18069 27.2666C4.49318 27.3146 4.68409 27.7097 4.87662 28.1493C4.70194 28.1988 4.57681 28.2246 4.40213 28.2741C4.33959 27.9421 4.30386 27.6538 4.23645 27.1884C4.02518 27.6172 3.90979 27.9098 3.7684 28.1808C3.64166 28.1622 3.48973 28.1442 3.33861 28.1485C3.11274 28.1772 2.86168 28.2066 2.63744 28.2797C2.46275 28.3292 2.2905 28.4454 2.06788 28.563C2.35142 28.7329 2.60896 28.8814 2.86651 29.0299C2.74463 29.1446 2.69588 29.1905 2.62275 29.2593C2.98105 29.4049 3.31334 29.529 3.64644 29.6753C3.6505 29.7865 3.65456 29.8976 3.51074 30.102C3.8333 29.9593 4.03073 29.8424 4.25336 29.7248C4.20542 29.7929 4.18267 29.8603 4.13473 29.9285C4.31266 29.9679 4.51658 30.0289 4.69451 30.0683C4.64576 30.1142 4.6222 30.1594 4.57344 30.2053C4.27039 30.1917 3.94297 30.201 3.51074 30.102C3.53268 30.0123 3.32956 29.9736 3.28081 30.0195C2.96474 30.34 2.67385 30.6599 2.31065 31.0707C2.69089 31.1267 2.94438 31.164 3.19787 31.2013C3.20273 31.3347 3.20517 31.4014 3.20922 31.5125C2.98417 31.5634 2.7583 31.5921 2.45768 31.6452C2.76641 31.8144 3.02476 31.9851 3.3343 32.1766C2.82728 32.7918 2.34383 33.3619 1.86118 33.9542C1.9408 34.0633 2.02123 34.1945 2.12765 34.3472C1.90422 34.4426 1.73115 34.5365 1.55728 34.6082C1.79041 35.4695 1.92279 36.3336 2.80185 36.9318C3.08701 37.1462 3.30068 37.4739 3.43796 37.7816C3.60044 38.0885 3.63861 38.4435 3.72714 38.797C3.57765 38.8458 3.45333 38.8938 3.27865 38.9433C3.30546 38.987 3.33389 39.0752 3.35989 39.0968C3.48663 39.1154 3.61094 39.0674 3.7385 39.1082C4.11955 39.1864 4.30315 39.3815 4.26576 39.7386C4.22593 40.029 4.0553 40.1897 3.72868 40.2212C3.52719 40.2269 3.3257 40.2327 3.14939 40.2377C3.10145 40.3058 3.0527 40.3517 3.0527 40.3517C3.1055 40.417 3.18269 40.4593 3.26068 40.5238C3.21355 40.6142 3.14124 40.7052 2.99904 40.9541C3.32241 40.8336 3.52147 40.7612 3.69534 40.6895C3.85863 41.0186 4.04548 41.3026 4.6264 41.3306C5.15694 41.3601 5.8378 41.363 6.18956 42.0206C5.7175 42.212 5.34213 42.2894 4.95135 41.9445C4.48258 41.535 3.92442 41.4396 3.25086 41.6368C3.44583 42.1431 3.99831 42.0829 4.5394 42.4013C3.35644 42.4572 2.34491 42.3746 1.23341 43.0071C0.9929 43.3255 1.95243 43.365 1.96703 43.7651C2.59913 43.8139 2.73966 44.2105 2.68114 44.6795C3.20438 44.5088 3.20438 44.5088 2.93386 44.0047C3.16054 43.9982 3.36122 43.9703 3.5879 43.9638C3.63422 43.8512 3.67973 43.7164 3.72442 43.5594C4.15259 43.5472 4.60596 43.5343 5.10969 43.52C5.12672 43.9868 5.14376 44.4537 5.15998 44.8983C5.54833 45.1766 5.76604 45.6154 6.34047 45.4656C6.52489 45.6829 6.68412 45.9009 6.84254 46.0967C7.06598 46.0013 7.21466 45.9303 7.5616 45.7647C7.42751 46.2358 7.33812 46.5499 7.25035 46.9085C8.42436 47.2979 9.65526 47.1739 10.8236 47.4078C10.8268 47.4967 10.8309 47.6078 10.8357 47.7412C10.3572 47.7548 9.90384 47.7677 9.47567 47.7799C9.33915 48.1843 9.201 48.5443 9.08805 48.9036C8.86137 48.91 8.68506 48.915 8.35763 48.9243C8.45432 48.8103 8.50226 48.7422 8.59814 48.606C8.41778 48.4998 8.18299 48.284 8.00749 48.3112C7.38188 48.4402 6.83755 48.0329 6.21032 48.1175C6.59375 48.9522 6.80011 49.0799 8.02205 49.4012C8.40391 49.5016 8.7622 49.6472 9.01731 49.729C9.52344 50.4712 8.81412 51.07 8.98876 51.7104C8.67025 51.9642 8.4598 52.4153 7.82445 52.2775C7.70987 52.5924 7.57092 52.9301 7.43197 53.2679C7.99094 53.3855 8.47354 53.4831 8.95777 53.6251C9.1617 53.686 8.97643 54.1364 9.37536 54.0138C9.67435 53.9162 9.92054 53.7535 10.3414 53.5412C10.7444 53.5298 11.3489 53.5126 11.9282 53.4961C12.0492 53.3592 12.1955 53.2215 12.293 53.1297C12.5888 52.9433 15.4893 52.9721 15.9735 53.1141C16.071 53.0223 16.1441 52.9535 16.2904 52.8158C16.2376 52.7505 16.1848 52.6853 16.08 52.577C16.1287 52.5311 16.1759 52.4407 16.249 52.3719L18.2006 51.9604C18.6182 52.349 19.1382 52.0895 19.6183 52.1203C20.1992 52.1483 20.8476 51.9519 21.3578 52.1154C21.8932 52.2782 22.5156 52.0602 22.8771 52.2948C23.4182 52.6132 24.0577 52.1722 24.4785 52.6498C24.5053 52.6935 24.6296 52.6455 24.7312 52.6649C25.7411 52.7029 26.7762 52.7403 27.7869 52.8005C28.2167 52.8328 28.6497 52.954 29.0787 52.9641C29.4833 52.9971 29.9099 52.9405 30.3389 52.9505C30.4396 52.9477 30.5192 53.0567 30.6752 53.1858C30.6663 52.9412 30.6606 52.7856 30.6533 52.5855C30.4989 52.5009 30.3178 52.3725 29.9302 52.1165C30.7939 52.2922 30.7939 52.2922 31.3382 52.6996C31.4154 52.7419 31.5901 52.6924 32.8551 52.8123C33.6123 52.8352 33.1768 52.6473 33.0785 52.7169C32.8348 52.9464 32.4651 52.4895 32.3538 52.8933C32.1482 52.7878 31.9183 52.7054 31.712 52.5777C31.6608 52.5569 31.7298 52.3769 31.751 52.265C32.5106 52.3547 33.2443 52.4229 33.978 52.491C33.9812 52.58 33.9844 52.6689 32.8551 52.8123C31.9256 52.9054 32.136 53.1442 32.3196 53.3393C32.8234 53.325 33.3044 53.3781 33.7293 53.277C34.3297 53.1487 34.8204 53.4685 35.4005 53.4743C35.9051 53.4822 36.4064 53.4012 36.9678 53.5855C37.5292 53.7698 38.3067 53.6587 38.9324 53.5297C39.2078 53.4773 39.3297 53.3626 39.6628 53.5089C39.9699 53.6337 40.3972 53.5993 40.7726 53.5219C41.0984 53.4681 41.2853 53.7521 41.633 53.6087C41.9304 53.4667 42.3066 53.4115 42.6316 53.3355C42.8314 53.2853 43.0914 53.5004 43.284 53.2502C43.3084 53.2272 43.5407 53.3764 43.6935 53.4166C43.9486 53.4983 44.384 53.6862 44.4328 53.6403C44.6985 53.3212 44.9138 53.6934 45.138 53.6203C45.3875 53.5465 45.6093 53.4066 45.9562 53.241C45.6272 53.2058 45.3997 53.19 45.1462 53.1527C45.1177 53.0645 45.0885 52.9541 45.0853 52.8652C45.134 52.8193 45.1576 52.7741 45.1828 52.7734C45.8124 52.7555 46.4169 52.7383 47.0466 52.7204C47.0758 52.8308 47.1051 52.9413 47.1359 53.0962C47.6348 52.9485 48.1077 52.7793 48.6082 52.676C48.7333 52.6502 48.9364 52.6889 49.0648 52.7521C49.5019 52.9844 49.8764 52.8848 50.2713 52.651C50.4013 52.7586 50.5053 52.8446 50.6613 52.9737C51.1349 52.8267 51.6566 52.6116 52.1725 52.9308C52.2756 52.9946 52.4016 52.991 52.5275 52.9874C54.1663 52.9854 55.8156 53.2723 57.4722 53.0694C58.2506 52.9805 58.9859 53.0932 59.7772 53.36C59.6821 53.5184 59.5862 53.6547 59.4692 53.9028C60.2711 53.7687 60.9463 54.3059 61.8912 53.9452C61.1543 53.7881 60.5701 53.6712 59.834 53.5364C60.207 53.3922 60.4304 53.2969 60.679 53.2008C60.9033 53.1277 61.1292 53.099 61.3786 53.0251C61.6857 53.1499 62.0692 53.2948 62.5038 53.4605C62.33 53.5322 62.1821 53.6254 61.983 53.6978C62.1894 53.8255 62.3706 53.9538 62.6029 54.103C62.7419 53.7653 62.8337 53.5179 62.9507 53.2697C62.9735 53.2023 63.0726 53.155 63.097 53.1321C63.3269 53.2145 63.5324 53.32 63.7112 53.3817C63.6421 53.5616 63.5722 53.7194 63.504 53.9216C64.2141 54.035 64.1962 53.5459 64.388 53.2734C64.6147 53.267 64.9145 53.1917 65.1192 53.2749C65.3499 53.3796 65.5043 53.4642 65.7749 53.2785C65.731 53.4578 65.6619 53.6378 65.618 53.817C65.618 53.817 65.696 53.8816 65.7464 53.8801C65.9991 53.8952 66.2501 53.8658 66.502 53.8587C67.2576 53.8372 68.0351 53.7261 68.9581 54.1449C68.746 53.8616 68.6916 53.7519 68.5584 53.5554C69.1141 53.5841 69.591 53.5261 70.0485 53.6243C70.4295 53.7025 70.7683 53.3146 71.2087 53.6359C71.4938 53.8503 72.0951 53.7442 72.5752 53.775C72.5947 53.6187 72.6378 53.4172 72.6557 53.2164C72.7061 53.215 72.7313 53.2143 72.7816 53.2128C72.8141 53.4122 72.8718 53.6108 72.9051 53.8324C73.434 53.8174 73.9629 53.8024 74.5674 53.7852C74.5869 53.6288 74.63 53.4273 74.6715 53.1814C75.969 53.5005 77.2454 53.2417 78.5575 53.2712C78.5543 53.1823 78.5762 53.0926 78.5762 53.0926C77.8848 52.8007 77.1674 52.4873 76.4516 52.2184C76.1445 52.0936 76.121 52.1388 75.8001 51.636C76.5727 51.3915 77.0163 51.8018 77.5103 52.2105C77.5558 52.0757 77.6013 51.9409 77.7151 51.6039C77.802 51.9129 77.8857 52.1331 77.9441 52.354C78.0173 52.2851 78.1156 52.2156 78.1887 52.1467C78.6591 51.9108 79.1296 51.6749 79.6244 51.4161C79.3928 51.2891 79.4335 51.0209 79.0589 51.1206C78.7347 51.2188 78.205 51.2116 77.997 51.0395C77.6323 50.7161 77.2536 51.3944 76.9847 50.9348C76.3794 50.9297 75.7481 50.9031 75.1176 50.8988C75.0721 51.0336 75.0502 51.1233 75.0047 51.2581C74.5155 51.6726 74.2198 51.1691 73.8323 50.9131C73.8355 51.002 73.7908 51.8489 73.7721 52.0275C73.5268 51.5226 73.3619 51.149 73.1701 50.7316C72.95 50.9159 72.7542 51.0773 72.5096 51.2845C72.2764 51.1131 72.0684 50.941 71.9133 50.8341C71.7378 50.8614 71.5891 50.9324 71.5119 50.89C71.2803 50.7631 71.0748 50.6577 70.987 51.0162C71.0634 51.0363 71.1406 51.0786 71.1917 51.0994C71.0203 51.2378 70.8984 51.3526 70.7514 51.468C70.7538 51.5347 70.757 51.6236 70.7603 51.7125C71.1641 51.7233 71.5671 51.7119 71.9701 51.7004C71.9839 52.0783 71.9968 52.434 72.009 52.7675C71.7637 52.2626 71.056 52.216 70.7603 51.7125C70.5377 51.8301 70.3419 51.9915 70.12 52.1313C70.068 52.0883 69.9901 52.0237 69.8861 51.9377C69.5001 52.416 69.0053 52.6748 68.383 52.2029C67.8849 52.3729 67.4673 51.9842 66.9636 51.9985C66.8628 52.0014 66.7564 51.8486 66.6264 51.741C67.2415 51.323 68.0938 51.8773 68.4472 51.1997C68.0889 51.0541 67.7046 50.887 67.27 50.7213C67.0035 51.0182 66.6476 50.9393 66.2861 50.7048C66.0212 51.0461 65.5402 50.993 65.2599 50.912C64.9276 50.7879 64.605 50.9306 64.2719 50.7843C63.99 50.6588 63.5659 50.7821 63.2133 50.7921C63.3019 50.4558 63.3685 50.2091 63.4343 49.9402C64.0867 49.8549 64.7652 49.7911 65.5679 49.6793C65.5955 49.7452 65.7287 49.9417 65.8376 50.1612C65.9115 50.1146 65.9855 50.068 66.0594 50.0214C66.0806 49.9095 66.1261 49.7747 66.1708 49.6176C66.3471 49.6126 66.5486 49.6069 66.8004 49.5997C66.8281 49.6657 66.8833 49.7977 66.9645 49.9511C67.1408 49.9461 67.3423 49.9404 67.5942 49.9332C67.6161 49.8436 67.6616 49.7088 67.7315 49.551C67.9078 49.546 68.1093 49.5403 68.3108 49.5345C68.4058 50.0659 68.9754 49.7827 69.2817 49.8853C69.6132 49.9871 70.0121 49.8645 70.3915 49.8982C70.5427 49.8939 70.6726 50.0015 70.8514 50.0632C70.9481 49.9492 71.0691 49.8122 71.1658 49.6982C71.7736 49.7699 72.2594 49.9564 72.8858 49.8496C73.5626 49.7413 74.3613 49.5183 75.0576 49.9436C75.6174 49.3936 75.9237 50.186 76.4022 50.1724C76.6996 50.0305 77.0213 49.8655 77.3431 49.7006C77.5738 49.8053 77.8614 50.0864 78.0702 49.5909C78.1783 49.7881 78.2595 49.9416 78.3668 50.1166C78.9128 49.8785 79.4352 49.6857 80.0754 49.9568C80.3825 50.0815 80.8562 49.9346 81.2324 49.8794C81.4582 49.8507 81.6825 49.7775 81.8832 49.7496C81.966 49.9475 82.0205 50.0572 82.1025 50.2329C82.4413 49.845 82.7826 49.5237 83.4496 49.8386C83.5024 49.9039 83.6097 50.0788 83.7177 50.276C83.669 50.3219 83.5966 50.413 83.4991 50.5048C83.6259 50.5234 83.7551 50.6088 83.855 50.5837C84.4774 50.3657 85.0745 50.1485 85.6961 49.9083C85.8261 50.0158 85.9577 50.1679 86.1373 50.2518C86.342 50.335 86.5955 50.3723 86.823 50.3881C86.9749 50.406 87.1244 50.3572 87.2999 50.33C87.3064 50.5078 87.3129 50.6857 87.3202 50.8858C86.892 50.8979 86.4386 50.9108 86.0105 50.923C85.8463 51.2615 85.7318 51.5763 85.5213 52.0273C85.2321 51.0119 84.2392 51.4407 83.6705 51.0563C83.5624 51.5489 83.4544 52.0416 83.3243 52.6239C83.551 52.6174 83.7273 52.6124 83.8784 52.6081C83.7387 52.2338 84.0873 52.1126 84.353 51.7935C84.6414 52.0968 84.8518 52.3357 85.1142 52.6175C85.2353 52.4805 85.3563 52.3436 85.5505 52.1378C85.8024 52.1306 86.125 51.9879 86.5117 52.2217C86.6669 52.3286 87.0634 52.1393 87.5135 52.0375C87.3957 52.2633 87.3501 52.3982 87.2275 52.4907C87.056 52.6291 86.8578 52.7237 86.636 52.8635C86.7976 53.1482 86.9577 53.3885 87.1453 53.6947C87.1852 53.4043 87.2282 53.2028 87.2672 52.8901C87.9757 52.959 88.6842 53.0278 89.469 53.1168C89.3602 52.8974 89.2781 52.7217 89.1433 52.4807C89.5463 52.4693 89.8485 52.4607 90.2011 52.4506C90.2328 52.6278 90.2645 52.8049 90.2978 53.0265C90.4237 53.0229 90.5756 53.0408 90.7519 53.0358C90.6439 52.8386 90.5375 52.6859 90.4026 52.4449C90.8543 52.3876 91.2313 52.3546 91.6587 52.3202C91.7806 52.2055 91.9268 52.0678 92.1218 51.8842C92.463 52.2528 92.8043 52.6214 93.1707 52.9893C93.5444 52.8674 93.9182 52.7455 94.2919 52.6237C94.2131 52.5369 94.1099 52.4731 93.9791 52.3433C94.508 52.3282 94.9866 52.3146 95.5155 52.2996C95.5212 52.4552 95.5277 52.633 95.5382 52.922C95.8876 52.8231 96.3085 52.6108 96.3865 52.6754C96.7261 52.9995 96.9365 52.5485 97.2168 52.6295C97.5223 52.7099 97.8262 52.7457 98.156 52.8031C98.4217 52.484 98.7646 52.2072 99.2643 52.0817L100.467 51.8695C100.771 51.9054 101.048 51.9198 101.4 51.8875C102.127 51.7778 102.156 51.866 102.441 51.3906C102.488 51.3002 102.535 51.2099 102.63 51.0514C102.12 50.8879 101.56 50.7258 101.863 50.0496C102.622 50.117 102.798 50.8019 103.519 51.2264C103.492 51.1605 103.136 51.0816 103.448 50.6499C103.729 50.7531 104.035 50.8557 104.29 50.9375C104.298 51.1598 104.305 51.3376 104.317 51.6711C104.155 51.3864 104.075 51.2551 103.994 51.1017C103.895 51.1712 103.822 51.2401 103.544 51.2257C103.2 51.458 103.087 51.8173 102.614 51.9865C103.145 52.016 103.722 51.9328 104.074 52.6126C104.136 52.2326 104.154 52.0318 104.171 51.8088C104.733 52.0153 105.227 52.4241 105.892 51.9824C106.113 51.8426 106.52 51.9422 106.848 51.9329C106.882 52.1768 106.914 52.3539 106.946 52.5533C107.4 52.5404 107.853 52.5275 108.331 52.5139C108.453 52.3991 108.6 52.2615 108.77 52.1008C109.047 52.093 109.53 52.1905 109.676 52.0528C110.017 51.7316 110.233 52.126 110.508 52.0514C110.807 51.9539 111.08 51.8349 111.378 51.7152C111.401 51.6477 111.422 51.5359 111.444 51.4462C111.468 51.4233 111.493 51.4003 111.542 51.3767C111.676 51.5954 111.835 51.7912 111.995 52.0314C112.675 52.0121 113.354 51.9705 114.01 51.9742C114.64 51.9785 115.288 51.7598 115.881 52.1213C115.951 51.9635 115.996 51.8287 116.065 51.6264C117.068 52.1765 118.175 52.1006 119.257 52.0475C120.188 51.9988 121.095 51.973 122.027 51.9688C122.405 51.9581 122.767 51.5027 123.114 52.0492C123.231 51.7788 123.276 51.644 123.322 51.5092C123.506 51.7265 123.69 51.9438 123.85 52.1618C123.972 52.0693 124.045 51.9782 124.167 51.8857C124.372 51.9689 124.577 52.0521 124.782 52.1353C124.955 52.0414 125.128 51.9474 125.35 51.8298C125.509 52.0256 125.666 52.1992 125.772 52.3297C126.046 52.2329 126.218 52.1167 126.394 52.1117C127.548 51.9454 128.717 52.2015 129.854 52.2582C130.233 52.2919 130.657 52.1686 131.094 52.3787C131.453 52.5465 132.002 52.3974 132.455 52.3845C133.01 52.3687 133.539 52.3759 134.093 52.338C135.575 52.1846 137.027 52.6106 138.535 52.4787C138.912 52.4457 139.297 52.6351 139.719 52.4451C139.942 52.3497 140.371 52.3375 140.552 52.4659C140.99 52.7427 141.411 52.5083 141.843 52.6072C141.883 52.339 141.926 52.1153 141.966 51.8471C142.253 52.106 142.488 52.3219 142.671 52.4947C142.823 52.5349 142.899 52.5327 142.975 52.5528C143.33 52.6095 143.702 52.4209 144.04 52.7006C144.326 52.9372 144.726 52.1692 145.074 52.7157C145.362 52.3069 145.682 52.8096 146.007 52.7114C146.357 52.6347 146.761 52.6455 147.14 52.6792C147.368 52.695 147.575 52.8449 147.802 52.8607C147.979 52.8779 148.142 52.4949 148.356 52.8227C148.382 52.8664 148.532 52.8177 148.583 52.8385C149.019 53.0486 149.445 52.2799 149.893 52.8012C150.369 52.7209 150.881 52.9289 151.323 52.6048C152.473 53.0394 153.735 52.3805 154.886 52.8373C155.091 52.9205 155.366 52.8682 155.618 52.861C157.003 52.8216 158.389 52.7823 159.774 52.7429C160.202 52.7307 160.604 52.697 161.033 52.7071C161.362 52.72 161.823 52.9294 162.02 52.8126C162.44 52.5558 162.824 52.723 163.225 52.6448C163.875 52.4928 164.468 52.8543 165.118 52.7245C165.244 52.6987 165.425 52.8271 165.647 52.7095C165.87 52.5919 166.196 52.5381 166.449 52.5754C167.919 52.7784 169.533 52.7771 170.936 52.5369C171.162 52.5082 171.418 52.6344 171.67 52.6273C172.502 52.6259 173.358 52.5793 174.189 52.5557C174.466 52.5478 174.765 52.4503 175.001 52.6884C175.079 52.7752 175.357 52.7895 175.456 52.7422C176.097 52.3457 176.809 52.5035 177.489 52.4841C179.126 52.4154 180.763 52.3688 182.401 52.3445C182.804 52.3331 183.226 52.1653 183.591 52.4887C183.643 52.5317 183.818 52.5045 183.918 52.4794C184.913 52.0951 185.928 52.2665 186.962 52.2816C187.012 52.2802 187.091 52.367 187.143 52.41C187.713 52.1268 188.224 51.6449 188.974 52.1354C189.129 52.2423 189.453 52.1441 189.705 52.1369C192.022 52.071 194.314 52.0059 196.631 51.94C197.11 51.9264 197.584 51.8017 198.023 52.0785C198.51 51.5973 198.98 52.0513 199.46 52.0821C199.965 52.09 200.468 52.0757 200.971 52.0392C201.273 52.0084 201.572 51.9108 201.997 51.8097C202.205 51.9819 202.517 52.24 202.777 52.4552C203.103 52.4236 203.485 52.5241 203.393 52.0816C203.713 51.8722 203.992 51.9088 204.254 52.1684C204.464 51.7174 204.831 52.1075 205.132 52.0544C205.358 52.0258 205.706 51.8823 205.836 51.9899C206.198 52.2467 206.569 52.0581 206.923 52.0925C207.227 52.1284 207.6 51.9843 207.838 52.2891C207.985 52.1514 208.131 52.0137 208.326 51.8301C208.653 51.8208 209.007 51.833 209.384 51.8C210.564 51.6775 211.72 51.5556 212.924 51.4101C212.943 51.2315 212.986 51.03 213.024 50.6729C213.24 51.0673 213.401 51.3298 213.563 51.6367C214.159 51.3973 214.703 51.0925 215.49 51.2482C216.075 51.3873 216.772 51.145 217.448 50.9922C217.296 50.9743 217.143 50.9341 216.991 50.9162C216.308 50.8688 215.633 51.0216 214.943 50.7741C214.535 50.63 213.963 50.8465 213.485 50.8823C213.483 50.8379 213.48 50.749 213.45 50.6163C213.752 50.5855 214.077 50.5317 214.38 50.5453C215.216 50.6329 216.015 50.4321 216.763 50.2106C217.462 50.0127 218.064 49.9288 218.751 50.0873C218.954 50.126 219.226 49.9848 219.477 49.9554C219.879 49.8995 220.304 49.8206 220.707 49.8092C221.11 49.7977 221.491 49.8759 221.922 49.9304C221.966 49.7511 221.988 49.6615 222.007 49.5052C222.575 49.1775 222.899 49.7691 223.453 49.7311C223.452 49.7089 223.497 49.5741 223.544 49.4615C223.618 49.4371 223.692 49.3905 223.768 49.3883C225.282 49.4343 226.736 49.1927 228.102 48.642C228.351 48.546 228.68 48.5811 228.957 48.5732C230.04 48.5424 231.123 48.5117 232.257 48.4794C232.274 48.2564 232.267 48.0786 232.286 47.9C232.905 47.5931 233.498 47.2647 234.316 46.8632C234.893 46.8022 235.703 46.8905 236.731 46.7277C236.374 46.6266 236.222 46.5864 236.018 46.5255C236.089 46.4122 236.136 46.3218 236.209 46.2308C235.953 46.1268 235.698 46.045 235.518 45.9611C235.243 46.0356 234.994 46.1095 234.595 46.2321C234.814 46.0034 234.887 45.9345 234.959 45.8434C234.519 45.5222 234.233 45.9754 233.78 46.0105C233.748 45.8111 233.715 45.6118 233.683 45.4124C234.862 45.2676 235.967 45.1249 237.121 44.9809C237.243 44.8661 237.389 44.7285 237.536 44.5908C238.662 44.3807 239.789 44.1484 240.89 43.9391C240.291 43.422 239.607 43.3302 238.812 43.6421C238.68 43.4678 238.522 43.2943 238.363 43.0985C238.512 43.0275 238.586 42.9809 238.661 42.9565C240.169 42.8246 241.703 42.7143 243.212 42.6046C243.664 42.5695 244.012 42.4261 244.324 41.9944C243.69 41.9012 243.185 41.871 242.688 42.0632C242.514 42.1349 242.289 42.208 242.112 42.1908C241.202 42.1054 240.314 41.9749 239.225 41.8278C240.109 41.1796 241.016 41.1538 241.895 41.062C241.738 40.2209 240.834 40.3133 240.318 39.9942C240.437 39.8128 240.507 39.655 240.65 39.4284C239.737 39.2763 238.937 39.4548 238.052 39.391C238.119 39.1665 238.265 39.0066 238.49 38.978C238.766 38.9256 239.02 38.9851 239.082 38.6051C239.102 38.471 239.548 38.258 239.777 38.296C240.36 38.3907 240.887 37.6414 241.463 38.2258C241.988 38.0996 242.513 37.9735 243.062 37.8243C243.313 37.7727 243.536 37.6773 243.784 37.559C243.404 37.5253 242.995 37.3589 242.68 37.7239C242.364 37.3546 241.918 37.5675 241.514 37.5345C241.109 37.5015 240.733 37.5567 240.323 37.3681C239.99 37.2218 239.491 37.3695 239.088 37.381C238.685 37.3924 238.257 37.4046 237.778 37.4182C238.65 37.8162 238.676 37.8377 239.812 37.8722C239.47 38.1712 239.085 38.0041 238.785 38.0572C238.408 38.1124 238.029 38.0787 237.601 38.0908C237.468 37.9166 237.31 37.7208 237.099 37.4598C236.438 37.3228 235.496 37.7501 234.86 36.9225C236.191 36.7512 237.421 36.605 238.675 36.4358C238.696 36.3239 238.718 36.2343 238.739 36.1224C239.517 36.0113 240.319 35.8772 241.096 35.7661C241.211 35.4513 241.326 35.1587 241.441 34.8439C242.78 34.9171 244.006 34.6597 245.232 34.4024C245.307 34.378 245.355 34.3098 245.5 34.1499C245.347 34.1098 245.195 34.0918 245.043 34.0517C245.091 34.0058 245.116 33.9828 245.164 33.9369C245.138 33.9154 245.086 33.8724 245.086 33.8724C244.963 33.9427 244.817 34.0803 244.691 34.0839C242.803 34.1598 240.913 34.1913 238.973 34.2464C238.904 33.7366 237.995 33.6957 238.171 32.9785C238.646 32.876 239.121 32.7735 239.622 32.6702C239.697 32.6459 239.823 32.6423 239.821 32.5978C240.121 31.8327 240.884 32.0335 241.512 31.9489C242.064 31.8887 242.613 31.7396 243.167 31.7016C243.694 31.6421 244.25 31.6708 244.905 31.6522C244.519 31.4406 244.285 31.247 243.881 31.2362C243.023 31.2161 242.15 31.4857 241.329 31.0862C240.69 31.5495 240.065 30.9886 239.389 31.1191C238.713 31.2496 237.953 31.1599 237.249 31.2022C236.218 31.276 235.232 31.215 234.188 30.9331C234.509 30.746 234.805 30.5596 235.027 30.4197C236.001 30.1695 236.999 30.5862 237.863 30.0721C238.363 30.6587 238.818 29.9782 239.298 30.009C239.778 30.0399 240.232 30.0492 240.702 29.7911C240.973 29.6276 241.432 29.7703 241.808 29.7151C242.159 29.6606 242.484 29.5624 242.833 29.4635C243.132 29.3659 243.43 29.2462 243.927 29.054C243.573 29.0196 243.446 29.0009 243.346 29.0038C242.235 28.9686 241.149 28.9105 240.038 28.8753C239.937 28.8782 239.809 28.815 239.707 28.7957C239.555 28.7555 239.402 28.7153 239.274 28.6522C239.041 28.5031 238.858 28.3302 238.65 28.1581C239.338 27.649 240.153 27.8706 240.902 27.6713C240.194 27.6246 239.552 27.3091 238.823 27.3743C238.371 27.4094 237.888 27.2897 237.407 27.2366C237.394 26.9031 237.385 26.6586 237.373 26.3251C237.676 26.3165 238.005 26.3517 238.304 26.2764C238.605 26.2233 238.823 25.9724 239.203 26.0283C239.532 26.0635 239.883 26.009 240.21 25.9997C240.538 25.9904 240.891 25.9803 241.319 25.9682C241.437 25.7423 241.554 25.4942 241.694 25.2009C241.49 25.1399 241.388 25.0983 241.286 25.0789C241.031 24.9972 240.776 24.9154 240.496 24.8344C240.641 24.6745 240.714 24.6056 240.787 24.5145C240.709 24.45 240.657 24.407 240.605 24.3639C240.761 23.8254 241.298 24.0104 241.674 23.9552C242.169 23.6964 241.983 22.7448 242.997 22.894C242.895 22.8746 242.767 22.8337 242.666 22.8144C242.539 22.7957 242.389 22.8222 242.336 22.757C242.18 22.6279 242.084 22.7641 241.983 22.7448C241.15 22.7239 240.34 22.6357 239.505 22.5704C239.404 22.551 239.299 22.4427 239.17 22.3574C239.917 22.1136 240.615 21.8935 241.413 21.6483C241.503 21.3342 241.405 20.7361 242.236 20.7125C241.526 20.5991 240.872 20.64 240.217 20.6586C239.562 20.6772 238.882 20.6965 238.253 20.7144C238.071 20.5638 237.94 20.434 237.73 20.2174C238.003 20.0984 238.178 20.0489 238.327 19.978C238.326 19.9557 238.325 19.9335 238.323 19.889C237.796 19.9485 237.644 19.2407 237.045 19.3913C236.845 19.4415 236.56 19.2493 236.356 19.1883C236.41 18.5859 237.231 18.9632 237.313 18.449C237.312 18.4268 238.406 18.0174 238.457 18.0159C238.91 18.003 239.364 17.9902 239.786 17.8224C238.096 17.8037 236.38 17.7634 234.893 17.7612C234.356 17.5762 234.216 17.1796 233.74 17.2599C233.264 17.3402 232.876 17.0841 232.564 16.826C232.174 16.5033 231.613 16.3412 231.418 15.8126C231.619 15.8069 231.821 15.8012 232.073 15.794C232.1 15.86 232.155 15.9919 232.211 16.1461C232.332 15.9869 232.451 15.8055 232.546 15.647C232.599 15.7123 232.676 15.7546 232.729 15.8199C233.43 15.6887 234.131 15.5575 234.858 15.4255C234.88 15.3359 234.876 15.2248 234.895 15.0684C233.959 14.9838 233.048 14.8984 232.112 14.8137C232.107 14.6581 232.1 14.4803 232.095 14.3469C232.292 14.2078 232.464 14.0916 232.636 13.9754C232.507 13.8679 232.453 13.7804 232.403 13.7818C232.2 13.7653 231.921 13.7065 231.773 13.7997C231.428 14.0098 231.154 14.1066 230.84 13.804C229.734 13.9022 228.69 13.6203 227.65 13.4273C226.964 13.291 226.284 13.3104 225.602 13.2852C225.498 13.1992 225.42 13.1346 225.238 12.984C225.228 12.7173 225.215 12.3616 225.196 11.828C224.926 12.036 224.803 12.1063 224.705 12.1981C224.608 12.2898 224.535 12.3809 224.318 12.6319C224.224 12.145 224.163 11.8574 224.102 11.5698C223.976 11.5734 223.9 11.5533 223.699 11.5591C223.781 11.757 223.888 11.9097 223.919 12.0646C223.95 12.2418 223.932 12.4203 223.936 12.5315C224.245 12.7007 224.475 12.8054 224.784 12.9747C224.609 13.0242 224.511 13.0937 224.385 13.0973C223.883 13.1561 223.718 12.7825 223.408 12.5687C223.505 12.4769 223.554 12.4311 223.651 12.3393C223.473 12.2776 223.319 12.2152 223.166 12.1528C223.261 12.0166 223.331 11.8588 223.451 11.6774C223.093 11.554 222.808 12.0294 222.466 11.6386C222.308 11.4651 221.711 11.6823 221.429 11.5346C221.146 11.3868 220.882 11.7504 220.694 11.4442C220.43 11.8077 220.018 11.5747 219.695 11.6951C219.613 11.5194 219.557 11.3875 219.503 11.2778C219.02 11.158 218.402 11.5093 218.103 10.917C218.88 10.7836 219.683 10.6718 220.509 10.5148C220.567 10.7357 220.601 10.9572 220.691 11.3553C220.856 11.039 220.95 10.8583 221.045 10.6998C221.663 11.0383 222.141 11.0247 222.637 10.7881C222.835 10.6935 223.113 10.7078 223.339 10.6791C223.405 10.4102 223.47 10.1413 223.538 9.91685C222.927 9.75619 222.339 9.55035 221.732 9.47861C221.124 9.40687 220.495 9.447 219.89 9.44195C219.536 9.42974 219.207 9.39459 218.752 9.36301C218.729 9.40819 218.608 9.54516 218.488 9.72658C218.817 9.73951 219.144 9.7302 219.446 9.72161C219.612 10.1175 219.47 10.3663 219.1 10.5993C218.914 10.3376 218.703 10.0765 218.464 9.74953C218.254 9.51072 218.044 9.29414 217.782 9.03453C217.485 9.1765 217.212 9.29554 216.915 9.43751C217.034 9.94595 217.281 9.80541 217.621 9.46193C217.656 9.70575 217.688 9.90511 217.75 10.2149C217.444 10.1346 217.266 10.0729 217.062 10.0119C216.913 10.0829 216.764 10.1539 216.516 10.2722C216.502 9.87207 216.49 9.5386 216.478 9.22738C216.096 9.10473 215.707 8.82647 215.484 8.92184C215.036 9.09034 214.683 9.07813 214.298 8.91102C214.013 9.38645 213.696 8.99489 213.367 8.93751C212.86 8.86291 212.353 8.7883 211.822 8.75888C211.292 8.72945 210.739 8.78966 210.185 8.80541C210.13 8.67346 210.074 8.54151 209.992 8.36581C209.894 8.43537 209.82 8.48198 209.747 8.55082C209.058 8.32561 209.441 7.75839 209.221 7.25282C208.947 7.34962 208.697 7.42346 208.424 7.52026C208.113 6.61668 208.113 6.61668 207.261 6.75218C207.313 6.79521 207.366 6.86046 207.522 6.98955C207.321 7.01751 207.095 7.04619 206.895 7.07415C206.973 7.13869 207.076 7.20252 207.154 7.26706C206.834 7.49868 206.379 7.44487 205.898 7.41401ZM92.4843 50.7612C92.3672 51.0093 92.3217 51.1442 92.2259 51.2804C92.0349 51.5751 91.8172 51.8261 91.4702 51.9917C91.4207 52.0154 91.3427 51.9509 91.2411 51.9315C91.2354 51.7759 91.2289 51.598 91.2241 51.4647C90.8235 51.5428 90.4725 51.5973 90.0468 51.6761C90.0281 51.1648 90.0127 50.7425 89.9916 50.1645C90.1533 50.4492 90.2337 50.5804 90.3141 50.7116C90.5603 50.5489 90.8065 50.3861 91.0519 50.2011C91.1859 50.4198 91.2664 50.5511 91.3476 50.7045C91.7864 50.2915 92.1447 50.4371 92.2365 50.8795C92.8913 50.8609 93.2943 50.8495 93.6469 50.8394C93.5884 50.6186 93.5567 50.4414 93.4991 50.2428C93.5494 50.2414 93.5738 50.2184 93.6242 50.217C93.8614 50.4995 94.0735 50.7828 94.3107 51.0654C95.0809 50.7542 95.1565 50.752 95.8731 51.0432C96.0689 50.8819 96.2639 50.6983 96.5328 50.4681C96.7034 50.9974 97.4672 50.5083 97.5419 51.1738C97.1901 51.2061 96.8391 51.2605 96.588 51.2899C96.519 51.4699 96.4726 51.5825 96.4263 51.6951C96.328 51.7646 96.2289 51.812 96.1054 51.8822C96.0469 51.6614 95.964 51.4634 95.9056 51.2426C95.7593 51.3802 95.6862 51.4491 95.5887 51.5409C95.4311 51.3673 95.2995 51.2153 95.1687 51.0855C94.4268 51.4849 93.6623 51.2618 92.9335 51.327C92.8588 51.3514 92.6744 51.1341 92.4843 50.7612ZM173.085 52.0085C172.854 51.9038 172.649 51.7983 172.367 51.6728C172.835 51.3925 173.021 51.6542 172.649 51.8206C172.428 51.9826 172.257 52.121 172.159 52.2128C171.728 52.1361 171.292 51.9482 171.145 52.0414C170.777 52.3411 170.369 52.2192 169.968 52.2751C169.767 52.3031 169.462 52.2227 169.364 52.3145C168.925 52.7053 168.464 52.5181 168.035 52.5081C167.71 51.8942 168.567 51.8699 168.55 51.403C169.07 51.8555 169.391 51.6462 169.751 51.1686C169.446 51.0882 169.191 51.0287 168.936 50.9469C168.605 50.8451 168.323 50.7196 168.482 50.2477C168.99 50.3446 169.473 50.4421 169.829 50.521C169.989 50.7835 170.097 50.9585 170.205 51.1557C170.133 51.269 170.062 51.3823 169.966 51.5185C170.802 51.6283 171.637 51.7158 173.085 52.0085ZM173.788 11.1752C174.008 10.9687 174.252 10.7392 174.47 10.5105C175.01 10.8067 175.514 10.7924 175.933 10.5134C176.594 10.6727 177.18 10.834 177.867 11.0148C177.72 11.1302 177.571 11.2012 177.475 11.3152C177.328 11.4529 177.234 11.6336 177.163 11.7469C175.996 11.5575 174.88 11.3667 173.177 10.3025C173.392 10.6746 173.555 11.0038 173.688 11.2003C173.57 11.404 173.5 11.5617 173.429 11.6973C172.919 11.5337 172.536 11.3889 172.128 11.2669C171.771 11.1658 171.53 11.462 171.228 11.4928C170.952 11.5229 170.644 11.3759 170.34 11.34C170.265 11.3421 170.193 11.4554 170.071 11.5479C170.011 11.3048 169.978 11.0832 169.919 10.8401C169.466 11.5651 169.417 11.611 168.886 11.5594C168.329 11.4862 167.794 11.3456 167.235 11.228C167.218 11.451 167.224 11.6288 167.228 11.74C167.072 11.6109 166.89 11.4603 166.786 11.3742C166.007 11.4187 165.376 11.4143 164.801 11.542C164.576 11.5929 164.455 11.7298 164.171 11.5599C163.706 11.2615 163.019 11.7706 162.548 11.2944C162.262 11.7476 161.565 11.3001 161.303 11.7304C161.197 11.5776 161.113 11.3575 160.986 11.3388C160.529 11.2406 160.419 10.9989 160.406 10.6432C160.401 10.4876 160.218 10.3148 160.213 10.1814C160.233 10.0473 160.405 9.90888 160.453 9.84076C160.809 9.94189 161.114 9.99999 161.369 10.0817C161.398 10.1922 161.427 10.3026 161.458 10.4353C161.709 10.4059 161.934 10.3772 162.111 10.3722C162.155 10.1929 162.176 10.0811 162.174 10.0366C162.505 10.1162 162.784 10.175 163.089 10.2331C163.147 10.4318 163.179 10.6311 163.238 10.852C163.482 10.6448 163.677 10.4612 163.823 10.3235C164.13 10.4261 164.335 10.5093 164.539 10.5925C164.633 10.3895 164.679 10.277 164.725 10.1644C164.96 10.3802 165.22 10.5954 165.454 10.789C166.124 10.4807 166.7 10.3975 166.86 10.6155C166.99 10.7231 167.145 10.83 167.327 10.9806C167.419 10.7554 167.465 10.6206 167.534 10.4406C168.801 10.6049 170.119 10.1001 171.422 10.5749C171.549 10.6158 171.8 10.5864 171.899 10.5168C172.291 10.2164 172.753 10.448 173.788 11.1752ZM26.0549 48.8664C25.4529 48.9502 24.9475 48.9201 24.5502 49.0872C24.1277 49.255 23.7451 49.1323 23.3656 49.0986C22.8855 49.0677 22.428 48.9695 21.9722 48.9157C21.878 49.0964 21.8073 49.2319 21.7139 49.4348C21.5343 49.3509 21.3556 49.2892 21.0736 49.1637C20.9786 49.3222 20.8599 49.5259 20.7884 49.6392C20.3318 49.5631 20.0263 49.4828 19.7225 49.4469C19.3682 49.4125 18.8848 49.2927 18.8759 49.0482C18.8621 48.6703 17.9635 48.9183 18.3738 48.4171C18.8524 48.4035 19.3309 48.3899 19.7843 48.377C19.8152 48.5319 19.8444 48.6423 19.9021 48.841C20.0191 48.5929 20.0898 48.4573 20.184 48.2766C20.7934 48.3928 21.4279 48.5083 22.0373 48.6245C22.1348 48.5327 22.2323 48.4409 22.3054 48.3721C22.2266 48.2853 22.1478 48.1985 21.9626 47.959C22.3704 48.0809 22.5492 48.1426 22.7531 48.2036C22.7986 48.0688 22.8441 47.934 22.8896 47.7991C23.0163 47.8178 23.1423 47.8142 23.3454 47.853C23.2804 48.1441 23.2137 48.3908 23.1512 48.7486C23.8344 48.8182 24.5421 48.8649 25.2758 48.933C25.4675 48.6605 25.5853 48.4346 25.7535 48.2073C26.2264 48.0381 26.4653 48.3651 26.7772 48.6233C27.3793 47.8496 28.4054 48.3322 29.1473 47.9328C29.1521 48.0662 29.1546 48.1329 29.1578 48.2218C29.4893 48.3237 29.8224 47.7801 30.2197 48.3029C30.0475 48.4191 29.876 48.5575 29.5819 48.7884C30.1084 48.7066 30.4642 48.7855 30.8583 48.5295C31.2515 48.2513 31.7504 48.1036 32.1973 47.9129C32.3468 47.8641 32.545 47.7695 32.6474 47.8111C33.2137 48.1288 33.8369 47.933 34.3934 47.984C34.4754 48.1597 34.5307 48.2916 34.6412 48.5555C34.8329 48.283 34.9524 48.1016 35.0247 48.0105C35.5032 47.9969 35.8559 47.9869 36.2588 47.9755C36.2393 48.1318 36.2182 48.2437 36.1987 48.4C35.9444 48.3405 35.7656 48.2788 35.5617 48.2178C35.5162 48.3526 35.4707 48.4875 35.4244 48.6C34.6208 48.6896 33.8108 48.6014 32.9333 48.7376C33.0893 48.8667 33.1673 48.9312 33.2973 49.0388C33.0227 49.1134 32.7521 49.2991 32.549 49.2604C31.6837 49.0402 30.8087 49.2431 29.9515 49.2452C29.4974 49.2358 28.9692 49.2731 28.4598 49.1318C28.3583 49.1124 28.2299 49.0493 28.1292 49.0522C27.9041 49.1031 27.7075 49.2422 27.4816 49.2709C27.3061 49.2981 27.0989 49.1482 26.9226 49.1533C26.7211 49.159 26.5237 49.2759 26.3246 49.3483C26.1638 49.0858 26.1085 48.9539 26.0549 48.8664ZM42.8601 9.15543C43.5653 9.13539 44.3526 9.29104 44.949 9.05155C46.2408 8.52525 47.6764 9.17431 48.8887 8.539C49.5086 8.9442 50.1049 8.70471 50.7021 8.48745C50.802 8.46235 50.9792 8.47958 51.0563 8.52189C51.5235 8.88692 52.1386 8.46887 52.6017 8.72275C53.1159 8.99743 53.6636 8.80383 54.1681 8.81175C54.3444 8.80674 54.5159 8.66834 54.6637 8.57512C54.9197 8.67912 55.1756 8.7831 55.3803 8.8663C55.39 9.13307 55.399 9.37761 55.4111 9.71107C55.1268 9.51887 54.9448 9.36826 54.7116 9.19686C54.0738 9.68232 53.3865 9.50157 52.7016 9.38752C52.6804 9.49939 52.6585 9.58903 52.6374 9.7009C52.1726 9.40256 51.5933 9.41902 51.2464 9.58466C50.702 9.86718 50.2633 9.59035 49.7839 9.58172C49.3801 9.57094 49.0462 9.40241 48.5994 9.59314C48.2272 9.7595 47.6934 9.64114 47.2401 9.65403C46.8119 9.6662 46.3626 9.79025 45.9799 9.6676C45.5209 9.52487 45.2211 10.29 44.7734 9.76865C44.4582 10.1114 44.1966 9.85181 43.8659 9.7722C43.4597 9.69473 43.0339 9.77359 42.6057 9.78576C42.4294 9.79077 42.2515 9.75133 41.9224 9.71617C42.1881 9.39707 42.3823 9.19127 42.648 8.87216C41.9964 8.9797 41.5894 8.88001 41.5163 8.25898C42.4051 8.434 43.138 7.79006 43.8002 7.97152C44.1382 8.25121 44.3209 8.42404 44.5029 8.57465C44.2543 8.67073 43.9106 8.92528 43.7823 8.86217C43.3452 8.62981 43.1575 9.01346 42.8601 9.15543ZM46.8841 51.7236C46.1789 51.7437 45.5492 51.7616 44.9196 51.7795C44.9147 51.6461 44.9107 51.5349 44.9042 51.3571C45.4111 51.4317 45.8921 51.4848 46.3739 51.5601C46.3723 51.5156 46.3967 51.4927 46.3951 51.4482C46.2163 51.3865 46.0628 51.3241 45.9352 51.2833C45.9279 51.0832 45.9214 50.9053 45.9149 50.7275C46.244 50.7626 46.6283 50.9298 46.8005 50.8136C47.1946 50.5576 47.4155 51.0854 47.7868 50.8968C47.9851 50.8022 48.3434 50.9478 48.6221 50.9843C48.6432 50.8725 48.6651 50.7828 48.6871 50.6932C49.0259 50.9951 49.3646 51.297 49.7286 51.5982C50.1519 51.4527 50.4249 51.3337 50.7247 51.2584C51.0741 51.1594 51.4852 51.3703 51.7761 51.0505C51.8248 51.0046 52.0539 51.0648 52.1815 51.1057C52.6414 51.2707 53.1508 51.412 53.5619 51.6228C54.0493 51.8537 54.4962 51.663 54.9512 51.6946C54.9723 51.5827 54.9943 51.4931 55.0365 51.2693C55.1714 51.5103 55.2518 51.6415 55.359 51.8165C55.6353 51.7864 55.9367 51.7556 56.464 51.6961C56.0822 51.5957 55.9294 51.5555 55.7255 51.4945C55.7442 51.316 55.7369 51.1159 55.7751 50.781C56.1334 50.9266 56.3909 51.0751 56.6436 51.0901C56.8963 51.1052 57.1425 50.9424 57.4902 50.799C57.478 51.1554 57.4634 51.4451 57.4568 51.9572C57.2919 51.5835 57.2367 51.4516 57.1555 51.2981C57.0669 51.6344 56.3267 51.3884 56.5485 51.9385C57.2895 52.2067 57.8801 51.8116 58.6065 51.6797C58.3887 51.9307 58.171 52.1817 57.9532 52.4326C57.5218 52.3559 57.027 52.6147 56.6354 52.2476C56.6086 52.2038 56.4095 52.2762 56.3104 52.3236C55.818 52.6491 55.4354 52.5265 54.995 52.2052C54.7619 52.0338 54.3248 51.8014 54.2215 52.4274C54.2012 52.5615 53.8007 52.6397 53.5529 52.758C53.3928 52.5178 53.2344 52.322 53.128 52.1692C52.9013 52.1757 52.6998 52.1814 52.5235 52.1864C52.4788 52.3435 52.4585 52.4776 52.413 52.6124C52.231 52.4618 52.101 52.3542 51.997 52.2681C52.0693 52.1771 52.1424 52.1082 52.3862 51.8788C51.9125 52.0258 51.6379 52.1003 51.3893 52.1964C51.2073 52.0458 51.0261 51.9174 50.8441 51.7668C50.6044 52.1074 50.2469 51.9841 49.9203 52.0156C49.2907 52.0335 48.6602 52.0292 48.0557 52.0464C48.0305 52.0471 48.0037 52.0033 47.9517 51.9603C47.9737 51.8707 47.9948 51.7588 47.9915 51.6699C48.2418 51.6183 48.4677 51.5896 48.6927 51.5387C48.1102 51.4662 47.5878 50.9692 46.9435 51.2768C46.9207 51.3443 46.902 51.5228 46.8841 51.7236ZM7.31582 39.0288C7.07207 39.2583 7.0485 39.3035 7.02332 39.3042C6.84539 39.2647 6.6179 39.2489 6.51309 39.1406C6.19869 38.8158 5.64134 38.7426 5.39271 38.8387C4.91984 39.0079 4.53717 38.8853 4.08625 38.9648C4.06921 38.498 3.87506 38.0139 4.06925 37.8081C4.43246 37.3972 3.6395 37.086 4.13107 36.7382C4.89559 36.9613 5.71049 37.1829 6.55057 37.4038C6.56598 37.8262 6.58058 38.2263 6.60005 38.7599C6.77879 38.8215 7.00872 38.904 7.31582 39.0288ZM9.12112 39.4448C8.55646 39.1716 8.12018 38.9614 7.70989 38.7728C7.57503 38.5319 7.51574 38.2888 7.35813 38.1152C7.20133 37.9639 6.97059 37.8592 6.73905 37.7322C6.88692 37.639 6.93486 37.5709 7.00961 37.5465C7.08436 37.5221 7.18511 37.5193 7.26148 37.5394C7.48978 37.5774 7.72133 37.7043 7.92282 37.6986C8.17469 37.6914 8.59475 37.457 8.64756 37.5222C8.88641 37.8492 9.22442 37.4391 9.53558 37.675C9.77038 37.8909 10.2481 37.855 10.6803 37.954C10.5577 38.0465 10.4837 38.0931 10.409 38.1175C10.3098 38.1648 10.2099 38.1899 10.0604 38.2387C10.6738 38.466 10.7282 38.5758 10.5576 38.7364C10.2529 38.6783 9.99864 38.6187 9.79471 38.5578C9.55501 38.8984 9.31288 39.1723 9.12112 39.4448ZM63.6633 52.07C62.3763 52.7297 61.0943 52.1431 59.7618 52.2477C59.8049 52.0462 59.8268 51.9566 59.8731 51.844C60.3517 51.8304 60.8286 51.7723 61.2584 51.8046C61.7386 51.8355 62.2578 51.5537 62.6762 51.9646C63.0654 51.5752 63.4261 51.7875 63.8348 51.9317C64.0135 51.9933 64.3166 52.007 64.4392 51.9145C64.8796 51.5459 65.545 51.8163 65.9805 51.3143C66.0439 51.6686 66.1016 51.8672 66.134 52.0666C66.312 52.106 66.4647 52.1462 66.3632 52.1268C66.2697 52.3298 66.1291 52.6231 65.9414 53.0067C65.5742 52.6166 65.3378 52.3563 65.1022 52.1182C64.9787 52.1884 64.9291 52.2121 64.8552 52.2587C64.934 52.3455 65.012 52.41 65.116 52.4961C64.9186 52.613 64.7471 52.7514 64.5009 52.9141C64.1881 52.6337 63.9517 52.3734 63.6633 52.07ZM41.9916 48.2353C41.4115 48.2296 40.9419 48.4877 40.3781 48.2367C39.9174 48.0495 39.2902 48.1341 38.7458 48.4166C38.5484 48.5335 38.2859 48.9415 37.9187 48.5514C37.8399 48.4646 37.5417 48.5844 37.2874 48.5248C36.9819 48.4445 36.6545 48.4538 36.4392 48.0816C38.1519 47.3431 39.9206 48.1384 41.6017 47.9126C41.7317 48.0202 41.8616 48.1278 41.9916 48.2353ZM188.833 51.7389C188.602 51.6341 188.447 51.5273 188.321 51.5309C188.044 51.5387 187.79 51.4792 187.52 51.6872C187.397 51.7797 187.056 51.411 186.74 51.7316C186.57 51.9144 185.729 51.6491 185.596 51.4748C185.718 51.3601 185.815 51.2683 185.815 51.2683C186.386 51.0073 186.873 51.216 187.37 51.0238C187.743 50.8797 188.305 51.0863 188.812 51.1609C188.818 51.3165 188.824 51.4943 188.833 51.7389ZM161.906 51.0578C161.134 50.6346 160.358 50.7902 159.451 50.7938C159.796 50.5837 159.991 50.4001 160.216 50.3492C160.466 50.2753 160.769 50.3112 161.021 50.304C161.064 50.1025 161.086 50.0129 161.106 49.8566C161.358 49.8716 161.585 49.8652 161.913 49.8781C161.771 50.1269 161.675 50.2632 161.628 50.3535C161.738 50.5952 161.822 50.8376 161.906 51.0578ZM25.7056 47.5856C26.6644 46.913 27.5102 47.2895 28.3746 47.4875C27.2022 47.8323 27.2022 47.8323 25.7056 47.5856ZM89.3042 50.6736C89.0312 50.7926 88.8818 50.8414 88.7574 50.8894C88.7591 50.9339 88.7859 50.9776 88.7875 51.0221C89.0897 51.0135 89.4172 51.0042 89.7698 50.9942C89.7543 51.2616 89.7364 51.4624 89.6982 51.7973C89.3115 51.5635 89.0791 51.4144 88.7184 51.2021C88.4414 51.2099 88.0888 51.22 87.6606 51.2321C88.1026 50.908 88.4707 50.6305 88.7168 50.4677C88.9711 50.5273 89.1247 50.5897 89.3042 50.6736ZM158.677 11.627C159.298 11.3646 158.984 11.0397 159.075 10.7923C159.214 10.4323 159.227 10.1204 159.779 10.0379C159.815 10.3262 159.371 10.6059 159.859 10.859C159.988 10.9221 159.902 11.3252 159.911 11.5919C159.559 11.6019 159.282 11.6098 158.677 11.627ZM172.116 49.6326C171.614 50.3813 170.933 49.6885 170.438 49.9474C170.429 49.7028 170.423 49.5472 170.415 49.3249C171.025 49.4411 171.642 49.0897 172.116 49.6326ZM177.809 10.104C177.661 10.1972 177.488 10.3134 177.316 10.4296C177.011 10.3492 176.654 10.2481 176.298 10.1692C176.292 9.99137 176.285 9.81353 176.278 9.61346C176.743 9.9118 177.445 9.13519 177.809 10.104ZM125.162 49.4318C126.741 49.1866 126.741 49.1866 127.136 49.6427C126.66 49.723 126.16 49.8262 125.584 49.9316C125.479 49.8233 125.346 49.6491 125.162 49.4318ZM180.804 9.97437C180.378 10.7431 180.278 10.7682 179.501 10.1894C179.619 9.96356 179.761 9.71473 179.878 9.46661C180.188 9.6581 180.496 9.82735 180.804 9.97437ZM60.013 9.37998C59.7067 9.96728 59.4613 10.1523 58.9771 10.0103C58.6716 9.92994 58.3637 9.78292 58.5522 9.4215C59.0307 9.4079 59.5093 9.3943 60.013 9.37998ZM179.715 11.8969C179.508 11.7693 179.277 11.6645 179.045 11.5154C178.941 11.4293 178.861 11.2981 178.702 11.1023C179.231 11.0873 179.584 11.0772 179.987 11.0658C180.093 11.2185 180.226 11.3928 180.358 11.5671C180.135 11.6847 179.913 11.8023 179.715 11.8969ZM91.7458 9.10107C91.2152 9.07164 90.6709 9.35416 90.2224 8.81056C90.3443 8.69583 90.4418 8.60404 90.588 8.46636C90.9415 8.47857 91.3201 8.49007 91.7231 8.47861C91.7312 8.70092 91.736 8.8343 91.7458 9.10107ZM62.3505 49.9488C62.6576 50.0735 62.9387 50.1768 63.3482 50.3432C62.9468 50.3991 62.7218 50.45 62.4959 50.4787C62.7039 50.6508 62.885 50.7792 63.093 50.9513C62.7957 51.0933 62.5722 51.1887 62.374 51.2833C61.6013 50.8379 62.2164 50.4199 62.3505 49.9488ZM43.6205 50.726C44.3062 50.8622 45.0228 50.4636 45.702 51.1119C44.9464 51.1333 44.2916 51.1519 43.6367 51.1706C43.631 51.0149 43.6278 50.926 43.6205 50.726ZM3.72407 35.9486C3.89632 35.8325 4.06613 35.6496 4.26682 35.6217C4.59262 35.5679 4.92005 35.5586 5.2491 35.5937C5.35066 35.6131 5.45789 35.7881 5.53751 35.8971C5.16457 36.0412 4.89482 36.2492 4.61696 36.2348C4.34071 36.2649 4.05636 36.0727 3.72407 35.9486ZM182.671 52.1588C182.488 51.9637 182.356 51.8117 182.25 51.6812C182.42 51.4983 182.566 51.3606 182.615 51.3148C183.094 51.3011 183.446 51.2911 183.874 51.2789C183.432 51.5808 183.064 51.8583 182.671 52.1588ZM221.58 10.1505C221.386 10.3786 221.217 10.5837 221.048 10.7665C220.863 10.5492 220.623 10.1777 220.547 10.1799C220.224 10.3004 220.021 10.2616 219.778 9.82345C220.442 10.0494 221.08 9.58615 221.58 10.1505ZM106.617 51.8282C106.411 51.7006 106.282 51.6152 106.179 51.5736C106.297 51.3478 106.391 51.167 106.51 50.9634C106.661 50.9591 106.838 50.9763 106.989 50.9498C107.114 50.924 107.185 50.8107 107.332 50.6952C107.493 50.9577 107.575 51.1334 107.709 51.3521C107.282 51.3865 106.955 51.4181 106.679 51.4482C106.659 51.6045 106.638 51.7164 106.617 51.8282ZM61.5055 50.2843C61.6144 50.5038 61.6964 50.6795 61.8061 50.9211C60.9652 50.678 60.9652 50.678 61.083 49.7622C61.3901 49.887 61.6713 49.9903 62.0807 50.1567C61.8053 50.209 61.7054 50.2341 61.5055 50.2843ZM62.2505 9.89497C61.6712 9.91143 61.1171 9.92719 60.5126 9.94437C60.8669 9.28894 61.5079 9.58227 62.0092 9.50126C62.0596 9.49983 62.162 9.54143 62.2392 9.58374C62.2424 9.67266 62.2457 9.76158 62.2505 9.89497ZM167.853 50.9555C167.475 50.9662 167.072 50.9777 166.644 50.9899C166.66 50.7446 166.653 50.5445 166.67 50.3215C167.154 50.4635 167.536 50.5639 167.918 50.6644C167.872 50.7992 167.874 50.8659 167.853 50.9555ZM39.8246 51.0341C39.8197 50.9007 39.7905 50.7903 39.8149 50.7674C40.4551 50.3486 40.9824 50.979 41.5877 50.984C41.0336 50.9998 40.4795 51.0155 39.8246 51.0341ZM178.223 9.71394C178.661 9.96853 179.239 9.92984 179.286 10.5071C178.433 10.6426 178.407 10.5989 178.223 9.71394ZM7.15121 33.8261C6.5264 33.9774 6.30625 33.4718 5.84316 33.218C6.63778 32.8838 6.83518 33.4568 7.15121 33.8261ZM100.499 9.89819C100.057 9.53244 99.7706 9.29578 99.4578 9.01538C100.409 8.83255 100.513 8.91861 100.499 9.89819ZM101.17 51.7828C100.381 51.5827 100.381 51.5827 100.425 50.7135C100.525 50.7107 100.651 50.7071 100.752 50.7042C100.865 51.0348 101.002 51.3425 101.17 51.7828ZM25.226 52.406C24.6175 52.312 24.0593 52.2166 23.5011 52.1212C23.4995 52.0768 23.4987 52.0545 23.5223 52.0094C24.0764 51.9936 24.6305 51.9779 25.2098 51.9614C25.2155 52.117 25.2187 52.2059 25.226 52.406ZM165.152 50.1866C165.15 50.1199 165.148 50.0755 165.145 50.0088C165.523 49.998 165.926 49.9866 166.304 49.9758C166.318 50.3538 166.331 50.7095 166.344 51.0651C166.167 51.0479 166.04 51.0293 165.989 51.0085C166.055 50.7396 166.096 50.4936 166.184 50.135C165.756 50.1694 165.454 50.178 165.152 50.1866ZM98.2942 51.0634C98.7192 50.9623 99.0945 50.8849 99.5195 50.7838C99.5975 50.8483 99.7023 50.9566 99.8063 51.0427C99.5836 51.1603 99.3854 51.2549 99.1619 51.3503C99.1099 51.3073 99.0068 51.2434 98.9288 51.1789C98.8556 51.2477 98.7573 51.3173 98.6842 51.3861C98.5794 51.2778 98.4502 51.1925 98.2942 51.0634ZM158.605 52.4868C158.902 52.3449 159.175 52.2258 159.423 52.1075C159.681 52.2782 160.038 52.3793 159.801 52.7866C159.419 52.6862 159.012 52.5865 158.605 52.4868ZM207.189 8.91284C207.307 8.70918 207.404 8.59517 207.45 8.48258C207.495 8.32554 207.514 8.16921 207.557 7.94547C208.146 8.218 207.882 8.58157 207.995 8.91216C207.692 8.89853 207.491 8.90425 207.189 8.91284ZM173.46 49.8614C173.252 50.3792 173.018 50.1856 172.784 49.9697C172.686 50.0615 172.613 50.1303 172.393 50.3146C172.428 49.913 172.421 49.713 172.462 49.4448C172.846 49.6119 173.128 49.7374 173.46 49.8614ZM23.9994 47.8121C24.0799 47.9433 24.2383 48.1391 24.3463 48.3363C24.374 48.4023 24.3024 48.5156 24.235 48.7401C23.9498 48.5256 23.7427 48.3758 23.4315 48.1398C23.6785 47.9993 23.8516 47.9053 23.9994 47.8121ZM44.8374 52.9835C44.8643 53.0272 44.8903 53.0487 44.9422 53.0918C44.2622 53.1111 43.6073 53.1297 42.9273 53.1491C42.9257 53.1046 42.9249 53.0824 42.9233 53.0379C43.5529 53.02 44.2078 53.0014 44.8374 52.9835ZM165.957 52.2111C166.284 52.2018 166.587 52.1932 166.914 52.1839C166.919 52.3173 166.922 52.4062 166.928 52.5618C166.6 52.5711 166.298 52.5797 165.971 52.589C165.965 52.4334 165.962 52.3445 165.957 52.2111ZM186.616 50.3999C186.39 50.4286 186.264 50.4321 186.165 50.4795C186.066 50.5268 185.993 50.6179 185.945 50.6638C185.714 50.5591 185.509 50.4759 185.279 50.3711C185.551 50.2299 185.824 50.1109 186.097 49.9918C186.253 50.1209 186.357 50.207 186.616 50.3999ZM58.1744 9.43224C58.2012 9.47599 58.2028 9.52044 58.2296 9.56419C57.933 9.72839 57.6113 9.89332 57.2652 10.0812C57.2554 9.81442 57.2498 9.6588 57.2416 9.4365C57.5699 9.44942 57.8721 9.44083 58.1744 9.43224ZM128.137 51.5058C128.026 51.9095 127.884 52.1806 127.378 52.1282C127.37 51.9059 127.363 51.7059 127.354 51.4613C127.657 51.475 127.884 51.4907 128.137 51.5058ZM130.15 52.0717C130.287 51.6895 130.403 51.4192 130.493 51.1273C130.647 51.1897 130.748 51.2091 130.927 51.2707C130.711 51.5662 130.804 52.0309 130.15 52.0717ZM156.571 52.0328C156.038 51.9367 155.73 51.7897 155.889 51.2956C156.32 51.3723 156.627 51.4971 156.571 52.0328ZM128.487 52.0967C129.174 51.5876 129.399 51.5367 129.635 51.7748C129.613 51.8644 129.591 51.9541 129.57 52.066C129.242 52.0753 128.965 52.0831 128.487 52.0967ZM160.665 52.2947C161.019 52.3069 161.322 52.3206 161.726 52.3314C161.531 52.5149 161.409 52.6297 161.287 52.7444C161.208 52.6576 161.13 52.5931 161.051 52.5063C160.954 52.5981 160.881 52.6669 160.685 52.8283C160.676 52.5837 160.672 52.4726 160.665 52.2947ZM162.533 52.3529C162.96 51.6064 162.96 51.6064 163.593 51.6774C163.321 51.8409 163.026 52.0274 162.533 52.3529ZM43.2955 50.8019C42.8218 50.9489 42.3481 51.0959 41.8599 50.8428C42.3636 50.8284 42.817 50.8156 43.2955 50.8019ZM39.1672 53.0556C39.1648 52.989 39.1631 52.9445 39.1859 52.8771C39.3874 52.8714 39.5897 52.8879 39.7652 52.8606C39.9659 52.8327 40.1641 52.738 40.3892 52.6871C40.394 52.8205 40.3721 52.9101 40.377 53.0435C39.948 53.0335 39.5702 53.0442 39.1672 53.0556ZM127.44 51.0583C127.387 50.993 127.309 50.9285 127.256 50.8632C127.401 50.6811 127.521 50.5219 127.642 50.3627C127.823 50.4911 127.952 50.5764 128.133 50.7048C127.861 50.8461 127.638 50.9637 127.44 51.0583ZM16.8155 47.8605C17.1283 48.1409 17.3607 48.2901 17.6751 48.615C17.2453 48.5827 17.0186 48.5891 16.8415 48.5719C16.8326 48.3274 16.8261 48.1495 16.8155 47.8605ZM151.005 51.5012C151.017 51.1447 151.033 50.8773 151.042 50.4319C151.284 50.8479 151.419 51.0888 151.58 51.3735C151.406 51.423 151.255 51.4495 151.005 51.5012ZM23.5713 47.1344C23.798 47.128 24.0247 47.1215 24.2765 47.1144C24.2814 47.2478 24.2846 47.3367 24.2903 47.4923C24.0636 47.4987 23.837 47.5052 23.5851 47.5123C23.5794 47.3567 23.5762 47.2678 23.5713 47.1344ZM75.2045 51.8978C75.2541 51.8741 75.3296 51.872 75.3792 51.8483C75.4872 52.0455 75.5945 52.2205 75.7302 52.4837C75.4783 52.4908 75.3775 52.4937 75.2264 52.498C75.2191 52.2979 75.2118 52.0978 75.2045 51.8978ZM175.656 52.0021C175.373 51.8322 175.166 51.7045 174.832 51.5137C175.235 51.5023 175.461 51.4958 175.738 51.488C175.719 51.6443 175.699 51.7784 175.656 52.0021ZM45.7168 48.0627C45.3195 48.2298 44.9198 48.3301 44.5331 48.0963C44.9361 48.0849 45.339 48.0734 45.7168 48.0627ZM32.0995 52.1439C32.4968 51.9768 32.8958 51.8542 33.5604 52.1023C32.8803 52.1217 32.4773 52.1331 32.0995 52.1439ZM128.736 9.18455C128.789 9.24981 128.816 9.31578 128.868 9.35881C128.644 9.43195 128.395 9.5058 128.171 9.57893C128.141 9.46849 128.111 9.33583 128.081 9.20316C128.333 9.196 128.535 9.19028 128.736 9.18455ZM93.2106 10.5504C93.5161 9.9409 93.8403 9.84266 94.3505 10.0062C94.0036 10.1718 93.7306 10.2909 93.2106 10.5504ZM177.589 51.7692C177.262 51.7785 177.01 51.7856 176.733 51.7935C176.942 51.3202 176.942 51.3202 177.589 51.7692ZM100.135 51.7677C99.8582 51.7756 99.6315 51.782 99.2285 51.7935C99.5479 51.5619 99.7453 51.445 100.016 51.2593C100.049 51.4808 100.079 51.6135 100.135 51.7677ZM6.92496 40.0636C6.87702 40.1317 6.82827 40.1776 6.78033 40.2457C6.65278 40.2048 6.50084 40.1869 6.39766 40.1231C6.2953 40.0815 6.21568 39.9725 6.13769 39.9079C6.18644 39.862 6.23519 39.8162 6.25875 39.771C6.48868 39.8535 6.69423 39.9589 6.92496 40.0636ZM184.936 51.36C184.764 51.4762 184.667 51.5902 184.542 51.616C184.468 51.6404 184.387 51.5092 184.285 51.4676C184.357 51.3765 184.429 51.2632 184.527 51.1936C184.602 51.1693 184.732 51.2768 184.936 51.36ZM181.071 51.1361C181.01 51.5384 180.992 51.7392 180.975 51.9622C180.793 51.8116 180.664 51.7263 180.534 51.6409C180.656 51.5262 180.754 51.4344 181.071 51.1361ZM164.958 51.7944C165.034 51.7922 165.11 51.7901 165.185 51.7879C165.17 52.0554 165.154 52.3229 165.164 52.5897C165.114 52.5911 165.063 52.5925 165.013 52.594C164.978 52.3279 164.968 52.0612 164.958 51.7944ZM125.921 50.879C125.723 50.9736 125.601 51.0883 125.549 51.0675C125.446 51.0037 125.367 50.8947 125.288 50.8079C125.361 50.7391 125.458 50.6251 125.534 50.6452C125.636 50.6868 125.74 50.7728 125.921 50.879ZM63.8057 8.98287C64.0193 9.3106 64.1257 9.46335 64.0989 9.41961C64.0534 9.55442 64.0095 9.7337 63.9648 9.89075C63.9388 9.86923 63.8877 9.84844 63.8617 9.82692C63.83 9.64979 63.8227 9.44971 63.8057 8.98287ZM101.651 51.146C101.867 51.5404 101.975 51.7377 102.109 51.9564C101.932 51.9614 101.832 51.9643 101.681 51.9686C101.672 51.7463 101.665 51.5462 101.651 51.146ZM44.7603 51.5614C44.5897 51.7221 44.493 51.8361 44.4426 51.8375C44.3151 51.7966 44.2111 51.7106 44.1323 51.6238C44.1063 51.6023 44.2509 51.4201 44.3013 51.4187C44.4272 51.4151 44.5556 51.4782 44.7603 51.5614ZM142.376 51.3236C142.662 51.5603 142.791 51.6456 142.87 51.7324C142.949 51.8192 142.953 51.9526 143.042 52.3061C142.756 52.0694 142.627 51.9841 142.548 51.8973C142.494 51.8098 142.49 51.6764 142.376 51.3236ZM58.0484 50.8944C58.2328 50.4219 58.2328 50.4219 58.7861 50.3839C58.5156 50.5696 58.3441 50.708 58.0484 50.8944ZM95.4449 51.7452C95.2466 51.8399 95.1247 51.9546 95.0735 51.9338C94.9704 51.87 94.8907 51.761 94.8119 51.6742C94.8851 51.6054 94.9818 51.4914 95.0581 51.5114C95.1605 51.553 95.2645 51.6391 95.4449 51.7452ZM180.609 10.8478C180.685 10.8457 180.76 10.8435 180.836 10.8414C180.82 11.1089 180.805 11.3763 180.815 11.6431C180.764 11.6445 180.714 11.646 180.664 11.6474C180.629 11.3813 180.619 11.1146 180.609 10.8478ZM154.106 51.502C154.213 51.677 154.343 51.7846 154.32 51.8297C154.248 51.9208 154.124 51.9911 154.026 52.0606C153.948 51.9961 153.819 51.9108 153.841 51.8434C153.863 51.7537 153.961 51.6619 154.106 51.502ZM157.364 50.9643C157.472 51.1393 157.602 51.2469 157.578 51.2921C157.506 51.3831 157.382 51.4534 157.284 51.523C157.206 51.4584 157.077 51.3731 157.099 51.3057C157.121 51.216 157.219 51.1242 157.364 50.9643Z" fill="#F2800D"/>
<path d="M144.319 5.75961C143.898 5.97186 143.495 5.29345 143.188 5.85852C142.898 5.53294 142.526 5.67706 142.097 5.667C142.179 5.8427 142.261 6.0184 142.292 6.19553C142.324 6.37266 142.305 6.55122 142.464 6.747C142.51 6.63441 142.532 6.54478 142.625 6.34184C142.777 6.33754 143.002 6.30887 143.228 6.28019C143.255 6.32394 143.257 6.3684 143.284 6.41214C143.135 6.48313 142.986 6.55412 142.59 6.76565C143.321 6.74488 143.825 6.7528 144.303 6.71696C144.982 6.65317 145.567 6.79232 146.086 7.20038C146.216 7.30796 146.444 7.34597 146.624 7.42988C146.55 7.47649 146.502 7.54462 146.429 7.61346C146.56 7.76549 146.667 7.91824 146.824 8.09179C147.021 7.95268 147.144 7.86018 147.242 7.79063C147.421 7.87454 147.6 7.93621 147.907 8.06101C147.841 7.64006 147.36 7.58697 147.373 7.23056C147.695 7.08787 148.042 6.92224 148.464 6.73222C147.989 6.14488 147.566 5.6228 147.145 5.12295C147.096 5.16884 146.997 5.23839 146.9 5.33018C146.845 5.19823 146.789 5.06628 146.733 4.9121C146.381 4.92212 146.028 4.93214 145.6 4.94431C145.581 5.12287 145.538 5.32438 145.496 5.54811C145.294 5.55384 145.093 5.55958 144.841 5.56673C144.809 5.38961 144.751 5.16873 144.718 4.94714C144.592 4.95072 144.466 4.9543 144.264 4.96003C144.3 5.24831 144.31 5.51508 144.319 5.75961Z" fill="#F2800D"/>
<path d="M151.5 5.6445C151.018 5.54695 150.447 5.80794 149.674 5.34035C149.938 5.66665 150.017 5.77566 150.122 5.88395C150.227 5.99224 150.332 6.10052 150.592 6.31567C149.987 6.33285 149.584 6.34431 149.181 6.35576C149.188 6.53361 149.191 6.62253 149.197 6.77815C149.675 6.76455 150.129 6.75166 150.632 6.73734C150.644 7.04857 150.653 7.31534 150.666 7.67103C150.263 7.68248 149.886 7.69322 149.483 7.70468C149.484 7.74914 149.486 7.7936 149.488 7.83806C149.966 7.82446 150.419 7.81157 150.898 7.79797C151.446 7.60437 151.074 7.10309 151.264 6.7639C151.49 6.75746 151.692 6.75173 151.893 6.74601C151.952 6.96688 151.984 7.16624 152.017 7.3656C152.067 7.36417 152.118 7.36274 152.143 7.36202C152.161 7.16123 152.204 6.98195 152.222 6.78116C152.647 6.68006 153.202 6.68654 153.353 6.66002C153.827 6.53526 154.067 6.88451 154.506 7.18357C154.405 6.47434 154.235 5.96732 153.816 5.53416C153.673 5.76077 153.555 5.98666 153.412 6.21326C152.933 6.22686 152.48 6.23975 151.976 6.25407C151.819 6.08052 151.659 5.86251 151.5 5.6445Z" fill="#F2800D"/>
<path d="M33.1942 6.82651C33.0983 6.96276 32.9781 7.12195 32.8107 7.3715C33.2405 7.40379 33.5436 7.41743 33.8726 7.45259C34.0026 7.56016 34.1586 7.68924 34.3666 7.86136C34.7419 7.78393 35.2286 7.99263 35.5934 7.6262C35.8501 7.75243 36.1313 7.8557 36.4132 7.98121C36.4619 7.93532 36.5602 7.86576 36.6334 7.79692C36.7893 7.92601 36.9453 8.05511 37.0753 8.16268C37.3751 8.0874 37.6766 8.05657 37.9236 7.91603C38.0966 7.8221 38.1893 7.59692 38.3331 7.39255C36.5822 7.08626 34.8947 7.13423 33.1942 6.82651Z" fill="#F2800D"/>
<path d="M199.039 7.38644C199.083 7.20717 199.105 7.11753 199.172 6.87084C199.281 7.09028 199.361 7.22152 199.416 7.33124C199.978 7.5378 200.262 7.04013 200.815 6.97992C201.022 7.12981 201.308 7.36647 201.698 7.68919C201.82 7.57446 201.892 7.48338 202.039 7.36794C201.678 7.15565 201.396 7.03015 201.188 6.8358C200.979 6.64145 200.844 6.40049 200.658 6.13873C200.437 6.30079 200.314 6.37106 200.192 6.4858C200.136 6.35384 200.082 6.24412 199.998 6.02396C199.799 6.09638 199.601 6.19104 199.327 6.28784C199.199 6.22472 198.969 6.14224 198.79 6.08056C198.194 6.32005 198.335 6.73885 198.374 7.11606C198.553 7.17774 198.758 7.26093 199.039 7.38644Z" fill="#F2800D"/>
<path d="M205.872 7.3925C205.86 7.05904 205.847 6.70335 205.831 6.25874C205.384 6.44947 205.037 6.61511 204.616 6.80512C204.263 6.81514 204.139 6.19555 203.642 6.38771C203.419 6.48308 203.249 6.66594 203.029 6.85022C203.415 7.06179 203.698 7.23176 204.109 7.44261C204.588 7.42901 205.243 7.4104 205.872 7.3925Z" fill="#F2800D"/>
<path d="M91.3836 6.77473C91.464 6.90596 91.5452 7.05943 91.6265 7.21289C91.5022 7.26094 91.3535 7.33193 91.0813 7.47319C91.7418 7.61019 92.2764 7.75076 92.9118 7.88848C93.5358 7.71497 92.9297 6.99782 93.3969 6.67299C93.0093 6.41696 92.7461 6.80276 92.4187 6.81207C92.1172 6.84289 91.8012 6.47356 91.3836 6.77473Z" fill="#F2800D"/>
<path d="M3.59613 15.1673C3.41009 14.9056 3.27767 14.7313 3.17043 14.5563C2.74226 14.5685 2.36445 14.5792 1.88591 14.5928C2.07844 15.0324 2.31566 15.315 2.79827 15.4125C3.40761 15.5287 3.9934 15.6901 4.60275 15.8063C4.72949 15.825 4.87818 15.754 5.15361 15.7017C4.65559 15.1817 4.1738 15.1064 3.59613 15.1673Z" fill="#F2800D"/>
<path d="M81.1298 52.5972C81.6799 52.4703 81.7953 52.1777 81.7084 51.8687C81.4484 51.6535 81.2404 51.4814 80.9284 51.2232C80.5579 51.434 80.1143 51.7137 79.5959 52.0177C79.8039 52.1898 79.9339 52.2974 80.0899 52.4265C80.3377 52.3082 80.5359 52.2135 80.7586 52.0959C80.9162 52.2695 81.0234 52.4445 81.1298 52.5972Z" fill="#F2800D"/>
<path d="M158.846 7.2605C159.244 7.11566 159.643 6.99305 160.041 6.84822C159.899 6.40718 159.015 6.36555 159.394 5.7094C159.115 5.65059 158.809 5.57026 158.478 5.46841C158.455 5.53582 158.409 5.6484 158.437 5.73661C158.556 6.22282 158.699 6.68608 158.846 7.2605Z" fill="#F2800D"/>
<path d="M199.694 3.89627C198.378 3.08801 197.284 3.49744 196.212 3.83946C197.293 3.74198 198.347 4.31285 199.694 3.89627Z" fill="#F2800D"/>
<path d="M99.4937 5.85433C99.4003 6.05727 99.2597 6.35056 99.1191 6.64385C98.9185 6.67181 98.743 6.69906 98.5415 6.70479C98.448 6.90773 98.3538 7.08843 98.2595 7.26914C98.3635 7.3552 98.4935 7.46277 98.6235 7.57034C98.6763 6.94574 99.2524 6.84035 99.8235 6.60158C99.9048 6.75505 99.9852 6.88628 100.094 7.10573C100.292 7.01108 100.491 6.91643 100.688 6.79955C100.273 6.47754 99.8829 6.15482 99.4937 5.85433Z" fill="#F2800D"/>
<path d="M230.26 51.1176C228.985 50.7088 227.997 51.271 226.891 51.3692C227.858 51.6087 228.436 51.57 230.26 51.1176Z" fill="#F2800D"/>
<path d="M72.257 8.43108C71.1643 8.1951 70.0455 8.62747 68.8682 8.1491C68.7252 8.3757 68.5578 8.62526 68.4636 8.80596C69.6092 8.41734 70.9554 8.69062 72.257 8.43108Z" fill="#F2800D"/>
<path d="M134.204 55.3836C133.928 55.4359 133.628 55.5112 133.353 55.5635C133.292 55.2759 133.234 55.0773 133.172 54.7453C133.081 55.0149 133.035 55.1497 132.991 55.3068C132.714 55.3146 132.437 55.3225 132.21 55.329C132.064 55.4666 131.942 55.5814 131.82 55.6961C131.928 55.8933 133.162 55.8582 134.616 55.6389C134.41 55.5112 134.282 55.4481 134.204 55.3836Z" fill="#F2800D"/>
<path d="M130.051 55.5906C129.995 55.4364 129.94 55.3045 129.858 55.1288C129.69 55.3561 129.57 55.5375 129.402 55.7648C130.062 55.8796 130.62 55.975 131.177 56.0482C131.267 55.7341 131.332 55.4652 131.423 55.1733C131.371 55.1303 131.241 55.0227 131.059 54.8721C131.017 55.1181 130.998 55.2966 130.957 55.5426C130.681 55.5727 130.404 55.5806 130.051 55.5906Z" fill="#F2800D"/>
<path d="M88.3872 6.88215C88.3993 7.21561 88.405 7.37123 88.4115 7.54907C88.7682 7.6502 89.1248 7.75134 89.5327 7.87326C89.6716 7.53551 89.813 7.26444 89.9763 6.90374C89.3711 6.89869 88.916 7.55699 88.3872 6.88215Z" fill="#F2800D"/>
<path d="M186.874 5.64042C186.865 5.41811 186.866 4.72824 186.866 4.72824C186.35 4.4091 185.791 4.3137 184.942 4.53811C185.348 4.59335 185.574 4.56468 185.678 4.65074C185.885 4.80062 185.995 5.04229 186.177 5.1929C186.333 5.34422 186.564 5.44893 186.874 5.64042Z" fill="#F2800D"/>
<path d="M61.7047 7.37356C61.7071 7.44026 61.6844 7.50767 61.6901 7.66328C62.626 7.74794 63.5295 7.63325 64.589 7.64764C64.3542 7.43178 64.2242 7.3242 64.1202 7.23815C63.8959 7.31128 63.7537 7.56011 63.4182 7.34711C63.263 7.24026 62.8673 7.45178 62.5903 7.45966C62.314 7.48976 62.0337 7.40872 61.7047 7.37356Z" fill="#F2800D"/>
<path d="M68.6243 51.2169C68.9907 51.5848 69.2515 51.8222 69.4611 52.0388C69.7122 52.0094 69.8885 52.0044 70.09 51.9986C70.1469 51.4852 69.6066 51.189 68.6243 51.2169Z" fill="#F2800D"/>
<path d="M82.3738 51.4492C82.2479 51.4528 82.1471 51.4556 81.8701 51.4635C82.516 51.8902 82.052 52.304 81.9667 52.7292C82.3697 52.7178 82.6719 52.7092 83.1505 52.6956C82.888 52.4137 82.7052 52.2409 82.572 52.0444C82.4648 51.8694 82.4315 51.6478 82.3738 51.4492Z" fill="#F2800D"/>
<path d="M217.561 7.10476C216.912 7.30122 216.353 6.4715 215.727 7.29041C216.331 7.27323 216.911 7.94663 217.561 7.10476Z" fill="#F2800D"/>
<path d="M199.315 4.57465C198.551 4.35159 197.86 4.77178 197.315 4.3422C197.193 4.45694 197.095 4.54872 196.949 4.6864C197.583 4.77966 198.167 4.89658 198.749 4.9468C198.925 4.94179 199.094 4.7367 199.315 4.57465Z" fill="#F2800D"/>
<path d="M223.354 11.1015C223.613 11.2722 223.87 11.4207 224.103 11.5921C224.376 11.473 224.625 11.377 224.873 11.2586C224.846 11.2149 224.843 11.126 224.792 11.1274C224.335 11.0291 223.878 10.9531 223.421 10.8548C223.423 10.9215 223.401 11.0112 223.354 11.1015Z" fill="#F2800D"/>
<path d="M184.277 7.02719C184.509 7.17636 184.638 7.26171 184.768 7.34705C185.004 6.91751 185.3 7.42094 185.574 7.32414C185.693 7.14271 185.786 6.93977 185.929 6.69094C185.802 6.67229 185.674 6.63141 185.574 6.65651C185.2 6.75617 184.85 6.85511 184.277 7.02719Z" fill="#F2800D"/>
<path d="M156.216 7.06819C156.212 6.93481 156.203 6.69027 156.192 6.40127C155.94 6.40843 155.764 6.41344 155.437 6.42275C155.571 6.66371 155.877 6.74404 155.96 6.94196C156.043 7.16212 156.003 7.43032 156.017 7.83047C156.337 7.62109 156.535 7.50421 156.707 7.38805C156.58 7.34717 156.502 7.28262 156.216 7.06819Z" fill="#F2800D"/>
<path d="M40.3821 7.5791C39.9491 7.45789 39.6444 7.39979 39.3137 7.32017C39.2463 7.54463 39.1553 7.81426 39.0651 8.10612C39.1406 8.10397 39.2942 8.16636 39.3689 8.14198C39.6907 7.97706 39.9864 7.79063 40.3821 7.5791Z" fill="#F2800D"/>
<path d="M19.5529 60C19.8161 59.6142 20.0079 59.3417 20.1988 59.047C20.0185 58.9408 19.8121 58.8132 19.5034 58.6439C19.5212 59.133 19.5342 59.4887 19.5529 60Z" fill="#F2800D"/>
<path d="M3.25536 47.9789C2.54608 47.8878 1.98872 47.8147 1.27863 47.7013C1.90663 48.3288 2.48836 48.3791 3.25536 47.9789Z" fill="#F2800D"/>
<path d="M11.8672 0C11.2172 0.151998 10.7671 0.253807 10.2171 0.380711C10.2723 0.512663 10.33 0.711307 10.3803 0.709875C10.9613 0.73787 11.3821 0.525623 11.8672 0Z" fill="#F2800D"/>
<path d="M210.332 6.62037C210.206 6.62395 210.131 6.6261 210.055 6.62825C209.949 7.18759 210.086 7.47301 210.625 7.74697C210.51 7.34969 210.421 6.97391 210.332 6.62037Z" fill="#F2800D"/>
<path d="M2.20352 15.6965C2.01581 16.0801 1.89718 16.2838 1.77936 16.5097C2.10679 16.5004 2.40903 16.4918 2.91276 16.4775C2.65035 16.1956 2.46674 16.0006 2.20352 15.6965Z" fill="#F2800D"/>
<path d="M70.8627 51.7541C71.0097 51.6387 71.1568 51.5232 71.303 51.3856C71.2519 51.3648 71.1755 51.3447 71.0983 51.3024C70.8668 51.1754 70.6596 51.0255 70.3769 50.8778C70.3874 51.1668 70.3971 51.4336 70.4093 51.767C70.5604 51.7627 70.7115 51.7584 70.8627 51.7541Z" fill="#F2800D"/>
<path d="M68.4572 7.24839C67.7194 7.06907 67.1954 6.52762 66.7193 7.29778C67.223 7.28347 67.7267 7.26915 68.4572 7.24839Z" fill="#F2800D"/>
<path d="M0.5 38.7997C1.05411 38.784 1.53266 38.7704 2.23788 38.7503C1.54811 38.5029 1.07771 38.0489 0.5 38.7997Z" fill="#F2800D"/>
<path d="M94.133 6.11797C93.8527 6.03693 93.6488 5.97597 93.4457 5.93723C93.4221 5.98241 93.4229 6.00464 93.3994 6.04982C93.7105 6.28576 94.0209 6.49948 94.3572 6.73471C94.3751 6.53392 94.3906 6.26643 94.4068 6.02118C94.1485 5.8505 94.1582 6.11726 94.133 6.11797Z" fill="#F2800D"/>
<path d="M214.505 7.65895C214.468 7.32621 214.436 7.14908 214.396 6.74964C214.054 7.04867 213.858 7.21001 213.516 7.50903C213.922 7.5865 214.125 7.603 214.505 7.65895Z" fill="#F2800D"/>
<path d="M119.451 55.9809C119.456 56.1143 119.459 56.2032 119.463 56.3144C119.924 56.5238 120.195 56.3381 120.483 55.9516C120.08 55.963 119.778 55.9716 119.451 55.9809Z" fill="#F2800D"/>
<path d="M1.83644 40.186C2.19716 40.3983 2.48151 40.5905 2.86743 40.802C2.85932 40.5797 2.8772 40.3789 2.86909 40.1566C2.51648 40.1666 2.21424 40.1752 1.83644 40.186Z" fill="#F2800D"/>
<path d="M96.4134 10.5707C96.2549 11.0647 96.4166 11.3494 96.9991 11.4219C97.4062 10.8317 96.3272 10.9737 96.4134 10.5707Z" fill="#F2800D"/>
<path d="M79.4732 53.49C79.8761 53.4785 80.1532 53.4706 80.4051 53.4635C80.5026 53.3717 80.5026 53.3717 79.8778 52.8331C79.7592 53.0368 79.6397 53.2182 79.4732 53.49Z" fill="#F2800D"/>
<path d="M136.499 6.36019C136.614 6.04538 136.682 5.84316 136.794 5.46166C136.525 5.69184 136.452 5.76068 136.404 5.80657C136.199 5.72338 136.045 5.66098 135.892 5.59859C135.745 5.73626 135.745 5.73627 136.499 6.36019Z" fill="#F2800D"/>
<path d="M76.997 7.74001C76.7265 7.92573 76.5047 8.06556 76.1853 8.29717C77.0717 8.4055 77.0718 8.4055 76.997 7.74001Z" fill="#F2800D"/>
<path d="M77.6413 8.12226C77.9436 8.11367 78.2458 8.10508 78.5732 8.09577C78.5684 7.96239 78.5643 7.85124 78.557 7.65117C78.2092 7.79457 77.9103 7.89208 77.6373 8.01111C77.6389 8.05557 77.6397 8.0778 77.6413 8.12226Z" fill="#F2800D"/>
<path d="M5.45828 15.7598C5.86127 15.7483 6.13832 15.7404 6.46575 15.7311C6.35689 15.5117 6.24966 15.3367 6.1668 15.1388C5.94661 15.3231 5.7516 15.5066 5.45828 15.7598Z" fill="#F2800D"/>
<path d="M0.810915 43.1749C0.42415 43.6309 0.42415 43.6309 1.24473 44.0082C1.08225 43.7012 0.974202 43.504 0.810915 43.1749Z" fill="#F2800D"/>
<path d="M84.0417 52.9373C84.0498 53.1596 84.0571 53.3597 84.0652 53.582C84.2172 53.5999 84.3179 53.597 84.495 53.6143C84.4869 53.3919 84.4804 53.2141 84.4715 52.9696C84.3188 52.9294 84.1677 52.9337 84.0417 52.9373Z" fill="#F2800D"/>
<path d="M59.2486 7.77719C59.4964 7.65887 59.6946 7.56422 59.9416 7.42368C59.7101 7.29674 59.5289 7.16837 59.2202 6.99911C59.2332 7.3548 59.2413 7.57711 59.2486 7.77719Z" fill="#F2800D"/>
<path d="M140.917 7.8814C141.32 7.86995 141.698 7.85921 142.101 7.84775C141.689 7.61467 141.289 7.71505 140.917 7.8814Z" fill="#F2800D"/>
<path d="M88.1357 53.8891C88.5387 53.8776 88.9165 53.8669 89.5965 53.8476C88.9076 53.6223 88.5079 53.7227 88.1357 53.8891Z" fill="#F2800D"/>
<path d="M88.236 7.57632C87.6608 7.70394 87.3886 7.84519 87.4592 8.39953C87.6542 8.21596 87.7769 8.12346 87.8744 8.03167C87.9711 7.91765 88.0678 7.80364 88.236 7.57632Z" fill="#F2800D"/>
<path d="M137.163 54.9434C136.828 54.7526 136.647 54.6242 136.363 54.4543C136.321 54.678 136.3 54.7899 136.256 54.9692C136.533 54.9613 136.76 54.9548 137.163 54.9434Z" fill="#F2800D"/>
<path d="M124.653 5.76228C124.658 5.9179 124.661 5.98459 124.666 6.11797C124.993 6.10867 125.346 6.09864 125.95 6.08146C125.364 5.92008 125.035 5.8627 124.653 5.76228Z" fill="#F2800D"/>
<path d="M134.792 5.16253C134.619 5.27869 134.422 5.39557 134.125 5.55978C134.356 5.66449 134.51 5.72689 134.664 5.81152C134.735 5.67598 134.828 5.47304 134.922 5.29233C134.895 5.22635 134.844 5.20556 134.792 5.16253Z" fill="#F2800D"/>
<path d="M218.644 7.76384C218.404 7.4146 218.297 7.23962 218.137 6.99937C217.991 7.15928 217.894 7.25107 217.748 7.41098C217.979 7.51569 218.209 7.59817 218.644 7.76384Z" fill="#F2800D"/>
<path d="M72.6121 8.48776C72.9143 8.47917 73.2166 8.47058 73.544 8.46127C73.5424 8.41681 73.5407 8.37235 73.5391 8.32789C73.2361 8.31425 72.933 8.3006 72.6056 8.30991C72.6072 8.35437 72.6096 8.42107 72.6121 8.48776Z" fill="#F2800D"/>
<path d="M116.318 6.73358C116.223 6.91429 116.152 7.02759 116.156 7.13874C116.158 7.20544 116.364 7.31086 116.388 7.28792C116.487 7.21836 116.584 7.12658 116.63 7.01399C116.629 6.96953 116.474 6.8849 116.318 6.73358Z" fill="#F2800D"/>
<path d="M178.362 4.54713C178.374 4.88059 178.381 5.05844 178.389 5.28074C178.806 4.95734 178.806 4.95734 178.362 4.54713Z" fill="#F2800D"/>
<path d="M4.59285 45.2482C4.7269 45.467 4.83414 45.6419 5.02099 45.9259C5.06082 45.6355 5.0787 45.4347 5.11853 45.1443C4.8431 45.1966 4.69279 45.2231 4.59285 45.2482Z" fill="#F2800D"/>
<path d="M188.757 4.74123C189.136 4.75272 189.363 4.76851 189.616 4.78359C189.61 4.62797 189.605 4.49459 189.6 4.33897C189.352 4.45729 189.128 4.55265 188.757 4.74123Z" fill="#F2800D"/>
<path d="M81.5664 7.20956C81.9735 7.30926 82.1262 7.34942 82.2538 7.3903C82.3561 7.4319 82.409 7.49716 82.5381 7.5825C82.5576 7.42617 82.5796 7.33653 82.5991 7.1802C82.3472 7.18736 82.0953 7.19452 81.5664 7.20956Z" fill="#F2800D"/>
<path d="M177.61 7.43922C177.781 7.2786 177.904 7.18609 177.902 7.14163C177.848 7.03191 177.744 6.94585 177.641 6.88203C177.615 6.86051 177.418 6.99962 177.42 7.04408C177.424 7.15524 177.503 7.26424 177.61 7.43922Z" fill="#F2800D"/>
<path d="M184.449 6.91103C184.417 6.7339 184.558 6.4406 184.156 6.47429C184.08 6.47644 183.958 6.59117 183.961 6.65786C183.924 7.03722 184.247 6.89452 184.449 6.91103Z" fill="#F2800D"/>
<path d="M102.86 8.98541C102.868 9.18549 102.871 9.27441 102.876 9.4078C103.128 9.40064 103.329 9.39491 103.732 9.38345C103.373 9.21563 103.168 9.13244 102.86 8.98541Z" fill="#F2800D"/>
<path d="M212.393 7.11814C212.298 7.29885 212.227 7.41216 212.231 7.52331C212.233 7.59 212.439 7.69543 212.463 7.67248C212.561 7.60292 212.659 7.51114 212.705 7.39855C212.704 7.35409 212.549 7.26946 212.393 7.11814Z" fill="#F2800D"/>
<path d="M187.919 3.87492C188.221 3.86633 188.523 3.85775 188.85 3.84844C188.849 3.80398 188.847 3.75951 188.846 3.71505C188.543 3.70141 188.24 3.68777 187.937 3.69636C187.914 3.74154 187.916 3.80823 187.919 3.87492Z" fill="#F2800D"/>
<path d="M11.0617 5.56407C10.857 5.48087 10.7286 5.41776 10.6027 5.42134C10.5271 5.42349 10.4077 5.60491 10.4337 5.62642C10.5125 5.7132 10.6165 5.79926 10.744 5.84014C10.7944 5.83871 10.8903 5.70246 11.0617 5.56407Z" fill="#F2800D"/>
</svg>
