<svg width="282" height="60" viewBox="0 0 282 60" fill="none" xmlns="http://www.w3.org/2000/svg">
<path d="M236.079 7.41401C236.201 7.56676 236.295 7.72023 236.447 7.91672C236.166 8.10173 235.885 8.28673 235.573 8.45022C235.749 8.49039 235.924 8.53055 236.129 8.59223C235.473 8.80877 235.151 9.41759 234.273 9.1723C234.093 8.99875 233.91 8.78075 233.758 8.60648C233.386 8.70471 233.1 8.77856 232.785 8.85313C232.691 8.67743 232.628 8.54548 232.564 8.41353C231.489 8.2844 230.346 8.60204 229.146 8.2757C229.042 8.54533 228.91 8.83791 228.806 9.12977C228.623 8.91176 228.412 8.69447 228.261 8.54243C227.511 8.58328 228.123 9.39149 227.256 9.41297C227.248 9.21289 227.241 9.03505 227.229 8.76829C227.059 8.83927 226.973 8.86365 226.887 8.88803C226.802 8.91241 226.718 8.98125 226.66 8.98268C226.397 8.92243 225.985 8.75461 225.93 8.8005C225.681 9.07371 225.498 8.8557 225.265 8.81697C224.48 8.70291 223.647 8.85705 222.994 9.14029C222.255 9.4479 221.67 9.28437 221.026 9.10005C220.91 9.08068 220.872 8.88133 220.749 8.70635C220.287 8.7178 219.767 8.73069 219.218 8.74429C219.053 8.94866 218.889 9.17526 218.67 9.46999C217.97 9.30932 217.355 9.12428 216.685 9.00737C216.015 8.89045 215.318 8.84094 214.534 8.74912C214.503 8.70537 214.44 8.57342 214.377 8.4637C213.421 8.42063 213.421 8.42063 212.774 8.85948C212.741 8.74904 212.707 8.63861 212.642 8.4622C212.09 8.38688 211.454 8.40263 210.879 8.48364C210.39 8.54027 210.148 8.99132 209.64 9.27098C209.569 8.96118 209.503 8.76254 209.465 8.56318C209.436 8.54167 209.376 8.49863 209.376 8.49863C209.263 8.56819 209.096 8.70587 209.096 8.70587C208.53 8.31932 207.907 8.6463 207.266 8.52867C207.277 8.7732 207.283 8.92882 207.294 9.19559C206.977 9.22569 206.718 9.25437 206.401 9.28447C206.392 9.06217 206.356 8.88504 206.348 8.70719C205.763 8.54366 205.227 8.17863 204.55 8.57374C204.494 8.61963 204.285 8.46903 204.14 8.45038C203.242 8.40588 202.379 8.51628 201.649 9.0462C201.495 8.82747 201.402 8.67401 201.309 8.52054C201.196 8.59009 201.112 8.65893 201.028 8.72777C200.81 8.35486 200.303 8.65675 200.033 8.44089C199.674 8.16048 199.58 8.67465 199.2 8.5728C198.878 8.46953 198.448 8.56918 198.015 8.57992C198.023 8.78 198.031 8.95784 198.043 9.24684C197.403 9.17367 196.853 9.14281 196.3 9.06749C195.951 9.00939 195.62 8.70604 195.252 8.89319C194.912 9.0574 194.742 8.46074 194.44 8.84654C194.412 8.86949 194.355 8.89315 194.355 8.89315C193.509 8.02397 192.733 8.82209 191.699 8.98125C191.637 8.89376 191.513 8.69655 191.452 8.60906C190.291 8.50431 189.263 8.81909 188.402 8.28408C188.486 8.21524 188.569 8.12417 188.68 8.03238C188.534 7.9915 188.389 7.97285 188.156 7.93412C188.136 8.15714 188.087 8.35864 188.066 8.55944C187.981 8.58381 187.897 8.65266 187.838 8.63186C187.286 8.57877 186.747 8.81468 186.183 8.47259C185.916 8.30119 185.595 8.93224 185.087 8.54426C184.849 8.37214 184.331 8.45172 183.936 8.68405C183.682 8.82387 183.105 8.86042 182.839 8.73348C182.279 8.45809 181.734 8.58285 181.185 8.57422C180.75 8.56273 180.318 8.5957 179.885 8.60644C179.451 8.61718 178.963 8.69604 178.639 8.5483C178.167 8.33745 177.958 8.87671 177.516 8.66514C177.309 8.559 177.019 8.54392 176.728 8.50662C176.409 8.47004 175.972 8.39186 175.774 8.50802C175.297 8.85365 174.767 8.622 174.366 8.72095C174.128 8.54883 173.949 8.41974 173.8 8.31217C173.46 8.49861 173.15 8.68432 172.839 8.84781C172.932 9.00128 172.996 9.15546 173.152 9.41865C172.742 9.29529 172.507 9.2121 172.243 9.12962C172.324 8.99408 172.405 8.85855 172.513 8.65561C172.016 8.5344 171.578 8.43399 171.139 8.31134C171.031 8.49205 170.95 8.62758 170.788 8.89865C170.577 8.70358 170.426 8.55155 170.274 8.37728C170.101 8.38158 169.87 8.38731 169.61 8.39375C169.586 8.50562 169.561 8.61748 169.512 8.81899C169.281 8.82472 168.994 8.87634 168.76 8.81538C168.556 8.77593 168.348 8.64756 168.17 8.5407C167.755 8.28396 167.411 8.35924 166.99 8.68121C166.782 8.53061 166.573 8.38 166.364 8.2294C166.136 8.30182 165.653 8.51406 165.563 8.42729C165.115 8.08234 164.536 8.76429 164.139 8.26229C164.088 8.41934 164.035 8.53193 163.954 8.66746C163.299 8.92846 162.556 8.43505 161.848 8.78641C161.784 8.65446 161.721 8.52251 161.658 8.39056C161.599 8.36976 161.51 8.32744 161.424 8.32959C161.192 8.31309 160.931 8.2973 160.701 8.34749C159.527 8.62138 159.527 8.62138 158.373 7.98238C159.354 7.93581 160.22 7.89211 161.085 7.8484C161.083 7.80394 161.082 7.75947 161.08 7.71501C160.184 7.7372 159.289 7.7594 158.335 7.78302C158.229 8.00819 158.097 8.30077 157.992 8.54817C156.927 8.68581 155.978 8.79836 155.058 8.93243C154.759 8.69505 154.46 8.45767 154.22 8.26332C153.822 8.42896 153.595 8.52361 153.31 8.6197C153.319 8.842 153.329 9.08654 153.342 9.37554C152.793 9.38914 152.273 9.40203 151.753 9.41491C151.571 9.21913 151.359 8.9796 151.086 8.69705C150.777 8.905 150.553 9.06635 150.271 9.25135C150.15 9.12083 150 8.99103 149.847 8.79453C149.65 8.91069 149.537 8.98025 149.395 9.05052C148.957 8.95011 148.548 8.84897 148.14 8.77007C148.105 8.6374 148.073 8.5492 148.039 8.43876C147.64 8.58217 147.487 9.05331 146.988 8.88764C146.607 8.76356 146.086 8.75422 145.972 8.11168C145.782 8.40569 145.675 8.60863 145.484 8.88041C145.269 8.57419 145.176 8.42072 145.083 8.28948C144.645 8.87893 143.677 9.23674 142.769 8.9477C142.33 8.82506 141.955 8.8566 141.548 8.79993C141.141 8.74326 140.73 8.59767 140.355 8.6292C139.865 8.6636 139.452 8.47355 139.017 8.43983C138.582 8.40611 138.068 8.57461 137.744 8.42688C137.361 8.25834 136.94 8.55807 136.61 8.27694C136.521 8.2124 136.125 8.4225 135.865 8.42895C135.634 8.45691 135.401 8.39594 135.11 8.35864C135.087 8.51497 135.067 8.71576 135.021 9.00619C134.786 8.92299 134.611 8.88283 134.521 8.79605C134.341 8.64473 134.246 8.44681 134.155 8.3378C133.584 8.52996 133.128 8.67481 132.614 8.84331C132.489 8.62387 132.426 8.49191 132.332 8.31621C132.104 8.38863 131.763 8.55284 131.704 8.50981C131.345 8.2294 131.15 8.41226 130.869 8.59727C130.671 8.71343 130.384 8.76505 130.099 8.86113C129.862 8.71125 129.624 8.56136 129.357 8.38996C129.215 8.46023 129.042 8.48676 129.016 8.55416C128.614 9.29852 127.81 9.42971 126.881 9.3637C126.601 8.88107 126.031 9.76309 125.776 9.21305C125.342 9.20156 124.937 9.18936 124.531 9.17715C124.323 9.02655 124.144 8.89746 124.054 8.83292C123.427 9.04874 122.828 9.24162 122.23 9.45673C122.073 9.17131 121.917 8.8859 121.758 8.55602C121.479 8.78548 121.282 8.92388 121.085 9.06228C120.967 8.99845 120.877 8.91168 120.788 8.86936C120.387 8.96831 120.016 9.06653 119.701 9.16333C119.461 8.94675 119.559 8.52151 118.934 8.7818C119.061 9.06793 119.162 9.39924 119.354 9.83956C119.004 9.78146 118.801 9.76424 118.422 9.68462C118.28 9.75489 117.938 9.87464 117.655 10.0152C117.097 9.80648 117.225 9.40275 117.24 9.0908C116.857 8.90003 116.502 8.73078 116.177 8.56081C115.337 9.20475 114.715 8.17423 113.914 8.37212C113.467 8.7615 113.231 9.3237 112.334 9.32366C112.456 9.47641 112.548 9.58542 112.638 9.6722C112.552 10.3864 111.642 10.0529 111.217 10.2638C111.326 10.7951 111.714 11.0971 112.328 11.2376C112.383 11.1918 112.496 11.1222 112.664 10.9845C112.996 11.3101 113.795 11.0678 114.058 11.8179C114.134 11.5712 114.186 11.4141 114.261 11.1452C114.171 11.0584 113.841 10.7773 113.51 10.474C114.398 10.2739 115.258 10.0968 116.233 9.89465C116.643 10.018 117.228 10.1815 117.931 10.3867C117.675 10.482 117.417 10.5552 117.246 10.6039C117.47 11.1102 117.628 11.4401 117.789 11.8367C117.931 11.7664 118.102 11.7176 118.245 11.6696C117.879 11.2113 118.38 10.7538 118.124 10.1593C119.033 10.4706 119.715 9.4968 120.497 10.2118C120.752 10.072 120.921 9.97874 121.205 9.8382C121.299 10.0139 121.362 10.1458 121.455 10.2993C122.074 10.5733 122.92 10.0627 123.606 10.5576C123.658 10.4228 123.71 10.2879 123.788 10.0635C124.08 10.1452 124.343 10.2055 124.723 10.3073C124.804 10.1718 124.856 10.0148 124.909 9.90217C125.722 9.99328 126.549 10.3956 127.303 9.75383C128.248 10.2422 129.55 9.5646 130.51 10.3865C130.561 10.2294 130.614 10.1168 130.667 9.982C132.646 9.59915 134.634 10.1285 136.623 9.96791C136.688 10.1443 136.722 10.2548 136.818 10.4749C137.068 10.2239 137.232 10.0196 137.425 9.79225C137.981 9.93426 138.559 9.94217 139.282 9.92427C140.667 9.86768 142.084 9.85483 143.47 9.82046C143.615 9.81688 143.76 9.83553 143.849 9.87784C144.496 10.1511 145.098 10.0249 145.723 9.74239C145.96 9.89227 146.199 10.0644 146.555 10.2781C146.692 10.0967 146.773 9.96116 146.91 9.77973C146.939 9.77902 147.08 9.70874 147.197 9.7281C147.751 9.84788 148.312 10.1233 148.843 9.6873C149.798 9.6859 150.674 9.90896 151.369 10.6039C151.41 10.2023 151.427 9.91257 151.47 9.57768C152.139 9.67237 152.099 10.0962 152.37 10.3565C152.114 10.4519 151.915 10.5236 151.517 10.6892C152.008 10.677 152.358 10.7574 152.498 10.6426C152.722 10.4591 152.825 10.1672 153.07 9.80508C153.792 9.78718 154.688 9.76498 155.584 9.74279C156.271 10.2821 157.254 9.59011 157.971 10.1287C158.023 9.99388 158.075 9.85906 158.155 9.67907C158.619 9.71208 159.112 9.74437 159.807 9.77165C159.837 9.79316 160.045 9.94377 160.164 10.0076C160.709 9.90507 161.167 9.80469 161.769 9.6785C161.945 9.7409 162.269 9.8664 162.592 9.99191C162.648 9.94602 162.787 9.80906 162.846 9.82986C163.431 9.99339 164.123 9.95397 164.515 10.3448C164.767 10.1383 165.047 9.90883 165.298 9.70231C165.911 9.84289 166.375 9.8759 166.758 10.0444C167.112 10.2137 167.436 9.64933 167.801 10.0854C168.014 10.3471 168.567 10.4224 169.273 10.7165C169.029 10.411 168.968 10.3235 168.876 10.1922C168.959 10.1234 169.07 10.0094 169.182 9.9176C169.417 10.0008 169.651 10.0618 169.944 10.1658C169.983 10.3873 169.993 10.6319 170.031 10.8535C170.586 10.9955 171.114 11.1604 171.669 11.3025C171.955 11.2286 172.269 11.1318 172.641 11.0336C172.406 10.9504 172.23 10.888 171.908 10.7847C172.185 10.5108 172.435 10.2598 172.602 10.0999C173.32 9.97084 173.895 9.88983 174.497 9.78587C174.56 9.89559 174.623 10.0275 174.717 10.2032C175.612 9.46895 176.551 9.80173 177.52 10.156C177.86 9.99182 178.201 9.82762 178.627 9.63903C179.154 9.80399 179.712 10.0127 180.328 10.22C180.356 10.197 180.497 10.1045 180.722 9.9654C180.936 10.2272 181.089 10.4459 181.243 10.6646C181.112 10.9794 181.008 11.2713 180.851 11.6535C180.096 11.5832 179.341 11.5129 178.529 11.444C178.447 11.5573 178.366 11.7151 178.286 11.8728C177.557 11.7129 176.827 11.5529 176.097 11.393C176.294 11.2546 176.492 11.1384 176.942 10.838C176.305 10.8315 175.929 10.8186 175.524 10.8286C175.536 11.1176 175.548 11.3844 175.557 11.6067C174.852 12.047 174.247 11.3944 173.647 11.565C173.075 11.7349 172.498 11.7715 171.894 11.831C171.289 11.8905 170.685 11.2823 170.102 11.8531C169.321 11.8502 168.923 11.326 168.305 11.0743C168.368 11.184 168.458 11.2708 168.52 11.3805C168.406 11.4056 168.293 11.4751 168.234 11.4543C167.821 11.2421 167.435 11.0068 166.783 10.6447C166.945 11.0412 167.098 11.26 167.077 11.4385C167.055 11.6171 166.832 11.8007 166.723 11.9591C166.285 11.8587 165.877 11.7798 165.439 11.6794C165.433 11.546 165.426 11.3682 165.42 11.2348C165.241 11.1057 165.092 10.9981 164.913 10.869C164.833 11.0268 164.752 11.1623 164.618 11.4105C164.408 11.2376 164.258 11.1078 164.019 10.9135C163.853 11.0956 163.687 11.2777 163.548 11.4147C163.232 11.467 162.945 11.5187 162.543 11.5954C162.506 11.396 162.44 11.1974 162.403 10.998C162.345 10.9994 162.229 10.9801 162.201 11.003C162.033 11.1407 161.835 11.2569 161.697 11.4161C161.506 11.6879 161.434 12.0235 161.183 12.2522C160.96 12.458 160.588 12.5562 160.248 12.7204C160.213 12.5655 160.147 12.3669 160.081 12.1683C159.731 12.1102 159.411 12.0513 159.031 11.9717C159.004 12.0169 158.98 12.1288 158.93 12.308C158.728 12.3353 158.468 12.3417 158.123 12.3726C158.229 12.1474 158.337 11.9667 158.47 11.6963C158.846 11.687 159.308 11.6756 159.77 11.6641C159.767 11.5974 159.766 11.553 159.763 11.4863C159.473 11.4712 159.212 11.4554 158.922 11.4403C158.576 11.4489 158.258 11.4568 157.825 11.4675C157.807 11.735 157.79 12.0247 157.744 12.3152C157.657 12.2951 157.541 12.298 157.54 12.2757C157.528 11.9867 157.391 11.4783 157.106 11.5744C156.564 11.7436 156.461 11.3678 156.141 11.309C155.791 11.2509 155.389 11.3054 154.926 11.3168C154.877 11.5183 154.857 11.7191 154.81 11.9873C154.432 11.9299 154.051 11.8281 153.675 11.8152C153.299 11.8023 153.559 11.1282 152.936 11.4329C153.001 11.6093 153.095 11.785 153.103 11.9629C153.104 11.9851 152.874 12.0353 152.646 12.1077C152.574 11.7535 152.533 11.4652 152.46 11.1109C152.132 11.5641 151.86 11.9714 151.587 12.3565C151.117 12.1901 150.764 12.0431 150.382 11.8968C150.214 12.0345 150.017 12.1729 149.85 12.3105C149.034 12.175 148.247 12.0165 147.489 11.8795C147.536 11.6113 147.583 11.3431 147.654 10.9852C146.707 11.1422 146.761 11.7418 146.376 12.2186C146.308 11.9755 146.242 11.7991 146.175 11.5782C145.641 11.2577 145.316 11.7775 144.826 11.8119C144.777 12.0135 144.757 12.2365 144.71 12.4824C144.471 12.3103 144.321 12.1805 144.172 12.073C143.914 12.1239 143.685 12.1963 143.454 12.202C143.281 12.2063 143.129 12.032 142.957 12.0586C141.66 12.1575 141.573 12.1596 140.827 11.6217C140.768 11.5787 140.678 11.5142 140.559 11.4281C140.366 11.6554 140.202 11.882 140.008 12.0871C139.619 11.763 139.651 11.1613 138.806 11.0042C138.62 11.3872 138.461 11.7471 138.222 12.2427C138.005 11.892 137.818 11.5851 137.662 11.2996C137.295 11.509 137.257 11.9773 136.712 12.102C136.54 12.1286 136.368 12.1551 136.197 12.2261C135.743 12.4376 135.277 11.6703 134.838 12.2375C134.318 12.2504 133.77 12.2862 133.25 12.2769C133.018 12.2826 132.812 12.1987 132.608 12.1592C132.141 12.0373 131.706 12.0258 131.371 12.3012C131.048 12.1757 130.724 12.0502 130.341 11.8816C130.229 11.9512 130.087 12.0215 129.86 12.1383C129.823 11.939 129.758 11.7626 129.721 11.5632C129.601 11.4771 129.065 11.7797 128.902 12.0508C128.498 12.0608 128.09 11.9819 127.777 12.101C127.093 12.3405 126.596 12.2192 126.143 11.7631C125.569 11.8664 125.011 12.3475 124.381 11.8068C124.301 11.9646 124.249 12.0994 124.197 12.2342C124.111 12.2586 124.026 12.3052 123.938 12.2851C123.647 12.2256 123.354 12.1438 123.034 12.085C122.539 12.0082 121.972 12.2893 121.552 11.9214C121.131 12.2212 120.67 12.2771 120.167 12.0003C119.858 12.2082 119.411 11.8855 119.134 12.1816C118.572 11.884 117.969 11.988 117.362 12.003C116.871 12.0152 116.41 12.0489 115.918 12.0388C115.455 12.028 115.026 12.1499 114.553 11.8946C114.257 11.7462 113.651 11.7612 113.31 11.9032C112.4 12.2818 111.466 12.0601 110.373 12.2207C110.319 12.3111 110.182 12.4925 109.934 12.7657C109.861 12.4115 109.794 12.1906 109.759 12.0579C109.4 11.7553 109.251 12.3598 108.894 12.1016C108.745 11.9941 108.37 12.0256 108.081 12.0328C107.733 12.0191 107.417 12.0492 107.07 12.0578C106.891 11.9287 106.741 11.7989 106.562 11.6698C106.163 11.8132 105.795 12.0004 105.394 12.0771C104.992 12.1538 104.557 12.1201 104.095 12.1316C104.506 11.5873 105.133 11.3715 105.791 11.1994C105.967 11.2618 106.173 11.3457 106.35 11.4303C106.577 11.3357 106.747 11.2424 106.916 11.1492C107.123 11.2554 107.27 11.3185 107.419 11.4038C107.844 11.2152 108.3 11.0482 108.812 10.8352C109.001 10.519 109.244 10.1124 109.514 9.66059C109.28 9.59963 109.105 9.55947 109.018 9.53938C108.768 9.1005 108.519 8.68384 108.241 8.24567C107.692 8.25928 107.23 8.27073 106.71 8.28362C106.948 8.45573 107.186 8.60562 107.484 8.82077C106.768 8.99428 106.215 9.58659 105.604 8.82284C105.945 8.65864 106.284 8.4722 106.71 8.28362C106.725 7.97167 106.44 8.06775 106.209 8.07348C104.996 8.10355 103.812 8.13291 102.598 8.16297C102.405 8.39029 102.212 8.61761 102.02 8.86716C101.378 8.7273 100.674 9.16758 100.158 8.57952C99.8492 8.8097 99.5957 8.97176 99.3152 9.179C99.0814 9.11804 98.8139 8.94663 98.6126 8.97387C98.2101 9.02836 97.9054 8.6576 97.5093 8.86769C97.1412 9.05485 96.8207 8.99603 96.5216 8.75865C96.187 9.05624 95.8422 9.1093 95.4257 8.83032C95.0604 9.08417 94.7408 9.04758 94.3839 8.81163C93.8024 9.42689 92.9311 8.64735 92.2844 9.0862C91.947 9.3171 91.5231 8.86028 91.0692 9.07181C90.7282 9.21378 90.32 9.13488 89.8802 8.99001C89.4982 8.8437 88.8039 8.83866 88.4927 9.00214C87.9559 9.30475 87.4015 9.18497 86.8535 9.2208C86.2776 9.27958 85.6356 9.13972 85.151 9.3075C84.6385 9.49823 84.221 9.19702 83.7914 9.29668C83.5342 9.36982 83.277 9.44296 83.0189 9.49386C82.8754 9.51967 82.7049 9.59066 82.6163 9.54834C81.9109 9.27653 81.1645 9.40629 80.4116 9.38045C79.7453 9.35245 78.9094 9.41768 78.3978 9.63064C77.8993 9.46496 77.4595 9.32009 76.932 9.15513C76.7391 9.38245 76.6031 9.5861 76.4372 9.76824C76.0533 9.57748 75.7877 9.45054 75.2277 9.19737C75.8613 9.13716 76.18 9.15152 76.4363 9.05615C76.7214 8.96007 77.0094 8.93068 77.2983 8.92352C77.1073 8.50543 77.7801 8.68905 77.8537 8.37567C77.1026 8.39428 76.3441 8.23505 75.7551 8.67247C75.5772 8.56561 75.4868 8.47884 75.3684 8.41501C75.2007 8.55269 75.033 8.69036 74.9491 8.7592C74.4561 8.72691 73.993 8.71614 73.5569 8.66019C73.1506 8.62575 72.817 8.2557 72.2812 8.58053C72.0557 8.71965 71.4686 8.51166 71.0912 8.4765C70.8713 8.749 70.6793 8.99854 70.4594 9.27104C69.9282 9.01716 69.4856 8.8056 69.0132 8.57251C68.7354 8.84644 68.4195 8.89878 68.0366 8.73024C67.6526 8.53947 67.2678 8.32647 66.8541 8.11419C66.841 7.80296 66.828 7.49173 66.8169 7.22497C67.0415 7.06363 67.2083 6.90371 67.4049 6.76532C67.3741 6.72157 67.3145 6.67855 67.2847 6.65703C67.1142 6.72802 66.9445 6.82123 66.7433 6.84848C66.5131 6.87643 66.2811 6.85993 66.0211 6.86637C65.9139 7.06931 65.7769 7.25074 65.6697 7.45368C65.7294 7.49671 65.8197 7.58349 65.9688 7.69106C65.6818 7.74268 65.4237 7.79358 65.0789 7.84663C65.4945 8.10337 65.8812 8.36084 66.3275 8.66133C66.1607 8.82124 65.9939 8.98115 65.7712 9.18695C65.5336 9.03706 65.2121 8.95602 65.118 8.78032C64.8953 8.29626 64.5608 7.90398 63.9393 7.56332C63.8023 7.74475 63.6364 7.92689 63.4985 8.08609C62.9999 7.92041 62.4772 7.86661 62.3141 7.42558C61.4316 7.759 61.2294 7.76401 59.9947 7.28277C59.9388 7.32867 59.8549 7.3975 59.7413 7.44483C59.2296 7.65779 58.7526 7.31356 58.2904 7.32502C57.7993 7.33719 57.3529 7.72656 56.8534 7.53865C56.5599 7.43466 56.4751 7.48127 56.1881 7.53289C55.7864 7.60961 55.3187 7.48768 54.7092 7.43602C54.6822 7.4812 54.602 7.63896 54.4967 7.88636C54.2899 7.78021 54.1408 7.67265 53.755 7.43742C53.9591 7.47687 53.8706 7.43455 53.8426 7.4575C52.9033 7.81458 51.8885 7.75072 50.9566 7.59579C50.199 7.45879 49.2793 7.59285 48.6224 7.0973C48.5031 7.01124 48.1294 7.06501 47.9291 7.11448C47.7287 7.16395 47.5619 7.32386 47.4501 7.41565C47.5731 7.59063 47.6662 7.7441 47.7585 7.87533C46.9943 8.27258 46.3616 7.66515 45.6739 7.81572C45.9712 8.00864 46.2405 8.2245 46.5675 8.43893C46.4995 8.88569 46.0121 8.98679 45.4371 9.0678C45.7316 9.19402 46.027 9.34247 46.3214 9.4687C46.2096 9.56049 46.0698 9.67522 45.93 9.78995C45.63 9.53034 45.3113 9.51598 44.9795 9.88027C44.9115 9.63716 44.8743 9.4378 44.8072 9.21693C43.9937 9.12582 43.2239 9.38969 42.4449 9.43125C41.7814 9.46995 40.857 9.49286 40.1171 9.77824C40.0249 9.647 39.9308 9.47131 39.7453 9.18661C39.7183 9.23178 39.7994 9.09625 39.9084 8.93777C39.8497 8.91697 39.7603 8.85243 39.6736 8.85458C38.6625 8.87964 37.6496 8.86023 36.6404 8.92975C36.0347 8.96702 35.196 8.96555 34.581 8.78051C34.4161 8.98488 34.2809 9.21076 34.116 9.41513C33.91 9.33122 33.6734 9.20357 33.6454 9.22652C33.2838 9.56928 32.9213 9.19995 32.5756 9.23077C32.1432 9.26374 31.709 9.25225 31.2757 9.26299C30.4379 9.28375 29.645 8.99186 28.782 9.10226C28.0915 9.18613 27.3899 9.00324 26.6658 8.97668C26.144 8.9451 25.9315 8.70558 25.6072 8.55784C25.4665 8.65034 25.3249 8.72061 25.0994 8.85972C24.8841 8.5535 24.6996 8.29103 24.545 8.05008C24.6288 7.98124 24.6568 7.95829 24.6848 7.93535C25.1647 7.65641 25.7172 8.42159 26.1571 7.8766C26.6771 7.86372 27.225 7.82788 27.7459 7.83722C28.1811 7.87095 28.619 7.97136 29.0263 8.02803C29.2136 7.66733 29.3748 7.37403 29.5901 6.99039C30.7754 7.67313 32.1275 7.50609 33.2718 7.90055C33.3892 7.94215 33.5914 7.93714 33.7051 7.88981C34.7283 7.46389 35.8372 7.70345 36.9303 7.56509C36.9229 7.38725 36.9164 7.23164 36.9052 6.96487C36.3526 6.88955 35.6882 6.90601 35.131 6.71954C34.7498 6.59546 34.5839 6.7776 34.3519 6.7611C33.9466 6.74889 33.4927 6.96042 33.1321 6.63556C32.8312 6.35372 32.5674 6.96111 32.2068 6.63624C32.1164 6.54946 31.7418 6.581 31.5405 6.60824C30.8202 6.6706 30.0971 6.66626 29.3963 6.5056C29.3674 6.50632 29.3358 6.44034 29.278 6.44178C27.9221 6.51989 26.5747 6.10821 25.1955 6.32042C24.9374 6.37133 24.71 6.46597 24.5106 6.53767C24.0922 6.21424 23.6748 5.91303 23.2284 5.61254C22.7718 5.75738 22.4578 5.85418 22.0869 5.97464C21.3684 5.3916 20.2828 5.7078 19.4293 5.35064C18.0501 5.56285 16.7278 5.06154 15.3477 5.25152C15.139 5.10091 14.9014 4.95103 14.7225 4.82194C14.4047 4.82982 14.1447 4.83626 13.8559 4.84342C13.4421 5.321 13.4057 5.83374 13.5128 6.32066C12.8586 6.58167 12.9845 6.13347 12.6574 5.91904C12.3723 6.01512 12.0312 6.1571 11.6035 6.30122C11.8159 6.54075 11.937 6.67127 12.0283 6.78027C11.9034 7.2507 11.5204 7.77202 11.6807 8.14637C11.8754 8.65337 11.7514 9.14602 11.9536 9.83087C11.6582 9.68242 11.5408 9.64082 11.3041 9.51317C11.1112 9.74049 10.8624 10.0137 10.6415 10.264C10.3992 10.0029 10.2455 9.78419 10.0638 9.58841C9.39938 9.60488 8.79367 9.64215 8.15721 9.63567C7.69408 9.6249 7.26542 9.74678 6.79205 9.49147C6.55537 9.36382 6.00744 9.39965 5.66451 9.49716C4.98051 9.73665 4.2285 9.73304 3.51096 9.86209C4.0067 9.96107 4.47355 10.0608 5.17337 10.1992C4.60399 10.4136 4.23403 10.5563 3.89296 10.6983C3.98986 10.9406 4.11564 11.1823 4.2144 11.4692C4.79401 11.4993 5.40251 11.5287 6.18527 11.5761C6.35581 11.5051 6.72483 11.3402 7.15163 11.1738C7.24481 11.3273 7.30724 11.437 7.40134 11.6127C7.69022 11.6056 8.03687 11.597 8.41241 11.5877C8.46181 11.3862 8.48233 11.1854 8.5308 10.9616C9.05077 10.9487 9.26136 11.1438 9.33216 11.4536C9.43185 11.7627 9.53061 12.0495 9.63308 12.4253C8.77018 12.5357 7.92681 13.113 6.95026 12.5808C6.6418 12.811 6.35664 12.9071 6.05381 12.5808C5.8115 13.0096 5.53197 12.5492 5.27384 12.6001C4.75759 12.7019 4.1817 12.7607 3.66637 12.8847C3.23678 12.9844 2.83979 13.1723 2.34684 13.14C2.20241 13.1436 2.03745 13.3479 1.81379 13.5315C3.31967 13.5832 4.60747 13.9518 6.02576 13.9835C7.2996 14.0186 8.53614 14.5443 9.95164 14.5093C10.1911 14.7036 10.4613 14.9417 10.972 15.3964C10.1547 15.2163 9.68788 15.1166 9.10361 14.9754C8.85107 15.1596 8.51465 15.4128 8.20619 15.6429C8.14655 15.5999 8.0571 15.5354 7.90801 15.4278C7.82786 15.5856 7.74771 15.7433 7.69552 15.8781C7.98718 15.9377 8.45497 16.0596 8.95164 16.1808C8.95815 16.3364 8.96559 16.5143 8.9749 16.7366C8.48102 16.6821 7.95453 16.5393 7.52307 16.5945C7.06273 16.6504 6.67417 16.3485 6.13368 16.5622C5.79261 16.7042 5.08256 16.3212 4.7126 16.4639C4.17118 16.6553 3.78075 16.309 3.32599 16.4983C3.24491 16.6338 3.10885 16.8375 2.94669 17.1085C3.58966 17.2706 4.23356 17.4549 4.96412 17.6371C4.99766 17.7476 5.03399 17.9247 5.07125 18.124C6.05808 18.2108 7.0738 18.2969 8.206 18.4024C9.00085 18.7388 8.35504 19.1998 8.1733 19.6939C7.82478 19.6581 7.47534 19.6 7.12683 19.5641C7.09794 19.5648 7.06626 19.4988 7.00849 19.5003C6.4205 19.27 5.95453 19.8824 5.33487 19.5863C4.7152 19.2901 4.18401 19.726 3.63794 19.8063C3.06205 19.8651 3.11419 20.4202 2.83648 20.6941C3.10014 21.4664 4.40013 20.7444 4.63491 21.5174C5.29932 21.5009 5.90596 21.4859 6.45483 21.4723C6.63746 21.6903 6.78934 21.8646 6.97011 22.0381C7.42203 22.472 7.42203 22.472 6.92345 22.9962C5.64402 22.8276 4.58174 22.3199 3.23616 21.9526C3.30324 22.1735 3.33864 22.3284 3.37311 22.4611C3.37311 22.4611 3.45977 22.4589 3.51755 22.4575C4.1801 22.3966 3.92658 23.2485 4.7606 23.1388C5.16316 23.0843 5.66728 23.3834 6.1071 23.5283C6.2534 23.5691 6.37174 23.633 6.54786 23.6954C5.7986 24.4483 5.50139 23.5655 4.86494 23.559C4.69905 23.7412 4.50521 23.9463 4.25639 24.2195C4.14084 24.2224 3.91067 24.2503 3.6805 24.2783C3.60779 24.6139 3.53508 24.9495 3.43628 25.3525C3.72515 25.3453 4.0718 25.3368 4.47623 25.3267C4.43148 25.6394 4.4119 25.8624 4.36714 26.1751C4.13976 26.2697 3.77074 26.4346 3.42967 26.5766C3.55359 26.7738 3.70547 26.9481 3.88996 27.2106C4.20401 27.1138 4.51712 26.9947 7.01541 27.2666C8.91357 27.7092 8.60232 27.8727 8.36843 27.8117C7.0536 27.4882 5.63066 27.3454 4.67742 26.6792C4.7846 26.4763 4.86382 26.2963 4.94583 26.183C5.35491 26.2841 5.76677 26.4519 5.82269 26.406C6.15539 26.064 6.42282 26.2354 6.77598 26.3824C7.01173 26.4878 7.45063 26.6105 7.62117 26.5395C8.33033 26.2104 8.69373 26.6019 9.16709 26.8572C9.17733 27.1018 9.18756 27.3463 7.01541 27.2666C5.07994 27.3146 5.2989 27.7097 5.51972 28.1493C5.31936 28.1988 5.17586 28.2246 4.9755 28.2741C4.90377 27.9421 4.86279 27.6538 4.78548 27.1884C4.54317 27.6172 4.41082 27.9098 4.24866 28.1808C4.10329 28.1622 3.92904 28.1442 3.75571 28.1485C3.49665 28.1772 3.20871 28.2066 2.95151 28.2797C2.75116 28.3292 2.55359 28.4454 2.29826 28.563C2.62346 28.7329 2.91885 28.8814 3.21424 29.0299C3.07445 29.1446 3.01854 29.1905 2.93467 29.2593C3.34561 29.4049 3.72673 29.529 4.10878 29.6753C4.11343 29.7865 4.11808 29.8976 3.95313 30.102C4.32309 29.9593 4.54954 29.8424 4.80487 29.7248C4.74989 29.7929 4.72379 29.8603 4.66881 29.9285C4.87288 29.9679 5.10677 30.0289 5.31085 30.0683C5.25493 30.1142 5.22791 30.1594 5.17199 30.2053C4.82441 30.1917 4.44887 30.201 3.95313 30.102C3.9783 30.0123 3.74533 29.9736 3.68942 30.0195C3.32691 30.34 2.99328 30.6599 2.57671 31.0707C3.01282 31.1267 3.30355 31.164 3.59429 31.2013C3.59987 31.3347 3.60266 31.4014 3.60731 31.5125C3.34919 31.5634 3.09013 31.5921 2.74534 31.6452C3.09943 31.8144 3.39575 31.9851 3.75077 32.1766C3.16925 32.7918 2.61476 33.3619 2.06119 33.9542C2.15251 34.0633 2.24475 34.1945 2.36682 34.3472C2.11055 34.4426 1.91206 34.5365 1.71264 34.6082C1.98002 35.4695 2.13185 36.3336 3.14008 36.9318C3.46715 37.1462 3.7122 37.4739 3.86967 37.7816C4.05602 38.0885 4.09979 38.4435 4.20134 38.797C4.02987 38.8458 3.88729 38.8938 3.68694 38.9433C3.71769 38.987 3.7503 39.0752 3.78012 39.0968C3.92549 39.1154 4.06806 39.0674 4.21436 39.1082C4.6514 39.1864 4.86198 39.3815 4.81909 39.7386C4.77341 40.029 4.57771 40.1897 4.2031 40.2212C3.972 40.2269 3.7409 40.2327 3.53869 40.2377C3.4837 40.3058 3.42779 40.3517 3.42779 40.3517C3.48835 40.417 3.57688 40.4593 3.66633 40.5238C3.61228 40.6142 3.52934 40.7052 3.36624 40.9541C3.73713 40.8336 3.96544 40.7612 4.16486 40.6895C4.35214 41.0186 4.56645 41.3026 5.23273 41.3306C5.84123 41.3601 6.62213 41.363 7.02557 42.0206C6.48415 42.212 6.05363 42.2894 5.60543 41.9445C5.06778 41.535 4.4276 41.4396 3.65507 41.6368C3.87868 42.1431 4.51235 42.0829 5.13295 42.4013C3.77616 42.4572 2.616 42.3746 1.34118 43.0071C1.06533 43.3255 2.16585 43.365 2.18259 43.7651C2.90757 43.8139 3.06876 44.2105 3.00163 44.6795C3.60176 44.5088 3.60176 44.5088 3.29149 44.0047C3.55147 43.9982 3.78164 43.9703 4.04163 43.9638C4.09476 43.8512 4.14695 43.7164 4.19821 43.5594C4.6893 43.5472 5.20928 43.5343 5.78703 43.52C5.80657 43.9868 5.82611 44.4537 5.84471 44.8983C6.29012 45.1766 6.53983 45.6154 7.19866 45.4656C7.41018 45.6829 7.59281 45.9009 7.77451 46.0967C8.03077 46.0013 8.20131 45.9303 8.59922 45.7647C8.44543 46.2358 8.34291 46.5499 8.24224 46.9085C9.58875 47.2979 11.0005 47.1739 12.3405 47.4078C12.3442 47.4967 12.3489 47.6078 12.3545 47.7412C11.8056 47.7548 11.2856 47.7677 10.7945 47.7799C10.638 48.1843 10.4795 48.5443 10.35 48.9036C10.09 48.91 9.88776 48.915 9.51223 48.9243C9.62312 48.8103 9.67811 48.7422 9.78808 48.606C9.58121 48.4998 9.31192 48.284 9.11064 48.3112C8.3931 48.4402 7.76878 48.0329 7.04938 48.1175C7.48916 48.9522 7.72584 49.0799 9.12734 49.4012C9.5653 49.5016 9.97624 49.6472 10.2688 49.729C10.8493 50.4712 10.0358 51.07 10.2361 51.7104C9.87078 51.9642 9.6294 52.4153 8.9007 52.2775C8.76928 52.5924 8.60991 52.9301 8.45054 53.2679C9.09165 53.3855 9.64517 53.4831 10.2005 53.6251C10.4344 53.686 10.2219 54.1364 10.6795 54.0138C11.0224 53.9162 11.3048 53.7535 11.7875 53.5412C12.2497 53.5298 12.943 53.5126 13.6074 53.4961C13.7463 53.3592 13.914 53.2215 14.0259 53.1297C14.3651 52.9433 17.6918 52.9721 18.2472 53.1141C18.359 53.0223 18.4429 52.9535 18.6106 52.8158C18.55 52.7505 18.4895 52.6853 18.3693 52.577C18.4252 52.5311 18.4792 52.4407 18.5631 52.3719L20.8015 51.9604C21.2804 52.349 21.8768 52.0895 22.4275 52.1203C23.0938 52.1483 23.8375 51.9519 24.4227 52.1154C25.0367 52.2782 25.7506 52.0602 26.1652 52.2948C26.7858 52.6132 27.5192 52.1722 28.0019 52.6498C28.0326 52.6935 28.1752 52.6455 28.2917 52.6649C29.45 52.7029 30.6372 52.7403 31.7964 52.8005C32.2893 52.8328 32.786 52.954 33.278 52.9641C33.7421 52.9971 34.2313 52.9405 34.7233 52.9505C34.8389 52.9477 34.9302 53.0567 35.1091 53.1858C35.0989 52.9412 35.0924 52.7856 35.084 52.5855C34.907 52.5009 34.6992 52.3725 34.2547 52.1165C35.2452 52.2922 35.2452 52.2922 35.8695 52.6996C35.9581 52.7419 36.1584 52.6924 37.6093 52.8123C38.4778 52.8352 37.9783 52.6473 37.8656 52.7169C37.586 52.9464 37.162 52.4895 37.0344 52.8933C36.7986 52.7878 36.5349 52.7054 36.2982 52.5777C36.2395 52.5569 36.3187 52.3769 36.343 52.265C37.2142 52.3547 38.0557 52.4229 38.8972 52.491C38.9009 52.58 38.9046 52.6689 37.6093 52.8123C36.5433 52.9054 36.7846 53.1442 36.9952 53.3393C37.5729 53.325 38.1246 53.3781 38.612 53.277C39.3006 53.1487 39.8634 53.4685 40.5288 53.4743C41.1075 53.4822 41.6824 53.4012 42.3263 53.5855C42.9702 53.7698 43.862 53.6587 44.5796 53.5297C44.8955 53.4773 45.0353 53.3626 45.4173 53.5089C45.7695 53.6337 46.2597 53.5993 46.6902 53.5219C47.0639 53.4681 47.2782 53.7521 47.6771 53.6087C48.0181 53.4667 48.4496 53.4115 48.8223 53.3355C49.0516 53.2853 49.3497 53.5004 49.5706 53.2502C49.5986 53.2272 49.8651 53.3764 50.0402 53.4166C50.3328 53.4983 50.8323 53.6862 50.8882 53.6403C51.193 53.3212 51.4399 53.6934 51.6971 53.6203C51.9832 53.5465 52.2376 53.4066 52.6355 53.241C52.2581 53.2058 51.9972 53.19 51.7064 53.1527C51.6738 53.0645 51.6403 52.9541 51.6366 52.8652C51.6925 52.8193 51.7195 52.7741 51.7484 52.7734C52.4706 52.7555 53.1639 52.7383 53.8861 52.7204C53.9196 52.8308 53.9532 52.9413 53.9886 53.0962C54.5607 52.9485 55.1031 52.7793 55.6771 52.676C55.8206 52.6502 56.0536 52.6889 56.2008 52.7521C56.7021 52.9844 57.1317 52.8848 57.5846 52.651C57.7337 52.7586 57.853 52.8446 58.0319 52.9737C58.5752 52.8267 59.1734 52.6116 59.7651 52.9308C59.8835 52.9946 60.0279 52.991 60.1724 52.9874C62.0519 52.9854 63.9436 53.2723 65.8436 53.0694C66.7364 52.9805 67.5797 53.0932 68.4873 53.36C68.3783 53.5184 68.2683 53.6547 68.1341 53.9028C69.0538 53.7687 69.8282 54.3059 70.9119 53.9452C70.0668 53.7881 69.3968 53.6712 68.5525 53.5364C68.9803 53.3922 69.2365 53.2969 69.5217 53.2008C69.7789 53.1277 70.0379 53.099 70.324 53.0251C70.6762 53.1499 71.1161 53.2948 71.6146 53.4605C71.4152 53.5322 71.2456 53.6254 71.0173 53.6978C71.254 53.8255 71.4617 53.9538 71.7282 54.103C71.8876 53.7653 71.9929 53.5179 72.1271 53.2697C72.1532 53.2023 72.2669 53.155 72.2949 53.1321C72.5586 53.2145 72.7943 53.32 72.9994 53.3817C72.9201 53.5616 72.84 53.7194 72.7617 53.9216C73.5761 54.035 73.5557 53.5459 73.7756 53.2734C74.0356 53.267 74.3794 53.1917 74.6143 53.2749C74.8789 53.3796 75.056 53.4642 75.3663 53.2785C75.3159 53.4578 75.2367 53.6378 75.1864 53.817C75.1864 53.817 75.2758 53.8816 75.3336 53.8801C75.6234 53.8952 75.9114 53.8658 76.2002 53.8587C77.0669 53.8372 77.9587 53.7261 79.0172 54.1449C78.774 53.8616 78.7116 53.7519 78.5588 53.5554C79.1962 53.5841 79.7432 53.5261 80.2678 53.6243C80.7049 53.7025 81.0935 53.3146 81.5985 53.6359C81.9256 53.8503 82.6152 53.7442 83.1659 53.775C83.1883 53.6187 83.2377 53.4172 83.2582 53.2164C83.3159 53.215 83.3448 53.2143 83.4026 53.2128C83.4399 53.4122 83.506 53.6108 83.5442 53.8324C84.1508 53.8174 84.7575 53.8024 85.4508 53.7852C85.4732 53.6288 85.5226 53.4273 85.5701 53.1814C87.0583 53.5005 88.5222 53.2417 90.0272 53.2712C90.0235 53.1823 90.0486 53.0926 90.0486 53.0926C89.2556 52.8007 88.4328 52.4873 87.6119 52.2184C87.2597 52.0936 87.2326 52.1388 86.8646 51.636C87.7508 51.3915 88.2596 51.8018 88.8261 52.2105C88.8783 52.0757 88.9305 51.9409 89.061 51.6039C89.1607 51.9129 89.2566 52.1331 89.3237 52.354C89.4076 52.2851 89.5203 52.2156 89.6042 52.1467C90.1438 51.9108 90.6833 51.6749 91.2508 51.4161C90.9853 51.2891 91.0319 51.0209 90.6023 51.1206C90.2305 51.2188 89.6229 51.2116 89.3844 51.0395C88.966 50.7161 88.5317 51.3944 88.2233 50.9348C87.529 50.9297 86.805 50.9031 86.0819 50.8988C86.0297 51.0336 86.0045 51.1233 85.9523 51.2581C85.3913 51.6726 85.0521 51.1691 84.6077 50.9131C84.6114 51.002 84.5601 51.8489 84.5386 52.0275C84.2572 51.5226 84.0681 51.149 83.8482 50.7316C83.5957 50.9159 83.3711 51.0773 83.0906 51.2845C82.8232 51.1131 82.5846 50.941 82.4066 50.8341C82.2053 50.8614 82.0348 50.9324 81.9463 50.89C81.6807 50.7631 81.445 50.6577 81.3443 51.0162C81.4319 51.0363 81.5204 51.0786 81.5791 51.0994C81.3825 51.2378 81.2427 51.3526 81.074 51.468C81.0768 51.5347 81.0805 51.6236 81.0843 51.7125C81.5474 51.7233 82.0096 51.7119 82.4718 51.7004C82.4876 52.0783 82.5025 52.434 82.5164 52.7675C82.2351 52.2626 81.4234 52.216 81.0843 51.7125C80.8289 51.8301 80.6043 51.9915 80.3499 52.1313C80.2903 52.0883 80.2008 52.0237 80.0816 51.9377C79.6389 52.416 79.0714 52.6748 78.3576 52.2029C77.7864 52.3729 77.3074 51.9842 76.7297 51.9985C76.6141 52.0014 76.4921 51.8486 76.343 51.741C77.0484 51.323 78.0259 51.8773 78.4313 51.1997C78.0204 51.0541 77.5796 50.887 77.0811 50.7213C76.7754 51.0182 76.3673 50.9393 75.9526 50.7048C75.6488 51.0461 75.0971 50.993 74.7757 50.912C74.3945 50.7879 74.0246 50.9306 73.6425 50.7843C73.3192 50.6588 72.8327 50.7821 72.4283 50.7921C72.5299 50.4558 72.6063 50.2091 72.6818 49.9402C73.4301 49.8549 74.2082 49.7911 75.1289 49.6793C75.1606 49.7452 75.3134 49.9417 75.4382 50.1612C75.523 50.1146 75.6078 50.068 75.6927 50.0214C75.7169 49.9095 75.7691 49.7747 75.8203 49.6176C76.0226 49.6126 76.2537 49.6069 76.5425 49.5997C76.5742 49.6657 76.6376 49.7977 76.7307 49.9511C76.9329 49.9461 77.1641 49.9404 77.4529 49.9332C77.4781 49.8436 77.5303 49.7088 77.6104 49.551C77.8127 49.546 78.0438 49.5403 78.2749 49.5345C78.3839 50.0659 79.0371 49.7827 79.3884 49.8853C79.7686 49.9871 80.2261 49.8645 80.6613 49.8982C80.8346 49.8939 80.9837 50.0015 81.1887 50.0632C81.2996 49.9492 81.4385 49.8122 81.5494 49.6982C82.2464 49.7699 82.8036 49.9564 83.5221 49.8496C84.2984 49.7413 85.2144 49.5183 86.013 49.9436C86.6551 49.3936 87.0063 50.186 87.5552 50.1724C87.8962 50.0305 88.2653 49.8655 88.6343 49.7006C88.8989 49.8053 89.2288 50.0864 89.4683 49.5909C89.5922 49.7881 89.6854 49.9416 89.8084 50.1166C90.4346 49.8785 91.0338 49.6857 91.7681 49.9568C92.1203 50.0815 92.6636 49.9346 93.0951 49.8794C93.3541 49.8507 93.6113 49.7775 93.8415 49.7496C93.9366 49.9475 93.999 50.0572 94.0931 50.2329C94.4817 49.845 94.8731 49.5237 95.6381 49.8386C95.6987 49.9039 95.8217 50.0788 95.9456 50.276C95.8897 50.3219 95.8068 50.413 95.6949 50.5048C95.8403 50.5234 95.9885 50.6088 96.1031 50.5837C96.8169 50.3657 97.5018 50.1485 98.2147 49.9083C98.3638 50.0158 98.5147 50.1679 98.7207 50.2518C98.9555 50.335 99.2462 50.3723 99.5072 50.3881C99.6814 50.406 99.8529 50.3572 100.054 50.33C100.062 50.5078 100.069 50.6857 100.077 50.8858C99.5863 50.8979 99.0664 50.9108 98.5753 50.923C98.387 51.2615 98.2556 51.5763 98.0142 52.0273C97.6825 51.0119 96.5438 51.4407 95.8915 51.0563C95.7675 51.5489 95.6436 52.0416 95.4944 52.6239C95.7544 52.6174 95.9566 52.6124 96.13 52.6081C95.9697 52.2338 96.3695 52.1126 96.6742 51.7935C97.005 52.0968 97.2463 52.3357 97.5473 52.6175C97.6862 52.4805 97.825 52.3436 98.0478 52.1378C98.3366 52.1306 98.7066 51.9879 99.1501 52.2217C99.3281 52.3286 99.7829 52.1393 100.299 52.0375C100.164 52.2633 100.112 52.3982 99.9711 52.4907C99.7745 52.6291 99.5471 52.7237 99.2927 52.8635C99.4781 53.1482 99.6616 53.3885 99.8769 53.6947C99.9226 53.4043 99.972 53.2028 100.017 52.8901C100.829 52.959 101.642 53.0278 102.542 53.1168C102.417 52.8974 102.323 52.7217 102.168 52.4807C102.631 52.4693 102.977 52.4607 103.382 52.4506C103.418 52.6278 103.454 52.8049 103.493 53.0265C103.637 53.0229 103.811 53.0408 104.013 53.0358C103.89 52.8386 103.767 52.6859 103.613 52.4449C104.131 52.3876 104.563 52.3546 105.053 52.3202C105.193 52.2055 105.361 52.0678 105.585 51.8842C105.976 52.2528 106.367 52.6214 106.788 52.9893C107.216 52.8674 107.645 52.7455 108.074 52.6237C107.983 52.5369 107.865 52.4731 107.715 52.3433C108.321 52.3282 108.87 52.3146 109.477 52.2996C109.483 52.4552 109.491 52.633 109.503 52.922C109.904 52.8231 110.386 52.6108 110.476 52.6754C110.865 52.9995 111.107 52.5485 111.428 52.6295C111.779 52.7099 112.127 52.7457 112.505 52.8031C112.81 52.484 113.203 52.2072 113.777 52.0817L115.156 51.8695C115.504 51.9054 115.823 51.9198 116.226 51.8875C117.06 51.7778 117.093 51.866 117.42 51.3906C117.474 51.3002 117.528 51.2099 117.637 51.0514C117.052 50.8879 116.409 50.7258 116.757 50.0496C117.627 50.117 117.829 50.8019 118.657 51.2264C118.625 51.1605 118.217 51.0816 118.575 50.6499C118.897 50.7531 119.249 50.8557 119.541 50.9375C119.55 51.1598 119.558 51.3376 119.572 51.6711C119.386 51.3864 119.294 51.2551 119.201 51.1017C119.088 51.1712 119.004 51.2401 118.686 51.2257C118.291 51.458 118.161 51.8173 117.619 51.9865C118.227 52.016 118.889 51.9328 119.293 52.6126C119.364 52.2326 119.384 52.0318 119.404 51.8088C120.049 52.0153 120.615 52.4241 121.378 51.9824C121.632 51.8426 122.099 51.9422 122.475 51.9329C122.514 52.1768 122.55 52.3539 122.587 52.5533C123.107 52.5404 123.627 52.5275 124.176 52.5139C124.316 52.3991 124.484 52.2615 124.679 52.1008C124.997 52.093 125.551 52.1905 125.718 52.0528C126.11 51.7316 126.358 52.126 126.673 52.0514C127.015 51.9539 127.329 51.8349 127.671 51.7152C127.697 51.6477 127.721 51.5359 127.746 51.4462C127.774 51.4233 127.802 51.4003 127.859 51.3767C128.013 51.5954 128.194 51.7912 128.378 52.0314C129.158 52.0121 129.937 51.9705 130.689 51.9742C131.412 51.9785 132.155 51.7598 132.835 52.1213C132.915 51.9635 132.967 51.8287 133.046 51.6264C134.196 52.1765 135.466 52.1006 136.707 52.0475C137.775 51.9988 138.815 51.973 139.884 51.9688C140.318 51.9581 140.732 51.5027 141.131 52.0492C141.265 51.7788 141.317 51.644 141.369 51.5092C141.58 51.7265 141.792 51.9438 141.975 52.1618C142.115 52.0693 142.198 51.9782 142.339 51.8857C142.574 51.9689 142.809 52.0521 143.043 52.1353C143.242 52.0414 143.44 51.9474 143.696 51.8298C143.877 52.0256 144.058 52.1992 144.179 52.3297C144.493 52.2329 144.691 52.1167 144.893 52.1117C146.216 51.9454 147.557 52.2015 148.861 52.2582C149.296 52.2919 149.783 52.1686 150.283 52.3787C150.695 52.5465 151.325 52.3974 151.845 52.3845C152.48 52.3687 153.088 52.3759 153.723 52.338C155.422 52.1846 157.088 52.6106 158.818 52.4787C159.25 52.4457 159.692 52.6351 160.176 52.4451C160.432 52.3497 160.923 52.3375 161.131 52.4659C161.634 52.7427 162.116 52.5083 162.611 52.6072C162.658 52.339 162.707 52.1153 162.753 51.8471C163.082 52.106 163.351 52.3219 163.561 52.4947C163.736 52.5349 163.823 52.5327 163.91 52.5528C164.318 52.6095 164.744 52.4209 165.131 52.7006C165.459 52.9372 165.919 52.1692 166.317 52.7157C166.647 52.3069 167.015 52.8096 167.387 52.7114C167.789 52.6347 168.252 52.6455 168.687 52.6792C168.948 52.695 169.186 52.8449 169.447 52.8607C169.65 52.8779 169.836 52.4949 170.081 52.8227C170.112 52.8664 170.283 52.8177 170.342 52.8385C170.843 53.0486 171.331 52.2799 171.844 52.8012C172.39 52.7209 172.977 52.9289 173.484 52.6048C174.804 53.0394 176.251 52.3805 177.571 52.8373C177.806 52.9205 178.122 52.8682 178.411 52.861C180 52.8216 181.589 52.7823 183.178 52.7429C183.669 52.7307 184.13 52.697 184.622 52.7071C184.998 52.72 185.528 52.9294 185.754 52.8126C186.235 52.5558 186.676 52.723 187.135 52.6448C187.881 52.4928 188.561 52.8543 189.307 52.7245C189.451 52.6987 189.659 52.8271 189.914 52.7095C190.169 52.5919 190.543 52.5381 190.834 52.5754C192.519 52.7784 194.37 52.7771 195.979 52.5369C196.238 52.5082 196.533 52.6344 196.822 52.6273C197.776 52.6259 198.757 52.5793 199.711 52.5557C200.028 52.5478 200.371 52.4503 200.641 52.6884C200.732 52.7752 201.051 52.7895 201.164 52.7422C201.9 52.3457 202.716 52.5035 203.496 52.4841C205.373 52.4154 207.25 52.3688 209.129 52.3445C209.591 52.3331 210.076 52.1653 210.494 52.4887C210.554 52.5317 210.755 52.5045 210.87 52.4794C212.01 52.0951 213.174 52.2665 214.36 52.2816C214.418 52.2802 214.508 52.367 214.568 52.41C215.221 52.1268 215.808 51.6449 216.668 52.1354C216.846 52.2423 217.217 52.1441 217.506 52.1369C220.164 52.071 222.793 52.0059 225.45 51.94C225.999 51.9264 226.543 51.8017 227.047 52.0785C227.605 51.5973 228.144 52.0513 228.695 52.0821C229.274 52.09 229.852 52.0757 230.428 52.0392C230.774 52.0084 231.117 51.9108 231.604 51.8097C231.843 51.9819 232.201 52.24 232.499 52.4552C232.873 52.4236 233.311 52.5241 233.206 52.0816C233.573 51.8722 233.893 51.9088 234.193 52.1684C234.434 51.7174 234.856 52.1075 235.2 52.0544C235.459 52.0258 235.858 51.8823 236.007 51.9899C236.423 52.2467 236.849 52.0581 237.255 52.0925C237.604 52.1284 238.031 51.9843 238.304 52.2891C238.472 52.1514 238.64 52.0137 238.864 51.8301C239.239 51.8208 239.644 51.833 240.077 51.8C241.431 51.6775 242.756 51.5556 244.138 51.4101C244.159 51.2315 244.209 51.03 244.252 50.6729C244.499 51.0673 244.684 51.3298 244.87 51.6367C245.554 51.3973 246.178 51.0925 247.081 51.2482C247.752 51.3873 248.551 51.145 249.326 50.9922C249.151 50.9743 248.976 50.9341 248.802 50.9162C248.019 50.8688 247.245 51.0216 246.454 50.7741C245.985 50.63 245.329 50.8465 244.781 50.8823C244.779 50.8379 244.775 50.749 244.741 50.6163C245.087 50.5855 245.46 50.5317 245.808 50.5453C246.766 50.6329 247.683 50.4321 248.541 50.2106C249.342 50.0127 250.033 49.9288 250.82 50.0873C251.053 50.126 251.365 49.9848 251.653 49.9554C252.114 49.8995 252.602 49.8206 253.064 49.8092C253.526 49.7977 253.963 49.8759 254.457 49.9304C254.508 49.7511 254.533 49.6615 254.555 49.5052C255.207 49.1775 255.578 49.7691 256.213 49.7311C256.212 49.7089 256.264 49.5741 256.317 49.4615C256.403 49.4371 256.488 49.3905 256.575 49.3883C258.312 49.4343 259.979 49.1927 261.546 48.642C261.831 48.546 262.209 48.5811 262.526 48.5732C263.769 48.5424 265.011 48.5117 266.311 48.4794C266.33 48.2564 266.323 48.0786 266.344 47.9C267.054 47.5931 267.735 47.2647 268.672 46.8632C269.335 46.8022 270.264 46.8905 271.443 46.7277C271.033 46.6266 270.858 46.5864 270.624 46.5255C270.706 46.4122 270.76 46.3218 270.843 46.2308C270.55 46.1268 270.257 46.045 270.051 45.9611C269.736 46.0356 269.45 46.1095 268.993 46.2321C269.243 46.0034 269.327 45.9345 269.41 45.8434C268.905 45.5222 268.577 45.9754 268.058 46.0105C268.021 45.8111 267.984 45.6118 267.946 45.4124C269.299 45.2676 270.566 45.1249 271.89 44.9809C272.03 44.8661 272.197 44.7285 272.365 44.5908C273.658 44.3807 274.949 44.1484 276.213 43.9391C275.526 43.422 274.742 43.3302 273.829 43.6421C273.677 43.4678 273.497 43.2943 273.315 43.0985C273.485 43.0275 273.57 42.9809 273.656 42.9565C275.385 42.8246 277.145 42.7143 278.875 42.6046C279.394 42.5695 279.793 42.4261 280.151 41.9944C279.424 41.9012 278.845 41.871 278.274 42.0632C278.075 42.1349 277.818 42.208 277.615 42.1908C276.57 42.1054 275.552 41.9749 274.303 41.8278C275.317 41.1796 276.357 41.1538 277.365 41.062C277.185 40.2209 276.148 40.3133 275.556 39.9942C275.693 39.8128 275.773 39.655 275.937 39.4284C274.89 39.2763 273.972 39.4548 272.957 39.391C273.035 39.1665 273.201 39.0066 273.461 38.978C273.776 38.9256 274.068 38.9851 274.139 38.6051C274.162 38.471 274.674 38.258 274.936 38.296C275.605 38.3907 276.21 37.6414 276.87 38.2258C277.472 38.0996 278.074 37.9735 278.704 37.8243C278.991 37.7727 279.247 37.6773 279.532 37.559C279.096 37.5253 278.627 37.3589 278.266 37.7239C277.904 37.3546 277.392 37.5675 276.928 37.5345C276.464 37.5015 276.033 37.5567 275.562 37.3681C275.18 37.2218 274.608 37.3695 274.146 37.381C273.683 37.3924 273.192 37.4046 272.643 37.4182C273.643 37.8162 273.673 37.8377 274.976 37.8722C274.583 38.1712 274.143 38.0041 273.798 38.0572C273.366 38.1124 272.931 38.0787 272.44 38.0908C272.288 37.9166 272.107 37.7208 271.864 37.4598C271.107 37.3228 270.026 37.7501 269.297 36.9225C270.823 36.7512 272.233 36.605 273.672 36.4358C273.696 36.3239 273.722 36.2343 273.746 36.1224C274.638 36.0113 275.557 35.8772 276.449 35.7661C276.581 35.4513 276.713 35.1587 276.844 34.8439C278.38 34.9171 279.786 34.6597 281.192 34.4024C281.278 34.378 281.333 34.3098 281.5 34.1499C281.325 34.1098 281.151 34.0918 280.975 34.0517C281.031 34.0058 281.059 33.9828 281.115 33.9369C281.085 33.9154 281.026 33.8724 281.026 33.8724C280.884 33.9427 280.716 34.0803 280.572 34.0839C278.406 34.1598 276.239 34.1913 274.014 34.2464C273.935 33.7366 272.892 33.6957 273.094 32.9785C273.639 32.876 274.184 32.7735 274.758 32.6702C274.844 32.6459 274.988 32.6423 274.986 32.5978C275.33 31.8327 276.206 32.0335 276.926 31.9489C277.559 31.8887 278.189 31.7396 278.824 31.7016C279.429 31.6421 280.066 31.6708 280.817 31.6522C280.375 31.4406 280.106 31.247 279.643 31.2362C278.659 31.2161 277.658 31.4857 276.716 31.0862C275.984 31.5495 275.266 30.9886 274.491 31.1191C273.715 31.2496 272.844 31.1599 272.036 31.2022C270.854 31.276 269.723 31.215 268.526 30.9331C268.894 30.746 269.233 30.5596 269.488 30.4197C270.605 30.1695 271.75 30.5862 272.741 30.0721C273.315 30.6587 273.836 29.9782 274.386 30.009C274.937 30.0399 275.458 30.0492 275.997 29.7911C276.308 29.6276 276.835 29.7703 277.266 29.7151C277.669 29.6606 278.04 29.5624 278.441 29.4635C278.784 29.3659 279.126 29.2462 279.696 29.054C279.29 29.0196 279.145 29.0009 279.029 29.0038C277.755 28.9686 276.509 28.9105 275.235 28.8753C275.12 28.8782 274.973 28.815 274.856 28.7957C274.681 28.7555 274.506 28.7153 274.359 28.6522C274.092 28.5031 273.882 28.3302 273.644 28.1581C274.432 27.649 275.367 27.8706 276.226 27.6713C275.414 27.6246 274.678 27.3091 273.842 27.3743C273.323 27.4094 272.769 27.2897 272.217 27.2366C272.203 26.9031 272.193 26.6586 272.179 26.3251C272.526 26.3165 272.903 26.3517 273.247 26.2764C273.592 26.2233 273.842 25.9724 274.278 26.0283C274.655 26.0635 275.058 26.009 275.433 25.9997C275.809 25.9904 276.213 25.9803 276.704 25.9682C276.839 25.7423 276.974 25.4942 277.135 25.2009C276.901 25.1399 276.784 25.0983 276.667 25.0789C276.374 24.9972 276.082 24.9154 275.76 24.8344C275.927 24.6745 276.011 24.6056 276.094 24.5145C276.005 24.45 275.945 24.407 275.885 24.3639C276.065 23.8254 276.68 24.0104 277.112 23.9552C277.679 23.6964 277.466 22.7448 278.629 22.894C278.512 22.8746 278.366 22.8337 278.249 22.8144C278.104 22.7957 277.932 22.8222 277.871 22.757C277.692 22.6279 277.582 22.7641 277.466 22.7448C276.511 22.7239 275.582 22.6357 274.625 22.5704C274.508 22.551 274.388 22.4427 274.24 22.3574C275.097 22.1136 275.898 21.8935 276.813 21.6483C276.915 21.3342 276.803 20.7361 277.757 20.7125C276.942 20.5991 276.192 20.64 275.441 20.6586C274.69 20.6772 273.91 20.6965 273.188 20.7144C272.979 20.5638 272.829 20.434 272.589 20.2174C272.902 20.0984 273.102 20.0489 273.273 19.978C273.272 19.9557 273.271 19.9335 273.269 19.889C272.664 19.9485 272.49 19.2407 271.802 19.3913C271.573 19.4415 271.247 19.2493 271.013 19.1883C271.074 18.5859 272.016 18.9632 272.11 18.449C272.109 18.4268 273.364 18.0174 273.422 18.0159C273.942 18.003 274.462 17.9902 274.946 17.8224C273.008 17.8037 271.04 17.7634 269.334 17.7612C268.719 17.5762 268.558 17.1796 268.012 17.2599C267.466 17.3402 267.021 17.0841 266.663 16.826C266.216 16.5033 265.573 16.3412 265.348 15.8126C265.58 15.8069 265.811 15.8012 266.1 15.794C266.131 15.86 266.195 15.9919 266.259 16.1461C266.397 15.9869 266.534 15.8055 266.643 15.647C266.703 15.7123 266.792 15.7546 266.852 15.8199C267.657 15.6887 268.461 15.5575 269.294 15.4255C269.319 15.3359 269.314 15.2248 269.337 15.0684C268.263 14.9838 267.219 14.8984 266.145 14.8137C266.139 14.6581 266.131 14.4803 266.126 14.3469C266.351 14.2078 266.549 14.0916 266.746 13.9754C266.597 13.8679 266.536 13.7804 266.478 13.7818C266.246 13.7653 265.925 13.7065 265.756 13.7997C265.36 14.0098 265.046 14.1066 264.686 13.804C263.418 13.9022 262.22 13.6203 261.027 13.4273C260.24 13.291 259.46 13.3104 258.678 13.2852C258.559 13.1992 258.47 13.1346 258.261 12.984C258.25 12.7173 258.235 12.3616 258.213 11.828C257.903 12.036 257.762 12.1063 257.65 12.1981C257.538 12.2898 257.455 12.3809 257.205 12.6319C257.098 12.145 257.028 11.8574 256.958 11.5698C256.814 11.5734 256.726 11.5533 256.495 11.5591C256.59 11.757 256.712 11.9097 256.748 12.0646C256.784 12.2418 256.763 12.4203 256.767 12.5315C257.121 12.7007 257.386 12.8054 257.74 12.9747C257.54 13.0242 257.427 13.0937 257.282 13.0973C256.707 13.1561 256.517 12.7825 256.161 12.5687C256.273 12.4769 256.329 12.4311 256.441 12.3393C256.236 12.2776 256.06 12.2152 255.884 12.1528C255.994 12.0166 256.074 11.8588 256.211 11.6774C255.801 11.554 255.474 12.0294 255.082 11.6386C254.901 11.4651 254.216 11.6823 253.892 11.5346C253.567 11.3868 253.264 11.7504 253.049 11.4442C252.746 11.8077 252.274 11.5747 251.903 11.6951C251.809 11.5194 251.746 11.3875 251.683 11.2778C251.129 11.158 250.42 11.5093 250.078 10.917C250.968 10.7836 251.889 10.6718 252.837 10.5148C252.904 10.7357 252.942 10.9572 253.045 11.3553C253.235 11.039 253.343 10.8583 253.452 10.6998C254.16 11.0383 254.709 11.0247 255.277 10.7881C255.505 10.6935 255.823 10.7078 256.082 10.6791C256.158 10.4102 256.233 10.1413 256.311 9.91685C255.61 9.75619 254.936 9.55035 254.239 9.47861C253.542 9.40687 252.821 9.447 252.127 9.44195C251.721 9.42974 251.344 9.39459 250.822 9.36301C250.795 9.40819 250.656 9.54516 250.519 9.72658C250.896 9.73951 251.271 9.7302 251.618 9.72161C251.808 10.1175 251.645 10.3663 251.221 10.5993C251.008 10.3376 250.765 10.0765 250.491 9.74953C250.25 9.51072 250.01 9.29414 249.71 9.03453C249.368 9.1765 249.055 9.29554 248.714 9.43751C248.851 9.94595 249.135 9.80541 249.525 9.46193C249.564 9.70575 249.601 9.90511 249.672 10.2149C249.322 10.1346 249.117 10.0729 248.883 10.0119C248.712 10.0829 248.542 10.1539 248.258 10.2722C248.241 9.87207 248.227 9.5386 248.214 9.22738C247.775 9.10473 247.33 8.82647 247.073 8.92184C246.56 9.09034 246.155 9.07813 245.714 8.91102C245.387 9.38645 245.023 8.99489 244.645 8.93751C244.063 8.86291 243.482 8.7883 242.873 8.75888C242.265 8.72945 241.631 8.78966 240.996 8.80541C240.932 8.67346 240.869 8.54151 240.775 8.36581C240.662 8.43537 240.577 8.48198 240.494 8.55082C239.703 8.32561 240.142 7.75839 239.89 7.25282C239.576 7.34962 239.29 7.42346 238.976 7.52026C238.62 6.61668 238.62 6.61668 237.642 6.75218C237.702 6.79521 237.762 6.86046 237.941 6.98955C237.711 7.01751 237.452 7.04619 237.222 7.07415C237.311 7.13869 237.43 7.20252 237.519 7.26706C237.153 7.49868 236.63 7.44487 236.079 7.41401ZM106 50.7612C105.866 51.0093 105.814 51.1442 105.704 51.2804C105.485 51.5751 105.235 51.8261 104.837 51.9917C104.78 52.0154 104.691 51.9509 104.574 51.9315C104.568 51.7759 104.561 51.598 104.555 51.4647C104.096 51.5428 103.693 51.5973 103.205 51.6761C103.183 51.1648 103.166 50.7425 103.141 50.1645C103.327 50.4492 103.419 50.5804 103.511 50.7116C103.794 50.5489 104.076 50.3861 104.357 50.2011C104.511 50.4198 104.603 50.5511 104.697 50.7045C105.2 50.2915 105.611 50.4371 105.716 50.8795C106.467 50.8609 106.929 50.8495 107.334 50.8394C107.267 50.6186 107.23 50.4414 107.164 50.2428C107.222 50.2414 107.25 50.2184 107.308 50.217C107.58 50.4995 107.823 50.7828 108.095 51.0654C108.979 50.7542 109.065 50.752 109.887 51.0432C110.112 50.8819 110.335 50.6983 110.644 50.4681C110.839 50.9974 111.715 50.5083 111.801 51.1738C111.398 51.2061 110.995 51.2605 110.707 51.2899C110.628 51.4699 110.575 51.5825 110.522 51.6951C110.409 51.7646 110.295 51.812 110.154 51.8822C110.086 51.6614 109.991 51.4634 109.924 51.2426C109.757 51.3802 109.673 51.4491 109.561 51.5409C109.38 51.3673 109.229 51.2153 109.079 51.0855C108.228 51.4849 107.351 51.2618 106.516 51.327C106.43 51.3514 106.218 51.1341 106 50.7612ZM198.444 52.0085C198.18 51.9038 197.944 51.7983 197.62 51.6728C198.158 51.3925 198.372 51.6542 197.945 51.8206C197.691 51.9826 197.495 52.121 197.383 52.2128C196.888 52.1361 196.389 51.9482 196.219 52.0414C195.798 52.3411 195.33 52.2192 194.87 52.2751C194.639 52.3031 194.289 52.2227 194.177 52.3145C193.673 52.7053 193.145 52.5181 192.653 52.5081C192.28 51.8942 193.262 51.8699 193.243 51.403C193.84 51.8555 194.207 51.6462 194.621 51.1686C194.27 51.0882 193.979 51.0287 193.686 50.9469C193.306 50.8451 192.983 50.7196 193.165 50.2477C193.748 50.3446 194.301 50.4421 194.709 50.521C194.894 50.7835 195.017 50.9585 195.141 51.1557C195.059 51.269 194.977 51.3823 194.867 51.5185C195.826 51.6283 196.784 51.7158 198.444 52.0085ZM199.251 11.1752C199.503 10.9687 199.782 10.7392 200.033 10.5105C200.653 10.8067 201.23 10.7924 201.71 10.5134C202.469 10.6727 203.141 10.834 203.929 11.0148C203.76 11.1302 203.59 11.2012 203.479 11.3152C203.311 11.4529 203.203 11.6336 203.121 11.7469C201.783 11.5575 200.503 11.3667 198.55 10.3025C198.797 10.6746 198.984 11.0038 199.137 11.2003C199.001 11.404 198.92 11.5617 198.839 11.6973C198.254 11.5337 197.814 11.3889 197.346 11.2669C196.937 11.1658 196.661 11.462 196.315 11.4928C195.998 11.5229 195.645 11.3759 195.296 11.34C195.21 11.3421 195.128 11.4554 194.987 11.5479C194.919 11.3048 194.881 11.0832 194.813 10.8401C194.294 11.5651 194.238 11.611 193.628 11.5594C192.989 11.4862 192.376 11.3456 191.735 11.228C191.715 11.451 191.723 11.6288 191.727 11.74C191.548 11.6109 191.34 11.4603 191.22 11.3742C190.326 11.4187 189.603 11.4143 188.943 11.542C188.685 11.5929 188.546 11.7298 188.221 11.5599C187.688 11.2615 186.899 11.7706 186.359 11.2944C186.031 11.7476 185.231 11.3001 184.931 11.7304C184.809 11.5776 184.713 11.3575 184.568 11.3388C184.043 11.2406 183.918 10.9989 183.903 10.6432C183.896 10.4876 183.686 10.3148 183.681 10.1814C183.704 10.0473 183.901 9.90888 183.956 9.84076C184.365 9.94189 184.714 9.99999 185.007 10.0817C185.04 10.1922 185.074 10.3026 185.108 10.4353C185.396 10.4059 185.655 10.3772 185.858 10.3722C185.908 10.1929 185.932 10.0811 185.93 10.0366C186.31 10.1162 186.63 10.175 186.98 10.2331C187.046 10.4318 187.083 10.6311 187.15 10.852C187.431 10.6448 187.654 10.4612 187.822 10.3235C188.173 10.4261 188.408 10.5093 188.643 10.5925C188.75 10.3895 188.803 10.277 188.856 10.1644C189.126 10.3802 189.424 10.5954 189.692 10.789C190.46 10.4807 191.122 10.3975 191.304 10.6155C191.453 10.7231 191.631 10.83 191.84 10.9806C191.946 10.7554 191.999 10.6206 192.078 10.4406C193.531 10.6049 195.042 10.1001 196.537 10.5749C196.683 10.6158 196.971 10.5864 197.084 10.5168C197.534 10.2164 198.064 10.448 199.251 11.1752ZM29.8099 48.8664C29.1194 48.9502 28.5398 48.9201 28.0841 49.0872C27.5995 49.255 27.1607 49.1323 26.7255 49.0986C26.1748 49.0677 25.6501 48.9695 25.1274 48.9157C25.0192 49.0964 24.9382 49.2319 24.831 49.4348C24.6251 49.3509 24.4201 49.2892 24.0967 49.1637C23.9877 49.3222 23.8516 49.5259 23.7696 49.6392C23.2459 49.5631 22.8955 49.4828 22.547 49.4469C22.1407 49.4125 21.5863 49.2927 21.576 49.0482C21.5602 48.6703 20.5296 48.9183 21.0002 48.4171C21.5491 48.4035 22.0979 48.3899 22.6179 48.377C22.6533 48.5319 22.6868 48.6423 22.753 48.841C22.8872 48.5929 22.9683 48.4573 23.0764 48.2766C23.7753 48.3928 24.503 48.5083 25.2019 48.6245C25.3138 48.5327 25.4256 48.4409 25.5095 48.3721C25.4191 48.2853 25.3287 48.1985 25.1162 47.959C25.584 48.0809 25.789 48.1426 26.0229 48.2036C26.0751 48.0688 26.1273 47.934 26.1795 47.7991C26.3249 47.8178 26.4693 47.8142 26.7023 47.853C26.6277 48.1441 26.5513 48.3908 26.4795 48.7486C27.2632 48.8182 28.0748 48.8649 28.9163 48.933C29.1362 48.6605 29.2714 48.4346 29.4643 48.2073C30.0066 48.0381 30.2806 48.3651 30.6384 48.6233C31.3289 47.8496 32.5058 48.3322 33.3567 47.9328C33.3622 48.0662 33.365 48.1329 33.3687 48.2218C33.7489 48.3237 34.131 47.7801 34.5867 48.3029C34.3891 48.4191 34.1925 48.5575 33.8551 48.7884C34.459 48.7066 34.8671 48.7855 35.3191 48.5295C35.7701 48.2513 36.3423 48.1036 36.8548 47.9129C37.0263 47.8641 37.2537 47.7695 37.3711 47.8111C38.0206 48.1288 38.7353 47.933 39.3737 47.984C39.4678 48.1597 39.5311 48.2916 39.6578 48.5555C39.8778 48.283 40.0148 48.1016 40.0977 48.0105C40.6466 47.9969 41.051 47.9869 41.5132 47.9755C41.4908 48.1318 41.4666 48.2437 41.4442 48.4C41.1525 48.3405 40.9475 48.2788 40.7136 48.2178C40.6615 48.3526 40.6093 48.4875 40.5561 48.6C39.6345 48.6896 38.7055 48.6014 37.6991 48.7376C37.878 48.8667 37.9674 48.9312 38.1165 49.0388C37.8015 49.1134 37.4912 49.2991 37.2582 49.2604C36.2658 49.0402 35.2622 49.2431 34.2791 49.2452C33.7582 49.2358 33.1525 49.2731 32.5682 49.1318C32.4517 49.1124 32.3045 49.0493 32.189 49.0522C31.9308 49.1031 31.7053 49.2422 31.4463 49.2709C31.245 49.2981 31.0074 49.1482 30.8051 49.1533C30.574 49.159 30.3476 49.2759 30.1193 49.3483C29.9348 49.0858 29.8714 48.9539 29.8099 48.8664ZM49.0844 9.15543C49.8933 9.13539 50.7962 9.29104 51.4802 9.05155C52.9619 8.52525 54.6085 9.17431 55.9988 8.539C56.7098 8.9442 57.3938 8.70471 58.0787 8.48745C58.1934 8.46235 58.3965 8.47958 58.485 8.52189C59.0208 8.88692 59.7263 8.46887 60.2574 8.72275C60.8473 8.99743 61.4753 8.80383 62.054 8.81175C62.2562 8.80674 62.4529 8.66834 62.6225 8.57512C62.916 8.67912 63.2095 8.7831 63.4444 8.8663C63.4555 9.13307 63.4658 9.37761 63.4797 9.71107C63.1536 9.51887 62.9448 9.36826 62.6774 9.19686C61.9459 9.68232 61.1575 9.50157 60.372 9.38752C60.3478 9.49939 60.3226 9.58903 60.2984 9.7009C59.7653 9.40256 59.1009 9.41902 58.703 9.58466C58.0787 9.86718 57.5755 9.59035 57.0257 9.58172C56.5625 9.57094 56.1796 9.40241 55.667 9.59314C55.2402 9.7595 54.628 9.64114 54.108 9.65403C53.6169 9.6662 53.1016 9.79025 52.6627 9.6676C52.1362 9.52487 51.7923 10.29 51.2789 9.76865C50.9173 10.1114 50.6173 9.85181 50.238 9.7722C49.7721 9.69473 49.2838 9.77359 48.7927 9.78576C48.5905 9.79077 48.3864 9.75133 48.009 9.71617C48.3138 9.39707 48.5365 9.19127 48.8412 8.87216C48.0939 8.9797 47.627 8.88001 47.5432 8.25898C48.5626 8.434 49.4032 7.79006 50.1627 7.97152C50.5503 8.25121 50.7599 8.42404 50.9687 8.57465C50.6835 8.67073 50.2893 8.92528 50.1421 8.86217C49.6408 8.62981 49.4255 9.01346 49.0844 9.15543ZM53.6998 51.7236C52.8909 51.7437 52.1687 51.7616 51.4465 51.7795C51.441 51.6461 51.4363 51.5349 51.4289 51.3571C52.0103 51.4317 52.562 51.4848 53.1146 51.5601C53.1127 51.5156 53.1407 51.4927 53.1388 51.4482C52.9338 51.3865 52.7577 51.3241 52.6114 51.2833C52.603 51.0832 52.5956 50.9053 52.5881 50.7275C52.9655 50.7626 53.4063 50.9298 53.6039 50.8136C54.0558 50.5576 54.3092 51.0854 54.7351 50.8968C54.9625 50.8022 55.3734 50.9478 55.6931 50.9843C55.7173 50.8725 55.7425 50.7828 55.7676 50.6932C56.1562 50.9951 56.5448 51.297 56.9622 51.5982C57.4477 51.4527 57.7608 51.3337 58.1047 51.2584C58.5054 51.1594 58.9769 51.3703 59.3105 51.0505C59.3664 51.0046 59.6292 51.0648 59.7755 51.1057C60.3029 51.2707 60.8872 51.412 61.3587 51.6228C61.9178 51.8537 62.4303 51.663 62.9522 51.6946C62.9764 51.5827 63.0016 51.4931 63.0501 51.2693C63.2047 51.5103 63.297 51.6415 63.42 51.8165C63.7368 51.7864 64.0825 51.7556 64.6873 51.6961C64.2493 51.5957 64.0742 51.5555 63.8403 51.4945C63.8617 51.316 63.8533 51.1159 63.8971 50.781C64.3081 50.9266 64.6035 51.0751 64.8933 51.0901C65.1831 51.1052 65.4655 50.9424 65.8643 50.799C65.8503 51.1554 65.8335 51.4451 65.826 51.9572C65.6369 51.5835 65.5735 51.4516 65.4803 51.2981C65.3787 51.6344 64.5298 51.3884 64.7842 51.9385C65.634 52.2067 66.3115 51.8116 67.1446 51.6797C66.8949 51.9307 66.6451 52.1817 66.3953 52.4326C65.9005 52.3559 65.333 52.6147 64.8839 52.2476C64.8531 52.2038 64.6248 52.2762 64.5111 52.3236C63.9464 52.6491 63.5075 52.5265 63.0025 52.2052C62.735 52.0338 62.2337 51.8014 62.1153 52.4274C62.092 52.5615 61.6326 52.6397 61.3484 52.758C61.1648 52.5178 60.9831 52.322 60.8611 52.1692C60.6011 52.1757 60.37 52.1814 60.1678 52.1864C60.1165 52.3435 60.0932 52.4776 60.041 52.6124C59.8323 52.4618 59.6832 52.3542 59.5639 52.2681C59.6469 52.1771 59.7307 52.1082 60.0103 51.8788C59.467 52.0258 59.152 52.1003 58.8669 52.1964C58.6582 52.0458 58.4504 51.9174 58.2416 51.7668C57.9667 52.1074 57.5567 51.9841 57.1821 52.0156C56.4599 52.0335 55.7368 52.0292 55.0435 52.0464C55.0146 52.0471 54.9839 52.0033 54.9242 51.9603C54.9494 51.8707 54.9736 51.7588 54.9699 51.6699C55.2569 51.6183 55.516 51.5896 55.7741 51.5387C55.106 51.4662 54.5068 50.9692 53.7678 51.2768C53.7417 51.3443 53.7203 51.5228 53.6998 51.7236ZM8.31733 39.0288C8.03776 39.2583 8.01073 39.3035 7.98185 39.3042C7.77777 39.2647 7.51685 39.2489 7.39665 39.1406C7.03604 38.8158 6.3968 38.7426 6.11164 38.8387C5.56929 39.0079 5.13039 38.8853 4.61321 38.9648C4.59367 38.498 4.37099 38.0139 4.59372 37.8081C5.01029 37.3972 4.10081 37.086 4.66461 36.7382C5.54147 36.9613 6.47611 37.1829 7.43964 37.4038C7.45731 37.8262 7.47406 38.2263 7.49639 38.7599C7.70139 38.8215 7.9651 38.904 8.31733 39.0288ZM10.3879 39.4448C9.74027 39.1716 9.23988 38.9614 8.7693 38.7728C8.61463 38.5319 8.54662 38.2888 8.36585 38.1152C8.18602 37.9639 7.92138 37.8592 7.65581 37.7322C7.82541 37.639 7.88039 37.5709 7.96613 37.5465C8.05186 37.5221 8.16741 37.5193 8.255 37.5394C8.51685 37.5774 8.78242 37.7043 9.01352 37.6986C9.3024 37.6914 9.78419 37.457 9.84475 37.5222C10.1187 37.8492 10.5064 37.4391 10.8633 37.675C11.1326 37.8909 11.6805 37.855 12.1762 37.954C12.0355 38.0465 11.9507 38.0931 11.865 38.1175C11.7513 38.1648 11.6367 38.1899 11.4652 38.2387C12.1687 38.466 12.2312 38.5758 12.0355 38.7364C11.686 38.6783 11.3944 38.6187 11.1605 38.5578C10.8855 38.8984 10.6078 39.1723 10.3879 39.4448ZM72.9445 52.07C71.4684 52.7297 69.9979 52.1431 68.4697 52.2477C68.5191 52.0462 68.5442 51.9566 68.5974 51.844C69.1462 51.8304 69.6932 51.7723 70.1862 51.8046C70.7369 51.8355 71.3324 51.5537 71.8123 51.9646C72.2586 51.5752 72.6724 51.7875 73.1411 51.9317C73.3461 51.9933 73.6937 52.007 73.8344 51.9145C74.3395 51.5459 75.1027 51.8163 75.6022 51.3143C75.6748 51.6686 75.741 51.8672 75.7782 52.0666C75.9823 52.106 76.1575 52.1462 76.041 52.1268C75.9338 52.3298 75.7726 52.6231 75.5573 53.0067C75.1361 52.6166 74.865 52.3563 74.5948 52.1182C74.4531 52.1884 74.3963 52.2121 74.3115 52.2587C74.4019 52.3455 74.4913 52.41 74.6106 52.4961C74.3841 52.613 74.1875 52.7514 73.9051 52.9141C73.5464 52.6337 73.2752 52.3734 72.9445 52.07ZM48.0884 48.2353C47.423 48.2296 46.8844 48.4877 46.2377 48.2367C45.7093 48.0495 44.9899 48.1341 44.3656 48.4166C44.1391 48.5335 43.8381 48.9415 43.4169 48.5514C43.3266 48.4646 42.9846 48.5844 42.6929 48.5248C42.3425 48.4445 41.967 48.4538 41.7201 48.0816C43.6845 47.3431 45.7131 48.1384 47.6411 47.9126C47.7902 48.0202 47.9393 48.1278 48.0884 48.2353ZM216.506 51.7389C216.242 51.6341 216.064 51.5273 215.919 51.5309C215.602 51.5387 215.31 51.4792 215.001 51.6872C214.86 51.7797 214.468 51.411 214.106 51.7316C213.911 51.9144 212.946 51.6491 212.794 51.4748C212.934 51.3601 213.046 51.2683 213.046 51.2683C213.7 51.0073 214.258 51.216 214.828 51.0238C215.256 50.8797 215.901 51.0863 216.482 51.1609C216.489 51.3165 216.496 51.4943 216.506 51.7389ZM185.623 51.0578C184.738 50.6346 183.848 50.7902 182.807 50.7938C183.203 50.5837 183.426 50.4001 183.685 50.3492C183.971 50.2753 184.319 50.3112 184.608 50.304C184.657 50.1025 184.683 50.0129 184.705 49.8566C184.995 49.8716 185.255 49.8652 185.631 49.8781C185.468 50.1269 185.358 50.2632 185.304 50.3535C185.43 50.5952 185.527 50.8376 185.623 51.0578ZM29.4093 47.5856C30.509 46.913 31.479 47.2895 32.4705 47.4875C31.1258 47.8323 31.1258 47.8323 29.4093 47.5856ZM102.353 50.6736C102.04 50.7926 101.868 50.8414 101.726 50.8894C101.728 50.9339 101.758 50.9776 101.76 51.0221C102.107 51.0135 102.483 51.0042 102.887 50.9942C102.869 51.2616 102.849 51.4624 102.805 51.7973C102.361 51.5635 102.095 51.4144 101.681 51.2021C101.363 51.2099 100.959 51.22 100.468 51.2321C100.975 50.908 101.397 50.6305 101.679 50.4677C101.971 50.5273 102.147 50.5897 102.353 50.6736ZM181.92 11.627C182.632 11.3646 182.271 11.0397 182.376 10.7923C182.535 10.4323 182.551 10.1204 183.183 10.0379C183.224 10.3262 182.715 10.6059 183.275 10.859C183.423 10.9221 183.324 11.3252 183.335 11.5919C182.931 11.6019 182.613 11.6098 181.92 11.627ZM197.333 49.6326C196.757 50.3813 195.976 49.6885 195.408 49.9474C195.398 49.7028 195.392 49.5472 195.382 49.3249C196.081 49.4411 196.789 49.0897 197.333 49.6326ZM203.862 10.104C203.693 10.1972 203.495 10.3134 203.297 10.4296C202.947 10.3492 202.538 10.2481 202.13 10.1692C202.122 9.99137 202.115 9.81353 202.107 9.61346C202.64 9.9118 203.446 9.13519 203.862 10.104ZM143.48 49.4318C145.291 49.1866 145.291 49.1866 145.744 49.6427C145.198 49.723 144.624 49.8262 143.963 49.9316C143.843 49.8233 143.691 49.6491 143.48 49.4318ZM207.298 9.97437C206.81 10.7431 206.695 10.7682 205.803 10.1894C205.938 9.96356 206.101 9.71473 206.236 9.46661C206.591 9.6581 206.945 9.82735 207.298 9.97437ZM68.7578 9.37998C68.4064 9.96728 68.125 10.1523 67.5696 10.0103C67.2192 9.92994 66.8661 9.78292 67.0823 9.4215C67.6311 9.4079 68.18 9.3943 68.7578 9.37998ZM206.048 11.8969C205.811 11.7693 205.547 11.6645 205.28 11.5154C205.161 11.4293 205.069 11.2981 204.887 11.1023C205.494 11.0873 205.898 11.0772 206.36 11.0658C206.482 11.2185 206.634 11.3928 206.786 11.5671C206.531 11.6847 206.276 11.8023 206.048 11.8969ZM105.153 9.10107C104.545 9.07164 103.92 9.35416 103.406 8.81056C103.546 8.69583 103.658 8.60404 103.825 8.46636C104.231 8.47857 104.665 8.49007 105.127 8.47861C105.137 8.70092 105.142 8.8343 105.153 9.10107ZM71.4387 49.9488C71.791 50.0735 72.1134 50.1768 72.583 50.3432C72.1227 50.3991 71.8645 50.45 71.6055 50.4787C71.844 50.6508 72.0518 50.7792 72.2904 50.9513C71.9493 51.0933 71.693 51.1887 71.4656 51.2833C70.5795 50.8379 71.2849 50.4199 71.4387 49.9488ZM49.9566 50.726C50.743 50.8622 51.565 50.4636 52.344 51.1119C51.4773 51.1333 50.7263 51.1519 49.9752 51.1706C49.9687 51.0149 49.9649 50.926 49.9566 50.726ZM4.19781 35.9486C4.39537 35.8325 4.59014 35.6496 4.82031 35.6217C5.19399 35.5679 5.56953 35.5586 5.94693 35.5937C6.06341 35.6131 6.1864 35.7881 6.27771 35.8971C5.84998 36.0412 5.54059 36.2492 5.2219 36.2348C4.90506 36.2649 4.57893 36.0727 4.19781 35.9486ZM209.439 52.1588C209.229 51.9637 209.078 51.8117 208.956 51.6812C209.151 51.4983 209.319 51.3606 209.375 51.3148C209.924 51.3011 210.328 51.2911 210.819 51.2789C210.311 51.5808 209.889 51.8583 209.439 52.1588ZM254.065 10.1505C253.843 10.3786 253.649 10.5837 253.455 10.7665C253.243 10.5492 252.967 10.1777 252.881 10.1799C252.51 10.3004 252.277 10.2616 251.998 9.82345C252.759 10.0494 253.492 9.58615 254.065 10.1505ZM122.21 51.8282C121.973 51.7006 121.825 51.6152 121.708 51.5736C121.843 51.3478 121.951 51.167 122.087 50.9634C122.26 50.9591 122.463 50.9763 122.636 50.9498C122.779 50.924 122.861 50.8107 123.03 50.6952C123.215 50.9577 123.309 51.1334 123.462 51.3521C122.972 51.3865 122.598 51.4181 122.281 51.4482C122.258 51.6045 122.234 51.7164 122.21 51.8282ZM70.4696 50.2843C70.5944 50.5038 70.6885 50.6795 70.8143 50.9211C69.8499 50.678 69.8499 50.678 69.985 49.7622C70.3373 49.887 70.6597 49.9903 71.1293 50.1567C70.8134 50.209 70.6988 50.2341 70.4696 50.2843ZM71.3241 9.89497C70.6597 9.91143 70.0241 9.92719 69.3308 9.94437C69.7372 9.28894 70.4724 9.58227 71.0473 9.50126C71.1051 9.49983 71.2225 9.54143 71.311 9.58374C71.3148 9.67266 71.3185 9.76158 71.3241 9.89497ZM192.443 50.9555C192.01 50.9662 191.548 50.9777 191.057 50.9899C191.075 50.7446 191.067 50.5445 191.086 50.3215C191.642 50.4635 192.08 50.5639 192.518 50.6644C192.465 50.7992 192.468 50.8659 192.443 50.9555ZM45.6029 51.0341C45.5973 50.9007 45.5638 50.7903 45.5917 50.7674C46.3261 50.3486 46.9308 50.979 47.625 50.984C46.9895 50.9998 46.354 51.0155 45.6029 51.0341ZM204.337 9.71394C204.84 9.96853 205.503 9.92984 205.556 10.5071C204.579 10.6426 204.548 10.5989 204.337 9.71394ZM8.12853 33.8261C7.41192 33.9774 7.15942 33.4718 6.62828 33.218C7.53966 32.8838 7.76606 33.4568 8.12853 33.8261ZM115.192 9.89819C114.685 9.53244 114.357 9.29578 113.999 9.01538C115.09 8.83255 115.209 8.91861 115.192 9.89819ZM115.962 51.7828C115.057 51.5827 115.057 51.5827 115.107 50.7135C115.223 50.7107 115.367 50.7071 115.483 50.7042C115.612 51.0348 115.77 51.3425 115.962 51.7828ZM28.8592 52.406C28.1612 52.312 27.5211 52.2166 26.8809 52.1212C26.879 52.0768 26.8781 52.0545 26.9051 52.0094C27.5407 51.9936 28.1762 51.9779 28.8406 51.9614C28.8471 52.117 28.8508 52.2059 28.8592 52.406ZM189.346 50.1866C189.343 50.1199 189.341 50.0755 189.338 50.0088C189.772 49.998 190.234 49.9866 190.667 49.9758C190.683 50.3538 190.698 50.7095 190.713 51.0651C190.509 51.0479 190.364 51.0293 190.305 51.0085C190.381 50.7396 190.428 50.4936 190.529 50.135C190.039 50.1694 189.692 50.178 189.346 50.1866ZM112.664 51.0634C113.151 50.9623 113.582 50.8849 114.069 50.7838C114.159 50.8483 114.279 50.9566 114.398 51.0427C114.143 51.1603 113.915 51.2549 113.659 51.3503C113.6 51.3073 113.481 51.2434 113.392 51.1789C113.308 51.2477 113.195 51.3173 113.111 51.3861C112.991 51.2778 112.843 51.1925 112.664 51.0634ZM181.837 52.4868C182.178 52.3449 182.491 52.2258 182.775 52.1075C183.071 52.2782 183.48 52.3793 183.208 52.7866C182.77 52.6862 182.303 52.5865 181.837 52.4868ZM237.559 8.91284C237.695 8.70918 237.806 8.59517 237.859 8.48258C237.91 8.32554 237.933 8.16921 237.981 7.94547C238.658 8.218 238.355 8.58157 238.484 8.91216C238.137 8.89853 237.906 8.90425 237.559 8.91284ZM198.875 49.8614C198.636 50.3792 198.368 50.1856 198.099 49.9697C197.987 50.0615 197.903 50.1303 197.65 50.3146C197.691 49.913 197.683 49.713 197.73 49.4448C198.17 49.6119 198.494 49.7374 198.875 49.8614ZM27.4524 47.8121C27.5447 47.9433 27.7264 48.1391 27.8503 48.3363C27.882 48.4023 27.7999 48.5156 27.7226 48.7401C27.3955 48.5256 27.1579 48.3758 26.801 48.1398C27.0843 47.9993 27.2828 47.9053 27.4524 47.8121ZM51.3523 52.9835C51.3831 53.0272 51.4129 53.0487 51.4725 53.0918C50.6926 53.1111 49.9415 53.1297 49.1615 53.1491C49.1597 53.1046 49.1587 53.0824 49.1569 53.0379C49.8791 53.02 50.6301 53.0014 51.3523 52.9835ZM190.269 52.2111C190.645 52.2018 190.991 52.1932 191.367 52.1839C191.372 52.3173 191.376 52.4062 191.383 52.5618C191.007 52.5711 190.66 52.5797 190.285 52.589C190.278 52.4334 190.275 52.3445 190.269 52.2111ZM213.963 50.3999C213.704 50.4286 213.56 50.4321 213.446 50.4795C213.333 50.5268 213.25 50.6179 213.194 50.6638C212.929 50.5591 212.694 50.4759 212.43 50.3711C212.742 50.2299 213.055 50.1109 213.368 49.9918C213.547 50.1209 213.666 50.207 213.963 50.3999ZM66.649 9.43224C66.6797 9.47599 66.6816 9.52044 66.7123 9.56419C66.3722 9.72839 66.0032 9.89332 65.6062 10.0812C65.595 9.81442 65.5885 9.6588 65.5792 9.4365C65.9557 9.44942 66.3023 9.44083 66.649 9.43224ZM146.892 51.5058C146.764 51.9095 146.602 52.1806 146.022 52.1282C146.012 51.9059 146.004 51.7059 145.994 51.4613C146.341 51.475 146.602 51.4907 146.892 51.5058ZM149.2 52.0717C149.358 51.6895 149.491 51.4192 149.594 51.1273C149.771 51.1897 149.887 51.2091 150.092 51.2707C149.844 51.5662 149.95 52.0309 149.2 52.0717ZM179.504 52.0328C178.893 51.9367 178.54 51.7897 178.722 51.2956C179.216 51.3723 179.569 51.4971 179.504 52.0328ZM147.293 52.0967C148.081 51.5876 148.339 51.5367 148.609 51.7748C148.584 51.8644 148.559 51.9541 148.535 52.066C148.159 52.0753 147.842 52.0831 147.293 52.0967ZM184.2 52.2947C184.605 52.3069 184.953 52.3206 185.416 52.3314C185.192 52.5149 185.052 52.6297 184.913 52.7444C184.822 52.6576 184.733 52.5931 184.642 52.5063C184.531 52.5981 184.447 52.6669 184.222 52.8283C184.212 52.5837 184.207 52.4726 184.2 52.2947ZM186.342 52.3529C186.831 51.6064 186.831 51.6064 187.557 51.6774C187.246 51.8409 186.907 52.0274 186.342 52.3529ZM49.5838 50.8019C49.0405 50.9489 48.4973 51.0959 47.9372 50.8428C48.515 50.8284 49.035 50.8156 49.5838 50.8019ZM44.8489 53.0556C44.8461 52.989 44.8442 52.9445 44.8703 52.8771C45.1014 52.8714 45.3335 52.8879 45.5348 52.8606C45.7649 52.8327 45.9923 52.738 46.2504 52.6871C46.256 52.8205 46.2309 52.9101 46.2364 53.0435C45.7444 53.0335 45.3111 53.0442 44.8489 53.0556ZM146.093 51.0583C146.032 50.993 145.943 50.9285 145.882 50.8632C146.048 50.6811 146.186 50.5219 146.324 50.3627C146.531 50.4911 146.68 50.5764 146.887 50.7048C146.575 50.8461 146.32 50.9637 146.093 51.0583ZM19.2129 47.8605C19.5717 48.1409 19.8382 48.2901 20.1988 48.615C19.7058 48.5827 19.4458 48.5891 19.2427 48.5719C19.2325 48.3274 19.225 48.1495 19.2129 47.8605ZM173.12 51.5012C173.134 51.1447 173.152 50.8773 173.162 50.4319C173.44 50.8479 173.594 51.0888 173.78 51.3735C173.579 51.423 173.407 51.4495 173.12 51.5012ZM26.9614 47.1344C27.2214 47.128 27.4814 47.1215 27.7702 47.1144C27.7758 47.2478 27.7795 47.3367 27.786 47.4923C27.5261 47.4987 27.2661 47.5052 26.9772 47.5123C26.9707 47.3567 26.967 47.2678 26.9614 47.1344ZM86.1815 51.8978C86.2383 51.8741 86.325 51.872 86.3819 51.8483C86.5058 52.0455 86.6288 52.2205 86.7844 52.4837C86.4955 52.4908 86.3799 52.4937 86.2066 52.498C86.1982 52.2979 86.1899 52.0978 86.1815 51.8978ZM201.394 52.0021C201.068 51.8322 200.832 51.7045 200.448 51.5137C200.91 51.5023 201.17 51.4958 201.488 51.488C201.465 51.6443 201.442 51.7784 201.394 52.0021ZM52.3609 48.0627C51.9053 48.2298 51.4468 48.3301 51.0032 48.0963C51.4654 48.0849 51.9276 48.0734 52.3609 48.0627ZM36.7427 52.1439C37.1984 51.9768 37.656 51.8542 38.4182 52.1023C37.6383 52.1217 37.176 52.1331 36.7427 52.1439ZM147.579 9.18455C147.639 9.24981 147.671 9.31578 147.731 9.35881C147.474 9.43195 147.188 9.5058 146.93 9.57893C146.897 9.46849 146.862 9.33583 146.828 9.20316C147.117 9.196 147.348 9.19028 147.579 9.18455ZM106.833 10.5504C107.184 9.9409 107.556 9.84266 108.141 10.0062C107.743 10.1718 107.43 10.2909 106.833 10.5504ZM203.61 51.7692C203.235 51.7785 202.946 51.7856 202.628 51.7935C202.869 51.3202 202.869 51.3202 203.61 51.7692ZM114.776 51.7677C114.458 51.7756 114.198 51.782 113.736 51.7935C114.102 51.5619 114.328 51.445 114.639 51.2593C114.677 51.4808 114.711 51.6135 114.776 51.7677ZM7.86904 40.0636C7.81405 40.1317 7.75814 40.1776 7.70316 40.2457C7.55686 40.2048 7.3826 40.1869 7.26426 40.1231C7.14685 40.0815 7.05553 39.9725 6.96608 39.9079C7.022 39.862 7.07791 39.8162 7.10494 39.771C7.36865 39.8535 7.6044 39.9589 7.86904 40.0636ZM212.037 51.36C211.84 51.4762 211.729 51.5902 211.585 51.616C211.5 51.6404 211.407 51.5092 211.29 51.4676C211.373 51.3765 211.455 51.2632 211.568 51.1936C211.653 51.1693 211.802 51.2768 212.037 51.36ZM207.603 51.1361C207.534 51.5384 207.513 51.7392 207.493 51.9622C207.285 51.8116 207.137 51.7263 206.988 51.6409C207.128 51.5262 207.24 51.4344 207.603 51.1361ZM189.124 51.7944C189.21 51.7922 189.297 51.7901 189.384 51.7879C189.366 52.0554 189.348 52.3229 189.359 52.5897C189.302 52.5911 189.244 52.5925 189.186 52.594C189.146 52.3279 189.135 52.0612 189.124 51.7944ZM144.35 50.879C144.123 50.9736 143.983 51.0883 143.924 51.0675C143.806 51.0037 143.714 50.8947 143.624 50.8079C143.708 50.7391 143.819 50.6251 143.906 50.6452C144.024 50.6868 144.143 50.7728 144.35 50.879ZM73.1077 8.98287C73.3528 9.3106 73.4748 9.46335 73.4441 9.41961C73.3919 9.55442 73.3416 9.7337 73.2903 9.89075C73.2605 9.86923 73.2018 9.84844 73.1719 9.82692C73.1356 9.64979 73.1272 9.44971 73.1077 8.98287ZM116.514 51.146C116.761 51.5404 116.885 51.7377 117.039 51.9564C116.837 51.9614 116.721 51.9643 116.548 51.9686C116.539 51.7463 116.53 51.5462 116.514 51.146ZM51.2639 51.5614C51.0682 51.7221 50.9573 51.8361 50.8995 51.8375C50.7532 51.7966 50.634 51.7106 50.5436 51.6238C50.5138 51.6023 50.6796 51.4201 50.7374 51.4187C50.8819 51.4151 51.0291 51.4782 51.2639 51.5614ZM163.223 51.3236C163.551 51.5603 163.699 51.6456 163.789 51.7324C163.88 51.8192 163.885 51.9526 163.987 52.3061C163.659 52.0694 163.511 51.9841 163.42 51.8973C163.359 51.8098 163.353 51.6764 163.223 51.3236ZM66.5045 50.8944C66.716 50.4219 66.716 50.4219 67.3506 50.3839C67.0403 50.5696 66.8437 50.708 66.5045 50.8944ZM109.396 51.7452C109.169 51.8399 109.029 51.9546 108.97 51.9338C108.852 51.87 108.76 51.761 108.67 51.6742C108.754 51.6054 108.865 51.4914 108.952 51.5114C109.07 51.553 109.189 51.6391 109.396 51.7452ZM207.074 10.8478C207.161 10.8457 207.247 10.8435 207.334 10.8414C207.316 11.1089 207.299 11.3763 207.31 11.6431C207.252 11.6445 207.194 11.646 207.137 11.6474C207.096 11.3813 207.085 11.1146 207.074 10.8478ZM176.677 51.502C176.8 51.677 176.949 51.7846 176.922 51.8297C176.839 51.9208 176.697 51.9911 176.585 52.0606C176.495 51.9961 176.347 51.9108 176.373 51.8434C176.398 51.7537 176.51 51.6619 176.677 51.502ZM180.414 50.9643C180.537 51.1393 180.686 51.2469 180.659 51.2921C180.576 51.3831 180.434 51.4534 180.321 51.523C180.232 51.4584 180.084 51.3731 180.11 51.3057C180.135 51.216 180.247 51.1242 180.414 50.9643Z" fill="#F2800D"/>
<path d="M165.451 5.75961C164.969 5.97186 164.506 5.29345 164.154 5.85852C163.822 5.53294 163.395 5.67706 162.903 5.667C162.997 5.8427 163.091 6.0184 163.127 6.19553C163.163 6.37266 163.142 6.55122 163.324 6.747C163.377 6.63441 163.402 6.54478 163.509 6.34184C163.683 6.33754 163.942 6.30887 164.201 6.28019C164.231 6.32394 164.233 6.3684 164.264 6.41214C164.093 6.48313 163.923 6.55412 163.469 6.76565C164.307 6.74488 164.886 6.7528 165.433 6.71696C166.212 6.65317 166.883 6.79232 167.478 7.20038C167.627 7.30796 167.889 7.34597 168.095 7.42988C168.01 7.47649 167.955 7.54462 167.871 7.61346C168.022 7.76549 168.144 7.91824 168.325 8.09179C168.55 7.95268 168.691 7.86018 168.804 7.79063C169.01 7.87454 169.215 7.93621 169.567 8.06101C169.492 7.64006 168.94 7.58697 168.954 7.23056C169.324 7.08787 169.722 6.92224 170.206 6.73222C169.66 6.14488 169.176 5.6228 168.692 5.12295C168.636 5.16884 168.524 5.23839 168.412 5.33018C168.348 5.19823 168.285 5.06628 168.221 4.9121C167.816 4.92212 167.412 4.93214 166.921 4.94431C166.899 5.12287 166.85 5.32438 166.802 5.54811C166.57 5.55384 166.339 5.55958 166.05 5.56673C166.014 5.38961 165.947 5.16873 165.909 4.94714C165.764 4.95072 165.62 4.9543 165.389 4.96003C165.43 5.24831 165.441 5.51508 165.451 5.75961Z" fill="#F2800D"/>
<path d="M173.688 5.6445C173.134 5.54695 172.48 5.80794 171.593 5.34035C171.896 5.66665 171.987 5.77566 172.107 5.88395C172.228 5.99224 172.348 6.10052 172.646 6.31567C171.953 6.33285 171.491 6.34431 171.028 6.35576C171.036 6.53361 171.04 6.62253 171.046 6.77815C171.595 6.76455 172.115 6.75166 172.693 6.73734C172.706 7.04857 172.717 7.31534 172.732 7.67103C172.27 7.68248 171.836 7.69322 171.374 7.70468C171.376 7.74914 171.378 7.7936 171.38 7.83806C171.928 7.82446 172.448 7.81157 172.997 7.79797C173.625 7.60437 173.2 7.10309 173.417 6.7639C173.677 6.75746 173.908 6.75173 174.139 6.74601C174.206 6.96688 174.243 7.16624 174.28 7.3656C174.338 7.36417 174.396 7.36274 174.425 7.36202C174.445 7.16123 174.496 6.98195 174.516 6.78116C175.004 6.68006 175.64 6.68654 175.813 6.66002C176.357 6.53526 176.632 6.88451 177.136 7.18357C177.019 6.47434 176.825 5.96732 176.344 5.53416C176.18 5.76077 176.045 5.98666 175.881 6.21326C175.332 6.22686 174.812 6.23975 174.234 6.25407C174.053 6.08052 173.871 5.86251 173.688 5.6445Z" fill="#F2800D"/>
<path d="M37.9983 6.82651C37.8883 6.96276 37.7504 7.12195 37.5584 7.3715C38.0513 7.40379 38.3989 7.41743 38.7763 7.45259C38.9254 7.56016 39.1043 7.68924 39.3429 7.86136C39.7734 7.78393 40.3316 7.99263 40.75 7.6262C41.0444 7.75243 41.3669 7.8557 41.6902 7.98121C41.7461 7.93532 41.8589 7.86576 41.9428 7.79692C42.1217 7.92601 42.3006 8.05511 42.4497 8.16268C42.7935 8.0874 43.1392 8.05657 43.4225 7.91603C43.621 7.8221 43.7273 7.59692 43.8922 7.39255C41.8841 7.08626 39.9486 7.13423 37.9983 6.82651Z" fill="#F2800D"/>
<path d="M228.213 7.38644C228.263 7.20717 228.288 7.11753 228.365 6.87084C228.489 7.09028 228.582 7.22152 228.644 7.33124C229.289 7.5378 229.615 7.04013 230.249 6.97992C230.486 7.12981 230.814 7.36647 231.262 7.68919C231.401 7.57446 231.484 7.48338 231.653 7.36794C231.239 7.15565 230.916 7.03015 230.677 6.8358C230.437 6.64145 230.282 6.40049 230.069 6.13873C229.816 6.30079 229.674 6.37106 229.534 6.4858C229.471 6.35384 229.408 6.24412 229.312 6.02396C229.084 6.09638 228.857 6.19104 228.543 6.28784C228.395 6.22472 228.132 6.14224 227.927 6.08056C227.243 6.32005 227.405 6.73885 227.449 7.11606C227.654 7.17774 227.889 7.26093 228.213 7.38644Z" fill="#F2800D"/>
<path d="M236.05 7.3925C236.036 7.05904 236.021 6.70335 236.002 6.25874C235.49 6.44947 235.092 6.61511 234.608 6.80512C234.204 6.81514 234.062 6.19555 233.492 6.38771C233.235 6.48308 233.041 6.66594 232.788 6.85022C233.231 7.06179 233.556 7.23176 234.027 7.44261C234.576 7.42901 235.327 7.4104 236.05 7.3925Z" fill="#F2800D"/>
<path d="M104.738 6.77473C104.83 6.90596 104.923 7.05943 105.016 7.21289C104.874 7.26094 104.703 7.33193 104.391 7.47319C105.149 7.61019 105.762 7.75076 106.491 7.88848C107.206 7.71497 106.511 6.99782 107.047 6.67299C106.603 6.41696 106.301 6.80276 105.925 6.81207C105.579 6.84289 105.217 6.47356 104.738 6.77473Z" fill="#F2800D"/>
<path d="M4.05107 15.1673C3.83769 14.9056 3.68581 14.7313 3.56282 14.5563C3.07173 14.5685 2.63842 14.5792 2.08955 14.5928C2.31037 15.0324 2.58245 15.315 3.13597 15.4125C3.83485 15.5287 4.50671 15.6901 5.2056 15.8063C5.35097 15.825 5.5215 15.754 5.8374 15.7017C5.26621 15.1817 4.71363 15.1064 4.05107 15.1673Z" fill="#F2800D"/>
<path d="M92.9775 52.5972C93.6084 52.4703 93.7407 52.1777 93.641 51.8687C93.3428 51.6535 93.1043 51.4814 92.7465 51.2232C92.3215 51.434 91.8127 51.7137 91.2182 52.0177C91.4567 52.1898 91.6058 52.2974 91.7847 52.4265C92.0689 52.3082 92.2963 52.2135 92.5517 52.0959C92.7324 52.2695 92.8554 52.4445 92.9775 52.5972Z" fill="#F2800D"/>
<path d="M182.113 7.2605C182.569 7.11566 183.027 6.99305 183.484 6.84822C183.32 6.40718 182.307 6.36555 182.742 5.7094C182.421 5.65059 182.071 5.57026 181.691 5.46841C181.665 5.53582 181.612 5.6484 181.644 5.73661C181.78 6.22282 181.944 6.68608 182.113 7.2605Z" fill="#F2800D"/>
<path d="M228.963 3.89627C227.454 3.08801 226.199 3.49744 224.97 3.83946C226.209 3.74198 227.419 4.31285 228.963 3.89627Z" fill="#F2800D"/>
<path d="M114.04 5.85433C113.933 6.05727 113.771 6.35056 113.61 6.64385C113.38 6.67181 113.179 6.69906 112.948 6.70479C112.84 6.90773 112.732 7.08843 112.624 7.26914C112.743 7.3552 112.893 7.46277 113.042 7.57034C113.102 6.94574 113.763 6.84035 114.418 6.60158C114.511 6.75505 114.603 6.88628 114.728 7.10573C114.956 7.01108 115.183 6.91643 115.41 6.79955C114.933 6.47754 114.486 6.15482 114.04 5.85433Z" fill="#F2800D"/>
<path d="M264.021 51.1176C262.558 50.7088 261.425 51.271 260.156 51.3692C261.265 51.6087 261.929 51.57 264.021 51.1176Z" fill="#F2800D"/>
<path d="M82.8009 8.43108C81.5476 8.1951 80.2644 8.62747 78.9142 8.1491C78.7501 8.3757 78.5582 8.62526 78.4501 8.80596C79.764 8.41734 81.3081 8.69062 82.8009 8.43108Z" fill="#F2800D"/>
<path d="M153.85 55.3836C153.534 55.4359 153.19 55.5112 152.874 55.5635C152.804 55.2759 152.738 55.0773 152.667 54.7453C152.562 55.0149 152.51 55.1497 152.459 55.3068C152.141 55.3146 151.823 55.3225 151.563 55.329C151.395 55.4666 151.256 55.5814 151.116 55.6961C151.24 55.8933 152.655 55.8582 154.323 55.6389C154.087 55.5112 153.939 55.4481 153.85 55.3836Z" fill="#F2800D"/>
<path d="M149.087 55.5906C149.023 55.4364 148.96 55.3045 148.865 55.1288C148.673 55.3561 148.536 55.5375 148.343 55.7648C149.099 55.8796 149.739 55.975 150.379 56.0482C150.481 55.7341 150.557 55.4652 150.66 55.1733C150.601 55.1303 150.451 55.0227 150.243 54.8721C150.195 55.1181 150.174 55.2966 150.126 55.5426C149.809 55.5727 149.492 55.5806 149.087 55.5906Z" fill="#F2800D"/>
<path d="M101.301 6.88215C101.315 7.21561 101.322 7.37123 101.329 7.54907C101.738 7.6502 102.147 7.75134 102.615 7.87326C102.774 7.53551 102.937 7.26444 103.124 6.90374C102.43 6.89869 101.908 7.55699 101.301 6.88215Z" fill="#F2800D"/>
<path d="M214.259 5.64042C214.25 5.41811 214.25 4.72824 214.25 4.72824C213.658 4.4091 213.018 4.3137 212.044 4.53811C212.509 4.59335 212.768 4.56468 212.888 4.65074C213.125 4.80062 213.251 5.04229 213.46 5.1929C213.639 5.34422 213.904 5.44893 214.259 5.64042Z" fill="#F2800D"/>
<path d="M70.698 7.37356C70.7008 7.44026 70.6747 7.50767 70.6812 7.66328C71.7547 7.74794 72.791 7.63325 74.0061 7.64764C73.7368 7.43178 73.5877 7.3242 73.4685 7.23815C73.2113 7.31128 73.0482 7.56011 72.6633 7.34711C72.4853 7.24026 72.0315 7.45178 71.7137 7.45966C71.3969 7.48976 71.0754 7.40872 70.698 7.37356Z" fill="#F2800D"/>
<path d="M78.6344 51.2169C79.0547 51.5848 79.3538 51.8222 79.5942 52.0388C79.8821 52.0094 80.0844 52.0044 80.3155 51.9986C80.3807 51.4852 79.7611 51.189 78.6344 51.2169Z" fill="#F2800D"/>
<path d="M94.4043 51.4492C94.2598 51.4528 94.1443 51.4556 93.8265 51.4635C94.5673 51.8902 94.0352 52.304 93.9373 52.7292C94.3995 52.7178 94.7461 52.7092 95.295 52.6956C94.994 52.4137 94.7844 52.2409 94.6316 52.0444C94.5086 51.8694 94.4704 51.6478 94.4043 51.4492Z" fill="#F2800D"/>
<path d="M249.455 7.10476C248.712 7.30122 248.07 6.4715 247.352 7.29041C248.045 7.27323 248.71 7.94663 249.455 7.10476Z" fill="#F2800D"/>
<path d="M228.529 4.57465C227.652 4.35159 226.86 4.77178 226.235 4.3422C226.095 4.45694 225.983 4.54872 225.815 4.6864C226.542 4.77966 227.212 4.89658 227.879 4.9468C228.081 4.94179 228.275 4.7367 228.529 4.57465Z" fill="#F2800D"/>
<path d="M256.1 11.1015C256.396 11.2722 256.692 11.4207 256.959 11.5921C257.272 11.473 257.557 11.377 257.842 11.2586C257.811 11.2149 257.807 11.126 257.749 11.1274C257.225 11.0291 256.701 10.9531 256.176 10.8548C256.179 10.9215 256.154 11.0112 256.1 11.1015Z" fill="#F2800D"/>
<path d="M211.281 7.02719C211.547 7.17636 211.695 7.26171 211.844 7.34705C212.115 6.91751 212.454 7.42094 212.768 7.32414C212.905 7.14271 213.012 6.93977 213.175 6.69094C213.03 6.67229 212.884 6.63141 212.769 6.65651C212.339 6.75617 211.939 6.85511 211.281 7.02719Z" fill="#F2800D"/>
<path d="M179.097 7.06819C179.092 6.93481 179.081 6.69027 179.069 6.40127C178.78 6.40843 178.578 6.41344 178.203 6.42275C178.357 6.66371 178.708 6.74404 178.803 6.94196C178.899 7.16212 178.852 7.43032 178.869 7.83047C179.236 7.62109 179.463 7.50421 179.66 7.38805C179.514 7.34717 179.424 7.28262 179.097 7.06819Z" fill="#F2800D"/>
<path d="M46.2424 7.5791C45.7457 7.45789 45.3962 7.39979 45.017 7.32017C44.9396 7.54463 44.8352 7.81426 44.7318 8.10612C44.8184 8.10397 44.9946 8.16636 45.0803 8.14198C45.4493 7.97706 45.7885 7.79063 46.2424 7.5791Z" fill="#F2800D"/>
<path d="M22.3525 60C22.6544 59.6142 22.8743 59.3417 23.0933 59.047C22.8865 58.9408 22.6498 58.8132 22.2957 58.6439C22.3162 59.133 22.3311 59.4887 22.3525 60Z" fill="#F2800D"/>
<path d="M3.66023 47.9789C2.84672 47.8878 2.20747 47.8147 1.39304 47.7013C2.11332 48.3288 2.78053 48.3791 3.66023 47.9789Z" fill="#F2800D"/>
<path d="M13.5375 0C12.792 0.151998 12.2757 0.253807 11.6449 0.380711C11.7082 0.512663 11.7744 0.711307 11.8321 0.709875C12.4984 0.73787 12.9811 0.525623 13.5375 0Z" fill="#F2800D"/>
<path d="M241.165 6.62037C241.02 6.62395 240.933 6.6261 240.847 6.62825C240.726 7.18759 240.882 7.47301 241.501 7.74697C241.369 7.34969 241.266 6.97391 241.165 6.62037Z" fill="#F2800D"/>
<path d="M2.45383 15.6965C2.23855 16.0801 2.10248 16.2838 1.96735 16.5097C2.34289 16.5004 2.68954 16.4918 3.26729 16.4775C2.96632 16.1956 2.75573 16.0006 2.45383 15.6965Z" fill="#F2800D"/>
<path d="M81.2017 51.7541C81.3703 51.6387 81.539 51.5232 81.7068 51.3856C81.6481 51.3648 81.5605 51.3447 81.4719 51.3024C81.2064 51.1754 80.9688 51.0255 80.6445 50.8778C80.6566 51.1668 80.6677 51.4336 80.6817 51.767C80.855 51.7627 81.0283 51.7584 81.2017 51.7541Z" fill="#F2800D"/>
<path d="M78.4427 7.24839C77.5966 7.06907 76.9956 6.52762 76.4495 7.29778C77.0272 7.28347 77.605 7.26915 78.4427 7.24839Z" fill="#F2800D"/>
<path d="M0.5 38.7997C1.13553 38.784 1.68439 38.7704 2.49325 38.7503C1.70212 38.5029 1.1626 38.0489 0.5 38.7997Z" fill="#F2800D"/>
<path d="M107.891 6.11797C107.57 6.03693 107.336 5.97597 107.103 5.93723C107.076 5.98241 107.077 6.00464 107.05 6.04982C107.407 6.28576 107.763 6.49948 108.148 6.73471C108.169 6.53392 108.187 6.26643 108.205 6.02118C107.909 5.8505 107.92 6.11726 107.891 6.11797Z" fill="#F2800D"/>
<path d="M245.951 7.65895C245.908 7.32621 245.871 7.14908 245.826 6.74964C245.433 7.04867 245.209 7.21001 244.816 7.50903C245.282 7.5865 245.514 7.603 245.951 7.65895Z" fill="#F2800D"/>
<path d="M136.929 55.9809C136.935 56.1143 136.939 56.2032 136.943 56.3144C137.472 56.5238 137.783 56.3381 138.114 55.9516C137.651 55.963 137.305 55.9716 136.929 55.9809Z" fill="#F2800D"/>
<path d="M2.03281 40.186C2.44654 40.3983 2.77268 40.5905 3.21529 40.802C3.20599 40.5797 3.22651 40.3789 3.2172 40.1566C2.81278 40.1666 2.46612 40.1752 2.03281 40.186Z" fill="#F2800D"/>
<path d="M110.507 10.5707C110.325 11.0647 110.51 11.3494 111.179 11.4219C111.645 10.8317 110.408 10.9737 110.507 10.5707Z" fill="#F2800D"/>
<path d="M91.0774 53.49C91.5396 53.4785 91.8573 53.4706 92.1462 53.4635C92.258 53.3717 92.258 53.3717 91.5415 52.8331C91.4054 53.0368 91.2684 53.2182 91.0774 53.49Z" fill="#F2800D"/>
<path d="M156.483 6.36019C156.614 6.04538 156.693 5.84316 156.821 5.46166C156.513 5.69184 156.429 5.76068 156.373 5.80657C156.138 5.72338 155.962 5.66098 155.786 5.59859C155.618 5.73626 155.618 5.73627 156.483 6.36019Z" fill="#F2800D"/>
<path d="M88.2374 7.74001C87.9271 7.92573 87.6727 8.06556 87.3065 8.29717C88.3231 8.4055 88.3231 8.4055 88.2374 7.74001Z" fill="#F2800D"/>
<path d="M88.9764 8.12226C89.323 8.11367 89.6697 8.10508 90.0452 8.09577C90.0396 7.96239 90.035 7.85124 90.0266 7.65117C89.6277 7.79457 89.2848 7.89208 88.9717 8.01111C88.9736 8.05557 88.9745 8.0778 88.9764 8.12226Z" fill="#F2800D"/>
<path d="M6.18685 15.7598C6.64905 15.7483 6.96681 15.7404 7.34235 15.7311C7.2175 15.5117 7.09451 15.3367 6.99947 15.1388C6.74692 15.3231 6.52326 15.5066 6.18685 15.7598Z" fill="#F2800D"/>
<path d="M0.8566 43.1749C0.413005 43.6309 0.413005 43.6309 1.35415 44.0082C1.1678 43.7012 1.04388 43.504 0.8566 43.1749Z" fill="#F2800D"/>
<path d="M96.3172 52.9373C96.3265 53.1596 96.3349 53.3597 96.3442 53.582C96.5185 53.5999 96.634 53.597 96.8372 53.6143C96.8279 53.3919 96.8204 53.2141 96.8102 52.9696C96.635 52.9294 96.4617 52.9337 96.3172 52.9373Z" fill="#F2800D"/>
<path d="M67.881 7.77719C68.1652 7.65887 68.3926 7.56422 68.6759 7.42368C68.4103 7.29674 68.2025 7.16837 67.8484 6.99911C67.8633 7.3548 67.8726 7.57711 67.881 7.77719Z" fill="#F2800D"/>
<path d="M161.549 7.8814C162.012 7.86995 162.445 7.85921 162.907 7.84775C162.435 7.61467 161.976 7.71505 161.549 7.8814Z" fill="#F2800D"/>
<path d="M101.013 53.8891C101.475 53.8776 101.908 53.8669 102.688 53.8476C101.898 53.6223 101.44 53.7227 101.013 53.8891Z" fill="#F2800D"/>
<path d="M101.128 7.57632C100.468 7.70394 100.156 7.84519 100.237 8.39953C100.461 8.21596 100.601 8.12346 100.713 8.03167C100.824 7.91765 100.935 7.80364 101.128 7.57632Z" fill="#F2800D"/>
<path d="M157.244 54.9434C156.86 54.7526 156.652 54.6242 156.327 54.4543C156.278 54.678 156.254 54.7899 156.204 54.9692C156.522 54.9613 156.782 54.9548 157.244 54.9434Z" fill="#F2800D"/>
<path d="M142.896 5.76228C142.902 5.9179 142.905 5.98459 142.911 6.11797C143.286 6.10867 143.69 6.09864 144.384 6.08146C143.712 5.92008 143.334 5.8627 142.896 5.76228Z" fill="#F2800D"/>
<path d="M154.524 5.16253C154.327 5.27869 154.1 5.39557 153.76 5.55978C154.025 5.66449 154.201 5.72689 154.378 5.81152C154.459 5.67598 154.566 5.47304 154.674 5.29233C154.643 5.22635 154.584 5.20556 154.524 5.16253Z" fill="#F2800D"/>
<path d="M250.697 7.76384C250.423 7.4146 250.3 7.23962 250.116 6.99937C249.949 7.15928 249.837 7.25107 249.671 7.41098C249.935 7.51569 250.199 7.59817 250.697 7.76384Z" fill="#F2800D"/>
<path d="M83.2081 8.48776C83.5548 8.47917 83.9014 8.47058 84.277 8.46127C84.2751 8.41681 84.2733 8.37235 84.2714 8.32789C83.9238 8.31425 83.5762 8.3006 83.2007 8.30991C83.2026 8.35437 83.2054 8.42107 83.2081 8.48776Z" fill="#F2800D"/>
<path d="M133.336 6.73358C133.228 6.91429 133.146 7.02759 133.15 7.13874C133.153 7.20544 133.389 7.31086 133.417 7.28792C133.529 7.21836 133.641 7.12658 133.694 7.01399C133.693 6.96953 133.515 6.8849 133.336 6.73358Z" fill="#F2800D"/>
<path d="M204.497 4.54713C204.511 4.88059 204.518 5.05844 204.528 5.28074C205.006 4.95734 205.006 4.95734 204.497 4.54713Z" fill="#F2800D"/>
<path d="M5.19425 45.2482C5.34799 45.467 5.47099 45.6419 5.6853 45.9259C5.73098 45.6355 5.75149 45.4347 5.79717 45.1443C5.48127 45.1966 5.30887 45.2231 5.19425 45.2482Z" fill="#F2800D"/>
<path d="M216.419 4.74123C216.854 4.75272 217.114 4.76851 217.404 4.78359C217.398 4.62797 217.392 4.49459 217.386 4.33897C217.101 4.45729 216.845 4.55265 216.419 4.74123Z" fill="#F2800D"/>
<path d="M93.4782 7.20956C93.9451 7.30926 94.1203 7.34942 94.2666 7.3903C94.384 7.4319 94.4446 7.49716 94.5927 7.5825C94.6151 7.42617 94.6402 7.33653 94.6626 7.1802C94.3737 7.18736 94.0849 7.19452 93.4782 7.20956Z" fill="#F2800D"/>
<path d="M203.635 7.43922C203.831 7.2786 203.971 7.18609 203.969 7.14163C203.907 7.03191 203.788 6.94585 203.669 6.88203C203.64 6.86051 203.414 6.99962 203.416 7.04408C203.421 7.15524 203.512 7.26424 203.635 7.43922Z" fill="#F2800D"/>
<path d="M211.478 6.91103C211.442 6.7339 211.603 6.4406 211.142 6.47429C211.055 6.47644 210.916 6.59117 210.918 6.65786C210.876 7.03722 211.246 6.89452 211.478 6.91103Z" fill="#F2800D"/>
<path d="M117.901 8.98541C117.91 9.18549 117.913 9.27441 117.919 9.4078C118.208 9.40064 118.439 9.39491 118.901 9.38345C118.489 9.21563 118.254 9.13244 117.901 8.98541Z" fill="#F2800D"/>
<path d="M243.528 7.11814C243.42 7.29885 243.338 7.41216 243.342 7.52331C243.345 7.59 243.581 7.69543 243.609 7.67248C243.722 7.60292 243.833 7.51114 243.886 7.39855C243.885 7.35409 243.708 7.26946 243.528 7.11814Z" fill="#F2800D"/>
<path d="M215.458 3.87492C215.804 3.86633 216.151 3.85775 216.526 3.84844C216.525 3.80398 216.523 3.75951 216.521 3.71505C216.173 3.70141 215.826 3.68777 215.479 3.69636C215.452 3.74154 215.455 3.80823 215.458 3.87492Z" fill="#F2800D"/>
<path d="M12.6136 5.56407C12.3788 5.48087 12.2316 5.41776 12.0871 5.42134C12.0005 5.42349 11.8635 5.60491 11.8933 5.62642C11.9837 5.7132 12.103 5.79926 12.2493 5.84014C12.307 5.83871 12.417 5.70246 12.6136 5.56407Z" fill="#F2800D"/>
</svg>
