<svg width="158" height="50" viewBox="0 0 158 50" fill="none" xmlns="http://www.w3.org/2000/svg">
<path d="M132.461 6.17834C132.53 6.30563 132.582 6.43352 132.668 6.59727C132.51 6.75144 132.351 6.90561 132.176 7.04185C132.275 7.07533 132.373 7.10879 132.489 7.16019C132.12 7.34064 131.939 7.84799 131.446 7.64359C131.344 7.49896 131.241 7.31729 131.156 7.17207C130.947 7.25393 130.786 7.31547 130.609 7.37761C130.556 7.23119 130.52 7.12123 130.485 7.01127C129.88 6.90367 129.237 7.16837 128.563 6.89642C128.504 7.12111 128.43 7.36492 128.371 7.60814C128.269 7.42647 128.15 7.24539 128.065 7.1187C127.643 7.15273 127.987 7.82624 127.5 7.84414C127.495 7.67741 127.491 7.52921 127.485 7.3069C127.389 7.36606 127.341 7.38637 127.293 7.40669C127.244 7.427 127.197 7.48437 127.165 7.48556C127.017 7.43536 126.785 7.29551 126.754 7.33375C126.614 7.56143 126.511 7.37975 126.38 7.34747C125.939 7.25243 125.471 7.38088 125.103 7.61691C124.688 7.87325 124.359 7.73698 123.997 7.58337C123.931 7.56723 123.91 7.40111 123.841 7.25529C123.581 7.26483 123.289 7.27557 122.98 7.28691C122.888 7.45722 122.795 7.64605 122.672 7.89165C122.278 7.75777 121.932 7.60357 121.556 7.50614C121.179 7.40871 120.788 7.36745 120.346 7.29093C120.329 7.25448 120.294 7.14451 120.258 7.05308C119.721 7.01719 119.721 7.01719 119.357 7.3829C119.338 7.29087 119.319 7.19884 119.283 7.05183C118.972 6.98906 118.615 7.00219 118.291 7.0697C118.016 7.11689 117.881 7.49277 117.595 7.72582C117.555 7.46765 117.518 7.30212 117.497 7.13598C117.48 7.11806 117.446 7.08219 117.446 7.08219C117.383 7.14016 117.289 7.25489 117.289 7.25489C116.971 6.93277 116.621 7.20525 116.26 7.10722C116.266 7.311 116.269 7.44068 116.276 7.66299C116.098 7.68808 115.952 7.71197 115.774 7.73706C115.769 7.55181 115.748 7.4042 115.744 7.25599C115.415 7.11972 115.114 6.81553 114.733 7.14478C114.701 7.18302 114.584 7.05752 114.502 7.04198C113.997 7.0049 113.512 7.0969 113.102 7.5385C113.015 7.35623 112.963 7.22834 112.91 7.10045C112.847 7.15841 112.8 7.21578 112.753 7.27314C112.63 6.96238 112.344 7.21396 112.193 7.03407C111.991 6.8004 111.938 7.22888 111.725 7.144C111.543 7.05794 111.302 7.14099 111.058 7.14994C111.063 7.31667 111.067 7.46487 111.074 7.7057C110.714 7.64473 110.405 7.61901 110.094 7.55624C109.898 7.50783 109.712 7.25503 109.505 7.411C109.313 7.54783 109.218 7.05062 109.048 7.37212C109.032 7.39124 109.001 7.41096 109.001 7.41096C108.525 6.68664 108.088 7.35174 107.507 7.48437C107.472 7.41147 107.402 7.24712 107.368 7.17422C106.715 7.08693 106.137 7.34924 105.653 6.9034C105.7 6.84604 105.747 6.77014 105.81 6.69365C105.727 6.65958 105.646 6.64404 105.515 6.61176C105.504 6.79762 105.476 6.96554 105.464 7.13286C105.416 7.15318 105.369 7.21055 105.336 7.19322C105.026 7.14898 104.722 7.34557 104.405 7.06049C104.255 6.91766 104.075 7.44353 103.789 7.12022C103.655 6.97678 103.364 7.0431 103.142 7.23671C102.999 7.35323 102.675 7.38369 102.525 7.2779C102.21 7.04841 101.904 7.15237 101.595 7.14518C101.351 7.13561 101.108 7.16308 100.864 7.17203C100.62 7.18098 100.346 7.2467 100.163 7.12358C99.8983 6.94787 99.7809 7.39726 99.532 7.22095C99.4157 7.1325 99.2527 7.11994 99.0893 7.08885C98.9096 7.05836 98.6638 6.99322 98.5527 7.09002C98.2845 7.37805 97.9863 7.185 97.761 7.26746C97.6269 7.12402 97.5263 7.01645 97.4425 6.92681C97.2517 7.08217 97.0773 7.23694 96.9022 7.37318C96.9546 7.50107 96.9908 7.62955 97.0783 7.84888C96.8477 7.74608 96.7157 7.67675 96.5674 7.60801C96.613 7.49507 96.6586 7.38213 96.7189 7.21301C96.4396 7.112 96.1933 7.02832 95.9466 6.92612C95.8858 7.07671 95.8402 7.18965 95.749 7.41554C95.6306 7.25298 95.5457 7.12629 95.4603 6.98107C95.3629 6.98465 95.2329 6.98942 95.0867 6.99479C95.0731 7.08801 95.0595 7.18124 95.0317 7.34916C94.9018 7.35393 94.7404 7.39695 94.6089 7.34615C94.4941 7.31327 94.3773 7.2063 94.2772 7.11725C94.0435 6.9033 93.8502 6.96603 93.6139 7.23434C93.4965 7.10884 93.3791 6.98333 93.2618 6.85783C93.1334 6.91818 92.862 7.09505 92.8112 7.02274C92.5592 6.73528 92.2337 7.30357 92.0106 6.88524C91.9817 7.01611 91.9519 7.10994 91.9063 7.22288C91.5384 7.44038 91.1203 7.02921 90.7221 7.32201C90.6865 7.21205 90.6509 7.10209 90.6152 6.99213C90.5822 6.9748 90.5325 6.93954 90.4837 6.94133C90.3533 6.92757 90.2066 6.91442 90.0777 6.95624C89.4175 7.18448 89.4175 7.18448 88.7683 6.65199C89.32 6.61318 89.8068 6.57675 90.2935 6.54033C90.2925 6.50328 90.2914 6.46623 90.2904 6.42917C89.7869 6.44767 89.2833 6.46617 88.7473 6.48585C88.6876 6.67349 88.6132 6.91731 88.554 7.12347C87.9556 7.23818 87.4217 7.33197 86.9045 7.44369C86.7363 7.24587 86.5682 7.04806 86.4335 6.8861C86.2098 7.02414 86.0819 7.10301 85.9216 7.18308C85.9268 7.36834 85.9326 7.57211 85.9394 7.81295C85.6307 7.82428 85.3384 7.83502 85.046 7.84576C84.9438 7.68261 84.8244 7.483 84.6714 7.24754C84.4974 7.42083 84.3712 7.55529 84.2129 7.70946C84.1448 7.60069 84.0604 7.49252 83.9745 7.32877C83.8634 7.42558 83.8 7.48354 83.7204 7.5421C83.4741 7.45842 83.2441 7.37414 83.0146 7.30839C82.9952 7.19784 82.9769 7.12433 82.9581 7.0323C82.7338 7.15181 82.6473 7.54443 82.367 7.40637C82.1527 7.30297 81.8598 7.29518 81.7959 6.75973C81.689 7.00474 81.6287 7.17386 81.5213 7.40034C81.4003 7.14516 81.3479 7.01726 81.296 6.9079C81.0498 7.39911 80.5054 7.69728 79.9945 7.45642C79.7477 7.35422 79.5371 7.3805 79.3081 7.33327C79.0791 7.28605 78.8481 7.16472 78.6374 7.191C78.3618 7.21967 78.1297 7.06129 77.885 7.03319C77.6404 7.00509 77.3516 7.14551 77.1693 7.0224C76.954 6.88195 76.7171 7.13172 76.5316 6.89745C76.4814 6.84367 76.2587 7.01875 76.1125 7.02412C75.9831 7.04742 75.8515 6.99662 75.6881 6.96553C75.6755 7.09581 75.6639 7.26313 75.6383 7.50516C75.5062 7.43583 75.4077 7.40236 75.3569 7.33004C75.2558 7.20394 75.2024 7.03901 75.151 6.94817C74.8303 7.1083 74.5736 7.22901 74.2849 7.36942C74.2147 7.18655 74.1791 7.07659 74.1261 6.93018C73.9978 6.99053 73.8065 7.12737 73.773 7.09151C73.5713 6.85784 73.4618 7.01022 73.3035 7.16439C73.1924 7.26119 73.031 7.30421 72.8707 7.38428C72.7371 7.25937 72.6035 7.13447 72.4531 6.99163C72.3735 7.05019 72.2766 7.0723 72.2619 7.12847C72.0355 7.74876 71.5833 7.85809 71.0614 7.80308C70.9038 7.40089 70.583 8.13591 70.44 7.67755C70.1959 7.66797 69.9679 7.6578 69.74 7.64763C69.6227 7.52213 69.5221 7.41455 69.4718 7.36076C69.1191 7.54062 68.7822 7.70135 68.4458 7.88061C68.3578 7.64276 68.2698 7.40491 68.1807 7.13001C68.0235 7.32123 67.913 7.43657 67.8024 7.5519C67.7359 7.49871 67.6851 7.4264 67.6353 7.39113C67.41 7.47359 67.2009 7.55544 67.0243 7.63611C66.8891 7.45563 66.9442 7.10126 66.5926 7.31816C66.6644 7.55661 66.7209 7.8327 66.8289 8.19963C66.6324 8.15121 66.5182 8.13686 66.3049 8.07052C66.2253 8.12908 66.033 8.22887 65.8737 8.34599C65.5598 8.17207 65.6316 7.83562 65.6405 7.57567C65.4247 7.4167 65.2256 7.27565 65.0427 7.13401C64.5701 7.67062 64.2206 6.81186 63.77 6.97677C63.519 7.30125 63.3859 7.76975 62.8819 7.76972C62.9505 7.89701 63.0018 7.98785 63.0527 8.06016C63.0044 8.65537 62.4925 8.37745 62.2536 8.55313C62.3149 8.99595 62.5334 9.24756 62.8781 9.36471C62.9096 9.32646 62.973 9.2685 63.0673 9.15376C63.2538 9.42508 63.7034 9.22313 63.8511 9.84822C63.8941 9.64265 63.9229 9.51178 63.9654 9.28768C63.9145 9.21537 63.7291 8.9811 63.5431 8.72831C64.0424 8.56161 64.526 8.41403 65.0741 8.24554C65.3046 8.34834 65.6337 8.48461 66.0287 8.65555C65.8847 8.73502 65.74 8.79597 65.6436 8.8366C65.7694 9.25851 65.8584 9.53341 65.949 9.86389C66.0287 9.80533 66.1251 9.76469 66.2053 9.72466C65.9994 9.34278 66.2813 8.96154 66.1372 8.46612C66.6486 8.72551 67.0322 7.914 67.4717 8.50983C67.6148 8.3933 67.7102 8.31562 67.8694 8.1985C67.9224 8.34491 67.958 8.45487 68.0104 8.58276C68.3583 8.81107 68.8341 8.38561 69.2197 8.79797C69.249 8.68563 69.2784 8.57328 69.3219 8.38623C69.4864 8.45437 69.6341 8.50458 69.8479 8.58945C69.8935 8.47651 69.9223 8.34563 69.9522 8.25181C70.4096 8.32773 70.8744 8.66301 71.2983 8.12819C71.8301 8.53519 72.5621 7.9705 73.1017 8.65538C73.1305 8.52451 73.1604 8.43068 73.1898 8.31834C74.3027 7.99929 75.4208 8.44038 76.5389 8.30659C76.5756 8.4536 76.5945 8.54563 76.6484 8.7291C76.7888 8.51995 76.8816 8.34964 76.9901 8.16021C77.3023 8.27855 77.6277 8.28514 78.0338 8.27023C78.8129 8.22306 79.6094 8.21236 80.389 8.18372C80.4702 8.18074 80.552 8.19628 80.6017 8.23154C80.9659 8.45924 81.3044 8.35409 81.6554 8.11866C81.789 8.24356 81.9232 8.38699 82.1233 8.56509C82.2003 8.4139 82.2459 8.30096 82.3229 8.14978C82.3392 8.14918 82.4188 8.09061 82.4843 8.10675C82.7961 8.20657 83.1115 8.43607 83.4102 8.07275C83.9467 8.07159 84.4398 8.25747 84.8301 8.83656C84.8531 8.50191 84.8626 8.26048 84.8872 7.9814C85.2634 8.06031 85.2409 8.41349 85.3933 8.63043C85.2493 8.7099 85.1371 8.76965 84.9134 8.90768C85.1895 8.89754 85.3865 8.96448 85.4651 8.86887C85.5909 8.7159 85.649 8.47267 85.7869 8.1709C86.1929 8.15598 86.6965 8.13749 87.2 8.11899C87.5867 8.56841 88.1395 7.99176 88.5424 8.44058C88.5717 8.32823 88.6011 8.21589 88.6456 8.06589C88.9065 8.0934 89.1837 8.12031 89.5746 8.14304C89.5914 8.16097 89.7087 8.28647 89.7753 8.33966C90.0818 8.25422 90.3396 8.17057 90.6781 8.06542C90.7771 8.11741 90.9589 8.222 91.1407 8.32659C91.1721 8.28835 91.2502 8.17422 91.2832 8.19155C91.6123 8.32782 92.0016 8.29498 92.2222 8.62068C92.3636 8.44858 92.5208 8.25736 92.6623 8.08526C93.0071 8.20241 93.268 8.22991 93.4834 8.37036C93.6824 8.51141 93.8643 8.04111 94.0697 8.40446C94.1896 8.62259 94.5004 8.68535 94.8975 8.93039C94.7602 8.67581 94.7257 8.6029 94.6738 8.49354C94.7209 8.43617 94.7833 8.34115 94.8462 8.26466C94.9782 8.33399 95.1097 8.3848 95.2748 8.47146C95.2962 8.65612 95.302 8.85991 95.3235 9.04456C95.6357 9.16291 95.9323 9.30037 96.2446 9.41871C96.4054 9.35717 96.582 9.27651 96.7911 9.19465C96.659 9.12532 96.56 9.07332 96.3787 8.98726C96.5349 8.75898 96.6753 8.54983 96.7691 8.41658C97.1726 8.30903 97.4959 8.24152 97.8349 8.15489C97.87 8.24632 97.9056 8.35629 97.9585 8.5027C98.4615 7.89079 98.9897 8.16811 99.5346 8.46335C99.7258 8.32651 99.9171 8.18968 100.157 8.03253C100.453 8.16999 100.767 8.34391 101.113 8.51663C101.129 8.49751 101.208 8.42043 101.335 8.3045C101.455 8.52263 101.541 8.70491 101.628 8.88718C101.554 9.14952 101.496 9.39273 101.407 9.71125C100.983 9.65266 100.558 9.59407 100.101 9.53667C100.055 9.63109 100.01 9.76256 99.9652 9.89403C99.555 9.76074 99.1447 9.62745 98.7344 9.49416C98.845 9.37883 98.9561 9.28203 99.2092 9.03165C98.8513 9.02625 98.6396 9.01548 98.4122 9.02383C98.419 9.26466 98.4253 9.48697 98.4305 9.67223C98.0344 10.0391 97.6939 9.49529 97.3564 9.6375C97.0352 9.77911 96.7109 9.80957 96.3708 9.85915C96.0308 9.90873 95.6913 9.40195 95.3633 9.87761C94.9242 9.8752 94.7005 9.43834 94.3531 9.22856C94.3882 9.32 94.439 9.39231 94.4741 9.48374C94.4097 9.50465 94.3463 9.56262 94.3132 9.54529C94.0806 9.36839 93.8637 9.17235 93.4975 8.87055C93.5881 9.20102 93.6745 9.3833 93.6625 9.5321C93.6504 9.6809 93.5247 9.83388 93.4634 9.96595C93.2171 9.88227 92.9876 9.81651 92.7413 9.73283C92.7382 9.62168 92.734 9.47348 92.7309 9.36232C92.6303 9.25475 92.5465 9.16511 92.4459 9.05754C92.4008 9.18901 92.3552 9.30195 92.2797 9.50871C92.1619 9.36468 92.0775 9.25651 91.9429 9.09456C91.8496 9.24634 91.7563 9.39812 91.6782 9.51226C91.5006 9.55587 91.3392 9.59889 91.1134 9.66282C91.0924 9.49669 91.0553 9.33115 91.0343 9.16502C91.0018 9.16621 90.9363 9.15007 90.9206 9.16919C90.8263 9.28393 90.7152 9.38073 90.6377 9.51339C90.5302 9.73988 90.4893 10.0195 90.3484 10.2102C90.2232 10.3817 90.0141 10.4635 89.8228 10.6004C89.8029 10.4713 89.7657 10.3057 89.7285 10.1402C89.5321 10.0918 89.3518 10.0428 89.1386 9.97644C89.1234 10.0141 89.1097 10.1073 89.0815 10.2567C88.9683 10.2794 88.8221 10.2848 88.6277 10.3105C88.6874 10.1228 88.7482 9.97223 88.8232 9.74694C89.0343 9.73919 89.2942 9.72964 89.5541 9.7201C89.5525 9.66452 89.5515 9.62746 89.5499 9.57189C89.387 9.55933 89.2402 9.54618 89.0773 9.53362C88.8824 9.54078 88.7037 9.54734 88.4601 9.55629C88.4501 9.77919 88.4407 10.0206 88.415 10.2626C88.3657 10.2459 88.3007 10.2483 88.3002 10.2298C88.2934 9.98894 88.2164 9.56524 88.0561 9.6453C87.7511 9.78632 87.6935 9.47318 87.5133 9.42416C87.3168 9.37574 87.0904 9.42115 86.8305 9.43069C86.8028 9.59862 86.7912 9.76594 86.765 9.98944C86.5523 9.94162 86.3385 9.85675 86.1269 9.84598C85.9152 9.83521 86.0619 9.27348 85.7114 9.52744C85.748 9.67445 85.8009 9.82086 85.8051 9.96907C85.8057 9.98759 85.6767 10.0294 85.5484 10.0898C85.5075 9.79455 85.4845 9.55431 85.4436 9.2591C85.2592 9.63677 85.1062 9.97619 84.9526 10.2971C84.6886 10.1584 84.49 10.0359 84.2752 9.91399C84.1808 10.0287 84.0703 10.1441 83.976 10.2588C83.5175 10.1458 83.0747 10.0137 82.6488 9.89956C82.675 9.67606 82.7012 9.45256 82.7416 9.15436C82.2087 9.2852 82.239 9.78479 82.0226 10.1822C81.9844 9.97959 81.9477 9.83258 81.91 9.64852C81.6098 9.38138 81.4269 9.81462 81.1513 9.84329C81.1235 10.0112 81.1125 10.1971 81.0858 10.402C80.9516 10.2586 80.8673 10.1504 80.7835 10.0608C80.6383 10.1032 80.5099 10.1636 80.38 10.1683C80.2825 10.1719 80.1971 10.0267 80.1002 10.0488C79.3708 10.1312 79.3221 10.133 78.903 9.68479C78.8694 9.64893 78.8192 9.59515 78.7521 9.52343C78.6436 9.71286 78.5514 9.90169 78.4424 10.0726C78.2234 9.80247 78.2418 9.30109 77.7665 9.17019C77.6617 9.4893 77.5726 9.78929 77.438 10.2022C77.3159 9.90999 77.2111 9.65421 77.1231 9.41636C76.9166 9.59085 76.8951 9.98108 76.5891 10.085C76.4922 10.1071 76.3953 10.1292 76.2994 10.1884C76.0442 10.3647 75.7823 9.72524 75.5354 10.1979C75.2431 10.2087 74.935 10.2385 74.6421 10.2307C74.5121 10.2355 74.3964 10.1656 74.2816 10.1327C74.0186 10.0311 73.7744 10.0215 73.5858 10.251C73.404 10.1464 73.2222 10.0418 73.0068 9.90136C72.9434 9.95932 72.8638 10.0179 72.7364 10.1153C72.7155 9.94915 72.6788 9.80214 72.6579 9.63601C72.5908 9.56429 72.289 9.81646 72.1978 10.0423C71.9704 10.0507 71.7409 9.98495 71.5649 10.0841C71.1803 10.2837 70.901 10.1827 70.6464 9.80261C70.3236 9.88865 70.0097 10.2896 69.6556 9.83901C69.6105 9.97048 69.5811 10.0828 69.5518 10.1952C69.5036 10.2155 69.4559 10.2543 69.4067 10.2376C69.2427 10.188 69.0781 10.1198 68.8979 10.0708C68.6197 10.0069 68.3011 10.2411 68.0648 9.93453C67.828 10.1843 67.5691 10.2309 67.2862 10.0002C67.1122 10.1735 66.8607 9.90458 66.7051 10.1514C66.3892 9.90335 66.0502 9.98998 65.7091 10.0025C65.4329 10.0127 65.1736 10.0407 64.8969 10.0323C64.6365 10.0234 64.3955 10.1249 64.1293 9.91218C63.9632 9.78847 63.6221 9.801 63.4304 9.91931C62.919 10.2348 62.3934 10.0501 61.7793 10.1839C61.7489 10.2592 61.6719 10.4104 61.532 10.6381C61.4911 10.3429 61.4534 10.1588 61.4341 10.0483C61.2318 9.79607 61.1485 10.2998 60.9473 10.0847C60.8635 9.99505 60.6528 10.0213 60.4904 10.0273C60.295 10.0159 60.1168 10.041 59.9219 10.0482C59.8213 9.9406 59.7369 9.83244 59.6364 9.72486C59.4121 9.84437 59.2051 10.0003 58.9793 10.0643C58.7535 10.1282 58.5088 10.1001 58.2489 10.1096C58.48 9.65607 58.8326 9.47621 59.2025 9.33281C59.3016 9.38481 59.4173 9.45474 59.5169 9.52526C59.6447 9.44638 59.7401 9.3687 59.8355 9.29101C59.9518 9.37947 60.0346 9.43206 60.1179 9.50318C60.3573 9.34603 60.6136 9.2068 60.9012 9.02934C61.0076 8.7658 61.1444 8.42697 61.2963 8.05049C61.1648 7.99969 61.0663 7.96622 61.0171 7.94949C60.8767 7.58375 60.7368 7.23654 60.5801 6.8714C60.2715 6.88273 60.0116 6.89228 59.7193 6.90301C59.8534 7.04645 59.987 7.17135 60.1547 7.35064C59.7523 7.49524 59.441 7.98883 59.0978 7.35237C59.2891 7.21553 59.4798 7.06017 59.7193 6.90301C59.7282 6.64306 59.5679 6.72313 59.4379 6.7279C58.7557 6.75296 58.0898 6.77742 57.4076 6.80248C57.2991 6.99191 57.1906 7.18135 57.0827 7.3893C56.7217 7.27275 56.3255 7.63965 56.0353 7.1496C55.8618 7.34142 55.7193 7.47647 55.5616 7.64917C55.4301 7.59836 55.2797 7.45553 55.1665 7.47823C54.9402 7.52363 54.7689 7.21466 54.5462 7.38975C54.3392 7.54571 54.159 7.49669 53.9908 7.29887C53.8027 7.54687 53.6088 7.59108 53.3746 7.3586C53.1692 7.57014 52.9895 7.53965 52.7888 7.34303C52.4618 7.85574 51.972 7.20613 51.6083 7.57183C51.4186 7.76425 51.1802 7.38356 50.9251 7.55984C50.7333 7.67815 50.5038 7.6124 50.2565 7.49167C50.0417 7.36975 49.6513 7.36555 49.4763 7.50179C49.1745 7.75395 48.8627 7.65414 48.5546 7.684C48.2308 7.73298 47.8698 7.61643 47.5974 7.75625C47.3092 7.91519 47.0745 7.66419 46.8329 7.74724C46.6883 7.80818 46.5437 7.86913 46.3985 7.91155C46.3178 7.93306 46.222 7.99221 46.1722 7.95695C45.7755 7.73044 45.3558 7.83858 44.9325 7.81704C44.5579 7.79371 44.0879 7.84806 43.8002 8.02553C43.5199 7.88747 43.2726 7.76674 42.976 7.62928C42.8676 7.81871 42.791 7.98842 42.6978 8.1402C42.4819 7.98123 42.3326 7.87545 42.0177 7.66448C42.374 7.6143 42.5532 7.62627 42.6973 7.5468C42.8576 7.46673 43.0195 7.44223 43.1819 7.43627C43.0746 7.08786 43.4528 7.24087 43.4943 6.97972C43.0719 6.99524 42.6454 6.86254 42.3143 7.22705C42.2142 7.13801 42.1634 7.0657 42.0968 7.01251C42.0025 7.12724 41.9082 7.24197 41.861 7.29934C41.5839 7.27243 41.3235 7.26345 41.0782 7.21682C40.8498 7.18812 40.6622 6.87975 40.3609 7.15045C40.2341 7.26637 39.904 7.09305 39.6918 7.06375C39.5682 7.29083 39.4602 7.49879 39.3366 7.72587C39.0379 7.5143 38.789 7.338 38.5234 7.14376C38.3673 7.37203 38.1896 7.41565 37.9743 7.2752C37.7584 7.11623 37.542 6.93873 37.3094 6.76183C37.3021 6.50247 37.2948 6.24311 37.2885 6.02081C37.4148 5.88635 37.5086 5.75309 37.6191 5.63777C37.6018 5.60131 37.5683 5.56546 37.5515 5.54753C37.4556 5.60668 37.3603 5.68436 37.2471 5.70706C37.1177 5.73036 36.9872 5.71661 36.841 5.72198C36.7808 5.89109 36.7037 6.04229 36.6435 6.2114C36.677 6.24726 36.7278 6.31957 36.8117 6.40922C36.6503 6.45223 36.5051 6.49465 36.3113 6.53886C36.5449 6.75281 36.7624 6.96737 37.0133 7.21778C36.9195 7.35103 36.8258 7.48429 36.7005 7.65579C36.5669 7.53089 36.3862 7.46335 36.3332 7.31693C36.208 6.91355 36.0199 6.58665 35.6705 6.30277C35.5934 6.45396 35.5002 6.60574 35.4226 6.7384C35.1423 6.60034 34.8484 6.55551 34.7567 6.18798C34.2605 6.46583 34.1468 6.47001 33.4526 6.06898C33.4211 6.10722 33.374 6.16459 33.31 6.20402C33.0224 6.38149 32.7541 6.09463 32.4942 6.10418C32.2181 6.11432 31.9671 6.4388 31.6863 6.28221C31.5212 6.19555 31.4735 6.23439 31.3122 6.27741C31.0863 6.34134 30.8233 6.23973 30.4806 6.19668C30.4654 6.23433 30.4204 6.3658 30.3611 6.57196C30.2448 6.48351 30.161 6.39387 29.9441 6.19785C30.0588 6.23072 30.0091 6.19546 29.9933 6.21458C29.4652 6.51215 28.8946 6.45893 28.3706 6.32982C27.9447 6.21565 27.4275 6.32738 27.0581 5.91441C26.9911 5.8427 26.7809 5.88751 26.6683 5.92873C26.5556 5.96996 26.4618 6.10322 26.399 6.1797C26.4681 6.32552 26.5205 6.45341 26.5724 6.56278C26.1427 6.89382 25.787 6.38763 25.4003 6.5131C25.5674 6.67386 25.7188 6.85375 25.9027 7.03244C25.8645 7.40474 25.5904 7.48899 25.2671 7.5565C25.4327 7.66169 25.5988 7.7854 25.7644 7.89058C25.7015 7.96707 25.6229 8.06268 25.5443 8.15829C25.3756 7.94195 25.1964 7.92999 25.0098 8.23355C24.9716 8.03097 24.9507 7.86484 24.9129 7.68077C24.4555 7.60485 24.0227 7.82474 23.5847 7.85938C23.2116 7.89163 22.6919 7.91071 22.2758 8.14853C22.2239 8.03917 22.171 7.89276 22.0668 7.65551C22.0516 7.69315 22.0972 7.58021 22.1585 7.44814C22.1255 7.43081 22.0752 7.37703 22.0264 7.37882C21.4579 7.3997 20.8884 7.38353 20.3209 7.44146C19.9804 7.47251 19.5088 7.47129 19.163 7.31709C19.0702 7.4874 18.9943 7.67564 18.9015 7.84595C18.7857 7.77602 18.6526 7.66964 18.6369 7.68876C18.4336 7.9744 18.2298 7.66663 18.0354 7.69231C17.7923 7.71979 17.5481 7.71021 17.3045 7.71916C16.8334 7.73646 16.3876 7.49321 15.9024 7.58521C15.5141 7.65511 15.1196 7.5027 14.7124 7.48057C14.419 7.45425 14.2996 7.25465 14.1172 7.13153C14.0381 7.20862 13.9585 7.26718 13.8317 7.3831C13.7106 7.12792 13.6069 6.9092 13.5199 6.7084C13.5671 6.65103 13.5828 6.63191 13.5985 6.61279C13.8684 6.38034 14.1791 7.01799 14.4264 6.56384C14.7188 6.5531 15.0269 6.52323 15.3198 6.53102C15.5645 6.55912 15.8107 6.6428 16.0397 6.69003C16.145 6.38944 16.2357 6.14503 16.3567 5.82532C17.0232 6.39427 17.7834 6.25508 18.4269 6.58379C18.4929 6.61846 18.6066 6.61428 18.6705 6.57485C19.2458 6.21991 19.8693 6.41954 20.4839 6.30424C20.4798 6.15604 20.4761 6.02637 20.4698 5.80406C20.1591 5.74129 19.7855 5.75501 19.4722 5.59962C19.2579 5.49622 19.1646 5.648 19.0342 5.63425C18.8062 5.62408 18.5511 5.80035 18.3483 5.52963C18.1791 5.29476 18.0308 5.80092 17.828 5.5302C17.7772 5.45789 17.5666 5.48417 17.4534 5.50687C17.0484 5.55883 16.6418 5.55522 16.2477 5.42134C16.2315 5.42193 16.2137 5.36695 16.1812 5.36815C15.4188 5.43324 14.6612 5.09018 13.8857 5.26702C13.7406 5.30944 13.6127 5.38831 13.5006 5.44806C13.2654 5.17853 13.0306 4.92753 12.7797 4.67712C12.5229 4.79782 12.3464 4.87849 12.1378 4.97887C11.7339 4.493 11.1234 4.7565 10.6435 4.45887C9.86802 4.63571 9.12454 4.21795 8.34854 4.37626C8.23118 4.25076 8.09758 4.12586 7.99698 4.01828C7.81831 4.02485 7.67212 4.03021 7.5097 4.03618C7.27704 4.43417 7.25658 4.86145 7.31682 5.26722C6.94899 5.48472 7.01974 5.11122 6.83584 4.93253C6.6755 5.0126 6.48373 5.13091 6.24322 5.25102C6.36268 5.45062 6.43079 5.55939 6.48213 5.65023C6.4119 6.04225 6.19653 6.47669 6.28664 6.78864C6.39613 7.21115 6.32642 7.62168 6.44009 8.1924C6.274 8.06868 6.20799 8.03402 6.07491 7.92764C5.96644 8.11707 5.82653 8.34475 5.70234 8.5533C5.56612 8.33577 5.47967 8.1535 5.37751 7.99035C5.00392 8.00407 4.66335 8.03513 4.30548 8.02973C4.04507 8.02075 3.80404 8.12232 3.53788 7.90956C3.4048 7.80318 3.09671 7.83304 2.90389 7.9143C2.51929 8.11388 2.09645 8.11086 1.69299 8.21841C1.97174 8.30089 2.23424 8.38397 2.62773 8.49933C2.30758 8.67799 2.09956 8.7969 1.90779 8.91521C1.96227 9.1172 2.03299 9.3186 2.08852 9.55764C2.41443 9.58276 2.75657 9.60728 3.1967 9.64675C3.29259 9.5876 3.50008 9.45016 3.74006 9.31153C3.79246 9.43942 3.82756 9.53086 3.88047 9.67727C4.0429 9.6713 4.23781 9.66414 4.44897 9.65639C4.47675 9.48847 4.48828 9.32114 4.51554 9.13469C4.80791 9.12395 4.92632 9.2865 4.96613 9.54467C5.02218 9.80224 5.07771 10.0413 5.13533 10.3544C4.65014 10.4464 4.17593 10.9275 3.62683 10.484C3.45339 10.6758 3.29306 10.7559 3.12278 10.484C2.98654 10.8413 2.82937 10.4577 2.68423 10.5001C2.39395 10.5849 2.07014 10.6339 1.78038 10.7373C1.53883 10.8203 1.31561 10.9769 1.03844 10.95C0.957224 10.953 0.864475 11.1233 0.738717 11.2762C1.58544 11.3193 2.30954 11.6265 3.10701 11.6529C3.82326 11.6822 4.51854 12.1203 5.31444 12.0911C5.44909 12.253 5.60103 12.4514 5.88815 12.8303C5.42864 12.6803 5.16614 12.5972 4.83762 12.4795C4.69562 12.633 4.50646 12.844 4.33302 13.0358C4.29949 12.9999 4.24919 12.9461 4.16536 12.8565C4.12029 12.988 4.07522 13.1194 4.04588 13.2318C4.20987 13.2814 4.4729 13.383 4.75217 13.484C4.75583 13.6137 4.76001 13.7619 4.76524 13.9472C4.48755 13.9017 4.19151 13.7828 3.94892 13.8288C3.69008 13.8754 3.4716 13.6238 3.16769 13.8018C2.97591 13.9202 2.57667 13.601 2.36865 13.7199C2.06422 13.8795 1.84469 13.5908 1.58899 13.7486C1.5434 13.8615 1.4669 14.0312 1.37572 14.2571C1.73724 14.3922 2.0993 14.5458 2.51008 14.6976C2.52893 14.7896 2.54936 14.9372 2.57031 15.1034C3.12518 15.1757 3.6963 15.2475 4.33291 15.3353C4.77984 15.6156 4.41671 15.9999 4.31452 16.4116C4.11856 16.3817 3.92208 16.3333 3.72612 16.3034C3.70987 16.304 3.69206 16.249 3.65958 16.2502C3.32896 16.0584 3.06696 16.5687 2.71854 16.3219C2.37011 16.075 2.07144 16.4384 1.76439 16.5053C1.44058 16.5543 1.4699 17.0168 1.31375 17.2451C1.462 17.8887 2.19296 17.287 2.32497 17.9312C2.69855 17.9175 3.03965 17.9049 3.34827 17.8936C3.45095 18.0753 3.53635 18.2205 3.638 18.3651C3.8921 18.7267 3.8921 18.7267 3.61176 19.1635C2.89237 19.023 2.29507 18.5999 1.53848 18.2939C1.5762 18.4779 1.5961 18.607 1.61548 18.7176C1.61548 18.7176 1.66421 18.7158 1.6967 18.7146C2.06924 18.6638 1.92669 19.3738 2.39564 19.2823C2.62199 19.2369 2.90544 19.4862 3.15275 19.6069C3.23501 19.641 3.30155 19.6941 3.40058 19.7461C2.97928 20.3736 2.81217 19.6379 2.45431 19.6325C2.36103 19.7843 2.25204 19.9552 2.11213 20.1829C2.04716 20.1853 1.91774 20.2086 1.78832 20.2319C1.74744 20.5116 1.70656 20.7912 1.651 21.1271C1.81343 21.1211 2.00835 21.114 2.23575 21.1056C2.21058 21.3662 2.19957 21.552 2.17441 21.8126C2.04656 21.8914 1.83906 22.0289 1.64729 22.1472C1.71697 22.3115 1.80237 22.4567 1.9061 22.6755C2.08268 22.5948 2.25873 22.4956 3.66347 22.7222C4.73076 23.091 4.55575 23.2272 4.42424 23.1764C3.68494 22.9068 2.88486 22.7879 2.34887 22.2327C2.40913 22.0636 2.45368 21.9136 2.49979 21.8192C2.7298 21.9034 2.96139 22.0433 2.99283 22.005C3.1799 21.72 3.33027 21.8628 3.52884 21.9853C3.6614 22.0732 3.90818 22.1754 4.00407 22.1162C4.40282 21.842 4.60715 22.1683 4.87331 22.381C4.87907 22.5848 4.88482 22.7886 3.66347 22.7222C2.5752 22.7622 2.69831 23.0914 2.82247 23.4578C2.70982 23.499 2.62913 23.5205 2.51647 23.5617C2.47614 23.2851 2.4531 23.0448 2.40963 22.657C2.27338 23.0143 2.19897 23.2581 2.10779 23.484C2.02605 23.4685 1.92807 23.4535 1.83061 23.4571C1.68495 23.481 1.52304 23.5055 1.37843 23.5665C1.26577 23.6077 1.15469 23.7045 1.01112 23.8025C1.19398 23.9441 1.36007 24.0678 1.52616 24.1916C1.44756 24.2872 1.41612 24.3254 1.36896 24.3828C1.60002 24.5041 1.81432 24.6075 2.02914 24.7294C2.03175 24.822 2.03437 24.9147 1.94162 25.085C2.14964 24.9661 2.27696 24.8687 2.42053 24.7707C2.38962 24.8274 2.37494 24.8836 2.34403 24.9404C2.45877 24.9733 2.59029 25.0241 2.70503 25.0569C2.67359 25.0952 2.6584 25.1328 2.62696 25.1711C2.43152 25.1597 2.22036 25.1675 1.94162 25.085C1.95577 25.0103 1.82478 24.978 1.79334 25.0163C1.58951 25.2834 1.40191 25.5499 1.16769 25.8923C1.4129 25.9389 1.57637 25.97 1.73985 26.0011C1.74299 26.1122 1.74456 26.1678 1.74717 26.2604C1.60203 26.3029 1.45637 26.3268 1.2625 26.371C1.4616 26.512 1.62821 26.6543 1.82784 26.8138C1.50086 27.3265 1.18908 27.8016 0.877825 28.2952C0.929169 28.386 0.981036 28.4954 1.04967 28.6227C0.905576 28.7022 0.793968 28.7804 0.681837 28.8402C0.832181 29.5579 0.917554 30.278 1.48446 30.7765C1.66836 30.9552 1.80615 31.2283 1.89469 31.4846C1.99947 31.7404 2.02408 32.0362 2.08118 32.3308C1.98477 32.3715 1.9046 32.4115 1.79195 32.4527C1.80923 32.4892 1.82757 32.5627 1.84434 32.5806C1.92607 32.5962 2.00624 32.5561 2.0885 32.5902C2.33424 32.6554 2.45265 32.8179 2.42853 33.1155C2.40284 33.3575 2.29281 33.4914 2.08217 33.5177C1.95223 33.5224 1.82229 33.5272 1.70859 33.5314C1.67767 33.5882 1.64623 33.6264 1.64623 33.6264C1.68028 33.6808 1.73006 33.7161 1.78036 33.7698C1.74996 33.8451 1.70333 33.921 1.61162 34.1284C1.82017 34.028 1.94854 33.9677 2.06067 33.9079C2.16597 34.1822 2.28647 34.4189 2.66111 34.4422C3.00325 34.4667 3.44233 34.4691 3.66918 35.0171C3.36475 35.1767 3.12268 35.2412 2.87067 34.9537C2.56836 34.6125 2.2084 34.533 1.77403 34.6973C1.89976 35.1192 2.25605 35.069 2.605 35.3344C1.84211 35.381 1.18978 35.3122 0.472975 35.8392C0.31787 36.1046 0.936668 36.1375 0.946084 36.4709C1.35372 36.5116 1.44435 36.8421 1.40661 37.2329C1.74405 37.0907 1.74405 37.0907 1.56959 36.6706C1.71578 36.6652 1.8452 36.6419 1.99138 36.6365C2.02125 36.5427 2.0506 36.4304 2.07942 36.2995C2.35555 36.2893 2.64792 36.2786 2.97278 36.2667C2.98376 36.6557 2.99475 37.0447 3.00521 37.4153C3.25566 37.6471 3.39606 38.0129 3.76651 37.888C3.88544 38.0691 3.98813 38.2508 4.09029 38.4139C4.23439 38.3344 4.33027 38.2753 4.55401 38.1372C4.46754 38.5299 4.40989 38.7916 4.35329 39.0904C5.1104 39.4149 5.90421 39.3116 6.65766 39.5065C6.65975 39.5806 6.66236 39.6732 6.6655 39.7843C6.35689 39.7957 6.06452 39.8064 5.78839 39.8166C5.70035 40.1536 5.61126 40.4536 5.53842 40.753C5.39223 40.7584 5.27853 40.7625 5.06737 40.7703C5.12973 40.6753 5.16064 40.6185 5.22248 40.505C5.10616 40.4165 4.95474 40.2366 4.84157 40.2593C4.43811 40.3669 4.08707 40.0274 3.68257 40.0979C3.92985 40.7935 4.06293 40.8999 4.85096 41.1677C5.09722 41.2514 5.32828 41.3727 5.4928 41.4408C5.8192 42.0593 5.36176 42.5583 5.47438 43.092C5.26898 43.3035 5.13326 43.6794 4.72352 43.5646C4.64963 43.827 4.56002 44.1084 4.47041 44.3899C4.83089 44.4879 5.14212 44.5692 5.4544 44.6876C5.58591 44.7384 5.46643 45.1136 5.7237 45.0115C5.91652 44.9302 6.07529 44.7946 6.34671 44.6177C6.6066 44.6081 6.99642 44.5938 7.37001 44.5801C7.44809 44.466 7.5424 44.3512 7.60528 44.2747C7.79601 44.1194 9.66656 44.1434 9.97884 44.2617C10.0417 44.1853 10.0889 44.1279 10.1832 44.0132C10.1491 43.9588 10.1151 43.9044 10.0475 43.8141C10.0789 43.7759 10.1093 43.7006 10.1565 43.6432L11.4151 43.3003C11.6844 43.6242 12.0197 43.4079 12.3294 43.4336C12.704 43.4569 13.1221 43.2932 13.4512 43.4295C13.7965 43.5652 14.1978 43.3835 14.431 43.579C14.7799 43.8443 15.1923 43.4768 15.4637 43.8748C15.481 43.9113 15.5611 43.8713 15.6266 43.8874C16.2779 43.9191 16.9455 43.9502 17.5973 44.0005C17.8744 44.0274 18.1537 44.1284 18.4304 44.1368C18.6913 44.1643 18.9664 44.1171 19.243 44.1255C19.308 44.1231 19.3593 44.2139 19.4599 44.3215C19.4542 44.1177 19.4505 43.988 19.4458 43.8213C19.3463 43.7508 19.2294 43.6438 18.9795 43.4304C19.5365 43.5769 19.5365 43.5769 19.8875 43.9163C19.9373 43.9516 20.0499 43.9104 20.8657 44.0102C21.3541 44.0294 21.0732 43.8728 21.0098 43.9307C20.8526 44.122 20.6142 43.7413 20.5424 44.0777C20.4099 43.9899 20.2616 43.9211 20.1285 43.8148C20.0955 43.7974 20.1401 43.6474 20.1537 43.5542C20.6436 43.6289 21.1167 43.6857 21.5899 43.7425C21.592 43.8166 21.594 43.8907 20.8657 44.0102C20.2663 44.0879 20.402 44.2869 20.5204 44.4494C20.8453 44.4375 21.1555 44.4817 21.4295 44.3975C21.8167 44.2905 22.1332 44.5571 22.5073 44.5619C22.8327 44.5685 23.156 44.501 23.518 44.6546C23.8801 44.8082 24.3815 44.7156 24.7849 44.608C24.9626 44.5644 25.0412 44.4688 25.256 44.5907C25.454 44.6947 25.7296 44.6661 25.9717 44.6015C26.1818 44.5567 26.3023 44.7934 26.5266 44.6739C26.7184 44.5556 26.961 44.5096 27.1706 44.4462C27.2995 44.4044 27.4671 44.5837 27.5913 44.3752C27.607 44.356 27.7569 44.4803 27.8554 44.5138C28.0199 44.5819 28.3007 44.7385 28.3322 44.7003C28.5035 44.4344 28.6424 44.7445 28.787 44.6836C28.9478 44.622 29.0909 44.5055 29.3146 44.3675C29.1024 44.3382 28.9557 44.325 28.7922 44.294C28.7739 44.2204 28.755 44.1284 28.7529 44.0543C28.7844 44.0161 28.7996 43.9784 28.8158 43.9778C29.2219 43.9629 29.6117 43.9486 30.0178 43.9337C30.0366 44.0257 30.0555 44.1177 30.0754 44.2468C30.3971 44.1237 30.7021 43.9827 31.0248 43.8967C31.1055 43.8752 31.2365 43.9075 31.3193 43.96C31.6012 44.1537 31.8427 44.0706 32.0974 43.8758C32.1812 43.9655 32.2483 44.0372 32.3489 44.1448C32.6544 44.0223 32.9908 43.843 33.3235 44.109C33.39 44.1622 33.4712 44.1592 33.5524 44.1562C34.6093 44.1545 35.6729 44.3936 36.7413 44.2245C37.2432 44.1504 37.7174 44.2443 38.2277 44.4666C38.1664 44.5987 38.1046 44.7122 38.0291 44.919C38.5463 44.8073 38.9817 45.2549 39.5911 44.9543C39.1158 44.8234 38.7391 44.726 38.2644 44.6136C38.5049 44.4935 38.649 44.4141 38.8093 44.334C38.954 44.2731 39.0996 44.2492 39.2605 44.1876C39.4585 44.2916 39.7058 44.4123 39.9862 44.5504C39.874 44.6102 39.7787 44.6878 39.6503 44.7482C39.7834 44.8546 39.9002 44.9615 40.05 45.0858C40.1397 44.8044 40.1989 44.5982 40.2743 44.3915C40.289 44.3353 40.3529 44.2958 40.3687 44.2767C40.5169 44.3455 40.6495 44.4333 40.7648 44.4847C40.7202 44.6347 40.6751 44.7662 40.6311 44.9347C41.0891 45.0291 41.0776 44.6216 41.2012 44.3945C41.3474 44.3891 41.5408 44.3264 41.6728 44.3957C41.8216 44.483 41.9211 44.5535 42.0956 44.3987C42.0673 44.5481 42.0228 44.6981 41.9945 44.8475C41.9945 44.8475 42.0448 44.9013 42.0773 44.9001C42.2402 44.9127 42.4021 44.8882 42.5645 44.8822C43.0518 44.8643 43.5533 44.7717 44.1485 45.1208C44.0117 44.8847 43.9766 44.7933 43.8907 44.6295C44.2491 44.6534 44.5567 44.6051 44.8517 44.6869C45.0974 44.7521 45.3159 44.4288 45.5999 44.6966C45.7838 44.8752 46.1715 44.7868 46.4812 44.8125C46.4938 44.6823 46.5215 44.5143 46.5331 44.347C46.5656 44.3458 46.5818 44.3452 46.6143 44.344C46.6352 44.5102 46.6724 44.6757 46.6939 44.8604C47.035 44.8478 47.3761 44.8353 47.7659 44.821C47.7785 44.6907 47.8063 44.5228 47.833 44.3178C48.6698 44.5838 49.4929 44.3681 50.3391 44.3927C50.337 44.3186 50.3512 44.2439 50.3512 44.2439C49.9053 44.0006 49.4427 43.7394 48.9811 43.5153C48.783 43.4113 48.7678 43.449 48.5609 43.03C49.0592 42.8263 49.3452 43.1681 49.6638 43.5088C49.6931 43.3964 49.7225 43.2841 49.7958 43.0032C49.8519 43.2608 49.9059 43.4443 49.9436 43.6283C49.9907 43.5709 50.0541 43.513 50.1013 43.4556C50.4047 43.259 50.7081 43.0624 51.0272 42.8467C50.8778 42.7409 50.904 42.5174 50.6625 42.6005C50.4534 42.6823 50.1118 42.6763 49.9777 42.5329C49.7424 42.2634 49.4982 42.8287 49.3248 42.4456C48.9345 42.4414 48.5274 42.4193 48.1208 42.4157C48.0914 42.528 48.0773 42.6027 48.0479 42.7151C47.7325 43.0605 47.5418 42.6409 47.2919 42.4276C47.2939 42.5017 47.2651 43.2074 47.253 43.3562C47.0948 42.9355 46.9885 42.6242 46.8648 42.2764C46.7228 42.4299 46.5966 42.5644 46.4388 42.7371C46.2885 42.5942 46.1543 42.4508 46.0543 42.3618C45.9411 42.3845 45.8452 42.4436 45.7954 42.4084C45.6461 42.3026 45.5135 42.2147 45.4569 42.5135C45.5062 42.5303 45.556 42.5655 45.589 42.5829C45.4784 42.6982 45.3998 42.7938 45.305 42.89C45.3065 42.9456 45.3086 43.0197 45.3107 43.0938C45.5711 43.1028 45.831 43.0932 46.0909 43.0837C46.0998 43.3986 46.1082 43.695 46.116 43.9729C45.9578 43.5522 45.5014 43.5133 45.3107 43.0938C45.1672 43.1918 45.0409 43.3262 44.8978 43.4428C44.8643 43.4069 44.814 43.3531 44.7469 43.2814C44.498 43.68 44.1789 43.8957 43.7776 43.5024C43.4564 43.6441 43.1871 43.3201 42.8622 43.3321C42.7973 43.3345 42.7286 43.2072 42.6448 43.1175C43.0415 42.7691 43.5911 43.2311 43.819 42.6664C43.588 42.5451 43.3401 42.4058 43.0598 42.2678C42.8879 42.5152 42.6585 42.4494 42.4253 42.254C42.2545 42.5384 41.9443 42.4942 41.7635 42.4267C41.5492 42.3233 41.3412 42.4422 41.1264 42.3202C40.9446 42.2156 40.6711 42.3184 40.4437 42.3268C40.5008 42.0465 40.5438 41.8409 40.5862 41.6168C41.007 41.5457 41.4445 41.4926 41.9622 41.3994C41.98 41.4544 42.0659 41.6181 42.1361 41.801C42.1838 41.7621 42.2315 41.7233 42.2791 41.6845C42.2928 41.5912 42.3221 41.4789 42.3509 41.348C42.4646 41.3438 42.5946 41.3391 42.757 41.3331C42.7748 41.3881 42.8104 41.498 42.8628 41.6259C42.9765 41.6218 43.1065 41.617 43.2689 41.611C43.2831 41.5363 43.3124 41.424 43.3575 41.2925C43.4712 41.2883 43.6011 41.2836 43.7311 41.2788C43.7923 41.7216 44.1597 41.4856 44.3572 41.571C44.571 41.6559 44.8282 41.5537 45.0729 41.5818C45.1704 41.5783 45.2542 41.6679 45.3695 41.7193C45.4318 41.6243 45.5099 41.5102 45.5723 41.4151C45.9642 41.4749 46.2775 41.6303 46.6815 41.5413C47.1179 41.4511 47.633 41.2653 48.082 41.6197C48.4431 41.1613 48.6406 41.8217 48.9492 41.8104C49.1409 41.6921 49.3484 41.5546 49.5559 41.4172C49.7047 41.5044 49.8902 41.7387 50.0249 41.3258C50.0946 41.4901 50.147 41.618 50.2161 41.7638C50.5682 41.5654 50.9051 41.4047 51.318 41.6306C51.5161 41.7346 51.8215 41.6121 52.0641 41.5661C52.2098 41.5422 52.3544 41.4813 52.4838 41.458C52.5373 41.6229 52.5724 41.7144 52.6253 41.8608C52.8438 41.5375 53.0639 41.2698 53.494 41.5322C53.5281 41.5865 53.5973 41.7324 53.6669 41.8967C53.6355 41.9349 53.5889 42.0108 53.526 42.0873C53.6077 42.1029 53.691 42.174 53.7555 42.1531C54.1568 41.9714 54.542 41.7904 54.9428 41.5902C55.0266 41.6799 55.1115 41.8066 55.2273 41.8765C55.3593 41.9458 55.5228 41.9769 55.6695 41.9901C55.7675 42.005 55.8639 41.9644 55.9771 41.9417C55.9813 42.0899 55.9854 42.2381 55.9902 42.4048C55.714 42.4149 55.4217 42.4257 55.1455 42.4358C55.0397 42.7179 54.9658 42.9802 54.8301 43.3561C54.6436 42.5099 54.0033 42.8672 53.6365 42.5469C53.5668 42.9574 53.4971 43.368 53.4132 43.8532C53.5594 43.8479 53.6731 43.8437 53.7706 43.8401C53.6805 43.5281 53.9053 43.4272 54.0766 43.1612C54.2626 43.414 54.3983 43.613 54.5675 43.8479C54.6456 43.7338 54.7237 43.6196 54.8489 43.4481C55.0113 43.4422 55.2194 43.3233 55.4688 43.5181C55.5688 43.6071 55.8245 43.4494 56.1148 43.3645C56.0388 43.5528 56.0095 43.6651 55.9304 43.7422C55.8198 43.8575 55.6919 43.9364 55.5489 44.0529C55.6532 44.2902 55.7564 44.4904 55.8774 44.7456C55.9031 44.5036 55.9309 44.3356 55.956 44.0751C56.4129 44.1325 56.8698 44.1899 57.3759 44.264C57.3057 44.0811 57.2528 43.9347 57.1659 43.7339C57.4258 43.7244 57.6207 43.7172 57.8481 43.7089C57.8685 43.8565 57.8889 44.0041 57.9104 44.1887C57.9916 44.1858 58.0896 44.2007 58.2033 44.1965C58.1336 44.0322 58.065 43.9049 57.978 43.7041C58.2693 43.6563 58.5125 43.6288 58.7881 43.6002C58.8667 43.5046 58.961 43.3898 59.0867 43.2368C59.3068 43.544 59.5268 43.8512 59.7631 44.1578C60.0042 44.0562 60.2452 43.9546 60.4862 43.853C60.4354 43.7807 60.3688 43.7275 60.2845 43.6194C60.6256 43.6068 60.9342 43.5955 61.2753 43.583C61.279 43.7127 61.2832 43.8609 61.29 44.1017C61.5153 44.0192 61.7867 43.8424 61.837 43.8962C62.056 44.1663 62.1917 43.7904 62.3725 43.8579C62.5695 43.9249 62.7654 43.9548 62.9782 44.0026C63.1495 43.7367 63.3706 43.506 63.6929 43.4015L64.4684 43.2246C64.6643 43.2545 64.8435 43.2665 65.0704 43.2396C65.5393 43.1482 65.5577 43.2217 65.7416 42.8255C65.772 42.7502 65.8024 42.6749 65.8637 42.5428C65.5347 42.4066 65.1731 42.2715 65.3686 41.708C65.858 41.7642 65.9716 42.3349 66.4369 42.6887C66.4191 42.6337 66.1896 42.568 66.3908 42.2082C66.5721 42.2943 66.7696 42.3798 66.9342 42.4479C66.9394 42.6331 66.9436 42.7813 66.9514 43.0592C66.8472 42.822 66.7953 42.7126 66.7429 42.5847C66.6795 42.6427 66.6323 42.7001 66.4531 42.6881C66.231 42.8817 66.1581 43.1811 65.8532 43.3221C66.1953 43.3466 66.5673 43.2773 66.7947 43.8439C66.8346 43.5271 66.8461 43.3598 66.8571 43.174C67.2197 43.3461 67.5382 43.6867 67.9668 43.3187C68.1099 43.2021 68.3724 43.2852 68.5835 43.2775C68.6055 43.4806 68.626 43.6282 68.6469 43.7944C68.9393 43.7836 69.2317 43.7729 69.5403 43.7616C69.6189 43.666 69.7132 43.5512 69.8232 43.4174C70.0019 43.4108 70.3131 43.4921 70.4075 43.3774C70.6275 43.1097 70.7669 43.4383 70.944 43.3762C71.1368 43.2949 71.3129 43.1957 71.5052 43.096C71.5199 43.0398 71.5335 42.9466 71.5476 42.8719C71.5633 42.8527 71.5791 42.8336 71.611 42.8139C71.6975 42.9962 71.7996 43.1593 71.9028 43.3595C72.3414 43.3434 72.7794 43.3088 73.2023 43.3118C73.6089 43.3154 74.0265 43.1332 74.409 43.4344C74.454 43.3029 74.4834 43.1906 74.5274 43.022C75.1745 43.4804 75.8881 43.4171 76.586 43.373C77.1865 43.3324 77.7712 43.3109 78.3727 43.3073C78.6164 43.2984 78.8496 42.9189 79.0738 43.3743C79.1487 43.149 79.1781 43.0367 79.2074 42.9243C79.3264 43.1054 79.4453 43.2865 79.548 43.4682C79.6271 43.3911 79.6737 43.3152 79.7529 43.2381C79.8849 43.3074 80.0169 43.3768 80.149 43.4461C80.2606 43.3678 80.3722 43.2895 80.5158 43.1915C80.6179 43.3547 80.7196 43.4993 80.7877 43.6081C80.9643 43.5274 81.0753 43.4306 81.189 43.4264C81.9331 43.2878 82.687 43.5012 83.4201 43.5485C83.6648 43.5766 83.9383 43.4738 84.2196 43.6489C84.4512 43.7888 84.8054 43.6645 85.0978 43.6537C85.4551 43.6406 85.7968 43.6466 86.1536 43.615C87.1093 43.4871 88.0461 43.8422 89.0186 43.7323C89.2617 43.7048 89.5101 43.8626 89.782 43.7042C89.9261 43.6248 90.2022 43.6146 90.3191 43.7216C90.602 43.9523 90.8729 43.7569 91.1516 43.8394C91.1778 43.6159 91.2051 43.4294 91.2313 43.2059C91.4162 43.4217 91.5677 43.6015 91.6856 43.7456C91.7841 43.779 91.8328 43.7773 91.882 43.794C92.111 43.8412 92.3505 43.6841 92.5684 43.9171C92.7529 44.1144 93.0112 43.4743 93.2354 43.9297C93.4209 43.5891 93.6279 44.008 93.8369 43.9262C94.0628 43.8622 94.3232 43.8712 94.5679 43.8993C94.7146 43.9125 94.8482 44.0374 94.9949 44.0505C95.1091 44.0649 95.2139 43.7458 95.3517 44.0189C95.369 44.0554 95.4654 44.0147 95.4984 44.0321C95.7798 44.2072 96.0544 43.5666 96.343 44.001C96.6501 43.9341 96.9802 44.1074 97.2652 43.8373C98.0071 44.1995 98.8209 43.6504 99.5633 44.0311C99.6954 44.1004 99.873 44.0568 100.035 44.0508C100.929 44.018 101.822 43.9852 102.715 43.9524C102.992 43.9423 103.251 43.9142 103.528 43.9226C103.739 43.9333 104.037 44.1079 104.164 44.0105C104.435 43.7965 104.682 43.9358 104.941 43.8707C105.36 43.744 105.742 44.0452 106.162 43.9371C106.243 43.9156 106.36 44.0225 106.503 43.9245C106.647 43.8266 106.857 43.7817 107.02 43.8128C107.968 43.982 109.009 43.9809 109.914 43.7807C110.059 43.7568 110.225 43.862 110.387 43.8561C110.924 43.8549 111.476 43.8161 112.012 43.7964C112.19 43.7898 112.383 43.7086 112.535 43.907C112.586 43.9793 112.765 43.9913 112.829 43.9518C113.242 43.6214 113.701 43.7529 114.14 43.7368C115.195 43.6795 116.251 43.6407 117.307 43.6204C117.567 43.6109 117.84 43.4711 118.075 43.7406C118.108 43.7765 118.222 43.7537 118.286 43.7328C118.927 43.4126 119.582 43.5554 120.249 43.568C120.281 43.5668 120.332 43.6391 120.366 43.675C120.733 43.439 121.063 43.0374 121.546 43.4462C121.646 43.5352 121.855 43.4534 122.018 43.4474C123.512 43.3925 124.99 43.3382 126.485 43.2833C126.793 43.272 127.099 43.168 127.382 43.3987C127.696 42.9978 127.999 43.3761 128.309 43.4018C128.634 43.4084 128.959 43.3964 129.284 43.366C129.478 43.3403 129.671 43.259 129.945 43.1748C130.079 43.3182 130.28 43.5334 130.448 43.7127C130.658 43.6864 130.905 43.7701 130.845 43.4013C131.052 43.2268 131.232 43.2573 131.4 43.4737C131.536 43.0978 131.773 43.4229 131.967 43.3787C132.112 43.3548 132.337 43.2353 132.421 43.3249C132.654 43.5389 132.894 43.3817 133.122 43.4104C133.318 43.4403 133.559 43.3202 133.712 43.5742C133.806 43.4595 133.901 43.3447 134.026 43.1918C134.238 43.184 134.466 43.1942 134.709 43.1667C135.47 43.0646 136.215 42.963 136.992 42.8418C137.004 42.693 137.032 42.525 137.056 42.2274C137.195 42.5561 137.299 42.7748 137.404 43.0306C137.789 42.831 138.139 42.5771 138.647 42.7068C139.024 42.8228 139.474 42.6208 139.909 42.4935C139.811 42.4786 139.713 42.4451 139.615 42.4302C139.174 42.3907 138.739 42.518 138.294 42.3118C138.031 42.1916 137.662 42.3721 137.354 42.4019C137.353 42.3649 137.351 42.2908 137.331 42.1802C137.526 42.1546 137.736 42.1097 137.931 42.1211C138.47 42.194 138.985 42.0268 139.468 41.8421C139.918 41.6772 140.307 41.6073 140.749 41.7394C140.88 41.7717 141.056 41.654 141.218 41.6295C141.477 41.5829 141.751 41.5172 142.011 41.5076C142.271 41.4981 142.517 41.5632 142.795 41.6087C142.823 41.4593 142.837 41.3846 142.85 41.2543C143.216 40.9812 143.425 41.4742 143.782 41.4426C143.781 41.4241 143.811 41.3117 143.84 41.2179C143.889 41.1976 143.936 41.1587 143.985 41.157C144.962 41.1953 145.899 40.9939 146.78 40.535C146.941 40.455 147.153 40.4843 147.332 40.4777C148.03 40.452 148.728 40.4264 149.459 40.3995C149.47 40.2137 149.466 40.0655 149.478 39.9167C149.878 39.6609 150.26 39.3873 150.787 39.0526C151.16 39.0019 151.682 39.0754 152.345 38.9398C152.115 38.8555 152.016 38.822 151.885 38.7712C151.931 38.6768 151.961 38.6015 152.008 38.5256C151.843 38.439 151.678 38.3708 151.563 38.3009C151.386 38.363 151.225 38.4246 150.967 38.5268C151.108 38.3361 151.156 38.2788 151.202 38.2029C150.918 37.9351 150.734 38.3128 150.442 38.3421C150.421 38.1759 150.4 38.0098 150.379 37.8437C151.14 37.723 151.852 37.6041 152.596 37.4841C152.675 37.3884 152.769 37.2737 152.864 37.159C153.59 36.9839 154.317 36.7903 155.027 36.6159C154.641 36.185 154.2 36.1085 153.687 36.3684C153.601 36.2232 153.5 36.0786 153.398 35.9154C153.494 35.8563 153.541 35.8174 153.589 35.7971C154.562 35.6872 155.551 35.5952 156.524 35.5039C156.816 35.4746 157.04 35.3551 157.242 34.9953C156.833 34.9176 156.507 34.8925 156.186 35.0527C156.074 35.1124 155.93 35.1733 155.815 35.159C155.228 35.0878 154.656 34.979 153.953 34.8565C154.523 34.3163 155.108 34.2948 155.675 34.2184C155.574 33.5174 154.991 33.5944 154.658 33.3285C154.735 33.1773 154.78 33.0458 154.872 32.857C154.283 32.7303 153.767 32.879 153.197 32.8258C153.24 32.6388 153.334 32.5055 153.48 32.4816C153.657 32.438 153.821 32.4876 153.861 32.1709C153.874 32.0592 154.162 31.8817 154.309 31.9134C154.685 31.9923 155.025 31.3678 155.397 31.8549C155.735 31.7497 156.074 31.6445 156.428 31.5203C156.589 31.4773 156.733 31.3978 156.893 31.2992C156.649 31.2711 156.384 31.1324 156.182 31.4366C155.978 31.1288 155.69 31.3063 155.429 31.2788C155.168 31.2513 154.926 31.2973 154.661 31.1401C154.446 31.0182 154.125 31.1413 153.865 31.1508C153.605 31.1603 153.329 31.1705 153.02 31.1818C153.582 31.5135 153.599 31.5315 154.332 31.5602C154.111 31.8094 153.863 31.6701 153.669 31.7143C153.427 31.7603 153.182 31.7322 152.906 31.7424C152.82 31.5971 152.718 31.434 152.582 31.2165C152.156 31.1023 151.548 31.4584 151.139 30.7688C151.996 30.626 152.79 30.5041 153.599 30.3632C153.612 30.2699 153.626 30.1952 153.64 30.102C154.141 30.0094 154.659 29.8977 155.16 29.8051C155.234 29.5428 155.308 29.2989 155.382 29.0366C156.246 29.0976 157.036 28.8831 157.827 28.6686C157.875 28.6483 157.906 28.5915 158 28.4583C157.901 28.4248 157.804 28.4099 157.705 28.3764C157.736 28.3381 157.752 28.319 157.784 28.2808C157.767 28.2629 157.733 28.227 157.733 28.227C157.654 28.2856 157.559 28.4003 157.478 28.4033C156.26 28.4665 155.042 28.4928 153.791 28.5387C153.746 28.1138 153.16 28.0797 153.273 27.4821C153.58 27.3967 153.886 27.3112 154.209 27.2252C154.257 27.2049 154.339 27.2019 154.338 27.1649C154.531 26.5272 155.023 26.6946 155.428 26.6241C155.784 26.5739 156.138 26.4496 156.495 26.418C156.835 26.3684 157.194 26.3923 157.616 26.3768C157.367 26.2005 157.216 26.0392 156.956 26.0302C156.403 26.0134 155.84 26.2381 155.31 25.9052C154.898 26.2912 154.495 25.8239 154.059 25.9326C153.623 26.0413 153.133 25.9666 152.679 26.0018C152.014 26.0633 151.378 26.0125 150.705 25.7776C150.912 25.6217 151.103 25.4663 151.246 25.3498C151.874 25.1413 152.518 25.4885 153.075 25.0601C153.398 25.5489 153.691 24.9818 154 25.0075C154.31 25.0332 154.603 25.041 154.906 24.8259C155.081 24.6897 155.377 24.8086 155.619 24.7626C155.846 24.7172 156.055 24.6353 156.28 24.5529C156.473 24.4716 156.665 24.3718 156.986 24.2117C156.757 24.183 156.676 24.1675 156.611 24.1698C155.894 24.1405 155.194 24.0921 154.478 24.0627C154.413 24.0651 154.33 24.0125 154.264 23.9964C154.166 23.9629 154.067 23.9295 153.985 23.8769C153.835 23.7526 153.717 23.6085 153.583 23.4651C154.026 23.0408 154.552 23.2255 155.035 23.0594C154.578 23.0205 154.164 22.7576 153.694 22.8119C153.402 22.8412 153.091 22.7414 152.781 22.6971C152.773 22.4193 152.767 22.2155 152.759 21.9376C152.954 21.9304 153.166 21.9597 153.36 21.897C153.553 21.8528 153.694 21.6436 153.939 21.6903C154.151 21.7196 154.378 21.6741 154.589 21.6664C154.8 21.6586 155.027 21.6503 155.303 21.6401C155.379 21.4519 155.455 21.2451 155.546 21.0007C155.414 20.9499 155.348 20.9153 155.283 20.8991C155.118 20.831 154.954 20.7628 154.773 20.6953C154.867 20.5621 154.914 20.5047 154.96 20.4288C154.91 20.375 154.876 20.3391 154.843 20.3033C154.944 19.8545 155.29 20.0087 155.533 19.9627C155.852 19.747 155.732 18.954 156.386 19.0783C156.32 19.0622 156.238 19.0281 156.172 19.012C156.091 18.9964 155.994 19.0185 155.96 18.9641C155.859 18.8566 155.797 18.9701 155.732 18.954C155.195 18.9366 154.672 18.8631 154.134 18.8087C154.069 18.7925 154.001 18.7023 153.918 18.6312C154.4 18.428 154.85 18.2446 155.364 18.0402C155.422 17.7785 155.359 17.2801 155.895 17.2604C155.437 17.1659 155.015 17.2 154.593 17.2155C154.171 17.231 153.732 17.2471 153.326 17.262C153.209 17.1365 153.125 17.0284 152.989 16.8479C153.165 16.7487 153.278 16.7075 153.374 16.6483C153.373 16.6298 153.373 16.6113 153.372 16.5742C153.032 16.6238 152.934 16.0339 152.547 16.1594C152.418 16.2012 152.235 16.0411 152.103 15.9903C152.138 15.4883 152.667 15.8027 152.72 15.3742C152.72 15.3557 153.425 15.0145 153.458 15.0133C153.75 15.0025 154.043 14.9918 154.315 14.852C153.225 14.8364 152.119 14.8028 151.159 14.801C150.813 14.6468 150.723 14.3163 150.416 14.3832C150.109 14.4501 149.859 14.2368 149.658 14.0216C149.406 13.7527 149.045 13.6176 148.918 13.1772C149.048 13.1724 149.178 13.1676 149.341 13.1617C149.358 13.2167 149.394 13.3266 149.43 13.4551C149.508 13.3224 149.585 13.1713 149.646 13.0392C149.68 13.0936 149.73 13.1288 149.764 13.1832C150.216 13.0739 150.668 12.9646 151.137 12.8546C151.151 12.7799 151.148 12.6873 151.161 12.557C150.557 12.4865 149.97 12.4153 149.366 12.3448C149.363 12.2151 149.359 12.0669 149.355 11.9557C149.482 11.8398 149.593 11.743 149.704 11.6462C149.621 11.5566 149.586 11.4836 149.553 11.4848C149.423 11.4711 149.243 11.4221 149.147 11.4998C148.925 11.6748 148.748 11.7555 148.546 11.5033C147.833 11.5851 147.159 11.3502 146.488 11.1894C146.046 11.0759 145.608 11.092 145.168 11.071C145.101 10.9993 145.051 10.9455 144.933 10.82C144.927 10.5977 144.919 10.3013 144.906 9.8567C144.732 10.03 144.652 10.0886 144.59 10.165C144.527 10.2415 144.48 10.3174 144.34 10.5266C144.279 10.1208 144.24 9.88116 144.201 9.64152C144.12 9.64451 144.07 9.62777 143.94 9.63255C143.994 9.79749 144.062 9.92478 144.082 10.0539C144.103 10.2015 144.091 10.3503 144.093 10.4429C144.292 10.5839 144.441 10.6712 144.64 10.8122C144.528 10.8535 144.464 10.9114 144.383 10.9144C144.059 10.9634 143.953 10.652 143.753 10.4739C143.816 10.3975 143.847 10.3592 143.91 10.2827C143.795 10.2313 143.696 10.1793 143.597 10.1273C143.658 10.0138 143.704 9.88232 143.781 9.73114C143.55 9.62834 143.366 10.0245 143.145 9.69883C143.044 9.55421 142.659 9.73526 142.476 9.61214C142.294 9.48902 142.124 9.79199 142.003 9.53681C141.832 9.83978 141.567 9.64555 141.358 9.74593C141.305 9.59952 141.27 9.48956 141.235 9.39813C140.923 9.29831 140.525 9.5911 140.332 9.09748C140.833 8.98635 141.35 8.89316 141.883 8.76232C141.921 8.94638 141.942 9.13104 142.001 9.46271C142.107 9.19918 142.168 9.04859 142.229 8.91652C142.627 9.19861 142.936 9.18727 143.256 8.99009C143.383 8.91121 143.563 8.92317 143.708 8.89928C143.751 8.67518 143.793 8.45109 143.837 8.26404C143.443 8.13016 143.064 7.95862 142.672 7.89884C142.28 7.83906 141.874 7.8725 141.484 7.86829C141.256 7.85812 141.044 7.82882 140.751 7.80251C140.735 7.84016 140.657 7.9543 140.58 8.10548C140.792 8.11625 141.003 8.1085 141.198 8.10134C141.305 8.43122 141.213 8.63858 140.975 8.83278C140.855 8.61465 140.719 8.39712 140.565 8.12461C140.429 7.9256 140.294 7.74511 140.125 7.52877C139.933 7.64709 139.757 7.74628 139.565 7.86459C139.642 8.28829 139.802 8.17118 140.021 7.88494C140.043 8.08812 140.064 8.25425 140.104 8.51242C139.907 8.44548 139.792 8.39408 139.66 8.34327C139.564 8.40243 139.468 8.46159 139.309 8.56018C139.299 8.22672 139.291 7.94884 139.284 7.68948C139.037 7.58728 138.787 7.35539 138.643 7.43486C138.354 7.57528 138.126 7.56511 137.878 7.42585C137.694 7.82205 137.49 7.49575 137.277 7.44793C136.95 7.38576 136.623 7.32359 136.281 7.29906C135.939 7.27454 135.583 7.32472 135.225 7.33784C135.19 7.22788 135.154 7.11792 135.101 6.97151C135.038 7.02947 134.99 7.06832 134.943 7.12569C134.499 6.93801 134.745 6.46533 134.604 6.04401C134.427 6.12468 134.266 6.18622 134.089 6.26688C133.889 5.5139 133.889 5.5139 133.34 5.62682C133.373 5.66267 133.407 5.71705 133.508 5.82463C133.378 5.84793 133.233 5.87182 133.103 5.89512C133.154 5.94891 133.22 6.0021 133.271 6.05589C133.065 6.2489 132.771 6.20406 132.461 6.17834ZM59.3205 42.301C59.245 42.5078 59.2157 42.6201 59.1538 42.7337C59.0307 42.9793 58.8903 43.1884 58.6665 43.3265C58.6346 43.3462 58.5842 43.2924 58.5188 43.2762C58.5151 43.1466 58.5109 42.9984 58.5078 42.8872C58.2495 42.9523 58.0231 42.9977 57.7485 43.0635C57.7365 42.6374 57.7266 42.2854 57.713 41.8037C57.8172 42.041 57.8691 42.1503 57.921 42.2597C58.0797 42.1241 58.2385 41.9884 58.3967 41.8342C58.4832 42.0165 58.535 42.1259 58.5874 42.2538C58.8704 41.9096 59.1015 42.0309 59.1606 42.3996C59.583 42.3841 59.8428 42.3746 60.0702 42.3662C60.0325 42.1821 60.0121 42.0345 59.9749 41.869C60.0074 41.8678 60.0231 41.8487 60.0556 41.8475C60.2086 42.0829 60.3453 42.319 60.4983 42.5545C60.995 42.2951 61.0438 42.2934 61.5059 42.536C61.6322 42.4016 61.7579 42.2486 61.9314 42.0568C62.0414 42.4978 62.5339 42.0903 62.5821 42.6448C62.3552 42.6717 62.1289 42.7171 61.967 42.7416C61.9224 42.8916 61.8926 42.9854 61.8627 43.0792C61.7993 43.1372 61.7354 43.1766 61.6557 43.2352C61.618 43.0511 61.5646 42.8862 61.5268 42.7021C61.4325 42.8169 61.3854 42.8742 61.3225 42.9507C61.2208 42.8061 61.136 42.6794 61.0516 42.5712C60.5732 42.9041 60.0802 42.7182 59.6102 42.7725C59.562 42.7929 59.4431 42.6118 59.3205 42.301ZM111.3 43.3404C111.151 43.2531 111.018 43.1653 110.836 43.0607C111.139 42.827 111.259 43.0452 111.019 43.1838C110.876 43.3189 110.766 43.4342 110.703 43.5107C110.425 43.4467 110.144 43.2901 110.048 43.3678C109.812 43.6176 109.548 43.516 109.29 43.5626C109.16 43.5859 108.963 43.5189 108.9 43.5954C108.617 43.9211 108.32 43.7651 108.043 43.7567C107.834 43.2452 108.386 43.2249 108.375 42.8358C108.711 43.2129 108.917 43.0385 109.15 42.6405C108.953 42.5735 108.789 42.5239 108.624 42.4558C108.41 42.3709 108.229 42.2663 108.331 41.8731C108.659 41.9538 108.97 42.0351 109.2 42.1008C109.303 42.3196 109.372 42.4654 109.442 42.6297C109.396 42.7242 109.35 42.8186 109.288 42.9321C109.827 43.0236 110.366 43.0965 111.3 43.3404ZM111.753 9.31268C111.895 9.14058 112.052 8.94936 112.193 8.75873C112.541 9.00556 112.866 8.99363 113.136 8.76118C113.563 8.89388 113.94 9.02836 114.384 9.17898C114.289 9.27519 114.193 9.33434 114.131 9.42935C114.036 9.54409 113.975 9.69468 113.929 9.78909C113.177 9.63128 112.457 9.47228 111.359 8.58538C111.498 8.89554 111.603 9.16984 111.689 9.33359C111.612 9.5033 111.567 9.63477 111.522 9.74772C111.193 9.61145 110.945 9.49071 110.682 9.38911C110.452 9.30483 110.297 9.55163 110.102 9.57732C109.924 9.6024 109.726 9.47989 109.53 9.44999C109.481 9.45178 109.435 9.5462 109.356 9.62329C109.317 9.4207 109.296 9.23604 109.258 9.03345C108.966 9.6376 108.934 9.67585 108.592 9.6328C108.232 9.57182 107.888 9.45467 107.527 9.35665C107.516 9.5425 107.52 9.6907 107.523 9.78333C107.422 9.67576 107.305 9.55025 107.238 9.47854C106.735 9.51556 106.328 9.51195 105.957 9.6183C105.812 9.66072 105.734 9.77485 105.551 9.63321C105.252 9.38459 104.808 9.80886 104.504 9.41204C104.32 9.78971 103.87 9.41678 103.702 9.77533C103.633 9.64804 103.579 9.46457 103.497 9.44903C103.202 9.36714 103.132 9.16575 103.123 8.86934C103.12 8.73966 103.002 8.59563 102.999 8.48448C103.012 8.37273 103.122 8.2574 103.153 8.20063C103.383 8.28491 103.58 8.33332 103.744 8.40146C103.763 8.49349 103.782 8.58552 103.801 8.69608C103.963 8.67158 104.109 8.64769 104.222 8.64352C104.251 8.49412 104.264 8.4009 104.263 8.36384C104.477 8.43019 104.657 8.4792 104.853 8.52762C104.891 8.69316 104.911 8.85929 104.949 9.04335C105.107 8.87065 105.233 8.71768 105.327 8.60295C105.525 8.68841 105.657 8.75774 105.789 8.82707C105.849 8.65796 105.879 8.56414 105.909 8.47031C106.06 8.6502 106.228 8.82949 106.379 8.99085C106.81 8.73391 107.182 8.66461 107.285 8.84628C107.369 8.93593 107.469 9.02498 107.586 9.15048C107.646 8.96284 107.675 8.85049 107.72 8.7005C108.537 8.8374 109.387 8.41674 110.227 8.8124C110.309 8.84647 110.471 8.82198 110.535 8.76401C110.788 8.51364 111.086 8.70668 111.753 9.31268ZM16.4803 40.722C16.0921 40.7919 15.7662 40.7667 15.5099 40.906C15.2375 41.0458 14.9907 40.9436 14.746 40.9155C14.4363 40.8898 14.1413 40.8079 13.8474 40.763C13.7866 40.9136 13.741 41.0266 13.6808 41.1957C13.565 41.1258 13.4497 41.0744 13.2679 40.9698C13.2066 41.1018 13.1301 41.2716 13.084 41.366C12.7895 41.3026 12.5925 41.2357 12.3965 41.2058C12.1681 41.1771 11.8563 41.0773 11.8506 40.8735C11.8417 40.5585 11.2622 40.7653 11.5268 40.3476C11.8354 40.3362 12.144 40.3249 12.4364 40.3142C12.4563 40.4432 12.4752 40.5353 12.5124 40.7008C12.5878 40.4941 12.6334 40.3811 12.6942 40.2305C13.0872 40.3274 13.4964 40.4236 13.8893 40.5204C13.9522 40.4439 14.0151 40.3674 14.0623 40.3101C14.0114 40.2378 13.9606 40.1655 13.8412 39.9659C14.1042 40.0675 14.2195 40.1189 14.351 40.1697C14.3803 40.0573 14.4097 39.945 14.439 39.8326C14.5207 39.8482 14.602 39.8452 14.7329 39.8775C14.691 40.1201 14.648 40.3257 14.6077 40.6239C15.0483 40.6818 15.5047 40.7207 15.9778 40.7775C16.1015 40.5504 16.1775 40.3622 16.286 40.1728C16.5909 40.0318 16.7449 40.3043 16.9461 40.5194C17.3344 39.8746 17.9962 40.2769 18.4746 39.944C18.4777 40.0552 18.4793 40.1108 18.4814 40.1849C18.6951 40.2697 18.91 39.8168 19.1662 40.2524C19.0551 40.3492 18.9445 40.4646 18.7548 40.657C19.0944 40.5889 19.3239 40.6546 19.578 40.4413C19.8316 40.2094 20.1533 40.0863 20.4415 39.9274C20.5379 39.8868 20.6658 39.8079 20.7318 39.8426C21.097 40.1073 21.4989 39.9442 21.8578 39.9867C21.9107 40.1331 21.9463 40.243 22.0176 40.463C22.1412 40.2359 22.2183 40.0847 22.2649 40.0088C22.5735 39.9975 22.8009 39.9891 23.0608 39.9796C23.0482 40.1098 23.0346 40.2031 23.022 40.3333C22.858 40.2837 22.7427 40.2323 22.6112 40.1815C22.5819 40.2939 22.5525 40.4062 22.5227 40.5C22.0045 40.5747 21.4821 40.5012 20.9162 40.6147C21.0168 40.7222 21.0671 40.776 21.1509 40.8657C20.9738 40.9278 20.7993 41.0826 20.6683 41.0503C20.1103 40.8668 19.546 41.0359 18.9932 41.0377C18.7003 41.0299 18.3598 41.0609 18.0312 40.9432C17.9657 40.927 17.883 40.8744 17.818 40.8768C17.6729 40.9193 17.546 41.0352 17.4004 41.0591C17.2872 41.0818 17.1536 40.9569 17.0399 40.961C16.91 40.9658 16.7826 41.0632 16.6543 41.1236C16.5505 40.9048 16.5149 40.7949 16.4803 40.722ZM27.3179 7.62953C27.7727 7.61282 28.2804 7.74253 28.665 7.54296C29.4982 7.10437 30.424 7.64525 31.2058 7.11583C31.6055 7.4535 31.9901 7.25392 32.3752 7.07287C32.4397 7.05196 32.5539 7.06631 32.6037 7.10157C32.9049 7.40577 33.3016 7.05739 33.6003 7.26896C33.9319 7.49786 34.2851 7.33653 34.6105 7.34312C34.7242 7.33895 34.8347 7.22362 34.9301 7.14594C35.0951 7.2326 35.2602 7.31925 35.3922 7.38858C35.3985 7.61089 35.4042 7.81467 35.4121 8.09256C35.2287 7.93239 35.1113 7.80689 34.961 7.66405C34.5496 8.0686 34.1064 7.91798 33.6647 7.82293C33.651 7.91616 33.6369 7.99086 33.6233 8.08408C33.3236 7.83546 32.95 7.84918 32.7262 7.98722C32.3752 8.22265 32.0923 7.99196 31.7831 7.98477C31.5227 7.97579 31.3074 7.83534 31.0192 7.99429C30.7792 8.13291 30.435 8.03429 30.1426 8.04502C29.8665 8.05517 29.5767 8.15854 29.3299 8.05633C29.0339 7.93739 28.8405 8.57502 28.5518 8.14054C28.3485 8.42618 28.1798 8.20984 27.9666 8.1435C27.7046 8.07894 27.43 8.14466 27.1539 8.1548C27.0402 8.15898 26.9255 8.12611 26.7133 8.09681C26.8846 7.83089 27.0098 7.65939 27.1812 7.39347C26.761 7.48308 26.4985 7.40001 26.4513 6.88248C27.0245 7.02833 27.4972 6.49172 27.9242 6.64294C28.1422 6.87601 28.26 7.02004 28.3774 7.14554C28.2171 7.22561 27.9954 7.43774 27.9126 7.38514C27.6308 7.19151 27.5097 7.51122 27.3179 7.62953ZM29.913 43.103C29.4582 43.1197 29.0522 43.1346 28.6461 43.1495C28.643 43.0384 28.6403 42.9458 28.6362 42.7976C28.9631 42.8597 29.2733 42.904 29.584 42.9667C29.5829 42.9297 29.5987 42.9106 29.5976 42.8735C29.4824 42.8221 29.3833 42.7701 29.3011 42.736C29.2964 42.5693 29.2922 42.4211 29.288 42.2729C29.5002 42.3022 29.748 42.4415 29.8591 42.3447C30.1132 42.1313 30.2557 42.5712 30.4952 42.414C30.623 42.3351 30.8541 42.4565 31.0338 42.487C31.0474 42.3937 31.0616 42.319 31.0757 42.2443C31.2942 42.4959 31.5127 42.7475 31.7474 42.9985C32.0204 42.8772 32.1965 42.7781 32.3898 42.7153C32.6151 42.6329 32.8802 42.8086 33.0678 42.5421C33.0993 42.5038 33.247 42.554 33.3293 42.5881C33.6259 42.7256 33.9544 42.8433 34.2195 43.019C34.5339 43.2115 34.822 43.0525 35.1155 43.0788C35.1291 42.9856 35.1432 42.9109 35.1705 42.7245C35.2575 42.9253 35.3093 43.0346 35.3785 43.1804C35.5566 43.1553 35.751 43.1297 36.0911 43.0801C35.8448 42.9964 35.7463 42.9629 35.6148 42.9121C35.6269 42.7633 35.6222 42.5966 35.6468 42.3175C35.8779 42.4388 36.0439 42.5626 36.2069 42.5751C36.3698 42.5877 36.5286 42.452 36.7529 42.3325C36.745 42.6295 36.7356 42.871 36.7314 43.2976C36.625 42.9863 36.5894 42.8763 36.537 42.7484C36.4799 43.0287 36.0025 42.8237 36.1456 43.2821C36.6234 43.5056 37.0043 43.1763 37.4728 43.0664C37.3323 43.2756 37.1919 43.4847 37.0515 43.6939C36.7733 43.6299 36.4542 43.8456 36.2016 43.5396C36.1843 43.5032 36.056 43.5635 35.992 43.603C35.6745 43.8743 35.4277 43.7721 35.1437 43.5043C34.9934 43.3615 34.7115 43.1678 34.6449 43.6895C34.6318 43.8013 34.3735 43.8664 34.2137 43.965C34.1105 43.7648 34.0083 43.6017 33.9397 43.4744C33.7935 43.4797 33.6635 43.4845 33.5498 43.4887C33.521 43.6195 33.5079 43.7313 33.4786 43.8436C33.3612 43.7181 33.2774 43.6285 33.2103 43.5568C33.2569 43.4809 33.3041 43.4235 33.4613 43.2323C33.1558 43.3548 32.9787 43.4169 32.8184 43.497C32.701 43.3715 32.5842 43.2645 32.4668 43.139C32.3122 43.4229 32.0817 43.3201 31.8711 43.3464C31.465 43.3613 31.0584 43.3577 30.6686 43.372C30.6523 43.3726 30.635 43.3361 30.6015 43.3003C30.6157 43.2256 30.6293 43.1323 30.6272 43.0582C30.7886 43.0152 30.9342 42.9913 31.0794 42.9489C30.7037 42.8885 30.3668 42.4744 29.9513 42.7307C29.9366 42.7869 29.9246 42.9357 29.913 43.103ZM4.39551 32.524C4.23831 32.7152 4.22312 32.7529 4.20687 32.7535C4.09213 32.7206 3.94542 32.7074 3.87783 32.6172C3.67507 32.3465 3.31564 32.2855 3.1553 32.3656C2.85035 32.5066 2.60357 32.4044 2.31276 32.4707C2.30178 32.0817 2.17657 31.6783 2.30181 31.5068C2.53603 31.1644 2.02466 30.905 2.34167 30.6152C2.83471 30.801 3.36023 30.9857 3.902 31.1698C3.91194 31.5218 3.92136 31.8553 3.93391 32.2999C4.04918 32.3513 4.19746 32.42 4.39551 32.524ZM5.55974 32.8707C5.1956 32.643 4.91424 32.4679 4.64964 32.3107C4.56267 32.1099 4.52444 31.9073 4.42279 31.7627C4.32167 31.6366 4.17287 31.5493 4.02355 31.4435C4.11891 31.3659 4.14983 31.3091 4.19803 31.2888C4.24624 31.2685 4.31121 31.2661 4.36046 31.2828C4.5077 31.3145 4.65702 31.4203 4.78696 31.4155C4.94939 31.4095 5.22029 31.2141 5.25434 31.2685C5.40838 31.541 5.62636 31.1992 5.82703 31.3958C5.97845 31.5757 6.28654 31.5459 6.56528 31.6283C6.48616 31.7054 6.43848 31.7443 6.39027 31.7646C6.32635 31.804 6.2619 31.8249 6.16549 31.8656C6.56107 32.055 6.59617 32.1465 6.48613 32.2803C6.28965 32.2319 6.12565 32.1823 5.99414 32.1315C5.83956 32.4153 5.68341 32.6436 5.55974 32.8707ZM40.7339 43.3917C39.9039 43.9414 39.0771 43.4526 38.2178 43.5398C38.2456 43.3718 38.2597 43.2971 38.2896 43.2033C38.5982 43.192 38.9058 43.1436 39.183 43.1705C39.4926 43.1962 39.8275 42.9614 40.0973 43.3038C40.3483 42.9793 40.5809 43.1562 40.8445 43.2764C40.9597 43.3278 41.1552 43.3391 41.2343 43.2621C41.5183 42.9549 41.9474 43.1802 42.2283 42.7619C42.2691 43.0571 42.3063 43.2227 42.3273 43.3888C42.442 43.4217 42.5405 43.4552 42.475 43.439C42.4148 43.6081 42.3241 43.8525 42.203 44.1723C41.9662 43.8471 41.8138 43.6302 41.6618 43.4318C41.5822 43.4904 41.5502 43.5101 41.5025 43.5489C41.5534 43.6212 41.6037 43.675 41.6707 43.7467C41.5434 43.8441 41.4328 43.9595 41.2741 44.0951C41.0723 43.8614 40.9199 43.6445 40.7339 43.3917ZM26.7579 40.1961C26.3838 40.1913 26.0809 40.4064 25.7173 40.1972C25.4202 40.0413 25.0157 40.1117 24.6646 40.3472C24.5373 40.4446 24.3681 40.7846 24.1312 40.4595C24.0804 40.3872 23.8881 40.487 23.7241 40.4374C23.5271 40.3704 23.316 40.3782 23.1771 40.068C24.2817 39.4526 25.4223 40.1154 26.5064 39.9272C26.5902 40.0168 26.674 40.1065 26.7579 40.1961ZM121.456 43.1157C121.307 43.0285 121.207 42.9394 121.125 42.9424C120.947 42.949 120.783 42.8993 120.609 43.0726C120.53 43.1497 120.31 42.8425 120.106 43.1097C119.996 43.262 119.453 43.0409 119.368 42.8957C119.447 42.8001 119.51 42.7236 119.51 42.7236C119.877 42.5061 120.191 42.68 120.512 42.5199C120.752 42.3997 121.115 42.5719 121.442 42.634C121.446 42.7637 121.45 42.9119 121.456 43.1157ZM104.09 42.5481C103.593 42.1955 103.092 42.3252 102.507 42.3281C102.73 42.153 102.855 42.0001 103.001 41.9576C103.161 41.8961 103.357 41.926 103.52 41.92C103.548 41.7521 103.562 41.6774 103.574 41.5471C103.737 41.5597 103.884 41.5543 104.095 41.5651C104.003 41.7725 103.942 41.886 103.911 41.9613C103.982 42.1627 104.036 42.3647 104.09 42.5481ZM16.2551 39.6547C16.8734 39.0941 17.4188 39.4079 17.9763 39.5729C17.2202 39.8603 17.2202 39.8603 16.2551 39.6547ZM57.2697 42.228C57.0936 42.3272 56.9972 42.3678 56.917 42.4078C56.9181 42.4449 56.9354 42.4813 56.9364 42.5184C57.1313 42.5112 57.3425 42.5035 57.5699 42.4951C57.5599 42.718 57.5484 42.8854 57.5238 43.1644C57.2744 42.9696 57.1245 42.8453 56.8919 42.6684C56.7132 42.675 56.4858 42.6833 56.2097 42.6935C56.4947 42.4234 56.7321 42.1921 56.8909 42.0565C57.0549 42.1061 57.1539 42.1581 57.2697 42.228ZM102.008 9.68917C102.408 9.47048 102.206 9.19976 102.265 8.99359C102.354 8.6936 102.363 8.43364 102.719 8.36494C102.742 8.60518 102.456 8.83822 102.771 9.0492C102.853 9.10179 102.798 9.43763 102.804 9.65994C102.577 9.66829 102.398 9.67485 102.008 9.68917ZM110.675 41.3605C110.351 41.9844 109.912 41.4071 109.593 41.6228C109.587 41.419 109.583 41.2893 109.578 41.1041C109.971 41.2009 110.369 40.9081 110.675 41.3605ZM114.346 8.42003C114.251 8.49771 114.14 8.59451 114.028 8.69132C113.831 8.62438 113.601 8.5401 113.372 8.47435C113.368 8.32615 113.364 8.17794 113.359 8.01121C113.659 8.25983 114.112 7.61266 114.346 8.42003ZM80.3943 41.1932C81.4129 40.9888 81.4129 40.9888 81.6675 41.3689C81.3605 41.4358 81.0377 41.5219 80.6662 41.6097C80.5986 41.5195 80.5132 41.3742 80.3943 41.1932ZM116.278 8.31198C116.003 8.95258 115.939 8.9735 115.437 8.49121C115.513 8.30297 115.605 8.09561 115.681 7.88885C115.88 8.04842 116.079 8.18946 116.278 8.31198ZM38.3798 7.81665C38.1823 8.30607 38.024 8.46023 37.7117 8.34189C37.5147 8.27495 37.3162 8.15243 37.4377 7.85125C37.7463 7.83992 38.055 7.82858 38.3798 7.81665ZM115.575 9.91409C115.442 9.80771 115.293 9.72045 115.143 9.59614C115.076 9.52443 115.024 9.41507 114.922 9.25192C115.263 9.23939 115.491 9.23103 115.751 9.22149C115.819 9.34878 115.905 9.494 115.99 9.63922C115.847 9.73722 115.703 9.83521 115.575 9.91409ZM58.8442 7.58422C58.5021 7.5597 58.151 7.79513 57.8618 7.34213C57.9404 7.24652 58.0033 7.17004 58.0976 7.0553C58.3255 7.06548 58.5697 7.07506 58.8296 7.06551C58.8348 7.25076 58.8379 7.36192 58.8442 7.58422ZM39.8873 41.624C40.0853 41.728 40.2666 41.814 40.5307 41.9527C40.2718 41.9993 40.1267 42.0417 39.981 42.0656C40.1152 42.209 40.232 42.316 40.3661 42.4594C40.1743 42.5777 40.0302 42.6572 39.9024 42.7361C39.4041 42.365 39.8008 42.0166 39.8873 41.624ZM27.8083 42.2716C28.2505 42.3852 28.7127 42.053 29.1507 42.5932C28.6634 42.6111 28.2411 42.6266 27.8188 42.6421C27.8151 42.5125 27.813 42.4384 27.8083 42.2716ZM2.07919 29.9572C2.19028 29.8604 2.29979 29.708 2.42921 29.6847C2.63932 29.6399 2.85048 29.6321 3.06268 29.6614C3.12818 29.6776 3.19734 29.8234 3.24868 29.9142C3.00817 30.0343 2.83421 30.2076 2.65502 30.1957C2.47687 30.2208 2.29349 30.0606 2.07919 29.9572ZM117.482 43.4657C117.363 43.3031 117.279 43.1764 117.21 43.0676C117.32 42.9153 117.414 42.8005 117.446 42.7623C117.754 42.751 117.982 42.7426 118.258 42.7325C117.972 42.984 117.735 43.2153 117.482 43.4657ZM142.574 8.45878C142.449 8.64881 142.34 8.81972 142.231 8.9721C142.112 8.79102 141.957 8.48145 141.908 8.48324C141.699 8.58363 141.568 8.55135 141.412 8.18621C141.84 8.37448 142.252 7.98845 142.574 8.45878ZM68.4347 43.1902C68.3017 43.0838 68.2184 43.0127 68.1523 42.978C68.2283 42.7898 68.2891 42.6392 68.3656 42.4695C68.4631 42.4659 68.5773 42.4803 68.6742 42.4582C68.7549 42.4366 68.801 42.3422 68.8959 42.246C68.9996 42.4647 69.0525 42.6112 69.139 42.7934C68.8634 42.8221 68.6527 42.8484 68.4746 42.8735C68.462 43.0037 68.4484 43.097 68.4347 43.1902ZM39.3423 41.9036C39.4125 42.0865 39.4654 42.2329 39.5362 42.4343C38.9939 42.2317 38.9939 42.2317 39.0699 41.4685C39.2679 41.5725 39.4492 41.6586 39.7133 41.7973C39.5357 41.8409 39.4712 41.8618 39.3423 41.9036ZM39.8228 8.2458C39.4492 8.25953 39.0919 8.27265 38.702 8.28697C38.9305 7.74078 39.3439 7.98523 39.6672 7.91772C39.6997 7.91653 39.7657 7.95119 39.8155 7.98645C39.8176 8.06055 39.8196 8.13465 39.8228 8.2458ZM107.925 42.4629C107.682 42.4719 107.422 42.4814 107.146 42.4916C107.156 42.2872 107.151 42.1204 107.162 41.9346C107.475 42.0529 107.721 42.1366 107.967 42.2203C107.938 42.3326 107.939 42.3882 107.925 42.4629ZM25.3604 42.5284C25.3572 42.4173 25.3384 42.3253 25.3541 42.3061C25.767 41.9572 26.107 42.4825 26.4974 42.4867C26.14 42.4998 25.7827 42.5129 25.3604 42.5284ZM114.613 8.09495C114.896 8.30711 115.269 8.27487 115.299 8.75593C114.749 8.86885 114.732 8.83239 114.613 8.09495ZM4.28935 28.1884C3.88642 28.3145 3.74444 27.8932 3.44579 27.6816C3.95824 27.4032 4.08554 27.8807 4.28935 28.1884ZM64.4888 8.24849C64.2038 7.9437 64.0194 7.74649 63.8177 7.51281C64.4312 7.36046 64.4983 7.43218 64.4888 8.24849ZM64.9216 43.1523C64.4128 42.9856 64.4128 42.9856 64.4412 42.2613C64.5061 42.2589 64.5873 42.2559 64.6523 42.2535C64.7251 42.529 64.8137 42.7854 64.9216 43.1523ZM15.9457 43.6717C15.5533 43.5934 15.1933 43.5139 14.8334 43.4344C14.8323 43.3973 14.8318 43.3788 14.847 43.3411C15.2044 43.328 15.5617 43.3149 15.9353 43.3012C15.9389 43.4308 15.941 43.5049 15.9457 43.6717ZM106.184 41.8222C106.182 41.7666 106.181 41.7296 106.179 41.674C106.423 41.665 106.683 41.6555 106.927 41.6465C106.936 41.9615 106.944 42.2579 106.952 42.5543C106.838 42.5399 106.756 42.5244 106.723 42.5071C106.766 42.283 106.793 42.078 106.849 41.7792C106.574 41.8079 106.379 41.815 106.184 41.8222ZM63.0673 42.5528C63.3413 42.4686 63.5834 42.4041 63.8574 42.3198C63.9077 42.3736 63.9753 42.4638 64.0424 42.5356C63.8988 42.6336 63.771 42.7124 63.6269 42.7919C63.5933 42.7561 63.5268 42.7029 63.4765 42.6491C63.4294 42.7064 63.366 42.7644 63.3188 42.8218C63.2512 42.7315 63.1679 42.6604 63.0673 42.5528ZM101.962 43.739C102.153 43.6207 102.329 43.5215 102.489 43.4229C102.656 43.5652 102.886 43.6494 102.733 43.9889C102.487 43.9052 102.224 43.8221 101.962 43.739ZM133.293 7.42737C133.37 7.25765 133.432 7.16264 133.462 7.06882C133.491 6.93795 133.503 6.80768 133.53 6.62123C133.911 6.84834 133.74 7.15131 133.813 7.4268C133.618 7.41544 133.488 7.42021 133.293 7.42737ZM111.542 41.5512C111.408 41.9827 111.257 41.8213 111.105 41.6414C111.042 41.7179 110.995 41.7753 110.853 41.9288C110.876 41.5942 110.872 41.4275 110.898 41.204C111.146 41.3432 111.327 41.4478 111.542 41.5512ZM15.1547 39.8434C15.2066 39.9528 15.3088 40.1159 15.3785 40.2803C15.3963 40.3353 15.3501 40.4297 15.3067 40.6167C15.1227 40.438 14.9891 40.3131 14.7885 40.1165C14.9478 39.9994 15.0594 39.9211 15.1547 39.8434ZM28.5931 44.1529C28.6104 44.1894 28.6272 44.2073 28.6607 44.2431C28.2222 44.2593 27.7998 44.2748 27.3613 44.2909C27.3602 44.2538 27.3597 44.2353 27.3587 44.1982C27.7647 44.1833 28.1871 44.1678 28.5931 44.1529ZM106.703 43.5092C106.914 43.5015 107.109 43.4943 107.32 43.4866C107.323 43.5977 107.325 43.6718 107.329 43.8015C107.118 43.8093 106.923 43.8164 106.712 43.8242C106.708 43.6945 106.706 43.6204 106.703 43.5092ZM120.026 41.9999C119.88 42.0238 119.799 42.0268 119.735 42.0662C119.671 42.1057 119.624 42.1816 119.593 42.2198C119.444 42.1325 119.312 42.0632 119.163 41.976C119.339 41.8582 119.515 41.7591 119.691 41.6599C119.792 41.7674 119.859 41.8391 120.026 41.9999ZM37.1941 7.8602C37.2114 7.89665 37.2124 7.9337 37.2297 7.97016C37.0385 8.107 36.831 8.24443 36.6077 8.40099C36.6015 8.17868 36.5978 8.049 36.5926 7.86375C36.8043 7.87452 36.9992 7.86736 37.1941 7.8602ZM82.313 42.9215C82.2411 43.258 82.15 43.4838 81.8235 43.4402C81.8183 43.2549 81.8136 43.0882 81.8079 42.8844C82.0033 42.8958 82.15 42.909 82.313 42.9215ZM83.6108 43.3931C83.6993 43.0746 83.7743 42.8493 83.8324 42.6061C83.9315 42.6581 83.997 42.6742 84.1123 42.7256C83.9729 42.9718 84.0326 43.3591 83.6108 43.3931ZM100.65 43.3607C100.306 43.2806 100.108 43.158 100.21 42.7463C100.488 42.8103 100.686 42.9143 100.65 43.3607ZM82.5382 43.414C82.9815 42.9897 83.1267 42.9473 83.2786 43.1457C83.2645 43.2204 83.2503 43.2951 83.2367 43.3883C83.0255 43.3961 82.8468 43.4026 82.5382 43.414ZM103.29 43.5789C103.518 43.5891 103.714 43.6005 103.974 43.6095C103.848 43.7624 103.77 43.8581 103.691 43.9537C103.64 43.8814 103.59 43.8276 103.539 43.7553C103.476 43.8317 103.429 43.8891 103.303 44.0236C103.297 43.8198 103.294 43.7271 103.29 43.5789ZM104.495 43.6274C104.77 43.0053 104.77 43.0053 105.178 43.0645C105.003 43.2008 104.812 43.3561 104.495 43.6274ZM27.5987 42.335C27.2933 42.4574 26.9878 42.5799 26.6729 42.369C26.9977 42.357 27.2901 42.3463 27.5987 42.335ZM24.9364 44.213C24.9348 44.1575 24.9338 44.1204 24.9484 44.0642C25.0784 44.0595 25.2089 44.0732 25.322 44.0505C25.4515 44.0272 25.5793 43.9483 25.7244 43.9059C25.7276 44.0171 25.7134 44.0918 25.7166 44.2029C25.4399 44.1945 25.1963 44.2035 24.9364 44.213ZM81.8634 42.5486C81.8294 42.4942 81.7791 42.4404 81.745 42.386C81.8383 42.2343 81.9158 42.1016 81.9934 41.9689C82.1102 42.0759 82.1935 42.147 82.3104 42.254C82.1348 42.3717 81.9913 42.4697 81.8634 42.5486ZM10.5219 39.8838C10.7236 40.1175 10.8734 40.2418 11.0762 40.5125C10.799 40.4856 10.6528 40.4909 10.5386 40.4766C10.5328 40.2728 10.5287 40.1246 10.5219 39.8838ZM97.0604 42.9176C97.0683 42.6206 97.0782 42.3977 97.084 42.0266C97.2402 42.3732 97.3271 42.574 97.4314 42.8113C97.3187 42.8525 97.2218 42.8746 97.0604 42.9176ZM14.8786 39.2787C15.0248 39.2733 15.171 39.2679 15.3334 39.262C15.3366 39.3731 15.3387 39.4472 15.3423 39.5769C15.1961 39.5823 15.05 39.5876 14.8875 39.5936C14.8839 39.4639 14.8818 39.3898 14.8786 39.2787ZM48.1768 43.2481C48.2087 43.2284 48.2575 43.2266 48.2894 43.2069C48.3591 43.3713 48.4283 43.5171 48.5158 43.7364C48.3533 43.7424 48.2884 43.7447 48.1909 43.7483C48.1862 43.5816 48.1815 43.4149 48.1768 43.2481ZM112.958 43.3351C112.775 43.1935 112.642 43.0871 112.426 42.9281C112.686 42.9186 112.832 42.9132 113.011 42.9066C112.998 43.0369 112.985 43.1487 112.958 43.3351ZM29.1602 40.0522C28.904 40.1915 28.6462 40.2751 28.3968 40.0803C28.6567 40.0707 28.9166 40.0612 29.1602 40.0522ZM20.3785 43.4532C20.6347 43.314 20.892 43.2118 21.3206 43.4186C20.882 43.4347 20.6221 43.4443 20.3785 43.4532ZM82.6992 7.65379C82.7332 7.70817 82.751 7.76315 82.7846 7.79901C82.64 7.85996 82.4791 7.9215 82.3345 7.98244C82.3156 7.89041 82.2962 7.77986 82.2769 7.6693C82.4393 7.66333 82.5692 7.65856 82.6992 7.65379ZM59.7889 8.79203C59.9859 8.28408 60.195 8.20222 60.524 8.33849C60.3003 8.47652 60.1242 8.57572 59.7889 8.79203ZM114.204 43.141C113.993 43.1487 113.831 43.1547 113.652 43.1613C113.787 42.7668 113.787 42.7668 114.204 43.141ZM64.2546 43.1397C64.0759 43.1463 63.9297 43.1517 63.6698 43.1612C63.8758 42.9682 64.0031 42.8708 64.1776 42.716C64.1991 42.9007 64.2184 43.0113 64.2546 43.1397ZM4.14345 33.3863C4.11253 33.4431 4.08109 33.4813 4.05017 33.5381C3.96791 33.504 3.86993 33.4891 3.80339 33.4359C3.73737 33.4012 3.68603 33.3104 3.63573 33.2566C3.66717 33.2184 3.69861 33.1801 3.71381 33.1425C3.86209 33.2112 3.99464 33.2991 4.14345 33.3863ZM118.943 42.8C118.832 42.8968 118.769 42.9918 118.689 43.0134C118.64 43.0337 118.588 42.9243 118.522 42.8896C118.569 42.8138 118.615 42.7193 118.679 42.6614C118.727 42.6411 118.811 42.7307 118.943 42.8ZM116.45 42.6134C116.41 42.9487 116.399 43.116 116.388 43.3019C116.27 43.1764 116.187 43.1052 116.104 43.0341C116.182 42.9385 116.245 42.862 116.45 42.6134ZM106.059 43.162C106.108 43.1602 106.156 43.1584 106.205 43.1566C106.195 43.3795 106.185 43.6024 106.191 43.8247C106.159 43.8259 106.126 43.8271 106.094 43.8283C106.071 43.6066 106.065 43.3843 106.059 43.162ZM80.8836 42.3991C80.7558 42.478 80.6772 42.5736 80.6441 42.5563C80.5776 42.5031 80.5263 42.4123 80.4754 42.3399C80.5226 42.2826 80.585 42.1876 80.6342 42.2043C80.7002 42.239 80.7673 42.3107 80.8836 42.3991ZM40.8257 7.48573C40.9635 7.75884 41.0321 7.88613 41.0148 7.84967C40.9855 7.96202 40.9572 8.11142 40.9283 8.24229C40.9116 8.22436 40.8786 8.20703 40.8618 8.1891C40.8414 8.04149 40.8367 7.87476 40.8257 7.48573ZM65.2318 42.6217C65.3712 42.9504 65.4408 43.1147 65.5273 43.297C65.4136 43.3012 65.3486 43.3036 65.2511 43.3071C65.2459 43.1219 65.2412 42.9551 65.2318 42.6217ZM28.5434 42.9679C28.4334 43.1017 28.371 43.1967 28.3385 43.1979C28.2563 43.1639 28.1892 43.0921 28.1384 43.0198C28.1216 43.0019 28.2149 42.8501 28.2474 42.8489C28.3286 42.8459 28.4114 42.8985 28.5434 42.9679ZM91.4954 42.7697C91.6798 42.9669 91.7631 43.038 91.814 43.1103C91.8648 43.1826 91.8679 43.2938 91.925 43.5884C91.7406 43.3912 91.6573 43.3201 91.6065 43.2478C91.5719 43.1749 91.5687 43.0637 91.4954 42.7697ZM37.1128 42.412C37.2318 42.0182 37.2318 42.0182 37.5886 41.9866C37.4141 42.1413 37.3036 42.2567 37.1128 42.412ZM61.2297 43.121C61.1019 43.1999 61.0233 43.2955 60.9903 43.2782C60.9237 43.225 60.8724 43.1342 60.8216 43.0618C60.8687 43.0045 60.9311 42.9095 60.9803 42.9262C61.0464 42.9609 61.1134 43.0326 61.2297 43.121ZM116.152 9.03985C116.201 9.03806 116.249 9.03627 116.298 9.03448C116.288 9.25738 116.278 9.48028 116.285 9.70258C116.252 9.70378 116.22 9.70497 116.187 9.70616C116.165 9.48446 116.158 9.26215 116.152 9.03985ZM99.0604 42.9183C99.1295 43.0642 99.2133 43.1538 99.1982 43.1915C99.1515 43.2673 99.0719 43.3259 99.0085 43.3839C98.9582 43.3301 98.8749 43.259 98.8895 43.2028C98.9037 43.1281 98.9666 43.0516 99.0604 42.9183ZM101.161 42.4703C101.231 42.6161 101.314 42.7057 101.299 42.7434C101.253 42.8193 101.173 42.8778 101.11 42.9358C101.059 42.882 100.976 42.8109 100.991 42.7547C101.005 42.68 101.068 42.6035 101.161 42.4703Z" fill="#008538"/>
<path d="M92.7484 4.79968C92.477 4.97655 92.2171 4.41121 92.019 4.8821C91.8325 4.61078 91.592 4.73089 91.3154 4.7225C91.3683 4.86892 91.4212 5.01533 91.4416 5.16294C91.462 5.31055 91.45 5.45935 91.5521 5.6225C91.582 5.52868 91.5962 5.45398 91.6564 5.28486C91.7539 5.28128 91.8995 5.25739 92.0452 5.23349C92.0625 5.26995 92.0635 5.307 92.0808 5.34345C91.9849 5.40261 91.8891 5.46176 91.6339 5.63804C92.1049 5.62074 92.4303 5.62733 92.7384 5.59747C93.1759 5.54431 93.5531 5.66027 93.8879 6.00032C93.9718 6.08996 94.119 6.12164 94.2348 6.19157C94.1871 6.23041 94.1562 6.28718 94.109 6.34455C94.1939 6.47124 94.2626 6.59854 94.3642 6.74316C94.491 6.62723 94.5701 6.55015 94.6335 6.49219C94.7493 6.56211 94.8646 6.61351 95.0626 6.7175C95.0202 6.36671 94.71 6.32248 94.7179 6.02547C94.9259 5.90656 95.1497 5.76853 95.4216 5.61018C95.1151 5.12073 94.8427 4.68567 94.5707 4.26912C94.5393 4.30737 94.4759 4.36533 94.413 4.44182C94.3774 4.33186 94.3418 4.2219 94.3056 4.09342C94.0782 4.10177 93.8508 4.11012 93.5747 4.12026C93.5626 4.26906 93.5349 4.43698 93.5076 4.62343C93.3777 4.6282 93.2477 4.63298 93.0853 4.63895C93.0649 4.49134 93.0272 4.30728 93.0057 4.12262C92.9245 4.1256 92.8432 4.12859 92.7133 4.13336C92.7364 4.37359 92.7426 4.5959 92.7484 4.79968Z" fill="#008538"/>
<path d="M97.3797 4.70375C97.0685 4.62246 96.7006 4.83995 96.2018 4.45029C96.3721 4.72221 96.4235 4.81305 96.491 4.90329C96.5586 4.99353 96.6262 5.08377 96.7939 5.26306C96.404 5.27738 96.1442 5.28692 95.8843 5.29647C95.8885 5.44467 95.8906 5.51878 95.8942 5.64846C96.2028 5.63712 96.4952 5.62638 96.8201 5.61445C96.8274 5.87381 96.8337 6.09611 96.842 6.39252C96.5821 6.40207 96.3385 6.41102 96.0786 6.42056C96.0797 6.45761 96.0807 6.49466 96.0818 6.53172C96.3904 6.52038 96.6827 6.50964 96.9913 6.4983C97.3445 6.33698 97.1051 5.91924 97.2272 5.63658C97.3734 5.63121 97.5033 5.62644 97.6332 5.62167C97.671 5.80573 97.6919 5.97187 97.7129 6.138C97.7454 6.13681 97.7778 6.13561 97.7941 6.13502C97.8056 5.96769 97.8339 5.81829 97.8454 5.65096C98.1195 5.56672 98.4774 5.57212 98.5743 5.55001C98.8803 5.44605 99.0348 5.73709 99.3183 5.98631C99.2528 5.39528 99.1433 4.97277 98.873 4.6118C98.7808 4.80064 98.7048 4.98888 98.6125 5.17772C98.3039 5.18905 98.0116 5.19979 97.6867 5.21172C97.5851 5.0671 97.4824 4.88542 97.3797 4.70375Z" fill="#008538"/>
<path d="M21.0844 5.68876C21.0226 5.8023 20.9451 5.93496 20.8371 6.14291C21.1143 6.16982 21.3097 6.18119 21.5219 6.21049C21.6058 6.30013 21.7063 6.4077 21.8405 6.55113C22.0826 6.48661 22.3964 6.66053 22.6317 6.35517C22.7972 6.46036 22.9785 6.54642 23.1603 6.65101C23.1918 6.61277 23.2552 6.5548 23.3023 6.49744C23.4029 6.60501 23.5035 6.71259 23.5874 6.80223C23.7807 6.7395 23.9751 6.71381 24.1344 6.59669C24.246 6.51841 24.3057 6.33077 24.3985 6.16046C23.2694 5.90522 22.1811 5.94519 21.0844 5.68876Z" fill="#008538"/>
<path d="M128.038 6.15537C128.066 6.00597 128.08 5.93127 128.123 5.7257C128.193 5.90857 128.245 6.01793 128.28 6.10937C128.643 6.2815 128.826 5.86678 129.183 5.8166C129.316 5.94151 129.501 6.13872 129.752 6.40766C129.831 6.31205 129.877 6.23615 129.972 6.13995C129.74 5.96304 129.558 5.85845 129.423 5.6965C129.288 5.53454 129.201 5.33374 129.081 5.11561C128.939 5.25066 128.859 5.30922 128.781 5.40483C128.745 5.29487 128.71 5.20343 128.656 5.01997C128.528 5.08032 128.4 5.1592 128.223 5.23986C128.14 5.18727 127.992 5.11854 127.877 5.06713C127.492 5.26671 127.583 5.61571 127.609 5.93005C127.724 5.98145 127.856 6.05078 128.038 6.15537Z" fill="#008538"/>
<path d="M132.444 6.16042C132.436 5.88253 132.428 5.58612 132.418 5.21561C132.129 5.37456 131.906 5.51259 131.634 5.67093C131.406 5.67929 131.327 5.16296 131.006 5.32309C130.862 5.40256 130.752 5.55495 130.61 5.70852C130.859 5.88483 131.042 6.02647 131.307 6.20218C131.616 6.19084 132.038 6.17533 132.444 6.16042Z" fill="#008538"/>
<path d="M58.6106 5.64561C58.6625 5.75497 58.7149 5.88286 58.7673 6.01075C58.6871 6.05078 58.5912 6.10994 58.4157 6.22765C58.8417 6.34182 59.1864 6.45897 59.5962 6.57373C59.9986 6.42914 59.6077 5.83152 59.909 5.56083C59.6591 5.34747 59.4893 5.66897 59.2782 5.67672C59.0838 5.70241 58.88 5.39463 58.6106 5.64561Z" fill="#008538"/>
<path d="M1.99669 12.6394C1.87671 12.4213 1.79131 12.2761 1.72215 12.1303C1.44603 12.1404 1.20238 12.1494 0.893769 12.1607C1.01793 12.527 1.17092 12.7625 1.48215 12.8438C1.87511 12.9406 2.25288 13.0751 2.64585 13.1719C2.72759 13.1875 2.82348 13.1283 3.0011 13.0847C2.67993 12.6514 2.36923 12.5887 1.99669 12.6394Z" fill="#008538"/>
<path d="M51.998 43.831C52.3527 43.7253 52.4272 43.4815 52.3711 43.2239C52.2034 43.0446 52.0693 42.9012 51.8681 42.686C51.6292 42.8617 51.3431 43.0947 51.0088 43.3481C51.1429 43.4915 51.2268 43.5812 51.3274 43.6888C51.4872 43.5902 51.615 43.5113 51.7586 43.4133C51.8602 43.5579 51.9294 43.7037 51.998 43.831Z" fill="#008538"/>
<path d="M102.117 6.05042C102.374 5.92972 102.631 5.82755 102.888 5.70685C102.796 5.33932 102.226 5.30462 102.47 4.75784C102.29 4.70882 102.093 4.64188 101.879 4.55701C101.865 4.61318 101.835 4.707 101.853 4.78051C101.93 5.18568 102.022 5.57174 102.117 6.05042Z" fill="#008538"/>
<path d="M128.46 3.24689C127.611 2.57335 126.906 2.91454 126.214 3.19955C126.911 3.11832 127.591 3.59404 128.46 3.24689Z" fill="#008538"/>
<path d="M63.8409 4.87861C63.7806 5.04772 63.6899 5.29213 63.5993 5.53654C63.4699 5.55984 63.3567 5.58255 63.2267 5.58732C63.1665 5.75644 63.1057 5.90703 63.0449 6.05762C63.112 6.12933 63.1958 6.21898 63.2796 6.30862C63.3137 5.78812 63.6852 5.70029 64.0536 5.50132C64.1059 5.62921 64.1578 5.73857 64.228 5.92144C64.3559 5.84256 64.4837 5.76369 64.611 5.66629C64.3433 5.39795 64.0918 5.12901 63.8409 4.87861Z" fill="#008538"/>
<path d="M148.172 42.598C147.349 42.2573 146.712 42.7258 145.999 42.8076C146.623 43.0073 146.996 42.975 148.172 42.598Z" fill="#008538"/>
<path d="M46.276 7.0259C45.5712 6.82925 44.8497 7.18956 44.0905 6.79092C43.9983 6.97975 43.8904 7.18771 43.8296 7.3383C44.5684 7.01445 45.4366 7.24218 46.276 7.0259Z" fill="#008538"/>
<path d="M86.2252 46.153C86.0476 46.1966 85.8542 46.2593 85.6766 46.3029C85.6373 46.0633 85.6002 45.8977 85.5598 45.6211C85.5011 45.8458 85.4718 45.9581 85.443 46.089C85.2643 46.0955 85.0856 46.1021 84.9394 46.1075C84.8451 46.2222 84.7665 46.3178 84.6879 46.4134C84.7576 46.5778 85.5535 46.5485 86.4914 46.3657C86.3583 46.2593 86.2755 46.2067 86.2252 46.153Z" fill="#008538"/>
<path d="M83.5473 46.3255C83.5111 46.197 83.4755 46.0871 83.4226 45.9406C83.3141 46.1301 83.2371 46.2813 83.1286 46.4707C83.554 46.5663 83.914 46.6458 84.2734 46.7068C84.3311 46.4451 84.3735 46.221 84.4317 45.9778C84.3982 45.9419 84.3143 45.8523 84.197 45.7267C84.1702 45.9317 84.1582 46.0805 84.1315 46.2855C83.9533 46.3106 83.7747 46.3172 83.5473 46.3255Z" fill="#008538"/>
<path d="M56.6782 5.73513C56.6861 6.01301 56.6898 6.14269 56.6939 6.29089C56.924 6.37517 57.154 6.45945 57.417 6.56105C57.5066 6.27959 57.5978 6.0537 57.7031 5.75312C57.3128 5.74891 57.0193 6.29749 56.6782 5.73513Z" fill="#008538"/>
<path d="M120.192 4.70035C120.187 4.51509 120.187 3.9402 120.187 3.9402C119.854 3.67425 119.494 3.59475 118.947 3.78176C119.208 3.82779 119.354 3.8039 119.421 3.87561C119.554 4.00052 119.625 4.20191 119.742 4.32741C119.844 4.45351 119.992 4.54078 120.192 4.70035Z" fill="#008538"/>
<path d="M39.4708 6.14464C39.4723 6.20021 39.4577 6.25639 39.4613 6.38607C40.0649 6.45662 40.6476 6.36104 41.3308 6.37303C41.1794 6.19315 41.0956 6.1035 41.0285 6.03179C40.8839 6.09273 40.7922 6.30009 40.5758 6.12259C40.4757 6.03355 40.2206 6.20982 40.0419 6.21638C39.8637 6.24147 39.683 6.17393 39.4708 6.14464Z" fill="#008538"/>
<path d="M43.9332 42.6808C44.1695 42.9873 44.3377 43.1852 44.4729 43.3656C44.6348 43.3411 44.7485 43.337 44.8784 43.3322C44.9151 42.9043 44.5667 42.6575 43.9332 42.6808Z" fill="#008538"/>
<path d="M52.8003 42.8743C52.719 42.8773 52.6541 42.8797 52.4754 42.8862C52.8919 43.2418 52.5927 43.5866 52.5377 43.941C52.7976 43.9315 52.9925 43.9243 53.3011 43.913C53.1319 43.6781 53.014 43.5341 52.9281 43.3703C52.8589 43.2245 52.8374 43.0399 52.8003 42.8743Z" fill="#008538"/>
<path d="M139.982 5.92064C139.564 6.08435 139.203 5.39291 138.799 6.07534C139.189 6.06102 139.563 6.62219 139.982 5.92064Z" fill="#008538"/>
<path d="M128.215 3.8122C127.722 3.62632 127.277 3.97649 126.925 3.6185C126.847 3.71411 126.784 3.7906 126.69 3.90534C127.098 3.98305 127.475 4.08048 127.85 4.12233C127.964 4.11816 128.073 3.94725 128.215 3.8122Z" fill="#008538"/>
<path d="M143.718 9.25127C143.885 9.39351 144.051 9.51722 144.201 9.66005C144.377 9.56086 144.538 9.48079 144.697 9.3822C144.68 9.34575 144.678 9.27164 144.646 9.27284C144.351 9.19095 144.056 9.12759 143.761 9.0457C143.763 9.10127 143.749 9.17597 143.718 9.25127Z" fill="#008538"/>
<path d="M118.517 5.85599C118.667 5.9803 118.75 6.05142 118.834 6.12254C118.986 5.76459 119.177 6.18411 119.354 6.10345C119.431 5.95226 119.491 5.78314 119.583 5.57578C119.501 5.56024 119.419 5.52618 119.354 5.54709C119.113 5.63014 118.887 5.71259 118.517 5.85599Z" fill="#008538"/>
<path d="M100.421 5.89016C100.418 5.77901 100.412 5.57522 100.406 5.33439C100.243 5.34036 100.129 5.34454 99.9183 5.35229C100.005 5.55309 100.202 5.62003 100.256 5.78497C100.31 5.96843 100.283 6.19193 100.293 6.52539C100.499 6.35091 100.627 6.25351 100.738 6.15671C100.655 6.12264 100.605 6.06885 100.421 5.89016Z" fill="#008538"/>
<path d="M25.7199 6.31592C25.4406 6.21491 25.2442 6.16649 25.0309 6.10014C24.9874 6.28719 24.9287 6.51188 24.8705 6.7551C24.9193 6.75331 25.0183 6.8053 25.0665 6.78499C25.274 6.64755 25.4647 6.49219 25.7199 6.31592Z" fill="#008538"/>
<path d="M12.2871 50C12.4569 49.6785 12.5806 49.4514 12.7037 49.2058C12.5874 49.1174 12.4543 49.011 12.2552 48.8699C12.2667 49.2775 12.2751 49.5739 12.2871 50Z" fill="#008538"/>
<path d="M1.77693 39.9825C1.31951 39.9065 0.960074 39.8456 0.502135 39.7511C0.907134 40.274 1.28229 40.3159 1.77693 39.9825Z" fill="#008538"/>
<path d="M7.33069 0C6.91151 0.126665 6.62123 0.211506 6.26651 0.317259C6.30213 0.427219 6.33932 0.592756 6.37181 0.591563C6.74644 0.614892 7.01786 0.438019 7.33069 0Z" fill="#008538"/>
<path d="M135.32 5.51698C135.239 5.51996 135.19 5.52175 135.142 5.52354C135.073 5.98966 135.161 6.22751 135.509 6.45581C135.435 6.12474 135.377 5.81159 135.32 5.51698Z" fill="#008538"/>
<path d="M1.0986 13.0804C0.977545 13.4001 0.901039 13.5698 0.825056 13.7581C1.03621 13.7503 1.23113 13.7432 1.55598 13.7312C1.38676 13.4964 1.26835 13.3338 1.0986 13.0804Z" fill="#008538"/>
<path d="M45.3767 43.1284C45.4716 43.0322 45.5664 42.936 45.6607 42.8213C45.6277 42.804 45.5785 42.7872 45.5287 42.752C45.3794 42.6462 45.2458 42.5213 45.0634 42.3982C45.0702 42.639 45.0765 42.8613 45.0844 43.1392C45.1818 43.1356 45.2793 43.132 45.3767 43.1284Z" fill="#008538"/>
<path d="M43.8254 6.04032C43.3497 5.8909 43.0117 5.43969 42.7047 6.08149C43.0295 6.06955 43.3544 6.05763 43.8254 6.04032Z" fill="#008538"/>
<path d="M0 32.3331C0.357343 32.32 0.665958 32.3087 1.12076 32.2919C0.675923 32.0857 0.372566 31.7074 0 32.3331Z" fill="#008538"/>
<path d="M60.3837 5.09831C60.203 5.03077 60.0715 4.97997 59.9405 4.94769C59.9253 4.98534 59.9258 5.00387 59.9106 5.04151C60.1113 5.23814 60.3114 5.41623 60.5283 5.61226C60.5399 5.44493 60.5498 5.22203 60.5603 5.01765C60.3937 4.87541 60.4 5.09771 60.3837 5.09831Z" fill="#008538"/>
<path d="M138.011 6.38246C137.987 6.10518 137.967 5.95757 137.941 5.6247C137.721 5.87389 137.594 6.00834 137.374 6.25752C137.636 6.32208 137.766 6.33583 138.011 6.38246Z" fill="#008538"/>
<path d="M76.7111 46.6508C76.7142 46.7619 76.7163 46.836 76.7189 46.9287C77.0165 47.1032 77.191 46.9484 77.3771 46.6263C77.1172 46.6359 76.9223 46.643 76.7111 46.6508Z" fill="#008538"/>
<path d="M0.861864 33.4883C1.0945 33.6652 1.27787 33.8254 1.52675 34.0017C1.52152 33.8164 1.53305 33.6491 1.52782 33.4639C1.30042 33.4722 1.10551 33.4794 0.861864 33.4883Z" fill="#008538"/>
<path d="M61.8543 8.80888C61.7521 9.22062 61.8564 9.45787 62.2321 9.51825C62.4946 9.02644 61.7988 9.14473 61.8543 8.80888Z" fill="#008538"/>
<path d="M50.9296 44.575C51.1895 44.5654 51.3682 44.5589 51.5306 44.5529C51.5935 44.4764 51.5935 44.4764 51.1906 44.0276C51.1141 44.1973 51.037 44.3485 50.9296 44.575Z" fill="#008538"/>
<path d="M87.7058 5.30016C87.7796 5.03782 87.8237 4.8693 87.896 4.55138C87.7225 4.7432 87.6754 4.80056 87.6439 4.83881C87.5119 4.76948 87.4129 4.71748 87.3138 4.66549C87.2195 4.78022 87.2195 4.78022 87.7058 5.30016Z" fill="#008538"/>
<path d="M49.3328 6.45001C49.1583 6.60477 49.0153 6.7213 48.8093 6.91431C49.381 7.00458 49.381 7.00458 49.3328 6.45001Z" fill="#008538"/>
<path d="M49.7483 6.76855C49.9432 6.76139 50.1381 6.75423 50.3493 6.74648C50.3461 6.63532 50.3435 6.5427 50.3388 6.37597C50.1145 6.49548 49.9217 6.57673 49.7457 6.67592C49.7467 6.71298 49.7472 6.7315 49.7483 6.76855Z" fill="#008538"/>
<path d="M3.19759 13.1331C3.45747 13.1236 3.63614 13.117 3.8473 13.1093C3.7771 12.9264 3.70794 12.7806 3.65451 12.6156C3.51251 12.7692 3.38675 12.9222 3.19759 13.1331Z" fill="#008538"/>
<path d="M0.200508 35.9791C-0.0489155 36.3591 -0.0489155 36.3591 0.480272 36.6735C0.375491 36.4177 0.305812 36.2534 0.200508 35.9791Z" fill="#008538"/>
<path d="M53.8759 44.1144C53.8811 44.2997 53.8858 44.4664 53.8911 44.6516C53.989 44.6666 54.054 44.6642 54.1682 44.6785C54.163 44.4933 54.1588 44.3451 54.1531 44.1413C54.0546 44.1078 53.9571 44.1114 53.8759 44.1144Z" fill="#008538"/>
<path d="M37.8868 6.48099C38.0466 6.38239 38.1745 6.30352 38.3338 6.1864C38.1845 6.08062 38.0676 5.97364 37.8685 5.83259C37.8769 6.129 37.8821 6.31426 37.8868 6.48099Z" fill="#008538"/>
<path d="M90.5545 6.56783C90.8144 6.55829 91.058 6.54934 91.3179 6.53979C91.0522 6.34556 90.7945 6.42921 90.5545 6.56783Z" fill="#008538"/>
<path d="M56.5161 44.9076C56.776 44.898 57.0196 44.8891 57.4582 44.873C57.0139 44.6853 56.7561 44.7689 56.5161 44.9076Z" fill="#008538"/>
<path d="M56.5808 6.3136C56.2098 6.41995 56.0343 6.53766 56.0798 6.99961C56.2056 6.84663 56.2847 6.76955 56.3476 6.69306C56.4099 6.59804 56.4723 6.50303 56.5808 6.3136Z" fill="#008538"/>
<path d="M88.1335 45.7862C87.9176 45.6272 87.8008 45.5202 87.618 45.3786C87.5907 45.565 87.5771 45.6582 87.5488 45.8076C87.7274 45.8011 87.8736 45.7957 88.1335 45.7862Z" fill="#008538"/>
<path d="M80.0659 4.8019C80.0695 4.93158 80.0711 4.98716 80.0742 5.09831C80.2854 5.09055 80.5128 5.0822 80.9026 5.06788C80.5248 4.9334 80.3121 4.88558 80.0659 4.8019Z" fill="#008538"/>
<path d="M86.6044 4.30211C86.4933 4.39891 86.366 4.49631 86.1748 4.63315C86.3236 4.72041 86.4226 4.77241 86.5221 4.84293C86.5677 4.72999 86.628 4.56086 86.6888 4.41027C86.671 4.35529 86.638 4.33797 86.6044 4.30211Z" fill="#008538"/>
<path d="M140.68 6.46987C140.526 6.17883 140.457 6.03301 140.353 5.83281C140.26 5.96607 140.197 6.04256 140.103 6.17582C140.252 6.26307 140.4 6.33181 140.68 6.46987Z" fill="#008538"/>
<path d="M46.5049 7.07313C46.6998 7.06597 46.8948 7.05881 47.1059 7.05106C47.1049 7.01401 47.1038 6.97696 47.1028 6.9399C46.9073 6.92854 46.7119 6.91717 46.5007 6.92492C46.5018 6.96198 46.5034 7.01755 46.5049 7.07313Z" fill="#008538"/>
<path d="M74.6905 5.61132C74.6297 5.76191 74.5836 5.85633 74.5862 5.94895C74.5878 6.00453 74.7204 6.09239 74.7361 6.07326C74.7995 6.0153 74.8624 5.93881 74.8922 5.84499C74.8912 5.80794 74.7916 5.73742 74.6905 5.61132Z" fill="#008538"/>
<path d="M114.703 3.78927C114.711 4.06716 114.715 4.21536 114.72 4.40062C114.989 4.13112 114.989 4.13112 114.703 3.78927Z" fill="#008538"/>
<path d="M2.63947 37.7069C2.72592 37.8891 2.79507 38.0349 2.91558 38.2716C2.94126 38.0296 2.9528 37.8623 2.97848 37.6202C2.80086 37.6638 2.70392 37.6859 2.63947 37.7069Z" fill="#008538"/>
<path d="M121.407 3.95103C121.651 3.9606 121.797 3.97376 121.96 3.98632C121.957 3.85664 121.954 3.74549 121.95 3.61581C121.79 3.71441 121.646 3.79387 121.407 3.95103Z" fill="#008538"/>
<path d="M52.2796 6.00797C52.5421 6.09105 52.6406 6.12452 52.7228 6.15859C52.7889 6.19325 52.8229 6.24763 52.9062 6.31875C52.9188 6.18848 52.9329 6.11378 52.9455 5.9835C52.7831 5.98947 52.6207 5.99544 52.2796 6.00797Z" fill="#008538"/>
<path d="M114.218 6.19935C114.328 6.0655 114.407 5.98841 114.406 5.95136C114.371 5.85993 114.304 5.78821 114.238 5.73502C114.221 5.71709 114.094 5.83302 114.095 5.87007C114.098 5.9627 114.149 6.05354 114.218 6.19935Z" fill="#008538"/>
<path d="M118.628 5.75919C118.608 5.61158 118.699 5.36717 118.439 5.39524C118.391 5.39703 118.312 5.49264 118.314 5.54822C118.29 5.86435 118.498 5.74544 118.628 5.75919Z" fill="#008538"/>
<path d="M66.012 7.48784C66.0167 7.65457 66.0188 7.72868 66.022 7.83983C66.1844 7.83387 66.3143 7.82909 66.5742 7.81954C66.3426 7.67969 66.2106 7.61036 66.012 7.48784Z" fill="#008538"/>
<path d="M136.649 5.93179C136.588 6.08238 136.542 6.1768 136.545 6.26943C136.546 6.325 136.679 6.41286 136.695 6.39373C136.758 6.33577 136.821 6.25928 136.851 6.16546C136.85 6.12841 136.75 6.05789 136.649 5.93179Z" fill="#008538"/>
<path d="M120.866 3.2291C121.061 3.22194 121.256 3.21479 121.467 3.20703C121.466 3.16998 121.465 3.13293 121.464 3.09587C121.268 3.08451 121.073 3.07314 120.878 3.0803C120.863 3.11795 120.864 3.17353 120.866 3.2291Z" fill="#008538"/>
<path d="M6.81123 4.63672C6.67919 4.56739 6.59641 4.5148 6.51519 4.51778C6.46646 4.51957 6.38943 4.67076 6.4062 4.68869C6.45702 4.761 6.52409 4.83272 6.60635 4.86679C6.63883 4.86559 6.70066 4.75205 6.81123 4.63672Z" fill="#008538"/>
</svg>
