<svg width="121" height="50" viewBox="0 0 121 50" fill="none" xmlns="http://www.w3.org/2000/svg">
<path d="M101.442 6.17834C101.494 6.30563 101.534 6.43352 101.599 6.59727C101.479 6.75144 101.359 6.90561 101.226 7.04185C101.301 7.07533 101.376 7.10879 101.463 7.16019C101.183 7.34064 101.046 7.84799 100.671 7.64359C100.594 7.49896 100.516 7.31729 100.451 7.17207C100.292 7.25393 100.17 7.31547 100.035 7.37761C99.9952 7.23119 99.9681 7.12123 99.9411 7.01127C99.4819 6.90367 98.9936 7.16837 98.4814 6.89642C98.4369 7.12111 98.3803 7.36492 98.3361 7.60814C98.2581 7.42647 98.1678 7.24539 98.1034 7.1187C97.783 7.15273 98.0444 7.82624 97.6744 7.84414C97.6708 7.67741 97.6676 7.52921 97.6628 7.3069C97.59 7.36606 97.5534 7.38637 97.5168 7.40669C97.4802 7.427 97.4444 7.48437 97.4197 7.48556C97.3075 7.43536 97.1316 7.29551 97.1077 7.33375C97.0014 7.56143 96.9234 7.37975 96.824 7.34747C96.4885 7.25243 96.1331 7.38088 95.8541 7.61691C95.5386 7.87325 95.2887 7.73698 95.0137 7.58337C94.964 7.56723 94.948 7.40111 94.8955 7.25529C94.6981 7.26483 94.4761 7.27557 94.2417 7.28691C94.1713 7.45722 94.1012 7.64605 94.0077 7.89165C93.7084 7.75777 93.4458 7.60357 93.1597 7.50614C92.8736 7.40871 92.5763 7.36745 92.2412 7.29093C92.2281 7.25448 92.201 7.14451 92.1744 7.05308C91.7661 7.01719 91.7661 7.01719 91.4899 7.3829C91.4756 7.29087 91.4613 7.19884 91.4334 7.05183C91.1974 6.98906 90.926 7.00219 90.6805 7.0697C90.4716 7.11689 90.3685 7.49277 90.1512 7.72582C90.1209 7.46765 90.0927 7.30212 90.0768 7.13598C90.0641 7.11806 90.0386 7.08219 90.0386 7.08219C89.9904 7.14016 89.9188 7.25489 89.9188 7.25489C89.6773 6.93277 89.4114 7.20525 89.1376 7.10722C89.142 7.311 89.1448 7.44068 89.1496 7.66299C89.0143 7.68808 88.9036 7.71197 88.7683 7.73706C88.7644 7.55181 88.7488 7.4042 88.7457 7.25599C88.4958 7.11972 88.2669 6.81553 87.9776 7.14478C87.9537 7.18302 87.8646 7.05752 87.8025 7.04198C87.4189 7.0049 87.0504 7.0969 86.7388 7.5385C86.6731 7.35623 86.6334 7.22834 86.5936 7.10045C86.5454 7.15841 86.5096 7.21578 86.4738 7.27314C86.3807 6.96238 86.1638 7.21396 86.0488 7.03407C85.8956 6.8004 85.8554 7.22888 85.693 7.144C85.5553 7.05794 85.3719 7.14099 85.1868 7.14994C85.1904 7.31667 85.1936 7.46487 85.1987 7.7057C84.9258 7.64473 84.6906 7.61901 84.4546 7.55624C84.3054 7.50783 84.1641 7.25503 84.0069 7.411C83.8617 7.54783 83.7892 7.05062 83.6603 7.37212C83.6484 7.39124 83.6241 7.41096 83.6241 7.41096C83.2628 6.68664 82.9313 7.35174 82.4895 7.48437C82.4633 7.41147 82.4104 7.24712 82.3841 7.17422C81.8883 7.08693 81.4493 7.34924 81.0816 6.9034C81.1174 6.84604 81.1529 6.77014 81.2006 6.69365C81.1381 6.65958 81.0761 6.64404 80.9766 6.61176C80.9682 6.79762 80.9471 6.96554 80.9383 7.13286C80.9017 7.15318 80.8659 7.21055 80.8409 7.19322C80.6053 7.14898 80.3749 7.34557 80.1341 7.06049C80.0199 6.91766 79.883 7.44353 79.6661 7.12022C79.5643 6.97678 79.3434 7.0431 79.1747 7.23671C79.066 7.35323 78.8197 7.38369 78.7063 7.2779C78.4667 7.04841 78.2343 7.15237 77.9995 7.14518C77.8141 7.13561 77.6294 7.16308 77.4444 7.17203C77.2593 7.18098 77.0508 7.2467 76.9123 7.12358C76.711 6.94787 76.6218 7.39726 76.4328 7.22095C76.3445 7.1325 76.2207 7.11994 76.0965 7.08885C75.9601 7.05836 75.7734 6.99322 75.689 7.09002C75.4853 7.37805 75.2589 7.185 75.0878 7.26746C74.9859 7.12402 74.9095 7.01645 74.8458 6.92681C74.701 7.08217 74.5684 7.23694 74.4355 7.37318C74.4753 7.50107 74.5027 7.62955 74.5692 7.84888C74.3941 7.74608 74.2938 7.67675 74.1812 7.60801C74.2158 7.49507 74.2505 7.38213 74.2962 7.21301C74.0841 7.112 73.8971 7.02832 73.7097 6.92612C73.6635 7.07671 73.6289 7.18965 73.5596 7.41554C73.4697 7.25298 73.4052 7.12629 73.3404 6.98107C73.2664 6.98465 73.1677 6.98942 73.0566 6.99479C73.0463 7.08801 73.0359 7.18124 73.0148 7.34916C72.9162 7.35393 72.7936 7.39695 72.6937 7.34615C72.6066 7.31327 72.5178 7.2063 72.4418 7.11725C72.2643 6.9033 72.1175 6.96603 71.938 7.23434C71.8489 7.10884 71.7597 6.98333 71.6706 6.85783C71.5731 6.91818 71.367 7.09505 71.3284 7.02274C71.137 6.73528 70.8898 7.30357 70.7203 6.88524C70.6984 7.01611 70.6757 7.10994 70.6411 7.22288C70.3617 7.44038 70.0442 7.02921 69.7417 7.32201C69.7147 7.21205 69.6876 7.10209 69.6606 6.99213C69.6355 6.9748 69.5977 6.93954 69.5607 6.94133C69.4616 6.92757 69.3502 6.91442 69.2523 6.95624C68.7509 7.18448 68.7509 7.18448 68.2578 6.65199C68.6769 6.61318 69.0466 6.57675 69.4162 6.54033C69.4155 6.50328 69.4146 6.46623 69.4139 6.42917C69.0314 6.44767 68.649 6.46617 68.2419 6.48585C68.1965 6.67349 68.14 6.91731 68.095 7.12347C67.6406 7.23818 67.2351 7.33197 66.8423 7.44369C66.7146 7.24587 66.5868 7.04806 66.4846 6.8861C66.3146 7.02414 66.2175 7.10301 66.0958 7.18308C66.0997 7.36834 66.1041 7.57211 66.1093 7.81295C65.8749 7.82428 65.6528 7.83502 65.4308 7.84576C65.3532 7.68261 65.2625 7.483 65.1463 7.24754C65.0141 7.42083 64.9182 7.55529 64.798 7.70946C64.7463 7.60069 64.6822 7.49252 64.617 7.32877C64.5326 7.42558 64.4845 7.48354 64.424 7.5421C64.2369 7.45842 64.0623 7.37414 63.888 7.30839C63.8732 7.19784 63.8593 7.12433 63.845 7.0323C63.6747 7.15181 63.609 7.54443 63.3961 7.40637C63.2333 7.30297 63.0109 7.29518 62.9623 6.75973C62.8812 7.00474 62.8354 7.17386 62.7538 7.40034C62.6619 7.14516 62.6221 7.01726 62.5827 6.9079C62.3956 7.39911 61.9822 7.69728 61.5942 7.45642C61.4068 7.35422 61.2468 7.3805 61.0729 7.33327C60.899 7.28605 60.7235 7.16472 60.5635 7.191C60.3542 7.21967 60.1779 7.06129 59.9921 7.03319C59.8062 7.00509 59.587 7.14551 59.4485 7.0224C59.2849 6.88195 59.105 7.13172 58.9642 6.89745C58.926 6.84367 58.7568 7.01875 58.6458 7.02412C58.5475 7.04742 58.4476 6.99662 58.3235 6.96553C58.3139 7.09581 58.3052 7.26313 58.2857 7.50516C58.1854 7.43583 58.1106 7.40236 58.072 7.33004C57.9952 7.20394 57.9546 7.03901 57.9156 6.94817C57.672 7.1083 57.477 7.22901 57.2578 7.36942C57.2044 7.18655 57.1774 7.07659 57.1372 6.93018C57.0397 6.99053 56.8944 7.12737 56.869 7.09151C56.7158 6.85784 56.6326 7.01022 56.5124 7.16439C56.4281 7.26119 56.3055 7.30421 56.1837 7.38428C56.0822 7.25937 55.9808 7.13447 55.8666 6.99163C55.8061 7.05019 55.7324 7.0723 55.7213 7.12847C55.5494 7.74876 55.2059 7.85809 54.8096 7.80308C54.6898 7.40089 54.4462 8.13591 54.3376 7.67755C54.1522 7.66797 53.9791 7.6578 53.806 7.64763C53.7168 7.52213 53.6404 7.41455 53.6022 7.36076C53.3344 7.54062 53.0785 7.70135 52.823 7.88061C52.7562 7.64276 52.6893 7.40491 52.6217 7.13001C52.5023 7.32123 52.4183 7.43657 52.3344 7.5519C52.2838 7.49871 52.2452 7.4264 52.2074 7.39113C52.0363 7.47359 51.8775 7.55544 51.7434 7.63611C51.6408 7.45563 51.6825 7.10126 51.4155 7.31816C51.47 7.55661 51.513 7.8327 51.595 8.19963C51.4457 8.15121 51.359 8.13686 51.197 8.07052C51.1365 8.12908 50.9905 8.22887 50.8695 8.34599C50.6311 8.17207 50.6857 7.83562 50.6924 7.57567C50.5285 7.4167 50.3773 7.27565 50.2384 7.13401C49.8794 7.67062 49.614 6.81186 49.2718 6.97677C49.0812 7.30125 48.9801 7.76975 48.5972 7.76972C48.6494 7.89701 48.6884 7.98785 48.727 8.06016C48.6903 8.65537 48.3016 8.37745 48.1201 8.55313C48.1666 8.99595 48.3326 9.24756 48.5944 9.36471C48.6183 9.32646 48.6664 9.2685 48.7381 9.15376C48.8797 9.42508 49.2212 9.22313 49.3334 9.84822C49.366 9.64265 49.3879 9.51178 49.4202 9.28768C49.3815 9.21537 49.2407 8.9811 49.0994 8.72831C49.4787 8.56161 49.846 8.41403 50.2622 8.24554C50.4373 8.34834 50.6872 8.48461 50.9873 8.65555C50.8778 8.73502 50.768 8.79597 50.6948 8.8366C50.7903 9.25851 50.8579 9.53341 50.9268 9.86389C50.9872 9.80533 51.0605 9.76469 51.1213 9.72466C50.965 9.34278 51.1791 8.96154 51.0697 8.46612C51.4581 8.72551 51.7494 7.914 52.0832 8.50983C52.1919 8.3933 52.2643 8.31562 52.3853 8.1985C52.4255 8.34491 52.4525 8.45487 52.4923 8.58276C52.7565 8.81107 53.1179 8.38561 53.4108 8.79797C53.4331 8.68563 53.4553 8.57328 53.4884 8.38623C53.6133 8.45437 53.7256 8.50458 53.8879 8.58945C53.9225 8.47651 53.9444 8.34563 53.9671 8.25181C54.3145 8.32773 54.6675 8.66301 54.9894 8.12819C55.3933 8.53519 55.9493 7.9705 56.3592 8.65538C56.3811 8.52451 56.4037 8.43068 56.426 8.31834C57.2713 7.99929 58.1205 8.44038 58.9697 8.30659C58.9976 8.4536 59.0119 8.54563 59.0529 8.7291C59.1595 8.51995 59.2299 8.34964 59.3123 8.16021C59.5495 8.27855 59.7966 8.28514 60.105 8.27023C60.6968 8.22306 61.3017 8.21236 61.8938 8.18372C61.9555 8.18074 62.0176 8.19628 62.0554 8.23154C62.3319 8.45924 62.589 8.35409 62.8556 8.11866C62.9571 8.24356 63.059 8.38699 63.211 8.56509C63.2695 8.4139 63.3041 8.30096 63.3626 8.14978C63.375 8.14918 63.4355 8.09061 63.4852 8.10675C63.722 8.20657 63.9615 8.43607 64.1884 8.07275C64.5959 8.07159 64.9703 8.25747 65.2668 8.83656C65.2843 8.50191 65.2915 8.26048 65.3102 7.9814C65.5959 8.06031 65.5788 8.41349 65.6946 8.63043C65.5851 8.7099 65.5 8.76965 65.3301 8.90768C65.5398 8.89754 65.6894 8.96448 65.7491 8.86887C65.8446 8.7159 65.8888 8.47267 65.9934 8.1709C66.3019 8.15598 66.6843 8.13749 67.0667 8.11899C67.3604 8.56841 67.7802 7.99176 68.0862 8.44058C68.1085 8.32823 68.1308 8.21589 68.1646 8.06589C68.3628 8.0934 68.5733 8.12031 68.8702 8.14304C68.8829 8.16097 68.9721 8.28647 69.0226 8.33966C69.2554 8.25422 69.4512 8.17057 69.7083 8.06542C69.7835 8.11741 69.9216 8.222 70.0597 8.32659C70.0835 8.28835 70.1428 8.17422 70.1679 8.19155C70.4178 8.32782 70.7135 8.29498 70.881 8.62068C70.9885 8.44858 71.1079 8.25736 71.2153 8.08526C71.4772 8.20241 71.6753 8.22991 71.8389 8.37036C71.9901 8.51141 72.1282 8.04111 72.2842 8.40446C72.3753 8.62259 72.6113 8.68535 72.9129 8.93039C72.8087 8.67581 72.7824 8.6029 72.743 8.49354C72.7788 8.43617 72.8262 8.34115 72.8739 8.26466C72.9742 8.33399 73.0741 8.3848 73.1995 8.47146C73.2158 8.65612 73.2201 8.85991 73.2364 9.04456C73.4736 9.16291 73.6988 9.30037 73.936 9.41871C74.0582 9.35717 74.1923 9.27651 74.3511 9.19465C74.2508 9.12532 74.1756 9.07332 74.0379 8.98726C74.1565 8.75898 74.2632 8.54983 74.3344 8.41658C74.6408 8.30903 74.8864 8.24152 75.1438 8.15489C75.1705 8.24632 75.1975 8.35629 75.2377 8.5027C75.6198 7.89079 76.0209 8.16811 76.4347 8.46335C76.58 8.32651 76.7253 8.18968 76.9071 8.03253C77.1324 8.16999 77.3707 8.34391 77.6338 8.51663C77.6457 8.49751 77.7058 8.42043 77.8021 8.3045C77.8932 8.52263 77.9589 8.70491 78.0245 8.88718C77.9684 9.14952 77.9242 9.39273 77.857 9.71125C77.5346 9.65266 77.2123 9.59407 76.8653 9.53667C76.8303 9.63109 76.796 9.76256 76.7618 9.89403C76.4502 9.76074 76.1386 9.62745 75.827 9.49416C75.911 9.37883 75.9954 9.28203 76.1876 9.03165C75.9158 9.02625 75.755 9.01548 75.5823 9.02383C75.5875 9.26466 75.5923 9.48697 75.5962 9.67223C75.2954 10.0391 75.0367 9.49529 74.7804 9.6375C74.5365 9.77911 74.2902 9.80957 74.0319 9.85915C73.7736 9.90873 73.5158 9.40195 73.2667 9.87761C72.9332 9.8752 72.7633 9.43834 72.4994 9.22856C72.5261 9.32 72.5647 9.39231 72.5913 9.48374C72.5424 9.50465 72.4943 9.56262 72.4692 9.54529C72.2925 9.36839 72.1278 9.17235 71.8496 8.87055C71.9184 9.20102 71.9841 9.3833 71.9749 9.5321C71.9658 9.6809 71.8703 9.83388 71.8237 9.96595C71.6367 9.88227 71.4624 9.81651 71.2753 9.73283C71.2729 9.62168 71.2698 9.47348 71.2674 9.36232C71.191 9.25475 71.1273 9.16511 71.0509 9.05754C71.0167 9.18901 70.9821 9.30195 70.9248 9.50871C70.8352 9.36468 70.7711 9.25651 70.6689 9.09456C70.598 9.24634 70.5272 9.39812 70.4679 9.51226C70.333 9.55587 70.2104 9.59889 70.0389 9.66282C70.023 9.49669 69.9948 9.33115 69.9789 9.16502C69.9542 9.16621 69.9044 9.15007 69.8925 9.16919C69.8209 9.28393 69.7365 9.38073 69.6776 9.51339C69.596 9.73988 69.5649 10.0195 69.4579 10.2102C69.3628 10.3817 69.204 10.4635 69.0587 10.6004C69.0436 10.4713 69.0154 10.3057 68.9871 10.1402C68.8379 10.0918 68.701 10.0428 68.5391 9.97644C68.5275 10.0141 68.5172 10.1073 68.4957 10.2567C68.4097 10.2794 68.2987 10.2848 68.151 10.3105C68.1964 10.1228 68.2426 9.97223 68.2995 9.74694C68.4599 9.73919 68.6572 9.72964 68.8546 9.7201C68.8534 9.66452 68.8527 9.62746 68.8515 9.57189C68.7277 9.55933 68.6163 9.54618 68.4925 9.53362C68.3445 9.54078 68.2088 9.54734 68.0237 9.55629C68.0162 9.77919 68.009 10.0206 67.9895 10.2626C67.9521 10.2459 67.9027 10.2483 67.9023 10.2298C67.8972 9.98894 67.8387 9.56524 67.7169 9.6453C67.4853 9.78632 67.4415 9.47318 67.3046 9.42416C67.1554 9.37574 66.9835 9.42115 66.7861 9.43069C66.765 9.59862 66.7563 9.76594 66.7364 9.98944C66.5748 9.94162 66.4124 9.85675 66.2517 9.84598C66.0909 9.83521 66.2023 9.27348 65.9361 9.52744C65.964 9.67445 66.0041 9.82086 66.0073 9.96907C66.0077 9.98759 65.9098 10.0294 65.8123 10.0898C65.7813 9.79455 65.7638 9.55431 65.7328 9.2591C65.5927 9.63677 65.4765 9.97619 65.3598 10.2971C65.1593 10.1584 65.0085 10.0359 64.8453 9.91399C64.7737 10.0287 64.6897 10.1441 64.6181 10.2588C64.2699 10.1458 63.9336 10.0137 63.6101 9.89956C63.63 9.67606 63.6499 9.45256 63.6806 9.15436C63.2758 9.2852 63.2989 9.78479 63.1345 10.1822C63.1055 9.97959 63.0776 9.83258 63.049 9.64852C62.821 9.38138 62.6821 9.81462 62.4728 9.84329C62.4517 10.0112 62.4433 10.1971 62.423 10.402C62.3211 10.2586 62.2571 10.1504 62.1934 10.0608C62.0832 10.1032 61.9857 10.1636 61.887 10.1683C61.813 10.1719 61.7481 10.0267 61.6745 10.0488C61.1205 10.1312 61.0835 10.133 60.7652 9.68479C60.7397 9.64893 60.7015 9.59515 60.6506 9.52343C60.5682 9.71286 60.4981 9.90169 60.4154 10.0726C60.249 9.80247 60.263 9.30109 59.9021 9.17019C59.8225 9.4893 59.7548 9.78929 59.6525 10.2022C59.5598 9.90999 59.4802 9.65421 59.4134 9.41636C59.2566 9.59085 59.2402 9.98108 59.0078 10.085C58.9342 10.1071 58.8606 10.1292 58.7878 10.1884C58.594 10.3647 58.395 9.72524 58.2076 10.1979C57.9855 10.2087 57.7515 10.2385 57.5291 10.2307C57.4304 10.2355 57.3424 10.1656 57.2553 10.1327C57.0555 10.0311 56.8701 10.0215 56.7268 10.251C56.5887 10.1464 56.4506 10.0418 56.2871 9.90136C56.2389 9.95932 56.1784 10.0179 56.0817 10.1153C56.0658 9.94915 56.038 9.80214 56.0221 9.63601C55.9711 9.56429 55.7419 9.81646 55.6726 10.0423C55.4999 10.0507 55.3256 9.98495 55.1919 10.0841C54.8998 10.2837 54.6877 10.1827 54.4943 9.80261C54.2492 9.88865 54.0108 10.2896 53.7418 9.83901C53.7076 9.97048 53.6853 10.0828 53.663 10.1952C53.6264 10.2155 53.5902 10.2543 53.5528 10.2376C53.4282 10.188 53.3033 10.1198 53.1664 10.0708C52.9551 10.0069 52.7131 10.2411 52.5337 9.93453C52.3538 10.1843 52.1572 10.2309 51.9423 10.0002C51.8102 10.1735 51.6192 9.90458 51.501 10.1514C51.261 9.90335 51.0036 9.98998 50.7445 10.0025C50.5348 10.0127 50.3378 10.0407 50.1277 10.0323C49.9299 10.0234 49.7468 10.1249 49.5447 9.91218C49.4185 9.78847 49.1595 9.801 49.0138 9.91931C48.6254 10.2348 48.2263 10.0501 47.7599 10.1839C47.7368 10.2592 47.6783 10.4104 47.572 10.6381C47.541 10.3429 47.5124 10.1588 47.4976 10.0483C47.344 9.79607 47.2808 10.2998 47.1279 10.0847C47.0643 9.99505 46.9043 10.0213 46.7809 10.0273C46.6325 10.0159 46.4972 10.041 46.3492 10.0482C46.2728 9.9406 46.2087 9.83244 46.1323 9.72486C45.962 9.84437 45.8048 10.0003 45.6333 10.0643C45.4617 10.1282 45.2759 10.1001 45.0785 10.1096C45.254 9.65607 45.5219 9.47621 45.8028 9.33281C45.878 9.38481 45.966 9.45474 46.0416 9.52526C46.1387 9.44638 46.2111 9.3687 46.2835 9.29101C46.3719 9.37947 46.4347 9.43206 46.498 9.50318C46.6799 9.34603 46.8745 9.2068 47.093 9.02934C47.1738 8.7658 47.2776 8.42697 47.3931 8.05049C47.2932 7.99969 47.2184 7.96622 47.181 7.94949C47.0743 7.58375 46.9681 7.23654 46.8491 6.8714C46.6147 6.88273 46.4173 6.89228 46.1953 6.90301C46.2971 7.04645 46.3986 7.17135 46.526 7.35064C46.2203 7.49524 45.9839 7.98883 45.7233 7.35237C45.8686 7.21553 46.0134 7.06017 46.1953 6.90301C46.202 6.64306 46.0803 6.72313 45.9816 6.7279C45.4635 6.75296 44.9577 6.77742 44.4395 6.80248C44.3572 6.99191 44.2748 7.18135 44.1928 7.3893C43.9186 7.27275 43.6177 7.63965 43.3973 7.1496C43.2656 7.34142 43.1573 7.47647 43.0375 7.64917C42.9377 7.59836 42.8235 7.45553 42.7375 7.47823C42.5656 7.52363 42.4355 7.21466 42.2663 7.38975C42.1091 7.54571 41.9722 7.49669 41.8445 7.29887C41.7016 7.54687 41.5544 7.59108 41.3765 7.3586C41.2205 7.57014 41.084 7.53965 40.9316 7.34303C40.6833 7.85574 40.3112 7.20613 40.035 7.57183C39.891 7.76425 39.7099 7.38356 39.5161 7.55984C39.3705 7.67815 39.1962 7.6124 39.0084 7.49167C38.8452 7.36975 38.5487 7.36555 38.4158 7.50179C38.1866 7.75395 37.9498 7.65414 37.7158 7.684C37.4699 7.73298 37.1957 7.61643 36.9888 7.75625C36.7699 7.91519 36.5916 7.66419 36.4082 7.74724C36.2983 7.80818 36.1885 7.86913 36.0783 7.91155C36.017 7.93306 35.9441 7.99221 35.9063 7.95695C35.6051 7.73044 35.2863 7.83858 34.9648 7.81704C34.6803 7.79371 34.3233 7.84806 34.1048 8.02553C33.8919 7.88747 33.7041 7.76674 33.4789 7.62928C33.3965 7.81871 33.3384 7.98842 33.2676 8.1402C33.1036 7.98123 32.9902 7.87545 32.751 7.66448C33.0216 7.6143 33.1577 7.62627 33.2672 7.5468C33.389 7.46673 33.5119 7.44223 33.6353 7.43627C33.5537 7.08786 33.841 7.24087 33.8725 6.97972C33.5517 6.99524 33.2278 6.86254 32.9763 7.22705C32.9003 7.13801 32.8617 7.0657 32.8112 7.01251C32.7395 7.12724 32.6679 7.24197 32.6321 7.29934C32.4216 7.27243 32.2238 7.26345 32.0375 7.21682C31.864 7.18812 31.7216 6.87975 31.4928 7.15045C31.3964 7.26637 31.1457 7.09305 30.9846 7.06375C30.8907 7.29083 30.8087 7.49879 30.7147 7.72587C30.4879 7.5143 30.2989 7.338 30.0972 7.14376C29.9786 7.37203 29.8437 7.41565 29.6801 7.2752C29.5162 7.11623 29.3518 6.93873 29.1751 6.76183C29.1696 6.50247 29.164 6.24311 29.1592 6.02081C29.2551 5.88635 29.3264 5.75309 29.4104 5.63777C29.3972 5.60131 29.3718 5.56546 29.359 5.54753C29.2862 5.60668 29.2138 5.68436 29.1278 5.70706C29.0295 5.73036 28.9304 5.71661 28.8194 5.72198C28.7736 5.89109 28.7151 6.04229 28.6694 6.2114C28.6948 6.24726 28.7334 6.31957 28.7971 6.40922C28.6745 6.45223 28.5643 6.49465 28.417 6.53886C28.5945 6.75281 28.7597 6.96737 28.9503 7.21778C28.879 7.35103 28.8078 7.48429 28.7127 7.65579C28.6112 7.53089 28.4739 7.46335 28.4337 7.31693C28.3386 6.91355 28.1958 6.58665 27.9304 6.30277C27.8719 6.45396 27.801 6.60574 27.7421 6.7384C27.5292 6.60034 27.306 6.55551 27.2364 6.18798C26.8595 6.46583 26.7731 6.47001 26.2459 6.06898C26.222 6.10722 26.1862 6.16459 26.1376 6.20402C25.9191 6.38149 25.7154 6.09463 25.518 6.10418C25.3083 6.11432 25.1177 6.4388 24.9044 6.28221C24.779 6.19555 24.7428 6.23439 24.6202 6.27741C24.4487 6.34134 24.249 6.23973 23.9887 6.19668C23.9772 6.23433 23.9429 6.3658 23.898 6.57196C23.8096 6.48351 23.746 6.39387 23.5812 6.19785C23.6684 6.23072 23.6306 6.19546 23.6186 6.21458C23.2175 6.51215 22.7841 6.45893 22.3862 6.32982C22.0627 6.21565 21.6699 6.32738 21.3893 5.91441C21.3384 5.8427 21.1788 5.88751 21.0933 5.92873C21.0077 5.96996 20.9365 6.10322 20.8887 6.1797C20.9412 6.32552 20.981 6.45341 21.0204 6.56278C20.6941 6.89382 20.4239 6.38763 20.1302 6.5131C20.2572 6.67386 20.3722 6.85375 20.5118 7.03244C20.4828 7.40474 20.2746 7.48899 20.0291 7.5565C20.1549 7.66169 20.281 7.7854 20.4067 7.89058C20.359 7.96707 20.2993 8.06268 20.2396 8.15829C20.1115 7.94195 19.9754 7.92999 19.8337 8.23355C19.8046 8.03097 19.7887 7.86484 19.7601 7.68077C19.4127 7.60485 19.084 7.82474 18.7513 7.85938C18.4679 7.89163 18.0732 7.91071 17.7572 8.14853C17.7178 8.03917 17.6776 7.89276 17.5984 7.65551C17.5869 7.69315 17.6215 7.58021 17.6681 7.44814C17.643 7.43081 17.6048 7.37703 17.5678 7.37882C17.136 7.3997 16.7035 7.38353 16.2725 7.44146C16.0138 7.47251 15.6557 7.47129 15.393 7.31709C15.3226 7.4874 15.2649 7.67564 15.1944 7.84595C15.1065 7.77602 15.0054 7.66964 14.9935 7.68876C14.8391 7.9744 14.6843 7.66663 14.5366 7.69231C14.352 7.71979 14.1666 7.71021 13.9815 7.71916C13.6238 7.73646 13.2851 7.49321 12.9166 7.58521C12.6217 7.65511 12.3221 7.5027 12.0129 7.48057C11.79 7.45425 11.6993 7.25465 11.5608 7.13153C11.5007 7.20862 11.4402 7.26718 11.3439 7.3831C11.252 7.12792 11.1732 6.9092 11.1072 6.7084C11.143 6.65103 11.1549 6.63191 11.1669 6.61279C11.3718 6.38034 11.6078 7.01799 11.7956 6.56384C12.0177 6.5531 12.2517 6.52323 12.4741 6.53102C12.66 6.55912 12.847 6.6428 13.0209 6.69003C13.1009 6.38944 13.1698 6.14503 13.2617 5.82532C13.7679 6.39427 14.3453 6.25508 14.8339 6.58379C14.8841 6.61846 14.9704 6.61428 15.019 6.57485C15.456 6.21991 15.9295 6.41954 16.3963 6.30424C16.3931 6.15604 16.3903 6.02637 16.3856 5.80406C16.1496 5.74129 15.8659 5.75501 15.6279 5.59962C15.4651 5.49622 15.3943 5.648 15.2952 5.63425C15.1221 5.62408 14.9283 5.80035 14.7743 5.52963C14.6458 5.29476 14.5331 5.80092 14.3791 5.5302C14.3405 5.45789 14.1806 5.48417 14.0946 5.50687C13.787 5.55883 13.4782 5.55522 13.1789 5.42134C13.1666 5.42193 13.1531 5.36695 13.1284 5.36815C12.5494 5.43324 11.974 5.09018 11.385 5.26702C11.2748 5.30944 11.1777 5.38831 11.0925 5.44806C10.9138 5.17853 10.7356 4.92753 10.545 4.67712C10.35 4.79782 10.2158 4.87849 10.0575 4.97887C9.75066 4.493 9.28704 4.7565 8.92253 4.45887C8.33357 4.63571 7.7689 4.21795 7.17953 4.37626C7.0904 4.25076 6.98893 4.12586 6.91252 4.01828C6.77682 4.02485 6.6658 4.03021 6.54243 4.03618C6.36573 4.43417 6.3502 4.86145 6.39595 5.26722C6.11658 5.48472 6.17032 5.11122 6.03064 4.93253C5.90887 5.0126 5.76322 5.13091 5.58055 5.25102C5.67128 5.45062 5.72301 5.55939 5.762 5.65023C5.70867 6.04225 5.54509 6.47669 5.61353 6.78864C5.69669 7.21115 5.64374 7.62168 5.73008 8.1924C5.60393 8.06868 5.55379 8.03402 5.45272 7.92764C5.37034 8.11707 5.26408 8.34475 5.16976 8.5533C5.0663 8.33577 5.00064 8.1535 4.92305 7.99035C4.63932 8.00407 4.38065 8.03513 4.10885 8.02973C3.91107 8.02075 3.72801 8.12232 3.52587 7.90956C3.42479 7.80318 3.1908 7.83304 3.04435 7.9143C2.75225 8.11388 2.43111 8.11086 2.12469 8.21841C2.33639 8.30089 2.53576 8.38397 2.83461 8.49933C2.59146 8.67799 2.43347 8.7969 2.28782 8.91521C2.3292 9.1172 2.38291 9.3186 2.42509 9.55764C2.67261 9.58276 2.93247 9.60728 3.26674 9.64675C3.33957 9.5876 3.49716 9.45016 3.67942 9.31153C3.71921 9.43942 3.74587 9.53086 3.78606 9.67727C3.90942 9.6713 4.05746 9.66414 4.21783 9.65639C4.23893 9.48847 4.24769 9.32114 4.26839 9.13469C4.49044 9.12395 4.58037 9.2865 4.61061 9.54467C4.65318 9.80224 4.69535 10.0413 4.73912 10.3544C4.37062 10.4464 4.01046 10.9275 3.59343 10.484C3.4617 10.6758 3.33992 10.7559 3.2106 10.484C3.10712 10.8413 2.98775 10.4577 2.87752 10.5001C2.65705 10.5849 2.41112 10.6339 2.19105 10.7373C2.0076 10.8203 1.83807 10.9769 1.62755 10.95C1.56587 10.953 1.49543 11.1233 1.39992 11.2762C2.043 11.3193 2.59295 11.6265 3.19862 11.6529C3.74261 11.6822 4.27067 12.1203 4.87515 12.0911C4.97742 12.253 5.09282 12.4514 5.31088 12.8303C4.96188 12.6803 4.76252 12.5972 4.51301 12.4795C4.40516 12.633 4.26149 12.844 4.12977 13.0358C4.1043 12.9999 4.0661 12.9461 4.00243 12.8565C3.9682 12.988 3.93397 13.1194 3.91168 13.2318C4.03624 13.2814 4.23601 13.383 4.44811 13.484C4.45089 13.6137 4.45407 13.7619 4.45804 13.9472C4.24713 13.9017 4.02229 13.7828 3.83804 13.8288C3.64146 13.8754 3.47552 13.6238 3.24471 13.8018C3.09905 13.9202 2.79583 13.601 2.63784 13.7199C2.40663 13.8795 2.2399 13.5908 2.0457 13.7486C2.01107 13.8615 1.95297 14.0312 1.88372 14.2571C2.15829 14.3922 2.43327 14.5458 2.74525 14.6976C2.75958 14.7896 2.77509 14.9372 2.791 15.1034C3.21243 15.1757 3.64618 15.2475 4.12969 15.3353C4.46912 15.6156 4.19333 15.9999 4.11572 16.4116C3.96689 16.3817 3.81766 16.3333 3.66883 16.3034C3.65649 16.304 3.64296 16.249 3.61829 16.2502C3.36719 16.0584 3.1682 16.5687 2.90358 16.3219C2.63895 16.075 2.41211 16.4384 2.17891 16.5053C1.93298 16.5543 1.95525 17.0168 1.83665 17.2451C1.94925 17.8887 2.5044 17.287 2.60466 17.9312C2.8884 17.9175 3.14746 17.9049 3.38185 17.8936C3.45985 18.0753 3.52471 18.2205 3.6019 18.3651C3.79489 18.7267 3.79489 18.7267 3.58198 19.1635C3.0356 19.023 2.58196 18.5999 2.00733 18.2939C2.03598 18.4779 2.0511 18.607 2.06582 18.7176C2.06582 18.7176 2.10283 18.7158 2.1275 18.7146C2.41044 18.6638 2.30217 19.3738 2.65834 19.2823C2.83025 19.2369 3.04553 19.4862 3.23336 19.6069C3.29584 19.641 3.34637 19.6941 3.42158 19.7461C3.10161 20.3736 2.97469 19.6379 2.7029 19.6325C2.63206 19.7843 2.54928 19.9552 2.44302 20.1829C2.39367 20.1853 2.29538 20.2086 2.19709 20.2319C2.16604 20.5116 2.13499 20.7912 2.09279 21.1271C2.21616 21.1211 2.36419 21.114 2.5369 21.1056C2.51779 21.3662 2.50943 21.552 2.49032 21.8126C2.39322 21.8914 2.23562 22.0289 2.08997 22.1472C2.14289 22.3115 2.20775 22.4567 2.28654 22.6755C2.42065 22.5948 2.55436 22.4956 3.62125 22.7222C4.43185 23.091 4.29893 23.2272 4.19905 23.1764C3.63756 22.9068 3.0299 22.7879 2.62282 22.2327C2.66859 22.0636 2.70242 21.9136 2.73744 21.8192C2.91214 21.9034 3.08802 22.0433 3.1119 22.005C3.25398 21.72 3.36818 21.8628 3.519 21.9853C3.61968 22.0732 3.80711 22.1754 3.87993 22.1162C4.18278 21.842 4.33797 22.1683 4.54012 22.381C4.54449 22.5848 4.54886 22.7886 3.62125 22.7222C2.79471 22.7622 2.88822 23.0914 2.98252 23.4578C2.89696 23.499 2.83567 23.5205 2.75011 23.5617C2.71948 23.2851 2.70198 23.0448 2.66896 22.657C2.56549 23.0143 2.50897 23.2581 2.43972 23.484C2.37764 23.4685 2.30322 23.4535 2.22921 23.4571C2.11858 23.481 1.99561 23.5055 1.88577 23.5665C1.80021 23.6077 1.71585 23.7045 1.60681 23.8025C1.74568 23.9441 1.87183 24.0678 1.99797 24.1916C1.93828 24.2872 1.9144 24.3254 1.87858 24.3828C2.05407 24.5041 2.21683 24.6075 2.37998 24.7294C2.38197 24.822 2.38396 24.9147 2.31351 25.085C2.4715 24.9661 2.56821 24.8687 2.67725 24.7707C2.65377 24.8274 2.64262 24.8836 2.61914 24.9404C2.70629 24.9733 2.80617 25.0241 2.89332 25.0569C2.86944 25.0952 2.8579 25.1328 2.83402 25.1711C2.68559 25.1597 2.52522 25.1675 2.31351 25.085C2.32426 25.0103 2.22478 24.978 2.2009 25.0163C2.04609 25.2834 1.90361 25.5499 1.72572 25.8923C1.91196 25.9389 2.03611 25.97 2.16027 26.0011C2.16266 26.1122 2.16385 26.1678 2.16583 26.2604C2.0556 26.3029 1.94497 26.3268 1.79773 26.371C1.94894 26.512 2.07549 26.6543 2.2271 26.8138C1.97876 27.3265 1.74197 27.8016 1.50557 28.2952C1.54456 28.386 1.58396 28.4954 1.63608 28.6227C1.52665 28.7022 1.44188 28.7804 1.35672 28.8402C1.4709 29.5579 1.53574 30.278 1.9663 30.7765C2.10598 30.9552 2.21063 31.2283 2.27787 31.4846C2.35745 31.7404 2.37614 32.0362 2.41951 32.3308C2.34629 32.3715 2.2854 32.4115 2.19984 32.4527C2.21297 32.4892 2.2269 32.5627 2.23963 32.5806C2.30171 32.5962 2.3626 32.5561 2.42507 32.5902C2.61171 32.6554 2.70164 32.8179 2.68332 33.1155C2.66381 33.3575 2.58024 33.4914 2.42026 33.5177C2.32157 33.5224 2.22288 33.5272 2.13653 33.5314C2.11305 33.5882 2.08917 33.6264 2.08917 33.6264C2.11503 33.6808 2.15284 33.7161 2.19104 33.7698C2.16795 33.8451 2.13253 33.921 2.06289 34.1284C2.22127 34.028 2.31877 33.9677 2.40393 33.9079C2.48391 34.1822 2.57543 34.4189 2.85996 34.4422C3.11982 34.4667 3.4533 34.4691 3.62559 35.0171C3.39438 35.1767 3.21052 35.2412 3.01912 34.9537C2.78952 34.6125 2.51613 34.533 2.18623 34.6973C2.28172 35.1192 2.55233 35.069 2.81735 35.3344C2.23794 35.381 1.7425 35.3122 1.19809 35.8392C1.08029 36.1046 1.55026 36.1375 1.55741 36.4709C1.86701 36.5116 1.93585 36.8421 1.90718 37.2329C2.16346 37.0907 2.16346 37.0907 2.03096 36.6706C2.14199 36.6652 2.24028 36.6419 2.35131 36.6365C2.37399 36.5427 2.39628 36.4304 2.41818 36.2995C2.62789 36.2893 2.84995 36.2786 3.09667 36.2667C3.10502 36.6557 3.11336 37.0447 3.12131 37.4153C3.31152 37.6471 3.41815 38.0129 3.69951 37.888C3.78983 38.0691 3.86782 38.2508 3.94542 38.4139C4.05486 38.3344 4.12768 38.2753 4.29761 38.1372C4.23194 38.5299 4.18815 38.7916 4.14516 39.0904C4.72018 39.4149 5.32308 39.3116 5.89532 39.5065C5.8969 39.5806 5.89889 39.6732 5.90127 39.7843C5.66688 39.7957 5.44483 39.8064 5.23511 39.8166C5.16825 40.1536 5.10058 40.4536 5.04526 40.753C4.93423 40.7584 4.84788 40.7625 4.6875 40.7703C4.73486 40.6753 4.75834 40.6185 4.80531 40.505C4.71696 40.4165 4.60196 40.2366 4.51601 40.2593C4.20959 40.3669 3.94297 40.0274 3.63576 40.0979C3.82356 40.7935 3.92464 40.8999 4.52314 41.1677C4.71017 41.2514 4.88566 41.3727 5.01061 41.4408C5.25851 42.0593 4.91109 42.5583 4.99663 43.092C4.84062 43.3035 4.73754 43.6794 4.42635 43.5646C4.37023 43.827 4.30218 44.1084 4.23412 44.3899C4.5079 44.4879 4.74428 44.5692 4.98145 44.6876C5.08133 44.7384 4.99059 45.1136 5.18598 45.0115C5.33243 44.9302 5.45301 44.7946 5.65915 44.6177C5.85653 44.6081 6.15261 44.5938 6.43634 44.5801C6.49564 44.466 6.56728 44.3512 6.61503 44.2747C6.75989 44.1194 8.18056 44.1434 8.41773 44.2617C8.46549 44.1853 8.5013 44.1279 8.57294 44.0132C8.54707 43.9588 8.52121 43.9044 8.46987 43.8141C8.49375 43.7759 8.51684 43.7006 8.55265 43.6432L9.50853 43.3003C9.71307 43.6242 9.96776 43.4079 10.2029 43.4336C10.4875 43.4569 10.805 43.2932 11.0549 43.4295C11.3172 43.5652 11.622 43.3835 11.7991 43.579C12.0641 43.8443 12.3773 43.4768 12.5834 43.8748C12.5966 43.9113 12.6575 43.8713 12.7072 43.8874C13.2018 43.9191 13.7088 43.9502 14.2039 44.0005C14.4144 44.0274 14.6265 44.1284 14.8366 44.1368C15.0348 44.1643 15.2437 44.1171 15.4538 44.1255C15.5032 44.1231 15.5422 44.2139 15.6186 44.3215C15.6142 44.1177 15.6114 43.988 15.6078 43.8213C15.5322 43.7508 15.4435 43.6438 15.2537 43.4304C15.6767 43.5769 15.6767 43.5769 15.9433 43.9163C15.9811 43.9516 16.0667 43.9104 16.6863 44.0102C17.0571 44.0294 16.8439 43.8728 16.7957 43.9307C16.6763 44.122 16.4953 43.7413 16.4407 44.0777C16.34 43.9899 16.2274 43.9211 16.1264 43.8148C16.1013 43.7974 16.1351 43.6474 16.1455 43.5542C16.5175 43.6289 16.8769 43.6857 17.2362 43.7425C17.2378 43.8166 17.2394 43.8907 16.6863 44.0102C16.231 44.0879 16.3341 44.2869 16.424 44.4494C16.6707 44.4375 16.9063 44.4817 17.1144 44.3975C17.4085 44.2905 17.6489 44.5571 17.933 44.5619C18.1801 44.5685 18.4257 44.501 18.7006 44.6546C18.9756 44.8082 19.3565 44.7156 19.6629 44.608C19.7978 44.5644 19.8575 44.4688 20.0206 44.5907C20.1711 44.6947 20.3804 44.6661 20.5642 44.6015C20.7238 44.5567 20.8153 44.7934 20.9857 44.6739C21.1313 44.5556 21.3156 44.5096 21.4747 44.4462C21.5726 44.4044 21.7 44.5837 21.7943 44.3752C21.8062 44.356 21.92 44.4803 21.9948 44.5138C22.1198 44.5819 22.3331 44.7385 22.357 44.7003C22.4871 44.4344 22.5926 44.7445 22.7024 44.6836C22.8246 44.622 22.9332 44.5055 23.1031 44.3675C22.942 44.3382 22.8305 44.325 22.7064 44.294C22.6925 44.2204 22.6781 44.1284 22.6765 44.0543C22.7004 44.0161 22.712 43.9784 22.7243 43.9778C23.0327 43.9629 23.3288 43.9486 23.6372 43.9337C23.6515 44.0257 23.6658 44.1177 23.681 44.2468C23.9253 44.1237 24.1569 43.9827 24.402 43.8967C24.4633 43.8752 24.5628 43.9075 24.6257 43.96C24.8398 44.1537 25.0232 44.0706 25.2166 43.8758C25.2803 43.9655 25.3312 44.0372 25.4076 44.1448C25.6397 44.0223 25.8951 43.843 26.1478 44.109C26.1984 44.1622 26.26 44.1592 26.3217 44.1562C27.1244 44.1545 27.9322 44.3936 28.7436 44.2245C29.1249 44.1504 29.485 44.2443 29.8726 44.4666C29.826 44.5987 29.7791 44.7122 29.7218 44.919C30.1145 44.8073 30.4452 45.2549 30.908 44.9543C30.5471 44.8234 30.261 44.726 29.9004 44.6136C30.0831 44.4935 30.1925 44.4141 30.3143 44.334C30.4242 44.2731 30.5348 44.2492 30.6569 44.1876C30.8074 44.2916 30.9952 44.4123 31.2081 44.5504C31.1229 44.6102 31.0505 44.6878 30.953 44.7482C31.0541 44.8546 31.1428 44.9615 31.2566 45.0858C31.3247 44.8044 31.3697 44.5982 31.427 44.3915C31.4381 44.3353 31.4867 44.2958 31.4986 44.2767C31.6112 44.3455 31.7119 44.4333 31.7994 44.4847C31.7656 44.6347 31.7314 44.7662 31.6979 44.9347C32.0457 45.0291 32.037 44.6216 32.1309 44.3945C32.242 44.3891 32.3888 44.3264 32.4891 44.3957C32.6021 44.483 32.6777 44.5535 32.8102 44.3987C32.7887 44.5481 32.7549 44.6981 32.7334 44.8475C32.7334 44.8475 32.7716 44.9013 32.7963 44.9001C32.92 44.9127 33.043 44.8882 33.1664 44.8822C33.5365 44.8643 33.9173 44.7717 34.3694 45.1208C34.2655 44.8847 34.2388 44.7933 34.1736 44.6295C34.4458 44.6534 34.6794 44.6051 34.9034 44.6869C35.09 44.7521 35.256 44.4288 35.4717 44.6966C35.6114 44.8752 35.9058 44.7868 36.141 44.8125C36.1506 44.6823 36.1717 44.5143 36.1804 44.347C36.2051 44.3458 36.2174 44.3452 36.2421 44.344C36.258 44.5102 36.2863 44.6757 36.3026 44.8604C36.5616 44.8478 36.8207 44.8353 37.1168 44.821C37.1263 44.6907 37.1474 44.5228 37.1677 44.3178C37.8033 44.5838 38.4284 44.3681 39.0711 44.3927C39.0695 44.3186 39.0803 44.2439 39.0803 44.2439C38.7416 44.0006 38.3903 43.7394 38.0397 43.5153C37.8893 43.4113 37.8777 43.449 37.7205 43.03C38.099 42.8263 38.3163 43.1681 38.5582 43.5088C38.5805 43.3964 38.6028 43.2841 38.6585 43.0032C38.7011 43.2608 38.742 43.4443 38.7707 43.6283C38.8065 43.5709 38.8547 43.513 38.8905 43.4556C39.1209 43.259 39.3513 43.0624 39.5937 42.8467C39.4803 42.7409 39.5002 42.5174 39.3167 42.6005C39.1579 42.6823 38.8985 42.6763 38.7966 42.5329C38.6179 42.2634 38.4325 42.8287 38.3008 42.4456C38.0043 42.4414 37.6951 42.4193 37.3863 42.4157C37.364 42.528 37.3532 42.6027 37.331 42.7151C37.0914 43.0605 36.9465 42.6409 36.7567 42.4276C36.7583 42.5017 36.7364 43.2074 36.7272 43.3562C36.6071 42.9355 36.5263 42.6242 36.4324 42.2764C36.3246 42.4299 36.2287 42.5644 36.1089 42.7371C35.9947 42.5942 35.8928 42.4508 35.8168 42.3618C35.7308 42.3845 35.658 42.4436 35.6202 42.4084C35.5068 42.3026 35.4061 42.2147 35.3631 42.5135C35.4005 42.5303 35.4383 42.5655 35.4634 42.5829C35.3794 42.6982 35.3197 42.7938 35.2477 42.89C35.2489 42.9456 35.2505 43.0197 35.2521 43.0938C35.4499 43.1028 35.6472 43.0932 35.8446 43.0837C35.8514 43.3986 35.8577 43.695 35.8637 43.9729C35.7435 43.5522 35.3969 43.5133 35.2521 43.0938C35.143 43.1918 35.0471 43.3262 34.9385 43.4428C34.913 43.4069 34.8748 43.3531 34.8239 43.2814C34.6348 43.68 34.3925 43.8957 34.0877 43.5024C33.8437 43.6441 33.6392 43.3201 33.3925 43.3321C33.3431 43.3345 33.291 43.2072 33.2273 43.1175C33.5286 42.7691 33.946 43.2311 34.1191 42.6664C33.9436 42.5451 33.7554 42.4058 33.5425 42.2678C33.412 42.5152 33.2377 42.4494 33.0606 42.254C32.9309 42.5384 32.6953 42.4942 32.558 42.4267C32.3952 42.3233 32.2373 42.4422 32.0741 42.3202C31.936 42.2156 31.7283 42.3184 31.5556 42.3268C31.599 42.0465 31.6316 41.8409 31.6638 41.6168C31.9834 41.5457 32.3157 41.4926 32.7089 41.3994C32.7224 41.4544 32.7876 41.6181 32.841 41.801C32.8772 41.7621 32.9134 41.7233 32.9496 41.6845C32.96 41.5912 32.9822 41.4789 33.0041 41.348C33.0905 41.3438 33.1892 41.3391 33.3125 41.3331C33.3261 41.3881 33.3531 41.498 33.3929 41.6259C33.4793 41.6218 33.578 41.617 33.7013 41.611C33.7121 41.5363 33.7344 41.424 33.7686 41.2925C33.8549 41.2883 33.9536 41.2836 34.0523 41.2788C34.0989 41.7216 34.3778 41.4856 34.5279 41.571C34.6902 41.6559 34.8856 41.5537 35.0715 41.5818C35.1455 41.5783 35.2091 41.6679 35.2967 41.7193C35.3441 41.6243 35.4033 41.5102 35.4507 41.4151C35.7484 41.4749 35.9863 41.6303 36.2931 41.5413C36.6246 41.4511 37.0158 41.2653 37.3569 41.6197C37.6311 41.1613 37.7811 41.8217 38.0155 41.8104C38.1611 41.6921 38.3187 41.5546 38.4763 41.4172C38.5893 41.5044 38.7302 41.7387 38.8325 41.3258C38.8854 41.4901 38.9252 41.618 38.9777 41.7638C39.2451 41.5654 39.501 41.4047 39.8146 41.6306C39.965 41.7346 40.197 41.6121 40.3813 41.5661C40.4919 41.5422 40.6017 41.4813 40.7 41.458C40.7406 41.6229 40.7673 41.7144 40.8074 41.8608C40.9734 41.5375 41.1405 41.2698 41.4673 41.5322C41.4931 41.5865 41.5456 41.7324 41.5986 41.8967C41.5747 41.9349 41.5393 42.0108 41.4915 42.0873C41.5536 42.1029 41.6169 42.174 41.6658 42.1531C41.9706 41.9714 42.2631 41.7904 42.5676 41.5902C42.6312 41.6799 42.6957 41.8066 42.7836 41.8765C42.8839 41.9458 43.0081 41.9769 43.1195 41.9901C43.1939 42.005 43.2671 41.9644 43.3531 41.9417C43.3563 42.0899 43.3595 42.2381 43.363 42.4048C43.1533 42.4149 42.9313 42.4257 42.7215 42.4358C42.6412 42.7179 42.585 42.9802 42.4819 43.3561C42.3403 42.5099 41.854 42.8672 41.5755 42.5469C41.5225 42.9574 41.4696 43.368 41.4059 43.8532C41.5169 43.8479 41.6033 43.8437 41.6773 43.8401C41.6088 43.5281 41.7796 43.4272 41.9097 43.1612C42.051 43.414 42.154 43.613 42.2826 43.8479C42.3419 43.7338 42.4012 43.6196 42.4963 43.4481C42.6196 43.4422 42.7776 43.3233 42.967 43.5181C43.043 43.6071 43.2372 43.4494 43.4577 43.3645C43.4 43.5528 43.3777 43.6651 43.3176 43.7422C43.2337 43.8575 43.1366 43.9364 43.0279 44.0529C43.1071 44.2902 43.1855 44.4904 43.2774 44.7456C43.2969 44.5036 43.318 44.3356 43.3371 44.0751C43.6841 44.1325 44.0311 44.1899 44.4155 44.264C44.3622 44.0811 44.322 43.9347 44.256 43.7339C44.4534 43.7244 44.6014 43.7172 44.7741 43.7089C44.7896 43.8565 44.8051 44.0041 44.8214 44.1887C44.8831 44.1858 44.9575 44.2007 45.0439 44.1965C44.991 44.0322 44.9389 43.9049 44.8728 43.7041C45.0941 43.6563 45.2787 43.6288 45.488 43.6002C45.5477 43.5046 45.6194 43.3898 45.7149 43.2368C45.882 43.544 46.0491 43.8512 46.2286 44.1578C46.4116 44.0562 46.5947 43.9546 46.7778 43.853C46.7392 43.7807 46.6886 43.7275 46.6246 43.6194C46.8836 43.6068 47.118 43.5955 47.3771 43.583C47.3799 43.7127 47.383 43.8609 47.3882 44.1017C47.5593 44.0192 47.7655 43.8424 47.8037 43.8962C47.97 44.1663 48.0731 43.7904 48.2104 43.8579C48.36 43.9249 48.5088 43.9548 48.6704 44.0026C48.8005 43.7367 48.9685 43.506 49.2132 43.4015L49.8022 43.2246C49.951 43.2545 50.0871 43.2665 50.2594 43.2396C50.6156 43.1482 50.6295 43.2217 50.7692 42.8255C50.7923 42.7502 50.8154 42.6749 50.8619 42.5428C50.612 42.4066 50.3374 42.2715 50.4859 41.708C50.8576 41.7642 50.9439 42.3349 51.2973 42.6887C51.2838 42.6337 51.1094 42.568 51.2623 42.2082C51.4 42.2943 51.55 42.3798 51.6749 42.4479C51.6789 42.6331 51.6821 42.7813 51.688 43.0592C51.6089 42.822 51.5695 42.7126 51.5297 42.5847C51.4815 42.6427 51.4457 42.7001 51.3096 42.6881C51.1409 42.8817 51.0856 43.1811 50.8539 43.3221C51.1138 43.3466 51.3963 43.2773 51.569 43.8439C51.5993 43.5271 51.608 43.3598 51.6164 43.174C51.8918 43.3461 52.1337 43.6867 52.4593 43.3187C52.5679 43.2021 52.7673 43.2852 52.9276 43.2775C52.9443 43.4806 52.9599 43.6282 52.9758 43.7944C53.1978 43.7836 53.4199 43.7729 53.6543 43.7616C53.714 43.666 53.7856 43.5512 53.8692 43.4174C54.0049 43.4108 54.2413 43.4921 54.3129 43.3774C54.48 43.1097 54.5859 43.4383 54.7204 43.3762C54.8668 43.2949 55.0005 43.1957 55.1466 43.096C55.1577 43.0398 55.1681 42.9466 55.1788 42.8719C55.1908 42.8527 55.2027 42.8336 55.227 42.8139C55.2926 42.9962 55.3702 43.1593 55.4486 43.3595C55.7817 43.3434 56.1144 43.3088 56.4355 43.3118C56.7443 43.3154 57.0615 43.1332 57.352 43.4344C57.3862 43.3029 57.4085 43.1906 57.4419 43.022C57.9334 43.4804 58.4754 43.4171 59.0055 43.373C59.4615 43.3324 59.9056 43.3109 60.3625 43.3073C60.5475 43.2984 60.7246 42.9189 60.8949 43.3743C60.9518 43.149 60.9741 43.0367 60.9964 42.9243C61.0867 43.1054 61.1771 43.2865 61.2551 43.4682C61.3151 43.3911 61.3506 43.3152 61.4107 43.2381C61.5109 43.3074 61.6112 43.3768 61.7115 43.4461C61.7963 43.3678 61.881 43.2895 61.9901 43.1915C62.0677 43.3547 62.1449 43.4993 62.1966 43.6081C62.3307 43.5274 62.4151 43.4306 62.5014 43.4264C63.0665 43.2878 63.6392 43.5012 64.1959 43.5485C64.3817 43.5766 64.5894 43.4738 64.8031 43.6489C64.979 43.7888 65.248 43.6645 65.4701 43.6537C65.7415 43.6406 66.001 43.6466 66.272 43.615C66.9978 43.4871 67.7093 43.8422 68.4479 43.7323C68.6326 43.7048 68.8212 43.8626 69.0277 43.7042C69.1372 43.6248 69.3469 43.6146 69.4356 43.7216C69.6505 43.9523 69.8563 43.7569 70.068 43.8394C70.0879 43.6159 70.1086 43.4294 70.1285 43.2059C70.2689 43.4217 70.3839 43.6015 70.4735 43.7456C70.5483 43.779 70.5853 43.7773 70.6227 43.794C70.7966 43.8412 70.9785 43.6841 71.144 43.9171C71.2841 44.1144 71.4803 43.4743 71.6506 43.9297C71.7915 43.5891 71.9486 44.008 72.1074 43.9262C72.279 43.8622 72.4767 43.8712 72.6626 43.8993C72.774 43.9125 72.8755 44.0374 72.9869 44.0505C73.0736 44.0649 73.1532 43.7458 73.2579 44.0189C73.271 44.0554 73.3442 44.0147 73.3693 44.0321C73.583 44.2072 73.7915 43.5666 74.0108 44.001C74.244 43.9341 74.4947 44.1074 74.7112 43.8373C75.2747 44.1995 75.8927 43.6504 76.4566 44.0311C76.5569 44.1004 76.6918 44.0568 76.8151 44.0508C77.4936 44.018 78.1721 43.9852 78.8506 43.9524C79.0603 43.9423 79.2573 43.9142 79.4674 43.9226C79.6282 43.9333 79.8542 44.1079 79.951 44.0105C80.1563 43.7965 80.3445 43.9358 80.5407 43.8707C80.8591 43.744 81.1496 44.0452 81.4683 43.9371C81.5296 43.9156 81.6183 44.0225 81.7274 43.9245C81.8364 43.8266 81.996 43.7817 82.1202 43.8128C82.84 43.982 83.6304 43.9809 84.3176 43.7807C84.4282 43.7568 84.554 43.862 84.6774 43.8561C85.0849 43.8549 85.5039 43.8161 85.911 43.7964C86.0467 43.7898 86.1931 43.7086 86.3085 43.907C86.3471 43.9793 86.4832 43.9913 86.5318 43.9518C86.8458 43.6214 87.1944 43.7529 87.5275 43.7368C88.3289 43.6795 89.1308 43.6407 89.933 43.6204C90.1304 43.6109 90.3374 43.4711 90.516 43.7406C90.5415 43.7765 90.6274 43.7537 90.6764 43.7328C91.1635 43.4126 91.6605 43.5554 92.1671 43.568C92.1918 43.5668 92.2304 43.6391 92.2559 43.675C92.5348 43.439 92.7855 43.0374 93.1524 43.4462C93.2284 43.5352 93.3872 43.4534 93.5106 43.4474C94.6455 43.3925 95.7681 43.3382 96.9031 43.2833C97.1375 43.272 97.3699 43.168 97.5847 43.3987C97.8231 42.9978 98.0535 43.3761 98.2887 43.4018C98.5358 43.4084 98.7826 43.3964 99.0289 43.366C99.1765 43.3403 99.323 43.259 99.5311 43.1748C99.633 43.3182 99.7858 43.5334 99.9131 43.7127C100.073 43.6864 100.26 43.7701 100.215 43.4013C100.372 43.2268 100.508 43.2573 100.637 43.4737C100.74 43.0978 100.92 43.4229 101.067 43.3787C101.177 43.3548 101.348 43.2353 101.411 43.3249C101.589 43.5389 101.771 43.3817 101.944 43.4104C102.093 43.4403 102.276 43.3202 102.392 43.5742C102.464 43.4595 102.536 43.3447 102.631 43.1918C102.791 43.184 102.965 43.1942 103.149 43.1667C103.727 43.0646 104.293 42.963 104.884 42.8418C104.893 42.693 104.914 42.525 104.932 42.2274C105.038 42.5561 105.117 42.7748 105.196 43.0306C105.488 42.831 105.755 42.5771 106.14 42.7068C106.427 42.8228 106.768 42.6208 107.099 42.4935C107.024 42.4786 106.95 42.4451 106.875 42.4302C106.541 42.3907 106.21 42.518 105.872 42.3118C105.672 42.1916 105.392 42.3721 105.158 42.4019C105.157 42.3649 105.156 42.2908 105.141 42.1802C105.289 42.1546 105.448 42.1097 105.597 42.1211C106.006 42.194 106.397 42.0268 106.764 41.8421C107.106 41.6772 107.401 41.6073 107.737 41.7394C107.837 41.7717 107.97 41.654 108.093 41.6295C108.29 41.5829 108.498 41.5172 108.695 41.5076C108.893 41.4981 109.079 41.5632 109.29 41.6087C109.312 41.4593 109.323 41.3846 109.332 41.2543C109.61 40.9812 109.769 41.4742 110.04 41.4426C110.04 41.4241 110.062 41.3117 110.085 41.2179C110.121 41.1976 110.158 41.1587 110.195 41.157C110.936 41.1953 111.648 40.9939 112.318 40.535C112.439 40.455 112.601 40.4843 112.736 40.4777C113.267 40.452 113.797 40.4264 114.352 40.3995C114.361 40.2137 114.357 40.0655 114.367 39.9167C114.67 39.6609 114.96 39.3873 115.361 39.0526C115.644 39.0019 116.04 39.0754 116.544 38.9398C116.369 38.8555 116.294 38.822 116.194 38.7712C116.229 38.6768 116.253 38.6015 116.288 38.5256C116.163 38.439 116.038 38.3708 115.95 38.3009C115.815 38.363 115.693 38.4246 115.498 38.5268C115.605 38.3361 115.641 38.2788 115.676 38.2029C115.46 37.9351 115.32 38.3128 115.099 38.3421C115.083 38.1759 115.067 38.0098 115.051 37.8437C115.629 37.723 116.169 37.6041 116.735 37.4841C116.795 37.3884 116.866 37.2737 116.938 37.159C117.49 36.9839 118.041 36.7903 118.581 36.6159C118.288 36.185 117.953 36.1085 117.563 36.3684C117.498 36.2232 117.421 36.0786 117.343 35.9154C117.416 35.8563 117.452 35.8174 117.489 35.7971C118.228 35.6872 118.979 35.5952 119.718 35.5039C119.94 35.4746 120.11 35.3551 120.263 34.9953C119.952 34.9176 119.705 34.8925 119.461 35.0527C119.376 35.1124 119.266 35.1733 119.18 35.159C118.733 35.0878 118.299 34.979 117.765 34.8565C118.198 34.3163 118.642 34.2948 119.073 34.2184C118.996 33.5174 118.553 33.5944 118.301 33.3285C118.359 33.1773 118.393 33.0458 118.463 32.857C118.016 32.7303 117.624 32.879 117.191 32.8258C117.224 32.6388 117.295 32.5055 117.406 32.4816C117.541 32.438 117.665 32.4876 117.695 32.1709C117.705 32.0592 117.924 31.8817 118.036 31.9134C118.321 31.9923 118.58 31.3678 118.862 31.8549C119.119 31.7497 119.376 31.6445 119.645 31.5203C119.767 31.4773 119.877 31.3978 119.998 31.2992C119.812 31.2711 119.612 31.1324 119.458 31.4366C119.303 31.1288 119.085 31.3063 118.886 31.2788C118.688 31.2513 118.504 31.2973 118.303 31.1401C118.14 31.0182 117.896 31.1413 117.698 31.1508C117.501 31.1603 117.291 31.1705 117.057 31.1818C117.484 31.5135 117.496 31.5315 118.053 31.5602C117.885 31.8094 117.697 31.6701 117.55 31.7143C117.365 31.7603 117.18 31.7322 116.97 31.7424C116.905 31.5971 116.827 31.434 116.724 31.2165C116.4 31.1023 115.939 31.4584 115.628 30.7688C116.279 30.626 116.882 30.5041 117.496 30.3632C117.506 30.2699 117.517 30.1952 117.527 30.102C117.908 30.0094 118.301 29.8977 118.682 29.8051C118.738 29.5428 118.795 29.2989 118.851 29.0366C119.507 29.0976 120.107 28.8831 120.708 28.6686C120.744 28.6483 120.768 28.5915 120.839 28.4583C120.764 28.4248 120.69 28.4099 120.615 28.3764C120.639 28.3381 120.651 28.319 120.675 28.2808C120.662 28.2629 120.636 28.227 120.636 28.227C120.576 28.2856 120.504 28.4003 120.443 28.4033C119.518 28.4665 118.592 28.4928 117.642 28.5387C117.608 28.1138 117.163 28.0797 117.249 27.4821C117.482 27.3967 117.715 27.3112 117.96 27.2252C117.996 27.2049 118.058 27.2019 118.057 27.1649C118.204 26.5272 118.578 26.6946 118.885 26.6241C119.156 26.5739 119.425 26.4496 119.696 26.418C119.954 26.3684 120.227 26.3923 120.547 26.3768C120.358 26.2005 120.244 26.0392 120.046 26.0302C119.626 26.0134 119.198 26.2381 118.796 25.9052C118.483 26.2912 118.177 25.8239 117.846 25.9326C117.515 26.0413 117.142 25.9666 116.797 26.0018C116.292 26.0633 115.81 26.0125 115.298 25.7776C115.456 25.6217 115.6 25.4663 115.709 25.3498C116.186 25.1413 116.675 25.4885 117.098 25.0601C117.343 25.5489 117.566 24.9818 117.801 25.0075C118.036 25.0332 118.259 25.041 118.489 24.8259C118.622 24.6897 118.846 24.8086 119.031 24.7626C119.203 24.7172 119.361 24.6353 119.533 24.5529C119.679 24.4716 119.825 24.3718 120.069 24.2117C119.895 24.183 119.833 24.1675 119.784 24.1698C119.24 24.1405 118.708 24.0921 118.164 24.0627C118.114 24.0651 118.051 24.0125 118.002 23.9964C117.927 23.9629 117.852 23.9295 117.789 23.8769C117.675 23.7526 117.586 23.6085 117.484 23.4651C117.821 23.0408 118.22 23.2255 118.587 23.0594C118.24 23.0205 117.926 22.7576 117.569 22.8119C117.347 22.8412 117.11 22.7414 116.875 22.6971C116.869 22.4193 116.864 22.2155 116.858 21.9376C117.006 21.9304 117.168 21.9597 117.314 21.897C117.462 21.8528 117.568 21.6436 117.755 21.6903C117.916 21.7196 118.088 21.6741 118.248 21.6664C118.408 21.6586 118.581 21.6503 118.791 21.6401C118.849 21.4519 118.906 21.2451 118.975 21.0007C118.875 20.9499 118.825 20.9153 118.775 20.8991C118.65 20.831 118.525 20.7628 118.388 20.6953C118.459 20.5621 118.495 20.5047 118.53 20.4288C118.492 20.375 118.467 20.3391 118.441 20.3033C118.518 19.8545 118.781 20.0087 118.965 19.9627C119.207 19.747 119.116 18.954 119.613 19.0783C119.563 19.0622 119.5 19.0281 119.451 19.012C119.389 18.9964 119.315 19.0185 119.289 18.9641C119.213 18.8566 119.166 18.9701 119.116 18.954C118.708 18.9366 118.311 18.8631 117.903 18.8087C117.853 18.7925 117.802 18.7023 117.738 18.6312C118.105 18.428 118.446 18.2446 118.837 18.0402C118.881 17.7785 118.833 17.2801 119.24 17.2604C118.893 17.1659 118.572 17.2 118.251 17.2155C117.931 17.231 117.598 17.2471 117.289 17.262C117.2 17.1365 117.136 17.0284 117.033 16.8479C117.167 16.7487 117.253 16.7075 117.325 16.6483C117.325 16.6298 117.325 16.6113 117.324 16.5742C117.066 16.6238 116.991 16.0339 116.697 16.1594C116.6 16.2012 116.46 16.0411 116.36 15.9903C116.387 15.4883 116.789 15.8027 116.829 15.3742C116.828 15.3557 117.364 15.0145 117.389 15.0133C117.611 15.0025 117.833 14.9918 118.04 14.852C117.212 14.8364 116.372 14.8028 115.643 14.801C115.381 14.6468 115.312 14.3163 115.079 14.3832C114.845 14.4501 114.656 14.2368 114.503 14.0216C114.312 13.7527 114.037 13.6176 113.941 13.1772C114.04 13.1724 114.139 13.1676 114.262 13.1617C114.276 13.2167 114.303 13.3266 114.33 13.4551C114.389 13.3224 114.448 13.1713 114.494 13.0392C114.52 13.0936 114.558 13.1288 114.584 13.1832C114.927 13.0739 115.271 12.9646 115.626 12.8546C115.637 12.7799 115.635 12.6873 115.645 12.557C115.186 12.4865 114.74 12.4153 114.282 12.3448C114.279 12.2151 114.276 12.0669 114.273 11.9557C114.37 11.8398 114.454 11.743 114.538 11.6462C114.475 11.5566 114.448 11.4836 114.424 11.4848C114.325 11.4711 114.188 11.4221 114.115 11.4998C113.946 11.6748 113.812 11.7555 113.659 11.5033C113.117 11.5851 112.606 11.3502 112.096 11.1894C111.76 11.0759 111.427 11.092 111.093 11.071C111.042 10.9993 111.004 10.9455 110.915 10.82C110.91 10.5977 110.904 10.3013 110.894 9.8567C110.762 10.03 110.701 10.0886 110.654 10.165C110.606 10.2415 110.571 10.3174 110.464 10.5266C110.418 10.1208 110.388 9.88116 110.358 9.64152C110.297 9.64451 110.259 9.62777 110.161 9.63255C110.201 9.79749 110.253 9.92478 110.268 10.0539C110.284 10.2015 110.275 10.3503 110.277 10.4429C110.428 10.5839 110.541 10.6712 110.692 10.8122C110.607 10.8535 110.559 10.9114 110.497 10.9144C110.251 10.9634 110.17 10.652 110.018 10.4739C110.066 10.3975 110.09 10.3592 110.138 10.2827C110.05 10.2313 109.975 10.1793 109.9 10.1273C109.947 10.0138 109.981 9.88232 110.039 9.73114C109.864 9.62834 109.724 10.0245 109.557 9.69883C109.48 9.55421 109.187 9.73526 109.049 9.61214C108.91 9.48902 108.781 9.79199 108.689 9.53681C108.56 9.83978 108.358 9.64555 108.2 9.74593C108.159 9.59952 108.132 9.48956 108.106 9.39813C107.869 9.29831 107.566 9.5911 107.42 9.09748C107.8 8.98635 108.194 8.89316 108.598 8.76232C108.627 8.94638 108.643 9.13104 108.687 9.46271C108.768 9.19918 108.814 9.04859 108.861 8.91652C109.163 9.19861 109.398 9.18727 109.641 8.99009C109.738 8.91121 109.874 8.92317 109.984 8.89928C110.017 8.67518 110.049 8.45109 110.082 8.26404C109.783 8.13016 109.495 7.95862 109.197 7.89884C108.9 7.83906 108.592 7.8725 108.295 7.86829C108.122 7.85812 107.961 7.82882 107.738 7.80251C107.726 7.84016 107.667 7.9543 107.609 8.10548C107.769 8.11625 107.93 8.1085 108.078 8.10134C108.159 8.43122 108.089 8.63858 107.908 8.83278C107.817 8.61465 107.714 8.39712 107.597 8.12461C107.494 7.9256 107.391 7.74511 107.263 7.52877C107.117 7.64709 106.984 7.74628 106.838 7.86459C106.896 8.28829 107.017 8.17118 107.184 7.88494C107.201 8.08812 107.217 8.25425 107.247 8.51242C107.097 8.44548 107.01 8.39408 106.91 8.34327C106.837 8.40243 106.764 8.46159 106.643 8.56018C106.636 8.22672 106.63 7.94884 106.624 7.68948C106.437 7.58728 106.247 7.35539 106.137 7.43486C105.918 7.57528 105.745 7.56511 105.556 7.42585C105.417 7.82205 105.262 7.49575 105.1 7.44793C104.852 7.38576 104.603 7.32359 104.344 7.29906C104.084 7.27454 103.813 7.32472 103.542 7.33784C103.515 7.22788 103.488 7.11792 103.447 6.97151C103.399 7.02947 103.363 7.06832 103.327 7.12569C102.99 6.93801 103.177 6.46533 103.069 6.04401C102.935 6.12468 102.813 6.18622 102.679 6.26688C102.527 5.5139 102.527 5.5139 102.11 5.62682C102.135 5.66267 102.161 5.71705 102.237 5.82463C102.139 5.84793 102.028 5.87182 101.93 5.89512C101.968 5.94891 102.019 6.0021 102.057 6.05589C101.901 6.2489 101.677 6.20406 101.442 6.17834ZM45.8924 42.301C45.8351 42.5078 45.8128 42.6201 45.7658 42.7337C45.6723 42.9793 45.5656 43.1884 45.3957 43.3265C45.3714 43.3462 45.3332 43.2924 45.2835 43.2762C45.2807 43.1466 45.2775 42.9984 45.2751 42.8872C45.079 42.9523 44.907 42.9977 44.6985 43.0635C44.6894 42.6374 44.6818 42.2854 44.6715 41.8037C44.7507 42.041 44.7901 42.1503 44.8295 42.2597C44.9501 42.1241 45.0706 41.9884 45.1908 41.8342C45.2565 42.0165 45.2959 42.1259 45.3357 42.2538C45.5506 41.9096 45.7261 42.0309 45.771 42.3996C46.0918 42.3841 46.2891 42.3746 46.4618 42.3662C46.4332 42.1821 46.4177 42.0345 46.3894 41.869C46.4141 41.8678 46.426 41.8487 46.4507 41.8475C46.5669 42.0829 46.6708 42.319 46.787 42.5545C47.1642 42.2951 47.2012 42.2934 47.5522 42.536C47.6481 42.4016 47.7436 42.2486 47.8754 42.0568C47.9589 42.4978 48.333 42.0903 48.3696 42.6448C48.1973 42.6717 48.0254 42.7171 47.9024 42.7416C47.8686 42.8916 47.8459 42.9854 47.8232 43.0792C47.775 43.1372 47.7265 43.1766 47.666 43.2352C47.6374 43.0511 47.5968 42.8862 47.5681 42.7021C47.4965 42.8169 47.4607 42.8742 47.4129 42.9507C47.3357 42.8061 47.2713 42.6794 47.2072 42.5712C46.8439 42.9041 46.4694 42.7182 46.1124 42.7725C46.0758 42.7929 45.9855 42.6118 45.8924 42.301ZM85.3702 43.3404C85.2572 43.2531 85.1565 43.1653 85.0184 43.0607C85.248 42.827 85.3392 43.0452 85.1569 43.1838C85.0487 43.3189 84.9647 43.4342 84.9169 43.5107C84.7056 43.4467 84.4923 43.2901 84.4199 43.3678C84.24 43.6176 84.0403 43.516 83.8437 43.5626C83.7454 43.5859 83.5957 43.5189 83.548 43.5954C83.3327 43.9211 83.1071 43.7651 82.8969 43.7567C82.7378 43.2452 83.1572 43.2249 83.1489 42.8358C83.404 43.2129 83.5607 43.0385 83.7374 42.6405C83.5878 42.5735 83.4633 42.5239 83.3383 42.4558C83.1759 42.3709 83.0379 42.2663 83.1159 41.8731C83.3646 41.9538 83.601 42.0351 83.7753 42.1008C83.8541 42.3196 83.9066 42.4654 83.9595 42.6297C83.9245 42.7242 83.8895 42.8186 83.8425 42.9321C84.252 43.0236 84.6611 43.0965 85.3702 43.3404ZM85.7148 9.31268C85.8223 9.14058 85.9417 8.94936 86.0487 8.75873C86.3134 9.00556 86.5601 8.99363 86.765 8.76118C87.089 8.89388 87.3759 9.02836 87.7125 9.17898C87.6405 9.27519 87.5677 9.33434 87.5203 9.42935C87.4487 9.54409 87.4025 9.69468 87.3675 9.78909C86.796 9.63128 86.2493 9.47228 85.4152 8.58538C85.5206 8.89554 85.6006 9.16984 85.6659 9.33359C85.6078 9.5033 85.5735 9.63477 85.5389 9.74772C85.289 9.61145 85.1012 9.49071 84.9014 9.38911C84.7267 9.30483 84.6085 9.55163 84.4609 9.57732C84.3256 9.6024 84.1748 9.47989 84.0259 9.44999C83.9889 9.45178 83.9539 9.5462 83.8938 9.62329C83.8648 9.4207 83.8485 9.23604 83.8194 9.03345C83.5977 9.6376 83.5739 9.67585 83.3136 9.6328C83.0406 9.57182 82.7788 9.45467 82.505 9.35665C82.4966 9.5425 82.4998 9.6907 82.5018 9.78333C82.4254 9.67576 82.3363 9.55025 82.2853 9.47854C81.9033 9.51556 81.5945 9.51195 81.3127 9.6183C81.2025 9.66072 81.1432 9.77485 81.0043 9.63321C80.7767 9.38459 80.44 9.80886 80.2092 9.41204C80.0691 9.78971 79.7277 9.41678 79.5996 9.77533C79.5475 9.64804 79.5065 9.46457 79.4444 9.44903C79.2203 9.36714 79.1666 9.16575 79.1603 8.86934C79.1575 8.73966 79.068 8.59563 79.0656 8.48448C79.0755 8.37273 79.1595 8.2574 79.183 8.20063C79.3577 8.28491 79.5069 8.33332 79.6319 8.40146C79.6462 8.49349 79.6605 8.58552 79.6752 8.69608C79.7982 8.67158 79.9088 8.64769 79.9952 8.64352C80.0167 8.49412 80.027 8.4009 80.0262 8.36384C80.1882 8.43019 80.3251 8.4792 80.4743 8.52762C80.5026 8.69316 80.5185 8.85929 80.5471 9.04335C80.6669 8.87065 80.7624 8.71768 80.834 8.60295C80.9841 8.68841 81.0844 8.75774 81.1846 8.82707C81.2304 8.65796 81.2531 8.56414 81.2758 8.47031C81.3908 8.6502 81.5181 8.82949 81.6327 8.99085C81.9606 8.73391 82.2432 8.66461 82.3212 8.84628C82.3848 8.93593 82.4608 9.02498 82.55 9.15048C82.5953 8.96284 82.6176 8.85049 82.6515 8.7005C83.2719 8.8374 83.9173 8.41674 84.5556 8.8124C84.6181 8.84647 84.7411 8.82198 84.7892 8.76401C84.9814 8.51364 85.2079 8.70668 85.7148 9.31268ZM13.3556 40.722C13.0607 40.7919 12.8132 40.7667 12.6186 40.906C12.4116 41.0458 12.2242 40.9436 12.0384 40.9155C11.8032 40.8898 11.5791 40.8079 11.3559 40.763C11.3097 40.9136 11.2751 41.0266 11.2293 41.1957C11.1414 41.1258 11.0538 41.0744 10.9158 40.9698C10.8692 41.1018 10.8111 41.2716 10.7761 41.366C10.5524 41.3026 10.4028 41.2357 10.254 41.2058C10.0805 41.1771 9.84368 41.0773 9.83931 40.8735C9.83256 40.5585 9.39242 40.7653 9.5934 40.3476C9.82779 40.3362 10.0622 40.3249 10.2842 40.3142C10.2994 40.4432 10.3137 40.5353 10.3419 40.7008C10.3992 40.4941 10.4339 40.3811 10.48 40.2305C10.7785 40.3274 11.0893 40.4236 11.3877 40.5204C11.4355 40.4439 11.4832 40.3674 11.5191 40.3101C11.4805 40.2378 11.4419 40.1655 11.3511 39.9659C11.5509 40.0675 11.6385 40.1189 11.7383 40.1697C11.7606 40.0573 11.7829 39.945 11.8052 39.8326C11.8673 39.8482 11.929 39.8452 12.0284 39.8775C11.9966 40.1201 11.964 40.3257 11.9333 40.6239C12.268 40.6818 12.6146 40.7207 12.9739 40.7775C13.0679 40.5504 13.1256 40.3622 13.2079 40.1728C13.4396 40.0318 13.5565 40.3043 13.7093 40.5194C14.0043 39.8746 14.5068 40.2769 14.8702 39.944C14.8726 40.0552 14.8738 40.1108 14.8753 40.1849C15.0377 40.2697 15.2009 39.8168 15.3955 40.2524C15.3111 40.3492 15.2271 40.4646 15.0831 40.657C15.3409 40.5889 15.5152 40.6546 15.7082 40.4413C15.9009 40.2094 16.1452 40.0863 16.3641 39.9274C16.4373 39.8868 16.5344 39.8079 16.5845 39.8426C16.8619 40.1073 17.1671 39.9442 17.4397 39.9867C17.4799 40.1331 17.507 40.243 17.5611 40.463C17.655 40.2359 17.7135 40.0847 17.7489 40.0088C17.9833 39.9975 18.156 39.9891 18.3534 39.9796C18.3438 40.1098 18.3335 40.2031 18.3239 40.3333C18.1994 40.2837 18.1118 40.2323 18.012 40.1815C17.9897 40.2939 17.9674 40.4062 17.9447 40.5C17.5511 40.5747 17.1544 40.5012 16.7246 40.6147C16.801 40.7222 16.8392 40.776 16.9029 40.8657C16.7683 40.9278 16.6358 41.0826 16.5363 41.0503C16.1125 40.8668 15.6839 41.0359 15.2641 41.0377C15.0417 41.0299 14.783 41.0609 14.5335 40.9432C14.4837 40.927 14.4209 40.8744 14.3715 40.8768C14.2613 40.9193 14.165 41.0352 14.0544 41.0591C13.9684 41.0818 13.8669 40.9569 13.7806 40.961C13.6819 40.9658 13.5852 41.0632 13.4877 41.1236C13.4089 40.9048 13.3818 40.7949 13.3556 40.722ZM21.5867 7.62953C21.9321 7.61282 22.3177 7.74253 22.6098 7.54296C23.2425 7.10437 23.9457 7.64525 24.5394 7.11583C24.8431 7.4535 25.1352 7.25392 25.4277 7.07287C25.4766 7.05196 25.5634 7.06631 25.6012 7.10157C25.83 7.40577 26.1312 7.05739 26.358 7.26896C26.6099 7.49786 26.8782 7.33653 27.1253 7.34312C27.2116 7.33895 27.2956 7.22362 27.368 7.14594C27.4934 7.2326 27.6187 7.31925 27.719 7.38858C27.7238 7.61089 27.7282 7.81467 27.7341 8.09256C27.5948 7.93239 27.5057 7.80689 27.3915 7.66405C27.0791 8.0686 26.7424 7.91798 26.407 7.82293C26.3966 7.91616 26.3859 7.99086 26.3755 8.08408C26.1479 7.83546 25.8642 7.84918 25.6942 7.98722C25.4276 8.22265 25.2127 7.99196 24.9779 7.98477C24.7802 7.97579 24.6166 7.83534 24.3977 7.99429C24.2155 8.13291 23.954 8.03429 23.732 8.04502C23.5223 8.05517 23.3022 8.15854 23.1148 8.05633C22.8899 7.93739 22.7431 8.57502 22.5238 8.14054C22.3694 8.42618 22.2413 8.20984 22.0793 8.1435C21.8803 8.07894 21.6718 8.14466 21.4621 8.1548C21.3757 8.15898 21.2886 8.12611 21.1274 8.09681C21.2576 7.83089 21.3527 7.65939 21.4828 7.39347C21.1636 7.48308 20.9643 7.40001 20.9285 6.88248C21.3638 7.02833 21.7228 6.49172 22.0471 6.64294C22.2127 6.87601 22.3022 7.02004 22.3913 7.14554C22.2696 7.22561 22.1012 7.43774 22.0383 7.38514C21.8243 7.19151 21.7323 7.51122 21.5867 7.62953ZM23.5576 43.103C23.2122 43.1197 22.9038 43.1346 22.5954 43.1495C22.593 43.0384 22.591 42.9458 22.5878 42.7976C22.8362 42.8597 23.0717 42.904 23.3077 42.9667C23.3069 42.9297 23.3189 42.9106 23.3181 42.8735C23.2305 42.8221 23.1553 42.7701 23.0928 42.736C23.0893 42.5693 23.0861 42.4211 23.0829 42.2729C23.2441 42.3022 23.4323 42.4415 23.5167 42.3447C23.7097 42.1313 23.8179 42.5712 23.9998 42.414C24.0969 42.3351 24.2724 42.4565 24.4089 42.487C24.4192 42.3937 24.43 42.319 24.4407 42.2443C24.6066 42.4959 24.7726 42.7475 24.9508 42.9985C25.1582 42.8772 25.2919 42.7781 25.4387 42.7153C25.6099 42.6329 25.8112 42.8086 25.9537 42.5421C25.9776 42.5038 26.0898 42.554 26.1523 42.5881C26.3775 42.7256 26.627 42.8433 26.8284 43.019C27.0671 43.2115 27.286 43.0525 27.5088 43.0788C27.5192 42.9856 27.5299 42.9109 27.5506 42.7245C27.6167 42.9253 27.6561 43.0346 27.7086 43.1804C27.8439 43.1553 27.9915 43.1297 28.2498 43.0801C28.0628 42.9964 27.988 42.9629 27.8881 42.9121C27.8972 42.7633 27.8937 42.5966 27.9124 42.3175C28.0879 42.4388 28.214 42.5626 28.3378 42.5751C28.4615 42.5877 28.5821 42.452 28.7524 42.3325C28.7465 42.6295 28.7393 42.871 28.7361 43.2976C28.6553 42.9863 28.6283 42.8763 28.5885 42.7484C28.5451 43.0287 28.1826 42.8237 28.2912 43.2821C28.6541 43.5056 28.9434 43.1763 29.2992 43.0664C29.1925 43.2756 29.0859 43.4847 28.9792 43.6939C28.7679 43.6299 28.5256 43.8456 28.3338 43.5396C28.3206 43.5032 28.2231 43.5635 28.1746 43.603C27.9334 43.8743 27.746 43.7721 27.5303 43.5043C27.4161 43.3615 27.202 43.1678 27.1515 43.6895C27.1415 43.8013 26.9453 43.8664 26.8239 43.965C26.7456 43.7648 26.668 43.6017 26.6158 43.4744C26.5048 43.4797 26.4061 43.4845 26.3198 43.4887C26.2979 43.6195 26.2879 43.7313 26.2656 43.8436C26.1765 43.7181 26.1128 43.6285 26.0619 43.5568C26.0973 43.4809 26.1331 43.4235 26.2525 43.2323C26.0205 43.3548 25.886 43.4169 25.7642 43.497C25.6751 43.3715 25.5864 43.2645 25.4972 43.139C25.3798 43.4229 25.2047 43.3201 25.0447 43.3464C24.7363 43.3613 24.4275 43.3577 24.1315 43.372C24.1191 43.3726 24.106 43.3361 24.0805 43.3003C24.0913 43.2256 24.1016 43.1323 24.1 43.0582C24.2226 43.0152 24.3332 42.9913 24.4435 42.9489C24.1581 42.8885 23.9023 42.4744 23.5867 42.7307C23.5755 42.7869 23.5664 42.9357 23.5576 43.103ZM4.17723 32.524C4.05784 32.7152 4.0463 32.7529 4.03396 32.7535C3.94681 32.7206 3.83539 32.7074 3.78406 32.6172C3.63006 32.3465 3.35707 32.2855 3.2353 32.3656C3.00369 32.5066 2.81626 32.4044 2.5954 32.4707C2.58705 32.0817 2.49196 31.6783 2.58707 31.5068C2.76497 31.1644 2.37658 30.905 2.61735 30.6152C2.99181 30.801 3.39094 30.9857 3.80241 31.1698C3.80996 31.5218 3.81711 31.8553 3.82665 32.2999C3.91419 32.3513 4.02681 32.42 4.17723 32.524ZM5.06145 32.8707C4.78489 32.643 4.5712 32.4679 4.37024 32.3107C4.30419 32.1099 4.27515 31.9073 4.19795 31.7627C4.12115 31.6366 4.00814 31.5493 3.89473 31.4435C3.96716 31.3659 3.99064 31.3091 4.02725 31.2888C4.06386 31.2685 4.11321 31.2661 4.15061 31.2828C4.26243 31.3145 4.37584 31.4203 4.47454 31.4155C4.5979 31.4095 4.80364 31.2141 4.82951 31.2685C4.9465 31.541 5.11205 31.1992 5.26446 31.3958C5.37946 31.5757 5.61345 31.5459 5.82516 31.6283C5.76506 31.7054 5.72885 31.7443 5.69224 31.7646C5.64369 31.804 5.59474 31.8249 5.52152 31.8656C5.82196 32.055 5.84862 32.1465 5.76504 32.2803C5.61582 32.2319 5.49126 32.1823 5.39138 32.1315C5.27397 32.4153 5.15538 32.6436 5.06145 32.8707ZM31.776 43.3917C31.1456 43.9414 30.5177 43.4526 29.8651 43.5398C29.8862 43.3718 29.8969 43.2971 29.9196 43.2033C30.154 43.192 30.3876 43.1436 30.5981 43.1705C30.8333 43.1962 31.0876 42.9614 31.2925 43.3038C31.4831 42.9793 31.6598 43.1562 31.86 43.2764C31.9475 43.3278 32.096 43.3391 32.156 43.2621C32.3717 42.9549 32.6977 43.1802 32.911 42.7619C32.942 43.0571 32.9702 43.2227 32.9862 43.3888C33.0733 43.4217 33.1481 43.4552 33.0984 43.439C33.0526 43.6081 32.9837 43.8525 32.8918 44.1723C32.712 43.8471 32.5962 43.6302 32.4808 43.4318C32.4203 43.4904 32.396 43.5101 32.3598 43.5489C32.3984 43.6212 32.4366 43.675 32.4875 43.7467C32.3908 43.8441 32.3068 43.9595 32.1863 44.0951C32.0331 43.8614 31.9173 43.6445 31.776 43.3917ZM21.1613 40.1961C20.8772 40.1913 20.6471 40.4064 20.371 40.1972C20.1453 40.0413 19.8381 40.1117 19.5715 40.3472C19.4748 40.4446 19.3462 40.7846 19.1664 40.4595C19.1278 40.3872 18.9817 40.487 18.8572 40.4374C18.7076 40.3704 18.5472 40.3782 18.4417 40.068C19.2806 39.4526 20.1469 40.1154 20.9703 39.9272C21.034 40.0168 21.0976 40.1065 21.1613 40.1961ZM93.0836 43.1157C92.9706 43.0285 92.8946 42.9394 92.8329 42.9424C92.6972 42.949 92.5726 42.8993 92.4405 43.0726C92.3804 43.1497 92.2133 42.8425 92.0585 43.1097C91.9753 43.262 91.563 43.0409 91.4982 42.8957C91.5579 42.8001 91.6056 42.7236 91.6056 42.7236C91.885 42.5061 92.1234 42.68 92.3669 42.5199C92.5496 42.3997 92.825 42.5719 93.0733 42.634C93.076 42.7637 93.0792 42.9119 93.0836 43.1157ZM79.8949 42.5481C79.5169 42.1955 79.1368 42.3252 78.6923 42.3281C78.8614 42.153 78.9569 42.0001 79.0672 41.9576C79.1893 41.8961 79.3382 41.926 79.4615 41.92C79.4826 41.7521 79.4934 41.6774 79.5029 41.5471C79.6267 41.5597 79.7377 41.5543 79.8985 41.5651C79.8289 41.7725 79.7819 41.886 79.7588 41.9613C79.8125 42.1627 79.8539 42.3647 79.8949 42.5481ZM13.1845 39.6547C13.6541 39.0941 14.0683 39.4079 14.4917 39.5729C13.9175 39.8603 13.9175 39.8603 13.1845 39.6547ZM44.3348 42.228C44.2011 42.3272 44.1279 42.3678 44.067 42.4078C44.0678 42.4449 44.0809 42.4813 44.0817 42.5184C44.2298 42.5112 44.3901 42.5035 44.5628 42.4951C44.5553 42.718 44.5465 42.8854 44.5278 43.1644C44.3384 42.9696 44.2246 42.8453 44.0479 42.6684C43.9122 42.675 43.7395 42.6833 43.5298 42.6935C43.7463 42.4234 43.9265 42.1921 44.0471 42.0565C44.1717 42.1061 44.2469 42.1581 44.3348 42.228ZM78.3134 9.68917C78.6174 9.47048 78.4635 9.19976 78.5084 8.99359C78.5761 8.6936 78.5829 8.43364 78.8531 8.36494C78.8706 8.60518 78.6533 8.83822 78.8925 9.0492C78.9553 9.10179 78.9131 9.43763 78.9179 9.65994C78.7452 9.66829 78.6095 9.67485 78.3134 9.68917ZM84.8955 41.3605C84.6496 41.9844 84.3161 41.4071 84.0738 41.6228C84.0694 41.419 84.0666 41.2893 84.0626 41.1041C84.3611 41.2009 84.6635 40.9081 84.8955 41.3605ZM87.6839 8.42003C87.6115 8.49771 87.5271 8.59451 87.4427 8.69132C87.2931 8.62438 87.1184 8.5401 86.9441 8.47435C86.9409 8.32615 86.9378 8.17794 86.9342 8.01121C87.1618 8.25983 87.506 7.61266 87.6839 8.42003ZM61.8978 41.1932C62.6714 40.9888 62.6714 40.9888 62.8648 41.3689C62.6316 41.4358 62.3865 41.5219 62.1043 41.6097C62.053 41.5195 61.9881 41.3742 61.8978 41.1932ZM89.1511 8.31198C88.9426 8.95258 88.8936 8.9735 88.5128 8.49121C88.5705 8.30297 88.6402 8.09561 88.6975 7.88885C88.8491 8.04842 89.0003 8.18946 89.1511 8.31198ZM29.9881 7.81665C29.8381 8.30607 29.7179 8.46023 29.4807 8.34189C29.3311 8.27495 29.1802 8.15243 29.2726 7.85125C29.507 7.83992 29.7414 7.82858 29.9881 7.81665ZM88.6174 9.91409C88.5163 9.80771 88.4033 9.72045 88.2895 9.59614C88.2386 9.52443 88.1992 9.41507 88.1216 9.25192C88.3807 9.23939 88.5534 9.23103 88.7508 9.22149C88.8029 9.34878 88.8677 9.494 88.9326 9.63922C88.8236 9.73722 88.7145 9.83521 88.6174 9.91409ZM45.5307 7.58422C45.2708 7.5597 45.0042 7.79513 44.7845 7.34213C44.8442 7.24652 44.892 7.17004 44.9636 7.0553C45.1367 7.06548 45.3222 7.07506 45.5196 7.06551C45.5235 7.25076 45.5259 7.36192 45.5307 7.58422ZM31.133 41.624C31.2834 41.728 31.4211 41.814 31.6217 41.9527C31.4251 41.9993 31.3148 42.0417 31.2042 42.0656C31.3061 42.209 31.3948 42.316 31.4967 42.4594C31.351 42.5777 31.2416 42.6572 31.1445 42.7361C30.766 42.365 31.0673 42.0166 31.133 41.624ZM21.9591 42.2716C22.295 42.3852 22.646 42.053 22.9786 42.5932C22.6085 42.6111 22.2878 42.6266 21.9671 42.6421C21.9643 42.5125 21.9627 42.4384 21.9591 42.2716ZM2.418 29.9572C2.50237 29.8604 2.58555 29.708 2.68384 29.6847C2.84342 29.6399 3.00379 29.6321 3.16496 29.6614C3.2147 29.6776 3.26722 29.8234 3.30622 29.9142C3.12356 30.0343 2.99143 30.2076 2.85534 30.1957C2.72003 30.2208 2.58076 30.0606 2.418 29.9572ZM90.0656 43.4657C89.9756 43.3031 89.9112 43.1764 89.8594 43.0676C89.9426 42.9153 90.0143 42.8005 90.0381 42.7623C90.2725 42.751 90.4452 42.7426 90.6549 42.7325C90.4381 42.984 90.2578 43.2153 90.0656 43.4657ZM109.123 8.45878C109.028 8.64881 108.945 8.81972 108.862 8.9721C108.772 8.79102 108.654 8.48145 108.617 8.48324C108.459 8.58363 108.359 8.55135 108.24 8.18621C108.565 8.37448 108.878 7.98845 109.123 8.45878ZM52.8146 43.1902C52.7135 43.0838 52.6503 43.0127 52.6001 42.978C52.6578 42.7898 52.704 42.6392 52.7621 42.4695C52.8361 42.4659 52.9229 42.4803 52.9965 42.4582C53.0578 42.4366 53.0928 42.3422 53.1649 42.246C53.2436 42.4647 53.2838 42.6112 53.3495 42.7934C53.1402 42.8221 52.9802 42.8484 52.8449 42.8735C52.8353 43.0037 52.825 43.097 52.8146 43.1902ZM30.7191 41.9036C30.7724 42.0865 30.8126 42.2329 30.8663 42.4343C30.4545 42.2317 30.4545 42.2317 30.5122 41.4685C30.6626 41.5725 30.8003 41.6586 31.0009 41.7973C30.866 41.8409 30.817 41.8618 30.7191 41.9036ZM31.084 8.2458C30.8003 8.25953 30.5289 8.27265 30.2328 8.28697C30.4063 7.74078 30.7203 7.98523 30.9658 7.91772C30.9905 7.91653 31.0407 7.95119 31.0785 7.98645C31.08 8.06055 31.0816 8.13465 31.084 8.2458ZM82.8075 42.4629C82.6224 42.4719 82.425 42.4814 82.2153 42.4916C82.2233 42.2872 82.2197 42.1204 82.2281 41.9346C82.4652 42.0529 82.6523 42.1366 82.8393 42.2203C82.817 42.3326 82.8182 42.3882 82.8075 42.4629ZM20.0999 42.5284C20.0975 42.4173 20.0832 42.3253 20.0951 42.3061C20.4087 41.9572 20.667 42.4825 20.9634 42.4867C20.692 42.4998 20.4206 42.5129 20.0999 42.5284ZM87.8869 8.09495C88.1013 8.30711 88.3847 8.27487 88.4073 8.75593C87.9899 8.86885 87.9768 8.83239 87.8869 8.09495ZM4.0966 28.1884C3.79058 28.3145 3.68275 27.8932 3.45592 27.6816C3.84513 27.4032 3.94181 27.8807 4.0966 28.1884ZM49.8177 8.24849C49.6013 7.9437 49.4612 7.74649 49.308 7.51281C49.774 7.36046 49.8249 7.43218 49.8177 8.24849ZM50.1464 43.1523C49.76 42.9856 49.76 42.9856 49.7815 42.2613C49.8309 42.2589 49.8925 42.2559 49.9419 42.2535C49.9972 42.529 50.0644 42.7854 50.1464 43.1523ZM12.9496 43.6717C12.6515 43.5934 12.3781 43.5139 12.1047 43.4344C12.1039 43.3973 12.1035 43.3788 12.1151 43.3411C12.3865 43.328 12.6579 43.3149 12.9416 43.3012C12.9444 43.4308 12.946 43.5049 12.9496 43.6717ZM81.4847 41.8222C81.4835 41.7666 81.4827 41.7296 81.4815 41.674C81.6666 41.665 81.8639 41.6555 82.049 41.6465C82.0557 41.9615 82.0621 42.2579 82.0685 42.5543C81.9817 42.5399 81.9196 42.5244 81.8946 42.5071C81.9268 42.283 81.9471 42.078 81.9901 41.7792C81.7808 41.8079 81.6328 41.815 81.4847 41.8222ZM48.7381 42.5528C48.9462 42.4686 49.1301 42.4041 49.3382 42.3198C49.3764 42.3736 49.4277 42.4638 49.4787 42.5356C49.3696 42.6336 49.2725 42.7124 49.1631 42.7919C49.1376 42.7561 49.0871 42.7029 49.0489 42.6491C49.0131 42.7064 48.9649 42.7644 48.9291 42.8218C48.8778 42.7315 48.8145 42.6604 48.7381 42.5528ZM78.278 43.739C78.4236 43.6207 78.5574 43.5215 78.6787 43.4229C78.8053 43.5652 78.98 43.6494 78.8638 43.9889C78.6767 43.9052 78.4774 43.8221 78.278 43.739ZM102.074 7.42737C102.132 7.25765 102.18 7.16264 102.202 7.06882C102.224 6.93795 102.234 6.80768 102.254 6.62123C102.543 6.84834 102.414 7.15131 102.469 7.4268C102.321 7.41544 102.222 7.42021 102.074 7.42737ZM85.5541 41.5512C85.4522 41.9827 85.3376 41.8213 85.2226 41.6414C85.1749 41.7179 85.1391 41.7753 85.0312 41.9288C85.0487 41.5942 85.0451 41.4275 85.065 41.204C85.2533 41.3432 85.3914 41.4478 85.5541 41.5512ZM12.3488 39.8434C12.3882 39.9528 12.4658 40.1159 12.5187 40.2803C12.5322 40.3353 12.4972 40.4297 12.4642 40.6167C12.3245 40.438 12.223 40.3131 12.0706 40.1165C12.1916 39.9994 12.2764 39.9211 12.3488 39.8434ZM22.5552 44.1529C22.5683 44.1894 22.581 44.2073 22.6065 44.2431C22.2734 44.2593 21.9527 44.2748 21.6196 44.2909C21.6188 44.2538 21.6184 44.2353 21.6176 44.1982C21.926 44.1833 22.2468 44.1678 22.5552 44.1529ZM81.879 43.5092C82.0394 43.5015 82.1874 43.4943 82.3478 43.4866C82.3502 43.5977 82.3518 43.6718 82.3546 43.8015C82.1942 43.8093 82.0461 43.8164 81.8858 43.8242C81.883 43.6945 81.8814 43.6204 81.879 43.5092ZM91.9976 41.9999C91.887 42.0238 91.8253 42.0268 91.7768 42.0662C91.7282 42.1057 91.6928 42.1816 91.6689 42.2198C91.5559 42.1325 91.4556 42.0632 91.3426 41.976C91.4759 41.8582 91.6096 41.7591 91.7434 41.6599C91.8198 41.7674 91.8707 41.8391 91.9976 41.9999ZM29.0875 7.8602C29.1007 7.89665 29.1015 7.9337 29.1146 7.97016C28.9693 8.107 28.8118 8.24443 28.6422 8.40099C28.6375 8.17868 28.6347 8.049 28.6307 7.86375C28.7915 7.87452 28.9395 7.86736 29.0875 7.8602ZM63.355 42.9215C63.3005 43.258 63.2313 43.4838 62.9833 43.4402C62.9794 43.2549 62.9758 43.0882 62.9714 42.8844C63.1198 42.8958 63.2313 42.909 63.355 42.9215ZM64.3407 43.3931C64.408 43.0746 64.4649 42.8493 64.5091 42.6061C64.5843 42.6581 64.634 42.6742 64.7216 42.7256C64.6157 42.9718 64.6611 43.3591 64.3407 43.3931ZM77.282 43.3607C77.0209 43.2806 76.8701 43.158 76.9477 42.7463C77.159 42.8103 77.3094 42.9143 77.282 43.3607ZM63.5261 43.414C63.8628 42.9897 63.973 42.9473 64.0884 43.1457C64.0777 43.2204 64.0669 43.2951 64.0566 43.3883C63.8962 43.3961 63.7605 43.4026 63.5261 43.414ZM79.2872 43.5789C79.4603 43.5891 79.6087 43.6005 79.8065 43.6095C79.711 43.7624 79.6513 43.8581 79.5916 43.9537C79.553 43.8814 79.5148 43.8276 79.4762 43.7553C79.4284 43.8317 79.3926 43.8891 79.2967 44.0236C79.2923 43.8198 79.2904 43.7271 79.2872 43.5789ZM80.2021 43.6274C80.411 43.0053 80.411 43.0053 80.721 43.0645C80.5881 43.2008 80.4432 43.3561 80.2021 43.6274ZM21.7999 42.335C21.5679 42.4574 21.3359 42.5799 21.0968 42.369C21.3435 42.357 21.5655 42.3463 21.7999 42.335ZM19.7779 44.213C19.7767 44.1575 19.7759 44.1204 19.7871 44.0642C19.8857 44.0595 19.9848 44.0732 20.0708 44.0505C20.1691 44.0272 20.2662 43.9483 20.3764 43.9059C20.3788 44.0171 20.3681 44.0918 20.3704 44.2029C20.1603 44.1945 19.9753 44.2035 19.7779 44.213ZM63.0136 42.5486C62.9877 42.4942 62.9495 42.4404 62.9237 42.386C62.9945 42.2343 63.0534 42.1016 63.1123 41.9689C63.2011 42.0759 63.2643 42.147 63.3531 42.254C63.2197 42.3717 63.1107 42.4697 63.0136 42.5486ZM8.83016 39.8838C8.98336 40.1175 9.09716 40.2418 9.25116 40.5125C9.04065 40.4856 8.92962 40.4909 8.84287 40.4766C8.8385 40.2728 8.83532 40.1246 8.83016 39.8838ZM74.5556 42.9176C74.5616 42.6206 74.5692 42.3977 74.5736 42.0266C74.6922 42.3732 74.7582 42.574 74.8374 42.8113C74.7518 42.8525 74.6782 42.8746 74.5556 42.9176ZM12.1391 39.2787C12.2501 39.2733 12.3612 39.2679 12.4845 39.262C12.4869 39.3731 12.4885 39.4472 12.4913 39.5769C12.3802 39.5823 12.2692 39.5876 12.1459 39.5936C12.1431 39.4639 12.1415 39.3898 12.1391 39.2787ZM37.4288 43.2481C37.4531 43.2284 37.4901 43.2266 37.5144 43.2069C37.5673 43.3713 37.6198 43.5171 37.6863 43.7364C37.5629 43.7424 37.5136 43.7447 37.4396 43.7483C37.436 43.5816 37.4324 43.4149 37.4288 43.2481ZM86.6297 43.3351C86.4908 43.1935 86.3897 43.0871 86.2258 42.9281C86.4232 42.9186 86.5342 42.9132 86.6699 42.9066C86.6603 43.0369 86.6504 43.1487 86.6297 43.3351ZM22.9859 40.0522C22.7913 40.1915 22.5955 40.2751 22.4061 40.0803C22.6035 40.0707 22.8008 40.0612 22.9859 40.0522ZM16.3162 43.4532C16.5108 43.314 16.7062 43.2118 17.0317 43.4186C16.6986 43.4347 16.5012 43.4443 16.3162 43.4532ZM63.6484 7.65379C63.6742 7.70817 63.6878 7.76315 63.7132 7.79901C63.6034 7.85996 63.4812 7.9215 63.3714 7.98244C63.3571 7.89041 63.3424 7.77986 63.3276 7.6693C63.451 7.66333 63.5497 7.65856 63.6484 7.65379ZM46.2481 8.79203C46.3978 8.28408 46.5566 8.20222 46.8065 8.33849C46.6365 8.47652 46.5028 8.57572 46.2481 8.79203ZM87.5764 43.141C87.416 43.1487 87.2927 43.1547 87.157 43.1613C87.2597 42.7668 87.2597 42.7668 87.5764 43.141ZM49.6398 43.1397C49.5041 43.1463 49.3931 43.1517 49.1957 43.1612C49.3521 42.9682 49.4488 42.8708 49.5813 42.716C49.5976 42.9007 49.6124 43.0113 49.6398 43.1397ZM3.98579 33.3863C3.96231 33.4431 3.93843 33.4813 3.91495 33.5381C3.85247 33.504 3.77806 33.4891 3.72752 33.4359C3.67738 33.4012 3.63838 33.3104 3.60018 33.2566C3.62406 33.2184 3.64794 33.1801 3.65948 33.1425C3.7721 33.2112 3.87277 33.2991 3.98579 33.3863ZM91.1751 42.8C91.0907 42.8968 91.0433 42.9918 90.982 43.0134C90.9454 43.0337 90.906 42.9243 90.8559 42.8896C90.8913 42.8138 90.9264 42.7193 90.9745 42.6614C91.0111 42.6411 91.0748 42.7307 91.1751 42.8ZM89.2816 42.6134C89.2518 42.9487 89.243 43.116 89.2346 43.3019C89.1455 43.1764 89.0823 43.1052 89.019 43.0341C89.0787 42.9385 89.1264 42.862 89.2816 42.6134ZM81.39 43.162C81.427 43.1602 81.464 43.1584 81.501 43.1566C81.4934 43.3795 81.4858 43.6024 81.4906 43.8247C81.4659 43.8259 81.4413 43.8271 81.4166 43.8283C81.3995 43.6066 81.3947 43.3843 81.39 43.162ZM62.2695 42.3991C62.1724 42.478 62.1127 42.5736 62.0876 42.5563C62.0371 42.5031 61.9981 42.4123 61.9595 42.3399C61.9953 42.2826 62.0426 42.1876 62.08 42.2043C62.1302 42.239 62.1811 42.3107 62.2695 42.3991ZM31.8457 7.48573C31.9504 7.75884 32.0025 7.88613 31.9894 7.84967C31.9671 7.96202 31.9456 8.11142 31.9237 8.24229C31.911 8.22436 31.8859 8.20703 31.8731 8.1891C31.8576 8.04149 31.8541 7.87476 31.8457 7.48573ZM50.382 42.6217C50.4878 42.9504 50.5408 43.1147 50.6064 43.297C50.5201 43.3012 50.4707 43.3036 50.3967 43.3071C50.3927 43.1219 50.3892 42.9551 50.382 42.6217ZM22.5174 42.9679C22.4338 43.1017 22.3865 43.1967 22.3618 43.1979C22.2993 43.1639 22.2484 43.0921 22.2098 43.0198C22.1971 43.0019 22.2679 42.8501 22.2926 42.8489C22.3542 42.8459 22.4171 42.8985 22.5174 42.9679ZM70.3291 42.7697C70.4691 42.9669 70.5324 43.038 70.571 43.1103C70.6096 43.1826 70.612 43.2938 70.6553 43.5884C70.5153 43.3912 70.452 43.3201 70.4134 43.2478C70.3871 43.1749 70.3848 43.0637 70.3291 42.7697ZM29.0258 42.412C29.1162 42.0182 29.1162 42.0182 29.3872 41.9866C29.2547 42.1413 29.1707 42.2567 29.0258 42.412ZM47.3425 43.121C47.2454 43.1999 47.1857 43.2955 47.1606 43.2782C47.1101 43.225 47.0711 43.1342 47.0325 43.0618C47.0683 43.0045 47.1157 42.9095 47.1531 42.9262C47.2032 42.9609 47.2541 43.0326 47.3425 43.121ZM89.0556 9.03985C89.0926 9.03806 89.1296 9.03627 89.1666 9.03448C89.159 9.25738 89.1515 9.48028 89.1562 9.70258C89.1316 9.70378 89.1069 9.70497 89.0822 9.70616C89.0651 9.48446 89.0604 9.26215 89.0556 9.03985ZM76.0746 42.9183C76.1271 43.0642 76.1908 43.1538 76.1792 43.1915C76.1438 43.2673 76.0833 43.3259 76.0352 43.3839C75.997 43.3301 75.9337 43.259 75.9448 43.2028C75.9556 43.1281 76.0033 43.0516 76.0746 42.9183ZM77.6704 42.4703C77.7229 42.6161 77.7866 42.7057 77.775 42.7434C77.7396 42.8193 77.6791 42.8778 77.631 42.9358C77.5928 42.882 77.5295 42.8109 77.5406 42.7547C77.5514 42.68 77.5991 42.6035 77.6704 42.4703Z" fill="#018139"/>
<path d="M71.2807 4.79968C71.0745 4.97655 70.8772 4.41121 70.7267 4.8821C70.5851 4.61078 70.4024 4.73089 70.1923 4.7225C70.2325 4.86892 70.2727 5.01533 70.2882 5.16294C70.3037 5.31055 70.2945 5.45935 70.3721 5.6225C70.3948 5.52868 70.4056 5.45398 70.4513 5.28486C70.5254 5.28128 70.636 5.25739 70.7466 5.23349C70.7598 5.26995 70.7605 5.307 70.7737 5.34345C70.7008 5.40261 70.628 5.46176 70.4342 5.63804C70.792 5.62074 71.0391 5.62733 71.2731 5.59747C71.6054 5.54431 71.8919 5.66027 72.1462 6.00032C72.2098 6.08996 72.3217 6.12164 72.4096 6.19157C72.3734 6.23041 72.3499 6.28718 72.3141 6.34455C72.3785 6.47124 72.4307 6.59854 72.5079 6.74316C72.6042 6.62723 72.6643 6.55015 72.7124 6.49219C72.8004 6.56211 72.8879 6.61351 73.0383 6.7175C73.0061 6.36671 72.7705 6.32248 72.7765 6.02547C72.9345 5.90656 73.1044 5.76853 73.311 5.61018C73.0782 5.12073 72.8713 4.68567 72.6647 4.26912C72.6409 4.30737 72.5927 4.36533 72.545 4.44182C72.5179 4.33186 72.4909 4.2219 72.4634 4.09342C72.2907 4.10177 72.118 4.11012 71.9083 4.12026C71.8991 4.26906 71.878 4.43698 71.8573 4.62343C71.7586 4.6282 71.6599 4.63298 71.5366 4.63895C71.521 4.49134 71.4924 4.30728 71.4761 4.12262C71.4144 4.1256 71.3527 4.12859 71.254 4.13336C71.2715 4.37359 71.2763 4.5959 71.2807 4.79968Z" fill="#018139"/>
<path d="M74.7981 4.70375C74.5617 4.62246 74.2824 4.83995 73.9036 4.45029C74.0329 4.72221 74.0719 4.81305 74.1232 4.90329C74.1745 4.99353 74.2259 5.08377 74.3532 5.26306C74.0571 5.27738 73.8597 5.28692 73.6624 5.29647C73.6656 5.44467 73.6671 5.51878 73.6699 5.64846C73.9043 5.63712 74.1264 5.62638 74.3731 5.61445C74.3786 5.87381 74.3834 6.09611 74.3898 6.39252C74.1924 6.40207 74.0073 6.41102 73.81 6.42056C73.8108 6.45761 73.8116 6.49466 73.8124 6.53172C74.0467 6.52038 74.2688 6.50964 74.5032 6.4983C74.7714 6.33698 74.5896 5.91924 74.6823 5.63658C74.7933 5.63121 74.892 5.62644 74.9907 5.62167C75.0193 5.80573 75.0353 5.97187 75.0512 6.138C75.0758 6.13681 75.1005 6.13561 75.1128 6.13502C75.1216 5.96769 75.1431 5.81829 75.1519 5.65096C75.36 5.56672 75.6318 5.57212 75.7054 5.55001C75.9378 5.44605 76.0552 5.73709 76.2705 5.98631C76.2208 5.39528 76.1376 4.97277 75.9323 4.6118C75.8622 4.80064 75.8045 4.98888 75.7345 5.17772C75.5001 5.18905 75.278 5.19979 75.0313 5.21172C74.9541 5.0671 74.8761 4.88542 74.7981 4.70375Z" fill="#018139"/>
<path d="M16.8524 5.68876C16.8054 5.8023 16.7465 5.93496 16.6645 6.14291C16.875 6.16982 17.0235 6.18119 17.1846 6.21049C17.2483 6.30013 17.3247 6.4077 17.4266 6.55113C17.6104 6.48661 17.8488 6.66053 18.0275 6.35517C18.1532 6.46036 18.2909 6.54642 18.429 6.65101C18.4529 6.61277 18.501 6.5548 18.5368 6.49744C18.6132 6.60501 18.6896 6.71259 18.7533 6.80223C18.9002 6.7395 19.0478 6.71381 19.1688 6.59669C19.2535 6.51841 19.2989 6.33077 19.3694 6.16046C18.5118 5.90522 17.6853 5.94519 16.8524 5.68876Z" fill="#018139"/>
<path d="M98.0827 6.15537C98.1042 6.00597 98.1149 5.93127 98.1476 5.7257C98.2009 5.90857 98.2403 6.01793 98.2669 6.10937C98.5423 6.2815 98.6816 5.86678 98.9522 5.8166C99.0537 5.94151 99.1938 6.13872 99.3848 6.40766C99.4445 6.31205 99.4799 6.23615 99.5519 6.13995C99.3752 5.96304 99.2372 5.85845 99.1349 5.6965C99.0326 5.53454 98.9666 5.33374 98.8754 5.11561C98.7672 5.25066 98.7067 5.30922 98.647 5.40483C98.62 5.29487 98.5933 5.20343 98.5523 5.01997C98.4548 5.08032 98.3577 5.1592 98.2236 5.23986C98.1607 5.18727 98.0481 5.11854 97.9606 5.06713C97.6685 5.26671 97.7377 5.61571 97.7568 5.93005C97.8443 5.98145 97.9446 6.05078 98.0827 6.15537Z" fill="#018139"/>
<path d="M101.429 6.16042C101.423 5.88253 101.417 5.58612 101.409 5.21561C101.19 5.37456 101.02 5.51259 100.814 5.67093C100.641 5.67929 100.581 5.16296 100.337 5.32309C100.228 5.40256 100.144 5.55495 100.037 5.70852C100.226 5.88483 100.365 6.02647 100.566 6.20218C100.8 6.19084 101.121 6.17533 101.429 6.16042Z" fill="#018139"/>
<path d="M45.3533 5.64561C45.3927 5.75497 45.4324 5.88286 45.4722 6.01075C45.4114 6.05078 45.3385 6.10994 45.2052 6.22765C45.5287 6.34182 45.7906 6.45897 46.1018 6.57373C46.4074 6.42914 46.1105 5.83152 46.3394 5.56083C46.1496 5.34747 46.0206 5.66897 45.8602 5.67672C45.7126 5.70241 45.5578 5.39463 45.3533 5.64561Z" fill="#018139"/>
<path d="M2.35534 12.6394C2.26422 12.4213 2.19936 12.2761 2.14683 12.1303C1.93711 12.1404 1.75207 12.1494 1.51768 12.1607C1.61198 12.527 1.72817 12.7625 1.96455 12.8438C2.263 12.9406 2.54992 13.0751 2.84838 13.1719C2.91045 13.1875 2.98328 13.1283 3.11819 13.0847C2.87426 12.6514 2.63828 12.5887 2.35534 12.6394Z" fill="#018139"/>
<path d="M40.331 43.831C40.6004 43.7253 40.657 43.4815 40.6144 43.2239C40.4871 43.0446 40.3852 42.9012 40.2324 42.686C40.0509 42.8617 39.8336 43.0947 39.5797 43.3481C39.6816 43.4915 39.7453 43.5812 39.8217 43.6888C39.943 43.5902 40.0401 43.5113 40.1492 43.4133C40.2264 43.5579 40.2789 43.7037 40.331 43.831Z" fill="#018139"/>
<path d="M78.3959 6.05042C78.5909 5.92972 78.7863 5.82755 78.9813 5.70685C78.9117 5.33932 78.4787 5.30462 78.6646 4.75784C78.5277 4.70882 78.3781 4.64188 78.2157 4.55701C78.2046 4.61318 78.1819 4.707 78.1958 4.78051C78.2539 5.18568 78.3239 5.57174 78.3959 6.05042Z" fill="#018139"/>
<path d="M98.4031 3.24689C97.7589 2.57335 97.2228 2.91454 96.6979 3.19955C97.2272 3.11832 97.7437 3.59404 98.4031 3.24689Z" fill="#018139"/>
<path d="M49.3256 4.87861C49.2798 5.04772 49.211 5.29213 49.1421 5.53654C49.0438 5.55984 48.9579 5.58255 48.8592 5.58732C48.8134 5.75644 48.7672 5.90703 48.7211 6.05762C48.772 6.12933 48.8357 6.21898 48.8993 6.30862C48.9252 5.78812 49.2074 5.70029 49.4871 5.50132C49.5269 5.62921 49.5663 5.73857 49.6196 5.92144C49.7167 5.84256 49.8138 5.76369 49.9105 5.66629C49.7072 5.39795 49.5162 5.12901 49.3256 4.87861Z" fill="#018139"/>
<path d="M113.374 42.598C112.75 42.2573 112.266 42.7258 111.724 42.8076C112.198 43.0073 112.481 42.975 113.374 42.598Z" fill="#018139"/>
<path d="M35.9852 7.0259C35.4499 6.82925 34.902 7.18956 34.3253 6.79092C34.2553 6.97975 34.1733 7.18771 34.1271 7.3383C34.6883 7.01445 35.3476 7.24218 35.9852 7.0259Z" fill="#018139"/>
<path d="M66.3264 46.153C66.1915 46.1966 66.0446 46.2593 65.9097 46.3029C65.8799 46.0633 65.8516 45.8977 65.821 45.6211C65.7764 45.8458 65.7541 45.9581 65.7323 46.089C65.5965 46.0955 65.4609 46.1021 65.3498 46.1075C65.2782 46.2222 65.2185 46.3178 65.1588 46.4134C65.2117 46.5778 65.8162 46.5485 66.5285 46.3657C66.4275 46.2593 66.3646 46.2067 66.3264 46.153Z" fill="#018139"/>
<path d="M64.2925 46.3255C64.265 46.197 64.238 46.0871 64.1978 45.9406C64.1154 46.1301 64.0569 46.2813 63.9745 46.4707C64.2976 46.5663 64.571 46.6458 64.844 46.7068C64.8878 46.4451 64.92 46.221 64.9642 45.9778C64.9388 45.9419 64.8751 45.8523 64.7859 45.7267C64.7656 45.9317 64.7565 46.0805 64.7362 46.2855C64.6009 46.3106 64.4652 46.3172 64.2925 46.3255Z" fill="#018139"/>
<path d="M43.8856 5.73513C43.8916 6.01301 43.8944 6.14269 43.8976 6.29089C44.0723 6.37517 44.247 6.45945 44.4467 6.56105C44.5148 6.27959 44.584 6.0537 44.664 5.75312C44.3675 5.74891 44.1447 6.29749 43.8856 5.73513Z" fill="#018139"/>
<path d="M92.1239 4.70035C92.1199 4.51509 92.1199 3.9402 92.1199 3.9402C91.8673 3.67425 91.5939 3.59475 91.178 3.78176C91.3766 3.82779 91.4872 3.8039 91.5382 3.87561C91.6396 4.00052 91.6933 4.20191 91.7825 4.32741C91.8593 4.45351 91.9723 4.54078 92.1239 4.70035Z" fill="#018139"/>
<path d="M30.8167 6.14464C30.8179 6.20021 30.8067 6.25639 30.8095 6.38607C31.2679 6.45662 31.7105 6.36104 32.2294 6.37303C32.1144 6.19315 32.0507 6.1035 31.9998 6.03179C31.8899 6.09273 31.8203 6.30009 31.6559 6.12259C31.5799 6.03355 31.3861 6.20982 31.2504 6.21638C31.1151 6.24147 30.9778 6.17393 30.8167 6.14464Z" fill="#018139"/>
<path d="M34.2059 42.6808C34.3853 42.9873 34.5131 43.1852 34.6157 43.3656C34.7387 43.3411 34.8251 43.337 34.9238 43.3322C34.9516 42.9043 34.687 42.6575 34.2059 42.6808Z" fill="#018139"/>
<path d="M40.9403 42.8743C40.8786 42.8773 40.8293 42.8797 40.6936 42.8862C41.01 43.2418 40.7827 43.5866 40.7409 43.941C40.9383 43.9315 41.0863 43.9243 41.3207 43.913C41.1922 43.6781 41.1027 43.5341 41.0374 43.3703C40.9849 43.2245 40.9686 43.0399 40.9403 42.8743Z" fill="#018139"/>
<path d="M107.154 5.92064C106.837 6.08435 106.563 5.39291 106.256 6.07534C106.552 6.06102 106.836 6.62219 107.154 5.92064Z" fill="#018139"/>
<path d="M98.2177 3.8122C97.8432 3.62632 97.505 3.97649 97.238 3.6185C97.1783 3.71411 97.1305 3.7906 97.0589 3.90534C97.3693 3.98305 97.6554 4.08048 97.9403 4.12233C98.0267 4.11816 98.1094 3.94725 98.2177 3.8122Z" fill="#018139"/>
<path d="M109.992 9.25127C110.118 9.39351 110.245 9.51722 110.359 9.66005C110.493 9.56086 110.614 9.48079 110.736 9.3822C110.723 9.34575 110.721 9.27164 110.696 9.27284C110.472 9.19095 110.249 9.12759 110.025 9.0457C110.026 9.10127 110.015 9.17597 109.992 9.25127Z" fill="#018139"/>
<path d="M90.852 5.85599C90.9658 5.9803 91.0291 6.05142 91.0924 6.12254C91.2082 5.76459 91.353 6.18411 91.4871 6.10345C91.5456 5.95226 91.5914 5.78314 91.6611 5.57578C91.599 5.56024 91.5365 5.52618 91.4876 5.54709C91.3041 5.63014 91.133 5.71259 90.852 5.85599Z" fill="#018139"/>
<path d="M77.1082 5.89016C77.1058 5.77901 77.1014 5.57522 77.0962 5.33439C76.9729 5.34036 76.8865 5.34454 76.7262 5.35229C76.7922 5.55309 76.9418 5.62003 76.9824 5.78497C77.0234 5.96843 77.0035 6.19193 77.0106 6.52539C77.1674 6.35091 77.2642 6.25351 77.3485 6.15671C77.286 6.12264 77.2478 6.06885 77.1082 5.89016Z" fill="#018139"/>
<path d="M20.373 6.31592C20.1609 6.21491 20.0116 6.16649 19.8497 6.10014C19.8166 6.28719 19.7721 6.51188 19.7279 6.7551C19.7649 6.75331 19.8401 6.8053 19.8767 6.78499C20.0343 6.64755 20.1792 6.49219 20.373 6.31592Z" fill="#018139"/>
<path d="M10.1709 50C10.2998 49.6785 10.3937 49.4514 10.4873 49.2058C10.3989 49.1174 10.2979 49.011 10.1466 48.8699C10.1554 49.2775 10.1617 49.5739 10.1709 50Z" fill="#018139"/>
<path d="M2.18843 39.9825C1.84103 39.9065 1.56804 39.8456 1.22024 39.7511C1.52783 40.274 1.81276 40.3159 2.18843 39.9825Z" fill="#018139"/>
<path d="M6.40648 0C6.08812 0.126665 5.86765 0.211506 5.59824 0.317259C5.6253 0.427219 5.65354 0.592756 5.67822 0.591563C5.96275 0.614892 6.16889 0.438019 6.40648 0Z" fill="#018139"/>
<path d="M103.614 5.51698C103.552 5.51996 103.515 5.52175 103.478 5.52354C103.426 5.98966 103.493 6.22751 103.757 6.45581C103.701 6.12474 103.657 5.81159 103.614 5.51698Z" fill="#018139"/>
<path d="M1.67324 13.0804C1.58131 13.4001 1.5232 13.5698 1.46549 13.7581C1.62586 13.7503 1.7739 13.7432 2.02063 13.7312C1.8921 13.4964 1.80217 13.3338 1.67324 13.0804Z" fill="#018139"/>
<path d="M35.3022 43.1284C35.3742 43.0322 35.4463 42.936 35.5179 42.8213C35.4928 42.804 35.4554 42.7872 35.4176 42.752C35.3042 42.6462 35.2027 42.5213 35.0643 42.3982C35.0694 42.639 35.0742 42.8613 35.0802 43.1392C35.1542 43.1356 35.2282 43.132 35.3022 43.1284Z" fill="#018139"/>
<path d="M34.124 6.04032C33.7627 5.8909 33.506 5.43969 33.2728 6.08149C33.5195 6.06955 33.7663 6.05763 34.124 6.04032Z" fill="#018139"/>
<path d="M0.838867 32.3331C1.11027 32.32 1.34466 32.3087 1.69008 32.2919C1.35223 32.0857 1.12183 31.7074 0.838867 32.3331Z" fill="#018139"/>
<path d="M46.6999 5.09831C46.5626 5.03077 46.4628 4.97997 46.3633 4.94769C46.3517 4.98534 46.3521 5.00387 46.3406 5.04151C46.493 5.23814 46.645 5.41623 46.8098 5.61226C46.8185 5.44493 46.8261 5.22203 46.834 5.01765C46.7075 4.87541 46.7123 5.09771 46.6999 5.09831Z" fill="#018139"/>
<path d="M105.658 6.38246C105.639 6.10518 105.624 5.95757 105.604 5.6247C105.437 5.87389 105.341 6.00834 105.173 6.25752C105.372 6.32208 105.471 6.33583 105.658 6.38246Z" fill="#018139"/>
<path d="M59.1005 46.6508C59.1028 46.7619 59.1044 46.836 59.1064 46.9287C59.3325 47.1032 59.465 46.9484 59.6063 46.6263C59.4089 46.6359 59.2608 46.643 59.1005 46.6508Z" fill="#018139"/>
<path d="M1.49345 33.4883C1.67013 33.6652 1.80941 33.8254 1.99842 34.0017C1.99445 33.8164 2.00321 33.6491 1.99924 33.4639C1.82653 33.4722 1.67849 33.4794 1.49345 33.4883Z" fill="#018139"/>
<path d="M47.8168 8.80888C47.7392 9.22062 47.8184 9.45787 48.1037 9.51825C48.3031 9.02644 47.7746 9.14473 47.8168 8.80888Z" fill="#018139"/>
<path d="M39.5196 44.575C39.717 44.5654 39.8527 44.5589 39.976 44.5529C40.0238 44.4764 40.0238 44.4764 39.7178 44.0276C39.6597 44.1973 39.6012 44.3485 39.5196 44.575Z" fill="#018139"/>
<path d="M67.4508 5.30016C67.507 5.03782 67.5404 4.8693 67.5953 4.55138C67.4636 4.7432 67.4278 4.80056 67.4039 4.83881C67.3036 4.76948 67.2284 4.71748 67.1532 4.66549C67.0815 4.78022 67.0816 4.78022 67.4508 5.30016Z" fill="#018139"/>
<path d="M38.3068 6.45001C38.1743 6.60477 38.0656 6.7213 37.9092 6.91431C38.3434 7.00458 38.3434 7.00458 38.3068 6.45001Z" fill="#018139"/>
<path d="M38.6224 6.76855C38.7704 6.76139 38.9184 6.75423 39.0788 6.74648C39.0764 6.63532 39.0744 6.5427 39.0709 6.37597C38.9005 6.49548 38.7541 6.57673 38.6204 6.67592C38.6212 6.71298 38.6216 6.7315 38.6224 6.76855Z" fill="#018139"/>
<path d="M3.26741 13.1331C3.4648 13.1236 3.6005 13.117 3.76087 13.1093C3.70755 12.9264 3.65503 12.7806 3.61444 12.6156C3.50659 12.7692 3.41108 12.9222 3.26741 13.1331Z" fill="#018139"/>
<path d="M0.991152 35.9791C0.801716 36.3591 0.801716 36.3591 1.20363 36.6735C1.12405 36.4177 1.07113 36.2534 0.991152 35.9791Z" fill="#018139"/>
<path d="M41.7573 44.1144C41.7612 44.2997 41.7648 44.4664 41.7688 44.6516C41.8432 44.6666 41.8925 44.6642 41.9793 44.6785C41.9753 44.4933 41.9721 44.3451 41.9678 44.1413C41.893 44.1078 41.8189 44.1114 41.7573 44.1144Z" fill="#018139"/>
<path d="M29.6137 6.48099C29.735 6.38239 29.8321 6.30352 29.9531 6.1864C29.8397 6.08062 29.751 5.97364 29.5998 5.83259C29.6061 6.129 29.6101 6.31426 29.6137 6.48099Z" fill="#018139"/>
<path d="M69.6144 6.56783C69.8118 6.55829 69.9968 6.54934 70.1942 6.53979C69.9925 6.34556 69.7967 6.42921 69.6144 6.56783Z" fill="#018139"/>
<path d="M43.7625 44.9076C43.9599 44.898 44.1449 44.8891 44.478 44.873C44.1405 44.6853 43.9448 44.7689 43.7625 44.9076Z" fill="#018139"/>
<path d="M43.8116 6.3136C43.5299 6.41995 43.3965 6.53766 43.4311 6.99961C43.5267 6.84663 43.5867 6.76955 43.6345 6.69306C43.6819 6.59804 43.7292 6.50303 43.8116 6.3136Z" fill="#018139"/>
<path d="M67.7757 45.7862C67.6118 45.6272 67.523 45.5202 67.3842 45.3786C67.3634 45.565 67.3531 45.6582 67.3316 45.8076C67.4673 45.8011 67.5783 45.7957 67.7757 45.7862Z" fill="#018139"/>
<path d="M61.6484 4.8019C61.6512 4.93158 61.6524 4.98716 61.6548 5.09831C61.8151 5.09055 61.9878 5.0822 62.2839 5.06788C61.997 4.9334 61.8354 4.88558 61.6484 4.8019Z" fill="#018139"/>
<path d="M66.6144 4.30211C66.53 4.39891 66.4333 4.49631 66.288 4.63315C66.4011 4.72041 66.4763 4.77241 66.5519 4.84293C66.5865 4.72999 66.6323 4.56086 66.6784 4.41027C66.6649 4.35529 66.6398 4.33797 66.6144 4.30211Z" fill="#018139"/>
<path d="M107.685 6.46987C107.567 6.17883 107.515 6.03301 107.436 5.83281C107.365 5.96607 107.317 6.04256 107.246 6.17582C107.359 6.26307 107.472 6.33181 107.685 6.46987Z" fill="#018139"/>
<path d="M36.1591 7.07313C36.3071 7.06597 36.4551 7.05881 36.6155 7.05106C36.6147 7.01401 36.6139 6.97696 36.6131 6.9399C36.4647 6.92854 36.3163 6.91717 36.1559 6.92492C36.1567 6.96198 36.1579 7.01755 36.1591 7.07313Z" fill="#018139"/>
<path d="M57.5658 5.61132C57.5197 5.76191 57.4846 5.85633 57.4866 5.94895C57.4878 6.00453 57.5885 6.09239 57.6004 6.07326C57.6486 6.0153 57.6964 5.93881 57.719 5.84499C57.7182 5.80794 57.6426 5.73742 57.5658 5.61132Z" fill="#018139"/>
<path d="M87.9551 3.78927C87.961 4.06716 87.9642 4.21536 87.9682 4.40062C88.1723 4.13112 88.1723 4.13112 87.9551 3.78927Z" fill="#018139"/>
<path d="M2.84353 37.7069C2.90918 37.8891 2.96171 38.0349 3.05323 38.2716C3.07274 38.0296 3.0815 37.8623 3.101 37.6202C2.9661 37.6638 2.89248 37.6859 2.84353 37.7069Z" fill="#018139"/>
<path d="M93.0464 3.95103C93.2318 3.9606 93.3432 3.97376 93.467 3.98632C93.4642 3.85664 93.4618 3.74549 93.459 3.61581C93.3377 3.71441 93.2282 3.79387 93.0464 3.95103Z" fill="#018139"/>
<path d="M40.5449 6.00797C40.7442 6.09105 40.8191 6.12452 40.8815 6.15859C40.9317 6.19325 40.9575 6.24763 41.0208 6.31875C41.0304 6.18848 41.0411 6.11378 41.0507 5.9835C40.9273 5.98947 40.8039 5.99544 40.5449 6.00797Z" fill="#018139"/>
<path d="M87.5869 6.19935C87.6704 6.0655 87.7305 5.98841 87.7297 5.95136C87.7031 5.85993 87.6522 5.78821 87.6016 5.73502C87.5889 5.71709 87.4926 5.83302 87.4934 5.87007C87.4953 5.9627 87.5343 6.05354 87.5869 6.19935Z" fill="#018139"/>
<path d="M90.9364 5.75919C90.9209 5.61158 90.9897 5.36717 90.7927 5.39524C90.7557 5.39703 90.696 5.49264 90.6972 5.54822C90.6793 5.86435 90.8373 5.74544 90.9364 5.75919Z" fill="#018139"/>
<path d="M50.9746 7.48784C50.9782 7.65457 50.9798 7.72868 50.9821 7.83983C51.1055 7.83387 51.2042 7.82909 51.4016 7.81954C51.2257 7.67969 51.1254 7.61036 50.9746 7.48784Z" fill="#018139"/>
<path d="M104.623 5.93179C104.577 6.08238 104.542 6.1768 104.544 6.26943C104.545 6.325 104.646 6.41286 104.658 6.39373C104.706 6.33577 104.753 6.25928 104.776 6.16546C104.775 6.12841 104.7 6.05789 104.623 5.93179Z" fill="#018139"/>
<path d="M92.6357 3.2291C92.7838 3.22194 92.9318 3.21479 93.0922 3.20703C93.0914 3.16998 93.0906 3.13293 93.0898 3.09587C92.9414 3.08451 92.7929 3.07314 92.6449 3.0803C92.6333 3.11795 92.6345 3.17353 92.6357 3.2291Z" fill="#018139"/>
<path d="M6.01195 4.63672C5.91167 4.56739 5.8488 4.5148 5.78711 4.51778C5.75011 4.51957 5.6916 4.67076 5.70434 4.68869C5.74293 4.761 5.79387 4.83272 5.85635 4.86679C5.88102 4.86559 5.92798 4.75205 6.01195 4.63672Z" fill="#018139"/>
</svg>
