<svg width="191" height="60" viewBox="0 0 191 60" fill="none" xmlns="http://www.w3.org/2000/svg">
<path d="M159.789 7.41401C159.871 7.56676 159.934 7.72023 160.037 7.91672C159.847 8.10173 159.657 8.28673 159.446 8.45022C159.565 8.49039 159.683 8.53055 159.822 8.59223C159.378 8.80877 159.161 9.41759 158.567 9.1723C158.445 8.99875 158.322 8.78075 158.219 8.60648C157.968 8.70471 157.774 8.77856 157.561 8.85313C157.498 8.67743 157.455 8.54548 157.412 8.41353C156.685 8.2844 155.912 8.60204 155.101 8.2757C155.03 8.54533 154.941 8.83791 154.871 9.12977C154.747 8.91176 154.604 8.69447 154.502 8.54243C153.995 8.58328 154.409 9.39149 153.823 9.41297C153.817 9.21289 153.812 9.03505 153.805 8.76829C153.689 8.83927 153.631 8.86365 153.573 8.88803C153.515 8.91241 153.459 8.98125 153.42 8.98268C153.242 8.92243 152.963 8.75461 152.926 8.8005C152.757 9.07371 152.634 8.8557 152.476 8.81697C151.945 8.70291 151.383 8.85705 150.941 9.14029C150.441 9.4479 150.046 9.28437 149.61 9.10005C149.531 9.08068 149.506 8.88133 149.423 8.70635C149.111 8.7178 148.759 8.73069 148.388 8.74429C148.276 8.94866 148.165 9.17526 148.017 9.46999C147.543 9.30932 147.128 9.12428 146.675 9.00737C146.222 8.89045 145.751 8.84094 145.22 8.74912C145.2 8.70537 145.157 8.57342 145.115 8.4637C144.468 8.42063 144.468 8.42063 144.031 8.85948C144.008 8.74904 143.985 8.63861 143.941 8.4622C143.568 8.38688 143.138 8.40263 142.749 8.48364C142.418 8.54027 142.255 8.99132 141.911 9.27098C141.863 8.96118 141.819 8.76254 141.793 8.56318C141.773 8.54167 141.733 8.49863 141.733 8.49863C141.657 8.56819 141.543 8.70587 141.543 8.70587C141.161 8.31932 140.74 8.6463 140.306 8.52867C140.313 8.7732 140.318 8.92882 140.325 9.19559C140.111 9.22569 139.936 9.25437 139.722 9.28447C139.715 9.06217 139.691 8.88504 139.686 8.70719C139.29 8.54366 138.928 8.17863 138.47 8.57374C138.432 8.61963 138.291 8.46903 138.192 8.45038C137.585 8.40588 137.002 8.51628 136.508 9.0462C136.404 8.82747 136.341 8.67401 136.278 8.52054C136.202 8.59009 136.145 8.65893 136.089 8.72777C135.941 8.35486 135.598 8.65675 135.416 8.44089C135.173 8.16048 135.109 8.67465 134.852 8.5728C134.634 8.46953 134.344 8.56918 134.051 8.57992C134.057 8.78 134.062 8.95784 134.07 9.24684C133.638 9.17367 133.265 9.14281 132.892 9.06749C132.655 9.00939 132.432 8.70604 132.183 8.89319C131.953 9.0574 131.838 8.46074 131.634 8.84654C131.615 8.86949 131.577 8.89315 131.577 8.89315C131.005 8.02397 130.48 8.82209 129.78 8.98125C129.739 8.89376 129.655 8.69655 129.613 8.60906C128.828 8.50431 128.133 8.81909 127.551 8.28408C127.608 8.21524 127.664 8.12417 127.739 8.03238C127.641 7.9915 127.542 7.97285 127.385 7.93412C127.371 8.15714 127.338 8.35864 127.324 8.55944C127.266 8.58381 127.21 8.65266 127.17 8.63186C126.797 8.57877 126.432 8.81468 126.051 8.47259C125.87 8.30119 125.653 8.93224 125.31 8.54426C125.149 8.37214 124.799 8.45172 124.532 8.68405C124.36 8.82387 123.97 8.86042 123.79 8.73348C123.411 8.45809 123.043 8.58285 122.671 8.57422C122.377 8.56273 122.085 8.5957 121.792 8.60644C121.499 8.61718 121.169 8.69604 120.95 8.5483C120.631 8.33745 120.49 8.87671 120.19 8.66514C120.051 8.559 119.855 8.54392 119.658 8.50662C119.442 8.47004 119.146 8.39186 119.013 8.50802C118.69 8.85365 118.332 8.622 118.061 8.72095C117.899 8.54883 117.778 8.41974 117.678 8.31217C117.448 8.49861 117.238 8.68432 117.028 8.84781C117.091 9.00128 117.134 9.15546 117.24 9.41865C116.962 9.29529 116.804 9.2121 116.625 9.12962C116.68 8.99408 116.735 8.85855 116.807 8.65561C116.472 8.5344 116.176 8.43399 115.879 8.31134C115.806 8.49205 115.751 8.62758 115.641 8.89865C115.499 8.70358 115.397 8.55155 115.294 8.37728C115.177 8.38158 115.021 8.38731 114.845 8.39375C114.828 8.50562 114.812 8.61748 114.779 8.81899C114.622 8.82472 114.428 8.87634 114.27 8.81538C114.132 8.77593 113.992 8.64756 113.871 8.5407C113.59 8.28396 113.358 8.35924 113.074 8.68121C112.933 8.53061 112.791 8.38 112.65 8.2294C112.496 8.30182 112.169 8.51406 112.108 8.42729C111.805 8.08234 111.414 8.76429 111.146 8.26229C111.111 8.41934 111.075 8.53193 111.02 8.66746C110.578 8.92846 110.075 8.43505 109.596 8.78641C109.553 8.65446 109.511 8.52251 109.468 8.39056C109.428 8.36976 109.368 8.32744 109.31 8.32959C109.153 8.31309 108.976 8.2973 108.821 8.34749C108.027 8.62138 108.027 8.62138 107.247 7.98238C107.91 7.93581 108.495 7.89211 109.081 7.8484C109.08 7.80394 109.078 7.75947 109.077 7.71501C108.472 7.7372 107.866 7.7594 107.221 7.78302C107.15 8.00819 107.06 8.30077 106.989 8.54817C106.269 8.68581 105.627 8.79836 105.005 8.93243C104.803 8.69505 104.601 8.45767 104.439 8.26332C104.17 8.42896 104.016 8.52361 103.823 8.6197C103.83 8.842 103.837 9.08654 103.845 9.37554C103.474 9.38914 103.122 9.40203 102.771 9.41491C102.648 9.21913 102.504 8.9796 102.32 8.69705C102.111 8.905 101.959 9.06635 101.769 9.25135C101.687 9.12083 101.585 8.99103 101.482 8.79453C101.348 8.91069 101.272 8.98025 101.176 9.05052C100.88 8.95011 100.604 8.84897 100.328 8.77007C100.304 8.6374 100.282 8.5492 100.26 8.43876C99.99 8.58217 99.886 9.05331 99.5489 8.88764C99.2912 8.76356 98.939 8.75422 98.8622 8.11168C98.7336 8.40569 98.6611 8.60863 98.532 8.88041C98.3864 8.57419 98.3234 8.42072 98.2611 8.28948C97.9649 8.87893 97.3102 9.23674 96.6959 8.9477C96.3992 8.82506 96.1459 8.8566 95.8705 8.79993C95.5952 8.74326 95.3173 8.59767 95.064 8.6292C94.7326 8.6636 94.4535 8.47355 94.1592 8.43983C93.865 8.40611 93.5178 8.57461 93.2985 8.42688C93.0396 8.25834 92.7548 8.55807 92.5317 8.27694C92.4712 8.2124 92.2035 8.4225 92.0277 8.42895C91.872 8.45691 91.7139 8.39594 91.5173 8.35864C91.5022 8.51497 91.4883 8.71576 91.4574 9.00619C91.2986 8.92299 91.1802 8.88283 91.1191 8.79605C90.9975 8.64473 90.9332 8.44681 90.8715 8.3378C90.4858 8.52996 90.1771 8.67481 89.8299 8.84331C89.7455 8.62387 89.7027 8.49191 89.639 8.31621C89.4847 8.38863 89.2547 8.55284 89.2143 8.50981C88.9718 8.2294 88.8401 8.41226 88.6498 8.59727C88.5162 8.71343 88.3221 8.76505 88.1293 8.86113C87.9687 8.71125 87.808 8.56136 87.6272 8.38996C87.5314 8.46023 87.4148 8.48676 87.3972 8.55416C87.125 9.29852 86.5812 9.42971 85.9536 9.3637C85.764 8.88107 85.3783 9.76309 85.2064 9.21305C84.9127 9.20156 84.6387 9.18936 84.3646 9.17715C84.2234 9.02655 84.1025 8.89746 84.042 8.83292C83.6179 9.04874 83.2128 9.24162 82.8083 9.45673C82.7024 9.17131 82.5966 8.8859 82.4895 8.55602C82.3005 8.78548 82.1675 8.92388 82.0345 9.06228C81.9545 8.99845 81.8934 8.91168 81.8336 8.86936C81.5626 8.96831 81.3112 9.06653 81.0989 9.16333C80.9363 8.94675 81.0025 8.52151 80.5797 8.7818C80.666 9.06793 80.734 9.39924 80.8638 9.83956C80.6275 9.78146 80.4902 9.76424 80.2337 9.68462C80.138 9.75489 79.9067 9.87464 79.7152 10.0152C79.3378 9.80648 79.4241 9.40275 79.4348 9.0908C79.1752 8.90003 78.9358 8.73078 78.7159 8.56081C78.1476 9.20475 77.7273 8.17423 77.1855 8.37212C76.8836 8.7615 76.7236 9.3237 76.1174 9.32366C76.2 9.47641 76.2617 9.58542 76.3228 9.6722C76.2648 10.3864 75.6493 10.0529 75.3619 10.2638C75.4356 10.7951 75.6984 11.0971 76.1129 11.2376C76.1507 11.1918 76.227 11.1222 76.3404 10.9845C76.5647 11.3101 77.1053 11.0678 77.283 11.8179C77.3346 11.5712 77.3693 11.4141 77.4204 11.1452C77.3593 11.0584 77.1362 10.7773 76.9126 10.474C77.513 10.2739 78.0946 10.0968 78.7537 9.89465C79.0309 10.018 79.4266 10.1815 79.9017 10.3867C79.7284 10.482 79.5545 10.5552 79.4385 10.6039C79.5897 11.1102 79.6968 11.4401 79.8058 11.8367C79.9016 11.7664 80.0175 11.7176 80.1139 11.6696C79.8663 11.2113 80.2053 10.7538 80.0321 10.1593C80.647 10.4706 81.1083 9.4968 81.6369 10.2118C81.8089 10.072 81.9236 9.97874 82.1152 9.8382C82.1788 10.0139 82.2216 10.1458 82.2846 10.2993C82.703 10.5733 83.2751 10.0627 83.7388 10.5576C83.7741 10.4228 83.8094 10.2879 83.8617 10.0635C84.0596 10.1452 84.2373 10.2055 84.4943 10.3073C84.5491 10.1718 84.5838 10.0148 84.6197 9.90217C85.1698 9.99328 85.7287 10.3956 86.2384 9.75383C86.8779 10.2422 87.7582 9.5646 88.4071 10.3865C88.4418 10.2294 88.4777 10.1168 88.513 9.982C89.8513 9.59915 91.1959 10.1285 92.5405 9.96791C92.5846 10.1443 92.6073 10.2548 92.6721 10.4749C92.841 10.2239 92.9526 10.0196 93.083 9.79225C93.4585 9.93426 93.8498 9.94217 94.3381 9.92427C95.275 9.86768 96.2328 9.85483 97.1703 9.82046C97.268 9.81688 97.3663 9.83553 97.4261 9.87784C97.864 10.1511 98.2711 10.0249 98.6932 9.74239C98.8539 9.89227 99.0152 10.0644 99.2559 10.2781C99.3485 10.0967 99.4033 9.96116 99.4959 9.77973C99.5155 9.77902 99.6113 9.70874 99.69 9.7281C100.065 9.84788 100.444 10.1233 100.803 9.6873C101.449 9.6859 102.041 9.90896 102.511 10.6039C102.539 10.2023 102.55 9.91257 102.58 9.57768C103.032 9.67237 103.005 10.0962 103.188 10.3565C103.015 10.4519 102.88 10.5236 102.611 10.6892C102.943 10.677 103.18 10.7574 103.275 10.6426C103.426 10.4591 103.496 10.1672 103.661 9.80508C104.15 9.78718 104.755 9.76498 105.361 9.74279C105.826 10.2821 106.491 9.59011 106.975 10.1287C107.01 9.99388 107.046 9.85906 107.099 9.67907C107.413 9.71208 107.746 9.74437 108.216 9.77165C108.236 9.79316 108.378 9.94377 108.458 10.0076C108.826 9.90507 109.136 9.80469 109.543 9.6785C109.662 9.7409 109.881 9.8664 110.1 9.99191C110.137 9.94602 110.231 9.80906 110.271 9.82986C110.667 9.99339 111.135 9.95397 111.4 10.3448C111.57 10.1383 111.759 9.90883 111.929 9.70231C112.344 9.84289 112.658 9.8759 112.917 10.0444C113.156 10.2137 113.375 9.64933 113.622 10.0854C113.766 10.3471 114.14 10.4224 114.617 10.7165C114.452 10.411 114.411 10.3235 114.348 10.1922C114.405 10.1234 114.48 10.0094 114.556 9.9176C114.714 10.0008 114.872 10.0618 115.071 10.1658C115.097 10.3873 115.104 10.6319 115.129 10.8535C115.505 10.9955 115.862 11.1604 116.237 11.3025C116.431 11.2286 116.643 11.1318 116.894 11.0336C116.736 10.9504 116.616 10.888 116.398 10.7847C116.586 10.5108 116.755 10.2598 116.868 10.0999C117.353 9.97084 117.742 9.88983 118.15 9.78587C118.192 9.89559 118.235 10.0275 118.298 10.2032C118.903 9.46895 119.538 9.80173 120.193 10.156C120.423 9.99182 120.653 9.82762 120.941 9.63903C121.298 9.80399 121.675 10.0127 122.092 10.22C122.111 10.197 122.206 10.1045 122.358 9.9654C122.503 10.2272 122.607 10.4459 122.711 10.6646C122.622 10.9794 122.552 11.2713 122.445 11.6535C121.935 11.5832 121.425 11.5129 120.875 11.444C120.82 11.5573 120.766 11.7151 120.711 11.8728C120.218 11.7129 119.725 11.5529 119.231 11.393C119.364 11.2546 119.498 11.1384 119.802 10.838C119.372 10.8315 119.117 10.8186 118.844 10.8286C118.852 11.1176 118.86 11.3844 118.866 11.6067C118.389 12.047 117.98 11.3944 117.574 11.565C117.188 11.7349 116.798 11.7715 116.389 11.831C115.98 11.8905 115.572 11.2823 115.177 11.8531C114.649 11.8502 114.38 11.326 113.963 11.0743C114.005 11.184 114.066 11.2708 114.108 11.3805C114.031 11.4056 113.954 11.4751 113.915 11.4543C113.635 11.2421 113.374 11.0068 112.934 10.6447C113.043 11.0412 113.147 11.26 113.132 11.4385C113.118 11.6171 112.966 11.8007 112.893 11.9591C112.597 11.8587 112.321 11.7798 112.024 11.6794C112.021 11.546 112.016 11.3682 112.012 11.2348C111.891 11.1057 111.79 10.9981 111.669 10.869C111.615 11.0268 111.56 11.1623 111.469 11.4105C111.328 11.2376 111.226 11.1078 111.064 10.9135C110.952 11.0956 110.84 11.2777 110.746 11.4147C110.532 11.467 110.338 11.5187 110.067 11.5954C110.042 11.396 109.997 11.1974 109.972 10.998C109.933 10.9994 109.854 10.9801 109.835 11.003C109.721 11.1407 109.588 11.2569 109.495 11.4161C109.365 11.6879 109.316 12.0235 109.147 12.2522C108.996 12.458 108.745 12.5562 108.515 12.7204C108.491 12.5655 108.446 12.3669 108.401 12.1683C108.165 12.1102 107.948 12.0513 107.692 11.9717C107.674 12.0169 107.657 12.1288 107.623 12.308C107.487 12.3353 107.311 12.3417 107.078 12.3726C107.149 12.1474 107.223 11.9667 107.313 11.6963C107.567 11.687 107.879 11.6756 108.192 11.6641C108.19 11.5974 108.188 11.553 108.187 11.4863C107.991 11.4712 107.814 11.4554 107.618 11.4403C107.384 11.4489 107.169 11.4568 106.876 11.4675C106.864 11.735 106.853 12.0247 106.822 12.3152C106.763 12.2951 106.684 12.298 106.684 12.2757C106.676 11.9867 106.583 11.4783 106.39 11.5744C106.024 11.7436 105.954 11.3678 105.737 11.309C105.501 11.2509 105.229 11.3054 104.916 11.3168C104.883 11.5183 104.869 11.7191 104.838 11.9873C104.582 11.9299 104.325 11.8281 104.07 11.8152C103.816 11.8023 103.992 11.1282 103.571 11.4329C103.615 11.6093 103.678 11.785 103.683 11.9629C103.684 11.9851 103.529 12.0353 103.375 12.1077C103.326 11.7535 103.298 11.4652 103.249 11.1109C103.027 11.5641 102.843 11.9714 102.658 12.3565C102.341 12.1901 102.102 12.0431 101.844 11.8968C101.73 12.0345 101.597 12.1729 101.484 12.3105C100.932 12.175 100.4 12.0165 99.8878 11.8795C99.9193 11.6113 99.9508 11.3431 99.9993 10.9852C99.3585 11.1422 99.3951 11.7418 99.1348 12.2186C99.0888 11.9755 99.0447 11.7991 98.9994 11.5782C98.6383 11.2577 98.4184 11.7775 98.087 11.8119C98.0536 12.0135 98.0404 12.2365 98.0082 12.4824C97.8469 12.3103 97.7455 12.1805 97.6447 12.073C97.4701 12.1239 97.3158 12.1963 97.1595 12.202C97.0423 12.2063 96.9396 12.032 96.823 12.0586C95.946 12.1575 95.8874 12.1596 95.3833 11.6217C95.343 11.5787 95.2825 11.5142 95.2019 11.4281C95.0714 11.6554 94.9605 11.882 94.8295 12.0871C94.5661 11.763 94.5882 11.1613 94.0167 11.0042C93.8907 11.3872 93.7835 11.7471 93.6216 12.2427C93.4748 11.892 93.3488 11.5851 93.243 11.2996C92.9947 11.509 92.9688 11.9773 92.6009 12.102C92.4843 12.1286 92.3677 12.1551 92.2524 12.2261C91.9456 12.4376 91.6306 11.6703 91.3338 12.2375C90.9822 12.2504 90.6117 12.2862 90.2595 12.2769C90.1032 12.2826 89.964 12.1987 89.826 12.1592C89.5097 12.0373 89.2161 12.0258 88.9892 12.3012C88.7706 12.1757 88.552 12.0502 88.293 11.8816C88.2168 11.9512 88.121 12.0215 87.9679 12.1383C87.9427 11.939 87.8986 11.7626 87.8734 11.5632C87.7927 11.4771 87.4298 11.7797 87.3202 12.0508C87.0467 12.0608 86.7707 11.9819 86.559 12.101C86.0965 12.3405 85.7607 12.2192 85.4545 11.7631C85.0664 11.8664 84.6889 12.3475 84.263 11.8068C84.2088 11.9646 84.1735 12.0994 84.1382 12.2342C84.0803 12.2586 84.0229 12.3052 83.9637 12.2851C83.7665 12.2256 83.5686 12.1438 83.3519 12.085C83.0173 12.0082 82.6342 12.2893 82.3501 11.9214C82.0653 12.2212 81.754 12.2771 81.4138 12.0003C81.2046 12.2082 80.9022 11.8855 80.715 12.1816C80.3351 11.884 79.9274 11.988 79.5172 12.003C79.1852 12.0152 78.8733 12.0489 78.5406 12.0388C78.2275 12.028 77.9376 12.1499 77.6175 11.8946C77.4178 11.7462 77.0076 11.7612 76.777 11.9032C76.162 12.2818 75.5301 12.0601 74.7916 12.2207C74.7551 12.3111 74.6624 12.4925 74.4942 12.7657C74.4451 12.4115 74.3997 12.1906 74.3764 12.0579C74.1332 11.7553 74.033 12.3598 73.791 12.1016C73.6902 11.9941 73.437 12.0256 73.2416 12.0328C73.0066 12.0191 72.7924 12.0492 72.558 12.0578C72.437 11.9287 72.3356 11.7989 72.2146 11.6698C71.9449 11.8132 71.696 12.0004 71.4245 12.0771C71.1529 12.1538 70.8587 12.1201 70.5461 12.1316C70.824 11.5873 71.2481 11.3715 71.6929 11.1994C71.812 11.2618 71.9512 11.3457 72.071 11.4303C72.2247 11.3357 72.3394 11.2424 72.4541 11.1492C72.5939 11.2554 72.6935 11.3185 72.7937 11.4038C73.0816 11.2152 73.3897 11.0482 73.7357 10.8352C73.8636 10.519 74.0281 10.1124 74.2108 9.66059C74.0527 9.59963 73.9342 9.55947 73.875 9.53938C73.7061 9.1005 73.5379 8.68384 73.3495 8.24567C72.9784 8.25928 72.6659 8.27073 72.3143 8.28362C72.4756 8.45573 72.6363 8.60562 72.8379 8.82077C72.354 8.99428 71.9797 9.58659 71.567 8.82284C71.797 8.65864 72.0264 8.4722 72.3143 8.28362C72.325 7.97167 72.1322 8.06775 71.976 8.07348C71.1556 8.10355 70.3548 8.13291 69.5344 8.16297C69.404 8.39029 69.2735 8.61761 69.1437 8.86716C68.7096 8.7273 68.2332 9.16758 67.8842 8.57952C67.6756 8.8097 67.5042 8.97176 67.3146 9.179C67.1564 9.11804 66.9756 8.94663 66.8395 8.97387C66.5673 9.02836 66.3613 8.6576 66.0935 8.86769C65.8446 9.05485 65.6279 8.99603 65.4256 8.75865C65.1994 9.05624 64.9663 9.1093 64.6846 8.83032C64.4376 9.08417 64.2215 9.04758 63.9802 8.81163C63.587 9.42689 62.9979 8.64735 62.5606 9.0862C62.3325 9.3171 62.0458 8.86028 61.739 9.07181C61.5084 9.21378 61.2324 9.13488 60.935 8.99001C60.6767 8.8437 60.2073 8.83866 59.9968 9.00214C59.6339 9.30475 59.259 9.18497 58.8885 9.2208C58.4991 9.27958 58.065 9.13972 57.7373 9.3075C57.3908 9.49823 57.1085 9.19702 56.8181 9.29668C56.6441 9.36982 56.4702 9.44296 56.2957 9.49386C56.1987 9.51967 56.0834 9.59066 56.0235 9.54834C55.5465 9.27653 55.0418 9.40629 54.5327 9.38045C54.0822 9.35245 53.517 9.41768 53.1711 9.63064C52.834 9.46496 52.5366 9.32009 52.18 9.15513C52.0496 9.38245 51.9576 9.5861 51.8454 9.76824C51.5858 9.57748 51.4063 9.45054 51.0276 9.19737C51.4561 9.13716 51.6715 9.15152 51.8448 9.05615C52.0376 8.96007 52.2323 8.93068 52.4277 8.92352C52.2985 8.50543 52.7534 8.68905 52.8032 8.37567C52.2954 8.39428 51.7825 8.23505 51.3843 8.67247C51.2639 8.56561 51.2028 8.47884 51.1228 8.41501C51.0094 8.55269 50.8959 8.69036 50.8392 8.7592C50.5059 8.72691 50.1928 8.71614 49.8979 8.66019C49.6232 8.62575 49.3976 8.2557 49.0353 8.58053C48.8828 8.71965 48.4859 8.51166 48.2307 8.4765C48.082 8.749 47.9522 8.99854 47.8035 9.27104C47.4443 9.01716 47.1451 8.8056 46.8256 8.57251C46.6378 8.84644 46.4242 8.89878 46.1653 8.73024C45.9057 8.53947 45.6455 8.32647 45.3657 8.11419C45.3569 7.80296 45.3481 7.49173 45.3406 7.22497C45.4924 7.06363 45.6052 6.90371 45.7382 6.76532C45.7174 6.72157 45.6771 6.67855 45.6569 6.65703C45.5416 6.72802 45.4269 6.82123 45.2908 6.84848C45.1352 6.87643 44.9783 6.85993 44.8025 6.86637C44.73 7.06931 44.6374 7.25074 44.5649 7.45368C44.6053 7.49671 44.6664 7.58349 44.7672 7.69106C44.5731 7.74268 44.3986 7.79358 44.1655 7.84663C44.4465 8.10337 44.7079 8.36084 45.0097 8.66133C44.8969 8.82124 44.7841 8.98115 44.6335 9.18695C44.4729 9.03706 44.2555 8.95602 44.1919 8.78032C44.0413 8.29626 43.8151 7.90398 43.3949 7.56332C43.3022 7.74475 43.1901 7.92689 43.0968 8.08609C42.7597 7.92041 42.4063 7.86661 42.296 7.42558C41.6993 7.759 41.5626 7.76401 40.7278 7.28277C40.6899 7.32867 40.6332 7.3975 40.5564 7.44483C40.2104 7.65779 39.8879 7.31356 39.5753 7.32502C39.2433 7.33719 38.9414 7.72656 38.6037 7.53865C38.4053 7.43466 38.3479 7.48127 38.1539 7.53289C37.8823 7.60961 37.566 7.48768 37.1539 7.43602C37.1357 7.4812 37.0815 7.63896 37.0102 7.88636C36.8704 7.78021 36.7696 7.67265 36.5087 7.43742C36.6467 7.47687 36.5869 7.43455 36.568 7.4575C35.9328 7.81458 35.2467 7.75072 34.6166 7.59579C34.1043 7.45879 33.4824 7.59285 33.0382 7.0973C32.9576 7.01124 32.7049 7.06501 32.5695 7.11448C32.434 7.16395 32.3212 7.32386 32.2456 7.41565C32.3288 7.59063 32.3918 7.7441 32.4541 7.87533C31.9374 8.27258 31.5096 7.66515 31.0446 7.81572C31.2456 8.00864 31.4277 8.2245 31.6489 8.43893C31.6028 8.88569 31.2733 8.98679 30.8845 9.0678C31.0836 9.19402 31.2834 9.34247 31.4825 9.4687C31.4069 9.56049 31.3123 9.67522 31.2178 9.78995C31.0149 9.53034 30.7995 9.51598 30.5751 9.88027C30.5291 9.63716 30.504 9.4378 30.4586 9.21693C29.9085 9.12582 29.3881 9.38969 28.8613 9.43125C28.4127 9.46995 27.7877 9.49286 27.2874 9.77824C27.225 9.647 27.1614 9.47131 27.036 9.18661C27.0177 9.23178 27.0725 9.09625 27.1463 8.93777C27.1066 8.91697 27.0461 8.85243 26.9875 8.85458C26.3039 8.87964 25.619 8.86023 24.9366 8.92975C24.527 8.96702 23.9599 8.96555 23.5441 8.78051C23.4326 8.98488 23.3412 9.21076 23.2297 9.41513C23.0904 9.33122 22.9304 9.20357 22.9115 9.22652C22.667 9.56928 22.4219 9.19995 22.1881 9.23077C21.8958 9.26374 21.6022 9.25225 21.3092 9.26299C20.7427 9.28375 20.2066 8.99186 19.6231 9.10226C19.1562 9.18613 18.6818 9.00324 18.1922 8.97668C17.8393 8.9451 17.6957 8.70558 17.4764 8.55784C17.3813 8.65034 17.2855 8.72061 17.133 8.85972C16.9875 8.5535 16.8627 8.29103 16.7582 8.05008C16.8149 7.98124 16.8338 7.95829 16.8527 7.93535C17.1772 7.65641 17.5508 8.42159 17.8482 7.8766C18.1998 7.86372 18.5703 7.82788 18.9225 7.83722C19.2167 7.87095 19.5129 7.97136 19.7882 8.02803C19.9149 7.66733 20.0239 7.37403 20.1695 6.99039C20.9709 7.67313 21.8852 7.50609 22.6589 7.90055C22.7383 7.94215 22.875 7.93714 22.9519 7.88981C23.6437 7.46389 24.3935 7.70345 25.1326 7.56509C25.1276 7.38725 25.1232 7.23164 25.1156 6.96487C24.742 6.88955 24.2927 6.90601 23.9159 6.71954C23.6582 6.59546 23.5461 6.7776 23.3892 6.7611C23.1151 6.74889 22.8083 6.96042 22.5644 6.63556C22.3609 6.35372 22.1826 6.96111 21.9388 6.63624C21.8776 6.54946 21.6243 6.581 21.4882 6.60824C21.0012 6.6706 20.5122 6.66626 20.0384 6.5056C20.0189 6.50632 19.9975 6.44034 19.9584 6.44178C19.0416 6.51989 18.1306 6.10821 17.198 6.32042C17.0235 6.37133 16.8698 6.46597 16.7349 6.53767C16.452 6.21424 16.1698 5.91303 15.868 5.61254C15.5592 5.75738 15.3469 5.85418 15.0961 5.97464C14.6103 5.3916 13.8763 5.7078 13.2991 5.35064C12.3666 5.56285 11.4725 5.06154 10.5394 5.25152C10.3983 5.10091 10.2376 4.95103 10.1166 4.82194C9.90177 4.82982 9.72597 4.83626 9.53065 4.84342C9.25087 5.321 9.22627 5.83374 9.29871 6.32066C8.85638 6.58167 8.94146 6.13347 8.72031 5.91904C8.5275 6.01512 8.29689 6.1571 8.00767 6.30122C8.15132 6.54075 8.23322 6.67127 8.29497 6.78027C8.21051 7.2507 7.95153 7.77202 8.05988 8.14637C8.19155 8.65337 8.10772 9.14602 8.24442 9.83087C8.04469 9.68242 7.9653 9.64082 7.80527 9.51317C7.67483 9.74049 7.50658 10.0137 7.35724 10.264C7.19343 10.0029 7.08948 9.78419 6.96662 9.58841C6.51738 9.60488 6.10782 9.64215 5.67748 9.63567C5.36433 9.6249 5.07448 9.74678 4.75441 9.49147C4.59438 9.36382 4.22389 9.39965 3.99201 9.49716C3.52952 9.73665 3.02105 9.73304 2.53588 9.86209C2.87108 9.96107 3.18674 10.0608 3.65993 10.1992C3.27494 10.4136 3.02479 10.5563 2.79417 10.6983C2.85969 10.9406 2.94474 11.1823 3.01152 11.4692C3.40343 11.4993 3.81487 11.5287 4.34413 11.5761C4.45944 11.5051 4.70896 11.3402 4.99755 11.1738C5.06055 11.3273 5.10276 11.437 5.16639 11.6127C5.36171 11.6056 5.5961 11.597 5.85003 11.5877C5.88343 11.3862 5.8973 11.1854 5.93008 10.9616C6.28166 10.9487 6.42405 11.1438 6.47192 11.4536C6.53933 11.7627 6.6061 12.0495 6.6754 12.4253C6.09193 12.5357 5.52168 13.113 4.86138 12.5808C4.65282 12.811 4.46001 12.9071 4.25524 12.5808C4.0914 13.0096 3.9024 12.5492 3.72787 12.6001C3.3788 12.7019 2.9894 12.7607 2.64096 12.8847C2.35049 12.9844 2.08207 13.1723 1.74876 13.14C1.65109 13.1436 1.53956 13.3479 1.38833 13.5315C2.40654 13.5832 3.2773 13.9518 4.23628 13.9835C5.0976 14.0186 5.93369 14.5443 6.89079 14.5093C7.05271 14.7036 7.23542 14.9417 7.58068 15.3964C7.02811 15.2163 6.71244 15.1166 6.31739 14.9754C6.14663 15.1596 5.91916 15.4128 5.71059 15.6429C5.67027 15.5999 5.60978 15.5354 5.50897 15.4278C5.45478 15.5856 5.40059 15.7433 5.36529 15.8781C5.56251 15.9377 5.8788 16.0596 6.21463 16.1808C6.21903 16.3364 6.22407 16.5143 6.23036 16.7366C5.89642 16.6821 5.54043 16.5393 5.2487 16.5945C4.93743 16.6504 4.6747 16.3485 4.30925 16.5622C4.07863 16.7042 3.59853 16.3212 3.34838 16.4639C2.98229 16.6553 2.7183 16.309 2.41081 16.4983C2.35599 16.6338 2.26399 16.8375 2.15434 17.1085C2.58909 17.2706 3.02447 17.4549 3.51844 17.6371C3.54112 17.7476 3.56569 17.9247 3.59088 18.124C4.25813 18.2108 4.94492 18.2969 5.71046 18.4024C6.24791 18.7388 5.81124 19.1998 5.68835 19.6939C5.4527 19.6581 5.21642 19.6 4.98077 19.5641C4.96124 19.5648 4.93982 19.4988 4.90076 19.5003C4.50319 19.27 4.18812 19.8824 3.76913 19.5863C3.35014 19.2901 2.99097 19.726 2.62174 19.8063C2.23234 19.8651 2.2676 20.4202 2.07983 20.6941C2.2581 21.4664 3.1371 20.7444 3.29585 21.5174C3.74509 21.5009 4.15528 21.4859 4.5264 21.4723C4.64988 21.6903 4.75258 21.8646 4.8748 22.0381C5.18037 22.472 5.18037 22.472 4.84326 22.9962C3.97816 22.8276 3.25989 22.3199 2.35007 21.9526C2.39543 22.1735 2.41936 22.3284 2.44267 22.4611C2.44267 22.4611 2.50127 22.4589 2.54033 22.4575C2.98832 22.3966 2.8169 23.2485 3.38083 23.1388C3.65303 23.0843 3.99389 23.3834 4.29128 23.5283C4.3902 23.5691 4.47022 23.633 4.5893 23.6954C4.08268 24.4483 3.88173 23.5655 3.45138 23.559C3.33922 23.7412 3.20815 23.9463 3.03991 24.2195C2.96178 24.2224 2.80614 24.2503 2.65051 24.2783C2.60135 24.6139 2.55219 24.9495 2.48538 25.3525C2.68071 25.3453 2.9151 25.3368 3.18855 25.3267C3.1583 25.6394 3.14505 25.8624 3.1148 26.1751C2.96105 26.2697 2.71153 26.4346 2.48091 26.5766C2.56471 26.7738 2.6674 26.9481 2.79215 27.2106C3.00449 27.1138 3.2162 26.9947 4.90544 27.2666C6.18889 27.7092 5.97844 27.8727 5.82029 27.8117C4.93126 27.4882 3.96913 27.3454 3.32459 26.6792C3.39706 26.4763 3.45062 26.2963 3.50608 26.183C3.78268 26.2841 4.06116 26.4519 4.09897 26.406C4.32393 26.064 4.50475 26.2354 4.74355 26.3824C4.90295 26.4878 5.19971 26.6105 5.31502 26.5395C5.79453 26.2104 6.04024 26.6019 6.36031 26.8572C6.36723 27.1018 6.37415 27.3463 4.90544 27.2666C3.59675 27.3146 3.74481 27.7097 3.89411 28.1493C3.75864 28.1988 3.66161 28.2246 3.52614 28.2741C3.47764 27.9421 3.44993 27.6538 3.39765 27.1884C3.23381 27.6172 3.14433 27.9098 3.03468 28.1808C2.93639 28.1622 2.81857 28.1442 2.70137 28.1485C2.52621 28.1772 2.33151 28.2066 2.1576 28.2797C2.02213 28.3292 1.88855 28.4454 1.7159 28.563C1.93579 28.7329 2.13552 28.8814 2.33525 29.0299C2.24073 29.1446 2.20293 29.1905 2.14622 29.2593C2.42408 29.4049 2.68177 29.529 2.9401 29.6753C2.94325 29.7865 2.94639 29.8976 2.83486 30.102C3.08501 29.9593 3.23812 29.8424 3.41077 29.7248C3.37359 29.7929 3.35595 29.8603 3.31877 29.9285C3.45675 29.9679 3.6149 30.0289 3.75289 30.0683C3.71508 30.1142 3.69681 30.1594 3.659 30.2053C3.42398 30.1917 3.17006 30.201 2.83486 30.102C2.85187 30.0123 2.69435 29.9736 2.65655 30.0195C2.41143 30.34 2.18585 30.6599 1.90418 31.0707C2.19906 31.1267 2.39564 31.164 2.59222 31.2013C2.596 31.3347 2.59789 31.4014 2.60103 31.5125C2.4265 31.5634 2.25133 31.5921 2.0182 31.6452C2.25762 31.8144 2.45798 31.9851 2.69803 32.1766C2.30483 32.7918 1.92991 33.3619 1.55561 33.9542C1.61735 34.0633 1.67973 34.1945 1.76226 34.3472C1.58898 34.4426 1.45477 34.5365 1.31993 34.6082C1.50072 35.4695 1.60339 36.3336 2.28511 36.9318C2.50626 37.1462 2.67195 37.4739 2.77842 37.7816C2.90442 38.0885 2.93402 38.4435 3.00268 38.797C2.88675 38.8458 2.79034 38.8938 2.65487 38.9433C2.67566 38.987 2.69771 39.0752 2.71787 39.0968C2.81616 39.1154 2.91257 39.0674 3.01149 39.1082C3.30699 39.1864 3.44938 39.3815 3.42038 39.7386C3.3895 40.029 3.25717 40.1897 3.00388 40.2212C2.84762 40.2269 2.69136 40.2327 2.55463 40.2377C2.51745 40.3058 2.47964 40.3517 2.47964 40.3517C2.5206 40.417 2.58045 40.4593 2.64094 40.5238C2.60439 40.6142 2.54831 40.7052 2.43803 40.9541C2.68881 40.8336 2.84318 40.7612 2.97802 40.6895C3.10465 41.0186 3.24956 41.3026 3.70007 41.3306C4.11151 41.3601 4.63952 41.363 4.91231 42.0206C4.54622 42.212 4.25512 42.2894 3.95207 41.9445C3.58853 41.535 3.15567 41.4396 2.63332 41.6368C2.78452 42.1431 3.21298 42.0829 3.6326 42.4013C2.7152 42.4572 1.93075 42.3746 1.06877 43.0071C0.882249 43.3255 1.62637 43.365 1.6377 43.7651C2.1279 43.8139 2.23688 44.2105 2.19149 44.6795C2.59728 44.5088 2.59728 44.5088 2.38748 44.0047C2.56327 43.9982 2.71891 43.9703 2.8947 43.9638C2.93062 43.8512 2.96591 43.7164 3.00057 43.5594C3.33262 43.5472 3.68421 43.5343 4.07486 43.52C4.08807 43.9868 4.10128 44.4537 4.11386 44.8983C4.41503 45.1766 4.58387 45.6154 5.02934 45.4656C5.17236 45.6829 5.29585 45.9009 5.41871 46.0967C5.59198 46.0013 5.70729 45.9303 5.97634 45.7647C5.87236 46.2358 5.80303 46.5499 5.73497 46.9085C6.64542 47.2979 7.6 47.1739 8.50604 47.4078C8.50856 47.4967 8.5117 47.6078 8.51548 47.7412C8.14436 47.7548 7.79277 47.7677 7.46072 47.7799C7.35485 48.1843 7.24772 48.5443 7.16012 48.9036C6.98433 48.91 6.8476 48.915 6.59368 48.9243C6.66866 48.8103 6.70584 48.7422 6.78019 48.606C6.64032 48.4998 6.45824 48.284 6.32214 48.3112C5.83697 48.4402 5.41483 48.0329 4.92841 48.1175C5.22577 48.9522 5.3858 49.0799 6.33343 49.4012C6.62956 49.5016 6.90742 49.6472 7.10526 49.729C7.49777 50.4712 6.94768 51.07 7.08312 51.7104C6.83612 51.9642 6.6729 52.4153 6.18019 52.2775C6.09133 52.5924 5.98357 52.9301 5.87581 53.2679C6.3093 53.3855 6.68357 53.4831 7.05909 53.6251C7.21724 53.686 7.07356 54.1364 7.38293 54.0138C7.61481 53.9162 7.80573 53.7535 8.13212 53.5412C8.44464 53.5298 8.91342 53.5126 9.36267 53.4961C9.45656 53.3592 9.56998 53.2215 9.64559 53.1297C9.87495 52.9433 12.1243 52.9721 12.4999 53.1141C12.5755 53.0223 12.6322 52.9535 12.7456 52.8158C12.7047 52.7505 12.6637 52.6853 12.5824 52.577C12.6202 52.5311 12.6568 52.4407 12.7135 52.3719L14.227 51.9604C14.5508 52.349 14.9541 52.0895 15.3265 52.1203C15.777 52.1483 16.2798 51.9519 16.6755 52.1154C17.0907 52.2782 17.5733 52.0602 17.8537 52.2948C18.2733 52.6132 18.7692 52.1722 19.0956 52.6498C19.1164 52.6935 19.2128 52.6455 19.2915 52.6649C20.0747 52.7029 20.8774 52.7403 21.6613 52.8005C21.9946 52.8328 22.3304 52.954 22.6631 52.9641C22.9769 52.9971 23.3077 52.9405 23.6403 52.9505C23.7185 52.9477 23.7802 53.0567 23.9012 53.1858C23.8943 52.9412 23.8899 52.7856 23.8842 52.5855C23.7645 52.5009 23.624 52.3725 23.3234 52.1165C23.9932 52.2922 23.9932 52.2922 24.4154 52.6996C24.4752 52.7419 24.6107 52.6924 25.5917 52.8123C26.1789 52.8352 25.8412 52.6473 25.765 52.7169C25.5759 52.9464 25.2893 52.4895 25.2029 52.8933C25.0435 52.7878 24.8652 52.7054 24.7052 52.5777C24.6655 52.5569 24.7191 52.3769 24.7355 52.265C25.3246 52.3547 25.8935 52.4229 26.4625 52.491C26.465 52.58 26.4675 52.6689 25.5917 52.8123C24.8709 52.9054 25.0341 53.1442 25.1765 53.3393C25.5671 53.325 25.9401 53.3781 26.2697 53.277C26.7353 53.1487 27.1158 53.4685 27.5657 53.4743C27.957 53.4822 28.3458 53.4012 28.7811 53.5855C29.2165 53.7698 29.8195 53.6587 30.3047 53.5297C30.5183 53.4773 30.6128 53.3626 30.8711 53.5089C31.1093 53.6337 31.4407 53.5993 31.7318 53.5219C31.9845 53.4681 32.1294 53.7521 32.3991 53.6087C32.6297 53.4667 32.9214 53.4115 33.1735 53.3355C33.3285 53.2853 33.5301 53.5004 33.6794 53.2502C33.6983 53.2272 33.8785 53.3764 33.997 53.4166C34.1948 53.4983 34.5325 53.6862 34.5703 53.6403C34.7764 53.3212 34.9433 53.6934 35.1172 53.6203C35.3107 53.5465 35.4827 53.4066 35.7518 53.241C35.4966 53.2058 35.3201 53.19 35.1236 53.1527C35.1015 53.0645 35.0788 52.9541 35.0763 52.8652C35.1141 52.8193 35.1324 52.7741 35.1519 52.7734C35.6402 52.7555 36.109 52.7383 36.5973 52.7204C36.62 52.8308 36.6427 52.9413 36.6666 53.0962C37.0535 52.9485 37.4202 52.7793 37.8084 52.676C37.9054 52.6502 38.0629 52.6889 38.1625 52.7521C38.5014 52.9844 38.7919 52.8848 39.0981 52.651C39.1989 52.7586 39.2796 52.8446 39.4006 52.9737C39.7679 52.8267 40.1724 52.6116 40.5725 52.9308C40.6525 52.9946 40.7502 52.991 40.8479 52.9874C42.1187 52.9854 43.3978 53.2723 44.6825 53.0694C45.2862 52.9805 45.8564 53.0932 46.4701 53.36C46.3963 53.5184 46.322 53.6547 46.2312 53.9028C46.8531 53.7687 47.3767 54.3059 48.1095 53.9452C47.538 53.7881 47.085 53.6712 46.5142 53.5364C46.8034 53.3922 46.9767 53.2969 47.1695 53.2008C47.3434 53.1277 47.5185 53.099 47.712 53.0251C47.9501 53.1499 48.2475 53.2948 48.5846 53.4605C48.4498 53.5322 48.3351 53.6254 48.1807 53.6978C48.3407 53.8255 48.4813 53.9538 48.6614 54.103C48.7692 53.7653 48.8404 53.5179 48.9312 53.2697C48.9488 53.2023 49.0257 53.155 49.0446 53.1321C49.2229 53.2145 49.3823 53.32 49.5209 53.3817C49.4674 53.5616 49.4132 53.7194 49.3602 53.9216C49.9109 54.035 49.8971 53.5459 50.0458 53.2734C50.2216 53.267 50.4541 53.1917 50.6129 53.2749C50.7918 53.3796 50.9115 53.4642 51.1213 53.2785C51.0873 53.4578 51.0337 53.6378 50.9997 53.817C50.9997 53.817 51.0602 53.8816 51.0992 53.8801C51.2952 53.8952 51.4899 53.8658 51.6852 53.8587C52.2712 53.8372 52.8742 53.7261 53.5899 54.1449C53.4255 53.8616 53.3833 53.7519 53.28 53.5554C53.7109 53.5841 54.0808 53.5261 54.4355 53.6243C54.731 53.7025 54.9938 53.3146 55.3353 53.6359C55.5564 53.8503 56.0227 53.7442 56.3951 53.775C56.4102 53.6187 56.4436 53.4172 56.4575 53.2164C56.4966 53.215 56.5161 53.2143 56.5551 53.2128C56.5803 53.4122 56.6251 53.6108 56.6509 53.8324C57.0611 53.8174 57.4713 53.8024 57.94 53.7852C57.9552 53.6288 57.9886 53.4273 58.0207 53.1814C59.0269 53.5005 60.0168 53.2417 61.0344 53.2712C61.0319 53.1823 61.0489 53.0926 61.0489 53.0926C60.5127 52.8007 59.9564 52.4873 59.4013 52.2184C59.1631 52.0936 59.1448 52.1388 58.896 51.636C59.4952 51.3915 59.8392 51.8018 60.2223 52.2105C60.2576 52.0757 60.2929 51.9409 60.3811 51.6039C60.4485 51.9129 60.5134 52.1331 60.5587 52.354C60.6154 52.2851 60.6917 52.2156 60.7484 52.1467C61.1132 51.9108 61.478 51.6749 61.8618 51.4161C61.6822 51.2891 61.7137 51.0209 61.4233 51.1206C61.1718 51.2188 60.761 51.2116 60.5997 51.0395C60.3169 50.7161 60.0232 51.3944 59.8147 50.9348C59.3453 50.9297 58.8557 50.9031 58.3667 50.8988C58.3314 51.0336 58.3144 51.1233 58.2791 51.2581C57.8998 51.6726 57.6705 51.1691 57.3699 50.9131C57.3725 51.002 57.3378 51.8489 57.3233 52.0275C57.133 51.5226 57.0051 51.149 56.8564 50.7316C56.6857 50.9159 56.5338 51.0773 56.3442 51.2845C56.1633 51.1131 56.002 50.941 55.8817 50.8341C55.7456 50.8614 55.6303 50.9324 55.5704 50.89C55.3909 50.7631 55.2315 50.6577 55.1634 51.0162C55.2226 51.0363 55.2825 51.0786 55.3222 51.0994C55.1892 51.2378 55.0947 51.3526 54.9807 51.468C54.9825 51.5347 54.9851 51.6236 54.9876 51.7125C55.3007 51.7233 55.6133 51.7119 55.9258 51.7004C55.9365 52.0783 55.9465 52.434 55.956 52.7675C55.7657 52.2626 55.2169 52.216 54.9876 51.7125C54.8149 51.8301 54.6631 51.9915 54.4911 52.1313C54.4507 52.0883 54.3902 52.0237 54.3096 51.9377C54.0103 52.416 53.6266 52.6748 53.1439 52.2029C52.7577 52.3729 52.4338 51.9842 52.0432 51.9985C51.9651 52.0014 51.8825 51.8486 51.7817 51.741C52.2587 51.323 52.9196 51.8773 53.1938 51.1997C52.9159 51.0541 52.6179 50.887 52.2808 50.7213C52.0741 51.0182 51.7981 50.9393 51.5178 50.7048C51.3123 51.0461 50.9393 50.993 50.722 50.912C50.4643 50.7879 50.2141 50.9306 49.9558 50.7843C49.7372 50.6588 49.4082 50.7821 49.1348 50.7921C49.2035 50.4558 49.2552 50.2091 49.3062 49.9402C49.8122 49.8549 50.3383 49.7911 50.9608 49.6793C50.9822 49.7452 51.0856 49.9417 51.17 50.1612C51.2273 50.1146 51.2847 50.068 51.342 50.0214C51.3584 49.9095 51.3937 49.7747 51.4283 49.6176C51.5651 49.6126 51.7213 49.6069 51.9167 49.5997C51.9381 49.6657 51.9809 49.7977 52.0439 49.9511C52.1806 49.9461 52.3369 49.9404 52.5322 49.9332C52.5492 49.8436 52.5845 49.7088 52.6387 49.551C52.7755 49.546 52.9317 49.5403 53.088 49.5345C53.1617 50.0659 53.6034 49.7827 53.8409 49.8853C54.098 49.9871 54.4074 49.8645 54.7016 49.8982C54.8188 49.8939 54.9196 50.0015 55.0582 50.0632C55.1332 49.9492 55.2271 49.8122 55.3021 49.6982C55.7734 49.7699 56.1502 49.9564 56.6359 49.8496C57.1608 49.7413 57.7802 49.5183 58.3202 49.9436C58.7543 49.3936 58.9918 50.186 59.3629 50.1724C59.5935 50.0305 59.8431 49.8655 60.0926 49.7006C60.2715 49.8053 60.4946 50.0864 60.6565 49.5909C60.7403 49.7881 60.8033 49.9416 60.8865 50.1166C61.3099 49.8785 61.715 49.6857 62.2115 49.9568C62.4497 50.0815 62.817 49.9346 63.1088 49.8794C63.2839 49.8507 63.4579 49.7775 63.6135 49.7496C63.6777 49.9475 63.7199 50.0572 63.7836 50.2329C64.0463 49.845 64.311 49.5237 64.8283 49.8386C64.8692 49.9039 64.9524 50.0788 65.0362 50.276C64.9984 50.3219 64.9423 50.413 64.8667 50.5048C64.965 50.5234 65.0651 50.6088 65.1427 50.5837C65.6253 50.3657 66.0884 50.1485 66.5704 49.9083C66.6713 50.0158 66.7733 50.1679 66.9126 50.2518C67.0713 50.335 67.2679 50.3723 67.4443 50.3881C67.5622 50.406 67.6781 50.3572 67.8142 50.33C67.8192 50.5078 67.8243 50.6857 67.8299 50.8858C67.4979 50.8979 67.1463 50.9108 66.8142 50.923C66.687 51.2615 66.5981 51.5763 66.4349 52.0273C66.2106 51.0119 65.4406 51.4407 64.9996 51.0563C64.9158 51.5489 64.832 52.0416 64.7311 52.6239C64.9069 52.6174 65.0436 52.6124 65.1608 52.6081C65.0525 52.2338 65.3228 52.1126 65.5288 51.7935C65.7525 52.0968 65.9157 52.3357 66.1192 52.6175C66.2131 52.4805 66.307 52.3436 66.4576 52.1378C66.6529 52.1306 66.903 51.9879 67.2029 52.2217C67.3233 52.3286 67.6308 52.1393 67.9798 52.0375C67.8885 52.2633 67.8532 52.3982 67.758 52.4907C67.6251 52.6291 67.4713 52.7237 67.2993 52.8635C67.4247 53.1482 67.5488 53.3885 67.6943 53.6947C67.7252 53.4043 67.7586 53.2028 67.7889 52.8901C68.3383 52.959 68.8877 53.0278 69.4964 53.1168C69.412 52.8974 69.3483 52.7217 69.2438 52.4807C69.5563 52.4693 69.7907 52.4607 70.0641 52.4506C70.0887 52.6278 70.1133 52.8049 70.1391 53.0265C70.2367 53.0229 70.3546 53.0408 70.4913 53.0358C70.4075 52.8386 70.325 52.6859 70.2204 52.4449C70.5707 52.3876 70.8631 52.3546 71.1945 52.3202C71.289 52.2055 71.4024 52.0678 71.5537 51.8842C71.8183 52.2528 72.0829 52.6214 72.3671 52.9893C72.6569 52.8674 72.9467 52.7455 73.2366 52.6237C73.1755 52.5369 73.0955 52.4731 72.994 52.3433C73.4042 52.3282 73.7753 52.3146 74.1855 52.2996C74.1899 52.4552 74.1949 52.633 74.2031 52.922C74.4741 52.8231 74.8004 52.6108 74.8609 52.6754C75.1243 52.9995 75.2875 52.5485 75.5049 52.6295C75.7418 52.7099 75.9774 52.7457 76.2332 52.8031C76.4393 52.484 76.7052 52.2072 77.0927 52.0817L78.0252 51.8695C78.2609 51.9054 78.4764 51.9198 78.7492 51.8875C79.3131 51.7778 79.3352 51.866 79.5564 51.3906C79.5929 51.3002 79.6295 51.2099 79.7032 51.0514C79.3075 50.8879 78.8727 50.7258 79.1078 50.0496C79.6963 50.117 79.833 50.8019 80.3925 51.2264C80.3711 51.1605 80.0951 51.0816 80.3371 50.6499C80.5551 50.7531 80.7926 50.8557 80.9904 50.9375C80.9967 51.1598 81.0018 51.3376 81.0112 51.6711C80.8858 51.3864 80.8235 51.2551 80.7605 51.1017C80.6842 51.1712 80.6275 51.2401 80.412 51.2257C80.1449 51.458 80.0573 51.8173 79.6905 51.9865C80.102 52.016 80.5493 51.9328 80.8228 52.6126C80.8707 52.2326 80.8845 52.0318 80.8978 51.8088C81.3338 52.0153 81.7169 52.4241 82.2323 51.9824C82.4043 51.8426 82.72 51.9422 82.9739 51.9329C83.0003 52.1768 83.0249 52.3539 83.0501 52.5533C83.4017 52.5404 83.7533 52.5275 84.1244 52.5139C84.2189 52.3991 84.3323 52.2615 84.4647 52.1008C84.6795 52.093 85.0538 52.1905 85.1672 52.0528C85.4318 51.7316 85.5994 52.126 85.8124 52.0514C86.0443 51.9539 86.256 51.8349 86.4872 51.7152C86.5049 51.6477 86.5213 51.5359 86.5383 51.4462C86.5572 51.4233 86.5761 51.4003 86.6145 51.3767C86.7185 51.5954 86.8413 51.7912 86.9655 52.0314C87.4928 52.0121 88.0196 51.9705 88.5281 51.9742C89.017 51.9785 89.5192 51.7598 89.9791 52.1213C90.0333 51.9635 90.0686 51.8287 90.1215 51.6264C90.8997 52.1765 91.7578 52.1006 92.5971 52.0475C93.3192 51.9988 94.0224 51.973 94.7457 51.9688C95.0387 51.9581 95.3191 51.5027 95.5887 52.0492C95.6789 51.7788 95.7141 51.644 95.7494 51.5092C95.8925 51.7265 96.0355 51.9438 96.159 52.1618C96.2541 52.0693 96.3102 51.9782 96.4053 51.8857C96.5641 51.9689 96.7229 52.0521 96.8817 52.1353C97.0159 52.0414 97.1501 51.9474 97.3227 51.8298C97.4456 52.0256 97.5678 52.1992 97.6497 52.3297C97.8621 52.2329 97.9957 52.1167 98.1324 52.1117C99.0271 51.9454 99.9338 52.2015 100.815 52.2582C101.11 52.2919 101.438 52.1686 101.777 52.3787C102.055 52.5465 102.481 52.3974 102.833 52.3845C103.262 52.3687 103.673 52.3759 104.102 52.338C105.252 52.1846 106.378 52.6106 107.548 52.4787C107.84 52.4457 108.139 52.6351 108.466 52.4451C108.639 52.3497 108.971 52.3375 109.112 52.4659C109.452 52.7427 109.778 52.5083 110.113 52.6072C110.144 52.339 110.177 52.1153 110.209 51.8471C110.431 52.106 110.613 52.3219 110.755 52.4947C110.873 52.5349 110.932 52.5327 110.991 52.5528C111.266 52.6095 111.554 52.4209 111.816 52.7006C112.038 52.9372 112.349 52.1692 112.619 52.7157C112.842 52.3069 113.09 52.8096 113.342 52.7114C113.613 52.6347 113.927 52.6455 114.221 52.6792C114.397 52.695 114.558 52.8449 114.734 52.8607C114.872 52.8779 114.998 52.4949 115.163 52.8227C115.184 52.8664 115.3 52.8177 115.34 52.8385C115.678 53.0486 116.008 52.2799 116.356 52.8012C116.725 52.7209 117.122 52.9289 117.465 52.6048C118.357 53.0394 119.335 52.3805 120.228 52.8373C120.387 52.9205 120.6 52.8682 120.796 52.861C121.87 52.8216 122.944 52.7823 124.019 52.7429C124.351 52.7307 124.663 52.697 124.995 52.7071C125.25 52.72 125.608 52.9294 125.761 52.8126C126.086 52.5558 126.384 52.723 126.695 52.6448C127.199 52.4928 127.659 52.8543 128.163 52.7245C128.26 52.6987 128.401 52.8271 128.573 52.7095C128.746 52.5919 128.999 52.5381 129.195 52.5754C130.335 52.7784 131.587 52.7771 132.675 52.5369C132.85 52.5082 133.049 52.6344 133.244 52.6273C133.889 52.6259 134.553 52.5793 135.198 52.5557C135.412 52.5478 135.644 52.4503 135.827 52.6884C135.888 52.7752 136.104 52.7895 136.18 52.7422C136.678 52.3457 137.23 52.5035 137.757 52.4841C139.026 52.4154 140.296 52.3688 141.566 52.3445C141.878 52.3331 142.206 52.1653 142.489 52.4887C142.529 52.5317 142.665 52.5045 142.743 52.4794C143.514 52.0951 144.301 52.2665 145.103 52.2816C145.142 52.2802 145.203 52.367 145.244 52.41C145.685 52.1268 146.082 51.6449 146.663 52.1354C146.783 52.2423 147.035 52.1441 147.23 52.1369C149.027 52.071 150.805 52.0059 152.602 51.94C152.973 51.9264 153.341 51.8017 153.681 52.0785C154.058 51.5973 154.423 52.0513 154.796 52.0821C155.187 52.09 155.578 52.0757 155.968 52.0392C156.201 52.0084 156.433 51.9108 156.763 51.8097C156.924 51.9819 157.166 52.24 157.368 52.4552C157.621 52.4236 157.917 52.5241 157.846 52.0816C158.094 51.8722 158.31 51.9088 158.513 52.1684C158.676 51.7174 158.961 52.1075 159.194 52.0544C159.369 52.0258 159.639 51.8823 159.74 51.9899C160.021 52.2467 160.309 52.0581 160.584 52.0925C160.819 52.1284 161.108 51.9843 161.293 52.2891C161.406 52.1514 161.52 52.0137 161.671 51.8301C161.925 51.8208 162.199 51.833 162.491 51.8C163.407 51.6775 164.303 51.5556 165.237 51.4101C165.252 51.2315 165.285 51.03 165.314 50.6729C165.482 51.0673 165.607 51.3298 165.733 51.6367C166.195 51.3973 166.617 51.0925 167.227 51.2482C167.681 51.3873 168.221 51.145 168.745 50.9922C168.627 50.9743 168.509 50.9341 168.391 50.9162C167.862 50.8688 167.338 51.0216 166.803 50.7741C166.486 50.63 166.043 50.8465 165.672 50.8823C165.671 50.8379 165.668 50.749 165.645 50.6163C165.879 50.5855 166.131 50.5317 166.367 50.5453C167.014 50.6329 167.634 50.4321 168.215 50.2106C168.756 50.0127 169.223 49.9288 169.756 50.0873C169.913 50.126 170.124 49.9848 170.319 49.9554C170.63 49.8995 170.96 49.8206 171.273 49.8092C171.585 49.7977 171.881 49.8759 172.215 49.9304C172.249 49.7511 172.266 49.6615 172.281 49.5052C172.722 49.1775 172.973 49.7691 173.402 49.7311C173.401 49.7089 173.437 49.5741 173.473 49.4615C173.531 49.4371 173.588 49.3905 173.647 49.3883C174.821 49.4343 175.948 49.1927 177.008 48.642C177.201 48.546 177.456 48.5811 177.671 48.5732C178.511 48.5424 179.351 48.5117 180.23 48.4794C180.243 48.2564 180.238 48.0786 180.252 47.9C180.732 47.5931 181.192 47.2647 181.826 46.8632C182.274 46.8022 182.902 46.8905 183.7 46.7277C183.423 46.6266 183.305 46.5864 183.146 46.5255C183.202 46.4122 183.238 46.3218 183.294 46.2308C183.096 46.1268 182.898 46.045 182.759 45.9611C182.546 46.0356 182.352 46.1095 182.043 46.2321C182.213 46.0034 182.269 45.9345 182.325 45.8434C181.984 45.5222 181.762 45.9754 181.411 46.0105C181.386 45.8111 181.361 45.6118 181.336 45.4124C182.25 45.2676 183.107 45.1249 184.002 44.9809C184.097 44.8661 184.21 44.7285 184.323 44.5908C185.197 44.3807 186.071 44.1484 186.925 43.9391C186.461 43.422 185.93 43.3302 185.313 43.6421C185.211 43.4678 185.088 43.2943 184.966 43.0985C185.081 43.0275 185.138 42.9809 185.196 42.9565C186.366 42.8246 187.555 42.7143 188.725 42.6046C189.076 42.5695 189.346 42.4261 189.588 41.9944C189.096 41.9012 188.705 41.871 188.319 42.0632C188.184 42.1349 188.01 42.208 187.873 42.1908C187.166 42.1054 186.478 41.9749 185.634 41.8278C186.319 41.1796 187.022 41.1538 187.704 41.062C187.582 40.2209 186.881 40.3133 186.481 39.9942C186.574 39.8128 186.628 39.655 186.739 39.4284C186.031 39.2763 185.41 39.4548 184.724 39.391C184.776 39.1665 184.889 39.0066 185.064 38.978C185.278 38.9256 185.475 38.9851 185.523 38.6051C185.539 38.471 185.884 38.258 186.062 38.296C186.514 38.3907 186.923 37.6414 187.37 38.2258C187.777 38.0996 188.184 37.9735 188.61 37.8243C188.804 37.7727 188.977 37.6773 189.169 37.559C188.875 37.5253 188.557 37.3589 188.313 37.7239C188.068 37.3546 187.722 37.5675 187.409 37.5345C187.095 37.5015 186.803 37.5567 186.485 37.3681C186.227 37.2218 185.84 37.3695 185.527 37.381C185.215 37.3924 184.883 37.4046 184.512 37.4182C185.188 37.8162 185.208 37.8377 186.089 37.8722C185.823 38.1712 185.525 38.0041 185.292 38.0572C185 38.1124 184.706 38.0787 184.374 38.0908C184.271 37.9166 184.149 37.7208 183.985 37.4598C183.473 37.3228 182.742 37.7501 182.249 36.9225C183.28 36.7512 184.234 36.605 185.207 36.4358C185.224 36.3239 185.241 36.2343 185.257 36.1224C185.86 36.0113 186.482 35.8772 187.085 35.7661C187.174 35.4513 187.263 35.1587 187.352 34.8439C188.39 34.9171 189.341 34.6597 190.292 34.4024C190.35 34.378 190.387 34.3098 190.5 34.1499C190.382 34.1098 190.264 34.0918 190.145 34.0517C190.183 34.0058 190.202 33.9828 190.24 33.9369C190.22 33.9154 190.179 33.8724 190.179 33.8724C190.084 33.9427 189.97 34.0803 189.872 34.0839C188.408 34.1598 186.943 34.1913 185.439 34.2464C185.385 33.7366 184.68 33.6957 184.816 32.9785C185.185 32.876 185.553 32.7735 185.941 32.6702C185.999 32.6459 186.097 32.6423 186.096 32.5978C186.328 31.8327 186.921 32.0335 187.407 31.9489C187.835 31.8887 188.261 31.7396 188.691 31.7016C189.099 31.6421 189.53 31.6708 190.038 31.6522C189.739 31.4406 189.558 31.247 189.244 31.2362C188.579 31.2161 187.902 31.4857 187.265 31.0862C186.77 31.5495 186.285 30.9886 185.761 31.1191C185.236 31.2496 184.647 31.1599 184.101 31.2022C183.301 31.276 182.537 31.215 181.728 30.9331C181.976 30.746 182.206 30.5596 182.378 30.4197C183.133 30.1695 183.908 30.5862 184.577 30.0721C184.966 30.6587 185.318 29.9782 185.69 30.009C186.063 30.0399 186.415 30.0492 186.779 29.7911C186.989 29.6276 187.345 29.7703 187.637 29.7151C187.909 29.6606 188.161 29.5624 188.432 29.4635C188.664 29.3659 188.895 29.2462 189.28 29.054C189.006 29.0196 188.907 29.0009 188.829 29.0038C187.968 28.9686 187.126 28.9105 186.264 28.8753C186.186 28.8782 186.087 28.815 186.008 28.7957C185.889 28.7555 185.771 28.7153 185.671 28.6522C185.491 28.5031 185.349 28.3302 185.188 28.1581C185.721 27.649 186.353 27.8706 186.934 27.6713C186.385 27.6246 185.887 27.3091 185.322 27.3743C184.971 27.4094 184.596 27.2897 184.223 27.2366C184.214 26.9031 184.207 26.6586 184.198 26.3251C184.432 26.3165 184.687 26.3517 184.92 26.2764C185.153 26.2233 185.322 25.9724 185.617 26.0283C185.872 26.0635 186.144 26.009 186.398 25.9997C186.652 25.9904 186.925 25.9803 187.257 25.9682C187.349 25.7423 187.439 25.4942 187.548 25.2009C187.39 25.1399 187.311 25.0983 187.232 25.0789C187.034 24.9972 186.837 24.9154 186.619 24.8344C186.732 24.6745 186.789 24.6056 186.845 24.5145C186.784 24.45 186.744 24.407 186.704 24.3639C186.825 23.8254 187.241 24.0104 187.533 23.9552C187.917 23.6964 187.772 22.7448 188.559 22.894C188.48 22.8746 188.381 22.8337 188.302 22.8144C188.204 22.7957 188.087 22.8222 188.046 22.757C187.925 22.6279 187.851 22.7641 187.772 22.7448C187.126 22.7239 186.498 22.6357 185.851 22.5704C185.772 22.551 185.691 22.4427 185.591 22.3574C186.171 22.1136 186.712 21.8935 187.331 21.6483C187.4 21.3342 187.324 20.7361 187.969 20.7125C187.418 20.5991 186.911 20.64 186.403 20.6586C185.895 20.6772 185.368 20.6965 184.88 20.7144C184.739 20.5638 184.637 20.434 184.475 20.2174C184.686 20.0984 184.822 20.0489 184.937 19.978C184.936 19.9557 184.936 19.9335 184.935 19.889C184.526 19.9485 184.408 19.2407 183.943 19.3913C183.788 19.4415 183.567 19.2493 183.409 19.1883C183.451 18.5859 184.087 18.9632 184.151 18.449C184.15 18.4268 184.999 18.0174 185.038 18.0159C185.39 18.003 185.741 17.9902 186.069 17.8224C184.758 17.8037 183.427 17.7634 182.274 17.7612C181.858 17.5762 181.749 17.1796 181.38 17.2599C181.01 17.3402 180.71 17.0841 180.468 16.826C180.166 16.5033 179.731 16.3412 179.579 15.8126C179.735 15.8069 179.892 15.8012 180.087 15.794C180.108 15.86 180.151 15.9919 180.195 16.1461C180.288 15.9869 180.38 15.8055 180.454 15.647C180.495 15.7123 180.555 15.7546 180.596 15.8199C181.14 15.6887 181.684 15.5575 182.247 15.4255C182.264 15.3359 182.261 15.2248 182.276 15.0684C181.55 14.9838 180.844 14.8984 180.118 14.8137C180.113 14.6581 180.108 14.4803 180.105 14.3469C180.257 14.2078 180.391 14.0916 180.524 13.9754C180.423 13.8679 180.382 13.7804 180.343 13.7818C180.186 13.7653 179.969 13.7065 179.854 13.7997C179.587 14.0098 179.374 14.1066 179.131 13.804C178.274 13.9022 177.464 13.6203 176.657 13.4273C176.125 13.291 175.598 13.3104 175.069 13.2852C174.988 13.1992 174.928 13.1346 174.787 12.984C174.779 12.7173 174.769 12.3616 174.754 11.828C174.545 12.036 174.449 12.1063 174.373 12.1981C174.298 12.2898 174.242 12.3809 174.073 12.6319C174 12.145 173.953 11.8574 173.906 11.5698C173.808 11.5734 173.749 11.5533 173.593 11.5591C173.657 11.757 173.74 11.9097 173.764 12.0646C173.788 12.2418 173.774 12.4203 173.777 12.5315C174.016 12.7007 174.195 12.8054 174.435 12.9747C174.299 13.0242 174.223 13.0937 174.125 13.0973C173.736 13.1561 173.608 12.7825 173.367 12.5687C173.443 12.4769 173.481 12.4311 173.556 12.3393C173.418 12.2776 173.299 12.2152 173.179 12.1528C173.254 12.0166 173.308 11.8588 173.401 11.6774C173.123 11.554 172.902 12.0294 172.637 11.6386C172.515 11.4651 172.052 11.6823 171.832 11.5346C171.613 11.3868 171.408 11.7504 171.263 11.4442C171.058 11.8077 170.739 11.5747 170.488 11.6951C170.424 11.5194 170.381 11.3875 170.339 11.2778C169.964 11.158 169.485 11.5093 169.253 10.917C169.856 10.7836 170.478 10.6718 171.119 10.5148C171.165 10.7357 171.19 10.9572 171.26 11.3553C171.388 11.039 171.461 10.8583 171.535 10.6998C172.014 11.0383 172.385 11.0247 172.769 10.7881C172.923 10.6935 173.139 10.7078 173.314 10.6791C173.365 10.4102 173.416 10.1413 173.468 9.91685C172.994 9.75619 172.539 9.55035 172.067 9.47861C171.596 9.40687 171.109 9.447 170.639 9.44195C170.365 9.42974 170.11 9.39459 169.757 9.36301C169.739 9.40819 169.645 9.54516 169.552 9.72658C169.807 9.73951 170.061 9.7302 170.295 9.72161C170.424 10.1175 170.313 10.3663 170.027 10.5993C169.882 10.3376 169.719 10.0765 169.533 9.74953C169.37 9.51072 169.208 9.29414 169.005 9.03453C168.774 9.1765 168.562 9.29554 168.332 9.43751C168.424 9.94595 168.616 9.80541 168.88 9.46193C168.906 9.70575 168.932 9.90511 168.979 10.2149C168.743 10.1346 168.604 10.0729 168.446 10.0119C168.33 10.0829 168.215 10.1539 168.023 10.2722C168.012 9.87207 168.002 9.5386 167.993 9.22738C167.697 9.10473 167.395 8.82647 167.222 8.92184C166.875 9.09034 166.601 9.07813 166.303 8.91102C166.082 9.38645 165.836 8.99489 165.58 8.93751C165.187 8.86291 164.794 8.7883 164.382 8.75888C163.971 8.72945 163.543 8.78966 163.113 8.80541C163.07 8.67346 163.027 8.54151 162.963 8.36581C162.887 8.43537 162.83 8.48198 162.773 8.55082C162.239 8.32561 162.536 7.75839 162.365 7.25282C162.153 7.34962 161.959 7.42346 161.747 7.52026C161.506 6.61668 161.506 6.61668 160.845 6.75218C160.886 6.79521 160.927 6.86046 161.047 6.98955C160.892 7.01751 160.717 7.04619 160.561 7.07415C160.622 7.13869 160.702 7.20252 160.762 7.26706C160.514 7.49868 160.161 7.44487 159.789 7.41401ZM71.8347 50.7612C71.744 51.0093 71.7087 51.1442 71.6343 51.2804C71.4863 51.5751 71.3174 51.8261 71.0483 51.9917C71.0099 52.0154 70.9494 51.9509 70.8707 51.9315C70.8662 51.7759 70.8612 51.598 70.8574 51.4647C70.5468 51.5428 70.2746 51.5973 69.9445 51.6761C69.93 51.1648 69.918 50.7425 69.9017 50.1645C70.027 50.4492 70.0894 50.5804 70.1518 50.7116C70.3427 50.5489 70.5336 50.3861 70.7239 50.2011C70.8279 50.4198 70.8903 50.5511 70.9533 50.7045C71.2935 50.2915 71.5714 50.4371 71.6426 50.8795C72.1504 50.8609 72.4629 50.8495 72.7364 50.8394C72.691 50.6186 72.6665 50.4414 72.6217 50.2428C72.6608 50.2414 72.6797 50.2184 72.7188 50.217C72.9027 50.4995 73.0672 50.7828 73.2511 51.0654C73.8485 50.7542 73.9071 50.752 74.4628 51.0432C74.6146 50.8819 74.7659 50.6983 74.9744 50.4681C75.1067 50.9974 75.699 50.5083 75.757 51.1738C75.4841 51.2061 75.2119 51.2605 75.0173 51.2899C74.9637 51.4699 74.9278 51.5825 74.8918 51.6951C74.8156 51.7646 74.7387 51.812 74.643 51.8822C74.5976 51.6614 74.5333 51.4634 74.488 51.2426C74.3746 51.3802 74.3178 51.4491 74.2422 51.5409C74.12 51.3673 74.018 51.2153 73.9165 51.0855C73.3412 51.4849 72.7483 51.2618 72.1832 51.327C72.1252 51.3514 71.9822 51.1341 71.8347 50.7612ZM134.341 52.0085C134.162 51.9038 134.003 51.7983 133.784 51.6728C134.148 51.3925 134.292 51.6542 134.004 51.8206C133.832 51.9826 133.699 52.121 133.624 52.2128C133.289 52.1361 132.951 51.9482 132.837 52.0414C132.552 52.3411 132.236 52.2192 131.924 52.2751C131.769 52.3031 131.532 52.2227 131.456 52.3145C131.115 52.7053 130.758 52.5181 130.425 52.5081C130.173 51.8942 130.837 51.8699 130.824 51.403C131.228 51.8555 131.476 51.6462 131.756 51.1686C131.519 51.0882 131.322 51.0287 131.124 50.9469C130.867 50.8451 130.648 50.7196 130.772 50.2477C131.166 50.3446 131.54 50.4421 131.816 50.521C131.941 50.7835 132.024 50.9585 132.108 51.1557C132.052 51.269 131.997 51.3823 131.922 51.5185C132.571 51.6283 133.218 51.7158 134.341 52.0085ZM134.887 11.1752C135.057 10.9687 135.246 10.7392 135.416 10.5105C135.835 10.8067 136.225 10.7924 136.55 10.5134C137.063 10.6727 137.517 10.834 138.05 11.0148C137.936 11.1302 137.821 11.2012 137.746 11.3152C137.632 11.4529 137.559 11.6336 137.504 11.7469C136.599 11.5575 135.733 11.3667 134.413 10.3025C134.579 10.6746 134.706 11.0038 134.809 11.2003C134.717 11.404 134.663 11.5617 134.608 11.6973C134.213 11.5337 133.915 11.3889 133.599 11.2669C133.322 11.1658 133.135 11.462 132.902 11.4928C132.687 11.5229 132.449 11.3759 132.213 11.34C132.154 11.3421 132.099 11.4554 132.004 11.5479C131.958 11.3048 131.932 11.0832 131.886 10.8401C131.535 11.5651 131.497 11.611 131.085 11.5594C130.653 11.4862 130.238 11.3456 129.805 11.228C129.791 11.451 129.796 11.6288 129.8 11.74C129.679 11.6109 129.538 11.4603 129.457 11.3742C128.852 11.4187 128.363 11.4143 127.917 11.542C127.742 11.5929 127.649 11.7298 127.429 11.5599C127.068 11.2615 126.535 11.7706 126.17 11.2944C125.948 11.7476 125.407 11.3001 125.204 11.7304C125.122 11.5776 125.057 11.3575 124.959 11.3388C124.604 11.2406 124.519 10.9989 124.509 10.6432C124.505 10.4876 124.363 10.3148 124.359 10.1814C124.375 10.0473 124.508 9.90888 124.545 9.84076C124.821 9.94189 125.058 9.99999 125.256 10.0817C125.278 10.1922 125.301 10.3026 125.324 10.4353C125.519 10.4059 125.694 10.3772 125.831 10.3722C125.865 10.1929 125.881 10.0811 125.88 10.0366C126.136 10.1162 126.353 10.175 126.589 10.2331C126.634 10.4318 126.659 10.6311 126.705 10.852C126.894 10.6448 127.046 10.4612 127.159 10.3235C127.397 10.4261 127.555 10.5093 127.714 10.5925C127.787 10.3895 127.823 10.277 127.858 10.1644C128.041 10.3802 128.242 10.5954 128.424 10.789C128.943 10.4807 129.39 10.3975 129.514 10.6155C129.614 10.7231 129.735 10.83 129.876 10.9806C129.948 10.7554 129.983 10.6206 130.037 10.4406C131.019 10.6049 132.041 10.1001 133.052 10.5749C133.15 10.6158 133.345 10.5864 133.421 10.5168C133.726 10.2164 134.084 10.448 134.887 11.1752ZM20.3181 48.8664C19.8512 48.9502 19.4593 48.9201 19.1512 49.0872C18.8235 49.255 18.5268 49.1323 18.2325 49.0986C17.8602 49.0677 17.5054 48.9695 17.1519 48.9157C17.0788 49.0964 17.024 49.2319 16.9516 49.4348C16.8123 49.3509 16.6737 49.2892 16.4551 49.1637C16.3813 49.3222 16.2893 49.5259 16.2339 49.6392C15.8798 49.5631 15.6429 49.4828 15.4072 49.4469C15.1325 49.4125 14.7576 49.2927 14.7507 49.0482C14.74 48.6703 14.0431 48.9183 14.3613 48.4171C14.7325 48.4035 15.1036 48.3899 15.4552 48.377C15.4791 48.5319 15.5018 48.6423 15.5465 48.841C15.6372 48.5929 15.6921 48.4573 15.7652 48.2766C16.2377 48.3928 16.7298 48.5083 17.2024 48.6245C17.278 48.5327 17.3536 48.4409 17.4103 48.3721C17.3492 48.2853 17.2881 48.1985 17.1444 47.959C17.4607 48.0809 17.5993 48.1426 17.7575 48.2036C17.7928 48.0688 17.8281 47.934 17.8634 47.7991C17.9617 47.8178 18.0593 47.8142 18.2168 47.853C18.1664 48.1441 18.1147 48.3908 18.0662 48.7486C18.5961 48.8182 19.1449 48.8649 19.7139 48.933C19.8626 48.6605 19.9539 48.4346 20.0844 48.2073C20.4511 48.0381 20.6363 48.3651 20.8783 48.6233C21.3452 47.8496 22.141 48.3322 22.7162 47.9328C22.72 48.0662 22.7219 48.1329 22.7244 48.2218C22.9815 48.3237 23.2398 47.7801 23.5479 48.3029C23.4144 48.4191 23.2814 48.5575 23.0533 48.7884C23.4616 48.7066 23.7376 48.7855 24.0432 48.5295C24.3481 48.2513 24.735 48.1036 25.0816 47.9129C25.1975 47.8641 25.3513 47.7695 25.4306 47.8111C25.8698 48.1288 26.3531 47.933 26.7847 47.984C26.8483 48.1597 26.8911 48.2916 26.9768 48.5555C27.1255 48.283 27.2182 48.1016 27.2742 48.0105C27.6454 47.9969 27.9188 47.9869 28.2313 47.9755C28.2162 48.1318 28.1998 48.2437 28.1847 48.4C27.9875 48.3405 27.8489 48.2788 27.6907 48.2178C27.6554 48.3526 27.6201 48.4875 27.5842 48.6C26.9611 48.6896 26.3329 48.6014 25.6524 48.7376C25.7734 48.8667 25.8338 48.9312 25.9347 49.0388C25.7217 49.1134 25.5119 49.2991 25.3543 49.2604C24.6833 49.0402 24.0047 49.2431 23.34 49.2452C22.9877 49.2358 22.5782 49.2731 22.1831 49.1318C22.1044 49.1124 22.0048 49.0493 21.9267 49.0522C21.7522 49.1031 21.5997 49.2422 21.4245 49.2709C21.2884 49.2981 21.1278 49.1482 20.991 49.1533C20.8348 49.159 20.6816 49.2759 20.5273 49.3483C20.4025 49.0858 20.3597 48.9539 20.3181 48.8664ZM33.3507 9.15543C33.8976 9.13539 34.5081 9.29104 34.9706 9.05155C35.9725 8.52525 37.0858 9.17431 38.0259 8.539C38.5066 8.9442 38.9691 8.70471 39.4322 8.48745C39.5098 8.46235 39.6471 8.47958 39.707 8.52189C40.0692 8.88692 40.5462 8.46887 40.9054 8.72275C41.3042 8.99743 41.7289 8.80383 42.1202 8.81175C42.2569 8.80674 42.3898 8.66834 42.5045 8.57512C42.703 8.67912 42.9015 8.7831 43.0602 8.8663C43.0678 9.13307 43.0747 9.37761 43.0841 9.71107C42.8636 9.51887 42.7225 9.36826 42.5417 9.19686C42.047 9.68232 41.514 9.50157 40.9828 9.38752C40.9664 9.49939 40.9494 9.58903 40.933 9.7009C40.5727 9.40256 40.1234 9.41902 39.8544 9.58466C39.4322 9.86718 39.092 9.59035 38.7202 9.58172C38.4071 9.57094 38.1481 9.40241 37.8015 9.59314C37.513 9.7595 37.099 9.64114 36.7474 9.65403C36.4154 9.6662 36.0669 9.79025 35.7702 9.6676C35.4142 9.52487 35.1816 10.29 34.8345 9.76865C34.59 10.1114 34.3871 9.85181 34.1307 9.7722C33.8156 9.69473 33.4855 9.77359 33.1534 9.78576C33.0167 9.79077 32.8787 9.75133 32.6235 9.71617C32.8296 9.39707 32.9802 9.19127 33.1862 8.87216C32.6809 8.9797 32.3652 8.88001 32.3086 8.25898C32.9979 8.434 33.5662 7.79006 34.0797 7.97152C34.3418 8.25121 34.4836 8.42404 34.6247 8.57465C34.4319 8.67073 34.1654 8.92528 34.0658 8.86217C33.7269 8.62981 33.5813 9.01346 33.3507 9.15543ZM36.4714 51.7236C35.9245 51.7437 35.4361 51.7616 34.9478 51.7795C34.9441 51.6461 34.9409 51.5349 34.9359 51.3571C35.3291 51.4317 35.7021 51.4848 36.0757 51.5601C36.0744 51.5156 36.0933 51.4927 36.0921 51.4482C35.9535 51.3865 35.8344 51.3241 35.7355 51.2833C35.7298 51.0832 35.7248 50.9053 35.7197 50.7275C35.9749 50.7626 36.2729 50.9298 36.4065 50.8136C36.7121 50.5576 36.8835 51.0854 37.1714 50.8968C37.3252 50.8022 37.603 50.9478 37.8192 50.9843C37.8355 50.8725 37.8526 50.7828 37.8696 50.6932C38.1323 50.9951 38.395 51.297 38.6773 51.5982C39.0056 51.4527 39.2173 51.3337 39.4498 51.2584C39.7207 51.1594 40.0395 51.3703 40.2651 51.0505C40.3029 51.0046 40.4806 51.0648 40.5795 51.1057C40.9362 51.2707 41.3312 51.412 41.65 51.6228C42.0281 51.8537 42.3746 51.663 42.7275 51.6946C42.7438 51.5827 42.7609 51.4931 42.7936 51.2693C42.8982 51.5103 42.9606 51.6415 43.0437 51.8165C43.258 51.7864 43.4917 51.7556 43.9007 51.6961C43.6045 51.5957 43.4861 51.5555 43.3279 51.4945C43.3424 51.316 43.3368 51.1159 43.3664 50.781C43.6443 50.9266 43.844 51.0751 44.0399 51.0901C44.2359 51.1052 44.4268 50.9424 44.6965 50.799C44.687 51.1554 44.6757 51.4451 44.6706 51.9572C44.5427 51.5835 44.4999 51.4516 44.4369 51.2981C44.3682 51.6344 43.7942 51.3884 43.9662 51.9385C44.5408 52.2067 44.9989 51.8116 45.5622 51.6797C45.3933 51.9307 45.2244 52.1817 45.0556 52.4326C44.721 52.3559 44.3373 52.6147 44.0336 52.2476C44.0128 52.2038 43.8584 52.2762 43.7816 52.3236C43.3997 52.6491 43.1029 52.5265 42.7615 52.2052C42.5806 52.0338 42.2417 51.8014 42.1616 52.4274C42.1458 52.5615 41.8352 52.6397 41.643 52.758C41.5189 52.5178 41.3961 52.322 41.3135 52.1692C41.1377 52.1757 40.9815 52.1814 40.8447 52.1864C40.8101 52.3435 40.7943 52.4776 40.759 52.6124C40.6179 52.4618 40.5171 52.3542 40.4365 52.2681C40.4925 52.1771 40.5492 52.1082 40.7383 51.8788C40.3709 52.0258 40.158 52.1003 39.9652 52.1964C39.824 52.0458 39.6835 51.9174 39.5424 51.7668C39.3565 52.1074 39.0793 51.9841 38.826 52.0156C38.3377 52.0335 37.8487 52.0292 37.3799 52.0464C37.3604 52.0471 37.3396 52.0033 37.2993 51.9603C37.3163 51.8707 37.3327 51.7588 37.3302 51.6699C37.5242 51.6183 37.6994 51.5896 37.8739 51.5387C37.4222 51.4662 37.0171 50.9692 36.5174 51.2768C36.4997 51.3443 36.4852 51.5228 36.4714 51.7236ZM5.78574 39.0288C5.59671 39.2583 5.57843 39.3035 5.5589 39.3042C5.42091 39.2647 5.24449 39.2489 5.16322 39.1406C4.91939 38.8158 4.48716 38.7426 4.29435 38.8387C3.92763 39.0079 3.63087 38.8853 3.28117 38.9648C3.26796 38.498 3.11739 38.0139 3.26799 37.8081C3.54966 37.3972 2.93471 37.086 3.31593 36.7382C3.90883 36.9613 4.54079 37.1829 5.19228 37.4038C5.20423 37.8262 5.21556 38.2263 5.23065 38.7599C5.36927 38.8215 5.54758 38.904 5.78574 39.0288ZM7.18576 39.4448C6.74787 39.1716 6.40953 38.9614 6.09134 38.7728C5.98676 38.5319 5.94078 38.2888 5.81855 38.1152C5.69695 37.9639 5.51801 37.8592 5.33844 37.7322C5.45312 37.639 5.4903 37.5709 5.54827 37.5465C5.60624 37.5221 5.68437 37.5193 5.7436 37.5394C5.92065 37.5774 6.10021 37.7043 6.25647 37.6986C6.4518 37.6914 6.77756 37.457 6.81852 37.5222C7.00374 37.8492 7.26588 37.4391 7.50719 37.675C7.68927 37.8909 8.05976 37.855 8.39496 37.954C8.29981 38.0465 8.24247 38.0931 8.1845 38.1175C8.10763 38.1648 8.03013 38.1899 7.91419 38.2387C8.38989 38.466 8.43211 38.5758 8.29978 38.7364C8.0635 38.6783 7.86629 38.6187 7.70814 38.5578C7.52225 38.8984 7.33448 39.1723 7.18576 39.4448ZM49.4838 52.07C48.4857 52.7297 47.4915 52.1431 46.4581 52.2477C46.4915 52.0462 46.5086 51.9566 46.5445 51.844C46.9156 51.8304 47.2855 51.7723 47.6188 51.8046C47.9911 51.8355 48.3938 51.5537 48.7183 51.9646C49.0201 51.5752 49.2998 51.7875 49.6168 51.9317C49.7554 51.9933 49.9904 52.007 50.0855 51.9145C50.4271 51.5459 50.9431 51.8163 51.2808 51.3143C51.33 51.6686 51.3747 51.8672 51.3999 52.0666C51.5379 52.106 51.6563 52.1462 51.5776 52.1268C51.5051 52.3298 51.3961 52.6231 51.2505 53.0067C50.9657 52.6166 50.7824 52.3563 50.5997 52.1182C50.5039 52.1884 50.4655 52.2121 50.4081 52.2587C50.4692 52.3455 50.5297 52.41 50.6104 52.4961C50.4573 52.613 50.3243 52.7514 50.1334 52.9141C49.8908 52.6337 49.7075 52.3734 49.4838 52.07ZM32.6772 48.2353C32.2273 48.2296 31.8631 48.4877 31.4258 48.2367C31.0686 48.0495 30.5822 48.1341 30.16 48.4166C30.0069 48.5335 29.8034 48.9415 29.5186 48.5514C29.4575 48.4646 29.2262 48.5844 29.029 48.5248C28.7921 48.4445 28.5382 48.4538 28.3712 48.0816C29.6995 47.3431 31.0711 48.1384 32.3748 47.9126C32.4756 48.0202 32.5764 48.1278 32.6772 48.2353ZM146.554 51.7389C146.375 51.6341 146.255 51.5273 146.157 51.5309C145.942 51.5387 145.745 51.4792 145.536 51.6872C145.441 51.7797 145.176 51.411 144.931 51.7316C144.799 51.9144 144.147 51.6491 144.044 51.4748C144.138 51.3601 144.214 51.2683 144.214 51.2683C144.656 51.0073 145.034 51.216 145.419 51.0238C145.709 50.8797 146.145 51.0863 146.538 51.1609C146.542 51.3165 146.547 51.4943 146.554 51.7389ZM125.672 51.0578C125.073 50.6346 124.472 50.7902 123.768 50.7938C124.036 50.5837 124.187 50.4001 124.361 50.3492C124.555 50.2753 124.791 50.3112 124.986 50.304C125.019 50.1025 125.036 50.0129 125.051 49.8566C125.247 49.8716 125.423 49.8652 125.678 49.8781C125.567 50.1269 125.493 50.2632 125.457 50.3535C125.542 50.5952 125.607 50.8376 125.672 51.0578ZM20.0472 47.5856C20.7908 46.913 21.4467 47.2895 22.1171 47.4875C21.2078 47.8323 21.2078 47.8323 20.0472 47.5856ZM69.3686 50.6736C69.1569 50.7926 69.041 50.8414 68.9445 50.8894C68.9458 50.9339 68.9666 50.9776 68.9679 51.0221C69.2022 51.0135 69.4562 51.0042 69.7296 50.9942C69.7176 51.2616 69.7038 51.4624 69.6741 51.7973C69.3742 51.5635 69.194 51.4144 68.9143 51.2021C68.6994 51.2099 68.426 51.22 68.0939 51.2321C68.4367 50.908 68.7221 50.6305 68.9131 50.4677C69.1103 50.5273 69.2294 50.5897 69.3686 50.6736ZM123.168 11.627C123.649 11.3646 123.406 11.0397 123.477 10.7923C123.584 10.4323 123.595 10.1204 124.022 10.0379C124.05 10.3262 123.706 10.6059 124.085 10.859C124.184 10.9221 124.118 11.3252 124.125 11.5919C123.852 11.6019 123.637 11.6098 123.168 11.627ZM133.59 49.6326C133.2 50.3813 132.672 49.6885 132.289 49.9474C132.282 49.7028 132.277 49.5472 132.271 49.3249C132.743 49.4411 133.222 49.0897 133.59 49.6326ZM138.005 10.104C137.89 10.1972 137.756 10.3134 137.623 10.4296C137.386 10.3492 137.109 10.2481 136.833 10.1692C136.828 9.99137 136.823 9.81353 136.818 9.61346C137.178 9.9118 137.723 9.13519 138.005 10.104ZM97.1767 49.4318C98.4016 49.1866 98.4016 49.1866 98.7078 49.6427C98.3385 49.723 97.9504 49.8262 97.5037 49.9316C97.4224 49.8233 97.3197 49.6491 97.1767 49.4318ZM140.328 9.97437C139.998 10.7431 139.92 10.7682 139.317 10.1894C139.408 9.96356 139.519 9.71473 139.609 9.46661C139.85 9.6581 140.089 9.82735 140.328 9.97437ZM46.6529 9.37998C46.4154 9.96728 46.2251 10.1523 45.8496 10.0103C45.6126 9.92994 45.3739 9.78292 45.5201 9.4215C45.8912 9.4079 46.2623 9.3943 46.6529 9.37998ZM139.483 11.8969C139.323 11.7693 139.144 11.6645 138.964 11.5154C138.883 11.4293 138.821 11.2981 138.698 11.1023C139.108 11.0873 139.381 11.0772 139.694 11.0658C139.776 11.2185 139.879 11.3928 139.982 11.5671C139.809 11.6847 139.636 11.8023 139.483 11.8969ZM71.262 9.10107C70.8506 9.07164 70.4284 9.35416 70.0807 8.81056C70.1752 8.69583 70.2508 8.60404 70.3642 8.46636C70.6383 8.47857 70.9319 8.49007 71.2444 8.47861C71.2507 8.70092 71.2545 8.8343 71.262 9.10107ZM48.4657 49.9488C48.7038 50.0735 48.9219 50.1768 49.2394 50.3432C48.9282 50.3991 48.7536 50.45 48.5784 50.4787C48.7397 50.6508 48.8802 50.7792 49.0415 50.9513C48.8109 51.0933 48.6376 51.1887 48.4839 51.2833C47.8847 50.8379 48.3617 50.4199 48.4657 49.9488ZM33.9404 50.726C34.4722 50.8622 35.0279 50.4636 35.5546 51.1119C34.9687 51.1333 34.4608 51.1519 33.953 51.1706C33.9486 51.0149 33.946 50.926 33.9404 50.726ZM3.0003 35.9486C3.13388 35.8325 3.26557 35.6496 3.42121 35.6217C3.67387 35.5679 3.92779 35.5586 4.18297 35.5937C4.26173 35.6131 4.3449 35.7881 4.40664 35.8971C4.11743 36.0412 3.90823 36.2492 3.69274 36.2348C3.47851 36.2649 3.25799 36.0727 3.0003 35.9486ZM141.776 52.1588C141.633 51.9637 141.531 51.8117 141.449 51.6812C141.581 51.4983 141.694 51.3606 141.732 51.3148C142.103 51.3011 142.377 51.2911 142.709 51.2789C142.365 51.5808 142.08 51.8583 141.776 52.1588ZM171.95 10.1505C171.8 10.3786 171.669 10.5837 171.537 10.7665C171.394 10.5492 171.207 10.1777 171.149 10.1799C170.898 10.3004 170.74 10.2616 170.552 9.82345C171.067 10.0494 171.562 9.58615 171.95 10.1505ZM82.7949 51.8282C82.6349 51.7006 82.5347 51.6152 82.4553 51.5736C82.5467 51.3478 82.6198 51.167 82.7118 50.9634C82.829 50.9591 82.9664 50.9763 83.0829 50.9498C83.18 50.924 83.2354 50.8107 83.3495 50.6952C83.4742 50.9577 83.5379 51.1334 83.6418 51.3521C83.3104 51.3865 83.0571 51.4181 82.8429 51.4482C82.8277 51.6045 82.8113 51.7164 82.7949 51.8282ZM47.8104 50.2843C47.8948 50.5038 47.9584 50.6795 48.0435 50.9211C47.3914 50.678 47.3914 50.678 47.4828 49.7622C47.7209 49.887 47.9389 49.9903 48.2565 50.1567C48.0429 50.209 47.9654 50.2341 47.8104 50.2843ZM48.3882 9.89497C47.9389 9.91143 47.5092 9.92719 47.0404 9.94437C47.3152 9.28894 47.8123 9.58227 48.201 9.50126C48.2401 9.49983 48.3195 9.54143 48.3794 9.58374C48.3819 9.67266 48.3844 9.76158 48.3882 9.89497ZM130.284 50.9555C129.991 50.9662 129.678 50.9777 129.346 50.9899C129.359 50.7446 129.353 50.5445 129.366 50.3215C129.742 50.4635 130.038 50.5639 130.334 50.6644C130.299 50.7992 130.301 50.8659 130.284 50.9555ZM30.9966 51.0341C30.9929 50.9007 30.9702 50.7903 30.9891 50.7674C31.4856 50.3486 31.8945 50.979 32.3639 50.984C31.9342 50.9998 31.5045 51.0155 30.9966 51.0341ZM138.326 9.71394C138.666 9.96853 139.114 9.92984 139.15 10.5071C138.489 10.6426 138.468 10.5989 138.326 9.71394ZM5.65808 33.8261C5.17354 33.9774 5.00281 33.4718 4.64367 33.218C5.25991 32.8838 5.41299 33.4568 5.65808 33.8261ZM78.0499 9.89819C77.7071 9.53244 77.4853 9.29578 77.2428 9.01538C77.9806 8.83255 78.0613 8.91861 78.0499 9.89819ZM78.5703 51.7828C77.9585 51.5827 77.9585 51.5827 77.9925 50.7135C78.0707 50.7107 78.1683 50.7071 78.2465 50.7042C78.334 51.0348 78.4405 51.3425 78.5703 51.7828ZM19.6753 52.406C19.2033 52.312 18.7705 52.2166 18.3376 52.1212C18.3364 52.0768 18.3357 52.0545 18.354 52.0094C18.7837 51.9936 19.2134 51.9779 19.6627 51.9614C19.6671 52.117 19.6696 52.2059 19.6753 52.406ZM128.189 50.1866C128.187 50.1199 128.186 50.0755 128.184 50.0088C128.477 49.998 128.79 49.9866 129.083 49.9758C129.093 50.3538 129.103 50.7095 129.114 51.0651C128.976 51.0479 128.878 51.0293 128.838 51.0085C128.889 50.7396 128.921 50.4936 128.989 50.135C128.658 50.1694 128.424 50.178 128.189 50.1866ZM76.3404 51.0634C76.67 50.9623 76.9611 50.8849 77.2906 50.7838C77.3511 50.8483 77.4324 50.9566 77.513 51.0427C77.3404 51.1603 77.1866 51.2549 77.0133 51.3503C76.973 51.3073 76.893 51.2434 76.8325 51.1789C76.7758 51.2477 76.6996 51.3173 76.6429 51.3861C76.5616 51.2778 76.4614 51.1925 76.3404 51.0634ZM123.112 52.4868C123.343 52.3449 123.554 52.2258 123.746 52.1075C123.947 52.2782 124.223 52.3793 124.039 52.7866C123.743 52.6862 123.428 52.5865 123.112 52.4868ZM160.789 8.91284C160.881 8.70918 160.956 8.59517 160.992 8.48258C161.027 8.32554 161.042 8.16921 161.075 7.94547C161.532 8.218 161.327 8.58157 161.415 8.91216C161.18 8.89853 161.023 8.90425 160.789 8.91284ZM134.632 49.8614C134.471 50.3792 134.29 50.1856 134.108 49.9697C134.032 50.0615 133.975 50.1303 133.805 50.3146C133.832 49.913 133.827 49.713 133.858 49.4448C134.156 49.6119 134.375 49.7374 134.632 49.8614ZM18.7241 47.8121C18.7864 47.9433 18.9093 48.1391 18.9931 48.3363C19.0145 48.4023 18.959 48.5156 18.9067 48.7401C18.6856 48.5256 18.5249 48.3758 18.2836 48.1398C18.4752 47.9993 18.6094 47.9053 18.7241 47.8121ZM34.8841 52.9835C34.9049 53.0272 34.9251 53.0487 34.9654 53.0918C34.438 53.1111 33.9302 53.1297 33.4028 53.1491C33.4016 53.1046 33.4009 53.0824 33.3997 53.0379C33.888 53.02 34.3958 53.0014 34.8841 52.9835ZM128.814 52.2111C129.067 52.2018 129.302 52.1932 129.556 52.1839C129.56 52.3173 129.562 52.4062 129.566 52.5618C129.313 52.5711 129.078 52.5797 128.824 52.589C128.82 52.4334 128.817 52.3445 128.814 52.2111ZM144.835 50.3999C144.66 50.4286 144.562 50.4321 144.485 50.4795C144.408 50.5268 144.352 50.6179 144.314 50.6638C144.135 50.5591 143.977 50.4759 143.798 50.3711C144.009 50.2299 144.22 50.1109 144.432 49.9918C144.553 50.1209 144.634 50.207 144.835 50.3999ZM45.2271 9.43224C45.2479 9.47599 45.2491 9.52044 45.2699 9.56419C45.0399 9.72839 44.7904 9.89332 44.522 10.0812C44.5144 9.81442 44.51 9.6588 44.5037 9.4365C44.7583 9.44942 44.9927 9.44083 45.2271 9.43224ZM99.4839 51.5058C99.3976 51.9095 99.2879 52.1806 98.8954 52.1282C98.8891 51.9059 98.8835 51.7059 98.8765 51.4613C99.1115 51.475 99.288 51.4907 99.4839 51.5058ZM101.045 52.0717C101.151 51.6895 101.241 51.4192 101.311 51.1273C101.43 51.1897 101.509 51.2091 101.648 51.2707C101.48 51.5662 101.552 52.0309 101.045 52.0717ZM121.535 52.0328C121.122 51.9367 120.883 51.7897 121.006 51.2956C121.34 51.3723 121.578 51.4971 121.535 52.0328ZM99.7548 52.0967C100.288 51.5876 100.462 51.5367 100.645 51.7748C100.628 51.8644 100.611 51.9541 100.595 52.066C100.341 52.0753 100.126 52.0831 99.7548 52.0967ZM124.71 52.2947C124.984 52.3069 125.219 52.3206 125.532 52.3314C125.381 52.5149 125.286 52.6297 125.192 52.7444C125.131 52.6576 125.07 52.5931 125.009 52.5063C124.933 52.5981 124.877 52.6669 124.725 52.8283C124.718 52.5837 124.715 52.4726 124.71 52.2947ZM126.158 52.3529C126.489 51.6064 126.489 51.6064 126.98 51.6774C126.77 51.8409 126.54 52.0274 126.158 52.3529ZM33.6884 50.8019C33.321 50.9489 32.9537 51.0959 32.575 50.8428C32.9656 50.8284 33.3172 50.8156 33.6884 50.8019ZM30.4868 53.0556C30.4849 52.989 30.4837 52.9445 30.5013 52.8771C30.6576 52.8714 30.8145 52.8879 30.9506 52.8606C31.1062 52.8327 31.2599 52.738 31.4345 52.6871C31.4382 52.8205 31.4212 52.9101 31.425 53.0435C31.0923 53.0335 30.7993 53.0442 30.4868 53.0556ZM98.9433 51.0583C98.9024 50.993 98.8419 50.9285 98.801 50.8632C98.9131 50.6811 99.0064 50.5219 99.0996 50.3627C99.2401 50.4911 99.3403 50.5764 99.4808 50.7048C99.2697 50.8461 99.0971 50.9637 98.9433 51.0583ZM13.1529 47.8605C13.3954 48.1409 13.5756 48.2901 13.8195 48.615C13.4862 48.5827 13.3104 48.5891 13.173 48.5719C13.1661 48.3274 13.1611 48.1495 13.1529 47.8605ZM117.218 51.5012C117.228 51.1447 117.24 50.8773 117.247 50.4319C117.434 50.8479 117.539 51.0888 117.664 51.3735C117.529 51.423 117.412 51.4495 117.218 51.5012ZM18.392 47.1344C18.5678 47.128 18.7436 47.1215 18.9389 47.1144C18.9427 47.2478 18.9452 47.3367 18.9496 47.4923C18.7738 47.4987 18.5981 47.5052 18.4027 47.5123C18.3983 47.3567 18.3958 47.2678 18.392 47.1344ZM58.4341 51.8978C58.4725 51.8741 58.5311 51.872 58.5696 51.8483C58.6534 52.0455 58.7365 52.2205 58.8418 52.4837C58.6464 52.4908 58.5683 52.4937 58.4511 52.498C58.4454 52.2979 58.4398 52.0978 58.4341 51.8978ZM136.335 52.0021C136.116 51.8322 135.956 51.7045 135.696 51.5137C136.008 51.5023 136.184 51.4958 136.399 51.488C136.384 51.6443 136.368 51.7784 136.335 52.0021ZM35.5661 48.0627C35.258 48.2298 34.948 48.3301 34.6481 48.0963C34.9606 48.0849 35.2731 48.0734 35.5661 48.0627ZM25.0058 52.1439C25.3139 51.9768 25.6233 51.8542 26.1387 52.1023C25.6113 52.1217 25.2987 52.1331 25.0058 52.1439ZM99.9484 9.18455C99.9893 9.24981 100.011 9.31578 100.051 9.35881C99.8772 9.43195 99.6837 9.5058 99.5098 9.57893C99.4872 9.46849 99.4638 9.33583 99.4405 9.20316C99.6359 9.196 99.7921 9.19028 99.9484 9.18455ZM72.398 10.5504C72.635 9.9409 72.8864 9.84266 73.282 10.0062C73.013 10.1718 72.8013 10.2909 72.398 10.5504ZM137.834 51.7692C137.581 51.7785 137.385 51.7856 137.17 51.7935C137.333 51.3202 137.333 51.3202 137.834 51.7692ZM77.7682 51.7677C77.5533 51.7756 77.3775 51.782 77.065 51.7935C77.3126 51.5619 77.4657 51.445 77.6756 51.2593C77.7014 51.4808 77.7247 51.6135 77.7682 51.7677ZM5.48262 40.0636C5.44545 40.1317 5.40764 40.1776 5.37046 40.2457C5.27154 40.2048 5.15372 40.1869 5.0737 40.1231C4.99431 40.0815 4.93257 39.9725 4.87208 39.9079C4.90989 39.862 4.9477 39.8162 4.96597 39.771C5.14428 39.8535 5.30369 39.9589 5.48262 40.0636ZM143.532 51.36C143.399 51.4762 143.324 51.5902 143.227 51.616C143.169 51.6404 143.106 51.5092 143.027 51.4676C143.083 51.3765 143.139 51.2632 143.215 51.1936C143.273 51.1693 143.374 51.2768 143.532 51.36ZM140.534 51.1361C140.487 51.5384 140.473 51.7392 140.46 51.9622C140.319 51.8116 140.219 51.7263 140.119 51.6409C140.213 51.5262 140.289 51.4344 140.534 51.1361ZM128.039 51.7944C128.098 51.7922 128.156 51.7901 128.215 51.7879C128.203 52.0554 128.191 52.3229 128.199 52.5897C128.16 52.5911 128.12 52.5925 128.081 52.594C128.054 52.3279 128.047 52.0612 128.039 51.7944ZM97.7651 50.879C97.6114 50.9736 97.5168 51.0883 97.4771 51.0675C97.3971 51.0037 97.3354 50.8947 97.2743 50.8079C97.331 50.7391 97.406 50.6251 97.4652 50.6452C97.5446 50.6868 97.6252 50.7728 97.7651 50.879ZM49.5942 8.98287C49.7599 9.3106 49.8424 9.46335 49.8216 9.41961C49.7863 9.55442 49.7523 9.7337 49.7176 9.89075C49.6975 9.86923 49.6578 9.84844 49.6376 9.82692C49.613 9.64979 49.6074 9.44971 49.5942 8.98287ZM78.9433 51.146C79.1109 51.5404 79.1947 51.7377 79.2986 51.9564C79.1619 51.9614 79.0838 51.9643 78.9666 51.9686C78.9603 51.7463 78.9546 51.5462 78.9433 51.146ZM34.8244 51.5614C34.692 51.7221 34.617 51.8361 34.578 51.8375C34.479 51.7966 34.3984 51.7106 34.3373 51.6238C34.3171 51.6023 34.4293 51.4201 34.4684 51.4187C34.566 51.4151 34.6656 51.4782 34.8244 51.5614ZM110.526 51.3236C110.748 51.5603 110.848 51.6456 110.909 51.7324C110.97 51.8192 110.974 51.9526 111.043 52.3061C110.821 52.0694 110.721 51.9841 110.66 51.8973C110.618 51.8098 110.614 51.6764 110.526 51.3236ZM45.1294 50.8944C45.2724 50.4219 45.2724 50.4219 45.7015 50.3839C45.4917 50.5696 45.3587 50.708 45.1294 50.8944ZM74.1307 51.7452C73.977 51.8399 73.8824 51.9546 73.8428 51.9338C73.7627 51.87 73.701 51.761 73.6399 51.6742C73.6966 51.6054 73.7716 51.4914 73.8308 51.5114C73.9102 51.553 73.9908 51.6391 74.1307 51.7452ZM140.176 10.8478C140.235 10.8457 140.294 10.8435 140.352 10.8414C140.34 11.1089 140.328 11.3763 140.336 11.6431C140.297 11.6445 140.258 11.646 140.219 11.6474C140.192 11.3813 140.184 11.1146 140.176 10.8478ZM119.623 51.502C119.706 51.677 119.807 51.7846 119.789 51.8297C119.733 51.9208 119.637 51.9911 119.561 52.0606C119.5 51.9961 119.4 51.9108 119.418 51.8434C119.435 51.7537 119.51 51.6619 119.623 51.502ZM122.15 50.9643C122.233 51.1393 122.334 51.2469 122.316 51.2921C122.259 51.3831 122.164 51.4534 122.087 51.523C122.027 51.4584 121.927 51.3731 121.944 51.3057C121.961 51.216 122.037 51.1242 122.15 50.9643Z" fill="#F2800D"/>
<path d="M112.033 5.75961C111.706 5.97186 111.394 5.29345 111.156 5.85852C110.931 5.53294 110.642 5.67706 110.31 5.667C110.373 5.8427 110.437 6.0184 110.461 6.19553C110.486 6.37266 110.471 6.55122 110.594 6.747C110.63 6.63441 110.647 6.54478 110.72 6.34184C110.837 6.33754 111.012 6.30887 111.187 6.28019C111.208 6.32394 111.209 6.3684 111.23 6.41214C111.115 6.48313 110.999 6.55412 110.693 6.76565C111.259 6.74488 111.65 6.7528 112.021 6.71696C112.547 6.65317 113.001 6.79232 113.403 7.20038C113.504 7.30796 113.681 7.34597 113.82 7.42988C113.763 7.47649 113.726 7.54462 113.669 7.61346C113.771 7.76549 113.854 7.91824 113.976 8.09179C114.128 7.95268 114.224 7.86018 114.3 7.79063C114.439 7.87454 114.578 7.93621 114.816 8.06101C114.765 7.64006 114.392 7.58697 114.401 7.23056C114.651 7.08787 114.92 6.92224 115.247 6.73222C114.879 6.14488 114.551 5.6228 114.224 5.12295C114.187 5.16884 114.11 5.23839 114.035 5.33018C113.992 5.19823 113.949 5.06628 113.906 4.9121C113.632 4.92212 113.359 4.93214 113.027 4.94431C113.012 5.12287 112.979 5.32438 112.946 5.54811C112.79 5.55384 112.633 5.55958 112.438 5.56673C112.413 5.38961 112.368 5.16873 112.342 4.94714C112.245 4.95072 112.147 4.9543 111.991 4.96003C112.018 5.24831 112.026 5.51508 112.033 5.75961Z" fill="#F2800D"/>
<path d="M117.602 5.6445C117.228 5.54695 116.786 5.80794 116.186 5.34035C116.391 5.66665 116.452 5.77566 116.534 5.88395C116.615 5.99224 116.696 6.10052 116.898 6.31567C116.429 6.33285 116.116 6.34431 115.804 6.35576C115.809 6.53361 115.811 6.62253 115.816 6.77815C116.187 6.76455 116.539 6.75166 116.929 6.73734C116.938 7.04857 116.946 7.31534 116.956 7.67103C116.643 7.68248 116.35 7.69322 116.038 7.70468C116.039 7.74914 116.04 7.7936 116.041 7.83806C116.412 7.82446 116.764 7.81157 117.135 7.79797C117.56 7.60437 117.272 7.10309 117.419 6.7639C117.595 6.75746 117.751 6.75173 117.907 6.74601C117.952 6.96688 117.978 7.16624 118.003 7.3656C118.042 7.36417 118.081 7.36274 118.1 7.36202C118.114 7.16123 118.148 6.98195 118.162 6.78116C118.492 6.68006 118.922 6.68654 119.039 6.66002C119.407 6.53526 119.593 6.88451 119.933 7.18357C119.855 6.47434 119.723 5.96732 119.398 5.53416C119.287 5.76077 119.196 5.98666 119.085 6.21326C118.714 6.22686 118.362 6.23975 117.971 6.25407C117.849 6.08052 117.726 5.86251 117.602 5.6445Z" fill="#F2800D"/>
<path d="M25.8547 6.82651C25.7803 6.96276 25.6871 7.12195 25.5573 7.3715C25.8906 7.40379 26.1256 7.41743 26.3808 7.45259C26.4816 7.56016 26.6026 7.68924 26.7639 7.86136C27.055 7.78393 27.4324 7.99263 27.7153 7.6262C27.9144 7.75243 28.1324 7.8557 28.351 7.98121C28.3888 7.93532 28.4651 7.86576 28.5218 7.79692C28.6428 7.92601 28.7637 8.05511 28.8645 8.16268C29.097 8.0874 29.3308 8.05657 29.5224 7.91603C29.6566 7.8221 29.7284 7.59692 29.8399 7.39255C28.4821 7.08626 27.1735 7.13423 25.8547 6.82651Z" fill="#F2800D"/>
<path d="M154.469 7.38644C154.503 7.20717 154.52 7.11753 154.572 6.87084C154.657 7.09028 154.719 7.22152 154.761 7.33124C155.197 7.5378 155.418 7.04013 155.846 6.97992C156.007 7.12981 156.229 7.36647 156.531 7.68919C156.626 7.57446 156.682 7.48338 156.796 7.36794C156.516 7.15565 156.297 7.03015 156.135 6.8358C155.973 6.64145 155.869 6.40049 155.725 6.13873C155.553 6.30079 155.457 6.37106 155.363 6.4858C155.32 6.35384 155.278 6.24412 155.213 6.02396C155.059 6.09638 154.905 6.19104 154.693 6.28784C154.593 6.22472 154.415 6.14224 154.276 6.08056C153.814 6.32005 153.923 6.73885 153.953 7.11606C154.092 7.17774 154.251 7.26093 154.469 7.38644Z" fill="#F2800D"/>
<path d="M159.768 7.3925C159.759 7.05904 159.749 6.70335 159.736 6.25874C159.39 6.44947 159.121 6.61511 158.794 6.80512C158.52 6.81514 158.424 6.19555 158.039 6.38771C157.866 6.48308 157.734 6.66594 157.563 6.85022C157.862 7.06179 158.082 7.23176 158.401 7.44261C158.772 7.42901 159.28 7.4104 159.768 7.3925Z" fill="#F2800D"/>
<path d="M70.9811 6.77473C71.0435 6.90596 71.1065 7.05943 71.1695 7.21289C71.0731 7.26094 70.9578 7.33193 70.7467 7.47319C71.259 7.61019 71.6736 7.75076 72.1663 7.88848C72.6502 7.71497 72.1802 6.99782 72.5425 6.67299C72.2419 6.41696 72.0378 6.80276 71.7839 6.81207C71.5501 6.84289 71.305 6.47356 70.9811 6.77473Z" fill="#F2800D"/>
<path d="M2.90108 15.1673C2.7568 14.9056 2.65411 14.7313 2.57095 14.5563C2.23889 14.5685 1.9459 14.5792 1.57479 14.5928C1.72409 15.0324 1.90806 15.315 2.28233 15.4125C2.75488 15.5287 3.20917 15.6901 3.68172 15.8063C3.78001 15.825 3.89532 15.754 4.10892 15.7017C3.72271 15.1817 3.34907 15.1064 2.90108 15.1673Z" fill="#F2800D"/>
<path d="M63.0293 52.5972C63.4558 52.4703 63.5453 52.1777 63.4779 51.8687C63.2763 51.6535 63.115 51.4814 62.8731 51.2232C62.5857 51.434 62.2417 51.7137 61.8397 52.0177C62.001 52.1898 62.1018 52.2974 62.2228 52.4265C62.4149 52.3082 62.5687 52.2135 62.7413 52.0959C62.8636 52.2695 62.9467 52.4445 63.0293 52.5972Z" fill="#F2800D"/>
<path d="M123.299 7.2605C123.607 7.11566 123.917 6.99305 124.226 6.84822C124.115 6.40718 123.43 6.36555 123.724 5.7094C123.507 5.65059 123.27 5.57026 123.013 5.46841C122.996 5.53582 122.96 5.6484 122.982 5.73661C123.074 6.22282 123.185 6.68608 123.299 7.2605Z" fill="#F2800D"/>
<path d="M154.977 3.89627C153.957 3.08801 153.108 3.49744 152.277 3.83946C153.115 3.74198 153.933 4.31285 154.977 3.89627Z" fill="#F2800D"/>
<path d="M77.2707 5.85433C77.1982 6.05727 77.0892 6.35056 76.9801 6.64385C76.8245 6.67181 76.6884 6.69906 76.5322 6.70479C76.4597 6.90773 76.3866 7.08843 76.3135 7.26914C76.3941 7.3552 76.4949 7.46277 76.5958 7.57034C76.6367 6.94574 77.0835 6.84035 77.5264 6.60158C77.5894 6.75505 77.6518 6.88628 77.7362 7.10573C77.89 7.01108 78.0437 6.91643 78.1968 6.79955C77.8749 6.47754 77.5724 6.15482 77.2707 5.85433Z" fill="#F2800D"/>
<path d="M178.681 51.1176C177.692 50.7088 176.926 51.271 176.068 51.3692C176.818 51.6087 177.267 51.57 178.681 51.1176Z" fill="#F2800D"/>
<path d="M56.1483 8.43108C55.3009 8.1951 54.4332 8.62747 53.5202 8.1491C53.4093 8.3757 53.2795 8.62526 53.2064 8.80596C54.0949 8.41734 55.1389 8.69062 56.1483 8.43108Z" fill="#F2800D"/>
<path d="M104.189 55.3836C103.975 55.4359 103.742 55.5112 103.529 55.5635C103.482 55.2759 103.437 55.0773 103.388 54.7453C103.318 55.0149 103.283 55.1497 103.248 55.3068C103.033 55.3146 102.818 55.3225 102.642 55.329C102.529 55.4666 102.434 55.5814 102.34 55.6961C102.424 55.8933 103.381 55.8582 104.509 55.6389C104.349 55.5112 104.249 55.4481 104.189 55.3836Z" fill="#F2800D"/>
<path d="M100.968 55.5906C100.925 55.4364 100.882 55.3045 100.818 55.1288C100.688 55.3561 100.595 55.5375 100.465 55.7648C100.976 55.8796 101.409 55.975 101.841 56.0482C101.911 55.7341 101.962 55.4652 102.032 55.1733C101.991 55.1303 101.891 55.0227 101.75 54.8721C101.717 55.1181 101.703 55.2966 101.671 55.5426C101.457 55.5727 101.242 55.5806 100.968 55.5906Z" fill="#F2800D"/>
<path d="M68.6574 6.88215C68.6668 7.21561 68.6712 7.37123 68.6763 7.54907C68.9529 7.6502 69.2295 7.75134 69.5458 7.87326C69.6535 7.53551 69.7632 7.26444 69.8898 6.90374C69.4204 6.89869 69.0675 7.55699 68.6574 6.88215Z" fill="#F2800D"/>
<path d="M145.035 5.64042C145.028 5.41811 145.028 4.72824 145.028 4.72824C144.628 4.4091 144.195 4.3137 143.537 4.53811C143.851 4.59335 144.027 4.56468 144.107 4.65074C144.268 4.80062 144.353 5.04229 144.494 5.1929C144.616 5.34422 144.795 5.44893 145.035 5.64042Z" fill="#F2800D"/>
<path d="M47.9649 7.37356C47.9668 7.44026 47.9491 7.50767 47.9535 7.66328C48.6794 7.74794 49.38 7.63325 50.2016 7.64764C50.0196 7.43178 49.9187 7.3242 49.8381 7.23815C49.6642 7.31128 49.5539 7.56011 49.2937 7.34711C49.1734 7.24026 48.8665 7.45178 48.6516 7.45966C48.4374 7.48976 48.22 7.40872 47.9649 7.37356Z" fill="#F2800D"/>
<path d="M53.3311 51.2169C53.6153 51.5848 53.8175 51.8222 53.9801 52.0388C54.1748 52.0094 54.3115 52.0044 54.4677 51.9986C54.5119 51.4852 54.0929 51.189 53.3311 51.2169Z" fill="#F2800D"/>
<path d="M63.994 51.4492C63.8963 51.4528 63.8182 51.4556 63.6033 51.4635C64.1042 51.8902 63.7444 52.304 63.6782 52.7292C63.9908 52.7178 64.2252 52.7092 64.5963 52.6956C64.3928 52.4137 64.251 52.2409 64.1477 52.0444C64.0645 51.8694 64.0387 51.6478 63.994 51.4492Z" fill="#F2800D"/>
<path d="M168.833 7.10476C168.33 7.30122 167.896 6.4715 167.411 7.29041C167.879 7.27323 168.329 7.94663 168.833 7.10476Z" fill="#F2800D"/>
<path d="M154.683 4.57465C154.09 4.35159 153.555 4.77178 153.132 4.3422C153.037 4.45694 152.962 4.54872 152.848 4.6864C153.34 4.77966 153.793 4.89658 154.244 4.9468C154.381 4.94179 154.512 4.7367 154.683 4.57465Z" fill="#F2800D"/>
<path d="M173.326 11.1015C173.526 11.2722 173.726 11.4207 173.907 11.5921C174.118 11.473 174.311 11.377 174.503 11.2586C174.483 11.2149 174.48 11.126 174.441 11.1274C174.086 11.0291 173.732 10.9531 173.377 10.8548C173.379 10.9215 173.362 11.0112 173.326 11.1015Z" fill="#F2800D"/>
<path d="M143.021 7.02719C143.201 7.17636 143.301 7.26171 143.401 7.34705C143.585 6.91751 143.814 7.42094 144.026 7.32414C144.119 7.14271 144.192 6.93977 144.302 6.69094C144.204 6.67229 144.105 6.63141 144.027 6.65651C143.737 6.75617 143.466 6.85511 143.021 7.02719Z" fill="#F2800D"/>
<path d="M121.26 7.06819C121.256 6.93481 121.249 6.69027 121.241 6.40127C121.046 6.40843 120.909 6.41344 120.655 6.42275C120.759 6.66371 120.996 6.74404 121.061 6.94196C121.125 7.16212 121.094 7.43032 121.105 7.83047C121.354 7.62109 121.507 7.50421 121.64 7.38805C121.541 7.34717 121.481 7.28262 121.26 7.06819Z" fill="#F2800D"/>
<path d="M31.429 7.5791C31.0932 7.45789 30.8569 7.39979 30.6005 7.32017C30.5481 7.54463 30.4776 7.81426 30.4076 8.10612C30.4662 8.10397 30.5853 8.16636 30.6433 8.14198C30.8928 7.97706 31.1221 7.79063 31.429 7.5791Z" fill="#F2800D"/>
<path d="M15.2757 60C15.4798 59.6142 15.6286 59.3417 15.7766 59.047C15.6368 58.9408 15.4767 58.8132 15.2373 58.6439C15.2512 59.133 15.2612 59.4887 15.2757 60Z" fill="#F2800D"/>
<path d="M2.63681 47.9789C2.08675 47.8878 1.65452 47.8147 1.10383 47.7013C1.59086 48.3288 2.04199 48.3791 2.63681 47.9789Z" fill="#F2800D"/>
<path d="M9.31538 0C8.81131 0.151998 8.46224 0.253807 8.03567 0.380711C8.07851 0.512663 8.12324 0.711307 8.1623 0.709875C8.61281 0.73787 8.9392 0.525623 9.31538 0Z" fill="#F2800D"/>
<path d="M163.227 6.62037C163.129 6.62395 163.071 6.6261 163.012 6.62825C162.93 7.18759 163.036 7.47301 163.454 7.74697C163.365 7.34969 163.296 6.97391 163.227 6.62037Z" fill="#F2800D"/>
<path d="M1.8211 15.6965C1.67553 16.0801 1.58353 16.2838 1.49216 16.5097C1.74608 16.5004 1.98047 16.4918 2.37112 16.4775C2.16762 16.1956 2.02523 16.0006 1.8211 15.6965Z" fill="#F2800D"/>
<path d="M55.067 51.7541C55.181 51.6387 55.2951 51.5232 55.4085 51.3856C55.3688 51.3648 55.3096 51.3447 55.2497 51.3024C55.0701 51.1754 54.9095 51.0255 54.6902 50.8778C54.6984 51.1668 54.7059 51.4336 54.7154 51.767C54.8326 51.7627 54.9498 51.7584 55.067 51.7541Z" fill="#F2800D"/>
<path d="M53.2015 7.24839C52.6294 7.06907 52.223 6.52762 51.8537 7.29778C52.2444 7.28347 52.635 7.26915 53.2015 7.24839Z" fill="#F2800D"/>
<path d="M0.5 38.7997C0.929716 38.784 1.30084 38.7704 1.84775 38.7503C1.31282 38.5029 0.948023 38.0489 0.5 38.7997Z" fill="#F2800D"/>
<path d="M73.1134 6.11797C72.896 6.03693 72.7378 5.97597 72.5803 5.93723C72.562 5.98241 72.5627 6.00464 72.5444 6.04982C72.7857 6.28576 73.0264 6.49948 73.2872 6.73471C73.3011 6.53392 73.3131 6.26643 73.3257 6.02118C73.1253 5.8505 73.1329 6.11726 73.1134 6.11797Z" fill="#F2800D"/>
<path d="M166.463 7.65895C166.434 7.32621 166.409 7.14908 166.379 6.74964C166.113 7.04867 165.961 7.21001 165.696 7.50903C166.011 7.5865 166.168 7.603 166.463 7.65895Z" fill="#F2800D"/>
<path d="M92.7475 55.9809C92.7513 56.1143 92.7538 56.2032 92.757 56.3144C93.1148 56.5238 93.3247 56.3381 93.5484 55.9516C93.2358 55.963 93.0014 55.9716 92.7475 55.9809Z" fill="#F2800D"/>
<path d="M1.53642 40.186C1.81617 40.3983 2.03668 40.5905 2.33596 40.802C2.32967 40.5797 2.34354 40.3789 2.33725 40.1566C2.0638 40.1666 1.82941 40.1752 1.53642 40.186Z" fill="#F2800D"/>
<path d="M74.8818 10.5707C74.7589 11.0647 74.8843 11.3494 75.336 11.4219C75.6517 10.8317 74.815 10.9737 74.8818 10.5707Z" fill="#F2800D"/>
<path d="M61.7445 53.49C62.057 53.4785 62.2719 53.4706 62.4672 53.4635C62.5428 53.3717 62.5428 53.3717 62.0583 52.8331C61.9663 53.0368 61.8737 53.2182 61.7445 53.49Z" fill="#F2800D"/>
<path d="M105.969 6.36019C106.058 6.04538 106.111 5.84316 106.198 5.46166C105.989 5.69184 105.932 5.76068 105.895 5.80657C105.736 5.72338 105.617 5.66098 105.498 5.59859C105.384 5.73626 105.384 5.73627 105.969 6.36019Z" fill="#F2800D"/>
<path d="M59.8242 7.74001C59.6144 7.92573 59.4424 8.06556 59.1948 8.29717C59.8822 8.4055 59.8822 8.4055 59.8242 7.74001Z" fill="#F2800D"/>
<path d="M60.3239 8.12226C60.5583 8.11367 60.7927 8.10508 61.0466 8.09577C61.0428 7.96239 61.0397 7.85124 61.034 7.65117C60.7643 7.79457 60.5324 7.89208 60.3207 8.01111C60.322 8.05557 60.3226 8.0778 60.3239 8.12226Z" fill="#F2800D"/>
<path d="M4.3452 15.7598C4.65772 15.7483 4.87258 15.7404 5.1265 15.7311C5.04208 15.5117 4.95892 15.3367 4.89466 15.1388C4.7239 15.3231 4.57267 15.5066 4.3452 15.7598Z" fill="#F2800D"/>
<path d="M0.741118 43.1749C0.441178 43.6309 0.441178 43.6309 1.07754 44.0082C0.95154 43.7012 0.867749 43.504 0.741118 43.1749Z" fill="#F2800D"/>
<path d="M65.2875 52.9373C65.2937 53.1596 65.2994 53.3597 65.3057 53.582C65.4235 53.5999 65.5017 53.597 65.639 53.6143C65.6327 53.3919 65.6277 53.2141 65.6208 52.9696C65.5023 52.9294 65.3851 52.9337 65.2875 52.9373Z" fill="#F2800D"/>
<path d="M46.0601 7.77719C46.2523 7.65887 46.406 7.56422 46.5976 7.42368C46.418 7.29674 46.2775 7.16837 46.0381 6.99911C46.0482 7.3548 46.0544 7.57711 46.0601 7.77719Z" fill="#F2800D"/>
<path d="M109.395 7.8814C109.707 7.86995 110 7.85921 110.313 7.84775C109.993 7.61467 109.683 7.71505 109.395 7.8814Z" fill="#F2800D"/>
<path d="M68.4624 53.8891C68.7749 53.8776 69.0679 53.8669 69.5953 53.8476C69.061 53.6223 68.751 53.7227 68.4624 53.8891Z" fill="#F2800D"/>
<path d="M68.5402 7.57632C68.0941 7.70394 67.883 7.84519 67.9378 8.39953C68.089 8.21596 68.1841 8.12346 68.2598 8.03167C68.3347 7.91765 68.4097 7.80364 68.5402 7.57632Z" fill="#F2800D"/>
<path d="M106.483 54.9434C106.224 54.7526 106.083 54.6242 105.863 54.4543C105.831 54.678 105.814 54.7899 105.78 54.9692C105.995 54.9613 106.171 54.9548 106.483 54.9434Z" fill="#F2800D"/>
<path d="M96.7818 5.76228C96.7862 5.9179 96.788 5.98459 96.7918 6.11797C97.0457 6.10867 97.3192 6.09864 97.788 6.08146C97.3337 5.92008 97.0779 5.8627 96.7818 5.76228Z" fill="#F2800D"/>
<path d="M104.645 5.16253C104.511 5.27869 104.358 5.39557 104.128 5.55978C104.307 5.66449 104.426 5.72689 104.546 5.81152C104.6 5.67598 104.673 5.47304 104.746 5.29233C104.725 5.22635 104.685 5.20556 104.645 5.16253Z" fill="#F2800D"/>
<path d="M169.673 7.76384C169.487 7.4146 169.404 7.23962 169.279 6.99937C169.167 7.15928 169.091 7.25107 168.978 7.41098C169.157 7.51569 169.336 7.59817 169.673 7.76384Z" fill="#F2800D"/>
<path d="M56.4237 8.48776C56.658 8.47917 56.8924 8.47058 57.1464 8.46127C57.1451 8.41681 57.1438 8.37235 57.1426 8.32789C56.9076 8.31425 56.6725 8.3006 56.4186 8.30991C56.4199 8.35437 56.4218 8.42107 56.4237 8.48776Z" fill="#F2800D"/>
<path d="M90.3177 6.73358C90.2446 6.91429 90.1892 7.02759 90.1923 7.13874C90.1942 7.20544 90.3536 7.31086 90.3725 7.28792C90.4487 7.21836 90.5244 7.12658 90.5603 7.01399C90.559 6.96953 90.4393 6.8849 90.3177 6.73358Z" fill="#F2800D"/>
<path d="M138.434 4.54713C138.443 4.88059 138.448 5.05844 138.455 5.28074C138.778 4.95734 138.778 4.95734 138.434 4.54713Z" fill="#F2800D"/>
<path d="M3.67405 45.2482C3.778 45.467 3.86117 45.6419 4.00607 45.9259C4.03696 45.6355 4.05083 45.4347 4.08172 45.1443C3.86812 45.1966 3.75155 45.2231 3.67405 45.2482Z" fill="#F2800D"/>
<path d="M146.495 4.74123C146.789 4.75272 146.965 4.76851 147.161 4.78359C147.157 4.62797 147.153 4.49459 147.149 4.33897C146.956 4.45729 146.783 4.55265 146.495 4.74123Z" fill="#F2800D"/>
<path d="M63.3678 7.20956C63.6835 7.30926 63.802 7.34942 63.9009 7.3903C63.9803 7.4319 64.0212 7.49716 64.1214 7.5825C64.1365 7.42617 64.1535 7.33653 64.1687 7.1802C63.9733 7.18736 63.778 7.19452 63.3678 7.20956Z" fill="#F2800D"/>
<path d="M137.851 7.43922C137.983 7.2786 138.078 7.18609 138.077 7.14163C138.035 7.03191 137.954 6.94585 137.874 6.88203C137.854 6.86051 137.702 6.99962 137.703 7.04408C137.706 7.15524 137.768 7.26424 137.851 7.43922Z" fill="#F2800D"/>
<path d="M143.154 6.91103C143.13 6.7339 143.239 6.4406 142.927 6.47429C142.868 6.47644 142.774 6.59117 142.776 6.65786C142.747 7.03722 142.998 6.89452 143.154 6.91103Z" fill="#F2800D"/>
<path d="M79.8816 8.98541C79.8872 9.18549 79.8897 9.27441 79.8935 9.4078C80.0888 9.40064 80.2451 9.39491 80.5576 9.38345C80.2791 9.21563 80.1204 9.13244 79.8816 8.98541Z" fill="#F2800D"/>
<path d="M164.825 7.11814C164.752 7.29885 164.696 7.41216 164.699 7.52331C164.701 7.59 164.861 7.69543 164.88 7.67248C164.956 7.60292 165.031 7.51114 165.067 7.39855C165.066 7.35409 164.946 7.26946 164.825 7.11814Z" fill="#F2800D"/>
<path d="M145.845 3.87492C146.079 3.86633 146.314 3.85775 146.568 3.84844C146.566 3.80398 146.565 3.75951 146.564 3.71505C146.329 3.70141 146.094 3.68777 145.86 3.69636C145.841 3.74154 145.843 3.80823 145.845 3.87492Z" fill="#F2800D"/>
<path d="M8.69071 5.56407C8.53194 5.48087 8.43239 5.41776 8.33472 5.42134C8.27613 5.42349 8.1835 5.60491 8.20366 5.62642C8.26477 5.7132 8.34542 5.79926 8.44434 5.84014C8.48341 5.83871 8.55776 5.70246 8.69071 5.56407Z" fill="#F2800D"/>
</svg>
