<svg width="120" height="50" viewBox="0 0 120 50" fill="none" xmlns="http://www.w3.org/2000/svg">
<path d="M100.603 6.17834C100.655 6.30563 100.695 6.43352 100.76 6.59727C100.64 6.75144 100.52 6.90561 100.387 7.04185C100.462 7.07533 100.537 7.10879 100.624 7.16019C100.344 7.34064 100.207 7.84799 99.832 7.64359C99.7548 7.49896 99.6768 7.31729 99.612 7.17207C99.4532 7.25393 99.331 7.31547 99.1965 7.37761C99.1563 7.23119 99.1293 7.12123 99.1022 7.01127C98.643 6.90367 98.1547 7.16837 97.6426 6.89642C97.598 7.12111 97.5415 7.36492 97.4973 7.60814C97.4193 7.42647 97.329 7.24539 97.2645 7.1187C96.9442 7.15273 97.2056 7.82624 96.8355 7.84414C96.8319 7.67741 96.8287 7.52921 96.824 7.3069C96.7511 7.36606 96.7145 7.38637 96.6779 7.40669C96.6413 7.427 96.6055 7.48437 96.5808 7.48556C96.4686 7.43536 96.2927 7.29551 96.2688 7.33375C96.1626 7.56143 96.0846 7.37975 95.9851 7.34747C95.6496 7.25243 95.2943 7.38088 95.0153 7.61691C94.6997 7.87325 94.4498 7.73698 94.1748 7.58337C94.1251 7.56723 94.1092 7.40111 94.0566 7.25529C93.8593 7.26483 93.6372 7.27557 93.4028 7.28691C93.3324 7.45722 93.2623 7.64605 93.1688 7.89165C92.8696 7.75777 92.6069 7.60357 92.3208 7.50614C92.0347 7.40871 91.7374 7.36745 91.4023 7.29093C91.3892 7.25448 91.3622 7.14451 91.3355 7.05308C90.9272 7.01719 90.9272 7.01719 90.651 7.3829C90.6367 7.29087 90.6224 7.19884 90.5945 7.05183C90.3586 6.98906 90.0872 7.00219 89.8416 7.0697C89.6327 7.11689 89.5296 7.49277 89.3123 7.72582C89.2821 7.46765 89.2538 7.30212 89.2379 7.13598C89.2252 7.11806 89.1997 7.08219 89.1997 7.08219C89.1516 7.14016 89.0799 7.25489 89.0799 7.25489C88.8384 6.93277 88.5726 7.20525 88.2988 7.10722C88.3031 7.311 88.3059 7.44068 88.3107 7.66299C88.1754 7.68808 88.0648 7.71197 87.9295 7.73706C87.9255 7.55181 87.91 7.4042 87.9068 7.25599C87.6569 7.11972 87.4281 6.81553 87.1387 7.14478C87.1149 7.18302 87.0257 7.05752 86.9637 7.04198C86.5801 7.0049 86.2115 7.0969 85.8999 7.5385C85.8343 7.35623 85.7945 7.22834 85.7547 7.10045C85.7066 7.15841 85.6707 7.21578 85.6349 7.27314C85.5418 6.96238 85.3249 7.21396 85.2099 7.03407C85.0567 6.8004 85.0165 7.22888 84.8541 7.144C84.7165 7.05794 84.533 7.14099 84.348 7.14994C84.3515 7.31667 84.3547 7.46487 84.3599 7.7057C84.0869 7.64473 83.8517 7.61901 83.6157 7.55624C83.4665 7.50783 83.3252 7.25503 83.168 7.411C83.0228 7.54783 82.9504 7.05062 82.8214 7.37212C82.8095 7.39124 82.7852 7.41096 82.7852 7.41096C82.4239 6.68664 82.0924 7.35174 81.6507 7.48437C81.6244 7.41147 81.5715 7.24712 81.5452 7.17422C81.0494 7.08693 80.6104 7.34924 80.2428 6.9034C80.2786 6.84604 80.314 6.77014 80.3618 6.69365C80.2993 6.65958 80.2372 6.64404 80.1377 6.61176C80.1293 6.79762 80.1082 6.96554 80.0995 7.13286C80.0629 7.15318 80.0271 7.21055 80.002 7.19322C79.7664 7.14898 79.536 7.34557 79.2952 7.06049C79.181 6.91766 79.0441 7.44353 78.8273 7.12022C78.7254 6.97678 78.5045 7.0431 78.3358 7.23671C78.2271 7.35323 77.9808 7.38369 77.8674 7.2779C77.6278 7.04841 77.3954 7.15237 77.1607 7.14518C76.9752 7.13561 76.7906 7.16308 76.6055 7.17203C76.4205 7.18098 76.2119 7.2467 76.0735 7.12358C75.8721 6.94787 75.783 7.39726 75.5939 7.22095C75.5056 7.1325 75.3818 7.11994 75.2577 7.08885C75.1212 7.05836 74.9345 6.99322 74.8502 7.09002C74.6464 7.37805 74.42 7.185 74.2489 7.26746C74.147 7.12402 74.0706 7.01645 74.0069 6.92681C73.8621 7.08217 73.7296 7.23694 73.5966 7.37318C73.6364 7.50107 73.6639 7.62955 73.7303 7.84888C73.5552 7.74608 73.455 7.67675 73.3423 7.60801C73.377 7.49507 73.4116 7.38213 73.4574 7.21301C73.2453 7.112 73.0582 7.02832 72.8708 6.92612C72.8246 7.07671 72.79 7.18965 72.7208 7.41554C72.6308 7.25298 72.5664 7.12629 72.5015 6.98107C72.4275 6.98465 72.3288 6.98942 72.2178 6.99479C72.2074 7.08801 72.1971 7.18124 72.176 7.34916C72.0773 7.35393 71.9547 7.39695 71.8548 7.34615C71.7677 7.31327 71.6789 7.2063 71.6029 7.11725C71.4255 6.9033 71.2786 6.96603 71.0991 7.23434C71.01 7.10884 70.9209 6.98333 70.8317 6.85783C70.7342 6.91818 70.5281 7.09505 70.4895 7.02274C70.2981 6.73528 70.0509 7.30357 69.8814 6.88524C69.8595 7.01611 69.8369 7.10994 69.8022 7.22288C69.5229 7.44038 69.2053 7.02921 68.9029 7.32201C68.8758 7.21205 68.8488 7.10209 68.8217 6.99213C68.7966 6.9748 68.7588 6.93954 68.7218 6.94133C68.6227 6.92757 68.5113 6.91442 68.4134 6.95624C67.912 7.18448 67.912 7.18448 67.419 6.65199C67.838 6.61318 68.2077 6.57675 68.5774 6.54033C68.5766 6.50328 68.5758 6.46623 68.575 6.42917C68.1926 6.44767 67.8101 6.46617 67.403 6.48585C67.3577 6.67349 67.3011 6.91731 67.2562 7.12347C66.8017 7.23818 66.3962 7.33197 66.0034 7.44369C65.8757 7.24587 65.748 7.04806 65.6457 6.8861C65.4758 7.02414 65.3787 7.10301 65.2569 7.18308C65.2609 7.36834 65.2652 7.57211 65.2704 7.81295C65.036 7.82428 64.814 7.83502 64.5919 7.84576C64.5143 7.68261 64.4236 7.483 64.3074 7.24754C64.1753 7.42083 64.0794 7.55529 63.9592 7.70946C63.9074 7.60069 63.8434 7.49252 63.7781 7.32877C63.6937 7.42558 63.6456 7.48354 63.5851 7.5421C63.3981 7.45842 63.2234 7.37414 63.0491 7.30839C63.0344 7.19784 63.0204 7.12433 63.0061 7.0323C62.8358 7.15181 62.7701 7.54443 62.5572 7.40637C62.3945 7.30297 62.172 7.29518 62.1235 6.75973C62.0423 7.00474 61.9965 7.17386 61.9149 7.40034C61.823 7.14516 61.7832 7.01726 61.7438 6.9079C61.5568 7.39911 61.1433 7.69728 60.7553 7.45642C60.5679 7.35422 60.4079 7.3805 60.234 7.33327C60.0601 7.28605 59.8846 7.16472 59.7246 7.191C59.5153 7.21967 59.339 7.06129 59.1532 7.03319C58.9674 7.00509 58.7481 7.14551 58.6096 7.0224C58.4461 6.88195 58.2662 7.13172 58.1253 6.89745C58.0871 6.84367 57.918 7.01875 57.8069 7.02412C57.7086 7.04742 57.6088 6.99662 57.4846 6.96553C57.4751 7.09581 57.4663 7.26313 57.4468 7.50516C57.3465 7.43583 57.2717 7.40236 57.2331 7.33004C57.1563 7.20394 57.1157 7.03901 57.0767 6.94817C56.8332 7.1083 56.6382 7.22901 56.4189 7.36942C56.3656 7.18655 56.3385 7.07659 56.2983 6.93018C56.2008 6.99053 56.0556 7.12737 56.0301 7.09151C55.8769 6.85784 55.7937 7.01022 55.6736 7.16439C55.5892 7.26119 55.4666 7.30421 55.3448 7.38428C55.2434 7.25937 55.1419 7.13447 55.0277 6.99163C54.9672 7.05019 54.8936 7.0723 54.8824 7.12847C54.7105 7.74876 54.3671 7.85809 53.9707 7.80308C53.851 7.40089 53.6074 8.13591 53.4988 7.67755C53.3133 7.66797 53.1402 7.6578 52.9671 7.64763C52.878 7.52213 52.8016 7.41455 52.7634 7.36076C52.4955 7.54062 52.2397 7.70135 51.9842 7.88061C51.9173 7.64276 51.8505 7.40491 51.7828 7.13001C51.6634 7.32123 51.5795 7.43657 51.4955 7.5519C51.445 7.49871 51.4064 7.4264 51.3686 7.39113C51.1974 7.47359 51.0387 7.55544 50.9045 7.63611C50.8019 7.45563 50.8437 7.10126 50.5767 7.31816C50.6312 7.55661 50.6741 7.8327 50.7561 8.19963C50.6069 8.15121 50.5201 8.13686 50.3582 8.07052C50.2977 8.12908 50.1516 8.22887 50.0306 8.34599C49.7923 8.17207 49.8468 7.83562 49.8536 7.57567C49.6896 7.4167 49.5384 7.27565 49.3995 7.13401C49.0406 7.67062 48.7752 6.81186 48.4329 6.97677C48.2423 7.30125 48.1412 7.76975 47.7584 7.76972C47.8105 7.89701 47.8495 7.98785 47.8881 8.06016C47.8515 8.65537 47.4627 8.37745 47.2812 8.55313C47.3278 8.99595 47.4937 9.24756 47.7555 9.36471C47.7794 9.32646 47.8276 9.2685 47.8992 9.15376C48.0409 9.42508 48.3823 9.22313 48.4945 9.84822C48.5271 9.64265 48.549 9.51178 48.5813 9.28768C48.5427 9.21537 48.4018 8.9811 48.2606 8.72831C48.6398 8.56161 49.0071 8.41403 49.4234 8.24554C49.5985 8.34834 49.8484 8.48461 50.1484 8.65555C50.039 8.73502 49.9291 8.79597 49.8559 8.8366C49.9514 9.25851 50.0191 9.53341 50.0879 9.86389C50.1484 9.80533 50.2216 9.76469 50.2825 9.72466C50.1261 9.34278 50.3402 8.96154 50.2308 8.46612C50.6192 8.72551 50.9105 7.914 51.2444 8.50983C51.353 8.3933 51.4254 8.31562 51.5464 8.1985C51.5866 8.34491 51.6137 8.45487 51.6535 8.58276C51.9177 8.81107 52.279 8.38561 52.5719 8.79797C52.5942 8.68563 52.6165 8.57328 52.6495 8.38623C52.7745 8.45437 52.8867 8.50458 53.049 8.58945C53.0837 8.47651 53.1056 8.34563 53.1283 8.25181C53.4757 8.32773 53.8286 8.66301 54.1506 8.12819C54.5545 8.53519 55.1104 7.9705 55.5203 8.65538C55.5422 8.52451 55.5649 8.43068 55.5872 8.31834C56.4324 7.99929 57.2816 8.44038 58.1308 8.30659C58.1587 8.4536 58.173 8.54563 58.214 8.7291C58.3206 8.51995 58.3911 8.34964 58.4735 8.16021C58.7106 8.27855 58.9578 8.28514 59.2662 8.27023C59.8579 8.22306 60.4628 8.21236 61.0549 8.18372C61.1166 8.18074 61.1787 8.19628 61.2165 8.23154C61.4931 8.45924 61.7501 8.35409 62.0168 8.11866C62.1182 8.24356 62.2201 8.38699 62.3721 8.56509C62.4306 8.4139 62.4653 8.30096 62.5238 8.14978C62.5361 8.14918 62.5966 8.09061 62.6463 8.10675C62.8831 8.20657 63.1227 8.43607 63.3495 8.07275C63.757 8.07159 64.1315 8.25747 64.4279 8.83656C64.4454 8.50191 64.4526 8.26048 64.4713 7.9814C64.757 8.06031 64.7399 8.41349 64.8557 8.63043C64.7463 8.7099 64.6611 8.76965 64.4912 8.90768C64.7009 8.89754 64.8505 8.96448 64.9102 8.86887C65.0057 8.7159 65.0499 8.47267 65.1546 8.1709C65.463 8.15598 65.8454 8.13749 66.2278 8.11899C66.5215 8.56841 66.9414 7.99176 67.2474 8.44058C67.2697 8.32823 67.292 8.21589 67.3258 8.06589C67.524 8.0934 67.7345 8.12031 68.0313 8.14304C68.0441 8.16097 68.1332 8.28647 68.1837 8.33966C68.4165 8.25422 68.6123 8.17057 68.8694 8.06542C68.9446 8.11741 69.0827 8.222 69.2208 8.32659C69.2447 8.28835 69.304 8.17422 69.329 8.19155C69.5789 8.32782 69.8746 8.29498 70.0421 8.62068C70.1496 8.44858 70.269 8.25736 70.3764 8.08526C70.6383 8.20241 70.8365 8.22991 71 8.37036C71.1512 8.51141 71.2893 8.04111 71.4453 8.40446C71.5364 8.62259 71.7724 8.68535 72.0741 8.93039C71.9698 8.67581 71.9435 8.6029 71.9041 8.49354C71.94 8.43617 71.9873 8.34115 72.0351 8.26466C72.1354 8.33399 72.2352 8.3848 72.3606 8.47146C72.3769 8.65612 72.3813 8.85991 72.3976 9.04456C72.6347 9.16291 72.86 9.30037 73.0971 9.41871C73.2193 9.35717 73.3534 9.27651 73.5122 9.19465C73.4119 9.12532 73.3367 9.07332 73.199 8.98726C73.3176 8.75898 73.4243 8.54983 73.4955 8.41658C73.8019 8.30903 74.0475 8.24152 74.305 8.15489C74.3316 8.24632 74.3587 8.35629 74.3989 8.5027C74.7809 7.89079 75.182 8.16811 75.5959 8.46335C75.7411 8.32651 75.8864 8.18968 76.0683 8.03253C76.2935 8.16999 76.5319 8.34391 76.7949 8.51663C76.8068 8.49751 76.8669 8.42043 76.9632 8.3045C77.0544 8.52263 77.12 8.70491 77.1857 8.88718C77.1295 9.14952 77.0854 9.39273 77.0181 9.71125C76.6958 9.65266 76.3734 9.59407 76.0264 9.53667C75.9914 9.63109 75.9572 9.76256 75.923 9.89403C75.6114 9.76074 75.2998 9.62745 74.9882 9.49416C75.0722 9.37883 75.1565 9.28203 75.3487 9.03165C75.0769 9.02625 74.9162 9.01548 74.7435 9.02383C74.7486 9.26466 74.7534 9.48697 74.7574 9.67223C74.4565 10.0391 74.1979 9.49529 73.9416 9.6375C73.6976 9.77911 73.4513 9.80957 73.193 9.85915C72.9348 9.90873 72.6769 9.40195 72.4278 9.87761C72.0943 9.8752 71.9244 9.43834 71.6606 9.22856C71.6872 9.32 71.7258 9.39231 71.7525 9.48374C71.7035 9.50465 71.6554 9.56262 71.6303 9.54529C71.4536 9.36839 71.2889 9.17235 71.0107 8.87055C71.0796 9.20102 71.1452 9.3833 71.1361 9.5321C71.1269 9.6809 71.0314 9.83388 70.9848 9.96595C70.7978 9.88227 70.6235 9.81651 70.4365 9.73283C70.4341 9.62168 70.4309 9.47348 70.4285 9.36232C70.3521 9.25475 70.2885 9.16511 70.2121 9.05754C70.1778 9.18901 70.1432 9.30195 70.0859 9.50871C69.9964 9.36468 69.9323 9.25651 69.83 9.09456C69.7592 9.24634 69.6883 9.39812 69.629 9.51226C69.4941 9.55587 69.3716 9.59889 69.2 9.66282C69.1841 9.49669 69.1559 9.33115 69.14 9.16502C69.1153 9.16621 69.0656 9.15007 69.0536 9.16919C68.982 9.28393 68.8976 9.38073 68.8387 9.51339C68.7571 9.73988 68.7261 10.0195 68.619 10.2102C68.5239 10.3817 68.3651 10.4635 68.2199 10.6004C68.2048 10.4713 68.1765 10.3057 68.1483 10.1402C67.999 10.0918 67.8621 10.0428 67.7002 9.97644C67.6886 10.0141 67.6783 10.1073 67.6568 10.2567C67.5708 10.2794 67.4598 10.2848 67.3122 10.3105C67.3575 10.1228 67.4037 9.97223 67.4606 9.74694C67.621 9.73919 67.8184 9.72964 68.0158 9.7201C68.0146 9.66452 68.0138 9.62746 68.0126 9.57189C67.8888 9.55933 67.7774 9.54618 67.6536 9.53362C67.5056 9.54078 67.3699 9.54734 67.1849 9.55629C67.1773 9.77919 67.1701 10.0206 67.1506 10.2626C67.1132 10.2459 67.0639 10.2483 67.0635 10.2298C67.0583 9.98894 66.9998 9.56524 66.878 9.6453C66.6464 9.78632 66.6027 9.47318 66.4658 9.42416C66.3165 9.37574 66.1446 9.42115 65.9472 9.43069C65.9261 9.59862 65.9174 9.76594 65.8975 9.98944C65.7359 9.94162 65.5736 9.85675 65.4128 9.84598C65.252 9.83521 65.3635 9.27348 65.0972 9.52744C65.1251 9.67445 65.1653 9.82086 65.1685 9.96907C65.1689 9.98759 65.0709 10.0294 64.9734 10.0898C64.9424 9.79455 64.9249 9.55431 64.8939 9.2591C64.7538 9.63677 64.6376 9.97619 64.521 10.2971C64.3204 10.1584 64.1696 10.0359 64.0064 9.91399C63.9348 10.0287 63.8508 10.1441 63.7792 10.2588C63.431 10.1458 63.0947 10.0137 62.7712 9.89956C62.7911 9.67606 62.811 9.45256 62.8417 9.15436C62.437 9.2852 62.46 9.78479 62.2957 10.1822C62.2666 9.97959 62.2388 9.83258 62.2101 9.64852C61.9821 9.38138 61.8432 9.81462 61.6339 9.84329C61.6128 10.0112 61.6044 10.1971 61.5841 10.402C61.4823 10.2586 61.4182 10.1504 61.3545 10.0608C61.2443 10.1032 61.1468 10.1636 61.0481 10.1683C60.9741 10.1719 60.9092 10.0267 60.8356 10.0488C60.2817 10.1312 60.2447 10.133 59.9263 9.68479C59.9008 9.64893 59.8626 9.59515 59.8117 9.52343C59.7293 9.71286 59.6593 9.90169 59.5765 10.0726C59.4102 9.80247 59.4241 9.30109 59.0632 9.17019C58.9836 9.4893 58.9159 9.78929 58.8136 10.2022C58.7209 9.90999 58.6413 9.65421 58.5745 9.41636C58.4177 9.59085 58.4014 9.98108 58.169 10.085C58.0953 10.1071 58.0217 10.1292 57.9489 10.1884C57.7551 10.3647 57.5561 9.72524 57.3687 10.1979C57.1466 10.2087 56.9126 10.2385 56.6902 10.2307C56.5915 10.2355 56.5036 10.1656 56.4164 10.1327C56.2166 10.0311 56.0312 10.0215 55.8879 10.251C55.7499 10.1464 55.6118 10.0418 55.4482 9.90136C55.4001 9.95932 55.3396 10.0179 55.2429 10.1153C55.227 9.94915 55.1991 9.80214 55.1832 9.63601C55.1323 9.56429 54.903 9.81646 54.8338 10.0423C54.6611 10.0507 54.4868 9.98495 54.3531 10.0841C54.061 10.2837 53.8489 10.1827 53.6555 9.80261C53.4103 9.88865 53.172 10.2896 52.903 9.83901C52.8687 9.97048 52.8464 10.0828 52.8242 10.1952C52.7875 10.2155 52.7513 10.2543 52.7139 10.2376C52.5894 10.188 52.4644 10.1198 52.3275 10.0708C52.1162 10.0069 51.8743 10.2411 51.6948 9.93453C51.5149 10.1843 51.3183 10.2309 51.1034 10.0002C50.9713 10.1735 50.7803 9.90458 50.6621 10.1514C50.4222 9.90335 50.1647 9.98998 49.9056 10.0025C49.6959 10.0127 49.4989 10.0407 49.2888 10.0323C49.091 10.0234 48.908 10.1249 48.7058 9.91218C48.5797 9.78847 48.3206 9.801 48.175 9.91931C47.7865 10.2348 47.3874 10.0501 46.921 10.1839C46.8979 10.2592 46.8394 10.4104 46.7332 10.6381C46.7021 10.3429 46.6735 10.1588 46.6588 10.0483C46.5052 9.79607 46.4419 10.2998 46.2891 10.0847C46.2254 9.99505 46.0654 10.0213 45.9421 10.0273C45.7936 10.0159 45.6583 10.041 45.5103 10.0482C45.4339 9.9406 45.3698 9.83244 45.2934 9.72486C45.1231 9.84437 44.9659 10.0003 44.7944 10.0643C44.6229 10.1282 44.437 10.1001 44.2397 10.1096C44.4152 9.65607 44.683 9.47621 44.9639 9.33281C45.0392 9.38481 45.1271 9.45474 45.2027 9.52526C45.2998 9.44638 45.3722 9.3687 45.4447 9.29101C45.533 9.37947 45.5959 9.43206 45.6592 9.50318C45.841 9.34603 46.0356 9.2068 46.2541 9.02934C46.3349 8.7658 46.4388 8.42697 46.5542 8.05049C46.4543 7.99969 46.3795 7.96622 46.3421 7.94949C46.2354 7.58375 46.1292 7.23654 46.0102 6.8714C45.7758 6.88273 45.5785 6.89228 45.3564 6.90301C45.4583 7.04645 45.5598 7.17135 45.6871 7.35064C45.3815 7.49524 45.1451 7.98883 44.8844 7.35237C45.0297 7.21553 45.1745 7.06017 45.3564 6.90301C45.3632 6.64306 45.2414 6.72313 45.1427 6.7279C44.6246 6.75296 44.1188 6.77742 43.6007 6.80248C43.5183 6.99191 43.4359 7.18135 43.3539 7.3893C43.0798 7.27275 42.7789 7.63965 42.5584 7.1496C42.4267 7.34142 42.3185 7.47647 42.1987 7.64917C42.0988 7.59836 41.9846 7.45553 41.8986 7.47823C41.7267 7.52363 41.5966 7.21466 41.4275 7.38975C41.2703 7.54571 41.1334 7.49669 41.0056 7.29887C40.8628 7.54687 40.7155 7.59108 40.5377 7.3586C40.3817 7.57014 40.2452 7.53965 40.0928 7.34303C39.8444 7.85574 39.4724 7.20613 39.1962 7.57183C39.0521 7.76425 38.8711 7.38356 38.6773 7.55984C38.5316 7.67815 38.3573 7.6124 38.1695 7.49167C38.0063 7.36975 37.7099 7.36555 37.5769 7.50179C37.3477 7.75395 37.1109 7.65414 36.8769 7.684C36.631 7.73298 36.3568 7.61643 36.1499 7.75625C35.931 7.91519 35.7528 7.66419 35.5693 7.74724C35.4595 7.80818 35.3496 7.86913 35.2394 7.91155C35.1781 7.93306 35.1053 7.99221 35.0675 7.95695C34.7662 7.73044 34.4475 7.83858 34.1259 7.81704C33.8414 7.79371 33.4845 7.84806 33.266 8.02553C33.0531 7.88747 32.8652 7.76674 32.64 7.62928C32.5576 7.81871 32.4995 7.98842 32.4287 8.1402C32.2647 7.98123 32.1513 7.87545 31.9122 7.66448C32.1828 7.6143 32.3189 7.62627 32.4283 7.5468C32.5501 7.46673 32.6731 7.44223 32.7964 7.43627C32.7149 7.08786 33.0022 7.24087 33.0336 6.97972C32.7129 6.99524 32.3889 6.86254 32.1374 7.22705C32.0614 7.13801 32.0228 7.0657 31.9723 7.01251C31.9007 7.12724 31.829 7.24197 31.7932 7.29934C31.5827 7.27243 31.3849 7.26345 31.1987 7.21682C31.0252 7.18812 30.8827 6.87975 30.6539 7.15045C30.5576 7.26637 30.3069 7.09305 30.1457 7.06375C30.0518 7.29083 29.9698 7.49879 29.8759 7.72587C29.6491 7.5143 29.46 7.338 29.2583 7.14376C29.1397 7.37203 29.0048 7.41565 28.8412 7.2752C28.6773 7.11623 28.5129 6.93873 28.3363 6.76183C28.3307 6.50247 28.3251 6.24311 28.3204 6.02081C28.4163 5.88635 28.4875 5.75309 28.5715 5.63777C28.5584 5.60131 28.5329 5.56546 28.5202 5.54753C28.4473 5.60668 28.3749 5.68436 28.2889 5.70706C28.1906 5.73036 28.0916 5.71661 27.9805 5.72198C27.9348 5.89109 27.8763 6.04229 27.8305 6.2114C27.856 6.24726 27.8946 6.31957 27.9582 6.40922C27.8357 6.45223 27.7254 6.49465 27.5782 6.53886C27.7557 6.75281 27.9208 6.96737 28.1114 7.21778C28.0402 7.35103 27.9689 7.48429 27.8738 7.65579C27.7723 7.53089 27.6351 7.46335 27.5949 7.31693C27.4998 6.91355 27.3569 6.58665 27.0915 6.30277C27.033 6.45396 26.9622 6.60574 26.9033 6.7384C26.6904 6.60034 26.4671 6.55551 26.3975 6.18798C26.0206 6.46583 25.9343 6.47001 25.407 6.06898C25.3831 6.10722 25.3473 6.16459 25.2988 6.20402C25.0803 6.38149 24.8765 6.09463 24.6792 6.10418C24.4694 6.11432 24.2788 6.4388 24.0655 6.28221C23.9402 6.19555 23.904 6.23439 23.7814 6.27741C23.6099 6.34134 23.4101 6.23973 23.1498 6.19668C23.1383 6.23433 23.1041 6.3658 23.0591 6.57196C22.9708 6.48351 22.9071 6.39387 22.7423 6.19785C22.8295 6.23072 22.7917 6.19546 22.7798 6.21458C22.3786 6.51215 21.9453 6.45893 21.5473 6.32982C21.2238 6.21565 20.831 6.32738 20.5505 5.91441C20.4995 5.8427 20.34 5.88751 20.2544 5.92873C20.1688 5.96996 20.0976 6.10322 20.0498 6.1797C20.1024 6.32552 20.1422 6.45341 20.1816 6.56278C19.8552 6.89382 19.585 6.38763 19.2914 6.5131C19.4183 6.67386 19.5333 6.85375 19.673 7.03244C19.6439 7.40474 19.4358 7.48899 19.1902 7.5565C19.316 7.66169 19.4421 7.7854 19.5679 7.89058C19.5201 7.96707 19.4604 8.06268 19.4007 8.15829C19.2726 7.94195 19.1365 7.92999 18.9948 8.23355C18.9658 8.03097 18.9499 7.86484 18.9212 7.68077C18.5738 7.60485 18.2451 7.82474 17.9124 7.85938C17.6291 7.89163 17.2343 7.91071 16.9183 8.14853C16.8789 8.03917 16.8388 7.89276 16.7596 7.65551C16.748 7.69315 16.7827 7.58021 16.8292 7.44814C16.8042 7.43081 16.766 7.37703 16.7289 7.37882C16.2972 7.3997 15.8646 7.38353 15.4336 7.44146C15.175 7.47251 14.8168 7.47129 14.5542 7.31709C14.4837 7.4874 14.426 7.67564 14.3556 7.84595C14.2676 7.77602 14.1666 7.66964 14.1546 7.68876C14.0002 7.9744 13.8454 7.66663 13.6978 7.69231C13.5131 7.71979 13.3277 7.71021 13.1426 7.71916C12.7849 7.73646 12.4462 7.49321 12.0777 7.58521C11.7829 7.65511 11.4832 7.5027 11.174 7.48057C10.9512 7.45425 10.8604 7.25465 10.722 7.13153C10.6619 7.20862 10.6014 7.26718 10.5051 7.3831C10.4131 7.12792 10.3344 6.9092 10.2683 6.7084C10.3041 6.65103 10.3161 6.63191 10.328 6.61279C10.533 6.38034 10.7689 7.01799 10.9568 6.56384C11.1788 6.5531 11.4128 6.52323 11.6353 6.53102C11.8211 6.55912 12.0081 6.6428 12.182 6.69003C12.262 6.38944 12.3309 6.14503 12.4228 5.82532C12.929 6.39427 13.5064 6.25508 13.9951 6.58379C14.0452 6.61846 14.1316 6.61428 14.1801 6.57485C14.6171 6.21991 15.0906 6.41954 15.5574 6.30424C15.5543 6.15604 15.5515 6.02637 15.5467 5.80406C15.3107 5.74129 15.027 5.75501 14.789 5.59962C14.6263 5.49622 14.5554 5.648 14.4563 5.63425C14.2832 5.62408 14.0894 5.80035 13.9354 5.52963C13.8069 5.29476 13.6943 5.80092 13.5403 5.5302C13.5017 5.45789 13.3417 5.48417 13.2557 5.50687C12.9481 5.55883 12.6393 5.55522 12.3401 5.42134C12.3277 5.42193 12.3142 5.36695 12.2895 5.36815C11.7105 5.43324 11.1351 5.09018 10.5461 5.26702C10.4359 5.30944 10.3388 5.38831 10.2536 5.44806C10.075 5.17853 9.89669 4.92753 9.70608 4.67712C9.51109 4.79782 9.37698 4.87849 9.21859 4.97887C8.91179 4.493 8.44818 4.7565 8.08367 4.45887C7.4947 4.63571 6.93003 4.21795 6.34067 4.37626C6.25153 4.25076 6.15006 4.12586 6.07366 4.01828C5.93796 4.02485 5.82693 4.03021 5.70357 4.03618C5.52686 4.43417 5.51133 4.86145 5.55708 5.26722C5.27771 5.48472 5.33145 5.11122 5.19178 4.93253C5.07 5.0126 4.92435 5.13091 4.74169 5.25102C4.83241 5.45062 4.88414 5.55939 4.92314 5.65023C4.8698 6.04225 4.70623 6.47669 4.77466 6.78864C4.85782 7.21115 4.80488 7.62168 4.89121 8.1924C4.76507 8.06868 4.71493 8.03402 4.61385 7.92764C4.53147 8.11707 4.42521 8.34475 4.33089 8.5533C4.22743 8.33577 4.16178 8.1535 4.08418 7.99035C3.80045 8.00407 3.54178 8.03513 3.26998 8.02973C3.07221 8.02075 2.88915 8.12232 2.687 7.90956C2.58592 7.80318 2.35193 7.83304 2.20548 7.9143C1.91338 8.11388 1.59224 8.11086 1.28582 8.21841C1.49752 8.30089 1.69689 8.38397 1.99574 8.49933C1.75259 8.67799 1.5946 8.7969 1.44895 8.91521C1.49033 9.1172 1.54405 9.3186 1.58622 9.55764C1.83374 9.58276 2.0936 9.60728 2.42787 9.64675C2.5007 9.5876 2.65829 9.45016 2.84056 9.31153C2.88035 9.43942 2.907 9.53086 2.94719 9.67727C3.07056 9.6713 3.21859 9.66414 3.37896 9.65639C3.40006 9.48847 3.40882 9.32114 3.42952 9.13469C3.65158 9.12395 3.74151 9.2865 3.77174 9.54467C3.81431 9.80224 3.85649 10.0413 3.90025 10.3544C3.53175 10.4464 3.17159 10.9275 2.75456 10.484C2.62283 10.6758 2.50106 10.7559 2.37173 10.484C2.26825 10.8413 2.14888 10.4577 2.03865 10.5001C1.81819 10.5849 1.57225 10.6339 1.35219 10.7373C1.16873 10.8203 0.9992 10.9769 0.788688 10.95C0.727006 10.953 0.656563 11.1233 0.561051 11.2762C1.20413 11.3193 1.75408 11.6265 2.35975 11.6529C2.90375 11.6822 3.4318 12.1203 4.03629 12.0911C4.13855 12.253 4.25395 12.4514 4.47201 12.8303C4.12302 12.6803 3.92365 12.5972 3.67414 12.4795C3.56629 12.633 3.42263 12.844 3.2909 13.0358C3.26543 12.9999 3.22723 12.9461 3.16356 12.8565C3.12933 12.988 3.09511 13.1194 3.07282 13.2318C3.19737 13.2814 3.39714 13.383 3.60924 13.484C3.61202 13.6137 3.6152 13.7619 3.61917 13.9472C3.40826 13.9017 3.18343 13.7828 2.99918 13.8288C2.80259 13.8754 2.63666 13.6238 2.40584 13.8018C2.26019 13.9202 1.95696 13.601 1.79898 13.7199C1.56776 13.8795 1.40103 13.5908 1.20683 13.7486C1.1722 13.8615 1.1141 14.0312 1.04485 14.2571C1.31943 14.3922 1.5944 14.5458 1.90639 14.6976C1.92071 14.7896 1.93622 14.9372 1.95214 15.1034C2.37356 15.1757 2.80732 15.2475 3.29082 15.3353C3.63026 15.6156 3.35447 15.9999 3.27685 16.4116C3.12802 16.3817 2.97879 16.3333 2.82996 16.3034C2.81763 16.304 2.8041 16.249 2.77942 16.2502C2.52833 16.0584 2.32934 16.5687 2.06471 16.3219C1.80009 16.075 1.57324 16.4384 1.34004 16.5053C1.09411 16.5543 1.11638 17.0168 0.997785 17.2451C1.11038 17.8887 1.66554 17.287 1.7658 17.9312C2.04953 17.9175 2.3086 17.9049 2.54299 17.8936C2.62098 18.0753 2.68584 18.2205 2.76303 18.3651C2.95603 18.7267 2.95603 18.7267 2.74311 19.1635C2.19673 19.023 1.74309 18.5999 1.16847 18.2939C1.19711 18.4779 1.21223 18.607 1.22695 18.7176C1.22695 18.7176 1.26396 18.7158 1.28863 18.7146C1.57157 18.6638 1.46331 19.3738 1.81947 19.2823C1.99139 19.2369 2.20667 19.4862 2.39449 19.6069C2.45697 19.641 2.50751 19.6941 2.58272 19.7461C2.26275 20.3736 2.13583 19.6379 1.86403 19.6325C1.79319 19.7843 1.71041 19.9552 1.60415 20.1829C1.55481 20.1853 1.45651 20.2086 1.35822 20.2319C1.32717 20.5116 1.29612 20.7912 1.25393 21.1271C1.37729 21.1211 1.52533 21.114 1.69803 21.1056C1.67892 21.3662 1.67056 21.552 1.65145 21.8126C1.55435 21.8914 1.39676 22.0289 1.2511 22.1472C1.30403 22.3115 1.36889 22.4567 1.44767 22.6755C1.58178 22.5948 1.71549 22.4956 2.78238 22.7222C3.59298 23.091 3.46006 23.2272 3.36018 23.1764C2.79869 22.9068 2.19103 22.7879 1.78395 22.2327C1.82972 22.0636 1.86355 21.9136 1.89857 21.8192C2.07327 21.9034 2.24916 22.0433 2.27303 22.005C2.41511 21.72 2.52932 21.8628 2.68013 21.9853C2.78081 22.0732 2.96824 22.1754 3.04107 22.1162C3.34391 21.842 3.4991 22.1683 3.70125 22.381C3.70562 22.5848 3.70999 22.7886 2.78238 22.7222C1.95584 22.7622 2.04935 23.0914 2.14365 23.4578C2.05809 23.499 1.99681 23.5205 1.91125 23.5617C1.88061 23.2851 1.86311 23.0448 1.8301 22.657C1.72662 23.0143 1.6701 23.2581 1.60085 23.484C1.53877 23.4685 1.46436 23.4535 1.39034 23.4571C1.27971 23.481 1.15674 23.5055 1.04691 23.5665C0.961348 23.6077 0.87698 23.7045 0.767939 23.8025C0.906817 23.9441 1.03296 24.0678 1.15911 24.1916C1.09941 24.2872 1.07553 24.3254 1.03972 24.3828C1.21521 24.5041 1.37796 24.6075 1.54112 24.7294C1.5431 24.822 1.54509 24.9147 1.47465 25.085C1.63263 24.9661 1.72934 24.8687 1.83838 24.7707C1.8149 24.8274 1.80375 24.8836 1.78027 24.9404C1.86742 24.9733 1.96731 25.0241 2.05445 25.0569C2.03058 25.0952 2.01903 25.1328 1.99516 25.1711C1.84672 25.1597 1.68635 25.1675 1.47465 25.085C1.48539 25.0103 1.38591 24.978 1.36203 25.0163C1.20722 25.2834 1.06475 25.5499 0.886851 25.8923C1.07309 25.9389 1.19725 25.97 1.3214 26.0011C1.32379 26.1122 1.32498 26.1678 1.32697 26.2604C1.21673 26.3029 1.1061 26.3268 0.958863 26.371C1.11008 26.512 1.23662 26.6543 1.38823 26.8138C1.13989 27.3265 0.9031 27.8016 0.666702 28.2952C0.705698 28.386 0.745091 28.4954 0.797217 28.6227C0.687779 28.7022 0.603014 28.7804 0.517851 28.8402C0.632036 29.5579 0.696876 30.278 1.12744 30.7765C1.26711 30.9552 1.37176 31.2283 1.439 31.4846C1.51858 31.7404 1.53728 32.0362 1.58064 32.3308C1.50742 32.3715 1.44653 32.4115 1.36097 32.4527C1.3741 32.4892 1.38803 32.5627 1.40076 32.5806C1.46284 32.5962 1.52373 32.5561 1.5862 32.5902C1.77284 32.6554 1.86277 32.8179 1.84445 33.1155C1.82494 33.3575 1.74137 33.4914 1.5814 33.5177C1.48271 33.5224 1.38401 33.5272 1.29766 33.5314C1.27418 33.5882 1.2503 33.6264 1.2503 33.6264C1.27617 33.6808 1.31397 33.7161 1.35217 33.7698C1.32909 33.8451 1.29367 33.921 1.22402 34.1284C1.38241 34.028 1.4799 33.9677 1.56507 33.9079C1.64504 34.1822 1.73656 34.4189 2.02109 34.4422C2.28095 34.4667 2.61443 34.4691 2.78672 35.0171C2.55551 35.1767 2.37166 35.2412 2.18025 34.9537C1.95065 34.6125 1.67727 34.533 1.34736 34.6973C1.44285 35.1192 1.71346 35.069 1.97848 35.3344C1.39907 35.381 0.903631 35.3122 0.359222 35.8392C0.24142 36.1046 0.711393 36.1375 0.718545 36.4709C1.02815 36.5116 1.09698 36.8421 1.06831 37.2329C1.32459 37.0907 1.32459 37.0907 1.19209 36.6706C1.30312 36.6652 1.40141 36.6419 1.51244 36.6365C1.53513 36.5427 1.55742 36.4304 1.57931 36.2995C1.78903 36.2893 2.01108 36.2786 2.25781 36.2667C2.26615 36.6557 2.27449 37.0447 2.28244 37.4153C2.47265 37.6471 2.57929 38.0129 2.86064 37.888C2.95097 38.0691 3.02896 38.2508 3.10655 38.4139C3.21599 38.3344 3.28882 38.2753 3.45874 38.1372C3.39307 38.5299 3.34928 38.7916 3.3063 39.0904C3.88132 39.4149 4.48421 39.3116 5.05645 39.5065C5.05804 39.5806 5.06002 39.6732 5.06241 39.7843C4.82802 39.7957 4.60596 39.8064 4.39625 39.8166C4.32938 40.1536 4.26172 40.4536 4.20639 40.753C4.09536 40.7584 4.00901 40.7625 3.84864 40.7703C3.896 40.6753 3.91948 40.6185 3.96644 40.505C3.8781 40.4165 3.7631 40.2366 3.67714 40.2593C3.37072 40.3669 3.10411 40.0274 2.79689 40.0979C2.9847 40.7935 3.08577 40.8999 3.68427 41.1677C3.8713 41.2514 4.04679 41.3727 4.17175 41.4408C4.41964 42.0593 4.07222 42.5583 4.15776 43.092C4.00176 43.3035 3.89868 43.6794 3.58749 43.5646C3.53137 43.827 3.46331 44.1084 3.39525 44.3899C3.66903 44.4879 3.90541 44.5692 4.14258 44.6876C4.24246 44.7384 4.15172 45.1136 4.34711 45.0115C4.49356 44.9302 4.61414 44.7946 4.82029 44.6177C5.01767 44.6081 5.31374 44.5938 5.59748 44.5801C5.65677 44.466 5.72841 44.3512 5.77617 44.2747C5.92102 44.1194 7.34169 44.1434 7.57886 44.2617C7.62662 44.1853 7.66244 44.1279 7.73407 44.0132C7.70821 43.9588 7.68234 43.9044 7.63101 43.8141C7.65489 43.7759 7.67797 43.7006 7.71379 43.6432L8.66966 43.3003C8.8742 43.6242 9.12889 43.4079 9.36408 43.4336C9.64861 43.4569 9.96617 43.2932 10.2161 43.4295C10.4783 43.5652 10.7832 43.3835 10.9602 43.579C11.2253 43.8443 11.5385 43.4768 11.7446 43.8748C11.7577 43.9113 11.8186 43.8713 11.8683 43.8874C12.363 43.9191 12.87 43.9502 13.365 44.0005C13.5755 44.0274 13.7876 44.1284 13.9977 44.1368C14.1959 44.1643 14.4048 44.1171 14.615 44.1255C14.6643 44.1231 14.7033 44.2139 14.7797 44.3215C14.7753 44.1177 14.7725 43.988 14.769 43.8213C14.6934 43.7508 14.6046 43.6438 14.4148 43.4304C14.8378 43.5769 14.8378 43.5769 15.1044 43.9163C15.1422 43.9516 15.2278 43.9104 15.8474 44.0102C16.2183 44.0294 16.005 43.8728 15.9568 43.9307C15.8374 44.122 15.6564 43.7413 15.6019 44.0777C15.5012 43.9899 15.3886 43.9211 15.2875 43.8148C15.2624 43.7974 15.2963 43.6474 15.3066 43.5542C15.6787 43.6289 16.038 43.6857 16.3974 43.7425C16.399 43.8166 16.4005 43.8907 15.8474 44.0102C15.3921 44.0879 15.4952 44.2869 15.5851 44.4494C15.8319 44.4375 16.0674 44.4817 16.2756 44.3975C16.5697 44.2905 16.81 44.5571 17.0941 44.5619C17.3413 44.5685 17.5868 44.501 17.8618 44.6546C18.1368 44.8082 18.5176 44.7156 18.824 44.608C18.9589 44.5644 19.0186 44.4688 19.1818 44.5907C19.3322 44.6947 19.5415 44.6661 19.7254 44.6015C19.8849 44.5567 19.9765 44.7934 20.1468 44.6739C20.2924 44.5556 20.4767 44.5096 20.6359 44.4462C20.7338 44.4044 20.8611 44.5837 20.9554 44.3752C20.9674 44.356 21.0812 44.4803 21.156 44.5138C21.2809 44.5819 21.4942 44.7385 21.5181 44.7003C21.6482 44.4344 21.7537 44.7445 21.8635 44.6836C21.9857 44.622 22.0943 44.5055 22.2643 44.3675C22.1031 44.3382 21.9917 44.325 21.8675 44.294C21.8536 44.2204 21.8393 44.1284 21.8377 44.0543C21.8616 44.0161 21.8731 43.9784 21.8854 43.9778C22.1938 43.9629 22.4899 43.9486 22.7983 43.9337C22.8126 44.0257 22.827 44.1177 22.8421 44.2468C23.0864 44.1237 23.318 43.9827 23.5632 43.8967C23.6245 43.8752 23.7239 43.9075 23.7868 43.96C24.0009 44.1537 24.1844 44.0706 24.3778 43.8758C24.4414 43.9655 24.4924 44.0372 24.5688 44.1448C24.8008 44.0223 25.0563 43.843 25.309 44.109C25.3595 44.1622 25.4212 44.1592 25.4829 44.1562C26.2855 44.1545 27.0933 44.3936 27.9048 44.2245C28.286 44.1504 28.6461 44.2443 29.0337 44.4666C28.9872 44.5987 28.9402 44.7122 28.8829 44.919C29.2757 44.8073 29.6063 45.2549 30.0692 44.9543C29.7082 44.8234 29.4221 44.726 29.0616 44.6136C29.2442 44.4935 29.3537 44.4141 29.4754 44.334C29.5853 44.2731 29.6959 44.2492 29.8181 44.1876C29.9685 44.2916 30.1563 44.4123 30.3692 44.5504C30.2841 44.6102 30.2116 44.6878 30.1141 44.7482C30.2152 44.8546 30.3039 44.9615 30.4178 45.0858C30.4858 44.8044 30.5308 44.5982 30.5881 44.3915C30.5992 44.3353 30.6478 44.2958 30.6597 44.2767C30.7724 44.3455 30.873 44.4333 30.9606 44.4847C30.9267 44.6347 30.8925 44.7662 30.8591 44.9347C31.2069 45.0291 31.1981 44.6216 31.2921 44.3945C31.4031 44.3891 31.5499 44.3264 31.6502 44.3957C31.7632 44.483 31.8388 44.5535 31.9714 44.3987C31.9499 44.5481 31.916 44.6981 31.8945 44.8475C31.8945 44.8475 31.9327 44.9013 31.9574 44.9001C32.0812 44.9127 32.2041 44.8882 32.3275 44.8822C32.6976 44.8643 33.0784 44.7717 33.5305 45.1208C33.4266 44.8847 33.4 44.7933 33.3347 44.6295C33.6069 44.6534 33.8405 44.6051 34.0645 44.6869C34.2512 44.7521 34.4171 44.4288 34.6328 44.6966C34.7725 44.8752 35.067 44.7868 35.3022 44.8125C35.3117 44.6823 35.3328 44.5143 35.3416 44.347C35.3662 44.3458 35.3786 44.3452 35.4033 44.344C35.4192 44.5102 35.4474 44.6757 35.4637 44.8604C35.7228 44.8478 35.9818 44.8353 36.2779 44.821C36.2875 44.6907 36.3086 44.5228 36.3289 44.3178C36.9644 44.5838 37.5896 44.3681 38.2322 44.3927C38.2307 44.3186 38.2414 44.2439 38.2414 44.2439C37.9028 44.0006 37.5514 43.7394 37.2008 43.5153C37.0504 43.4113 37.0388 43.449 36.8817 43.03C37.2601 42.8263 37.4774 43.1681 37.7193 43.5088C37.7416 43.3964 37.7639 43.2841 37.8196 43.0032C37.8622 43.2608 37.9032 43.4443 37.9318 43.6283C37.9676 43.5709 38.0158 43.513 38.0516 43.4556C38.282 43.259 38.5125 43.0624 38.7548 42.8467C38.6414 42.7409 38.6613 42.5174 38.4778 42.6005C38.3191 42.6823 38.0596 42.6763 37.9577 42.5329C37.7791 42.2634 37.5936 42.8287 37.4619 42.4456C37.1654 42.4414 36.8562 42.4193 36.5474 42.4157C36.5251 42.528 36.5144 42.6027 36.4921 42.7151C36.2525 43.0605 36.1077 42.6409 35.9179 42.4276C35.9195 42.5017 35.8975 43.2074 35.8884 43.3562C35.7682 42.9355 35.6874 42.6242 35.5935 42.2764C35.4857 42.4299 35.3898 42.5644 35.27 42.7371C35.1558 42.5942 35.0539 42.4508 34.9779 42.3618C34.892 42.3845 34.8191 42.4436 34.7813 42.4084C34.6679 42.3026 34.5672 42.2147 34.5243 42.5135C34.5617 42.5303 34.5995 42.5655 34.6245 42.5829C34.5406 42.6982 34.4809 42.7938 34.4088 42.89C34.41 42.9456 34.4116 43.0197 34.4132 43.0938C34.611 43.1028 34.8084 43.0932 35.0057 43.0837C35.0125 43.3986 35.0189 43.695 35.0248 43.9729C34.9046 43.5522 34.558 43.5133 34.4132 43.0938C34.3042 43.1918 34.2083 43.3262 34.0996 43.4428C34.0741 43.4069 34.0359 43.3531 33.985 43.2814C33.796 43.68 33.5536 43.8957 33.2488 43.5024C33.0049 43.6441 32.8003 43.3201 32.5536 43.3321C32.5042 43.3345 32.4521 43.2072 32.3885 43.1175C32.6897 42.7691 33.1071 43.2311 33.2803 42.6664C33.1048 42.5451 32.9166 42.4058 32.7037 42.2678C32.5731 42.5152 32.3988 42.4494 32.2217 42.254C32.092 42.5384 31.8564 42.4942 31.7191 42.4267C31.5564 42.3233 31.3984 42.4422 31.2352 42.3202C31.0972 42.2156 30.8894 42.3184 30.7167 42.3268C30.7601 42.0465 30.7927 41.8409 30.825 41.6168C31.1445 41.5457 31.4768 41.4926 31.87 41.3994C31.8835 41.4544 31.9488 41.6181 32.0021 41.801C32.0383 41.7621 32.0745 41.7233 32.1107 41.6845C32.1211 41.5912 32.1434 41.4789 32.1653 41.348C32.2516 41.3438 32.3503 41.3391 32.4737 41.3331C32.4872 41.3881 32.5143 41.498 32.5541 41.6259C32.6404 41.6218 32.7391 41.617 32.8625 41.611C32.8732 41.5363 32.8955 41.424 32.9297 41.2925C33.0161 41.2883 33.1148 41.2836 33.2135 41.2788C33.26 41.7216 33.539 41.4856 33.689 41.571C33.8514 41.6559 34.0467 41.5537 34.2326 41.5818C34.3066 41.5783 34.3703 41.6679 34.4578 41.7193C34.5052 41.6243 34.5645 41.5102 34.6118 41.4151C34.9095 41.4749 35.1475 41.6303 35.4543 41.5413C35.7858 41.4511 36.177 41.2653 36.518 41.6197C36.7922 41.1613 36.9422 41.8217 37.1766 41.8104C37.3222 41.6921 37.4798 41.5546 37.6374 41.4172C37.7504 41.5044 37.8913 41.7387 37.9936 41.3258C38.0465 41.4901 38.0863 41.618 38.1388 41.7638C38.4063 41.5654 38.6621 41.4047 38.9757 41.6306C39.1261 41.7346 39.3581 41.6121 39.5424 41.5661C39.653 41.5422 39.7629 41.4813 39.8611 41.458C39.9017 41.6229 39.9284 41.7144 39.9686 41.8608C40.1345 41.5375 40.3017 41.2698 40.6284 41.5322C40.6543 41.5865 40.7068 41.7324 40.7597 41.8967C40.7358 41.9349 40.7004 42.0108 40.6526 42.0873C40.7147 42.1029 40.778 42.174 40.8269 42.1531C41.1318 41.9714 41.4243 41.7904 41.7287 41.5902C41.7924 41.6799 41.8568 41.8066 41.9448 41.8765C42.0451 41.9458 42.1692 41.9769 42.2806 41.9901C42.3551 42.005 42.4283 41.9644 42.5142 41.9417C42.5174 42.0899 42.5206 42.2381 42.5242 42.4048C42.3144 42.4149 42.0924 42.4257 41.8827 42.4358C41.8023 42.7179 41.7462 42.9802 41.6431 43.3561C41.5014 42.5099 41.0151 42.8672 40.7366 42.5469C40.6836 42.9574 40.6307 43.368 40.567 43.8532C40.678 43.8479 40.7644 43.8437 40.8384 43.8401C40.77 43.5281 40.9407 43.4272 41.0708 43.1612C41.2121 43.414 41.3152 43.613 41.4437 43.8479C41.503 43.7338 41.5623 43.6196 41.6574 43.4481C41.7808 43.4422 41.9388 43.3233 42.1282 43.5181C42.2042 43.6071 42.3984 43.4494 42.6188 43.3645C42.5611 43.5528 42.5388 43.6651 42.4788 43.7422C42.3948 43.8575 42.2977 43.9364 42.189 44.0529C42.2682 44.2902 42.3466 44.4904 42.4385 44.7456C42.458 44.5036 42.4791 44.3356 42.4982 44.0751C42.8452 44.1325 43.1923 44.1899 43.5767 44.264C43.5233 44.0811 43.4832 43.9347 43.4171 43.7339C43.6145 43.7244 43.7625 43.7172 43.9352 43.7089C43.9508 43.8565 43.9663 44.0041 43.9826 44.1887C44.0443 44.1858 44.1187 44.2007 44.205 44.1965C44.1521 44.0322 44.1 43.9049 44.0339 43.7041C44.2552 43.6563 44.4398 43.6288 44.6492 43.6002C44.7089 43.5046 44.7805 43.3898 44.876 43.2368C45.0431 43.544 45.2103 43.8512 45.3897 44.1578C45.5728 44.0562 45.7558 43.9546 45.9389 43.853C45.9003 43.7807 45.8498 43.7275 45.7857 43.6194C46.0448 43.6068 46.2791 43.5955 46.5382 43.583C46.541 43.7127 46.5442 43.8609 46.5493 44.1017C46.7205 44.0192 46.9266 43.8424 46.9648 43.8962C47.1311 44.1663 47.2342 43.7904 47.3715 43.8579C47.5211 43.9249 47.67 43.9548 47.8315 44.0026C47.9617 43.7367 48.1296 43.506 48.3743 43.4015L48.9633 43.2246C49.1121 43.2545 49.2482 43.2665 49.4205 43.2396C49.7767 43.1482 49.7906 43.2217 49.9303 42.8255C49.9534 42.7502 49.9765 42.6749 50.0231 42.5428C49.7732 42.4066 49.4986 42.2715 49.647 41.708C50.0187 41.7642 50.105 42.3349 50.4584 42.6887C50.4449 42.6337 50.2706 42.568 50.4234 42.2082C50.5611 42.2943 50.7111 42.3798 50.8361 42.4479C50.84 42.6331 50.8432 42.7813 50.8492 43.0592C50.77 42.822 50.7306 42.7126 50.6908 42.5847C50.6427 42.6427 50.6068 42.7001 50.4707 42.6881C50.302 42.8817 50.2467 43.1811 50.0151 43.3221C50.2749 43.3466 50.5575 43.2773 50.7302 43.8439C50.7604 43.5271 50.7692 43.3598 50.7775 43.174C51.0529 43.3461 51.2949 43.6867 51.6204 43.3187C51.729 43.2021 51.9284 43.2852 52.0888 43.2775C52.1055 43.4806 52.121 43.6282 52.1369 43.7944C52.359 43.7836 52.581 43.7729 52.8154 43.7616C52.8751 43.666 52.9467 43.5512 53.0303 43.4174C53.166 43.4108 53.4024 43.4921 53.474 43.3774C53.6412 43.1097 53.747 43.4383 53.8815 43.3762C54.028 43.2949 54.1617 43.1957 54.3077 43.096C54.3189 43.0398 54.3292 42.9466 54.34 42.8719C54.3519 42.8527 54.3638 42.8336 54.3881 42.8139C54.4538 42.9962 54.5314 43.1593 54.6098 43.3595C54.9428 43.3434 55.2755 43.3088 55.5967 43.3118C55.9055 43.3154 56.2226 43.1332 56.5131 43.4344C56.5474 43.3029 56.5696 43.1906 56.6031 43.022C57.0945 43.4804 57.6365 43.4171 58.1666 43.373C58.6226 43.3324 59.0668 43.3109 59.5236 43.3073C59.7086 43.2984 59.8857 42.9189 60.056 43.3743C60.113 43.149 60.1353 43.0367 60.1575 42.9243C60.2479 43.1054 60.3382 43.2865 60.4162 43.4682C60.4763 43.3911 60.5117 43.3152 60.5718 43.2381C60.6721 43.3074 60.7724 43.3768 60.8726 43.4461C60.9574 43.3678 61.0422 43.2895 61.1512 43.1915C61.2288 43.3547 61.306 43.4993 61.3577 43.6081C61.4918 43.5274 61.5762 43.4306 61.6626 43.4264C62.2276 43.2878 62.8003 43.5012 63.357 43.5485C63.5429 43.5766 63.7506 43.4738 63.9643 43.6489C64.1402 43.7888 64.4092 43.6645 64.6312 43.6537C64.9026 43.6406 65.1621 43.6466 65.4331 43.615C66.159 43.4871 66.8705 43.8422 67.6091 43.7323C67.7937 43.7048 67.9823 43.8626 68.1889 43.7042C68.2983 43.6248 68.508 43.6146 68.5968 43.7216C68.8116 43.9523 69.0174 43.7569 69.2291 43.8394C69.249 43.6159 69.2697 43.4294 69.2896 43.2059C69.4301 43.4217 69.5451 43.6015 69.6346 43.7456C69.7094 43.779 69.7464 43.7773 69.7838 43.794C69.9577 43.8412 70.1396 43.6841 70.3051 43.9171C70.4452 44.1144 70.6414 43.4743 70.8117 43.9297C70.9526 43.5891 71.1098 44.008 71.2686 43.9262C71.4401 43.8622 71.6379 43.8712 71.8237 43.8993C71.9351 43.9125 72.0366 44.0374 72.148 44.0505C72.2348 44.0649 72.3144 43.7458 72.419 44.0189C72.4322 44.0554 72.5054 44.0147 72.5304 44.0321C72.7441 44.2072 72.9527 43.5666 73.1719 44.001C73.4051 43.9341 73.6558 44.1074 73.8723 43.8373C74.4358 44.1995 75.0538 43.6504 75.6177 44.0311C75.718 44.1004 75.8529 44.0568 75.9763 44.0508C76.6548 44.018 77.3333 43.9852 78.0118 43.9524C78.2215 43.9423 78.4185 43.9142 78.6286 43.9226C78.7894 43.9333 79.0154 44.1079 79.1121 44.0105C79.3174 43.7965 79.5057 43.9358 79.7018 43.8707C80.0202 43.744 80.3107 44.0452 80.6295 43.9371C80.6907 43.9156 80.7795 44.0225 80.8885 43.9245C80.9976 43.8266 81.1571 43.7817 81.2813 43.8128C82.0012 43.982 82.7915 43.9809 83.4788 43.7807C83.5894 43.7568 83.7151 43.862 83.8385 43.8561C84.246 43.8549 84.665 43.8161 85.0721 43.7964C85.2078 43.7898 85.3543 43.7086 85.4697 43.907C85.5083 43.9793 85.6444 43.9913 85.6929 43.9518C86.0069 43.6214 86.3555 43.7529 86.6886 43.7368C87.49 43.6795 88.2919 43.6407 89.0942 43.6204C89.2916 43.6109 89.4985 43.4711 89.6772 43.7406C89.7026 43.7765 89.7886 43.7537 89.8375 43.7328C90.3246 43.4126 90.8217 43.5554 91.3282 43.568C91.3529 43.5668 91.3915 43.6391 91.417 43.675C91.696 43.439 91.9467 43.0374 92.3136 43.4462C92.3896 43.5352 92.5483 43.4534 92.6717 43.4474C93.8067 43.3925 94.9293 43.3382 96.0642 43.2833C96.2986 43.272 96.531 43.168 96.7459 43.3987C96.9843 42.9978 97.2147 43.3761 97.4499 43.4018C97.697 43.4084 97.9437 43.3964 98.19 43.366C98.3377 43.3403 98.4841 43.259 98.6923 43.1748C98.7941 43.3182 98.9469 43.5334 99.0743 43.7127C99.2342 43.6864 99.4213 43.7701 99.3763 43.4013C99.5331 43.2268 99.6696 43.2573 99.7977 43.4737C99.9008 43.0978 100.081 43.4229 100.228 43.3787C100.339 43.3548 100.509 43.2353 100.573 43.3249C100.75 43.5389 100.932 43.3817 101.105 43.4104C101.254 43.4403 101.437 43.3202 101.553 43.5742C101.625 43.4595 101.697 43.3447 101.792 43.1918C101.953 43.184 102.126 43.1942 102.31 43.1667C102.889 43.0646 103.454 42.963 104.045 42.8418C104.054 42.693 104.075 42.525 104.093 42.2274C104.199 42.5561 104.278 42.7748 104.357 43.0306C104.65 42.831 104.916 42.5771 105.301 42.7068C105.588 42.8228 105.929 42.6208 106.26 42.4935C106.186 42.4786 106.111 42.4451 106.036 42.4302C105.702 42.3907 105.371 42.518 105.034 42.3118C104.833 42.1916 104.553 42.3721 104.319 42.4019C104.318 42.3649 104.317 42.2908 104.302 42.1802C104.45 42.1546 104.609 42.1097 104.758 42.1211C105.167 42.194 105.558 42.0268 105.925 41.8421C106.267 41.6772 106.562 41.6073 106.898 41.7394C106.998 41.7717 107.131 41.654 107.254 41.6295C107.451 41.5829 107.659 41.5172 107.857 41.5076C108.054 41.4981 108.241 41.5632 108.452 41.6087C108.473 41.4593 108.484 41.3846 108.493 41.2543C108.772 40.9812 108.93 41.4742 109.201 41.4426C109.201 41.4241 109.223 41.3117 109.246 41.2179C109.282 41.1976 109.319 41.1587 109.356 41.157C110.097 41.1953 110.809 40.9939 111.479 40.535C111.601 40.455 111.762 40.4843 111.897 40.4777C112.428 40.452 112.958 40.4264 113.513 40.3995C113.522 40.2137 113.519 40.0655 113.528 39.9167C113.831 39.6609 114.122 39.3873 114.522 39.0526C114.805 39.0019 115.202 39.0754 115.705 38.9398C115.53 38.8555 115.455 38.822 115.356 38.7712C115.391 38.6768 115.414 38.6015 115.449 38.5256C115.324 38.439 115.199 38.3708 115.111 38.3009C114.976 38.363 114.854 38.4246 114.659 38.5268C114.766 38.3361 114.802 38.2788 114.837 38.2029C114.621 37.9351 114.481 38.3128 114.26 38.3421C114.244 38.1759 114.228 38.0098 114.212 37.8437C114.79 37.723 115.331 37.6041 115.896 37.4841C115.956 37.3884 116.027 37.2737 116.099 37.159C116.651 36.9839 117.203 36.7903 117.742 36.6159C117.449 36.185 117.114 36.1085 116.724 36.3684C116.659 36.2232 116.582 36.0786 116.505 35.9154C116.577 35.8563 116.614 35.8174 116.65 35.7971C117.389 35.6872 118.14 35.5952 118.879 35.5039C119.101 35.4746 119.271 35.3551 119.424 34.9953C119.114 34.9176 118.866 34.8925 118.622 35.0527C118.537 35.1124 118.427 35.1733 118.341 35.159C117.895 35.0878 117.46 34.979 116.926 34.8565C117.359 34.3163 117.804 34.2948 118.234 34.2184C118.157 33.5174 117.714 33.5944 117.462 33.3285C117.52 33.1773 117.554 33.0458 117.625 32.857C117.177 32.7303 116.785 32.879 116.352 32.8258C116.385 32.6388 116.456 32.5055 116.567 32.4816C116.702 32.438 116.826 32.4876 116.856 32.1709C116.866 32.0592 117.085 31.8817 117.197 31.9134C117.482 31.9923 117.741 31.3678 118.023 31.8549C118.28 31.7497 118.537 31.6445 118.806 31.5203C118.929 31.4773 119.038 31.3978 119.159 31.2992C118.974 31.2711 118.773 31.1324 118.619 31.4366C118.464 31.1288 118.246 31.3063 118.048 31.2788C117.849 31.2513 117.665 31.2973 117.464 31.1401C117.301 31.0182 117.057 31.1413 116.859 31.1508C116.662 31.1603 116.452 31.1705 116.218 31.1818C116.645 31.5135 116.658 31.5315 117.214 31.5602C117.046 31.8094 116.858 31.6701 116.711 31.7143C116.527 31.7603 116.341 31.7322 116.131 31.7424C116.066 31.5971 115.989 31.434 115.885 31.2165C115.562 31.1023 115.1 31.4584 114.789 30.7688C115.44 30.626 116.043 30.5041 116.657 30.3632C116.668 30.2699 116.678 30.1952 116.689 30.102C117.069 30.0094 117.462 29.8977 117.843 29.8051C117.899 29.5428 117.956 29.2989 118.012 29.0366C118.668 29.0976 119.268 28.8831 119.869 28.6686C119.905 28.6483 119.929 28.5915 120 28.4583C119.925 28.4248 119.851 28.4099 119.776 28.3764C119.8 28.3381 119.812 28.319 119.836 28.2808C119.823 28.2629 119.797 28.227 119.797 28.227C119.737 28.2856 119.665 28.4003 119.604 28.4033C118.679 28.4665 117.753 28.4928 116.803 28.5387C116.769 28.1138 116.324 28.0797 116.41 27.4821C116.643 27.3967 116.876 27.3112 117.121 27.2252C117.158 27.2049 117.219 27.2019 117.218 27.1649C117.365 26.5272 117.739 26.6946 118.047 26.6241C118.317 26.5739 118.586 26.4496 118.857 26.418C119.115 26.3684 119.388 26.3923 119.708 26.3768C119.519 26.2005 119.405 26.0392 119.207 26.0302C118.787 26.0134 118.359 26.2381 117.957 25.9052C117.644 26.2912 117.338 25.8239 117.007 25.9326C116.676 26.0413 116.304 25.9666 115.959 26.0018C115.454 26.0633 114.971 26.0125 114.459 25.7776C114.617 25.6217 114.762 25.4663 114.87 25.3498C115.347 25.1413 115.836 25.4885 116.259 25.0601C116.505 25.5489 116.727 24.9818 116.962 25.0075C117.197 25.0332 117.42 25.041 117.65 24.8259C117.783 24.6897 118.008 24.8086 118.192 24.7626C118.364 24.7172 118.523 24.6353 118.694 24.5529C118.84 24.4716 118.986 24.3718 119.23 24.2117C119.056 24.183 118.994 24.1675 118.945 24.1698C118.401 24.1405 117.869 24.0921 117.325 24.0627C117.275 24.0651 117.213 24.0125 117.163 23.9964C117.088 23.9629 117.013 23.9295 116.95 23.8769C116.836 23.7526 116.747 23.6085 116.645 23.4651C116.982 23.0408 117.381 23.2255 117.748 23.0594C117.401 23.0205 117.087 22.7576 116.73 22.8119C116.508 22.8412 116.271 22.7414 116.036 22.6971C116.03 22.4193 116.026 22.2155 116.02 21.9376C116.168 21.9304 116.329 21.9597 116.476 21.897C116.623 21.8528 116.73 21.6436 116.916 21.6903C117.077 21.7196 117.249 21.6741 117.409 21.6664C117.57 21.6586 117.742 21.6503 117.952 21.6401C118.01 21.4519 118.067 21.2451 118.136 21.0007C118.036 20.9499 117.986 20.9153 117.936 20.8991C117.811 20.831 117.686 20.7628 117.549 20.6953C117.62 20.5621 117.656 20.5047 117.691 20.4288C117.653 20.375 117.628 20.3391 117.602 20.3033C117.679 19.8545 117.942 20.0087 118.126 19.9627C118.368 19.747 118.277 18.954 118.774 19.0783C118.724 19.0622 118.662 19.0281 118.612 19.012C118.55 18.9964 118.476 19.0185 118.45 18.9641C118.374 18.8566 118.327 18.9701 118.277 18.954C117.869 18.9366 117.473 18.8631 117.064 18.8087C117.014 18.7925 116.963 18.7023 116.9 18.6312C117.266 18.428 117.607 18.2446 117.998 18.0402C118.042 17.7785 117.994 17.2801 118.401 17.2604C118.054 17.1659 117.733 17.2 117.413 17.2155C117.092 17.231 116.759 17.2471 116.45 17.262C116.361 17.1365 116.297 17.0284 116.194 16.8479C116.328 16.7487 116.414 16.7075 116.487 16.6483C116.486 16.6298 116.486 16.6113 116.485 16.5742C116.227 16.6238 116.152 16.0339 115.859 16.1594C115.761 16.2012 115.621 16.0411 115.522 15.9903C115.548 15.4883 115.95 15.8027 115.99 15.3742C115.99 15.3557 116.526 15.0145 116.55 15.0133C116.772 15.0025 116.994 14.9918 117.201 14.852C116.374 14.8364 115.533 14.8028 114.804 14.801C114.542 14.6468 114.473 14.3163 114.24 14.3832C114.007 14.4501 113.817 14.2368 113.664 14.0216C113.473 13.7527 113.198 13.6176 113.103 13.1772C113.201 13.1724 113.3 13.1676 113.423 13.1617C113.437 13.2167 113.464 13.3266 113.491 13.4551C113.55 13.3224 113.609 13.1713 113.655 13.0392C113.681 13.0936 113.719 13.1288 113.745 13.1832C114.088 13.0739 114.432 12.9646 114.787 12.8546C114.798 12.7799 114.796 12.6873 114.806 12.557C114.347 12.4865 113.901 12.4153 113.443 12.3448C113.44 12.2151 113.437 12.0669 113.434 11.9557C113.531 11.8398 113.615 11.743 113.7 11.6462C113.636 11.5566 113.61 11.4836 113.585 11.4848C113.486 11.4711 113.349 11.4221 113.276 11.4998C113.107 11.6748 112.973 11.7555 112.82 11.5033C112.278 11.5851 111.767 11.3502 111.257 11.1894C110.921 11.0759 110.588 11.092 110.254 11.071C110.203 10.9993 110.165 10.9455 110.076 10.82C110.071 10.5977 110.065 10.3013 110.055 9.8567C109.923 10.03 109.863 10.0886 109.815 10.165C109.767 10.2415 109.732 10.3174 109.625 10.5266C109.579 10.1208 109.549 9.88116 109.52 9.64152C109.458 9.64451 109.42 9.62777 109.322 9.63255C109.362 9.79749 109.414 9.92478 109.43 10.0539C109.445 10.2015 109.436 10.3503 109.438 10.4429C109.589 10.5839 109.702 10.6712 109.853 10.8122C109.768 10.8535 109.72 10.9114 109.658 10.9144C109.412 10.9634 109.331 10.652 109.179 10.4739C109.227 10.3975 109.251 10.3592 109.299 10.2827C109.211 10.2313 109.136 10.1793 109.061 10.1273C109.108 10.0138 109.142 9.88232 109.2 9.73114C109.025 9.62834 108.886 10.0245 108.718 9.69883C108.641 9.55421 108.348 9.73526 108.21 9.61214C108.071 9.48902 107.942 9.79199 107.85 9.53681C107.721 9.83978 107.519 9.64555 107.361 9.74593C107.321 9.59952 107.293 9.48956 107.267 9.39813C107.03 9.29831 106.728 9.5911 106.581 9.09748C106.962 8.98635 107.355 8.89316 107.759 8.76232C107.788 8.94638 107.804 9.13104 107.849 9.46271C107.929 9.19918 107.976 9.04859 108.022 8.91652C108.325 9.19861 108.559 9.18727 108.802 8.99009C108.899 8.91121 109.035 8.92317 109.146 8.89928C109.178 8.67518 109.21 8.45109 109.243 8.26404C108.944 8.13016 108.656 7.95862 108.358 7.89884C108.061 7.83906 107.753 7.8725 107.456 7.86829C107.283 7.85812 107.122 7.82882 106.899 7.80251C106.888 7.84016 106.828 7.9543 106.77 8.10548C106.931 8.11625 107.091 8.1085 107.239 8.10134C107.32 8.43122 107.251 8.63858 107.069 8.83278C106.978 8.61465 106.875 8.39712 106.758 8.12461C106.655 7.9256 106.552 7.74511 106.424 7.52877C106.278 7.64709 106.145 7.74628 105.999 7.86459C106.057 8.28829 106.178 8.17118 106.345 7.88494C106.362 8.08812 106.378 8.25425 106.408 8.51242C106.258 8.44548 106.171 8.39408 106.071 8.34327C105.998 8.40243 105.925 8.46159 105.804 8.56018C105.797 8.22672 105.791 7.94884 105.785 7.68948C105.598 7.58728 105.408 7.35539 105.298 7.43486C105.079 7.57528 104.906 7.56511 104.718 7.42585C104.578 7.82205 104.423 7.49575 104.261 7.44793C104.013 7.38576 103.765 7.32359 103.505 7.29906C103.245 7.27454 102.974 7.32472 102.703 7.33784C102.676 7.22788 102.649 7.11792 102.609 6.97151C102.56 7.02947 102.524 7.06832 102.488 7.12569C102.151 6.93801 102.338 6.46533 102.231 6.04401C102.096 6.12468 101.974 6.18622 101.84 6.26688C101.688 5.5139 101.688 5.5139 101.271 5.62682C101.296 5.66267 101.322 5.71705 101.398 5.82463C101.3 5.84793 101.189 5.87182 101.091 5.89512C101.129 5.94891 101.18 6.0021 101.218 6.05589C101.062 6.2489 100.838 6.20406 100.603 6.17834ZM45.0535 42.301C44.9962 42.5078 44.9739 42.6201 44.927 42.7337C44.8334 42.9793 44.7268 43.1884 44.5568 43.3265C44.5326 43.3462 44.4944 43.2924 44.4446 43.2762C44.4418 43.1466 44.4387 42.9984 44.4363 42.8872C44.2401 42.9523 44.0682 42.9977 43.8597 43.0635C43.8505 42.6374 43.843 42.2854 43.8326 41.8037C43.9118 42.041 43.9512 42.1503 43.9906 42.2597C44.1112 42.1241 44.2318 41.9884 44.352 41.8342C44.4176 42.0165 44.457 42.1259 44.4968 42.2538C44.7117 41.9096 44.8872 42.0309 44.9321 42.3996C45.2529 42.3841 45.4503 42.3746 45.623 42.3662C45.5943 42.1821 45.5788 42.0345 45.5506 41.869C45.5752 41.8678 45.5872 41.8487 45.6119 41.8475C45.728 42.0829 45.8319 42.319 45.9481 42.5545C46.3254 42.2951 46.3624 42.2934 46.7133 42.536C46.8092 42.4016 46.9048 42.2486 47.0365 42.0568C47.12 42.4978 47.4941 42.0903 47.5307 42.6448C47.3584 42.6717 47.1865 42.7171 47.0635 42.7416C47.0297 42.8916 47.007 42.9854 46.9843 43.0792C46.9362 43.1372 46.8876 43.1766 46.8271 43.2352C46.7985 43.0511 46.7579 42.8862 46.7293 42.7021C46.6576 42.8169 46.6218 42.8742 46.574 42.9507C46.4968 42.8061 46.4324 42.6794 46.3683 42.5712C46.005 42.9041 45.6305 42.7182 45.2736 42.7725C45.237 42.7929 45.1466 42.6118 45.0535 42.301ZM84.5313 43.3404C84.4183 43.2531 84.3176 43.1653 84.1796 43.0607C84.4092 42.827 84.5003 43.0452 84.318 43.1838C84.2098 43.3189 84.1258 43.4342 84.0781 43.5107C83.8668 43.4467 83.6535 43.2901 83.581 43.3678C83.4012 43.6176 83.2014 43.516 83.0048 43.5626C82.9065 43.5859 82.7569 43.5189 82.7091 43.5954C82.4938 43.9211 82.2682 43.7651 82.0581 43.7567C81.8989 43.2452 82.3184 43.2249 82.31 42.8358C82.5651 43.2129 82.7219 43.0385 82.8986 42.6405C82.749 42.5735 82.6244 42.5239 82.4994 42.4558C82.3371 42.3709 82.199 42.2663 82.277 41.8731C82.5257 41.9538 82.7621 42.0351 82.9364 42.1008C83.0152 42.3196 83.0677 42.4654 83.1206 42.6297C83.0856 42.7242 83.0506 42.8186 83.0036 42.9321C83.4131 43.0236 83.8222 43.0965 84.5313 43.3404ZM84.876 9.31268C84.9834 9.14058 85.1028 8.94936 85.2099 8.75873C85.4745 9.00556 85.7212 8.99363 85.9262 8.76118C86.2501 8.89388 86.537 9.02836 86.8737 9.17898C86.8016 9.27519 86.7288 9.33434 86.6814 9.42935C86.6098 9.54409 86.5636 9.69468 86.5286 9.78909C85.9572 9.63128 85.4104 9.47228 84.5763 8.58538C84.6818 8.89554 84.7618 9.16984 84.827 9.33359C84.7689 9.5033 84.7347 9.63477 84.7001 9.74772C84.4501 9.61145 84.2623 9.49071 84.0626 9.38911C83.8879 9.30483 83.7697 9.55163 83.622 9.57732C83.4867 9.6024 83.3359 9.47989 83.1871 9.44999C83.1501 9.45178 83.115 9.5462 83.0549 9.62329C83.0259 9.4207 83.0096 9.23604 82.9806 9.03345C82.7589 9.6376 82.735 9.67585 82.4747 9.6328C82.2018 9.57182 81.9399 9.45467 81.6661 9.35665C81.6578 9.5425 81.6609 9.6907 81.6629 9.78333C81.5865 9.67576 81.4974 9.55025 81.4464 9.47854C81.0644 9.51556 80.7556 9.51195 80.4739 9.6183C80.3636 9.66072 80.3043 9.77485 80.1655 9.63321C79.9379 9.38459 79.6012 9.80886 79.3704 9.41204C79.2303 9.78971 78.8889 9.41678 78.7607 9.77533C78.7086 9.64804 78.6676 9.46457 78.6055 9.44903C78.3815 9.36714 78.3278 9.16575 78.3214 8.86934C78.3186 8.73966 78.2291 8.59563 78.2267 8.48448C78.2367 8.37273 78.3206 8.2574 78.3441 8.20063C78.5188 8.28491 78.668 8.33332 78.793 8.40146C78.8073 8.49349 78.8216 8.58552 78.8363 8.69608C78.9593 8.67158 79.07 8.64769 79.1563 8.64352C79.1778 8.49412 79.1881 8.4009 79.1874 8.36384C79.3493 8.43019 79.4862 8.4792 79.6354 8.52762C79.6637 8.69316 79.6796 8.85929 79.7082 9.04335C79.828 8.87065 79.9235 8.71768 79.9952 8.60295C80.1452 8.68841 80.2455 8.75774 80.3458 8.82707C80.3915 8.65796 80.4142 8.56414 80.4369 8.47031C80.5519 8.6502 80.6792 8.82949 80.7938 8.99085C81.1217 8.73391 81.4043 8.66461 81.4823 8.84628C81.546 8.93593 81.622 9.02498 81.7111 9.15048C81.7565 8.96284 81.7788 8.85049 81.8126 8.7005C82.433 8.8374 83.0785 8.41674 83.7168 8.8124C83.7792 8.84647 83.9022 8.82198 83.9504 8.76401C84.1426 8.51364 84.369 8.70668 84.876 9.31268ZM12.5167 40.722C12.2218 40.7919 11.9743 40.7667 11.7797 40.906C11.5728 41.0458 11.3853 40.9436 11.1995 40.9155C10.9643 40.8898 10.7403 40.8079 10.517 40.763C10.4709 40.9136 10.4362 41.0266 10.3905 41.1957C10.3025 41.1258 10.215 41.0744 10.0769 40.9698C10.0303 41.1018 9.97221 41.2716 9.93719 41.366C9.71355 41.3026 9.56392 41.2357 9.41509 41.2058C9.24159 41.1771 9.00481 41.0773 9.00044 40.8735C8.99369 40.5585 8.55355 40.7653 8.75453 40.3476C8.98892 40.3362 9.22331 40.3249 9.44537 40.3142C9.46048 40.4432 9.47481 40.5353 9.50306 40.7008C9.56037 40.4941 9.59499 40.3811 9.64116 40.2305C9.93962 40.3274 10.2504 40.4236 10.5489 40.5204C10.5966 40.4439 10.6444 40.3674 10.6802 40.3101C10.6416 40.2378 10.603 40.1655 10.5123 39.9659C10.712 40.0675 10.7996 40.1189 10.8995 40.1697C10.9218 40.0573 10.944 39.945 10.9663 39.8326C11.0284 39.8482 11.0901 39.8452 11.1896 39.8775C11.1577 40.1201 11.1251 40.3257 11.0944 40.6239C11.4291 40.6818 11.7757 40.7207 12.1351 40.7775C12.229 40.5504 12.2867 40.3622 12.3691 40.1728C12.6007 40.0318 12.7177 40.3043 12.8705 40.5194C13.1654 39.8746 13.668 40.2769 14.0313 39.944C14.0337 40.0552 14.0349 40.1108 14.0365 40.1849C14.1988 40.2697 14.362 39.8168 14.5566 40.2524C14.4722 40.3492 14.3883 40.4646 14.2442 40.657C14.5021 40.5889 14.6764 40.6546 14.8694 40.4413C15.062 40.2094 15.3063 40.0863 15.5252 39.9274C15.5984 39.8868 15.6955 39.8079 15.7457 39.8426C16.023 40.1073 16.3283 39.9442 16.6008 39.9867C16.641 40.1331 16.6681 40.243 16.7222 40.463C16.8161 40.2359 16.8746 40.0847 16.9101 40.0088C17.1444 39.9975 17.3172 39.9891 17.5145 39.9796C17.505 40.1098 17.4946 40.2031 17.4851 40.3333C17.3605 40.2837 17.273 40.2323 17.1731 40.1815C17.1508 40.2939 17.1285 40.4062 17.1058 40.5C16.7123 40.5747 16.3155 40.5012 15.8857 40.6147C15.9621 40.7222 16.0003 40.776 16.064 40.8657C15.9295 40.9278 15.797 41.0826 15.6975 41.0503C15.2737 40.8668 14.8451 41.0359 14.4252 41.0377C14.2028 41.0299 13.9441 41.0609 13.6946 40.9432C13.6449 40.927 13.582 40.8744 13.5327 40.8768C13.4224 40.9193 13.3261 41.0352 13.2155 41.0591C13.1295 41.0818 13.0281 40.9569 12.9417 40.961C12.843 40.9658 12.7463 41.0632 12.6488 41.1236C12.57 40.9048 12.543 40.7949 12.5167 40.722ZM20.7478 7.62953C21.0932 7.61282 21.4788 7.74253 21.7709 7.54296C22.4037 7.10437 23.1068 7.64525 23.7006 7.11583C24.0042 7.4535 24.2963 7.25392 24.5888 7.07287C24.6377 7.05196 24.7245 7.06631 24.7623 7.10157C24.9911 7.40577 25.2924 7.05739 25.5192 7.26896C25.7711 7.49786 26.0393 7.33653 26.2864 7.34312C26.3728 7.33895 26.4567 7.22362 26.5292 7.14594C26.6545 7.2326 26.7799 7.31925 26.8802 7.38858C26.8849 7.61089 26.8893 7.81467 26.8952 8.09256C26.756 7.93239 26.6668 7.80689 26.5526 7.66405C26.2402 8.0686 25.9036 7.91798 25.5681 7.82293C25.5578 7.91616 25.547 7.99086 25.5367 8.08408C25.309 7.83546 25.0253 7.84918 24.8554 7.98722C24.5887 8.22265 24.3739 7.99196 24.1391 7.98477C23.9413 7.97579 23.7777 7.83534 23.5589 7.99429C23.3766 8.13291 23.1152 8.03429 22.8931 8.04502C22.6834 8.05517 22.4633 8.15854 22.2759 8.05633C22.0511 7.93739 21.9042 8.57502 21.6849 8.14054C21.5305 8.42618 21.4024 8.20984 21.2404 8.1435C21.0415 8.07894 20.8329 8.14466 20.6232 8.1548C20.5369 8.15898 20.4497 8.12611 20.2885 8.09681C20.4187 7.83089 20.5138 7.65939 20.6439 7.39347C20.3248 7.48308 20.1254 7.40001 20.0896 6.88248C20.525 7.02833 20.8839 6.49172 21.2083 6.64294C21.3738 6.87601 21.4633 7.02004 21.5525 7.14554C21.4307 7.22561 21.2623 7.43774 21.1995 7.38514C20.9854 7.19151 20.8934 7.51122 20.7478 7.62953ZM22.7188 43.103C22.3733 43.1197 22.0649 43.1346 21.7565 43.1495C21.7541 43.0384 21.7522 42.9458 21.749 42.7976C21.9973 42.8597 22.2329 42.904 22.4689 42.9667C22.4681 42.9297 22.48 42.9106 22.4792 42.8735C22.3917 42.8221 22.3165 42.7701 22.254 42.736C22.2504 42.5693 22.2472 42.4211 22.244 42.2729C22.4052 42.3022 22.5934 42.4415 22.6778 42.3447C22.8708 42.1313 22.979 42.5712 23.1609 42.414C23.258 42.3351 23.4335 42.4565 23.57 42.487C23.5803 42.3937 23.5911 42.319 23.6018 42.2443C23.7678 42.4959 23.9337 42.7475 24.112 42.9985C24.3193 42.8772 24.453 42.7781 24.5999 42.7153C24.771 42.6329 24.9723 42.8086 25.1148 42.5421C25.1387 42.5038 25.2509 42.554 25.3134 42.5881C25.5386 42.7256 25.7881 42.8433 25.9895 43.019C26.2282 43.2115 26.4471 43.0525 26.67 43.0788C26.6803 42.9856 26.6911 42.9109 26.7118 42.7245C26.7778 42.9253 26.8172 43.0346 26.8697 43.1804C27.005 43.1553 27.1527 43.1297 27.4109 43.0801C27.2239 42.9964 27.1491 42.9629 27.0492 42.9121C27.0584 42.7633 27.0548 42.5966 27.0735 42.3175C27.249 42.4388 27.3751 42.5626 27.4989 42.5751C27.6227 42.5877 27.7433 42.452 27.9136 42.3325C27.9076 42.6295 27.9004 42.871 27.8972 43.2976C27.8165 42.9863 27.7894 42.8763 27.7496 42.7484C27.7062 43.0287 27.3437 42.8237 27.4523 43.2821C27.8152 43.5056 28.1046 43.1763 28.4603 43.0664C28.3537 43.2756 28.247 43.4847 28.1404 43.6939C27.9291 43.6299 27.6867 43.8456 27.4949 43.5396C27.4818 43.5032 27.3843 43.5635 27.3357 43.603C27.0946 43.8743 26.9071 43.7721 26.6914 43.5043C26.5772 43.3615 26.3631 43.1678 26.3126 43.6895C26.3026 43.8013 26.1065 43.8664 25.9851 43.965C25.9067 43.7648 25.8291 43.6017 25.777 43.4744C25.6659 43.4797 25.5672 43.4845 25.4809 43.4887C25.459 43.6195 25.449 43.7313 25.4268 43.8436C25.3376 43.7181 25.274 43.6285 25.223 43.5568C25.2584 43.4809 25.2943 43.4235 25.4136 43.2323C25.1816 43.3548 25.0471 43.4169 24.9254 43.497C24.8362 43.3715 24.7475 43.2645 24.6584 43.139C24.5409 43.4229 24.3659 43.3201 24.2059 43.3464C23.8975 43.3613 23.5887 43.3577 23.2926 43.372C23.2803 43.3726 23.2671 43.3361 23.2417 43.3003C23.2524 43.2256 23.2628 43.1323 23.2612 43.0582C23.3837 43.0152 23.4944 42.9913 23.6046 42.9489C23.3193 42.8885 23.0634 42.4744 22.7478 42.7307C22.7367 42.7869 22.7275 42.9357 22.7188 43.103ZM3.33836 32.524C3.21897 32.7152 3.20743 32.7529 3.19509 32.7535C3.10795 32.7206 2.99652 32.7074 2.94519 32.6172C2.79119 32.3465 2.51821 32.2855 2.39643 32.3656C2.16482 32.5066 1.97739 32.4044 1.75653 32.4707C1.74819 32.0817 1.65309 31.6783 1.74821 31.5068C1.9261 31.1644 1.53771 30.905 1.77848 30.6152C2.15294 30.801 2.55208 30.9857 2.96355 31.1698C2.97109 31.5218 2.97825 31.8553 2.98778 32.2999C3.07533 32.3513 3.18794 32.42 3.33836 32.524ZM4.22259 32.8707C3.94602 32.643 3.73233 32.4679 3.53137 32.3107C3.46532 32.1099 3.43628 31.9073 3.35908 31.7627C3.28228 31.6366 3.16927 31.5493 3.05586 31.4435C3.12829 31.3659 3.15177 31.3091 3.18838 31.2888C3.22499 31.2685 3.27434 31.2661 3.31174 31.2828C3.42357 31.3145 3.53698 31.4203 3.63567 31.4155C3.75903 31.4095 3.96478 31.2141 3.99064 31.2685C4.10763 31.541 4.27319 31.1992 4.42559 31.3958C4.54059 31.5757 4.77459 31.5459 4.98629 31.6283C4.9262 31.7054 4.88998 31.7443 4.85337 31.7646C4.80482 31.804 4.75587 31.8249 4.68265 31.8656C4.98309 32.055 5.00975 32.1465 4.92618 32.2803C4.77695 32.2319 4.65239 32.1823 4.55251 32.1315C4.43511 32.4153 4.31651 32.6436 4.22259 32.8707ZM30.9371 43.3917C30.3068 43.9414 29.6788 43.4526 29.0262 43.5398C29.0473 43.3718 29.058 43.2971 29.0807 43.2033C29.3151 43.192 29.5487 43.1436 29.7592 43.1705C29.9944 43.1962 30.2487 42.9614 30.4536 43.3038C30.6443 42.9793 30.8209 43.1562 31.0211 43.2764C31.1087 43.3278 31.2571 43.3391 31.3172 43.2621C31.5329 42.9549 31.8588 43.1802 32.0721 42.7619C32.1031 43.0571 32.1314 43.2227 32.1473 43.3888C32.2344 43.4217 32.3092 43.4552 32.2595 43.439C32.2137 43.6081 32.1449 43.8525 32.0529 44.1723C31.8731 43.8471 31.7573 43.6302 31.6419 43.4318C31.5814 43.4904 31.5571 43.5101 31.5209 43.5489C31.5595 43.6212 31.5977 43.675 31.6487 43.7467C31.5519 43.8441 31.468 43.9595 31.3474 44.0951C31.1942 43.8614 31.0784 43.6445 30.9371 43.3917ZM20.3224 40.1961C20.0383 40.1913 19.8083 40.4064 19.5321 40.1972C19.3065 40.0413 18.9993 40.1117 18.7326 40.3472C18.6359 40.4446 18.5074 40.7846 18.3275 40.4595C18.2889 40.3872 18.1429 40.487 18.0183 40.4374C17.8687 40.3704 17.7083 40.3782 17.6029 40.068C18.4418 39.4526 19.3081 40.1154 20.1314 39.9272C20.1951 40.0168 20.2588 40.1065 20.3224 40.1961ZM92.2447 43.1157C92.1317 43.0285 92.0557 42.9394 91.994 42.9424C91.8583 42.949 91.7338 42.8993 91.6017 43.0726C91.5416 43.1497 91.3744 42.8425 91.2196 43.1097C91.1364 43.262 90.7242 43.0409 90.6593 42.8957C90.719 42.8001 90.7668 42.7236 90.7668 42.7236C91.0461 42.5061 91.2845 42.68 91.5281 42.5199C91.7107 42.3997 91.9861 42.5719 92.2344 42.634C92.2372 42.7637 92.2404 42.9119 92.2447 43.1157ZM79.056 42.5481C78.678 42.1955 78.2979 42.3252 77.8534 42.3281C78.0226 42.153 78.1181 42.0001 78.2283 41.9576C78.3505 41.8961 78.4993 41.926 78.6227 41.92C78.6438 41.7521 78.6545 41.6774 78.6641 41.5471C78.7878 41.5597 78.8989 41.5543 79.0596 41.5651C78.99 41.7725 78.943 41.886 78.9199 41.9613C78.9737 42.1627 79.015 42.3647 79.056 42.5481ZM12.3456 39.6547C12.8152 39.0941 13.2295 39.4079 13.6529 39.5729C13.0786 39.8603 13.0786 39.8603 12.3456 39.6547ZM43.496 42.228C43.3622 42.3272 43.289 42.3678 43.2281 42.4078C43.2289 42.4449 43.2421 42.4813 43.2429 42.5184C43.3909 42.5112 43.5513 42.5035 43.724 42.4951C43.7164 42.718 43.7076 42.8854 43.6889 43.1644C43.4995 42.9696 43.3857 42.8453 43.209 42.6684C43.0733 42.675 42.9006 42.6833 42.6909 42.6935C42.9074 42.4234 43.0877 42.1921 43.2083 42.0565C43.3328 42.1061 43.408 42.1581 43.496 42.228ZM77.4745 9.68917C77.7786 9.47048 77.6246 9.19976 77.6696 8.99359C77.7372 8.6936 77.744 8.43364 78.0142 8.36494C78.0317 8.60518 77.8144 8.83822 78.0536 9.0492C78.1165 9.10179 78.0743 9.43763 78.079 9.65994C77.9063 9.66829 77.7706 9.67485 77.4745 9.68917ZM84.0567 41.3605C83.8107 41.9844 83.4772 41.4071 83.2349 41.6228C83.2305 41.419 83.2277 41.2893 83.2238 41.1041C83.5222 41.2009 83.8247 40.9081 84.0567 41.3605ZM86.845 8.42003C86.7726 8.49771 86.6882 8.59451 86.6039 8.69132C86.4542 8.62438 86.2795 8.5401 86.1052 8.47435C86.1021 8.32615 86.0989 8.17794 86.0953 8.01121C86.3229 8.25983 86.6672 7.61266 86.845 8.42003ZM61.0589 41.1932C61.8326 40.9888 61.8326 40.9888 62.026 41.3689C61.7928 41.4358 61.5476 41.5219 61.2655 41.6097C61.2141 41.5195 61.1493 41.3742 61.0589 41.1932ZM88.3123 8.31198C88.1037 8.95258 88.0548 8.9735 87.674 8.49121C87.7317 8.30297 87.8013 8.09561 87.8586 7.88885C88.0102 8.04842 88.1614 8.18946 88.3123 8.31198ZM29.1492 7.81665C28.9992 8.30607 28.879 8.46023 28.6418 8.34189C28.4922 8.27495 28.3414 8.15243 28.4337 7.85125C28.6681 7.83992 28.9025 7.82858 29.1492 7.81665ZM87.7786 9.91409C87.6775 9.80771 87.5645 9.72045 87.4507 9.59614C87.3997 9.52443 87.3603 9.41507 87.2827 9.25192C87.5418 9.23939 87.7145 9.23103 87.9119 9.22149C87.964 9.34878 88.0289 9.494 88.0937 9.63922C87.9847 9.73722 87.8757 9.83521 87.7786 9.91409ZM44.6918 7.58422C44.432 7.5597 44.1653 7.79513 43.9457 7.34213C44.0054 7.24652 44.0531 7.17004 44.1248 7.0553C44.2979 7.06548 44.4833 7.07506 44.6807 7.06551C44.6847 7.25076 44.687 7.36192 44.6918 7.58422ZM30.2941 41.624C30.4445 41.728 30.5822 41.814 30.7828 41.9527C30.5862 41.9993 30.476 42.0417 30.3653 42.0656C30.4672 42.209 30.5559 42.316 30.6578 42.4594C30.5122 42.5777 30.4027 42.6572 30.3056 42.7361C29.9272 42.365 30.2284 42.0166 30.2941 41.624ZM21.1202 42.2716C21.4561 42.3852 21.8071 42.053 22.1398 42.5932C21.7697 42.6111 21.4489 42.6266 21.1282 42.6421C21.1254 42.5125 21.1238 42.4384 21.1202 42.2716ZM1.57913 29.9572C1.6635 29.8604 1.74668 29.708 1.84497 29.6847C2.00455 29.6399 2.16492 29.6321 2.32609 29.6614C2.37583 29.6776 2.42836 29.8234 2.46735 29.9142C2.28469 30.0343 2.15257 30.2076 2.01647 30.1957C1.88117 30.2208 1.74189 30.0606 1.57913 29.9572ZM89.2267 43.4657C89.1368 43.3031 89.0723 43.1764 89.0206 43.0676C89.1037 42.9153 89.1754 42.8005 89.1993 42.7623C89.4336 42.751 89.6064 42.7426 89.8161 42.7325C89.5992 42.984 89.4189 43.2153 89.2267 43.4657ZM108.284 8.45878C108.189 8.64881 108.106 8.81972 108.023 8.9721C107.933 8.79102 107.815 8.48145 107.778 8.48324C107.62 8.58363 107.52 8.55135 107.401 8.18621C107.726 8.37448 108.039 7.98845 108.284 8.45878ZM51.9758 43.1902C51.8747 43.0838 51.8114 43.0127 51.7613 42.978C51.819 42.7898 51.8652 42.6392 51.9233 42.4695C51.9973 42.4659 52.084 42.4803 52.1576 42.4582C52.2189 42.4366 52.254 42.3422 52.326 42.246C52.4048 42.4647 52.445 42.6112 52.5106 42.7934C52.3013 42.8221 52.1413 42.8484 52.006 42.8735C51.9965 43.0037 51.9861 43.097 51.9758 43.1902ZM29.8802 41.9036C29.9336 42.0865 29.9737 42.2329 30.0275 42.4343C29.6156 42.2317 29.6156 42.2317 29.6733 41.4685C29.8237 41.5725 29.9614 41.6586 30.162 41.7973C30.0271 41.8409 29.9781 41.8618 29.8802 41.9036ZM30.2452 8.2458C29.9614 8.25953 29.69 8.27265 29.3939 8.28697C29.5675 7.74078 29.8814 7.98523 30.127 7.91772C30.1516 7.91653 30.2018 7.95119 30.2396 7.98645C30.2412 8.06055 30.2428 8.13465 30.2452 8.2458ZM81.9686 42.4629C81.7835 42.4719 81.5862 42.4814 81.3764 42.4916C81.3844 42.2872 81.3808 42.1204 81.3892 41.9346C81.6264 42.0529 81.8134 42.1366 82.0004 42.2203C81.9781 42.3326 81.9793 42.3882 81.9686 42.4629ZM19.261 42.5284C19.2586 42.4173 19.2443 42.3253 19.2563 42.3061C19.5699 41.9572 19.8281 42.4825 20.1246 42.4867C19.8532 42.4998 19.5818 42.5129 19.261 42.5284ZM87.048 8.09495C87.2625 8.30711 87.5458 8.27487 87.5685 8.75593C87.151 8.86885 87.1379 8.83239 87.048 8.09495ZM3.25773 28.1884C2.95171 28.3145 2.84388 27.8932 2.61706 27.6816C3.00626 27.4032 3.10294 27.8807 3.25773 28.1884ZM48.9789 8.24849C48.7624 7.9437 48.6223 7.74649 48.4691 7.51281C48.9351 7.36046 48.9861 7.43218 48.9789 8.24849ZM49.3075 43.1523C48.9211 42.9856 48.9211 42.9856 48.9426 42.2613C48.992 42.2589 49.0537 42.2559 49.103 42.2535C49.1583 42.529 49.2256 42.7854 49.3075 43.1523ZM12.1107 43.6717C11.8126 43.5934 11.5392 43.5139 11.2659 43.4344C11.2651 43.3973 11.2647 43.3788 11.2762 43.3411C11.5476 43.328 11.819 43.3149 12.1027 43.3012C12.1055 43.4308 12.1071 43.5049 12.1107 43.6717ZM80.6458 41.8222C80.6447 41.7666 80.6439 41.7296 80.6427 41.674C80.8277 41.665 81.0251 41.6555 81.2101 41.6465C81.2169 41.9615 81.2232 42.2579 81.2296 42.5543C81.1428 42.5399 81.0808 42.5244 81.0557 42.5071C81.0879 42.283 81.1082 42.078 81.1512 41.7792C80.9419 41.8079 80.7939 41.815 80.6458 41.8222ZM47.8992 42.5528C48.1073 42.4686 48.2912 42.4041 48.4993 42.3198C48.5375 42.3736 48.5889 42.4638 48.6398 42.5356C48.5308 42.6336 48.4337 42.7124 48.3242 42.7919C48.2987 42.7561 48.2482 42.7029 48.21 42.6491C48.1742 42.7064 48.126 42.7644 48.0902 42.8218C48.0389 42.7315 47.9756 42.6604 47.8992 42.5528ZM77.4391 43.739C77.5848 43.6207 77.7185 43.5215 77.8399 43.4229C77.9664 43.5652 78.1411 43.6494 78.0249 43.9889C77.8379 43.9052 77.6385 43.8221 77.4391 43.739ZM101.235 7.42737C101.293 7.25765 101.341 7.16264 101.363 7.06882C101.385 6.93795 101.395 6.80768 101.415 6.62123C101.704 6.84834 101.575 7.15131 101.63 7.4268C101.482 7.41544 101.383 7.42021 101.235 7.42737ZM84.7152 41.5512C84.6134 41.9827 84.4988 41.8213 84.3838 41.6414C84.336 41.7179 84.3002 41.7753 84.1923 41.9288C84.2099 41.5942 84.2063 41.4275 84.2262 41.204C84.4144 41.3432 84.5525 41.4478 84.7152 41.5512ZM11.5099 39.8434C11.5493 39.9528 11.6269 40.1159 11.6798 40.2803C11.6934 40.3353 11.6583 40.4297 11.6253 40.6167C11.4856 40.438 11.3842 40.3131 11.2318 40.1165C11.3527 39.9994 11.4375 39.9211 11.5099 39.8434ZM21.7163 44.1529C21.7294 44.1894 21.7422 44.2073 21.7676 44.2431C21.4346 44.2593 21.1138 44.2748 20.7807 44.2909C20.7799 44.2538 20.7795 44.2353 20.7787 44.1982C21.0871 44.1833 21.4079 44.1678 21.7163 44.1529ZM81.0401 43.5092C81.2005 43.5015 81.3486 43.4943 81.5089 43.4866C81.5113 43.5977 81.5129 43.6718 81.5157 43.8015C81.3553 43.8093 81.2073 43.8164 81.0469 43.8242C81.0441 43.6945 81.0425 43.6204 81.0401 43.5092ZM91.1588 41.9999C91.0481 42.0238 90.9865 42.0268 90.9379 42.0662C90.8894 42.1057 90.8539 42.1816 90.8301 42.2198C90.717 42.1325 90.6168 42.0632 90.5038 41.976C90.6371 41.8582 90.7708 41.7591 90.9045 41.6599C90.9809 41.7674 91.0318 41.8391 91.1588 41.9999ZM28.2487 7.8602C28.2618 7.89665 28.2626 7.9337 28.2757 7.97016C28.1305 8.107 27.9729 8.24443 27.8034 8.40099C27.7986 8.17868 27.7958 8.049 27.7918 7.86375C27.9526 7.87452 28.1006 7.86736 28.2487 7.8602ZM62.5162 42.9215C62.4616 43.258 62.3924 43.4838 62.1445 43.4402C62.1405 43.2549 62.1369 43.0882 62.1325 42.8844C62.281 42.8958 62.3924 42.909 62.5162 42.9215ZM63.5019 43.3931C63.5691 43.0746 63.626 42.8493 63.6702 42.6061C63.7454 42.6581 63.7952 42.6742 63.8827 42.7256C63.7769 42.9718 63.8222 43.3591 63.5019 43.3931ZM76.4431 43.3607C76.182 43.2806 76.0312 43.158 76.1088 42.7463C76.3201 42.8103 76.4706 42.9143 76.4431 43.3607ZM62.6873 43.414C63.0239 42.9897 63.1342 42.9473 63.2496 43.1457C63.2388 43.2204 63.2281 43.2951 63.2177 43.3883C63.0574 43.3961 62.9217 43.4026 62.6873 43.414ZM78.4483 43.5789C78.6214 43.5891 78.7699 43.6005 78.9676 43.6095C78.8721 43.7624 78.8124 43.8581 78.7527 43.9537C78.7141 43.8814 78.6759 43.8276 78.6373 43.7553C78.5896 43.8317 78.5538 43.8891 78.4578 44.0236C78.4535 43.8198 78.4515 43.7271 78.4483 43.5789ZM79.3632 43.6274C79.5721 43.0053 79.5721 43.0053 79.8821 43.0645C79.7492 43.2008 79.6044 43.3561 79.3632 43.6274ZM20.9611 42.335C20.7291 42.4574 20.497 42.5799 20.2579 42.369C20.5046 42.357 20.7267 42.3463 20.9611 42.335ZM18.939 44.213C18.9378 44.1575 18.937 44.1204 18.9482 44.0642C19.0469 44.0595 19.146 44.0732 19.2319 44.0505C19.3302 44.0272 19.4273 43.9483 19.5376 43.9059C19.5399 44.0171 19.5292 44.0918 19.5316 44.2029C19.3215 44.1945 19.1364 44.2035 18.939 44.213ZM62.1747 42.5486C62.1489 42.4942 62.1107 42.4404 62.0848 42.386C62.1557 42.2343 62.2146 42.1016 62.2735 41.9689C62.3622 42.0759 62.4255 42.147 62.5142 42.254C62.3809 42.3717 62.2718 42.4697 62.1747 42.5486ZM7.99129 39.8838C8.14449 40.1175 8.2583 40.2418 8.41229 40.5125C8.20178 40.4856 8.09075 40.4909 8.004 40.4766C7.99963 40.2728 7.99645 40.1246 7.99129 39.8838ZM73.7168 42.9176C73.7227 42.6206 73.7303 42.3977 73.7347 42.0266C73.8533 42.3732 73.9193 42.574 73.9985 42.8113C73.9129 42.8525 73.8393 42.8746 73.7168 42.9176ZM11.3002 39.2787C11.4113 39.2733 11.5223 39.2679 11.6456 39.262C11.648 39.3731 11.6496 39.4472 11.6524 39.5769C11.5414 39.5823 11.4303 39.5876 11.307 39.5936C11.3042 39.4639 11.3026 39.3898 11.3002 39.2787ZM36.59 43.2481C36.6142 43.2284 36.6512 43.2266 36.6755 43.2069C36.7284 43.3713 36.781 43.5171 36.8474 43.7364C36.7241 43.7424 36.6747 43.7447 36.6007 43.7483C36.5971 43.5816 36.5935 43.4149 36.59 43.2481ZM85.7908 43.3351C85.652 43.1935 85.5509 43.0871 85.3869 42.9281C85.5843 42.9186 85.6953 42.9132 85.831 42.9066C85.8215 43.0369 85.8115 43.1487 85.7908 43.3351ZM22.147 40.0522C21.9524 40.1915 21.7566 40.2751 21.5672 40.0803C21.7646 40.0707 21.962 40.0612 22.147 40.0522ZM15.4773 43.4532C15.6719 43.314 15.8673 43.2118 16.1928 43.4186C15.8598 43.4347 15.6624 43.4443 15.4773 43.4532ZM62.8095 7.65379C62.8354 7.70817 62.8489 7.76315 62.8744 7.79901C62.7645 7.85996 62.6424 7.9215 62.5325 7.98244C62.5182 7.89041 62.5035 7.77986 62.4888 7.6693C62.6121 7.66333 62.7108 7.65856 62.8095 7.65379ZM45.4093 8.79203C45.5589 8.28408 45.7177 8.20222 45.9676 8.33849C45.7977 8.47652 45.664 8.57572 45.4093 8.79203ZM86.7375 43.141C86.5772 43.1487 86.4538 43.1547 86.3181 43.1613C86.4208 42.7668 86.4208 42.7668 86.7375 43.141ZM48.8009 43.1397C48.6652 43.1463 48.5542 43.1517 48.3568 43.1612C48.5132 42.9682 48.6099 42.8708 48.7425 42.716C48.7588 42.9007 48.7735 43.0113 48.8009 43.1397ZM3.14692 33.3863C3.12344 33.4431 3.09956 33.4813 3.07608 33.5381C3.0136 33.504 2.93919 33.4891 2.88865 33.4359C2.83851 33.4012 2.79952 33.3104 2.76132 33.2566C2.78519 33.2184 2.80907 33.1801 2.82061 33.1425C2.93323 33.2112 3.03391 33.2991 3.14692 33.3863ZM90.3362 42.8C90.2518 42.8968 90.2045 42.9918 90.1432 43.0134C90.1066 43.0337 90.0672 42.9243 90.017 42.8896C90.0525 42.8138 90.0875 42.7193 90.1356 42.6614C90.1722 42.6411 90.2359 42.7307 90.3362 42.8ZM88.4428 42.6134C88.4129 42.9487 88.4041 43.116 88.3958 43.3019C88.3066 43.1764 88.2434 43.1052 88.1801 43.0341C88.2398 42.9385 88.2876 42.862 88.4428 42.6134ZM80.5511 43.162C80.5881 43.1602 80.6251 43.1584 80.6621 43.1566C80.6545 43.3795 80.647 43.6024 80.6517 43.8247C80.6271 43.8259 80.6024 43.8271 80.5777 43.8283C80.5606 43.6066 80.5559 43.3843 80.5511 43.162ZM61.4306 42.3991C61.3335 42.478 61.2738 42.5736 61.2487 42.5563C61.1982 42.5031 61.1592 42.4123 61.1206 42.3399C61.1564 42.2826 61.2038 42.1876 61.2412 42.2043C61.2913 42.239 61.3423 42.3107 61.4306 42.3991ZM31.0068 7.48573C31.1115 7.75884 31.1636 7.88613 31.1505 7.84967C31.1282 7.96202 31.1067 8.11142 31.0848 8.24229C31.0721 8.22436 31.047 8.20703 31.0343 8.1891C31.0188 8.04149 31.0152 7.87476 31.0068 7.48573ZM49.5431 42.6217C49.649 42.9504 49.7019 43.1147 49.7676 43.297C49.6812 43.3012 49.6319 43.3036 49.5578 43.3071C49.5539 43.1219 49.5503 42.9551 49.5431 42.6217ZM21.6785 42.9679C21.595 43.1017 21.5476 43.1967 21.5229 43.1979C21.4605 43.1639 21.4095 43.0921 21.3709 43.0198C21.3582 43.0019 21.429 42.8501 21.4537 42.8489C21.5154 42.8459 21.5783 42.8985 21.6785 42.9679ZM69.4902 42.7697C69.6303 42.9669 69.6935 43.038 69.7321 43.1103C69.7707 43.1826 69.7731 43.2938 69.8165 43.5884C69.6764 43.3912 69.6131 43.3201 69.5745 43.2478C69.5483 43.1749 69.5459 43.0637 69.4902 42.7697ZM28.187 42.412C28.2773 42.0182 28.2773 42.0182 28.5483 41.9866C28.4158 42.1413 28.3318 42.2567 28.187 42.412ZM46.5036 43.121C46.4065 43.1999 46.3468 43.2955 46.3217 43.2782C46.2712 43.225 46.2322 43.1342 46.1936 43.0618C46.2294 43.0045 46.2768 42.9095 46.3142 42.9262C46.3643 42.9609 46.4153 43.0326 46.5036 43.121ZM88.2167 9.03985C88.2537 9.03806 88.2907 9.03627 88.3278 9.03448C88.3202 9.25738 88.3126 9.48028 88.3174 9.70258C88.2927 9.70378 88.268 9.70497 88.2434 9.70616C88.2263 9.48446 88.2215 9.26215 88.2167 9.03985ZM75.2357 42.9183C75.2882 43.0642 75.3519 43.1538 75.3404 43.1915C75.305 43.2673 75.2445 43.3259 75.1963 43.3839C75.1581 43.3301 75.0948 43.259 75.106 43.2028C75.1167 43.1281 75.1645 43.0516 75.2357 42.9183ZM76.8315 42.4703C76.884 42.6161 76.9477 42.7057 76.9362 42.7434C76.9007 42.8193 76.8402 42.8778 76.7921 42.9358C76.7539 42.882 76.6906 42.8109 76.7018 42.7547C76.7125 42.68 76.7603 42.6035 76.8315 42.4703Z" fill="#F27F0D"/>
<path d="M70.4418 4.79968C70.2357 4.97655 70.0383 4.41121 69.8879 4.8821C69.7462 4.61078 69.5636 4.73089 69.3534 4.7225C69.3936 4.86892 69.4338 5.01533 69.4493 5.16294C69.4648 5.31055 69.4557 5.45935 69.5333 5.6225C69.556 5.52868 69.5667 5.45398 69.6125 5.28486C69.6865 5.28128 69.7971 5.25739 69.9077 5.23349C69.9209 5.26995 69.9217 5.307 69.9348 5.34345C69.862 5.40261 69.7892 5.46176 69.5953 5.63804C69.9531 5.62074 70.2002 5.62733 70.4342 5.59747C70.7665 5.54431 71.053 5.66027 71.3073 6.00032C71.371 6.08996 71.4828 6.12164 71.5707 6.19157C71.5345 6.23041 71.511 6.28718 71.4752 6.34455C71.5397 6.47124 71.5918 6.59854 71.669 6.74316C71.7653 6.62723 71.8254 6.55015 71.8736 6.49219C71.9615 6.56211 72.049 6.61351 72.1995 6.7175C72.1673 6.36671 71.9317 6.32248 71.9376 6.02547C72.0956 5.90656 72.2656 5.76853 72.4721 5.61018C72.2393 5.12073 72.0324 4.68567 71.8259 4.26912C71.802 4.30737 71.7538 4.36533 71.7061 4.44182C71.679 4.33186 71.652 4.2219 71.6245 4.09342C71.4518 4.10177 71.2791 4.11012 71.0694 4.12026C71.0602 4.26906 71.0391 4.43698 71.0184 4.62343C70.9198 4.6282 70.8211 4.63298 70.6977 4.63895C70.6822 4.49134 70.6535 4.30728 70.6372 4.12262C70.5755 4.1256 70.5139 4.12859 70.4152 4.13336C70.4327 4.37359 70.4374 4.5959 70.4418 4.79968Z" fill="#F27F0D"/>
<path d="M73.9593 4.70375C73.7229 4.62246 73.4435 4.83995 73.0647 4.45029C73.194 4.72221 73.233 4.81305 73.2843 4.90329C73.3357 4.99353 73.387 5.08377 73.5143 5.26306C73.2183 5.27738 73.0209 5.28692 72.8235 5.29647C72.8267 5.44467 72.8283 5.51878 72.8311 5.64846C73.0654 5.63712 73.2875 5.62638 73.5342 5.61445C73.5398 5.87381 73.5445 6.09611 73.5509 6.39252C73.3535 6.40207 73.1685 6.41102 72.9711 6.42056C72.9719 6.45761 72.9727 6.49466 72.9735 6.53172C73.2079 6.52038 73.4299 6.50964 73.6643 6.4983C73.9325 6.33698 73.7507 5.91924 73.8434 5.63658C73.9545 5.63121 74.0531 5.62644 74.1518 5.62167C74.1805 5.80573 74.1964 5.97187 74.2123 6.138C74.237 6.13681 74.2616 6.13561 74.274 6.13502C74.2827 5.96769 74.3042 5.81829 74.313 5.65096C74.5211 5.56672 74.7929 5.57212 74.8666 5.55001C75.099 5.44605 75.2163 5.73709 75.4316 5.98631C75.3819 5.39528 75.2987 4.97277 75.0934 4.6118C75.0234 4.80064 74.9657 4.98888 74.8956 5.17772C74.6612 5.18905 74.4392 5.19979 74.1924 5.21172C74.1152 5.0671 74.0372 4.88542 73.9593 4.70375Z" fill="#F27F0D"/>
<path d="M16.0135 5.68876C15.9665 5.8023 15.9076 5.93496 15.8257 6.14291C16.0362 6.16982 16.1846 6.18119 16.3458 6.21049C16.4094 6.30013 16.4858 6.4077 16.5877 6.55113C16.7716 6.48661 17.0099 6.66053 17.1886 6.35517C17.3144 6.46036 17.452 6.54642 17.5901 6.65101C17.614 6.61277 17.6622 6.5548 17.698 6.49744C17.7744 6.60501 17.8508 6.71259 17.9144 6.80223C18.0613 6.7395 18.2089 6.71381 18.3299 6.59669C18.4147 6.51841 18.46 6.33077 18.5305 6.16046C17.6729 5.90522 16.8464 5.94519 16.0135 5.68876Z" fill="#F27F0D"/>
<path d="M97.2438 6.15537C97.2653 6.00597 97.2761 5.93127 97.3087 5.7257C97.362 5.90857 97.4014 6.01793 97.4281 6.10937C97.7035 6.2815 97.8428 5.86678 98.1134 5.8166C98.2148 5.94151 98.3549 6.13872 98.5459 6.40766C98.6056 6.31205 98.641 6.23615 98.713 6.13995C98.5364 5.96304 98.3983 5.85845 98.296 5.6965C98.1938 5.53454 98.1277 5.33374 98.0366 5.11561C97.9283 5.25066 97.8678 5.30922 97.8082 5.40483C97.7811 5.29487 97.7544 5.20343 97.7134 5.01997C97.6159 5.08032 97.5188 5.1592 97.3847 5.23986C97.3219 5.18727 97.2093 5.11854 97.1217 5.06713C96.8296 5.26671 96.8988 5.61571 96.9179 5.93005C97.0055 5.98145 97.1057 6.05078 97.2438 6.15537Z" fill="#F27F0D"/>
<path d="M100.591 6.16042C100.585 5.88253 100.578 5.58612 100.57 5.21561C100.351 5.37456 100.181 5.51259 99.975 5.67093C99.8022 5.67929 99.7418 5.16296 99.4982 5.32309C99.3888 5.40256 99.3056 5.55495 99.1978 5.70852C99.3868 5.88483 99.5257 6.02647 99.727 6.20218C99.9614 6.19084 100.282 6.17533 100.591 6.16042Z" fill="#F27F0D"/>
<path d="M44.5144 5.64561C44.5538 5.75497 44.5936 5.88286 44.6334 6.01075C44.5725 6.05078 44.4997 6.10994 44.3663 6.22765C44.6899 6.34182 44.9517 6.45897 45.2629 6.57373C45.5685 6.42914 45.2717 5.83152 45.5005 5.56083C45.3107 5.34747 45.1818 5.66897 45.0214 5.67672C44.8737 5.70241 44.719 5.39463 44.5144 5.64561Z" fill="#F27F0D"/>
<path d="M1.51647 12.6394C1.42535 12.4213 1.36049 12.2761 1.30797 12.1303C1.09825 12.1404 0.913202 12.1494 0.678812 12.1607C0.773112 12.527 0.889304 12.7625 1.12568 12.8438C1.42414 12.9406 1.71105 13.0751 2.00951 13.1719C2.07159 13.1875 2.14441 13.1283 2.27932 13.0847C2.03539 12.6514 1.79941 12.5887 1.51647 12.6394Z" fill="#F27F0D"/>
<path d="M39.4922 43.831C39.7616 43.7253 39.8181 43.4815 39.7755 43.2239C39.6482 43.0446 39.5463 42.9012 39.3935 42.686C39.212 42.8617 38.9948 43.0947 38.7409 43.3481C38.8427 43.4915 38.9064 43.5812 38.9828 43.6888C39.1042 43.5902 39.2013 43.5113 39.3103 43.4133C39.3875 43.5579 39.44 43.7037 39.4922 43.831Z" fill="#F27F0D"/>
<path d="M77.557 6.05042C77.752 5.92972 77.9474 5.82755 78.1424 5.70685C78.0728 5.33932 77.6398 5.30462 77.8257 4.75784C77.6888 4.70882 77.5392 4.64188 77.3768 4.55701C77.3657 4.61318 77.343 4.707 77.3569 4.78051C77.415 5.18568 77.485 5.57174 77.557 6.05042Z" fill="#F27F0D"/>
<path d="M97.5643 3.24689C96.92 2.57335 96.384 2.91454 95.8591 3.19955C96.3884 3.11832 96.9049 3.59404 97.5643 3.24689Z" fill="#F27F0D"/>
<path d="M48.4867 4.87861C48.441 5.04772 48.3721 5.29213 48.3032 5.53654C48.205 5.55984 48.119 5.58255 48.0203 5.58732C47.9745 5.75644 47.9284 5.90703 47.8822 6.05762C47.9331 6.12933 47.9968 6.21898 48.0605 6.30862C48.0864 5.78812 48.3685 5.70029 48.6483 5.50132C48.6881 5.62921 48.7275 5.73857 48.7808 5.92144C48.8779 5.84256 48.975 5.76369 49.0717 5.66629C48.8683 5.39795 48.6773 5.12901 48.4867 4.87861Z" fill="#F27F0D"/>
<path d="M112.536 42.598C111.911 42.2573 111.427 42.7258 110.885 42.8076C111.359 43.0073 111.642 42.975 112.536 42.598Z" fill="#F27F0D"/>
<path d="M35.1463 7.0259C34.6111 6.82925 34.0631 7.18956 33.4865 6.79092C33.4164 6.97975 33.3344 7.18771 33.2883 7.3383C33.8494 7.01445 34.5088 7.24218 35.1463 7.0259Z" fill="#F27F0D"/>
<path d="M65.4875 46.153C65.3526 46.1966 65.2058 46.2593 65.0709 46.3029C65.041 46.0633 65.0128 45.8977 64.9821 45.6211C64.9376 45.8458 64.9153 45.9581 64.8934 46.089C64.7577 46.0955 64.622 46.1021 64.511 46.1075C64.4393 46.2222 64.3796 46.3178 64.3199 46.4134C64.3729 46.5778 64.9773 46.5485 65.6897 46.3657C65.5886 46.2593 65.5257 46.2067 65.4875 46.153Z" fill="#F27F0D"/>
<path d="M63.4536 46.3255C63.4262 46.197 63.3991 46.0871 63.3589 45.9406C63.2765 46.1301 63.218 46.2813 63.1356 46.4707C63.4588 46.5663 63.7322 46.6458 64.0051 46.7068C64.0489 46.4451 64.0812 46.221 64.1254 45.9778C64.0999 45.9419 64.0362 45.8523 63.9471 45.7267C63.9268 45.9317 63.9176 46.0805 63.8973 46.2855C63.762 46.3106 63.6263 46.3172 63.4536 46.3255Z" fill="#F27F0D"/>
<path d="M43.0468 5.73513C43.0527 6.01301 43.0555 6.14269 43.0587 6.29089C43.2334 6.37517 43.4081 6.45945 43.6078 6.56105C43.6759 6.27959 43.7452 6.0537 43.8252 5.75312C43.5287 5.74891 43.3058 6.29749 43.0468 5.73513Z" fill="#F27F0D"/>
<path d="M91.285 4.70035C91.2811 4.51509 91.2811 3.9402 91.2811 3.9402C91.0284 3.67425 90.755 3.59475 90.3391 3.78176C90.5377 3.82779 90.6484 3.8039 90.6993 3.87561C90.8008 4.00052 90.8545 4.20191 90.9436 4.32741C91.0204 4.45351 91.1334 4.54078 91.285 4.70035Z" fill="#F27F0D"/>
<path d="M29.9778 6.14464C29.979 6.20021 29.9679 6.25639 29.9706 6.38607C30.4291 6.45662 30.8716 6.36104 31.3905 6.37303C31.2755 6.19315 31.2118 6.1035 31.1609 6.03179C31.0511 6.09273 30.9814 6.30009 30.8171 6.12259C30.7411 6.03355 30.5473 6.20982 30.4116 6.21638C30.2763 6.24147 30.139 6.17393 29.9778 6.14464Z" fill="#F27F0D"/>
<path d="M33.367 42.6808C33.5465 42.9873 33.6742 43.1852 33.7769 43.3656C33.8998 43.3411 33.9862 43.337 34.0849 43.3322C34.1128 42.9043 33.8481 42.6575 33.367 42.6808Z" fill="#F27F0D"/>
<path d="M40.1015 42.8743C40.0398 42.8773 39.9904 42.8797 39.8547 42.8862C40.1711 43.2418 39.9438 43.5866 39.9021 43.941C40.0994 43.9315 40.2475 43.9243 40.4819 43.913C40.3533 43.6781 40.2638 43.5341 40.1985 43.3703C40.146 43.2245 40.1297 43.0399 40.1015 42.8743Z" fill="#F27F0D"/>
<path d="M106.315 5.92064C105.998 6.08435 105.724 5.39291 105.417 6.07534C105.713 6.06102 105.997 6.62219 106.315 5.92064Z" fill="#F27F0D"/>
<path d="M97.3788 3.8122C97.0044 3.62632 96.6661 3.97649 96.3991 3.6185C96.3394 3.71411 96.2916 3.7906 96.22 3.90534C96.5304 3.98305 96.8165 4.08048 97.1014 4.12233C97.1878 4.11816 97.2706 3.94725 97.3788 3.8122Z" fill="#F27F0D"/>
<path d="M109.153 9.25127C109.28 9.39351 109.406 9.51722 109.52 9.66005C109.654 9.56086 109.775 9.48079 109.897 9.3822C109.884 9.34575 109.882 9.27164 109.857 9.27284C109.633 9.19095 109.41 9.12759 109.186 9.0457C109.187 9.10127 109.176 9.17597 109.153 9.25127Z" fill="#F27F0D"/>
<path d="M90.0132 5.85599C90.127 5.9803 90.1902 6.05142 90.2535 6.12254C90.3693 5.76459 90.5142 6.18411 90.6483 6.10345C90.7068 5.95226 90.7526 5.78314 90.8222 5.57578C90.7601 5.56024 90.6976 5.52618 90.6487 5.54709C90.4652 5.63014 90.2941 5.71259 90.0132 5.85599Z" fill="#F27F0D"/>
<path d="M76.2693 5.89016C76.2669 5.77901 76.2625 5.57522 76.2574 5.33439C76.134 5.34036 76.0477 5.34454 75.8873 5.35229C75.9533 5.55309 76.103 5.62003 76.1435 5.78497C76.1845 5.96843 76.1646 6.19193 76.1718 6.52539C76.3286 6.35091 76.4253 6.25351 76.5097 6.15671C76.4472 6.12264 76.409 6.06885 76.2693 5.89016Z" fill="#F27F0D"/>
<path d="M19.5341 6.31592C19.322 6.21491 19.1728 6.16649 19.0108 6.10014C18.9778 6.28719 18.9332 6.51188 18.889 6.7551C18.926 6.75331 19.0012 6.8053 19.0378 6.78499C19.1954 6.64755 19.3403 6.49219 19.5341 6.31592Z" fill="#F27F0D"/>
<path d="M9.33201 50C9.46096 49.6785 9.55488 49.4514 9.64841 49.2058C9.56006 49.1174 9.45899 49.011 9.30778 48.8699C9.31652 49.2775 9.32287 49.5739 9.33201 50Z" fill="#F27F0D"/>
<path d="M1.34956 39.9825C1.00216 39.9065 0.72917 39.8456 0.381369 39.7511C0.688963 40.274 0.973891 40.3159 1.34956 39.9825Z" fill="#F27F0D"/>
<path d="M5.56761 0C5.24925 0.126665 5.02878 0.211506 4.75937 0.317259C4.78643 0.427219 4.81468 0.592756 4.83935 0.591563C5.12388 0.614892 5.33002 0.438019 5.56761 0Z" fill="#F27F0D"/>
<path d="M102.775 5.51698C102.713 5.51996 102.676 5.52175 102.639 5.52354C102.587 5.98966 102.654 6.22751 102.919 6.45581C102.862 6.12474 102.818 5.81159 102.775 5.51698Z" fill="#F27F0D"/>
<path d="M0.834376 13.0804C0.742439 13.4001 0.684333 13.5698 0.626625 13.7581C0.786997 13.7503 0.935033 13.7432 1.18176 13.7312C1.05323 13.4964 0.963302 13.3338 0.834376 13.0804Z" fill="#F27F0D"/>
<path d="M34.4633 43.1284C34.5354 43.0322 34.6074 42.936 34.679 42.8213C34.654 42.804 34.6166 42.7872 34.5788 42.752C34.4654 42.6462 34.3639 42.5213 34.2254 42.3982C34.2306 42.639 34.2353 42.8613 34.2413 43.1392C34.3153 43.1356 34.3893 43.132 34.4633 43.1284Z" fill="#F27F0D"/>
<path d="M33.2851 6.04032C32.9238 5.8909 32.6672 5.43969 32.4339 6.08149C32.6807 6.06955 32.9274 6.05763 33.2851 6.04032Z" fill="#F27F0D"/>
<path d="M0 32.3331C0.2714 32.32 0.505791 32.3087 0.851208 32.2919C0.513359 32.0857 0.282962 31.7074 0 32.3331Z" fill="#F27F0D"/>
<path d="M45.8611 5.09831C45.7238 5.03077 45.6239 4.97997 45.5244 4.94769C45.5129 4.98534 45.5133 5.00387 45.5017 5.04151C45.6541 5.23814 45.8061 5.41623 45.9709 5.61226C45.9796 5.44493 45.9872 5.22203 45.9952 5.01765C45.8686 4.87541 45.8734 5.09771 45.8611 5.09831Z" fill="#F27F0D"/>
<path d="M104.819 6.38246C104.8 6.10518 104.785 5.95757 104.765 5.6247C104.598 5.87389 104.502 6.00834 104.334 6.25752C104.533 6.32208 104.632 6.33583 104.819 6.38246Z" fill="#F27F0D"/>
<path d="M58.2616 46.6508C58.264 46.7619 58.2656 46.836 58.2676 46.9287C58.4936 47.1032 58.6261 46.9484 58.7674 46.6263C58.57 46.6359 58.422 46.643 58.2616 46.6508Z" fill="#F27F0D"/>
<path d="M0.654581 33.4883C0.831262 33.6652 0.970538 33.8254 1.15956 34.0017C1.15558 33.8164 1.16434 33.6491 1.16037 33.4639C0.987662 33.4722 0.839626 33.4794 0.654581 33.4883Z" fill="#F27F0D"/>
<path d="M46.978 8.80888C46.9004 9.22062 46.9795 9.45787 47.2649 9.51825C47.4643 9.02644 46.9358 9.14473 46.978 8.80888Z" fill="#F27F0D"/>
<path d="M38.6807 44.575C38.8781 44.5654 39.0138 44.5589 39.1372 44.5529C39.1849 44.4764 39.1849 44.4764 38.8789 44.0276C38.8208 44.1973 38.7623 44.3485 38.6807 44.575Z" fill="#F27F0D"/>
<path d="M66.612 5.30016C66.6681 5.03782 66.7015 4.8693 66.7564 4.55138C66.6247 4.7432 66.5889 4.80056 66.565 4.83881C66.4647 4.76948 66.3895 4.71748 66.3143 4.66549C66.2427 4.78022 66.2427 4.78022 66.612 5.30016Z" fill="#F27F0D"/>
<path d="M37.4679 6.45001C37.3354 6.60477 37.2268 6.7213 37.0704 6.91431C37.5045 7.00458 37.5045 7.00458 37.4679 6.45001Z" fill="#F27F0D"/>
<path d="M37.7835 6.76855C37.9315 6.76139 38.0796 6.75423 38.2399 6.74648C38.2376 6.63532 38.2356 6.5427 38.232 6.37597C38.0617 6.49548 37.9152 6.57673 37.7815 6.67592C37.7823 6.71298 37.7827 6.7315 37.7835 6.76855Z" fill="#F27F0D"/>
<path d="M2.42855 13.1331C2.62593 13.1236 2.76163 13.117 2.922 13.1093C2.86868 12.9264 2.81616 12.7806 2.77557 12.6156C2.66773 12.7692 2.57221 12.9222 2.42855 13.1331Z" fill="#F27F0D"/>
<path d="M0.152285 35.9791C-0.037151 36.3591 -0.037151 36.3591 0.364764 36.6735C0.285183 36.4177 0.232262 36.2534 0.152285 35.9791Z" fill="#F27F0D"/>
<path d="M40.9184 44.1144C40.9224 44.2997 40.9259 44.4664 40.9299 44.6516C41.0043 44.6666 41.0537 44.6642 41.1404 44.6785C41.1365 44.4933 41.1333 44.3451 41.1289 44.1413C41.0541 44.1078 40.9801 44.1114 40.9184 44.1144Z" fill="#F27F0D"/>
<path d="M28.7748 6.48099C28.8962 6.38239 28.9933 6.30352 29.1143 6.1864C29.0009 6.08062 28.9121 5.97364 28.7609 5.83259C28.7673 6.129 28.7712 6.31426 28.7748 6.48099Z" fill="#F27F0D"/>
<path d="M68.7756 6.56783C68.9729 6.55829 69.158 6.54934 69.3554 6.53979C69.1536 6.34556 68.9578 6.42921 68.7756 6.56783Z" fill="#F27F0D"/>
<path d="M42.9236 44.9076C43.121 44.898 43.306 44.8891 43.6391 44.873C43.3017 44.6853 43.1059 44.7689 42.9236 44.9076Z" fill="#F27F0D"/>
<path d="M42.9727 6.3136C42.691 6.41995 42.5577 6.53766 42.5923 6.99961C42.6878 6.84663 42.7479 6.76955 42.7956 6.69306C42.843 6.59804 42.8904 6.50303 42.9727 6.3136Z" fill="#F27F0D"/>
<path d="M66.9369 45.7862C66.7729 45.6272 66.6842 45.5202 66.5453 45.3786C66.5246 45.565 66.5142 45.6582 66.4927 45.8076C66.6284 45.8011 66.7395 45.7957 66.9369 45.7862Z" fill="#F27F0D"/>
<path d="M60.8095 4.8019C60.8123 4.93158 60.8135 4.98716 60.8159 5.09831C60.9763 5.09055 61.149 5.0822 61.445 5.06788C61.1581 4.9334 60.9966 4.88558 60.8095 4.8019Z" fill="#F27F0D"/>
<path d="M65.7755 4.30211C65.6911 4.39891 65.5944 4.49631 65.4492 4.63315C65.5622 4.72041 65.6374 4.77241 65.713 4.84293C65.7476 4.72999 65.7934 4.56086 65.8396 4.41027C65.826 4.35529 65.801 4.33797 65.7755 4.30211Z" fill="#F27F0D"/>
<path d="M106.846 6.46987C106.728 6.17883 106.676 6.03301 106.598 5.83281C106.526 5.96607 106.479 6.04256 106.407 6.17582C106.52 6.26307 106.633 6.33181 106.846 6.46987Z" fill="#F27F0D"/>
<path d="M35.3202 7.07313C35.4682 7.06597 35.6163 7.05881 35.7766 7.05106C35.7758 7.01401 35.7751 6.97696 35.7743 6.9399C35.6258 6.92854 35.4774 6.91717 35.317 6.92492C35.3178 6.96198 35.319 7.01755 35.3202 7.07313Z" fill="#F27F0D"/>
<path d="M56.727 5.61132C56.6808 5.76191 56.6458 5.85633 56.6478 5.94895C56.649 6.00453 56.7496 6.09239 56.7616 6.07326C56.8097 6.0153 56.8575 5.93881 56.8802 5.84499C56.8794 5.80794 56.8038 5.73742 56.727 5.61132Z" fill="#F27F0D"/>
<path d="M87.1162 3.78927C87.1221 4.06716 87.1253 4.21536 87.1293 4.40062C87.3335 4.13112 87.3335 4.13112 87.1162 3.78927Z" fill="#F27F0D"/>
<path d="M2.00466 37.7069C2.07032 37.8891 2.12284 38.0349 2.21436 38.2716C2.23387 38.0296 2.24263 37.8623 2.26214 37.6202C2.12723 37.6638 2.05361 37.6859 2.00466 37.7069Z" fill="#F27F0D"/>
<path d="M92.2075 3.95103C92.393 3.9606 92.5044 3.97376 92.6281 3.98632C92.6254 3.85664 92.623 3.74549 92.6202 3.61581C92.4988 3.71441 92.3894 3.79387 92.2075 3.95103Z" fill="#F27F0D"/>
<path d="M39.706 6.00797C39.9054 6.09105 39.9802 6.12452 40.0427 6.15859C40.0928 6.19325 40.1187 6.24763 40.1819 6.31875C40.1915 6.18848 40.2022 6.11378 40.2118 5.9835C40.0884 5.98947 39.9651 5.99544 39.706 6.00797Z" fill="#F27F0D"/>
<path d="M86.748 6.19935C86.8316 6.0655 86.8917 5.98841 86.8909 5.95136C86.8642 5.85993 86.8133 5.78821 86.7627 5.73502C86.75 5.71709 86.6537 5.83302 86.6545 5.87007C86.6565 5.9627 86.6955 6.05354 86.748 6.19935Z" fill="#F27F0D"/>
<path d="M90.0975 5.75919C90.082 5.61158 90.1509 5.36717 89.9539 5.39524C89.9169 5.39703 89.8572 5.49264 89.8584 5.54822C89.8405 5.86435 89.9984 5.74544 90.0975 5.75919Z" fill="#F27F0D"/>
<path d="M50.1357 7.48784C50.1393 7.65457 50.1409 7.72868 50.1433 7.83983C50.2666 7.83387 50.3653 7.82909 50.5627 7.81954C50.3868 7.67969 50.2865 7.61036 50.1357 7.48784Z" fill="#F27F0D"/>
<path d="M103.784 5.93179C103.738 6.08238 103.703 6.1768 103.705 6.26943C103.706 6.325 103.807 6.41286 103.819 6.39373C103.867 6.33577 103.915 6.25928 103.937 6.16546C103.936 6.12841 103.861 6.05789 103.784 5.93179Z" fill="#F27F0D"/>
<path d="M91.7969 3.2291C91.9449 3.22194 92.0929 3.21479 92.2533 3.20703C92.2525 3.16998 92.2517 3.13293 92.2509 3.09587C92.1025 3.08451 91.954 3.07314 91.806 3.0803C91.7945 3.11795 91.7957 3.17353 91.7969 3.2291Z" fill="#F27F0D"/>
<path d="M5.17308 4.63672C5.0728 4.56739 5.00993 4.5148 4.94825 4.51778C4.91124 4.51957 4.85274 4.67076 4.86547 4.68869C4.90407 4.761 4.955 4.83272 5.01748 4.86679C5.04215 4.86559 5.08911 4.75205 5.17308 4.63672Z" fill="#F27F0D"/>
</svg>
