<svg width="21" height="20" viewBox="0 0 21 20" fill="none" xmlns="http://www.w3.org/2000/svg">
<path d="M20.0795 6.18761C20.1302 2.77063 17.4927 -0.00150492 14.1873 6.12945e-07C10.8809 0.000187941 7.70776 2.05723 7.65661 5.47643C7.64422 6.2119 7.77472 7.3901 8.02407 8.26545L0.621521 15.8015C0.348314 16.0796 0.120921 16.6297 0.114212 17.0221L0.0805918 19.2843C0.077508 19.3757 0.0926634 19.4667 0.125185 19.5522C0.157708 19.6376 0.206954 19.7159 0.270088 19.7824C0.333222 19.8489 0.408997 19.9024 0.49305 19.9397C0.577102 19.9771 0.667771 19.9976 0.759835 20L2.51896 19.998C2.89919 19.9995 3.42569 19.7631 3.6878 19.4761L6.66884 16.21L6.69358 16.1892L8.30168 16.1884L11.785 12.3604C12.6371 12.676 13.9114 12.8547 14.6841 12.8543C17.9884 12.8526 20.0283 9.60682 20.0795 6.18761ZM16.9307 7.3698C15.8092 8.51149 15.0819 7.43025 13.9959 6.28697C12.9093 5.14702 11.8734 4.37772 12.9938 3.23584C14.1152 2.09415 15.9044 2.093 16.9928 3.23558C18.0803 4.37684 18.0511 6.22792 16.9307 7.3698Z" fill="white"/>
</svg>
