<svg width="92" height="100" viewBox="0 0 92 100" fill="none" xmlns="http://www.w3.org/2000/svg">
<path d="M21.4905 68.7939C20.3377 69.2056 19.3908 70.2349 18.7733 71.9228C18.1558 73.5696 17.8264 75.6692 17.8264 78.1805C17.8264 80.8977 18.1558 82.8738 18.7733 84.0266C19.3908 85.1381 20.2554 85.4675 21.4081 85.0146C21.4905 84.9734 21.5316 84.9734 21.614 84.9323C22.7667 84.3559 23.7136 83.2032 24.3312 81.4741C24.9487 79.7861 25.2369 77.7688 25.2369 75.3399C25.2369 72.8697 24.9487 71.1406 24.29 69.9879C23.6313 68.794 22.6844 68.3823 21.4905 68.7939ZM20.7906 80.5683C20.5848 80.0743 20.5024 78.8804 20.5024 77.069C20.5024 74.5165 20.8318 73.4461 21.0788 72.9932C21.1611 72.8285 21.2846 72.7462 21.4081 72.6639C21.4081 72.6639 21.4081 72.6639 21.4493 72.6639C22.3139 72.3757 22.4785 74.4753 22.4785 76.3279C22.4785 78.057 22.3962 79.2509 22.1904 79.9096C22.0257 80.486 21.7787 80.8565 21.4493 81.0212C21.2846 81.1035 21.0376 81.1859 20.7906 80.5683Z" fill="#1D1D1B"/>
<path d="M31.33 73.5697C31.7005 73.0756 32.0298 72.4993 32.2357 71.8406C32.4827 71.0995 32.6062 70.3996 32.6062 69.7409C32.6062 68.4235 32.2768 67.4766 31.6593 66.9414C31.0418 66.3651 30.1772 66.2827 29.1068 66.6121L26.3896 67.5178V82.1329L28.9421 80.8566V75.7928C29.395 77.2337 29.8479 78.6335 30.3007 79.9921L30.3419 80.1567L33.0591 78.8393L32.9356 78.5511C32.4415 76.9455 31.8652 75.2988 31.33 73.5697ZM29.9714 71.0172C29.9714 71.47 29.8479 72.0876 28.9833 72.5404V69.8644C29.3127 69.7821 29.5597 69.8233 29.7244 69.9468C29.8479 70.1114 29.9714 70.482 29.9714 71.0172Z" fill="#1D1D1B"/>
<path d="M34.0058 84.9324C34.6646 84.1502 34.9939 83.4091 34.9939 82.6269C34.9939 81.8035 34.6234 81.2683 33.9647 81.1036C33.306 80.939 32.3179 81.2271 30.8358 81.9682L28.2833 83.2856V91.6018L31.5357 90.4902C31.7415 90.4079 31.9474 90.3667 32.1121 90.2844C32.9354 89.955 33.5942 89.461 34.1294 88.8846C34.8292 88.1436 35.1586 87.279 35.1586 86.4145C35.1998 85.7557 34.9939 85.0147 34.0058 84.9324ZM31.0828 85.2617V83.9855C31.4945 83.7796 31.8239 83.6973 32.0297 83.7385C32.1944 83.7385 32.2767 83.862 32.2767 84.109C32.2767 84.5618 31.6592 84.9735 31.0828 85.2617ZM32.4826 87.3613C32.4826 87.526 32.4414 87.7319 32.1532 87.9377C31.9062 88.1436 31.5357 88.3494 31.0828 88.5552V87.2378C31.7004 87.032 32.4826 86.8261 32.4826 87.3613Z" fill="#1D1D1B"/>
<path d="M36.3524 72.3344L38.2462 71.5111V68.4234L36.3524 69.1644V67.3941L38.5344 66.6119V63.4419L33.7588 65.0475L33.8 78.551L38.5756 76.2043V73.0755L36.3524 74.0635V72.3344Z" fill="#1D1D1B"/>
<path d="M41.7868 82.2973C42.1985 81.8856 42.5279 81.3916 42.7337 80.8564C42.9807 80.2388 43.1454 79.6213 43.1454 79.0861C43.1454 78.0157 42.7749 77.3158 42.075 77.0688C41.4163 76.8218 40.5106 76.9865 39.3167 77.604L36.3937 79.1273V88.9255L39.152 87.9786V84.1499C39.6872 85.1791 40.2224 86.2495 40.7164 87.3199L40.7576 87.4434L43.6806 86.4554L43.5159 86.126C42.9808 84.8086 42.4044 83.5324 41.7868 82.2973ZM40.3459 80.5682C40.3459 81.0622 39.9342 81.5151 39.1932 81.8856V80.0742C39.6049 79.9095 39.9342 79.8271 40.0989 79.9095C40.2636 79.9507 40.3459 80.1565 40.3459 80.5682Z" fill="#1D1D1B"/>
<path d="M68.7527 34.8293C68.094 35.735 67.5588 36.4761 66.9824 37.2171C66.6942 37.5465 66.653 37.8347 66.8177 38.2875C67.5999 40.4695 68.2175 42.7338 67.9293 45.0804C67.847 45.8215 67.5176 46.5214 67.3118 47.3036C67.4353 47.3036 67.6823 47.3036 67.9293 47.2212C68.9585 46.8507 70.1113 46.6449 71.0582 46.0685C73.1578 44.7511 75.3398 45.0804 77.5629 45.4098C79.0038 45.6156 80.3212 46.0685 81.5151 46.9742C81.1034 46.8919 80.6917 46.8507 80.2801 46.7684C76.4101 45.945 70.3171 48.3328 66.8177 49.9384C63.2772 51.544 63.1537 51.6675 59.6131 53.2319C52.6967 56.2785 47.7976 59.078 40.3871 60.6836C35.3645 61.754 28.4069 62.8655 21.9021 61.3423C25.9779 60.6836 29.9301 60.0249 33.5119 59.4073C33.1002 58.8309 32.6061 58.2134 32.1533 57.5547C31.9474 57.2665 31.7416 57.2253 31.4122 57.3489C26.1426 59.4073 23.3019 59.6543 17.744 59.572C17.7029 59.572 16.1385 59.2838 16.2208 59.325C19.7202 58.5839 22.2315 58.0487 25.9779 57.2665C23.8371 55.2492 23.096 52.7791 22.8079 50.1442C22.7667 49.7737 22.8079 49.4032 22.849 49.0738C22.8902 48.8268 23.0549 48.4563 23.2196 48.4151C23.4254 48.374 23.7548 48.5798 23.9194 48.7445C25.1133 50.0207 25.7309 51.6263 26.1014 53.3143C26.3072 54.1788 26.3484 55.0845 26.3896 55.9491C26.3896 56.3196 26.2249 56.6901 26.1426 57.0607C26.6778 57.1018 27.0071 56.7725 26.9248 56.1961C26.8013 55.0434 26.6778 53.8906 26.5131 52.7791C26.4719 52.5321 26.3896 52.2439 26.3072 51.9557C27.0895 51.9557 27.8717 51.9557 28.6127 51.9557C28.7362 51.9557 28.9421 52.1204 28.9832 52.2439C29.3126 53.4789 29.6008 54.7552 29.1479 56.1549C29.7243 55.9491 30.2595 55.7844 30.8359 55.5786C30.6712 55.2492 30.5477 54.961 30.4242 54.6729C28.9421 51.5028 27.9128 48.2093 27.7893 44.6687C27.7482 43.9689 27.8717 43.2278 28.0775 42.5279C28.2834 41.6634 28.9421 41.4575 29.6419 42.0339C30.2595 42.5279 30.7947 43.1455 31.2475 43.8042C33.6354 47.5094 34.9528 51.6263 35.241 56.0314C35.2821 56.6901 35.1586 57.3489 35.0763 58.0076C34.9939 58.5839 34.7058 59.0368 34.0471 59.2015C34.2529 59.7367 34.6646 59.9013 35.1174 59.8602C35.8173 59.7367 36.5172 59.6132 37.1759 59.4073C38.3286 58.9956 39.4402 58.5428 40.5518 58.0899C41.2928 57.8017 41.581 57.143 41.7457 56.4431C42.1574 54.9199 41.9927 53.3554 41.7457 51.8322C41.4163 49.7326 40.7576 47.6741 39.8931 45.698C38.6992 45.9038 37.5053 46.0685 36.3114 46.3155C35.3233 46.5214 34.6234 46.3155 34.0471 45.4098C33.3472 44.3394 32.6061 43.2278 31.7827 42.2809C31.124 41.5399 30.3007 40.9223 29.4773 40.3048C28.9832 39.9755 28.4069 39.8931 27.8717 40.3048C27.3776 40.7165 27.2953 41.2517 27.4188 41.8692C27.46 42.0339 27.5423 42.2398 27.5011 42.4044C26.9248 44.6687 27.3776 46.8919 27.8717 49.0738C27.9952 49.6914 28.201 50.3501 28.4069 51.1323C27.7482 51.1735 27.1306 51.2558 26.5543 51.2146C26.3072 51.2146 26.0602 50.9265 25.9367 50.6794C25.4427 49.8561 24.9898 49.0327 24.4546 48.2093C23.9606 47.4682 23.3842 46.7684 22.2727 47.3859C22.0256 46.2332 21.7375 45.1628 21.5728 44.0924C21.4904 43.6807 21.7375 43.1866 21.8198 42.7338C21.861 42.5279 21.9433 42.3633 22.0256 42.1574C22.355 41.2105 22.602 40.2225 23.0137 39.2756C23.6724 37.7111 23.6724 36.1467 23.1784 34.5411C21.6551 34.7881 21.3669 34.6235 20.7906 33.1825C20.5847 32.6885 20.3789 32.1945 20.173 31.6593C19.926 30.9182 20.2142 30.3419 20.9964 30.136C21.4081 30.0125 21.7786 29.9302 22.2315 29.8478C21.7786 27.954 22.3962 26.2661 23.3431 24.7017C23.5077 24.4547 23.7959 24.2488 24.0429 24.043C24.2488 24.3312 24.537 24.5782 24.5781 24.9075C25.278 27.9952 25.8956 31.0829 26.5543 34.1706C26.5954 34.3353 26.5954 34.4999 26.6778 34.6235C26.9248 35.3645 27.46 35.488 27.9952 34.9116C28.5715 34.2529 29.1067 33.5942 29.6831 32.9355C29.889 32.6885 30.136 32.5238 30.5065 32.1945C30.5477 32.812 30.5065 33.2649 30.63 33.6766C31.4122 36.3937 32.1533 39.1521 33.059 41.8281C33.553 43.3513 35.5291 44.1335 37.0524 43.7218C38.9874 43.1455 40.8811 42.6103 42.8161 42.0751C43.0219 42.0339 43.1866 41.9927 43.4336 41.9516C43.6395 43.3102 43.8041 44.6276 44.01 45.945C44.1335 46.7684 44.2982 46.8507 45.1216 46.6449C49.856 45.4098 54.5905 44.2159 59.3249 42.9808C59.9425 42.8161 60.3542 42.4868 60.6012 41.8692C61.3011 40.2636 62.0009 38.658 62.7008 37.0524C62.8655 36.6407 63.0713 36.3937 63.5242 36.2702C65.171 35.8174 66.8589 35.3233 68.7527 34.8293ZM41.9515 56.649C49.5267 53.2731 56.9371 49.9384 64.2241 46.7272C63.6065 45.7391 62.8655 44.6276 62.2068 43.4748C61.9598 43.022 61.7539 42.9808 61.3011 43.1043C55.1257 44.9158 48.9503 46.7272 42.8161 48.5386C42.5691 48.621 42.3221 48.7033 42.075 48.8268C42.4456 51.4205 42.6926 53.9318 41.9515 56.649ZM31.2887 45.4098C29.7243 48.3328 32.1121 54.467 34.4999 55.2081C33.8824 51.7498 33.2237 48.4563 31.2887 45.4098ZM25.7309 54.6317C25.4427 53.1908 25.1957 51.8322 24.3723 50.5559C23.8783 51.9969 24.5781 54.0553 25.7309 54.6317Z" fill="#1D1D1B"/>
<path d="M43.0219 66.612C42.4043 66.3238 42.0338 65.9533 42.0338 65.5416C42.0338 65.3357 42.075 65.1711 42.1985 65.0476C42.322 64.8829 42.4867 64.7594 42.6925 64.677C43.063 64.5535 43.5159 64.5535 44.1334 64.7594L44.4628 64.8417V61.6717L44.3393 61.6305C43.7218 61.507 43.1042 61.5482 42.4455 61.754C41.581 62.0422 40.8399 62.6597 40.3047 63.5243C39.7283 64.43 39.4813 65.4592 39.4813 66.5708C39.4813 67.3942 39.646 68.0529 40.0165 68.5881C40.387 69.0821 40.9222 69.5762 41.6633 69.9467C41.9515 70.1114 42.1573 70.2349 42.2808 70.3584C42.3632 70.4819 42.4043 70.6054 42.4043 70.7701C42.4043 71.0171 42.3632 71.1818 42.2397 71.3876C42.1162 71.5935 41.9515 71.717 41.7456 71.8405H41.7045C41.2928 72.0051 40.7576 72.0051 40.14 71.8405L39.8107 71.7581V75.1752H39.9342C40.4694 75.2575 41.0458 75.134 41.6221 74.9282C41.7045 74.887 41.7456 74.887 41.828 74.8458C42.7337 74.393 43.5159 73.6519 44.1334 72.6639C44.751 71.6758 45.0392 70.6466 45.0392 69.6173C45.0392 68.7116 44.7922 68.0117 44.3393 67.5589C43.9276 67.1472 43.4747 66.8178 43.0219 66.612Z" fill="#1D1D1B"/>
<path d="M47.9621 72.7462C46.727 73.4049 45.7801 74.4342 45.0803 75.8339C44.3804 77.2337 44.051 78.7569 44.051 80.5684C44.051 82.5033 44.3804 83.8207 45.0803 84.6441C45.7801 85.4675 46.8094 85.6734 48.0856 85.2205C48.2091 85.1793 48.3326 85.1382 48.4561 85.097C49.5677 84.603 50.4323 83.7384 51.0498 82.4622C51.7085 81.0624 52.079 79.2921 52.079 77.1925C52.079 75.0929 51.7085 73.652 51.0086 72.8697C50.3087 72.0875 49.3207 72.0464 47.9621 72.7462ZM49.156 78.4276C49.156 80.1155 48.9913 80.8977 48.8267 81.2683C48.6208 81.7623 48.3738 82.0505 48.0033 82.174C47.6739 82.2975 47.4269 82.2151 47.2211 81.8858C47.0152 81.5564 46.9329 80.6919 46.9329 79.3745C46.9329 77.3984 47.3034 76.2044 48.0033 75.8751C48.2503 75.7516 48.4561 75.7516 48.6208 75.8751C48.9913 76.1221 49.156 76.9867 49.156 78.4276Z" fill="#1D1D1B"/>
<path d="M52.4908 74.0221L54.1376 73.2399V82.9147L56.896 81.9678V71.9225L58.5016 71.1403V67.5997L52.4908 70.7286V74.0221Z" fill="#1D1D1B"/>
<path d="M64.0182 70.0289L62.3302 70.8112V65.6238L59.5719 67.0236L59.6131 81.0623L62.3302 80.1154V74.3105L64.0182 73.6107V79.539L66.7765 78.6333L66.7353 63.3184L64.0182 64.7181V70.0289Z" fill="#1D1D1B"/>
<path d="M16.7972 77.5218C16.5501 75.7927 16.6737 73.9812 17.2089 72.2933V71.3464L14.1212 72.458V68.6292L17.6617 67.5177V61.3423L10.0454 63.4419V90.7371L14.1623 88.7198V78.5922L16.7972 77.5218Z" fill="#1D1D1B"/>
<path d="M71.3463 70.8936L73.4048 70.029V66.2003L71.3463 67.1472L71.3052 64.7594L73.7342 63.6066V59.6956L68.588 62.3716L68.6292 77.9747L73.7753 76.2456V72.3345L71.3463 73.2402V70.8936Z" fill="#1D1D1B"/>
<path d="M45.4921 64.2242L46.933 63.689V72.1286L49.5678 70.8524L49.5266 62.7009L51.0087 62.1657V59.2427L45.4921 61.1365V64.2242Z" fill="#1D1D1B"/>
<path d="M80.5269 65.9942C80.9798 65.3767 81.3091 64.6356 81.5562 63.7711C81.8032 62.8653 81.9267 61.9185 81.9267 61.0539C81.9267 59.3248 81.5973 58.1309 80.8974 57.4722C80.2387 56.8135 79.2918 56.7723 78.0979 57.3898L75.1749 58.9131L75.2161 75.7513L77.9744 74.8044V68.3408C78.5096 70.2346 79.0448 72.2107 79.5389 74.1045L79.58 74.2692L82.4619 73.2811L82.3795 72.9518C81.762 70.564 81.1445 68.2173 80.5269 65.9942ZM79.1272 62.6595C79.1272 63.6064 78.7566 64.2651 77.9744 64.718V61.2597C78.3861 61.0951 78.6743 61.1362 78.839 61.3009C79.0037 61.4656 79.1272 61.9184 79.1272 62.6595Z" fill="#1D1D1B"/>
<path d="M88.2256 62.2068C87.7316 61.3422 87.2376 60.7247 86.7847 60.3542C86.0437 59.7778 85.6731 59.1603 85.6731 58.4604C85.6731 58.0899 85.7555 57.7605 85.879 57.4723C86.0025 57.2253 86.2083 57.0195 86.4142 56.896C86.8259 56.6901 87.3199 56.7724 87.9786 57.1018L88.2668 57.2665V52.4497L88.1845 52.4085C87.5257 52.2438 86.8259 52.3262 86.126 52.6967C85.1791 53.1907 84.3969 54.1376 83.7793 55.455C83.203 56.7724 82.9148 58.2134 82.9148 59.819C82.9148 60.9717 83.1206 61.9598 83.4912 62.742C83.8617 63.5242 84.4381 64.2652 85.3026 65.0475C85.632 65.3356 85.8378 65.6238 86.0025 65.8708C86.126 66.1179 86.1672 66.406 86.1672 66.6942C86.1672 67.1059 86.0848 67.4764 85.9613 67.7646C85.8378 68.0528 85.6731 68.2175 85.4261 68.2998C84.9733 68.4645 84.3969 68.341 83.6558 67.8881L83.3265 67.6823V72.4991L83.4088 72.5402C84.1087 72.8696 84.7674 72.9108 85.4673 72.7049C85.5496 72.6637 85.632 72.6226 85.7143 72.6226C86.62 72.2109 87.4022 71.3875 88.0198 70.1936C88.6785 68.8762 89.0078 67.3529 89.0078 65.665C89.0078 64.2241 88.7196 63.0713 88.2256 62.2068Z" fill="#1D1D1B"/>
<path d="M68.9996 31.9885C68.9996 33.2648 68.5879 33.8411 67.5998 34.0882C57.2252 36.8465 46.8917 39.646 36.5171 42.4043C35.529 42.6514 35.1997 42.5278 34.6233 41.7456C34.2528 41.2516 34.4175 40.9222 34.9115 40.7576C35.529 40.5517 36.1877 40.387 36.8053 40.2224C47.0976 37.5464 57.3899 34.8704 67.6822 32.1944C68.0939 32.112 68.5056 32.0709 68.9996 31.9885Z" fill="#1D1D1B"/>
<path d="M45.9037 45.2039C45.8214 43.8041 45.7802 42.4455 45.6979 41.0046C46.7271 40.7164 47.7563 40.4282 48.8679 40.0989C48.6209 41.581 48.415 42.9807 48.168 44.3805C48.1269 44.504 47.9622 44.6687 47.7975 44.7098C47.2211 44.8745 46.6036 45.0392 45.9037 45.2039Z" fill="#1D1D1B"/>
<path d="M49.5678 19.7612C49.9794 19.9671 50.6382 20.2141 51.2145 20.5846C51.9144 21.1198 52.5319 21.7785 53.1906 22.3549C53.6435 22.7254 53.8493 23.1371 53.7258 23.7135C53.6023 24.331 53.1083 24.578 52.5319 24.7015C49.4031 25.4426 46.2331 26.1425 43.1042 26.8423C38.3697 27.9127 33.6353 29.0243 28.9008 30.0947C27.6657 30.3829 26.8012 29.8477 26.4718 28.6126C26.2248 27.6245 25.9778 26.6365 25.772 25.6484C25.5249 24.4957 26.1837 23.5488 27.3364 23.343C32.9766 22.4372 38.6579 21.5315 44.2981 20.6258C45.9449 20.3376 47.6328 20.0906 49.5678 19.7612Z" fill="#1D1D1B"/>
<path d="M43.5159 28.6128C43.6805 31.4946 43.8864 34.4588 44.0922 37.4642C42.6101 37.8347 41.128 38.2464 39.646 38.6169C38.2874 38.9874 36.9288 39.3168 35.5702 39.6873C34.4586 39.9755 33.8823 39.6873 33.5529 38.6169C33.1001 37.2172 32.6472 35.8586 32.2355 34.4588C31.7415 32.7709 32.2767 31.8652 33.9646 31.4123C35.6114 31.0006 37.2581 30.5889 38.9049 30.1361C39.5636 29.9714 40.1812 29.9714 40.7987 30.3419C41.4986 30.7536 42.1985 30.4654 42.8983 30.2596C43.0218 30.2184 43.063 29.9714 43.1042 29.8067C43.2689 29.395 43.4335 28.9421 43.5159 28.6128ZM35.9407 34.5823C35.9407 36.0644 37.1346 37.2583 38.5344 37.2583C39.9341 37.2583 40.9634 36.1056 40.9222 34.6647C40.9222 33.1826 39.7283 31.9475 38.3285 31.9887C36.97 31.9887 35.9407 33.1414 35.9407 34.5823ZM33.7999 34.3353C34.294 34.2941 34.5822 34.006 34.6233 33.4708C34.6645 32.9356 34.2528 32.4827 33.7176 32.4827C33.2236 32.4827 32.8119 32.8944 32.853 33.4296C32.853 33.9236 33.2647 34.3353 33.7999 34.3353ZM35.7349 37.7524C35.7349 37.2172 35.3232 36.8055 34.788 36.8466C34.2116 36.8878 34.0058 37.2172 34.0058 37.7524C34.0058 38.2876 34.3763 38.6581 34.8703 38.6581C35.3644 38.6581 35.7349 38.2876 35.7349 37.7524ZM43.1042 31.3711C42.6101 31.7005 42.2808 31.9063 41.9514 32.1533C41.9103 32.1945 42.0338 32.5239 42.0749 32.5239C42.4455 32.565 42.7748 32.5239 43.1865 32.5239C43.1453 32.1533 43.1453 31.8652 43.1042 31.3711ZM43.2688 33.6766C43.1865 33.6354 43.1042 33.5531 43.0218 33.5119C42.816 33.7589 42.6101 34.006 42.4043 34.253C42.6513 34.3765 42.9395 34.5 43.3512 34.7058C43.31 34.2118 43.31 33.9236 43.2688 33.6766Z" fill="#1D1D1B"/>
<path d="M45.0804 28.4893C45.4921 28.2423 45.8626 27.9129 46.3155 27.7482C48.7856 26.8013 51.3381 26.225 53.9318 25.978C54.5493 25.8956 55.208 26.0603 55.7844 26.2661C56.1137 26.3896 56.4431 26.8013 56.5666 27.1307C57.4311 29.2303 58.2545 31.3711 59.1603 33.5943C54.5905 34.7882 50.0207 35.9409 45.4097 37.1348C45.3686 36.8054 45.3274 36.5173 45.2862 36.1467C49.5267 34.994 53.7259 33.8824 58.0075 32.7297C57.9252 32.4415 57.8428 32.1945 57.7193 31.9063C53.5612 33.0179 49.4443 34.0883 45.3274 35.1587C44.998 34.0883 45.0392 34.0883 45.9449 33.8413C49.5678 32.8532 53.2319 31.8651 56.8548 30.8771C56.9783 30.8359 57.0606 30.7947 57.2253 30.7536C57.143 30.5066 57.0606 30.2595 56.9371 29.9714C52.9849 31.0006 49.0738 32.071 45.0804 33.1002C45.0392 32.6885 44.9981 32.4003 44.9569 32.0298C45.5333 31.8651 46.1508 31.7005 46.7272 31.4946C46.6448 31.2064 46.5625 30.9594 46.4801 30.6301C45.9861 30.7536 45.4921 30.8771 44.9157 31.0006C44.8745 30.5889 44.8745 30.2184 44.8334 29.8479C45.2039 29.7655 45.5333 29.7243 45.8626 29.6008C46.3566 29.4362 46.7683 29.148 47.2624 28.9833C47.6329 28.8598 48.0034 28.6128 48.3328 28.6951C49.362 28.9421 50.3089 28.5716 51.2558 28.3246C51.8321 28.1599 52.3673 27.8306 52.9849 27.6247C53.3554 27.5012 53.7671 27.4189 54.1376 27.4189C54.6316 27.3777 55.0845 27.4189 55.5785 27.3365C55.0845 26.7602 54.467 26.5955 53.7671 26.6778C52.2438 26.8837 50.7617 27.1307 49.2796 27.46C47.8799 27.7894 46.5213 28.2423 45.1627 28.6128C45.1627 28.5716 45.1216 28.5304 45.0804 28.4893ZM49.4855 30.5477C49.4855 29.889 48.9503 29.3127 48.3328 29.2715C47.7564 29.2715 47.2212 29.7655 47.2212 30.3831C47.18 31.0418 47.7152 31.6593 48.3739 31.6593C48.9503 31.7416 49.4443 31.2476 49.4855 30.5477ZM54.7963 29.0656C54.7963 28.4893 54.3435 27.9952 53.8083 27.9952C53.3142 27.9952 52.9025 28.4069 52.8614 28.9421C52.8614 29.5185 53.2731 30.0125 53.8083 30.0537C54.3846 30.0949 54.7963 29.642 54.7963 29.0656ZM49.9795 29.7243C50.0619 30.0537 50.103 30.3007 50.1854 30.5889C50.9676 30.3831 51.6675 30.1772 52.4497 29.9714C52.3262 29.6832 52.2438 29.395 52.1615 29.1068C51.4204 29.3538 50.7617 29.5185 49.9795 29.7243ZM56.4431 28.901C56.1961 27.9952 56.1961 27.9952 55.3315 28.3658C55.4139 28.6128 55.455 28.8598 55.5374 29.148C55.8667 29.0656 56.1549 28.9833 56.4431 28.901Z" fill="#1D1D1B"/>
<path d="M60.3953 37.0935C59.7778 38.8638 59.2014 40.5105 58.6251 42.1573C58.5839 42.2808 58.4192 42.4043 58.2957 42.4455C57.6782 42.6102 57.0195 42.7749 56.3196 42.9395C56.6078 41.3339 56.8548 39.7695 57.143 38.2462C57.1841 38.1227 57.3076 37.9581 57.4311 37.9169C58.378 37.6287 59.3249 37.3817 60.3953 37.0935Z" fill="#1D1D1B"/>
<path d="M57.9664 26.8422C58.2134 26.5128 58.3781 26.1835 58.6663 25.8953C58.9133 25.6483 59.2015 25.4424 59.5309 25.3601C61.3011 24.9072 63.1126 24.4956 64.8829 24.0427C65.5827 23.878 66.1179 24.125 66.365 24.7837C67.0237 26.5128 67.6824 28.2831 68.2999 30.0122C68.5057 30.6298 68.1764 31.165 67.4765 31.3708C65.2534 31.9883 63.0302 32.5235 60.8071 33.0999C60.6424 33.1411 60.3542 32.9352 60.2719 32.8117C59.9426 32.0295 59.6132 31.2473 59.325 30.4651C59.2838 30.3416 59.325 30.1769 59.2838 30.0122C59.2427 29.8064 59.1603 29.6005 59.0368 29.4359C58.7486 29.0242 58.2546 28.6536 58.7487 28.0361C58.7898 27.9538 58.6663 27.6244 58.5428 27.5009C58.337 27.2539 58.0488 27.0892 57.8018 26.8834C57.8429 26.9245 57.8841 26.8834 57.9664 26.8422ZM60.7248 28.2419C60.7248 29.6005 61.7128 30.7121 62.9067 30.7533C64.0595 30.7533 64.9652 29.8064 64.9652 28.489C64.9652 27.1304 63.9771 26.06 62.7421 26.06C61.5893 26.0188 60.7248 26.9657 60.7248 28.2419ZM67.6 28.983C67.5177 28.489 67.2707 28.1184 66.7355 28.1184C66.2414 28.1184 65.9121 28.489 65.9533 29.0242C65.9944 29.5594 66.3238 29.8887 66.8178 29.8475C67.3118 29.8475 67.5589 29.477 67.6 28.983ZM65.171 26.5128C65.7886 26.5128 66.0356 26.2247 66.0768 25.7306C66.1179 25.2366 65.7062 24.7837 65.2122 24.7837C64.677 24.7837 64.43 25.1131 64.43 25.6071C64.43 26.1423 64.677 26.4717 65.171 26.5128Z" fill="#1D1D1B"/>
<path d="M58.8719 23.3431C58.0073 23.3843 57.7192 23.0137 57.6368 22.0257C57.5956 21.4081 58.0073 21.2023 59.1189 21.1611C59.7364 21.1611 59.9011 21.4081 59.9423 22.5197C59.9835 23.1784 59.7776 23.3431 58.8719 23.3431Z" fill="#1D1D1B"/>
<path d="M25.9778 85.4259C24.2898 86.3316 22.6431 87.2373 21.2021 88.1842C14.6151 92.5482 13.2565 93.7421 9.92177 94.2361C6.91642 94.689 4.15808 93.3716 4.15808 93.3716C4.15808 93.3716 7.86331 98.8471 18.8143 93.9479C20.7081 93.0834 23.2194 91.6013 25.9366 89.9545V85.4259H25.9778Z" fill="#008538"/>
<path d="M73.8988 80.3622C73.8988 80.3622 67.4352 88.6372 58.4603 91.8484C46.3977 96.2123 37.4229 92.7541 37.4229 92.7541L73.8988 80.3622Z" fill="#008538"/>
<path d="M53.7671 97.036C48.7856 98.1887 38.4933 98.7239 24.4134 92.9191C23.8782 93.2896 22.5608 93.7013 21.9021 93.9071C28.448 97.777 36.1055 100 44.257 100C63.8535 100 78.098 88.9668 84.8498 73.2402C84.3146 73.199 75.0927 92.0133 53.7671 97.036Z" fill="#008538"/>
<path d="M67.0647 54.0138C64.0181 55.537 56.69 59.9833 52.4496 62.6593V67.682C55.7843 65.8705 62.289 62.0006 64.9239 60.2715C74.5986 53.8903 78.592 52.1612 81.9267 50.5967C86.373 48.4971 91.8485 49.3205 91.8485 49.3205C91.8485 49.3205 83.944 45.5329 67.0647 54.0138Z" fill="#008538"/>
<path d="M16.3854 47.7151C16.6736 47.8798 17.0441 48.0856 17.4558 48.2915C19.679 49.3619 21.161 49.3207 21.161 49.3207C21.161 49.3207 17.6617 45.8213 15.8914 42.4043C16.0561 42.4866 16.2619 42.5689 16.4678 42.6925C18.1557 43.5158 19.3084 43.4747 19.3084 43.4747C19.3084 43.4747 16.5501 40.7163 15.1915 38.0403C15.315 38.1227 15.4797 38.1638 15.6444 38.2462C16.9206 38.8637 17.7852 38.8225 17.7852 38.8225C17.7852 38.8225 15.5209 36.5582 14.574 34.4998C13.8329 32.8118 13.1331 30.7946 13.1331 30.7946C13.1331 30.7946 12.5155 32.853 11.5686 34.5821C10.2512 37.0934 8.48093 39.7283 8.60444 39.6871C9.34549 39.3577 10.0042 38.9872 10.5394 38.6167C8.85146 41.7044 6.87534 44.6274 7.04001 44.5862C8.02807 44.1745 8.89263 43.6805 9.63367 43.1865C7.4517 47.1387 4.98155 50.8851 5.1874 50.7616C6.71066 50.1029 8.02807 49.3207 9.01613 48.6208C6.58715 52.9847 3.86999 56.937 4.117 56.9782C8.48094 57.7192 10.21 57.678 15.6444 57.4722C20.173 57.3075 22.2314 55.2902 22.2314 55.2902C22.2314 55.2902 18.4439 51.5438 16.3854 47.7151Z" fill="#008538"/>
<path d="M71.1405 35.5701C72.4579 37.9167 72.9931 40.5927 72.9519 43.3922C73.6518 43.1452 74.3105 42.9394 75.0104 42.7747L80.4447 43.7628C80.4447 43.7628 76.616 39.934 74.5987 36.1465C74.8869 36.3111 75.2574 36.517 75.6691 36.7228C77.8922 37.7932 79.3743 37.7521 79.3743 37.7521C79.3743 37.7521 75.8749 34.2527 74.1046 30.7945C74.2693 30.8768 74.4752 30.9591 74.681 31.0827C76.369 31.906 77.5217 31.8649 77.5217 31.8649C77.5217 31.8649 74.7634 29.1065 73.4048 26.4305C73.5283 26.5129 73.693 26.554 73.8576 26.6364C75.1339 27.2539 75.9984 27.2127 75.9984 27.2127C75.9984 27.2127 73.7341 24.9484 72.7872 22.8488C72.0462 21.1609 71.3463 19.1024 71.3463 19.1024C71.3463 19.1024 70.7288 21.1609 69.7819 22.9312C69.082 24.2486 68.2998 25.566 67.6823 26.554C67.8058 26.8011 69.823 33.1823 71.1405 35.5701Z" fill="#008538"/>
<path d="M81.1445 31.5357C79.4565 29.3949 77.6039 27.8717 77.6862 27.9952C84.8497 39.4402 85.5907 46.7683 85.6319 46.7683C86.1671 46.7683 87.0728 46.686 87.5257 46.7683C86.4553 40.84 84.5203 35.9408 81.1445 31.5357Z" fill="#008538"/>
<path d="M16.1383 27.995L24.2075 11.6097L28.4067 16.0972L39.7283 0L51.2145 13.2565L55.4137 10.5393L65.953 19.7612L57.925 14.2445L58.4191 18.6085L55.0432 13.9975L56.3194 20.1317L42.4043 5.72252L46.0683 15.5208L41.0457 9.34541L39.7283 15.9736L38.452 7.94565L32.8118 17.2911L35.9407 8.31618L25.7307 22.2725L27.5833 17.044L26.1013 15.1914L24.2075 20.1317L23.5076 16.6735L16.1383 27.995Z" fill="#008538"/>
<path d="M0 55.7842C0 57.7604 0.123507 59.6953 0.370522 61.5891C0.45286 62.2478 1.19391 66.2 1.6056 67.5175C2.75834 71.4285 4.44627 75.2161 6.71058 78.7978V76.8629C4.77563 73.3223 3.29354 68.629 2.26431 63.3182C1.89378 60.8069 1.6056 58.2132 1.6056 55.7842C1.6056 45.3684 5.76369 33.8411 15.562 26.0189C15.6031 25.1955 17.9086 20.8728 18.1968 20.1317C7.16344 28.1597 0 41.1692 0 55.7842Z" fill="#008538"/>
</svg>
