<svg width="150" height="164" viewBox="0 0 150 164" fill="none" xmlns="http://www.w3.org/2000/svg">
<path d="M35.0965 112.349C33.214 113.021 31.6676 114.702 30.6591 117.459C29.6505 120.148 29.1127 123.577 29.1127 127.678C29.1127 132.116 29.6505 135.343 30.6591 137.226C31.6676 139.041 33.0795 139.579 34.9621 138.839C35.0965 138.772 35.1638 138.772 35.2982 138.705C37.1808 137.763 38.7272 135.881 39.7357 133.057C40.7442 130.3 41.2149 127.006 41.2149 123.039C41.2149 119.005 40.7442 116.181 39.6685 114.299C38.5927 112.349 37.0463 111.677 35.0965 112.349ZM33.9535 131.578C33.6174 130.771 33.4829 128.821 33.4829 125.863C33.4829 121.694 34.0208 119.946 34.4242 119.207C34.5587 118.938 34.7604 118.803 34.9621 118.669C34.9621 118.669 34.9621 118.669 35.0293 118.669C36.4412 118.198 36.7102 121.627 36.7102 124.653C36.7102 127.477 36.5757 129.426 36.2395 130.502C35.9706 131.443 35.5672 132.049 35.0293 132.318C34.7604 132.452 34.357 132.586 33.9535 131.578Z" fill="#F2F2F2"/>
<path d="M51.1655 120.148C51.7706 119.341 52.3085 118.4 52.6447 117.324C53.0481 116.114 53.2498 114.971 53.2498 113.895C53.2498 111.744 52.7119 110.197 51.7034 109.323C50.6949 108.382 49.283 108.248 47.5349 108.786L43.0974 110.265V134.133L47.2659 132.049V123.779C48.0055 126.132 48.7451 128.418 49.4847 130.637L49.5519 130.906L53.9894 128.754L53.7877 128.284C52.9809 125.661 52.0396 122.972 51.1655 120.148ZM48.9468 115.98C48.9468 116.719 48.7451 117.728 47.3332 118.467V114.097C47.8711 113.963 48.2745 114.03 48.5434 114.232C48.7451 114.5 48.9468 115.106 48.9468 115.98Z" fill="#F2F2F2"/>
<path d="M55.5358 138.705C56.6115 137.427 57.1494 136.217 57.1494 134.939C57.1494 133.595 56.5443 132.721 55.4685 132.452C54.3928 132.183 52.7792 132.653 50.3587 133.864L46.1902 136.015V149.597L51.5017 147.781C51.8379 147.647 52.174 147.58 52.443 147.445C53.7877 146.907 54.8634 146.1 55.7375 145.159C56.8805 143.949 57.4183 142.537 57.4183 141.125C57.4856 140.049 57.1494 138.839 55.5358 138.705ZM50.7621 139.242V137.158C51.4345 136.822 51.9723 136.688 52.3085 136.755C52.5775 136.755 52.7119 136.956 52.7119 137.36C52.7119 138.099 51.7034 138.772 50.7621 139.242ZM53.0481 142.671C53.0481 142.94 52.9809 143.276 52.5102 143.613C52.1068 143.949 51.5017 144.285 50.7621 144.621V142.47C51.7706 142.134 53.0481 141.797 53.0481 142.671Z" fill="#F2F2F2"/>
<path d="M59.368 118.131L62.4607 116.786V111.744L59.368 112.954V110.063L62.9314 108.785V103.608L55.1322 106.231L55.1994 128.283L62.9986 124.451V119.341L59.368 120.955V118.131Z" fill="#F2F2F2"/>
<path d="M68.243 134.401C68.9153 133.729 69.4532 132.922 69.7894 132.048C70.1928 131.04 70.4617 130.031 70.4617 129.157C70.4617 127.409 69.8566 126.266 68.7136 125.863C67.6379 125.459 66.1587 125.728 64.2089 126.737L59.4353 129.224V145.226L63.94 143.68V137.427C64.8141 139.108 65.6881 140.856 66.4949 142.604L66.5621 142.806L71.3358 141.192L71.0669 140.654C70.1928 138.503 69.2515 136.418 68.243 134.401ZM65.8898 131.578C65.8898 132.384 65.2175 133.124 64.0072 133.729V130.771C64.6796 130.502 65.2175 130.367 65.4864 130.502C65.7553 130.569 65.8898 130.905 65.8898 131.578Z" fill="#F2F2F2"/>
<path d="M112.282 56.8803C111.206 58.3595 110.332 59.5697 109.39 60.7799C108.92 61.3178 108.853 61.7884 109.122 62.528C110.399 66.0914 111.407 69.7893 110.937 73.6217C110.802 74.8319 110.264 75.9749 109.928 77.2523C110.13 77.2523 110.533 77.2523 110.937 77.1179C112.618 76.5127 114.5 76.1766 116.047 75.2353C119.476 73.0838 123.039 73.6217 126.67 74.1595C129.023 74.4957 131.174 75.2353 133.124 76.7144C132.452 76.58 131.78 76.5127 131.107 76.3783C124.787 75.0336 114.836 78.9332 109.122 81.5553C103.339 84.1775 103.138 84.3792 97.3555 86.9341C86.0601 91.9094 78.0592 96.4814 65.9571 99.1035C57.7545 100.852 46.3918 102.667 35.7688 100.179C42.425 99.1035 48.8795 98.0278 54.7289 97.0192C54.0566 96.078 53.2498 95.0694 52.5102 93.9937C52.174 93.523 51.8378 93.4558 51.3 93.6575C42.694 97.0192 38.0548 97.4226 28.9781 97.2882C28.9109 97.2882 26.356 96.8175 26.4905 96.8848C32.2054 95.6745 36.3067 94.8005 42.425 93.523C38.9288 90.2286 37.7186 86.1945 37.248 81.8915C37.1807 81.2864 37.248 80.6813 37.3152 80.1434C37.3824 79.74 37.6514 79.1349 37.9203 79.0676C38.2565 79.0004 38.7944 79.3366 39.0633 79.6055C41.0131 81.6898 42.0216 84.3119 42.6267 87.0685C42.9629 88.4805 43.0301 89.9596 43.0974 91.3715C43.0974 91.9767 42.8284 92.5818 42.694 93.1869C43.568 93.2541 44.1059 92.7162 43.9714 91.775C43.7697 89.8924 43.568 88.0098 43.2991 86.1945C43.2318 85.7911 43.0974 85.3204 42.9629 84.8498C44.2404 84.8498 45.5178 84.8498 46.728 84.8498C46.9297 84.8498 47.2659 85.1187 47.3331 85.3204C47.871 87.3375 48.3416 89.4217 47.6021 91.7077C48.5433 91.3715 49.4174 91.1026 50.3587 90.7664C50.0897 90.2286 49.888 89.7579 49.6863 89.2873C47.2659 84.1102 45.585 78.7315 45.3833 72.9493C45.3161 71.8063 45.5178 70.5961 45.854 69.4531C46.1901 68.0412 47.2659 67.705 48.4089 68.6463C49.4174 69.4531 50.2914 70.4616 51.031 71.5374C54.9306 77.5885 57.0821 84.3119 57.5528 91.506C57.62 92.5818 57.4183 93.6575 57.2838 94.7333C57.1493 95.6745 56.6787 96.4141 55.603 96.6831C55.9391 97.5571 56.6115 97.826 57.3511 97.7588C58.494 97.5571 59.637 97.3554 60.7128 97.0192C62.5953 96.3469 64.4107 95.6073 66.226 94.8677C67.4362 94.3971 67.9069 93.3213 68.1758 92.1784C68.8481 89.6907 68.5792 87.1358 68.1758 84.6481C67.6379 81.2192 66.5622 77.8574 65.1502 74.6302C63.2004 74.9664 61.2506 75.2353 59.3008 75.6387C57.6872 75.9749 56.5442 75.6387 55.603 74.1595C54.46 72.4114 53.2498 70.5961 51.9051 69.0497C50.8293 67.8395 49.4846 66.831 48.1399 65.8225C47.3331 65.2846 46.3918 65.1501 45.5178 65.8225C44.711 66.4948 44.5765 67.3689 44.7782 68.3774C44.8455 68.6463 44.9799 68.9825 44.9127 69.2514C43.9714 72.9493 44.711 76.58 45.5178 80.1434C45.7195 81.1519 46.0557 82.2277 46.3919 83.5051C45.3161 83.5724 44.3076 83.7068 43.3663 83.6396C42.9629 83.6396 42.5595 83.1689 42.3578 82.7655C41.551 81.4208 40.8114 80.0762 39.9374 78.7315C39.1305 77.5213 38.1893 76.3783 36.3739 77.3868C35.9705 75.5042 35.4999 73.7561 35.2309 72.008C35.0965 71.3357 35.4999 70.5289 35.6344 69.7893C35.7016 69.4531 35.8361 69.1842 35.9705 68.848C36.5084 67.3016 36.9118 65.688 37.5842 64.1416C38.6599 61.5867 38.6599 59.0318 37.8531 56.4097C35.3654 56.8131 34.8948 56.5441 33.9535 54.1909C33.6173 53.3841 33.2811 52.5773 32.945 51.7033C32.5416 50.493 33.0122 49.5518 34.2897 49.2156C34.962 49.0139 35.5671 48.8794 36.3067 48.7449C35.5671 45.6522 36.5756 42.8956 38.122 40.3406C38.391 39.9372 38.8616 39.6011 39.265 39.2649C39.6012 39.7355 40.0718 40.1389 40.1391 40.6768C41.282 45.7194 42.2906 50.762 43.3663 55.8046C43.4335 56.0735 43.4335 56.3424 43.568 56.5441C43.9714 57.7544 44.8455 57.9561 45.7195 57.0148C46.6608 55.939 47.5348 54.8633 48.4761 53.7875C48.8123 53.3841 49.2157 53.1152 49.8208 52.5773C49.888 53.5858 49.8208 54.3254 50.0225 54.9977C51.3 59.4352 52.5102 63.9399 53.9893 68.3102C54.7961 70.7978 58.0234 72.0753 60.5111 71.4029C63.6711 70.4616 66.7639 69.5876 69.9239 68.7136C70.26 68.6463 70.529 68.5791 70.9324 68.5119C71.2686 70.7306 71.5375 72.8821 71.8737 75.0336C72.0754 76.3783 72.3443 76.5127 73.689 76.1766C81.421 74.1595 89.1529 72.2097 96.8849 70.1927C97.8934 69.9238 98.5657 69.3859 98.9691 68.3774C100.112 65.7552 101.255 63.1331 102.398 60.511C102.667 59.8386 103.003 59.4352 103.743 59.2335C106.432 58.4939 109.189 57.6871 112.282 56.8803ZM68.512 92.5145C80.8831 87.0013 92.9853 81.5553 104.886 76.311C103.877 74.6974 102.667 72.8821 101.591 70.9995C101.188 70.2599 100.852 70.1927 100.112 70.3944C90.027 73.3527 79.9418 76.311 69.9239 79.2694C69.5205 79.4038 69.1171 79.5383 68.7137 79.74C69.3188 83.9758 69.7222 88.0771 68.512 92.5145ZM51.0983 74.1595C48.5434 78.9332 52.4429 88.9511 56.3425 90.1613C55.334 84.5136 54.2583 79.1349 51.0983 74.1595ZM42.0216 89.22C41.551 86.8668 41.1476 84.6481 39.8029 82.5638C38.9961 84.917 40.1391 88.2788 42.0216 89.22Z" fill="#F2F2F2"/>
<path d="M70.2601 108.785C69.2515 108.315 68.6464 107.71 68.6464 107.037C68.6464 106.701 68.7137 106.432 68.9154 106.231C69.1171 105.962 69.386 105.76 69.7222 105.625C70.3273 105.424 71.0669 105.424 72.0754 105.76L72.6133 105.894V100.717L72.4116 100.65C71.403 100.448 70.3945 100.516 69.3188 100.852C67.9069 101.322 66.6966 102.331 65.8226 103.743C64.8813 105.222 64.4779 106.903 64.4779 108.718C64.4779 110.063 64.7468 111.139 65.352 112.013C65.9571 112.819 66.8311 113.626 68.0413 114.231C68.512 114.5 68.8481 114.702 69.0498 114.904C69.1843 115.105 69.2515 115.307 69.2515 115.576C69.2515 115.98 69.1843 116.248 68.9826 116.585C68.7809 116.921 68.512 117.123 68.1758 117.324H68.1086C67.4362 117.593 66.5622 117.593 65.5536 117.324L65.0158 117.19V122.77H65.2175C66.0915 122.905 67.0328 122.703 67.9741 122.367C68.1086 122.3 68.1758 122.3 68.3103 122.232C69.7894 121.493 71.0669 120.283 72.0754 118.669C73.0839 117.055 73.5545 115.374 73.5545 113.694C73.5545 112.214 73.1511 111.071 72.4116 110.332C71.7392 109.659 70.9996 109.122 70.2601 108.785Z" fill="#F2F2F2"/>
<path d="M78.3281 118.803C76.311 119.879 74.7646 121.56 73.6217 123.846C72.4787 126.132 71.9408 128.619 71.9408 131.578C71.9408 134.738 72.4787 136.889 73.6217 138.234C74.7646 139.579 76.4455 139.915 78.5298 139.175C78.7315 139.108 78.9332 139.041 79.1349 138.974C80.9502 138.167 82.3621 136.755 83.3706 134.671C84.4464 132.385 85.0515 129.494 85.0515 126.065C85.0515 122.636 84.4464 120.282 83.3034 119.005C82.1604 117.728 80.5468 117.66 78.3281 118.803ZM80.2779 128.082C80.2779 130.838 80.0089 132.116 79.74 132.721C79.4038 133.528 79.0004 133.998 78.3953 134.2C77.8574 134.402 77.454 134.267 77.1179 133.729C76.7817 133.191 76.6472 131.78 76.6472 129.628C76.6472 126.401 77.2523 124.451 78.3953 123.913C78.7987 123.711 79.1349 123.711 79.4038 123.913C80.0089 124.316 80.2779 125.728 80.2779 128.082Z" fill="#F2F2F2"/>
<path d="M85.7241 120.887L88.4135 119.61V135.41L92.9182 133.863V117.458L95.5403 116.181V110.399L85.7241 115.508V120.887Z" fill="#F2F2F2"/>
<path d="M104.55 114.366L101.793 115.643V107.172L97.2883 109.458L97.3556 132.385L101.793 130.838V121.358L104.55 120.215V129.897L109.054 128.418L108.987 103.406L104.55 105.692V114.366Z" fill="#F2F2F2"/>
<path d="M27.4318 126.603C27.0284 123.779 27.2301 120.82 28.1042 118.064V116.517L23.0616 118.333V112.08L28.8438 110.265V100.179L16.4054 103.608V148.185L23.1288 144.89V128.351L27.4318 126.603Z" fill="#F2F2F2"/>
<path d="M116.517 115.778L119.879 114.366V108.113L116.517 109.659L116.45 105.76L120.417 103.877V97.49L112.013 101.86L112.08 127.342L120.484 124.518V118.131L116.517 119.61V115.778Z" fill="#F2F2F2"/>
<path d="M74.2942 104.886L76.6474 104.012V117.795L80.9504 115.711L80.8832 102.398L83.3036 101.524V96.7505L74.2942 99.8433V104.886Z" fill="#F2F2F2"/>
<path d="M131.51 107.776C132.25 106.768 132.788 105.558 133.191 104.146C133.595 102.667 133.796 101.12 133.796 99.7084C133.796 96.8845 133.259 94.9347 132.116 93.859C131.04 92.7832 129.493 92.716 127.544 93.7245L122.77 96.2122L122.837 123.711L127.342 122.165V111.609C128.216 114.702 129.09 117.929 129.897 121.022L129.964 121.291L134.671 119.677L134.536 119.139C133.528 115.239 132.519 111.407 131.51 107.776ZM129.225 102.33C129.225 103.877 128.619 104.953 127.342 105.692V100.045C128.014 99.7756 128.485 99.8428 128.754 100.112C129.023 100.381 129.225 101.12 129.225 102.33Z" fill="#F2F2F2"/>
<path d="M144.083 101.591C143.277 100.179 142.47 99.1707 141.73 98.5656C140.52 97.6243 139.915 96.6158 139.915 95.4728C139.915 94.8677 140.049 94.3298 140.251 93.8592C140.453 93.4558 140.789 93.1196 141.125 92.9179C141.797 92.5817 142.604 92.7162 143.68 93.2541L144.151 93.523V85.6566L144.016 85.5894C142.94 85.3204 141.797 85.4549 140.654 86.06C139.108 86.8668 137.831 88.4132 136.822 90.5647C135.881 92.7162 135.41 95.0694 135.41 97.6915C135.41 99.5741 135.746 101.188 136.351 102.465C136.957 103.743 137.898 104.953 139.31 106.23C139.848 106.701 140.184 107.172 140.453 107.575C140.654 107.978 140.722 108.449 140.722 108.92C140.722 109.592 140.587 110.197 140.385 110.668C140.184 111.138 139.915 111.407 139.511 111.542C138.772 111.811 137.831 111.609 136.62 110.869L136.083 110.533V118.4L136.217 118.467C137.36 119.005 138.436 119.072 139.579 118.736C139.713 118.669 139.848 118.601 139.982 118.601C141.461 117.929 142.739 116.584 143.747 114.635C144.823 112.483 145.361 109.995 145.361 107.239C145.361 104.886 144.89 103.003 144.083 101.591Z" fill="#F2F2F2"/>
<path d="M112.685 52.2412C112.685 54.3255 112.013 55.2668 110.399 55.6702C93.4559 60.1749 76.5801 64.7468 59.637 69.2515C58.0234 69.6549 57.4855 69.4532 56.5442 68.1758C55.9391 67.3689 56.2081 66.8311 57.0149 66.5621C58.0234 66.226 59.0991 65.957 60.1076 65.6881C76.9162 61.3179 93.7248 56.9476 110.533 52.5774C111.206 52.4429 111.878 52.3757 112.685 52.2412Z" fill="#F2F2F2"/>
<path d="M74.9664 73.8231C74.832 71.5372 74.7647 69.3184 74.6302 66.9652C76.3111 66.4946 77.992 66.024 79.8073 65.4861C79.4039 67.9065 79.0677 70.1925 78.6643 72.4785C78.5971 72.6802 78.3281 72.9491 78.0592 73.0163C77.1179 73.2853 76.1094 73.5542 74.9664 73.8231Z" fill="#F2F2F2"/>
<path d="M80.9503 32.2725C81.6226 32.6086 82.6984 33.012 83.6397 33.6171C84.7826 34.4912 85.7912 35.5669 86.8669 36.5082C87.6065 37.1133 87.9427 37.7857 87.741 38.727C87.5393 39.7355 86.7324 40.1389 85.7912 40.3406C80.6814 41.5508 75.5043 42.6938 70.3945 43.8368C62.6625 45.5849 54.9306 47.4002 47.1986 49.1483C45.1816 49.6189 43.7697 48.7449 43.2318 46.7279C42.8284 45.1142 42.425 43.5006 42.0888 41.887C41.6854 40.0044 42.7612 38.458 44.6437 38.1219C53.8548 36.6427 63.1332 35.1635 72.3443 33.6844C75.0337 33.2137 77.7903 32.8103 80.9503 32.2725Z" fill="#F2F2F2"/>
<path d="M71.0669 46.728C71.3358 51.4344 71.672 56.2753 72.0082 61.1834C69.5877 61.7885 67.1673 62.4609 64.7468 63.066C62.5281 63.6711 60.3094 64.209 58.0906 64.8141C56.2753 65.2847 55.334 64.8141 54.7962 63.066C54.0566 60.78 53.317 58.5613 52.6447 56.2753C51.8378 53.5187 52.7119 52.0395 55.4685 51.3C58.1579 50.6276 60.8472 49.9553 63.5366 49.2157C64.6124 48.9468 65.6209 48.9468 66.6294 49.5519C67.7724 50.2242 68.9154 49.7536 70.0584 49.4174C70.2601 49.3502 70.3273 48.9468 70.3945 48.6778C70.6635 48.0055 70.9324 47.2659 71.0669 46.728ZM58.6957 56.477C58.6957 58.8974 60.6455 60.8472 62.9315 60.8472C65.2175 60.8472 66.8983 58.9647 66.8311 56.6115C66.8311 54.191 64.8813 52.174 62.5953 52.2412C60.3766 52.2412 58.6957 54.1238 58.6957 56.477ZM55.1996 56.0736C56.0064 56.0064 56.477 55.5357 56.5443 54.6617C56.6115 53.7876 55.9391 53.0481 55.0651 53.0481C54.2583 53.0481 53.5859 53.7204 53.6532 54.5944C53.6532 55.4013 54.3255 56.0736 55.1996 56.0736ZM58.3596 61.6541C58.3596 60.78 57.6872 60.1077 56.8132 60.1749C55.8719 60.2421 55.5357 60.78 55.5357 61.6541C55.5357 62.5281 56.1408 63.1332 56.9477 63.1332C57.7545 63.1332 58.3596 62.5281 58.3596 61.6541ZM70.3945 51.2327C69.5877 51.7706 69.0498 52.1068 68.512 52.5102C68.4447 52.5774 68.6464 53.1153 68.7137 53.1153C69.3188 53.1825 69.8567 53.1153 70.529 53.1153C70.4618 52.5102 70.4618 52.0395 70.3945 51.2327ZM70.6635 54.9979C70.529 54.9306 70.3945 54.7961 70.2601 54.7289C69.9239 55.1323 69.5877 55.5357 69.2515 55.9391C69.6549 56.1408 70.1256 56.3425 70.7979 56.6787C70.7307 55.8719 70.7307 55.4013 70.6635 54.9979Z" fill="#F2F2F2"/>
<path d="M73.6218 46.5263C74.2941 46.1229 74.8992 45.585 75.6388 45.3161C79.6729 43.7697 83.8414 42.8284 88.0772 42.425C89.0857 42.2905 90.1614 42.5595 91.1027 42.8956C91.6406 43.0974 92.1785 43.7697 92.3802 44.3076C93.7921 47.7365 95.1368 51.2327 96.6159 54.8634C89.1529 56.8132 81.6899 58.6957 74.1597 60.6455C74.0924 60.1076 74.0252 59.637 73.958 59.0319C80.8831 57.1493 87.741 55.334 94.7334 53.4514C94.5989 52.9808 94.4644 52.5774 94.2627 52.1068C87.4721 53.9221 80.7486 55.6702 74.0252 57.4183C73.4873 55.6702 73.5546 55.6702 75.0337 55.2668C80.9503 53.6531 86.9342 52.0395 92.8508 50.4259C93.0525 50.3587 93.187 50.2914 93.4559 50.2242C93.3215 49.8208 93.187 49.4174 92.9853 48.9467C86.5308 50.6276 80.1435 52.3757 73.6218 54.0566C73.5545 53.3842 73.4873 52.9136 73.4201 52.3085C74.3614 52.0395 75.3699 51.7706 76.3112 51.4344C76.1767 50.9638 76.0422 50.5604 75.9078 50.0225C75.1009 50.2242 74.2941 50.4259 73.3529 50.6276C73.2856 49.9553 73.2856 49.3502 73.2184 48.745C73.8235 48.6106 74.3614 48.5433 74.8992 48.3416C75.7061 48.0727 76.3784 47.6021 77.1852 47.3331C77.7903 47.1314 78.3954 46.728 78.9333 46.8625C80.6142 47.2659 82.1605 46.6608 83.7069 46.2574C84.6482 45.9884 85.5223 45.4506 86.5308 45.1144C87.1359 44.9127 87.8082 44.7782 88.4133 44.7782C89.2202 44.711 89.9597 44.7782 90.7665 44.6437C89.9597 43.7025 88.9512 43.4335 87.8082 43.568C85.3206 43.9042 82.9001 44.3076 80.4797 44.8454C78.1937 45.3833 75.975 46.1229 73.7563 46.728C73.7563 46.6608 73.689 46.5935 73.6218 46.5263ZM80.8159 49.888C80.8159 48.8123 79.9418 47.871 78.9333 47.8038C77.992 47.8038 77.118 48.6106 77.118 49.6191C77.0507 50.6948 77.9248 51.7034 79.0005 51.7034C79.9418 51.8378 80.7486 51.031 80.8159 49.888ZM89.4891 47.4676C89.4891 46.5263 88.7495 45.7195 87.8755 45.7195C87.0687 45.7195 86.3963 46.3918 86.3291 47.2659C86.3291 48.2072 87.0014 49.014 87.8755 49.0812C88.8168 49.1484 89.4891 48.4089 89.4891 47.4676ZM81.6227 48.5433C81.7571 49.0812 81.8244 49.4846 81.9589 49.9553C83.2363 49.6191 84.3793 49.2829 85.6567 48.9467C85.455 48.4761 85.3206 48.0055 85.1861 47.5348C83.9759 47.9382 82.9001 48.2072 81.6227 48.5433ZM92.1785 47.1986C91.7751 45.7195 91.7751 45.7195 90.3631 46.3246C90.4976 46.728 90.5649 47.1314 90.6993 47.6021C91.2372 47.4676 91.7078 47.3331 92.1785 47.1986Z" fill="#F2F2F2"/>
<path d="M98.633 60.5781C97.6245 63.4692 96.6832 66.1586 95.7419 68.848C95.6747 69.0497 95.4058 69.2514 95.2041 69.3186C94.1955 69.5875 93.1198 69.8565 91.9768 70.1254C92.4474 67.5033 92.8509 64.9484 93.3215 62.4607C93.3887 62.259 93.5904 61.99 93.7921 61.9228C95.3385 61.4522 96.8849 61.0488 98.633 60.5781Z" fill="#F2F2F2"/>
<path d="M94.6663 43.8367C95.0697 43.2988 95.3386 42.761 95.8093 42.2903C96.2127 41.8869 96.6833 41.5507 97.2212 41.4163C100.112 40.6767 103.071 40.0043 105.962 39.2648C107.105 38.9958 107.979 39.3992 108.382 40.475C109.458 43.2988 110.534 46.1899 111.542 49.0137C111.878 50.0223 111.34 50.8963 110.197 51.2325C106.567 52.241 102.936 53.115 99.3054 54.0563C99.0365 54.1236 98.5659 53.7874 98.4314 53.5857C97.8935 52.3082 97.3556 51.0308 96.885 49.7533C96.8178 49.5516 96.885 49.2827 96.8178 49.0137C96.7505 48.6776 96.6161 48.3414 96.4144 48.0725C95.9437 47.4001 95.1369 46.795 95.9437 45.7865C96.011 45.652 95.8093 45.1142 95.6076 44.9125C95.2714 44.509 94.8007 44.2401 94.3973 43.9039C94.4646 43.9712 94.5318 43.9039 94.6663 43.8367ZM99.171 46.1227C99.171 48.3414 100.785 50.1567 102.734 50.224C104.617 50.224 106.096 48.6776 106.096 46.5261C106.096 44.3073 104.482 42.5592 102.465 42.5592C100.583 42.492 99.171 44.0384 99.171 46.1227ZM110.399 47.3329C110.265 46.5261 109.861 45.921 108.987 45.921C108.18 45.921 107.643 46.5261 107.71 47.4001C107.777 48.2742 108.315 48.812 109.122 48.7448C109.928 48.7448 110.332 48.1397 110.399 47.3329ZM106.432 43.2988C107.441 43.2988 107.844 42.8282 107.911 42.0214C107.979 41.2146 107.306 40.475 106.5 40.475C105.625 40.475 105.222 41.0129 105.222 41.8197C105.222 42.6937 105.625 43.2316 106.432 43.2988Z" fill="#F2F2F2"/>
<path d="M96.1451 38.122C94.7332 38.1892 94.2626 37.5841 94.1281 35.9705C94.0608 34.962 94.7332 34.6258 96.5485 34.5586C97.557 34.5586 97.826 34.962 97.8932 36.7773C97.9604 37.8531 97.6243 38.122 96.1451 38.122Z" fill="#F2F2F2"/>
<path d="M42.425 139.511C39.6684 140.99 36.979 142.47 34.6258 144.016C23.8683 151.143 21.6496 153.093 16.2036 153.899C11.2955 154.639 6.79077 152.487 6.79077 152.487C6.79077 152.487 12.8419 161.43 30.7262 153.429C33.819 152.017 37.9203 149.596 42.3578 146.907V139.511H42.425Z" fill="#008538"/>
<path d="M120.686 131.241C120.686 131.241 110.13 144.756 95.473 150C75.7733 157.127 61.1162 151.479 61.1162 151.479L120.686 131.241Z" fill="#008538"/>
<path d="M87.8082 158.471C79.6728 160.354 62.8643 161.228 39.8701 151.748C38.996 152.353 36.8445 153.025 35.7688 153.362C46.4591 159.682 58.9647 163.312 72.2771 163.312C104.281 163.312 127.544 145.294 138.57 119.61C137.696 119.543 122.636 150.269 87.8082 158.471Z" fill="#008538"/>
<path d="M109.525 88.2112C104.55 90.6989 92.5819 97.9602 85.6567 102.33V110.533C91.1027 107.575 101.726 101.255 106.029 98.4309C121.829 88.0095 128.351 85.1857 133.797 82.6308C141.058 79.2018 150 80.5465 150 80.5465C150 80.5465 137.091 74.361 109.525 88.2112Z" fill="#008538"/>
<path d="M26.7594 77.9246C27.2301 78.1935 27.8352 78.5297 28.5075 78.8659C32.1382 80.614 34.5586 80.5467 34.5586 80.5467C34.5586 80.5467 28.8437 74.8318 25.9526 69.2514C26.2216 69.3858 26.5577 69.5203 26.8939 69.722C29.6505 71.0667 31.5331 70.9994 31.5331 70.9994C31.5331 70.9994 27.0284 66.4947 24.8097 62.1245C25.0114 62.259 25.2803 62.3262 25.5492 62.4607C27.6335 63.4692 29.0454 63.402 29.0454 63.402C29.0454 63.402 25.3475 59.7041 23.8011 56.3424C22.5909 53.5857 21.4479 50.2913 21.4479 50.2913C21.4479 50.2913 20.4394 53.653 18.893 56.4768C16.7415 60.5781 13.8505 64.8811 14.0522 64.8139C15.2624 64.276 16.3381 63.6709 17.2122 63.0658C14.4556 68.1084 11.2283 72.882 11.4972 72.8148C13.1109 72.1424 14.5228 71.3356 15.733 70.5288C12.1696 76.9833 8.13553 83.1016 8.4717 82.8999C10.9594 81.8242 13.1109 80.5467 14.7245 79.4037C10.7577 86.5306 6.3202 92.9851 6.72361 93.0523C13.8505 94.2625 16.6743 94.1953 25.5492 93.8591C32.945 93.5902 36.3067 90.2957 36.3067 90.2957C36.3067 90.2957 30.1212 84.1774 26.7594 77.9246Z" fill="#008538"/>
<path d="M116.181 58.0903C118.333 61.9226 119.207 66.2929 119.139 70.8648C120.282 70.4614 121.358 70.1252 122.501 69.8563L131.376 71.4699C131.376 71.4699 125.123 65.2171 121.829 59.0316C122.299 59.3005 122.905 59.6367 123.577 59.9728C127.208 61.7209 129.628 61.6537 129.628 61.6537C129.628 61.6537 123.913 55.9388 121.022 50.2911C121.291 50.4256 121.627 50.56 121.963 50.7617C124.72 52.1064 126.602 52.0392 126.602 52.0392C126.602 52.0392 122.098 47.5345 119.879 43.1643C120.081 43.2987 120.35 43.366 120.619 43.5004C122.703 44.5089 124.115 44.4417 124.115 44.4417C124.115 44.4417 120.417 40.7438 118.871 37.3149C117.66 34.5583 116.517 31.1965 116.517 31.1965C116.517 31.1965 115.509 34.5583 113.962 37.4493C112.819 39.6008 111.542 41.7523 110.533 43.366C110.735 43.7694 114.03 54.1907 116.181 58.0903Z" fill="#008538"/>
<path d="M132.519 51.5016C129.762 48.0054 126.737 45.5177 126.871 45.7194C138.57 64.4106 139.78 76.3783 139.847 76.3783C140.722 76.3783 142.201 76.2439 142.94 76.3783C141.192 66.6966 138.032 58.6957 132.519 51.5016Z" fill="#008538"/>
<path d="M26.356 45.7194L39.5339 18.9601L46.3918 26.2886L64.8812 0L83.6396 21.6495L90.4976 17.212L107.71 32.2725L94.5989 23.2631L95.4057 30.3899L89.8924 22.8597L91.9767 32.8776L69.2515 9.34558L75.2353 25.3474L67.0328 15.2622L64.8812 26.0869L62.797 12.9762L53.5859 28.2384L58.6957 13.5813L42.0216 36.3738L45.0471 27.835L42.6267 24.8095L39.5339 32.8776L38.3909 27.2299L26.356 45.7194Z" fill="#008538"/>
<path d="M0 91.1027C0 94.3299 0.201702 97.4899 0.605108 100.583C0.739577 101.658 1.9498 108.113 2.62214 110.264C4.5047 116.652 7.26131 122.837 10.9592 128.687V125.527C7.79919 119.744 5.37875 112.08 3.69789 103.407C3.09278 99.3053 2.62214 95.0695 2.62214 91.1027C2.62214 74.0924 9.41281 55.2667 25.4146 42.4922C25.4818 41.1475 29.247 34.0879 29.7176 32.8777C11.6988 45.9884 0 67.2345 0 91.1027Z" fill="#008538"/>
</svg>
