<svg width="61" height="60" viewBox="0 0 61 60" fill="none" xmlns="http://www.w3.org/2000/svg">
<circle opacity="0.1" cx="30.5" cy="30" r="30" fill="#C7C7B3"/>
<path d="M44.5321 21.11C39.5957 13.4997 29.5172 11.2372 21.7012 15.9679C14.0909 20.6987 11.6227 30.9828 16.5591 38.5931L16.9705 39.2102L15.325 45.3806L21.4955 43.7352L22.1126 44.1465C24.7865 45.5863 27.666 46.4091 30.5456 46.4091C33.6308 46.4091 36.7161 45.5863 39.39 43.9409C47.0003 39.0045 49.2628 28.926 44.5321 21.11ZM40.2127 36.9476C39.39 38.1817 38.3616 39.0045 36.9218 39.2102C36.099 39.2102 35.0706 39.6215 30.957 37.9761C27.4603 36.3306 24.5808 33.6567 22.524 30.5715C21.2899 29.1317 20.6728 27.2805 20.4671 25.4294C20.4671 23.7839 21.0842 22.3441 22.1126 21.3157C22.524 20.9043 22.9353 20.6987 23.3467 20.6987H24.3751C24.7865 20.6987 25.1978 20.6987 25.4035 21.5214C25.8149 22.5498 26.8433 25.018 26.8433 25.2237C27.049 25.4294 27.049 25.8407 26.8433 26.0464C27.049 26.4578 26.8433 26.8692 26.6376 27.0748C26.4319 27.2805 26.2262 27.6919 26.0206 27.8976C25.6092 28.1033 25.4035 28.5146 25.6092 28.926C26.4319 30.1601 27.4603 31.3942 28.4888 32.4226C29.7229 33.451 30.957 34.2738 32.3967 34.8908C32.8081 35.0965 33.2195 35.0965 33.4252 34.6851C33.6308 34.2738 34.6593 33.2453 35.0706 32.834C35.482 32.4226 35.6877 32.4226 36.099 32.6283L39.39 34.2738C39.8013 34.4794 40.2127 34.6851 40.4184 34.8908C40.6241 35.5079 40.6241 36.3306 40.2127 36.9476Z" fill="#C7C7B3"/>
</svg>
