<svg width="61" height="60" viewBox="0 0 61 60" fill="none" xmlns="http://www.w3.org/2000/svg">
<circle opacity="0.1" cx="30.5" cy="30" r="30" fill="#C7C7B3"/>
<g clip-path="url(#clip0)">
<path d="M43.2725 16.682L14.0408 27.9542C12.0459 28.7555 12.0574 29.8684 13.6748 30.3646L21.1798 32.7058L38.544 21.7501C39.365 21.2506 40.1152 21.5193 39.4986 22.0667L25.4301 34.7634H25.4268L25.4301 34.765L24.9124 42.5008C25.6708 42.5008 26.0055 42.1529 26.4309 41.7424L30.0762 38.1977L37.6586 43.7983C39.0567 44.5683 40.0608 44.1726 40.4087 42.5041L45.3861 19.0462C45.8956 17.0035 44.6063 16.0785 43.2725 16.682Z" fill="#C7C7B3"/>
</g>
<defs>
<clipPath id="clip0">
<rect width="36" height="36" fill="white" transform="translate(12.4999 12)"/>
</clipPath>
</defs>
</svg>
