<svg width="61" height="60" viewBox="0 0 61 60" fill="none" xmlns="http://www.w3.org/2000/svg">
<circle opacity="0.1" cx="30.5" cy="30" r="30" fill="#C7C7B3"/>
<g clip-path="url(#clip0)">
<path d="M29.6965 14.0026C27.1299 14.0373 21.6072 14.4586 18.5179 17.2893C16.2245 19.5693 15.4232 22.9306 15.3299 27.0933C15.2499 31.2399 15.1565 39.0266 22.6632 41.1479V44.3746C22.6632 44.3746 22.6125 45.6679 23.4659 45.9346C24.5192 46.2679 25.1192 45.2693 26.1192 44.2026L27.9859 42.0959C33.1192 42.5226 37.0525 41.5373 37.5059 41.3906C38.5459 41.0573 44.4139 40.3093 45.3739 32.5213C46.3605 24.4799 44.8939 19.4133 42.2539 17.1199L42.2405 17.1173C41.4405 16.3839 38.2405 14.0506 31.0805 14.0239C31.0805 14.0239 30.5525 13.9906 29.6965 14.0026ZM29.7859 16.2653C30.5125 16.2613 30.9592 16.2919 30.9592 16.2919C37.0125 16.3053 39.9072 18.1319 40.5872 18.7453C42.8139 20.6506 43.9579 25.2199 43.1205 31.9346C42.3205 38.4413 37.5605 38.8546 36.6805 39.1346C36.3072 39.2546 32.8405 40.1079 28.4779 39.8279C28.4779 39.8279 25.2259 43.7493 24.2125 44.7626C24.0525 44.9359 23.8659 44.9893 23.7459 44.9626C23.5725 44.9226 23.5192 44.7093 23.5325 44.4159L23.5592 39.0573C17.1979 37.2973 17.5712 30.6546 17.6379 27.1879C17.7179 23.7213 18.3712 20.8786 20.3045 18.9586C22.9139 16.5986 27.6045 16.2786 29.7845 16.2653H29.7859ZM30.2659 19.7319C30.2134 19.7318 30.1614 19.7419 30.1129 19.7619C30.0644 19.7819 30.0203 19.8112 29.9831 19.8482C29.946 19.8853 29.9165 19.9293 29.8964 19.9777C29.8762 20.0262 29.8659 20.0781 29.8659 20.1306C29.8659 20.2367 29.908 20.3384 29.983 20.4134C30.0581 20.4885 30.1598 20.5306 30.2659 20.5306C31.2571 20.5117 32.2423 20.6893 33.1646 21.0532C34.0868 21.417 34.9279 21.96 35.6392 22.6506C37.0925 24.0639 37.8005 25.9573 37.8272 28.4373C37.8272 28.4898 37.8376 28.5418 37.8577 28.5903C37.8778 28.6389 37.9072 28.683 37.9444 28.7201C37.9815 28.7573 38.0256 28.7867 38.0741 28.8068C38.1227 28.8269 38.1747 28.8373 38.2272 28.8373V28.8253C38.3333 28.8253 38.435 28.7831 38.5101 28.7081C38.5851 28.6331 38.6272 28.5314 38.6272 28.4253C38.6767 27.259 38.4882 26.0948 38.0733 25.0037C37.6584 23.9126 37.0258 22.9174 36.2139 22.0786C34.6272 20.5319 32.6245 19.7319 30.2645 19.7319H30.2659ZM24.9939 20.6519C24.7103 20.6115 24.4214 20.6679 24.1739 20.8119H24.1579C23.6112 21.1319 23.1072 21.5319 22.6272 22.0653C22.2672 22.4919 22.0659 22.9173 22.0125 23.3306C21.9812 23.573 22.0039 23.8194 22.0792 24.0519L22.1059 24.0653C22.5168 25.2735 23.0531 26.4353 23.7059 27.5319C24.552 29.0677 25.5916 30.4886 26.7992 31.7599L26.8392 31.8133L26.8925 31.8533L26.9325 31.8933L26.9725 31.9333C28.2488 33.1439 29.6735 34.1878 31.2125 35.0399C32.9725 35.9999 34.0419 36.4533 34.6819 36.6399V36.6533C34.8685 36.7066 35.0392 36.7333 35.2125 36.7333C35.7588 36.6934 36.2761 36.4719 36.6819 36.1039C37.2019 35.6373 37.6152 35.1199 37.9219 34.5733V34.5599C38.2285 33.9866 38.1219 33.4386 37.6819 33.0653C36.7951 32.2895 35.8351 31.6019 34.8152 31.0119C34.1352 30.6386 33.4419 30.8653 33.1619 31.2386L32.5619 31.9973C32.2552 32.3706 31.6952 32.3173 31.6952 32.3173L31.6792 32.3306C27.5192 31.2639 26.4125 27.0519 26.4125 27.0519C26.4125 27.0519 26.3592 26.4786 26.7459 26.1853L27.4925 25.5853C27.8525 25.2919 28.1059 24.5986 27.7192 23.9186C27.1301 22.8983 26.4423 21.9381 25.6659 21.0519C25.497 20.8425 25.2585 20.7005 24.9939 20.6519ZM30.9579 21.8386C30.8518 21.839 30.7502 21.8814 30.6754 21.9567C30.6007 22.032 30.5589 22.1339 30.5592 22.2399C30.5596 22.346 30.602 22.4476 30.6773 22.5224C30.7526 22.5972 30.8545 22.639 30.9605 22.6386C32.2949 22.6618 33.5656 23.2132 34.4939 24.1719C34.9127 24.634 35.2347 25.1752 35.4408 25.7638C35.6469 26.3523 35.733 26.9762 35.6939 27.5986C35.6942 27.7045 35.7365 27.8059 35.8115 27.8806C35.8865 27.9553 35.988 27.9973 36.0939 27.9973L36.1072 28.0133C36.1599 28.0133 36.212 28.0029 36.2606 27.9827C36.3092 27.9625 36.3534 27.9329 36.3905 27.8956C36.4277 27.8584 36.4571 27.8141 36.4771 27.7654C36.4972 27.7167 36.5074 27.6646 36.5072 27.6119C36.5472 26.0253 36.0539 24.6919 35.0805 23.6253C34.1072 22.5586 32.7472 21.9586 31.0139 21.8386C30.9952 21.8373 30.9765 21.8373 30.9579 21.8386ZM31.6112 23.9973C31.5577 23.9957 31.5044 24.0047 31.4544 24.0237C31.4044 24.0427 31.3586 24.0714 31.3197 24.1081C31.2807 24.1448 31.2494 24.1888 31.2275 24.2376C31.2056 24.2865 31.1935 24.3391 31.1919 24.3926C31.1903 24.4461 31.1993 24.4994 31.2183 24.5494C31.2373 24.5994 31.266 24.6452 31.3027 24.6841C31.3394 24.7231 31.3834 24.7544 31.4322 24.7763C31.4811 24.7983 31.5337 24.8104 31.5872 24.8119C32.9072 24.8786 33.5472 25.5453 33.6272 26.9186C33.6307 27.0224 33.6743 27.1207 33.749 27.1929C33.8236 27.265 33.9234 27.3053 34.0272 27.3053H34.0405C34.0943 27.3036 34.1471 27.2911 34.1959 27.2686C34.2447 27.246 34.2884 27.2139 34.3245 27.1741C34.3606 27.1342 34.3883 27.0876 34.4059 27.0368C34.4236 26.986 34.4308 26.9322 34.4272 26.8786C34.3339 25.0919 33.3605 24.0906 31.6272 23.9973C31.6219 23.9972 31.6165 23.9972 31.6112 23.9973Z" fill="#C7C7B3"/>
</g>
<defs>
<clipPath id="clip0">
<rect width="32" height="32" fill="white" transform="translate(14.4995 14)"/>
</clipPath>
</defs>
</svg>
