<svg width="150" height="33" viewBox="0 0 150 33" fill="none" xmlns="http://www.w3.org/2000/svg">
<path d="M18.4684 25.6981C17.0793 27.1819 14.2591 28.1921 11.3967 28.1921C4.64078 28.1921 0 23.6776 0 16.7954C0 10.4499 4.00938 5.39868 11.3125 5.39868C14.1854 5.39868 16.5742 6.31421 18.0369 7.64015L16.3006 10.513C14.8352 9.49822 13.0838 8.97833 11.302 9.02922C7.19794 9.02922 4.10409 11.9968 4.10409 16.7954C4.10409 21.4046 7.22951 24.5616 11.7335 24.5616C13.6274 24.5654 15.4695 23.9439 16.9741 22.7937L18.4684 25.6981Z" fill="#222A27"/>
<path d="M71.5687 9.42644H65.1284L64.6865 13.5937C63.3921 26.4426 60.5192 28.5262 56.1626 27.8948L56.2573 24.0433C57.9621 24.2643 60.2035 23.5382 61.1822 10.2157L61.4979 5.7959H75.4202V27.8948H71.5687V9.42644Z" fill="#222A27"/>
<path d="M95.5277 18.4502H85.4253V27.8896H81.5449V5.79065H85.428V14.8196H95.5303V5.79065H99.3818V27.8896H95.5277V18.4502Z" fill="#222A27"/>
<path d="M105.507 5.79065H109.387V24.259H119.079V5.79065H122.962V24.259H125.962V31.8358H122.331V27.8896H105.494L105.507 5.79065Z" fill="#222A27"/>
<path d="M148.491 25.301C146.355 27.2425 143.198 28.166 140.286 28.166C133.196 28.166 128.584 23.6488 128.584 16.7561C128.584 10.3947 132.662 5.34619 139.849 5.34619C145.482 5.34619 149.999 9.32663 149.999 15.3433C150.01 16.2263 149.929 17.108 149.757 17.9741H132.951C133.291 22.1019 136.303 24.5302 140.581 24.5302C143.398 24.5302 145.874 23.5594 147.281 22.2492L148.491 25.301ZM132.706 14.8119H145.963C145.769 11.2182 143.438 8.98462 139.649 8.98462C135.671 8.98462 133.146 11.4629 132.709 14.8119H132.706Z" fill="#222A27"/>
<path d="M37.5656 32.8408C34.3656 32.8408 31.2375 31.8919 28.5767 30.1141C25.916 28.3363 23.8422 25.8093 22.6176 22.8529C21.3931 19.8965 21.0726 16.6433 21.6969 13.5048C22.3212 10.3663 23.8622 7.48334 26.1249 5.22058C28.3877 2.95783 31.2706 1.41687 34.4092 0.792582C37.5477 0.16829 40.8008 0.488701 43.7573 1.71329C46.7137 2.93789 49.2406 5.01166 51.0184 7.67238C52.7963 10.3331 53.7452 13.4612 53.7452 16.6613C53.7403 20.9509 52.0341 25.0634 49.0009 28.0966C45.9677 31.1298 41.8552 32.836 37.5656 32.8408ZM37.5656 2.84944C34.8339 2.84944 32.1635 3.65949 29.8922 5.17715C27.6208 6.69481 25.8505 8.85193 24.8052 11.3757C23.7598 13.8995 23.4863 16.6766 24.0192 19.3558C24.5521 22.0351 25.8676 24.4961 27.7992 26.4277C29.7308 28.3593 32.1918 29.6748 34.8711 30.2077C37.5503 30.7406 40.3274 30.4671 42.8512 29.4217C45.375 28.3763 47.5321 26.606 49.0497 24.3347C50.5674 22.0634 51.3775 19.393 51.3775 16.6613C51.3733 12.9994 49.9168 9.48876 47.3274 6.89945C44.7381 4.31013 41.2275 2.85362 37.5656 2.84944Z" fill="#EBB91F"/>
</svg>
