<svg width="266" height="60" viewBox="0 0 266 60" fill="none" xmlns="http://www.w3.org/2000/svg">
<path d="M223.004 7.41401C223.12 7.56676 223.208 7.72023 223.352 7.91672C223.086 8.10173 222.82 8.28673 222.525 8.45022C222.691 8.49039 222.857 8.53055 223.051 8.59223C222.43 8.80877 222.125 9.41759 221.294 9.1723C221.123 8.99875 220.95 8.78075 220.807 8.60648C220.455 8.70471 220.184 8.77856 219.886 8.85313C219.797 8.67743 219.737 8.54548 219.677 8.41353C218.659 8.2844 217.576 8.60204 216.441 8.2757C216.342 8.54533 216.217 8.83791 216.119 9.12977C215.946 8.91176 215.746 8.69447 215.603 8.54243C214.893 8.58328 215.472 9.39149 214.652 9.41297C214.644 9.21289 214.637 9.03505 214.626 8.76829C214.465 8.83927 214.384 8.86365 214.303 8.88803C214.222 8.91241 214.142 8.98125 214.087 8.98268C213.839 8.92243 213.449 8.75461 213.396 8.8005C213.16 9.07371 212.987 8.8557 212.767 8.81697C212.023 8.70291 211.236 8.85705 210.617 9.14029C209.918 9.4479 209.364 9.28437 208.754 9.10005C208.644 9.08068 208.609 8.88133 208.492 8.70635C208.055 8.7178 207.562 8.73069 207.043 8.74429C206.887 8.94866 206.732 9.17526 206.524 9.46999C205.861 9.30932 205.279 9.12428 204.644 9.00737C204.01 8.89045 203.351 8.84094 202.609 8.74912C202.579 8.70537 202.519 8.57342 202.46 8.4637C201.555 8.42063 201.555 8.42063 200.943 8.85948C200.911 8.74904 200.88 8.63861 200.818 8.4622C200.295 8.38688 199.693 8.40263 199.149 8.48364C198.686 8.54027 198.457 8.99132 197.976 9.27098C197.909 8.96118 197.846 8.76254 197.811 8.56318C197.783 8.54167 197.726 8.49863 197.726 8.49863C197.619 8.56819 197.461 8.70587 197.461 8.70587C196.925 8.31932 196.336 8.6463 195.729 8.52867C195.739 8.7732 195.745 8.92882 195.755 9.19559C195.455 9.22569 195.21 9.25437 194.91 9.28447C194.901 9.06217 194.867 8.88504 194.86 8.70719C194.306 8.54366 193.799 8.17863 193.158 8.57374C193.105 8.61963 192.907 8.46903 192.769 8.45038C191.919 8.40588 191.102 8.51628 190.412 9.0462C190.266 8.82747 190.178 8.67401 190.09 8.52054C189.983 8.59009 189.903 8.65893 189.824 8.72777C189.618 8.35486 189.137 8.65675 188.882 8.44089C188.542 8.16048 188.453 8.67465 188.093 8.5728C187.788 8.46953 187.382 8.56918 186.971 8.57992C186.979 8.78 186.986 8.95784 186.998 9.24684C186.393 9.17367 185.871 9.14281 185.348 9.06749C185.017 9.00939 184.704 8.70604 184.356 8.89319C184.034 9.0574 183.873 8.46074 183.587 8.84654C183.561 8.86949 183.507 8.89315 183.507 8.89315C182.706 8.02397 181.971 8.82209 180.992 8.98125C180.934 8.89376 180.817 8.69655 180.759 8.60906C179.659 8.50431 178.686 8.81909 177.871 8.28408C177.951 8.21524 178.029 8.12417 178.135 8.03238C177.997 7.9915 177.859 7.97285 177.639 7.93412C177.62 8.15714 177.573 8.35864 177.554 8.55944C177.473 8.58381 177.393 8.65266 177.338 8.63186C176.816 8.57877 176.305 8.81468 175.771 8.47259C175.518 8.30119 175.214 8.93224 174.734 8.54426C174.508 8.37214 174.018 8.45172 173.644 8.68405C173.403 8.82387 172.857 8.86042 172.606 8.73348C172.075 8.45809 171.56 8.58285 171.039 8.57422C170.628 8.56273 170.219 8.5957 169.809 8.60644C169.399 8.61718 168.936 8.69604 168.63 8.5483C168.183 8.33745 167.986 8.87671 167.567 8.66514C167.371 8.559 167.096 8.54392 166.821 8.50662C166.519 8.47004 166.105 8.39186 165.918 8.50802C165.466 8.85365 164.964 8.622 164.585 8.72095C164.359 8.54883 164.19 8.41974 164.049 8.31217C163.728 8.49861 163.434 8.68432 163.139 8.84781C163.227 9.00128 163.288 9.15546 163.436 9.41865C163.047 9.29529 162.825 9.2121 162.576 9.12962C162.652 8.99408 162.729 8.85855 162.83 8.65561C162.36 8.5344 161.946 8.43399 161.53 8.31134C161.428 8.49205 161.351 8.62758 161.198 8.89865C160.998 8.70358 160.855 8.55155 160.712 8.37728C160.548 8.38158 160.329 8.38731 160.083 8.39375C160.06 8.50562 160.037 8.61748 159.99 8.81899C159.771 8.82472 159.5 8.87634 159.278 8.81538C159.085 8.77593 158.888 8.64756 158.72 8.5407C158.326 8.28396 158.001 8.35924 157.603 8.68121C157.406 8.53061 157.208 8.38 157.01 8.2294C156.794 8.30182 156.337 8.51406 156.252 8.42729C155.827 8.08234 155.28 8.76429 154.904 8.26229C154.855 8.41934 154.805 8.53193 154.728 8.66746C154.109 8.92846 153.405 8.43505 152.735 8.78641C152.675 8.65446 152.615 8.52251 152.555 8.39056C152.499 8.36976 152.415 8.32744 152.333 8.32959C152.114 8.31309 151.867 8.2973 151.65 8.34749C150.538 8.62138 150.538 8.62138 149.445 7.98238C150.374 7.93581 151.194 7.89211 152.013 7.8484C152.011 7.80394 152.01 7.75947 152.008 7.71501C151.16 7.7372 150.312 7.7594 149.41 7.78302C149.309 8.00819 149.184 8.30077 149.085 8.54817C148.077 8.68581 147.178 8.79836 146.308 8.93243C146.024 8.69505 145.741 8.45767 145.515 8.26332C145.138 8.42896 144.923 8.52361 144.653 8.6197C144.662 8.842 144.671 9.08654 144.683 9.37554C144.163 9.38914 143.671 9.40203 143.179 9.41491C143.007 9.21913 142.806 8.9796 142.548 8.69705C142.255 8.905 142.043 9.06635 141.776 9.25135C141.661 9.12083 141.519 8.99103 141.375 8.79453C141.188 8.91069 141.081 8.98025 140.947 9.05052C140.532 8.95011 140.145 8.84897 139.759 8.77007C139.726 8.6374 139.695 8.5492 139.664 8.43876C139.286 8.58217 139.14 9.05331 138.669 8.88764C138.308 8.76356 137.815 8.75422 137.707 8.11168C137.527 8.40569 137.426 8.60863 137.245 8.88041C137.041 8.57419 136.953 8.42072 136.865 8.28948C136.451 8.87893 135.534 9.23674 134.674 8.9477C134.259 8.82506 133.904 8.8566 133.519 8.79993C133.133 8.74326 132.744 8.59767 132.39 8.6292C131.926 8.6636 131.535 8.47355 131.123 8.43983C130.711 8.40611 130.225 8.57461 129.918 8.42688C129.555 8.25834 129.157 8.55807 128.844 8.27694C128.76 8.2124 128.385 8.4225 128.139 8.42895C127.921 8.45691 127.699 8.39594 127.424 8.35864C127.403 8.51497 127.384 8.71576 127.34 9.00619C127.118 8.92299 126.952 8.88283 126.867 8.79605C126.696 8.64473 126.606 8.44681 126.52 8.3378C125.98 8.52996 125.548 8.67481 125.062 8.84331C124.944 8.62387 124.884 8.49191 124.795 8.31621C124.579 8.38863 124.257 8.55284 124.2 8.50981C123.86 8.2294 123.676 8.41226 123.41 8.59727C123.223 8.71343 122.951 8.76505 122.681 8.86113C122.456 8.71125 122.231 8.56136 121.978 8.38996C121.844 8.46023 121.681 8.48676 121.656 8.55416C121.275 9.29852 120.514 9.42971 119.635 9.3637C119.37 8.88107 118.83 9.76309 118.589 9.21305C118.178 9.20156 117.794 9.18936 117.41 9.17715C117.213 9.02655 117.043 8.89746 116.959 8.83292C116.365 9.04874 115.798 9.24162 115.232 9.45673C115.083 9.17131 114.935 8.8859 114.785 8.55602C114.521 8.78548 114.334 8.92388 114.148 9.06228C114.036 8.99845 113.951 8.91168 113.867 8.86936C113.488 8.96831 113.136 9.06653 112.838 9.16333C112.611 8.94675 112.703 8.52151 112.112 8.7818C112.232 9.06793 112.328 9.39924 112.509 9.83956C112.179 9.78146 111.986 9.76424 111.627 9.68462C111.493 9.75489 111.169 9.87464 110.901 10.0152C110.373 9.80648 110.494 9.40275 110.509 9.0908C110.145 8.90003 109.81 8.73078 109.502 8.56081C108.707 9.20475 108.118 8.17423 107.36 8.37212C106.937 8.7615 106.713 9.3237 105.864 9.32366C105.98 9.47641 106.066 9.58542 106.152 9.6722C106.071 10.3864 105.209 10.0529 104.807 10.2638C104.91 10.7951 105.278 11.0971 105.858 11.2376C105.911 11.1918 106.018 11.1222 106.177 10.9845C106.491 11.3101 107.247 11.0678 107.496 11.8179C107.569 11.5712 107.617 11.4141 107.689 11.1452C107.603 11.0584 107.291 10.7773 106.978 10.474C107.818 10.2739 108.632 10.0968 109.555 9.89465C109.943 10.018 110.497 10.1815 111.162 10.3867C110.92 10.482 110.676 10.5552 110.514 10.6039C110.726 11.1102 110.876 11.4401 111.028 11.8367C111.162 11.7664 111.325 11.7176 111.46 11.6696C111.113 11.2113 111.587 10.7538 111.345 10.1593C112.206 10.4706 112.852 9.4968 113.592 10.2118C113.833 10.072 113.993 9.97874 114.261 9.8382C114.35 10.0139 114.41 10.1458 114.498 10.2993C115.084 10.5733 115.885 10.0627 116.534 10.5576C116.584 10.4228 116.633 10.2879 116.706 10.0635C116.983 10.1452 117.232 10.2055 117.592 10.3073C117.669 10.1718 117.717 10.0148 117.768 9.90217C118.538 9.99328 119.32 10.3956 120.034 9.75383C120.929 10.2422 122.161 9.5646 123.07 10.3865C123.118 10.2294 123.169 10.1168 123.218 9.982C125.092 9.59915 126.974 10.1285 128.857 9.96791C128.918 10.1443 128.95 10.2548 129.041 10.4749C129.277 10.2239 129.434 10.0196 129.616 9.79225C130.142 9.93426 130.69 9.94217 131.373 9.92427C132.685 9.86768 134.026 9.85483 135.338 9.82046C135.475 9.81688 135.613 9.83553 135.697 9.87784C136.31 10.1511 136.879 10.0249 137.471 9.74239C137.695 9.89227 137.921 10.0644 138.258 10.2781C138.388 10.0967 138.465 9.96116 138.594 9.77973C138.622 9.77902 138.756 9.70874 138.866 9.7281C139.391 9.84788 139.922 10.1233 140.425 9.6873C141.328 9.6859 142.158 9.90896 142.815 10.6039C142.854 10.2023 142.87 9.91257 142.911 9.57768C143.545 9.67237 143.507 10.0962 143.763 10.3565C143.521 10.4519 143.332 10.5236 142.955 10.6892C143.42 10.677 143.752 10.7574 143.884 10.6426C144.096 10.4591 144.194 10.1672 144.426 9.80508C145.11 9.78718 145.957 9.76498 146.805 9.74279C147.456 10.2821 148.387 9.59011 149.065 10.1287C149.114 9.99388 149.164 9.85906 149.239 9.67907C149.678 9.71208 150.145 9.74437 150.803 9.77165C150.831 9.79316 151.029 9.94377 151.141 10.0076C151.657 9.90507 152.091 9.80469 152.661 9.6785C152.827 9.7409 153.133 9.8664 153.439 9.99191C153.492 9.94602 153.624 9.80906 153.679 9.82986C154.233 9.99339 154.889 9.95397 155.26 10.3448C155.498 10.1383 155.763 9.90883 156.001 9.70231C156.582 9.84289 157.021 9.8759 157.383 10.0444C157.719 10.2137 158.025 9.64933 158.37 10.0854C158.572 10.3471 159.096 10.4224 159.764 10.7165C159.533 10.411 159.475 10.3235 159.388 10.1922C159.467 10.1234 159.572 10.0094 159.678 9.9176C159.9 10.0008 160.121 10.0618 160.399 10.1658C160.435 10.3873 160.445 10.6319 160.481 10.8535C161.007 10.9955 161.506 11.1604 162.032 11.3025C162.303 11.2286 162.6 11.1318 162.952 11.0336C162.73 10.9504 162.563 10.888 162.258 10.7847C162.521 10.5108 162.757 10.2598 162.915 10.0999C163.594 9.97084 164.139 9.88983 164.709 9.78587C164.768 9.89559 164.828 10.0275 164.917 10.2032C165.764 9.46895 166.653 9.80173 167.571 10.156C167.893 9.99182 168.215 9.82762 168.618 9.63903C169.117 9.80399 169.646 10.0127 170.229 10.22C170.255 10.197 170.388 10.1045 170.602 9.9654C170.804 10.2272 170.949 10.4459 171.095 10.6646C170.97 10.9794 170.873 11.2713 170.723 11.6535C170.009 11.5832 169.294 11.5129 168.525 11.444C168.448 11.5573 168.372 11.7151 168.296 11.8728C167.605 11.7129 166.914 11.5529 166.224 11.393C166.41 11.2546 166.597 11.1384 167.023 10.838C166.421 10.8315 166.064 10.8186 165.681 10.8286C165.693 11.1176 165.703 11.3844 165.712 11.6067C165.045 12.047 164.472 11.3944 163.904 11.565C163.363 11.7349 162.817 11.7715 162.245 11.831C161.672 11.8905 161.101 11.2823 160.548 11.8531C159.809 11.8502 159.432 11.326 158.848 11.0743C158.907 11.184 158.992 11.2708 159.051 11.3805C158.943 11.4056 158.836 11.4751 158.781 11.4543C158.389 11.2421 158.024 11.0068 157.407 10.6447C157.56 11.0412 157.705 11.26 157.685 11.4385C157.665 11.6171 157.453 11.8007 157.35 11.9591C156.935 11.8587 156.549 11.7798 156.134 11.6794C156.129 11.546 156.122 11.3682 156.117 11.2348C155.947 11.1057 155.806 10.9981 155.637 10.869C155.561 11.0268 155.484 11.1623 155.357 11.4105C155.159 11.2376 155.017 11.1078 154.79 10.9135C154.633 11.0956 154.476 11.2777 154.344 11.4147C154.045 11.467 153.774 11.5187 153.393 11.5954C153.358 11.396 153.296 11.1974 153.26 10.998C153.206 10.9994 153.095 10.9801 153.069 11.003C152.91 11.1407 152.723 11.2569 152.593 11.4161C152.412 11.6879 152.343 12.0235 152.106 12.2522C151.895 12.458 151.543 12.5562 151.221 12.7204C151.187 12.5655 151.125 12.3669 151.062 12.1683C150.731 12.1102 150.428 12.0513 150.069 11.9717C150.043 12.0169 150.02 12.1288 149.973 12.308C149.782 12.3353 149.536 12.3417 149.209 12.3726C149.309 12.1474 149.412 11.9667 149.538 11.6963C149.893 11.687 150.331 11.6756 150.768 11.6641C150.766 11.5974 150.764 11.553 150.761 11.4863C150.487 11.4712 150.24 11.4554 149.966 11.4403C149.637 11.4489 149.337 11.4568 148.926 11.4675C148.91 11.735 148.894 12.0247 148.851 12.3152C148.768 12.2951 148.658 12.298 148.657 12.2757C148.646 11.9867 148.516 11.4783 148.246 11.5744C147.733 11.7436 147.636 11.3678 147.332 11.309C147.002 11.2509 146.621 11.3054 146.183 11.3168C146.136 11.5183 146.117 11.7191 146.073 11.9873C145.715 11.9299 145.355 11.8281 144.998 11.8152C144.642 11.8023 144.889 11.1282 144.299 11.4329C144.361 11.6093 144.45 11.785 144.457 11.9629C144.458 11.9851 144.241 12.0353 144.024 12.1077C143.956 11.7535 143.917 11.4652 143.848 11.1109C143.538 11.5641 143.28 11.9714 143.021 12.3565C142.577 12.1901 142.243 12.0431 141.881 11.8968C141.722 12.0345 141.536 12.1729 141.377 12.3105C140.605 12.175 139.86 12.0165 139.143 11.8795C139.187 11.6113 139.231 11.3431 139.299 10.9852C138.402 11.1422 138.453 11.7418 138.089 12.2186C138.024 11.9755 137.963 11.7991 137.899 11.5782C137.394 11.2577 137.086 11.7775 136.622 11.8119C136.575 12.0135 136.556 12.2365 136.511 12.4824C136.286 12.3103 136.144 12.1805 136.003 12.073C135.758 12.1239 135.542 12.1963 135.323 12.202C135.159 12.2063 135.015 12.032 134.852 12.0586C133.624 12.1575 133.542 12.1596 132.837 11.6217C132.78 11.5787 132.696 11.5142 132.583 11.4281C132.4 11.6554 132.245 11.882 132.061 12.0871C131.693 11.763 131.723 11.1613 130.923 11.0042C130.747 11.3872 130.597 11.7471 130.37 12.2427C130.165 11.892 129.988 11.5851 129.84 11.2996C129.493 11.509 129.456 11.9773 128.941 12.102C128.778 12.1286 128.615 12.1551 128.453 12.2261C128.024 12.4376 127.583 11.6703 127.167 12.2375C126.675 12.2504 126.156 12.2862 125.663 12.2769C125.445 12.2826 125.25 12.1987 125.056 12.1592C124.614 12.0373 124.203 12.0258 123.885 12.3012C123.579 12.1757 123.273 12.0502 122.91 11.8816C122.803 11.9512 122.669 12.0215 122.455 12.1383C122.42 11.939 122.358 11.7626 122.323 11.5632C122.21 11.4771 121.702 11.7797 121.548 12.0508C121.165 12.0608 120.779 11.9819 120.483 12.101C119.835 12.3405 119.365 12.2192 118.936 11.7631C118.393 11.8664 117.865 12.3475 117.268 11.8068C117.192 11.9646 117.143 12.0994 117.094 12.2342C117.012 12.2586 116.932 12.3052 116.849 12.2851C116.573 12.2256 116.296 12.1438 115.993 12.085C115.524 12.0082 114.988 12.2893 114.59 11.9214C114.191 12.2212 113.756 12.2771 113.279 12.0003C112.986 12.2082 112.563 11.8855 112.301 12.1816C111.769 11.884 111.198 11.988 110.624 12.003C110.159 12.0152 109.723 12.0489 109.257 12.0388C108.818 12.028 108.413 12.1499 107.965 11.8946C107.685 11.7462 107.111 11.7612 106.788 11.9032C105.927 12.2818 105.042 12.0601 104.008 12.2207C103.957 12.3111 103.827 12.4925 103.592 12.7657C103.523 12.4115 103.46 12.1906 103.427 12.0579C103.086 11.7553 102.946 12.3598 102.607 12.1016C102.466 11.9941 102.112 12.0256 101.838 12.0328C101.509 12.0191 101.209 12.0492 100.881 12.0578C100.712 11.9287 100.57 11.7989 100.4 11.6698C100.023 11.8132 99.6744 12.0004 99.2942 12.0771C98.914 12.1538 98.5021 12.1201 98.0646 12.1316C98.4536 11.5873 99.0473 11.3715 99.6701 11.1994C99.8368 11.2618 100.032 11.3457 100.199 11.4303C100.415 11.3357 100.575 11.2424 100.736 11.1492C100.932 11.2554 101.071 11.3185 101.211 11.4038C101.614 11.2152 102.046 11.0482 102.53 10.8352C102.709 10.519 102.939 10.1124 103.195 9.66059C102.974 9.59963 102.808 9.55947 102.725 9.53938C102.489 9.1005 102.253 8.68384 101.989 8.24567C101.47 8.25928 101.032 8.27073 100.54 8.28362C100.766 8.45573 100.991 8.60562 101.273 8.82077C100.596 8.99428 100.072 9.58659 99.4938 8.82284C99.8158 8.65864 100.137 8.4722 100.54 8.28362C100.555 7.97167 100.285 8.06775 100.066 8.07348C98.9178 8.10355 97.7967 8.13291 96.6482 8.16297C96.4655 8.39029 96.2829 8.61761 96.1012 8.86716C95.4934 8.7273 94.8265 9.16758 94.3379 8.57952C94.0459 8.8097 93.8059 8.97176 93.5404 9.179C93.319 9.11804 93.0658 8.94663 92.8753 8.97387C92.4942 9.02836 92.2058 8.6576 91.8309 8.86769C91.4824 9.05485 91.179 8.99603 90.8959 8.75865C90.5792 9.05624 90.2528 9.1093 89.8585 8.83032C89.5127 9.08417 89.2101 9.04758 88.8723 8.81163C88.3218 9.42689 87.4971 8.64735 86.8849 9.0862C86.5655 9.3171 86.1642 8.86028 85.7346 9.07181C85.4117 9.21378 85.0254 9.13488 84.609 8.99001C84.2474 8.8437 83.5902 8.83866 83.2955 9.00214C82.7874 9.30475 82.2626 9.18497 81.7439 9.2208C81.1987 9.27958 80.591 9.13972 80.1323 9.3075C79.6471 9.49823 79.2519 9.19702 78.8453 9.29668C78.6018 9.36982 78.3583 9.44296 78.114 9.49386C77.9781 9.51967 77.8167 9.59066 77.7329 9.54834C77.0652 9.27653 76.3586 9.40629 75.6458 9.38045C75.0151 9.35245 74.2239 9.41768 73.7396 9.63064C73.2676 9.46496 72.8513 9.32009 72.352 9.15513C72.1694 9.38245 72.0406 9.5861 71.8836 9.76824C71.5202 9.57748 71.2688 9.45054 70.7386 9.19737C71.3385 9.13716 71.6402 9.15152 71.8828 9.05615C72.1527 8.96007 72.4253 8.93068 72.6987 8.92352C72.5179 8.50543 73.1548 8.68905 73.2245 8.37567C72.5135 8.39428 71.7955 8.23505 71.238 8.67247C71.0695 8.56561 70.9839 8.47884 70.8719 8.41501C70.7131 8.55269 70.5543 8.69036 70.4749 8.7592C70.0083 8.72691 69.5699 8.71614 69.157 8.66019C68.7724 8.62575 68.4567 8.2557 67.9494 8.58053C67.736 8.71965 67.1802 8.51166 66.823 8.4765C66.6148 8.749 66.4331 8.99854 66.2249 9.27104C65.7221 9.01716 65.3031 8.8056 64.8559 8.57251C64.593 8.84644 64.2939 8.89878 63.9314 8.73024C63.568 8.53947 63.2037 8.32647 62.812 8.11419C62.7997 7.80296 62.7874 7.49173 62.7768 7.22497C62.9894 7.06363 63.1473 6.90371 63.3335 6.76532C63.3044 6.72157 63.2479 6.67855 63.2197 6.65703C63.0582 6.72802 62.8977 6.82123 62.7071 6.84848C62.4893 6.87643 62.2696 6.85993 62.0235 6.86637C61.9221 7.06931 61.7924 7.25074 61.6909 7.45368C61.7474 7.49671 61.8329 7.58349 61.9741 7.69106C61.7024 7.74268 61.458 7.79358 61.1316 7.84663C61.525 8.10337 61.8911 8.36084 62.3136 8.66133C62.1557 8.82124 61.9978 8.98115 61.787 9.18695C61.562 9.03706 61.2577 8.95602 61.1686 8.78032C60.9578 8.29626 60.6412 7.90398 60.0528 7.56332C59.9231 7.74475 59.7661 7.92689 59.6356 8.08609C59.1636 7.92041 58.6688 7.86661 58.5144 7.42558C57.679 7.759 57.4876 7.76401 56.3189 7.28277C56.2659 7.32867 56.1865 7.3975 56.0789 7.44483C55.5946 7.65779 55.143 7.31356 54.7055 7.32502C54.2406 7.33719 53.818 7.72656 53.3452 7.53865C53.0674 7.43466 52.9871 7.48127 52.7154 7.53289C52.3352 7.60961 51.8924 7.48768 51.3155 7.43602C51.2899 7.4812 51.214 7.63896 51.1143 7.88636C50.9185 7.78021 50.7774 7.67265 50.4122 7.43742C50.6054 7.47687 50.5216 7.43455 50.4951 7.4575C49.6059 7.81458 48.6453 7.75072 47.7632 7.59579C47.0461 7.45879 46.1754 7.59285 45.5535 7.0973C45.4406 7.01124 45.0869 7.06501 44.8973 7.11448C44.7076 7.16395 44.5497 7.32386 44.4438 7.41565C44.5603 7.59063 44.6485 7.7441 44.7358 7.87533C44.0124 8.27258 43.4135 7.66515 42.7625 7.81572C43.0439 8.00864 43.2988 8.2245 43.6084 8.43893C43.544 8.88569 43.0826 8.98679 42.5384 9.0678C42.8171 9.19402 43.0967 9.34247 43.3755 9.4687C43.2696 9.56049 43.1373 9.67522 43.0049 9.78995C42.7209 9.53034 42.4192 9.51598 42.1052 9.88027C42.0408 9.63716 42.0055 9.4378 41.942 9.21693C41.172 9.12582 40.4433 9.38969 39.7059 9.43125C39.0778 9.46995 38.2027 9.49286 37.5023 9.77824C37.415 9.647 37.3259 9.47131 37.1504 9.18661C37.1248 9.23178 37.2016 9.09625 37.3048 8.93777C37.2492 8.91697 37.1645 8.85243 37.0825 8.85458C36.1254 8.87964 35.1665 8.86023 34.2112 8.92975C33.6378 8.96702 32.8439 8.96555 32.2617 8.78051C32.1056 8.98488 31.9777 9.21076 31.8215 9.41513C31.6266 9.33122 31.4025 9.20357 31.3761 9.22652C31.0338 9.56928 30.6907 9.19995 30.3634 9.23077C29.9541 9.26374 29.543 9.25225 29.1329 9.26299C28.3398 9.28375 27.5892 8.99186 26.7723 9.10226C26.1187 9.18613 25.4545 9.00324 24.7691 8.97668C24.2751 8.9451 24.074 8.70558 23.767 8.55784C23.6338 8.65034 23.4997 8.72061 23.2862 8.85972C23.0825 8.5535 22.9078 8.29103 22.7614 8.05008C22.8408 7.98124 22.8673 7.95829 22.8937 7.93535C23.3481 7.65641 23.8711 8.42159 24.2875 7.8766C24.7797 7.86372 25.2984 7.82788 25.7915 7.83722C26.2034 7.87095 26.618 7.97136 27.0035 8.02803C27.1808 7.66733 27.3335 7.37403 27.5373 6.99039C28.6593 7.67313 29.9392 7.50609 31.0224 7.90055C31.1336 7.94215 31.325 7.93714 31.4326 7.88981C32.4012 7.46389 33.4509 7.70345 34.4856 7.56509C34.4786 7.38725 34.4724 7.23164 34.4619 6.96487C33.9388 6.88955 33.3098 6.90601 32.7823 6.71954C32.4215 6.59546 32.2645 6.7776 32.0449 6.7611C31.6612 6.74889 31.2316 6.96042 30.8902 6.63556C30.6053 6.35372 30.3556 6.96111 30.0143 6.63624C29.9287 6.54946 29.5741 6.581 29.3835 6.60824C28.7017 6.6706 28.0171 6.66626 27.3538 6.5056C27.3265 6.50632 27.2965 6.44034 27.2418 6.44178C25.9583 6.51989 24.6828 6.10821 23.3773 6.32042C23.1329 6.37133 22.9177 6.46597 22.7289 6.53767C22.3328 6.21424 21.9377 5.91303 21.5152 5.61254C21.0829 5.75738 20.7856 5.85418 20.4345 5.97464C19.7545 5.3916 18.7268 5.7078 17.9188 5.35064C16.6133 5.56285 15.3616 5.06154 14.0551 5.25152C13.8576 5.10091 13.6326 4.95103 13.4633 4.82194C13.1625 4.82982 12.9164 4.83626 12.6429 4.84342C12.2512 5.321 12.2168 5.83374 12.3182 6.32066C11.6989 6.58167 11.818 6.13347 11.5084 5.91904C11.2385 6.01512 10.9156 6.1571 10.5107 6.30122C10.7118 6.54075 10.8265 6.67127 10.913 6.78027C10.7947 7.2507 10.4321 7.77202 10.5838 8.14637C10.7682 8.65337 10.6508 9.14602 10.8422 9.83087C10.5626 9.68242 10.4514 9.64082 10.2274 9.51317C10.0448 9.74049 9.80922 10.0137 9.60014 10.264C9.37081 10.0029 9.22527 9.78419 9.05327 9.58841C8.42433 9.60488 7.85095 9.64215 7.24847 9.63567C6.81006 9.6249 6.40428 9.74678 5.95618 9.49147C5.73213 9.36382 5.21344 9.39965 4.88882 9.49716C4.24133 9.73665 3.52947 9.73304 2.85023 9.86209C3.31951 9.96107 3.76144 10.0608 4.4239 10.1992C3.88492 10.4136 3.53471 10.5563 3.21184 10.6983C3.30357 10.9406 3.42264 11.1823 3.51612 11.4692C4.0648 11.4993 4.64081 11.5287 5.38179 11.5761C5.54322 11.5051 5.89255 11.3402 6.29657 11.1738C6.38477 11.3273 6.44386 11.437 6.53294 11.6127C6.8064 11.6056 7.13455 11.597 7.49004 11.5877C7.5368 11.3862 7.55622 11.1854 7.60211 10.9616C8.09433 10.9487 8.29367 11.1438 8.36069 11.4536C8.45506 11.7627 8.54854 12.0495 8.64555 12.4253C7.82871 12.5357 7.03036 13.113 6.10594 12.5808C5.81394 12.811 5.54401 12.9071 5.25734 12.5808C5.02797 13.0096 4.76336 12.5492 4.51901 12.6001C4.03031 12.7019 3.48516 12.7607 2.99735 12.8847C2.59069 12.9844 2.21489 13.1723 1.74826 13.14C1.61153 13.1436 1.45538 13.3479 1.24366 13.5315C2.66916 13.5832 3.88821 13.9518 5.23079 13.9835C6.43664 14.0186 7.60717 14.5443 8.9471 14.5093C9.17379 14.7036 9.42959 14.9417 9.91296 15.3964C9.13935 15.2163 8.69742 15.1166 8.14435 14.9754C7.90528 15.1596 7.58682 15.4128 7.29483 15.6429C7.23837 15.5999 7.1537 15.5354 7.01256 15.4278C6.93669 15.5856 6.86082 15.7433 6.81141 15.8781C7.08751 15.9377 7.53032 16.0596 8.00048 16.1808C8.00665 16.3364 8.01369 16.5143 8.0225 16.7366C7.55498 16.6821 7.0566 16.5393 6.64817 16.5945C6.21241 16.6504 5.84459 16.3485 5.33295 16.5622C5.01008 16.7042 4.33794 16.3212 3.98773 16.4639C3.47521 16.6553 3.10562 16.309 2.67514 16.4983C2.59839 16.6338 2.46959 16.8375 2.31608 17.1085C2.92473 17.2706 3.53426 17.4549 4.22582 17.6371C4.25757 17.7476 4.29196 17.9247 4.32723 18.124C5.26139 18.2108 6.22289 18.2969 7.29465 18.4024C8.04707 18.7388 7.43573 19.1998 7.26369 19.6939C6.93378 19.6581 6.60299 19.6 6.27308 19.5641C6.24574 19.5648 6.21575 19.4988 6.16106 19.5003C5.60446 19.27 5.16336 19.8824 4.57678 19.5863C3.99019 19.2901 3.48736 19.726 2.97043 19.8063C2.42528 19.8651 2.47465 20.4202 2.21176 20.6941C2.46135 21.4664 3.69194 20.7444 3.91418 21.5174C4.54313 21.5009 5.11739 21.4859 5.63695 21.4723C5.80983 21.6903 5.95361 21.8646 6.12473 22.0381C6.55252 22.472 6.55252 22.472 6.08056 22.9962C4.86943 22.8276 3.86385 22.3199 2.5901 21.9526C2.6536 22.1735 2.68711 22.3284 2.71974 22.4611C2.71974 22.4611 2.80178 22.4589 2.85647 22.4575C3.48365 22.3966 3.24366 23.2485 4.03316 23.1388C4.41424 23.0843 4.89144 23.3834 5.30779 23.5283C5.44628 23.5691 5.55831 23.633 5.72502 23.6954C5.01575 24.4483 4.73442 23.5655 4.13193 23.559C3.9749 23.7412 3.79141 23.9463 3.55587 24.2195C3.44649 24.2224 3.2286 24.2503 3.01072 24.2783C2.94189 24.6139 2.87307 24.9495 2.77954 25.3525C3.05299 25.3453 3.38114 25.3368 3.76398 25.3267C3.72161 25.6394 3.70307 25.8624 3.66071 26.1751C3.44547 26.2697 3.09614 26.4346 2.77328 26.5766C2.89059 26.7738 3.03436 26.9481 3.209 27.2106C3.50628 27.1138 3.80268 26.9947 6.16761 27.2666C7.96445 27.7092 7.66981 27.8727 7.4484 27.8117C6.20376 27.4882 4.85678 27.3454 3.95442 26.6792C4.05588 26.4763 4.13087 26.2963 4.20851 26.183C4.59575 26.2841 4.98563 26.4519 5.03856 26.406C5.3535 26.064 5.60665 26.2354 5.94096 26.3824C6.16413 26.4878 6.5796 26.6105 6.74103 26.5395C7.41234 26.2104 7.75634 26.6019 8.20444 26.8572C8.21412 27.1018 8.22381 27.3463 6.16761 27.2666C4.33546 27.3146 4.54273 27.7097 4.75176 28.1493C4.5621 28.1988 4.42625 28.2246 4.2366 28.2741C4.1687 27.9421 4.1299 27.6538 4.05672 27.1884C3.82734 27.6172 3.70206 27.9098 3.54855 28.1808C3.41095 28.1622 3.24599 28.1442 3.08192 28.1485C2.83669 28.1772 2.56411 28.2066 2.32064 28.2797C2.13099 28.3292 1.94397 28.4454 1.70226 28.563C2.01011 28.7329 2.28973 28.8814 2.56935 29.0299C2.43703 29.1446 2.3841 29.1905 2.3047 29.2593C2.69371 29.4049 3.05448 29.529 3.41614 29.6753C3.42054 29.7865 3.42495 29.8976 3.2688 30.102C3.61901 29.9593 3.83337 29.8424 4.07508 29.7248C4.02303 29.7929 3.99832 29.8603 3.94627 29.9285C4.13945 29.9679 4.36086 30.0289 4.55404 30.0683C4.50111 30.1142 4.47553 30.1594 4.4226 30.2053C4.09357 30.1917 3.73808 30.201 3.2688 30.102C3.29262 30.0123 3.0721 29.9736 3.01917 30.0195C2.676 30.34 2.36019 30.6599 1.96585 31.0707C2.37868 31.1267 2.6539 31.164 2.92911 31.2013C2.9344 31.3347 2.93704 31.4014 2.94144 31.5125C2.69709 31.5634 2.45186 31.5921 2.12548 31.6452C2.46067 31.8144 2.74117 31.9851 3.07724 32.1766C2.52677 32.7918 2.00187 33.3619 1.47786 33.9542C1.5643 34.0633 1.65162 34.1945 1.76716 34.3472C1.52458 34.4426 1.33668 34.5365 1.1479 34.6082C1.40101 35.4695 1.54474 36.3336 2.49915 36.9318C2.80876 37.1462 3.04073 37.4739 3.18979 37.7816C3.36619 38.0885 3.40763 38.4435 3.50376 38.797C3.34144 38.8458 3.20648 38.8938 3.01682 38.9433C3.04593 38.987 3.0768 39.0752 3.10502 39.0968C3.24263 39.1154 3.3776 39.0674 3.51609 39.1082C3.92979 39.1864 4.12914 39.3815 4.08854 39.7386C4.04529 40.029 3.86004 40.1897 3.50543 40.2212C3.28666 40.2269 3.0679 40.2327 2.87648 40.2377C2.82443 40.3058 2.7715 40.3517 2.7715 40.3517C2.82883 40.417 2.91263 40.4593 2.99731 40.5238C2.94614 40.6142 2.86763 40.7052 2.71324 40.9541C3.06433 40.8336 3.28045 40.7612 3.46923 40.6895C3.64651 41.0186 3.84938 41.3026 4.48009 41.3306C5.05611 41.3601 5.79532 41.363 6.17723 42.0206C5.66471 42.212 5.25717 42.2894 4.8329 41.9445C4.32394 41.535 3.71794 41.4396 2.98665 41.6368C3.19833 42.1431 3.79817 42.0829 4.38564 42.4013C3.10127 42.4572 2.00305 42.3746 0.796275 43.0071C0.535148 43.3255 1.57692 43.365 1.59277 43.7651C2.27906 43.8139 2.43164 44.2105 2.36809 44.6795C2.93619 44.5088 2.93619 44.5088 2.64247 44.0047C2.88858 43.9982 3.10647 43.9703 3.35258 43.9638C3.40287 43.8512 3.45227 43.7164 3.5008 43.5594C3.96567 43.5472 4.45789 43.5343 5.00481 43.52C5.0233 43.9868 5.04179 44.4537 5.05941 44.8983C5.48104 45.1766 5.71742 45.6154 6.34108 45.4656C6.54131 45.6829 6.71419 45.9009 6.88619 46.0967C7.12878 46.0013 7.29021 45.9303 7.66688 45.7647C7.5213 46.2358 7.42425 46.5499 7.32896 46.9085C8.60359 47.2979 9.93999 47.1739 11.2085 47.4078C11.212 47.4967 11.2164 47.6078 11.2217 47.7412C10.7021 47.7548 10.2099 47.7677 9.74501 47.7799C9.59679 48.1843 9.44681 48.5443 9.32417 48.9036C9.07806 48.91 8.88664 48.915 8.53115 48.9243C8.63612 48.8103 8.68817 48.7422 8.79227 48.606C8.59645 48.4998 8.34153 48.284 8.15099 48.3112C7.47176 48.4402 6.88077 48.0329 6.19977 48.1175C6.61607 48.9522 6.84012 49.0799 8.1668 49.4012C8.58139 49.5016 8.97039 49.6472 9.24737 49.729C9.79688 50.4712 9.02675 51.07 9.21637 51.7104C8.87056 51.9642 8.64207 52.4153 7.95226 52.2775C7.82786 52.5924 7.677 52.9301 7.52614 53.2679C8.13302 53.3855 8.65699 53.4831 9.18272 53.6251C9.40413 53.686 9.20298 54.1364 9.6361 54.0138C9.96073 53.9162 10.228 53.7535 10.685 53.5412C11.1225 53.5298 11.7788 53.5126 12.4077 53.4961C12.5392 53.3592 12.698 53.2215 12.8038 53.1297C13.1249 52.9433 16.2741 52.9721 16.7998 53.1141C16.9057 53.0223 16.9851 52.9535 17.1439 52.8158C17.0865 52.7505 17.0292 52.6853 16.9154 52.577C16.9683 52.5311 17.0195 52.4407 17.0989 52.3719L19.2178 51.9604C19.6711 52.349 20.2357 52.0895 20.757 52.1203C21.3877 52.1483 22.0917 51.9519 22.6456 52.1154C23.2269 52.2782 23.9027 52.0602 24.2952 52.2948C24.8826 52.6132 25.5769 52.1722 26.0338 52.6498C26.0629 52.6935 26.1979 52.6455 26.3081 52.6649C27.4046 52.7029 28.5284 52.7403 29.6258 52.8005C30.0924 52.8328 30.5626 52.954 31.0283 52.9641C31.4676 52.9971 31.9307 52.9405 32.3965 52.9505C32.5059 52.9477 32.5923 53.0567 32.7617 53.1858C32.752 52.9412 32.7458 52.7856 32.7379 52.5855C32.5703 52.5009 32.3736 52.3725 31.9528 52.1165C32.8905 52.2922 32.8905 52.2922 33.4815 52.6996C33.5653 52.7419 33.7549 52.6924 35.1284 52.8123C35.9505 52.8352 35.4777 52.6473 35.371 52.7169C35.1063 52.9464 34.705 52.4895 34.5841 52.8933C34.361 52.7878 34.1113 52.7054 33.8873 52.5777C33.8317 52.5569 33.9067 52.3769 33.9296 52.265C34.7544 52.3547 35.551 52.4229 36.3475 52.491C36.351 52.58 36.3545 52.6689 35.1284 52.8123C34.1192 52.9054 34.3477 53.1442 34.547 53.3393C35.094 53.325 35.6162 53.3781 36.0775 53.277C36.7294 53.1487 37.2622 53.4685 37.892 53.4743C38.4398 53.4822 38.9841 53.4012 39.5936 53.5855C40.2031 53.7698 41.0473 53.6587 41.7266 53.5297C42.0256 53.4773 42.1579 53.3626 42.5196 53.5089C42.853 53.6337 43.317 53.5993 43.7245 53.5219C44.0783 53.4681 44.2811 53.7521 44.6587 53.6087C44.9816 53.4667 45.39 53.4115 45.7428 53.3355C45.9598 53.2853 46.2421 53.5004 46.4512 53.2502C46.4776 53.2272 46.7299 53.3764 46.8958 53.4166C47.1727 53.4983 47.6455 53.6862 47.6985 53.6403C47.9869 53.3212 48.2207 53.6934 48.4641 53.6203C48.735 53.5465 48.9758 53.4066 49.3525 53.241C48.9952 53.2058 48.7482 53.19 48.473 53.1527C48.4421 53.0645 48.4104 52.9541 48.4068 52.8652C48.4598 52.8193 48.4854 52.7741 48.5127 52.7734C49.1963 52.7555 49.8526 52.7383 50.5363 52.7204C50.568 52.8308 50.5998 52.9413 50.6333 53.0962C51.1749 52.9485 51.6883 52.7793 52.2317 52.676C52.3676 52.6502 52.5881 52.6889 52.7274 52.7521C53.202 52.9844 53.6087 52.8848 54.0374 52.651C54.1785 52.7586 54.2914 52.8446 54.4608 52.9737C54.9751 52.8267 55.5414 52.6116 56.1015 52.9308C56.2135 52.9946 56.3503 52.991 56.487 52.9874C58.2662 52.9854 60.0569 53.2723 61.8555 53.0694C62.7006 52.9805 63.4989 53.0932 64.3581 53.36C64.2549 53.5184 64.1508 53.6547 64.0237 53.9028C64.8944 53.7687 65.6274 54.3059 66.6533 53.9452C65.8532 53.7881 65.219 53.6712 64.4198 53.5364C64.8247 53.3922 65.0673 53.2969 65.3372 53.2008C65.5807 53.1277 65.8259 53.099 66.0967 53.0251C66.4302 53.1499 66.8465 53.2948 67.3185 53.4605C67.1297 53.5322 66.9691 53.6254 66.753 53.6978C66.9771 53.8255 67.1738 53.9538 67.426 54.103C67.5769 53.7653 67.6766 53.5179 67.8036 53.2697C67.8283 53.2023 67.936 53.155 67.9624 53.1321C68.2121 53.2145 68.4352 53.32 68.6293 53.3817C68.5543 53.5616 68.4784 53.7194 68.4043 53.9216C69.1753 54.035 69.1559 53.5459 69.3641 53.2734C69.6102 53.267 69.9357 53.1917 70.158 53.2749C70.4085 53.3796 70.5761 53.4642 70.8699 53.2785C70.8222 53.4578 70.7472 53.6378 70.6996 53.817C70.6996 53.817 70.7843 53.8816 70.8389 53.8801C71.1133 53.8952 71.3858 53.8658 71.6593 53.8587C72.4797 53.8372 73.3239 53.7261 74.3259 54.1449C74.0957 53.8616 74.0366 53.7519 73.892 53.5554C74.4953 53.5841 75.0131 53.5261 75.5098 53.6243C75.9235 53.7025 76.2913 53.3146 76.7694 53.6359C77.079 53.8503 77.7318 53.7442 78.2531 53.775C78.2743 53.6187 78.3211 53.4172 78.3405 53.2164C78.3952 53.215 78.4225 53.2143 78.4772 53.2128C78.5125 53.4122 78.5751 53.6108 78.6112 53.8324C79.1855 53.8174 79.7598 53.8024 80.4161 53.7852C80.4372 53.6288 80.484 53.4273 80.529 53.1814C81.9377 53.5005 83.3235 53.2417 84.7481 53.2712C84.7446 53.1823 84.7684 53.0926 84.7684 53.0926C84.0178 52.8007 83.2389 52.4873 82.4618 52.2184C82.1284 52.0936 82.1028 52.1388 81.7544 51.636C82.5933 51.3915 83.0749 51.8018 83.6112 52.2105C83.6606 52.0757 83.71 51.9409 83.8335 51.6039C83.9279 51.9129 84.0187 52.1331 84.0822 52.354C84.1616 52.2851 84.2683 52.2156 84.3477 52.1467C84.8585 51.9108 85.3693 51.6749 85.9065 51.4161C85.6551 51.2891 85.6992 51.0209 85.2926 51.1206C84.9406 51.2188 84.3654 51.2116 84.1396 51.0395C83.7436 50.7161 83.3325 51.3944 83.0405 50.9348C82.3834 50.9297 81.6979 50.9031 81.0134 50.8988C80.964 51.0336 80.9402 51.1233 80.8908 51.2581C80.3597 51.6726 80.0387 51.1691 79.6179 50.9131C79.6215 51.002 79.5729 51.8489 79.5526 52.0275C79.2862 51.5226 79.1072 51.149 78.899 50.7316C78.6599 50.9159 78.4474 51.0773 78.1818 51.2845C77.9287 51.1131 77.7029 50.941 77.5344 50.8341C77.3438 50.8614 77.1824 50.9324 77.0986 50.89C76.8472 50.7631 76.6241 50.6577 76.5288 51.0162C76.6117 51.0363 76.6955 51.0786 76.751 51.0994C76.5649 51.2378 76.4326 51.3526 76.2729 51.468C76.2756 51.5347 76.2791 51.6236 76.2826 51.7125C76.721 51.7233 77.1585 51.7119 77.5961 51.7004C77.611 52.0783 77.6251 52.434 77.6383 52.7675C77.372 52.2626 76.6037 52.216 76.2826 51.7125C76.0409 51.8301 75.8283 51.9915 75.5875 52.1313C75.531 52.0883 75.4463 52.0237 75.3334 51.9377C74.9144 52.416 74.3772 52.6748 73.7015 52.2029C73.1608 52.3729 72.7074 51.9842 72.1605 51.9985C72.0511 52.0014 71.9355 51.8486 71.7944 51.741C72.4622 51.323 73.3875 51.8773 73.7713 51.1997C73.3823 51.0541 72.965 50.887 72.4931 50.7213C72.2038 51.0182 71.8174 50.9393 71.4249 50.7048C71.1373 51.0461 70.6151 50.993 70.3108 50.912C69.95 50.7879 69.5998 50.9306 69.2381 50.7843C68.932 50.6588 68.4715 50.7821 68.0887 50.7921C68.1849 50.4558 68.2572 50.2091 68.3287 49.9402C69.037 49.8549 69.7736 49.7911 70.6451 49.6793C70.6751 49.7452 70.8198 49.9417 70.938 50.1612C71.0182 50.1146 71.0985 50.068 71.1788 50.0214C71.2018 49.9095 71.2512 49.7747 71.2997 49.6176C71.4911 49.6126 71.7099 49.6069 71.9833 49.5997C72.0133 49.6657 72.0733 49.7977 72.1615 49.9511C72.3529 49.9461 72.5717 49.9404 72.8451 49.9332C72.8689 49.8436 72.9184 49.7088 72.9942 49.551C73.1856 49.546 73.4044 49.5403 73.6232 49.5345C73.7263 50.0659 74.3447 49.7827 74.6773 49.8853C75.0372 49.9871 75.4703 49.8645 75.8822 49.8982C76.0463 49.8939 76.1874 50.0015 76.3815 50.0632C76.4865 49.9492 76.6179 49.8122 76.7229 49.6982C77.3827 49.7699 77.9102 49.9564 78.5903 49.8496C79.3251 49.7413 80.1923 49.5183 80.9482 49.9436C81.556 49.3936 81.8885 50.186 82.4081 50.1724C82.731 50.0305 83.0803 49.8655 83.4296 49.7006C83.6801 49.8053 83.9924 50.0864 84.2191 49.5909C84.3364 49.7881 84.4246 49.9416 84.5411 50.1166C85.1339 49.8785 85.7011 49.6857 86.3961 49.9568C86.7296 50.0815 87.2439 49.9346 87.6523 49.8794C87.8975 49.8507 88.141 49.7775 88.3589 49.7496C88.4488 49.9475 88.5079 50.0572 88.597 50.2329C88.9649 49.845 89.3354 49.5237 90.0596 49.8386C90.1169 49.9039 90.2333 50.0788 90.3507 50.276C90.2977 50.3219 90.2192 50.413 90.1133 50.5048C90.251 50.5234 90.3912 50.6088 90.4997 50.5837C91.1754 50.3657 91.8238 50.1485 92.4986 49.9083C92.6398 50.0158 92.7826 50.1679 92.9776 50.2518C93.1999 50.335 93.4751 50.3723 93.7221 50.3881C93.887 50.406 94.0494 50.3572 94.2399 50.33C94.2469 50.5078 94.254 50.6857 94.2619 50.8858C93.797 50.8979 93.3048 50.9108 92.8399 50.923C92.6617 51.2615 92.5373 51.5763 92.3088 52.0273C91.9949 51.0119 90.9169 51.4407 90.2994 51.0563C90.1821 51.5489 90.0647 52.0416 89.9236 52.6239C90.1697 52.6174 90.3611 52.6124 90.5252 52.6081C90.3735 52.2338 90.7519 52.1126 91.0404 51.7935C91.3535 52.0968 91.5819 52.3357 91.8668 52.6175C91.9983 52.4805 92.1297 52.3436 92.3406 52.1378C92.614 52.1306 92.9642 51.9879 93.3841 52.2217C93.5526 52.3286 93.9831 52.1393 94.4718 52.0375C94.3438 52.2633 94.2944 52.3982 94.1612 52.4907C93.9751 52.6291 93.7599 52.7237 93.519 52.8635C93.6946 53.1482 93.8683 53.3885 94.0721 53.6947C94.1153 53.4043 94.1621 53.2028 94.2044 52.8901C94.9736 52.959 95.7428 53.0278 96.5949 53.1168C96.4768 52.8974 96.3877 52.7217 96.2413 52.4807C96.6788 52.4693 97.0069 52.4607 97.3898 52.4506C97.4242 52.6278 97.4586 52.8049 97.4947 53.0265C97.6314 53.0229 97.7964 53.0408 97.9878 53.0358C97.8705 52.8386 97.755 52.6859 97.6085 52.4449C98.099 52.3876 98.5083 52.3546 98.9723 52.3202C99.1046 52.2055 99.2634 52.0678 99.4751 51.8842C99.8456 52.2528 100.216 52.6214 100.614 52.9893C101.02 52.8674 101.425 52.7455 101.831 52.6237C101.746 52.5369 101.634 52.4731 101.492 52.3433C102.066 52.3282 102.585 52.3146 103.16 52.2996C103.166 52.4552 103.173 52.633 103.184 52.922C103.564 52.8231 104.021 52.6108 104.105 52.6754C104.474 52.9995 104.702 52.5485 105.007 52.6295C105.338 52.7099 105.668 52.7457 106.027 52.8031C106.315 52.484 106.687 52.2072 107.23 52.0817L108.535 51.8695C108.865 51.9054 109.167 51.9198 109.549 51.8875C110.338 51.7778 110.369 51.866 110.679 51.3906C110.73 51.3002 110.781 51.2099 110.884 51.0514C110.33 50.8879 109.722 50.7258 110.051 50.0496C110.875 50.117 111.066 50.8019 111.849 51.2264C111.819 51.1605 111.433 51.0816 111.772 50.6499C112.077 50.7531 112.41 50.8557 112.687 50.9375C112.695 51.1598 112.702 51.3376 112.716 51.6711C112.54 51.3864 112.453 51.2551 112.365 51.1017C112.258 51.1712 112.179 51.2401 111.877 51.2257C111.503 51.458 111.38 51.8173 110.867 51.9865C111.443 52.016 112.069 51.9328 112.452 52.6126C112.519 52.2326 112.538 52.0318 112.557 51.8088C113.167 52.0153 113.704 52.4241 114.425 51.9824C114.666 51.8426 115.108 51.9422 115.463 51.9329C115.5 52.1768 115.535 52.3539 115.57 52.5533C116.062 52.5404 116.555 52.5275 117.074 52.5139C117.206 52.3991 117.365 52.2615 117.551 52.1008C117.851 52.093 118.375 52.1905 118.534 52.0528C118.905 51.7316 119.139 52.126 119.437 52.0514C119.762 51.9539 120.058 51.8349 120.382 51.7152C120.407 51.6477 120.43 51.5359 120.454 51.4462C120.48 51.4233 120.507 51.4003 120.56 51.3767C120.706 51.5954 120.878 51.7912 121.052 52.0314C121.79 52.0121 122.527 51.9705 123.239 51.9742C123.924 51.9785 124.627 51.7598 125.271 52.1213C125.347 51.9635 125.396 51.8287 125.47 51.6264C126.56 52.1765 127.761 52.1006 128.936 52.0475C129.947 51.9988 130.931 51.973 131.944 51.9688C132.354 51.9581 132.747 51.5027 133.124 52.0492C133.25 51.7788 133.3 51.644 133.349 51.5092C133.549 51.7265 133.75 51.9438 133.923 52.1618C134.056 52.0693 134.134 51.9782 134.267 51.8857C134.49 51.9689 134.712 52.0521 134.934 52.1353C135.122 52.0414 135.31 51.9474 135.552 51.8298C135.724 52.0256 135.895 52.1992 136.01 52.3297C136.307 52.2329 136.494 52.1167 136.685 52.1117C137.938 51.9454 139.207 52.2015 140.441 52.2582C140.853 52.2919 141.314 52.1686 141.787 52.3787C142.177 52.5465 142.774 52.3974 143.266 52.3845C143.867 52.3687 144.443 52.3759 145.043 52.338C146.652 52.1846 148.23 52.6106 149.867 52.4787C150.276 52.4457 150.694 52.6351 151.152 52.4451C151.395 52.3497 151.859 52.3375 152.056 52.4659C152.532 52.7427 152.989 52.5083 153.458 52.6072C153.502 52.339 153.548 52.1153 153.592 51.8471C153.903 52.106 154.158 52.3219 154.357 52.4947C154.523 52.5349 154.605 52.5327 154.687 52.5528C155.073 52.6095 155.476 52.4209 155.843 52.7006C156.154 52.9372 156.588 52.1692 156.966 52.7157C157.278 52.3069 157.627 52.8096 157.979 52.7114C158.359 52.6347 158.797 52.6455 159.209 52.6792C159.456 52.695 159.681 52.8449 159.928 52.8607C160.12 52.8779 160.297 52.4949 160.529 52.8227C160.558 52.8664 160.72 52.8177 160.776 52.8385C161.249 53.0486 161.712 52.2799 162.198 52.8012C162.715 52.7209 163.27 52.9289 163.75 52.6048C164.999 53.0394 166.369 52.3805 167.619 52.8373C167.842 52.9205 168.141 52.8682 168.414 52.861C169.918 52.8216 171.422 52.7823 172.926 52.7429C173.391 52.7307 173.828 52.697 174.293 52.7071C174.65 52.72 175.151 52.9294 175.365 52.8126C175.82 52.5558 176.238 52.723 176.672 52.6448C177.378 52.4928 178.022 52.8543 178.729 52.7245C178.864 52.6987 179.061 52.8271 179.303 52.7095C179.545 52.5919 179.898 52.5381 180.174 52.5754C181.769 52.7784 183.521 52.7771 185.045 52.5369C185.29 52.5082 185.569 52.6344 185.842 52.6273C186.745 52.6259 187.674 52.5793 188.577 52.5557C188.877 52.5478 189.202 52.4503 189.458 52.6884C189.543 52.7752 189.845 52.7895 189.953 52.7422C190.649 52.3457 191.421 52.5035 192.16 52.4841C193.936 52.4154 195.714 52.3688 197.492 52.3445C197.93 52.3331 198.388 52.1653 198.784 52.4887C198.841 52.5317 199.031 52.5045 199.14 52.4794C200.22 52.0951 201.321 52.2665 202.444 52.2816C202.499 52.2802 202.585 52.367 202.641 52.41C203.259 52.1268 203.815 51.6449 204.628 52.1354C204.797 52.2423 205.149 52.1441 205.422 52.1369C207.938 52.071 210.427 52.0059 212.942 51.94C213.462 51.9264 213.977 51.8017 214.453 52.0785C214.982 51.5973 215.493 52.0513 216.014 52.0821C216.562 52.09 217.109 52.0757 217.655 52.0392C217.982 52.0084 218.306 51.9108 218.768 51.8097C218.994 51.9819 219.332 52.24 219.615 52.4552C219.969 52.4236 220.384 52.5241 220.284 52.0816C220.632 51.8722 220.934 51.9088 221.218 52.1684C221.447 51.7174 221.846 52.1075 222.172 52.0544C222.417 52.0258 222.795 51.8823 222.936 51.9899C223.329 52.2467 223.732 52.0581 224.117 52.0925C224.447 52.1284 224.852 51.9843 225.11 52.2891C225.269 52.1514 225.428 52.0137 225.639 51.8301C225.995 51.8208 226.379 51.833 226.788 51.8C228.07 51.6775 229.324 51.5556 230.632 51.4101C230.653 51.2315 230.699 51.03 230.74 50.6729C230.975 51.0673 231.149 51.3298 231.326 51.6367C231.973 51.3973 232.563 51.0925 233.418 51.2482C234.053 51.3873 234.81 51.145 235.543 50.9922C235.378 50.9743 235.212 50.9341 235.047 50.9162C234.306 50.8688 233.573 51.0216 232.824 50.7741C232.381 50.63 231.76 50.8465 231.241 50.8823C231.239 50.8379 231.236 50.749 231.203 50.6163C231.53 50.5855 231.884 50.5317 232.213 50.5453C233.12 50.6329 233.988 50.4321 234.8 50.2106C235.559 50.0127 236.213 49.9288 236.958 50.0873C237.179 50.126 237.474 49.9848 237.747 49.9554C238.182 49.8995 238.645 49.8206 239.082 49.8092C239.52 49.7977 239.933 49.8759 240.401 49.9304C240.449 49.7511 240.472 49.6615 240.494 49.5052C241.11 49.1775 241.462 49.7691 242.063 49.7311C242.062 49.7089 242.111 49.5741 242.162 49.4615C242.243 49.4371 242.323 49.3905 242.405 49.3883C244.049 49.4343 245.627 49.1927 247.111 48.642C247.381 48.546 247.738 48.5811 248.039 48.5732C249.215 48.5424 250.391 48.5117 251.621 48.4794C251.64 48.2564 251.633 48.0786 251.653 47.9C252.325 47.5931 252.969 47.2647 253.857 46.8632C254.484 46.8022 255.363 46.8905 256.479 46.7277C256.092 46.6266 255.926 46.5864 255.705 46.5255C255.783 46.4122 255.834 46.3218 255.912 46.2308C255.634 46.1268 255.357 46.045 255.162 45.9611C254.864 46.0356 254.593 46.1095 254.16 46.2321C254.398 46.0034 254.477 45.9345 254.556 45.8434C254.077 45.5222 253.767 45.9754 253.276 46.0105C253.24 45.8111 253.205 45.6118 253.17 45.4124C254.451 45.2676 255.649 45.1249 256.903 44.9809C257.035 44.8661 257.194 44.7285 257.353 44.5908C258.576 44.3807 259.799 44.1484 260.995 43.9391C260.345 43.422 259.602 43.3302 258.739 43.6421C258.595 43.4678 258.424 43.2943 258.252 43.0985C258.413 43.0275 258.494 42.9809 258.575 42.9565C260.212 42.8246 261.877 42.7143 263.515 42.6046C264.007 42.5695 264.384 42.4261 264.723 41.9944C264.035 41.9012 263.486 41.871 262.946 42.0632C262.758 42.1349 262.514 42.208 262.322 42.1908C261.333 42.1054 260.37 41.9749 259.187 41.8278C260.147 41.1796 261.131 41.1538 262.086 41.062C261.915 40.2209 260.934 40.3133 260.374 39.9942C260.503 39.8128 260.579 39.655 260.734 39.4284C259.743 39.2763 258.874 39.4548 257.913 39.391C257.987 39.1665 258.144 39.0066 258.39 38.978C258.689 38.9256 258.965 38.9851 259.032 38.6051C259.054 38.471 259.538 38.258 259.786 38.296C260.419 38.3907 260.992 37.6414 261.617 38.2258C262.187 38.0996 262.757 37.9735 263.353 37.8243C263.625 37.7727 263.868 37.6773 264.137 37.559C263.725 37.5253 263.28 37.3589 262.939 37.7239C262.596 37.3546 262.111 37.5675 261.672 37.5345C261.233 37.5015 260.824 37.5567 260.379 37.3681C260.017 37.2218 259.476 37.3695 259.038 37.381C258.601 37.3924 258.136 37.4046 257.616 37.4182C258.563 37.8162 258.591 37.8377 259.824 37.8722C259.453 38.1712 259.035 38.0041 258.709 38.0572C258.301 38.1124 257.889 38.0787 257.424 38.0908C257.28 37.9166 257.108 37.7208 256.879 37.4598C256.162 37.3228 255.138 37.7501 254.449 36.9225C255.893 36.7512 257.228 36.605 258.59 36.4358C258.613 36.3239 258.637 36.2343 258.66 36.1224C259.504 36.0113 260.375 35.8772 261.219 35.7661C261.343 35.4513 261.469 35.1587 261.593 34.8439C263.047 34.9171 264.378 34.6597 265.709 34.4024C265.79 34.378 265.842 34.3098 266 34.1499C265.834 34.1098 265.669 34.0918 265.503 34.0517C265.556 34.0058 265.583 33.9828 265.636 33.9369C265.607 33.9154 265.551 33.8724 265.551 33.8724C265.417 33.9427 265.258 34.0803 265.121 34.0839C263.071 34.1598 261.02 34.1913 258.914 34.2464C258.839 33.7366 257.852 33.6957 258.043 32.9785C258.559 32.876 259.075 32.7735 259.618 32.6702C259.699 32.6459 259.836 32.6423 259.834 32.5978C260.16 31.8327 260.989 32.0335 261.67 31.9489C262.27 31.8887 262.866 31.7396 263.467 31.7016C264.039 31.6421 264.643 31.6708 265.354 31.6522C264.935 31.4406 264.681 31.247 264.242 31.2362C263.311 31.2161 262.363 31.4857 261.471 31.0862C260.778 31.5495 260.099 30.9886 259.365 31.1191C258.631 31.2496 257.806 31.1599 257.041 31.2022C255.922 31.276 254.852 31.215 253.719 30.9331C254.067 30.746 254.388 30.5596 254.629 30.4197C255.687 30.1695 256.771 30.5862 257.708 30.0721C258.252 30.6587 258.745 29.9782 259.266 30.009C259.788 30.0399 260.281 30.0492 260.79 29.7911C261.085 29.6276 261.584 29.7703 261.992 29.7151C262.373 29.6606 262.725 29.5624 263.104 29.4635C263.429 29.3659 263.753 29.2462 264.293 29.054C263.908 29.0196 263.77 29.0009 263.661 29.0038C262.455 28.9686 261.276 28.9105 260.07 28.8753C259.961 28.8782 259.821 28.815 259.711 28.7957C259.545 28.7555 259.379 28.7153 259.24 28.6522C258.988 28.5031 258.789 28.3302 258.563 28.1581C259.31 27.649 260.194 27.8706 261.008 27.6713C260.239 27.6246 259.542 27.3091 258.751 27.3743C258.26 27.4094 257.735 27.2897 257.213 27.2366C257.2 26.9031 257.19 26.6586 257.177 26.3251C257.505 26.3165 257.862 26.3517 258.188 26.2764C258.514 26.2233 258.75 25.9724 259.163 26.0283C259.521 26.0635 259.902 26.009 260.257 25.9997C260.613 25.9904 260.995 25.9803 261.46 25.9682C261.588 25.7423 261.715 25.4942 261.868 25.2009C261.646 25.1399 261.535 25.0983 261.425 25.0789C261.148 24.9972 260.871 24.9154 260.567 24.8344C260.725 24.6745 260.804 24.6056 260.883 24.5145C260.798 24.45 260.741 24.407 260.685 24.3639C260.855 23.8254 261.437 24.0104 261.846 23.9552C262.383 23.6964 262.181 22.7448 263.282 22.894C263.172 22.8746 263.033 22.8337 262.923 22.8144C262.785 22.7957 262.622 22.8222 262.565 22.757C262.396 22.6279 262.291 22.7641 262.181 22.7448C261.277 22.7239 260.398 22.6357 259.492 22.5704C259.381 22.551 259.268 22.4427 259.127 22.3574C259.939 22.1136 260.697 21.8935 261.563 21.6483C261.66 21.3342 261.554 20.7361 262.457 20.7125C261.686 20.5991 260.975 20.64 260.264 20.6586C259.553 20.6772 258.815 20.6965 258.132 20.7144C257.934 20.5638 257.792 20.434 257.564 20.2174C257.861 20.0984 258.05 20.0489 258.212 19.978C258.211 19.9557 258.21 19.9335 258.208 19.889C257.636 19.9485 257.471 19.2407 256.82 19.3913C256.603 19.4415 256.294 19.2493 256.073 19.1883C256.131 18.5859 257.022 18.9632 257.111 18.449C257.11 18.4268 258.298 18.0174 258.353 18.0159C258.845 18.003 259.338 17.9902 259.796 17.8224C257.961 17.8037 256.098 17.7634 254.483 17.7612C253.901 17.5762 253.749 17.1796 253.232 17.2599C252.715 17.3402 252.294 17.0841 251.955 16.826C251.532 16.5033 250.923 16.3412 250.711 15.8126C250.929 15.8069 251.148 15.8012 251.422 15.794C251.452 15.86 251.512 15.9919 251.572 16.1461C251.703 15.9869 251.833 15.8055 251.936 15.647C251.993 15.7123 252.077 15.7546 252.134 15.8199C252.896 15.6887 253.657 15.5575 254.446 15.4255C254.469 15.3359 254.465 15.2248 254.486 15.0684C253.47 14.9838 252.481 14.8984 251.465 14.8137C251.459 14.6581 251.452 14.4803 251.446 14.3469C251.66 14.2078 251.847 14.0916 252.034 13.9754C251.893 13.8679 251.835 13.7804 251.78 13.7818C251.56 13.7653 251.257 13.7065 251.096 13.7997C250.721 14.0098 250.424 14.1066 250.084 13.804C248.883 13.9022 247.75 13.6203 246.62 13.4273C245.875 13.291 245.137 13.3104 244.397 13.2852C244.284 13.1992 244.199 13.1346 244.001 12.984C243.991 12.7173 243.977 12.3616 243.956 11.828C243.663 12.036 243.529 12.1063 243.423 12.1981C243.317 12.2898 243.238 12.3809 243.002 12.6319C242.901 12.145 242.834 11.8574 242.768 11.5698C242.632 11.5734 242.549 11.5533 242.33 11.5591C242.42 11.757 242.535 11.9097 242.569 12.0646C242.603 12.2418 242.583 12.4203 242.587 12.5315C242.923 12.7007 243.173 12.8054 243.508 12.9747C243.319 13.0242 243.212 13.0937 243.075 13.0973C242.53 13.1561 242.351 12.7825 242.014 12.5687C242.12 12.4769 242.173 12.4311 242.279 12.3393C242.085 12.2776 241.918 12.2152 241.751 12.1528C241.855 12.0166 241.931 11.8588 242.061 11.6774C241.673 11.554 241.363 12.0294 240.992 11.6386C240.821 11.4651 240.172 11.6823 239.865 11.5346C239.558 11.3868 239.272 11.7504 239.068 11.4442C238.781 11.8077 238.334 11.5747 237.983 11.6951C237.894 11.5194 237.834 11.3875 237.775 11.2778C237.25 11.158 236.579 11.5093 236.255 10.917C237.098 10.7836 237.97 10.6718 238.867 10.5148C238.93 10.7357 238.966 10.9572 239.064 11.3553C239.243 11.039 239.346 10.8583 239.449 10.6998C240.119 11.0383 240.639 11.0247 241.177 10.7881C241.392 10.6935 241.694 10.7078 241.939 10.6791C242.011 10.4102 242.082 10.1413 242.155 9.91685C241.492 9.75619 240.854 9.55035 240.194 9.47861C239.535 9.40687 238.852 9.447 238.195 9.44195C237.811 9.42974 237.454 9.39459 236.96 9.36301C236.934 9.40819 236.803 9.54516 236.673 9.72658C237.029 9.73951 237.385 9.7302 237.713 9.72161C237.893 10.1175 237.739 10.3663 237.337 10.5993C237.135 10.3376 236.906 10.0765 236.647 9.74953C236.418 9.51072 236.191 9.29414 235.907 9.03453C235.584 9.1765 235.287 9.29554 234.964 9.43751C235.094 9.94595 235.362 9.80541 235.732 9.46193C235.769 9.70575 235.804 9.90511 235.871 10.2149C235.54 10.1346 235.345 10.0729 235.124 10.0119C234.963 10.0829 234.801 10.1539 234.532 10.2722C234.516 9.87207 234.503 9.5386 234.491 9.22738C234.075 9.10473 233.654 8.82647 233.411 8.92184C232.925 9.09034 232.541 9.07813 232.124 8.91102C231.814 9.38645 231.47 8.99489 231.112 8.93751C230.562 8.86291 230.011 8.7883 229.435 8.75888C228.859 8.72945 228.26 8.78966 227.658 8.80541C227.598 8.67346 227.538 8.54151 227.449 8.36581C227.342 8.43537 227.262 8.48198 227.182 8.55082C226.434 8.32561 226.85 7.75839 226.611 7.25282C226.314 7.34962 226.043 7.42346 225.746 7.52026C225.409 6.61668 225.409 6.61668 224.483 6.75218C224.54 6.79521 224.597 6.86046 224.766 6.98955C224.549 7.01751 224.303 7.04619 224.085 7.07415C224.17 7.13869 224.282 7.20252 224.367 7.26706C224.02 7.49868 223.525 7.44487 223.004 7.41401ZM99.8686 50.7612C99.7416 51.0093 99.6922 51.1442 99.5881 51.2804C99.3808 51.5751 99.1443 51.8261 98.7677 51.9917C98.7139 52.0154 98.6292 51.9509 98.5189 51.9315C98.5127 51.7759 98.5057 51.598 98.5004 51.4647C98.0655 51.5428 97.6845 51.5973 97.2222 51.6761C97.202 51.1648 97.1852 50.7425 97.1623 50.1645C97.3379 50.4492 97.4252 50.5804 97.5125 50.7116C97.7798 50.5489 98.0471 50.3861 98.3135 50.2011C98.459 50.4198 98.5463 50.5511 98.6346 50.7045C99.1109 50.2915 99.4999 50.4371 99.5996 50.8795C100.311 50.8609 100.748 50.8495 101.131 50.8394C101.067 50.6186 101.033 50.4414 100.97 50.2428C101.025 50.2414 101.052 50.2184 101.106 50.217C101.364 50.4995 101.594 50.7828 101.852 51.0654C102.688 50.7542 102.77 50.752 103.548 51.0432C103.761 50.8819 103.972 50.6983 104.264 50.4681C104.449 50.9974 105.279 50.5083 105.36 51.1738C104.978 51.2061 104.597 51.2605 104.324 51.2899C104.249 51.4699 104.199 51.5825 104.149 51.6951C104.042 51.7646 103.934 51.812 103.8 51.8822C103.737 51.6614 103.647 51.4634 103.583 51.2426C103.424 51.3802 103.345 51.4491 103.239 51.5409C103.068 51.3673 102.925 51.2153 102.783 51.0855C101.978 51.4849 101.148 51.2618 100.356 51.327C100.275 51.3514 100.075 51.1341 99.8686 50.7612ZM187.378 52.0085C187.127 51.9038 186.904 51.7983 186.598 51.6728C187.107 51.3925 187.309 51.6542 186.905 51.8206C186.665 51.9826 186.479 52.121 186.373 52.2128C185.905 52.1361 185.432 51.9482 185.271 52.0414C184.873 52.3411 184.43 52.2192 183.994 52.2751C183.776 52.3031 183.444 52.2227 183.339 52.3145C182.861 52.7053 182.361 52.5181 181.895 52.5081C181.543 51.8942 182.472 51.8699 182.454 51.403C183.019 51.8555 183.367 51.6462 183.759 51.1686C183.427 51.0882 183.151 51.0287 182.874 50.9469C182.514 50.8451 182.208 50.7196 182.381 50.2477C182.932 50.3446 183.456 50.4421 183.842 50.521C184.017 50.7835 184.133 50.9585 184.251 51.1557C184.173 51.269 184.095 51.3823 183.991 51.5185C184.899 51.6283 185.806 51.7158 187.378 52.0085ZM188.142 11.1752C188.38 10.9687 188.645 10.7392 188.882 10.5105C189.468 10.8067 190.015 10.7924 190.47 10.5134C191.188 10.6727 191.824 10.834 192.57 11.0148C192.41 11.1302 192.249 11.2012 192.144 11.3152C191.985 11.4529 191.883 11.6336 191.805 11.7469C190.538 11.5575 189.326 11.3667 187.478 10.3025C187.711 10.6746 187.889 11.0038 188.033 11.2003C187.904 11.404 187.829 11.5617 187.752 11.6973C187.198 11.5337 186.781 11.3889 186.339 11.2669C185.951 11.1658 185.689 11.462 185.362 11.4928C185.062 11.5229 184.728 11.3759 184.398 11.34C184.316 11.3421 184.238 11.4554 184.105 11.5479C184.041 11.3048 184.005 11.0832 183.94 10.8401C183.449 11.5651 183.396 11.611 182.819 11.5594C182.214 11.4862 181.633 11.3456 181.027 11.228C181.008 11.451 181.015 11.6288 181.019 11.74C180.85 11.6109 180.653 11.4603 180.54 11.3742C179.693 11.4187 179.008 11.4143 178.384 11.542C178.139 11.5929 178.008 11.7298 177.7 11.5599C177.196 11.2615 176.449 11.7706 175.938 11.2944C175.627 11.7476 174.87 11.3001 174.586 11.7304C174.471 11.5776 174.38 11.3575 174.242 11.3388C173.746 11.2406 173.627 10.9989 173.612 10.6432C173.606 10.4876 173.408 10.3148 173.403 10.1814C173.425 10.0473 173.611 9.90888 173.663 9.84076C174.05 9.94189 174.381 9.99999 174.658 10.0817C174.69 10.1922 174.721 10.3026 174.754 10.4353C175.026 10.4059 175.272 10.3772 175.463 10.3722C175.511 10.1929 175.534 10.0811 175.532 10.0366C175.891 10.1162 176.194 10.175 176.525 10.2331C176.588 10.4318 176.623 10.6311 176.687 10.852C176.952 10.6448 177.164 10.4612 177.323 10.3235C177.655 10.4261 177.877 10.5093 178.1 10.5925C178.201 10.3895 178.251 10.277 178.302 10.1644C178.557 10.3802 178.839 10.5954 179.093 10.789C179.82 10.4807 180.446 10.3975 180.619 10.6155C180.76 10.7231 180.929 10.83 181.126 10.9806C181.227 10.7554 181.276 10.6206 181.351 10.4406C182.726 10.6049 184.157 10.1001 185.572 10.5749C185.711 10.6158 185.983 10.5864 186.09 10.5168C186.516 10.2164 187.018 10.448 188.142 11.1752ZM27.7454 48.8664C27.0917 48.9502 26.543 48.9201 26.1117 49.0872C25.653 49.255 25.2375 49.1323 24.8255 49.0986C24.3042 49.0677 23.8076 48.9695 23.3127 48.9157C23.2104 49.0964 23.1336 49.2319 23.0322 49.4348C22.8372 49.3509 22.6432 49.2892 22.3371 49.1637C22.2339 49.3222 22.1051 49.5259 22.0274 49.6392C21.5317 49.5631 21.2 49.4828 20.8701 49.4469C20.4855 49.4125 19.9607 49.2927 19.951 49.0482C19.936 48.6703 18.9604 48.9183 19.4059 48.4171C19.9254 48.4035 20.445 48.3899 20.9372 48.377C20.9707 48.5319 21.0025 48.6423 21.0651 48.841C21.1922 48.5929 21.2689 48.4573 21.3712 48.2766C22.0328 48.3928 22.7217 48.5083 23.3833 48.6245C23.4892 48.5327 23.595 48.4409 23.6744 48.3721C23.5889 48.2853 23.5033 48.1985 23.3022 47.959C23.745 48.0809 23.9391 48.1426 24.1605 48.2036C24.2099 48.0688 24.2593 47.934 24.3087 47.7991C24.4463 47.8178 24.583 47.8142 24.8036 47.853C24.733 48.1441 24.6606 48.3908 24.5927 48.7486C25.3345 48.8182 26.1029 48.8649 26.8994 48.933C27.1076 48.6605 27.2355 48.4346 27.4181 48.2073C27.9315 48.0381 28.1909 48.3651 28.5296 48.6233C29.1833 47.8496 30.2973 48.3322 31.1027 47.9328C31.108 48.0662 31.1107 48.1329 31.1142 48.2218C31.4741 48.3237 31.8358 47.7801 32.2671 48.3029C32.0801 48.4191 31.894 48.5575 31.5746 48.7884C32.1462 48.7066 32.5326 48.7855 32.9604 48.5295C33.3874 48.2513 33.929 48.1036 34.4142 47.9129C34.5765 47.8641 34.7918 47.7695 34.9029 47.8111C35.5177 48.1288 36.1943 47.933 36.7985 47.984C36.8876 48.1597 36.9476 48.2916 37.0676 48.5555C37.2757 48.283 37.4054 48.1016 37.4839 48.0105C38.0035 47.9969 38.3864 47.9869 38.8239 47.9755C38.8027 48.1318 38.7798 48.2437 38.7586 48.4C38.4825 48.3405 38.2884 48.2788 38.067 48.2178C38.0176 48.3526 37.9682 48.4875 37.9179 48.6C37.0455 48.6896 36.166 48.6014 35.2133 48.7376C35.3827 48.8667 35.4674 48.9312 35.6085 49.0388C35.3103 49.1134 35.0166 49.2991 34.7961 49.2604C33.8566 49.0402 32.9066 49.2431 31.9759 49.2452C31.4828 49.2358 30.9095 49.2731 30.3564 49.1318C30.2461 49.1124 30.1068 49.0493 29.9974 49.0522C29.753 49.1031 29.5396 49.2422 29.2943 49.2709C29.1038 49.2981 28.8789 49.1482 28.6874 49.1533C28.4687 49.159 28.2543 49.2759 28.0382 49.3483C27.8635 49.0858 27.8036 48.9539 27.7454 48.8664ZM45.9909 9.15543C46.7566 9.13539 47.6114 9.29104 48.2589 9.05155C49.6615 8.52525 51.2201 9.17431 52.5363 8.539C53.2093 8.9442 53.8568 8.70471 54.5051 8.48745C54.6136 8.46235 54.806 8.47958 54.8897 8.52189C55.3969 8.88692 56.0647 8.46887 56.5675 8.72275C57.1259 8.99743 57.7204 8.80383 58.2682 8.81175C58.4596 8.80674 58.6458 8.66834 58.8063 8.57512C59.0842 8.67912 59.362 8.7831 59.5843 8.8663C59.5949 9.13307 59.6046 9.37761 59.6178 9.71107C59.3091 9.51887 59.1115 9.36826 58.8583 9.19686C58.1658 9.68232 57.4196 9.50157 56.676 9.38752C56.653 9.49939 56.6292 9.58903 56.6063 9.7009C56.1017 9.40256 55.4728 9.41902 55.0961 9.58466C54.5051 9.86718 54.0287 9.59035 53.5083 9.58172C53.0699 9.57094 52.7073 9.40241 52.2222 9.59314C51.8181 9.7595 51.2386 9.64114 50.7464 9.65403C50.2815 9.6662 49.7937 9.79025 49.3782 9.6676C48.8798 9.52487 48.5543 10.29 48.0683 9.76865C47.726 10.1114 47.442 9.85181 47.083 9.7722C46.6419 9.69473 46.1797 9.77359 45.7148 9.78576C45.5234 9.79077 45.3302 9.75133 44.9729 9.71617C45.2614 9.39707 45.4723 9.19127 45.7607 8.87216C45.0533 8.9797 44.6113 8.88001 44.532 8.25898C45.497 8.434 46.2927 7.79006 47.0116 7.97152C47.3786 8.25121 47.577 8.42404 47.7746 8.57465C47.5047 8.67073 47.1315 8.92528 46.9922 8.86217C46.5176 8.62981 46.3138 9.01346 45.9909 9.15543ZM50.3599 51.7236C49.5942 51.7437 48.9106 51.7616 48.227 51.7795C48.2217 51.6461 48.2173 51.5349 48.2102 51.3571C48.7607 51.4317 49.2829 51.4848 49.806 51.5601C49.8042 51.5156 49.8307 51.4927 49.8289 51.4482C49.6348 51.3865 49.4681 51.3241 49.3296 51.2833C49.3217 51.0832 49.3147 50.9053 49.3076 50.7275C49.6649 50.7626 50.0821 50.9298 50.2691 50.8136C50.697 50.5576 50.9369 51.0854 51.34 50.8968C51.5552 50.8022 51.9443 50.9478 52.2468 50.9843C52.2698 50.8725 52.2936 50.7828 52.3174 50.6932C52.6852 50.9951 53.053 51.297 53.4482 51.5982C53.9078 51.4527 54.2042 51.3337 54.5297 51.2584C54.909 51.1594 55.3554 51.3703 55.6712 51.0505C55.7241 51.0046 55.9729 51.0648 56.1113 51.1057C56.6106 51.2707 57.1637 51.412 57.61 51.6228C58.1393 51.8537 58.6245 51.663 59.1184 51.6946C59.1414 51.5827 59.1652 51.4931 59.2111 51.2693C59.3575 51.5103 59.4448 51.6415 59.5612 51.8165C59.8612 51.7864 60.1884 51.7556 60.7609 51.6961C60.3463 51.5957 60.1805 51.5555 59.9591 51.4945C59.9794 51.316 59.9715 51.1159 60.013 50.781C60.402 50.9266 60.6816 51.0751 60.9559 51.0901C61.2303 51.1052 61.4975 50.9424 61.8751 50.799C61.8618 51.1554 61.846 51.4451 61.8389 51.9572C61.6598 51.5835 61.5998 51.4516 61.5116 51.2981C61.4155 51.6344 60.6119 51.3884 60.8527 51.9385C61.6571 52.2067 62.2984 51.8116 63.0871 51.6797C62.8506 51.9307 62.6142 52.1817 62.3778 52.4326C61.9094 52.3559 61.3722 52.6147 60.947 52.2476C60.9179 52.2038 60.7018 52.2762 60.5942 52.3236C60.0596 52.6491 59.6441 52.5265 59.166 52.2052C58.9129 52.0338 58.4383 51.8014 58.3262 52.4274C58.3042 52.5615 57.8693 52.6397 57.6002 52.758C57.4265 52.5178 57.2545 52.322 57.1389 52.1692C56.8928 52.1757 56.6741 52.1814 56.4826 52.1864C56.4341 52.3435 56.4121 52.4776 56.3626 52.6124C56.1651 52.4618 56.0239 52.3542 55.911 52.2681C55.9895 52.1771 56.0689 52.1082 56.3336 51.8788C55.8193 52.0258 55.5211 52.1003 55.2512 52.1964C55.0536 52.0458 54.8569 51.9174 54.6593 51.7668C54.3991 52.1074 54.011 51.9841 53.6564 52.0156C52.9727 52.0335 52.2882 52.0292 51.6319 52.0464C51.6046 52.0471 51.5755 52.0033 51.519 51.9603C51.5428 51.8707 51.5658 51.7588 51.5622 51.6699C51.8339 51.6183 52.0792 51.5896 52.3235 51.5387C51.6911 51.4662 51.1239 50.9692 50.4243 51.2768C50.3996 51.3443 50.3793 51.5228 50.3599 51.7236ZM7.40004 39.0288C7.13539 39.2583 7.10981 39.3035 7.08246 39.3042C6.88928 39.2647 6.64229 39.2489 6.5285 39.1406C6.18715 38.8158 5.58202 38.7426 5.31209 38.8387C4.79869 39.0079 4.38322 38.8853 3.89364 38.9648C3.87515 38.498 3.66435 38.0139 3.87519 37.8081C4.26952 37.3972 3.4086 37.086 3.9423 36.7382C4.77236 36.9613 5.6571 37.1829 6.56919 37.4038C6.58593 37.8262 6.60178 38.2263 6.62291 38.7599C6.81697 38.8215 7.06661 38.904 7.40004 39.0288ZM9.36007 39.4448C8.74702 39.1716 8.27334 38.9614 7.82788 38.7728C7.68147 38.5319 7.61709 38.2888 7.44597 38.1152C7.27573 37.9639 7.02522 37.8592 6.77382 37.7322C6.93437 37.639 6.98642 37.5709 7.06758 37.5465C7.14873 37.5221 7.25812 37.5193 7.34103 37.5394C7.5889 37.5774 7.8403 37.7043 8.05906 37.6986C8.33252 37.6914 8.78859 37.457 8.84592 37.5222C9.10524 37.8492 9.47223 37.4391 9.81006 37.675C10.065 37.8909 10.5837 37.855 11.0529 37.954C10.9197 38.0465 10.8395 38.0931 10.7583 38.1175C10.6507 38.1648 10.5422 38.1899 10.3799 38.2387C11.0459 38.466 11.1049 38.5758 10.9197 38.7364C10.5889 38.6783 10.3128 38.6187 10.0914 38.5578C9.83115 38.8984 9.56826 39.1723 9.36007 39.4448ZM68.5773 52.07C67.18 52.7297 65.7881 52.1431 64.3414 52.2477C64.3882 52.0462 64.412 51.9566 64.4623 51.844C64.9818 51.8304 65.4996 51.7723 65.9663 51.8046C66.4876 51.8355 67.0513 51.5537 67.5056 51.9646C67.9281 51.5752 68.3198 51.7875 68.7635 51.9317C68.9575 51.9933 69.2865 52.007 69.4197 51.9145C69.8979 51.5459 70.6203 51.8163 71.0932 51.3143C71.1619 51.6686 71.2246 51.8672 71.2598 52.0666C71.453 52.106 71.6188 52.1462 71.5086 52.1268C71.4071 52.3298 71.2545 52.6231 71.0507 53.0067C70.652 52.6166 70.3953 52.3563 70.1395 52.1182C70.0055 52.1884 69.9516 52.2121 69.8714 52.2587C69.9569 52.3455 70.0416 52.41 70.1545 52.4961C69.9401 52.613 69.754 52.7514 69.4867 52.9141C69.1471 52.6337 68.8904 52.3734 68.5773 52.07ZM45.0481 48.2353C44.4182 48.2296 43.9084 48.4877 43.2962 48.2367C42.796 48.0495 42.115 48.1341 41.524 48.4166C41.3096 48.5335 41.0247 48.9415 40.626 48.5514C40.5404 48.4646 40.2167 48.5844 39.9406 48.5248C39.6089 48.4445 39.2534 48.4538 39.0197 48.0816C40.8792 47.3431 42.7996 48.1384 44.6247 47.9126C44.7658 48.0202 44.9069 48.1278 45.0481 48.2353ZM204.476 51.7389C204.225 51.6341 204.057 51.5273 203.92 51.5309C203.619 51.5387 203.343 51.4792 203.05 51.6872C202.917 51.7797 202.547 51.411 202.203 51.7316C202.019 51.9144 201.105 51.6491 200.961 51.4748C201.094 51.3601 201.2 51.2683 201.2 51.2683C201.819 51.0073 202.347 51.216 202.887 51.0238C203.292 50.8797 203.902 51.0863 204.453 51.1609C204.459 51.3165 204.466 51.4943 204.476 51.7389ZM175.241 51.0578C174.403 50.6346 173.56 50.7902 172.575 50.7938C172.95 50.5837 173.162 50.4001 173.406 50.3492C173.677 50.2753 174.007 50.3112 174.28 50.304C174.327 50.1025 174.351 50.0129 174.372 49.8566C174.646 49.8716 174.892 49.8652 175.249 49.8781C175.094 50.1269 174.99 50.2632 174.939 50.3535C175.058 50.5952 175.15 50.8376 175.241 51.0578ZM27.3661 47.5856C28.4071 46.913 29.3253 47.2895 30.2639 47.4875C28.991 47.8323 28.991 47.8323 27.3661 47.5856ZM96.416 50.6736C96.1196 50.7926 95.9573 50.8414 95.8224 50.8894C95.8241 50.9339 95.8532 50.9776 95.855 51.0221C96.1831 51.0135 96.5386 51.0042 96.9215 50.9942C96.9047 51.2616 96.8853 51.4624 96.8438 51.7973C96.4239 51.5635 96.1716 51.4144 95.78 51.2021C95.4792 51.2099 95.0964 51.22 94.6315 51.2321C95.1114 50.908 95.511 50.6305 95.7783 50.4677C96.0544 50.5273 96.2211 50.5897 96.416 50.6736ZM171.735 11.627C172.409 11.3646 172.068 11.0397 172.168 10.7923C172.318 10.4323 172.333 10.1204 172.931 10.0379C172.97 10.3262 172.489 10.6059 173.019 10.859C173.158 10.9221 173.065 11.3252 173.075 11.5919C172.692 11.6019 172.392 11.6098 171.735 11.627ZM186.326 49.6326C185.78 50.3813 185.041 49.6885 184.504 49.9474C184.494 49.7028 184.488 49.5472 184.479 49.3249C185.141 49.4411 185.811 49.0897 186.326 49.6326ZM192.506 10.104C192.346 10.1972 192.159 10.3134 191.972 10.4296C191.64 10.3492 191.253 10.2481 190.867 10.1692C190.86 9.99137 190.853 9.81353 190.845 9.61346C191.349 9.9118 192.112 9.13519 192.506 10.104ZM135.347 49.4318C137.062 49.1866 137.062 49.1866 137.491 49.6427C136.974 49.723 136.431 49.8262 135.805 49.9316C135.691 49.8233 135.548 49.6491 135.347 49.4318ZM195.759 9.97437C195.297 10.7431 195.188 10.7682 194.344 10.1894C194.472 9.96356 194.626 9.71473 194.753 9.46661C195.089 9.6581 195.425 9.82735 195.759 9.97437ZM64.6141 9.37998C64.2815 9.96728 64.0151 10.1523 63.4894 10.0103C63.1577 9.92994 62.8234 9.78292 63.0281 9.4215C63.5476 9.4079 64.0672 9.3943 64.6141 9.37998ZM194.576 11.8969C194.352 11.7693 194.101 11.6645 193.849 11.5154C193.736 11.4293 193.649 11.2981 193.477 11.1023C194.051 11.0873 194.434 11.0772 194.871 11.0658C194.987 11.2185 195.131 11.3928 195.274 11.5671C195.033 11.6847 194.791 11.8023 194.576 11.8969ZM99.0668 9.10107C98.4908 9.07164 97.8998 9.35416 97.4129 8.81056C97.5452 8.69583 97.6511 8.60404 97.8099 8.46636C98.1936 8.47857 98.6047 8.49007 99.0422 8.47861C99.051 8.70092 99.0563 8.8343 99.0668 9.10107ZM67.152 49.9488C67.4854 50.0735 67.7906 50.1768 68.2352 50.3432C67.7994 50.3991 67.5551 50.45 67.3098 50.4787C67.5356 50.6508 67.7323 50.7792 67.9581 50.9513C67.6353 51.0933 67.3927 51.1887 67.1774 51.2833C66.3386 50.8379 67.0064 50.4199 67.152 49.9488ZM46.8165 50.726C47.561 50.8622 48.3391 50.4636 49.0765 51.1119C48.2561 51.1333 47.5451 51.1519 46.8342 51.1706C46.828 51.0149 46.8245 50.926 46.8165 50.726ZM3.50041 35.9486C3.68743 35.8325 3.8718 35.6496 4.08969 35.6217C4.44342 35.5679 4.79891 35.5586 5.15616 35.5937C5.26643 35.6131 5.38285 35.7881 5.4693 35.8971C5.0644 36.0412 4.77152 36.2492 4.46984 36.2348C4.16992 36.2649 3.86119 36.0727 3.50041 35.9486ZM197.786 52.1588C197.587 51.9637 197.444 51.8117 197.329 51.6812C197.513 51.4983 197.672 51.3606 197.725 51.3148C198.245 51.3011 198.627 51.2911 199.092 51.2789C198.612 51.5808 198.212 51.8583 197.786 52.1588ZM240.029 10.1505C239.82 10.3786 239.636 10.5837 239.452 10.7665C239.251 10.5492 238.99 10.1777 238.908 10.1799C238.557 10.3004 238.337 10.2616 238.073 9.82345C238.794 10.0494 239.487 9.58615 240.029 10.1505ZM115.213 51.8282C114.989 51.7006 114.849 51.6152 114.737 51.5736C114.865 51.3478 114.968 51.167 115.097 50.9634C115.261 50.9591 115.453 50.9763 115.616 50.9498C115.752 50.924 115.83 50.8107 115.989 50.6952C116.164 50.9577 116.253 51.1334 116.399 51.3521C115.935 51.3865 115.58 51.4181 115.28 51.4482C115.259 51.6045 115.236 51.7164 115.213 51.8282ZM66.2345 50.2843C66.3527 50.5038 66.4418 50.6795 66.5609 50.9211C65.6479 50.678 65.6479 50.678 65.7759 49.7622C66.1093 49.887 66.4145 49.9903 66.8591 50.1567C66.56 50.209 66.4515 50.2341 66.2345 50.2843ZM67.0434 9.89497C66.4145 9.91143 65.8129 9.92719 65.1566 9.94437C65.5412 9.28894 66.2372 9.58227 66.7815 9.50126C66.8362 9.49983 66.9473 9.54143 67.0311 9.58374C67.0346 9.67266 67.0381 9.76158 67.0434 9.89497ZM181.697 50.9555C181.287 50.9662 180.849 50.9777 180.384 50.9899C180.402 50.7446 180.394 50.5445 180.413 50.3215C180.938 50.4635 181.353 50.5639 181.768 50.6644C181.718 50.7992 181.721 50.8659 181.697 50.9555ZM42.6953 51.0341C42.69 50.9007 42.6582 50.7903 42.6847 50.7674C43.3798 50.3486 43.9523 50.979 44.6095 50.984C44.0079 50.9998 43.4063 51.0155 42.6953 51.0341ZM192.956 9.71394C193.432 9.96853 194.06 9.92984 194.11 10.5071C193.185 10.6426 193.156 10.5989 192.956 9.71394ZM7.22131 33.8261C6.54295 33.9774 6.30393 33.4718 5.80114 33.218C6.66387 32.8838 6.87819 33.4568 7.22131 33.8261ZM108.57 9.89819C108.09 9.53244 107.779 9.29578 107.44 9.01538C108.473 8.83255 108.586 8.91861 108.57 9.89819ZM109.298 51.7828C108.442 51.5827 108.442 51.5827 108.49 50.7135C108.599 50.7107 108.736 50.7071 108.845 50.7042C108.968 51.0348 109.117 51.3425 109.298 51.7828ZM26.8454 52.406C26.1847 52.312 25.5787 52.2166 24.9727 52.1212C24.9709 52.0768 24.97 52.0545 24.9956 52.0094C25.5972 51.9936 26.1988 51.9779 26.8278 51.9614C26.8339 52.117 26.8374 52.2059 26.8454 52.406ZM178.765 50.1866C178.762 50.1199 178.761 50.0755 178.758 50.0088C179.168 49.998 179.606 49.9866 180.016 49.9758C180.031 50.3538 180.045 50.7095 180.059 51.0651C179.867 51.0479 179.729 51.0293 179.673 51.0085C179.745 50.7396 179.79 50.4936 179.885 50.135C179.421 50.1694 179.093 50.178 178.765 50.1866ZM106.177 51.0634C106.638 50.9623 107.045 50.8849 107.507 50.7838C107.592 50.8483 107.705 50.9566 107.818 51.0427C107.577 51.1603 107.361 51.2549 107.119 51.3503C107.062 51.3073 106.95 51.2434 106.866 51.1789C106.786 51.2477 106.679 51.3173 106.6 51.3861C106.486 51.2778 106.346 51.1925 106.177 51.0634ZM171.657 52.4868C171.98 52.3449 172.276 52.2258 172.545 52.1075C172.826 52.2782 173.213 52.3793 172.955 52.7866C172.541 52.6862 172.099 52.5865 171.657 52.4868ZM224.405 8.91284C224.533 8.70918 224.638 8.59517 224.689 8.48258C224.737 8.32554 224.758 8.16921 224.804 7.94547C225.445 8.218 225.158 8.58157 225.281 8.91216C224.952 8.89853 224.733 8.90425 224.405 8.91284ZM187.785 49.8614C187.56 50.3792 187.306 50.1856 187.051 49.9697C186.945 50.0615 186.865 50.1303 186.626 50.3146C186.665 49.913 186.657 49.713 186.701 49.4448C187.119 49.6119 187.425 49.7374 187.785 49.8614ZM25.5137 47.8121C25.601 47.9433 25.773 48.1391 25.8903 48.3363C25.9203 48.4023 25.8427 48.5156 25.7694 48.7401C25.4598 48.5256 25.2349 48.3758 24.8971 48.1398C25.1652 47.9993 25.3531 47.9053 25.5137 47.8121ZM48.1378 52.9835C48.1669 53.0272 48.1951 53.0487 48.2516 53.0918C47.5133 53.1111 46.8023 53.1297 46.0639 53.1491C46.0622 53.1046 46.0613 53.0824 46.0595 53.0379C46.7432 53.02 47.4542 53.0014 48.1378 52.9835ZM179.639 52.2111C179.994 52.2018 180.323 52.1932 180.678 52.1839C180.683 52.3173 180.687 52.4062 180.693 52.5618C180.338 52.5711 180.009 52.5797 179.654 52.589C179.648 52.4334 179.644 52.3445 179.639 52.2111ZM202.069 50.3999C201.823 50.4286 201.687 50.4321 201.579 50.4795C201.471 50.5268 201.393 50.6179 201.34 50.6638C201.089 50.5591 200.867 50.4759 200.617 50.3711C200.912 50.2299 201.209 50.1109 201.505 49.9918C201.674 50.1209 201.787 50.207 202.069 50.3999ZM62.6179 9.43224C62.647 9.47599 62.6488 9.52044 62.6779 9.56419C62.3559 9.72839 62.0066 9.89332 61.6308 10.0812C61.6202 9.81442 61.614 9.6588 61.6052 9.4365C61.9616 9.44942 62.2897 9.44083 62.6179 9.43224ZM138.577 51.5058C138.457 51.9095 138.303 52.1806 137.754 52.1282C137.745 51.9059 137.737 51.7059 137.727 51.4613C138.056 51.475 138.303 51.4907 138.577 51.5058ZM140.762 52.0717C140.912 51.6895 141.038 51.4192 141.136 51.1273C141.302 51.1897 141.413 51.2091 141.607 51.2707C141.372 51.5662 141.473 52.0309 140.762 52.0717ZM169.449 52.0328C168.87 51.9367 168.536 51.7897 168.708 51.2956C169.176 51.3723 169.51 51.4971 169.449 52.0328ZM138.957 52.0967C139.703 51.5876 139.947 51.5367 140.203 51.7748C140.179 51.8644 140.156 51.9541 140.133 52.066C139.777 52.0753 139.476 52.0831 138.957 52.0967ZM173.894 52.2947C174.277 52.3069 174.607 52.3206 175.045 52.3314C174.833 52.5149 174.701 52.6297 174.569 52.7444C174.483 52.6576 174.398 52.5931 174.313 52.5063C174.207 52.5981 174.127 52.6669 173.915 52.8283C173.905 52.5837 173.901 52.4726 173.894 52.2947ZM175.922 52.3529C176.385 51.6064 176.385 51.6064 177.072 51.6774C176.777 51.8409 176.456 52.0274 175.922 52.3529ZM46.4637 50.8019C45.9494 50.9489 45.4351 51.0959 44.905 50.8428C45.4519 50.8284 45.9441 50.8156 46.4637 50.8019ZM41.9815 53.0556C41.9789 52.989 41.9771 52.9445 42.0018 52.8771C42.2206 52.8714 42.4402 52.8879 42.6308 52.8606C42.8487 52.8327 43.0639 52.738 43.3082 52.6871C43.3135 52.8205 43.2897 52.9101 43.295 53.0435C42.8292 53.0335 42.4191 53.0442 41.9815 53.0556ZM137.821 51.0583C137.763 50.993 137.679 50.9285 137.621 50.8632C137.778 50.6811 137.909 50.5219 138.039 50.3627C138.236 50.4911 138.376 50.5764 138.573 50.7048C138.278 50.8461 138.036 50.9637 137.821 51.0583ZM17.714 47.8605C18.0536 48.1409 18.3059 48.2901 18.6472 48.615C18.1806 48.5827 17.9345 48.5891 17.7422 48.5719C17.7325 48.3274 17.7255 48.1495 17.714 47.8605ZM163.405 51.5012C163.419 51.1447 163.436 50.8773 163.445 50.4319C163.708 50.8479 163.855 51.0888 164.03 51.3735C163.84 51.423 163.677 51.4495 163.405 51.5012ZM25.0488 47.1344C25.295 47.128 25.5411 47.1215 25.8145 47.1144C25.8198 47.2478 25.8233 47.3367 25.8295 47.4923C25.5834 47.4987 25.3373 47.5052 25.0638 47.5123C25.0577 47.3567 25.0541 47.2678 25.0488 47.1344ZM81.1077 51.8978C81.1616 51.8741 81.2436 51.872 81.2974 51.8483C81.4147 52.0455 81.5312 52.2205 81.6785 52.4837C81.405 52.4908 81.2956 52.4937 81.1315 52.498C81.1236 52.2979 81.1157 52.0978 81.1077 51.8978ZM190.17 52.0021C189.862 51.8322 189.638 51.7045 189.274 51.5137C189.712 51.5023 189.958 51.4958 190.259 51.488C190.238 51.6443 190.216 51.7784 190.17 52.0021ZM49.0926 48.0627C48.6612 48.2298 48.2272 48.3301 47.8073 48.0963C48.2449 48.0849 48.6824 48.0734 49.0926 48.0627ZM34.3081 52.1439C34.7394 51.9768 35.1726 51.8542 35.8941 52.1023C35.1558 52.1217 34.7182 52.1331 34.3081 52.1439ZM139.228 9.18455C139.285 9.24981 139.315 9.31578 139.372 9.35881C139.128 9.43195 138.857 9.5058 138.614 9.57893C138.582 9.46849 138.549 9.33583 138.517 9.20316C138.79 9.196 139.009 9.19028 139.228 9.18455ZM100.657 10.5504C100.989 9.9409 101.341 9.84266 101.895 10.0062C101.518 10.1718 101.222 10.2909 100.657 10.5504ZM192.268 51.7692C191.913 51.7785 191.639 51.7856 191.338 51.7935C191.566 51.3202 191.566 51.3202 192.268 51.7692ZM108.175 51.7677C107.875 51.7756 107.629 51.782 107.191 51.7935C107.538 51.5619 107.752 51.445 108.046 51.2593C108.082 51.4808 108.115 51.6135 108.175 51.7677ZM6.97567 40.0636C6.92362 40.1317 6.8707 40.1776 6.81865 40.2457C6.68016 40.2048 6.5152 40.1869 6.40318 40.1231C6.29204 40.0815 6.2056 39.9725 6.12092 39.9079C6.17385 39.862 6.22678 39.8162 6.25236 39.771C6.50199 39.8535 6.72516 39.9589 6.97567 40.0636ZM200.245 51.36C200.058 51.4762 199.953 51.5902 199.817 51.616C199.736 51.6404 199.649 51.5092 199.538 51.4676C199.616 51.3765 199.694 51.2632 199.801 51.1936C199.882 51.1693 200.023 51.2768 200.245 51.36ZM196.048 51.1361C195.982 51.5384 195.963 51.7392 195.944 51.9622C195.746 51.8116 195.606 51.7263 195.466 51.6409C195.598 51.5262 195.704 51.4344 196.048 51.1361ZM178.555 51.7944C178.637 51.7922 178.719 51.7901 178.801 51.7879C178.784 52.0554 178.767 52.3229 178.778 52.5897C178.723 52.5911 178.669 52.5925 178.614 52.594C178.576 52.3279 178.565 52.0612 178.555 51.7944ZM136.171 50.879C135.956 50.9736 135.824 51.0883 135.768 51.0675C135.656 51.0037 135.57 50.8947 135.484 50.8079C135.563 50.7391 135.668 50.6251 135.751 50.6452C135.862 50.6868 135.975 50.7728 136.171 50.879ZM68.7318 8.98287C68.9638 9.3106 69.0794 9.46335 69.0503 9.41961C69.0009 9.55442 68.9532 9.7337 68.9047 9.89075C68.8765 9.86923 68.8209 9.84844 68.7927 9.82692C68.7583 9.64979 68.7503 9.44971 68.7318 8.98287ZM109.821 51.146C110.055 51.5404 110.173 51.7377 110.318 51.9564C110.127 51.9614 110.017 51.9643 109.853 51.9686C109.844 51.7463 109.836 51.5462 109.821 51.146ZM48.0541 51.5614C47.8688 51.7221 47.7639 51.8361 47.7092 51.8375C47.5707 51.7966 47.4578 51.7106 47.3722 51.6238C47.344 51.6023 47.501 51.4201 47.5557 51.4187C47.6924 51.4151 47.8318 51.4782 48.0541 51.5614ZM154.037 51.3236C154.347 51.5603 154.487 51.6456 154.573 51.7324C154.658 51.8192 154.664 51.9526 154.76 52.3061C154.449 52.0694 154.309 51.9841 154.224 51.8973C154.165 51.8098 154.16 51.6764 154.037 51.3236ZM62.4811 50.8944C62.6814 50.4219 62.6814 50.4219 63.2821 50.3839C62.9883 50.5696 62.8022 50.708 62.4811 50.8944ZM103.083 51.7452C102.868 51.8399 102.735 51.9546 102.68 51.9338C102.568 51.87 102.481 51.761 102.396 51.6742C102.475 51.6054 102.58 51.4914 102.663 51.5114C102.774 51.553 102.887 51.6391 103.083 51.7452ZM195.547 10.8478C195.629 10.8457 195.711 10.8435 195.793 10.8414C195.776 11.1089 195.76 11.3763 195.77 11.6431C195.716 11.6445 195.661 11.646 195.606 11.6474C195.568 11.3813 195.558 11.1146 195.547 10.8478ZM166.773 51.502C166.889 51.677 167.03 51.7846 167.004 51.8297C166.926 51.9208 166.792 51.9911 166.685 52.0606C166.6 51.9961 166.46 51.9108 166.485 51.8434C166.509 51.7537 166.615 51.6619 166.773 51.502ZM170.31 50.9643C170.426 51.1393 170.567 51.2469 170.542 51.2921C170.463 51.3831 170.329 51.4534 170.222 51.523C170.138 51.4584 169.998 51.3731 170.022 51.3057C170.046 51.216 170.152 51.1242 170.31 50.9643Z" fill="#F2800D"/>
<path d="M156.146 5.75961C155.689 5.97186 155.252 5.29345 154.918 5.85852C154.604 5.53294 154.199 5.67706 153.733 5.667C153.823 5.8427 153.912 6.0184 153.946 6.19553C153.98 6.37266 153.96 6.55122 154.132 6.747C154.182 6.63441 154.206 6.54478 154.308 6.34184C154.472 6.33754 154.717 6.30887 154.962 6.28019C154.991 6.32394 154.993 6.3684 155.022 6.41214C154.861 6.48313 154.699 6.55412 154.27 6.76565C155.063 6.74488 155.611 6.7528 156.129 6.71696C156.866 6.65317 157.501 6.79232 158.065 7.20038C158.206 7.30796 158.454 7.34597 158.648 7.42988C158.568 7.47649 158.516 7.54462 158.437 7.61346C158.58 7.76549 158.695 7.91824 158.866 8.09179C159.08 7.95268 159.213 7.86018 159.32 7.79063C159.515 7.87454 159.709 7.93621 160.042 8.06101C159.971 7.64006 159.449 7.58697 159.462 7.23056C159.812 7.08787 160.189 6.92224 160.646 6.73222C160.13 6.14488 159.672 5.6228 159.214 5.12295C159.161 5.16884 159.054 5.23839 158.949 5.33018C158.889 5.19823 158.829 5.06628 158.768 4.9121C158.385 4.92212 158.002 4.93214 157.537 4.94431C157.517 5.12287 157.47 5.32438 157.424 5.54811C157.205 5.55384 156.987 5.55958 156.713 5.56673C156.679 5.38961 156.615 5.16873 156.579 4.94714C156.442 4.95072 156.306 4.9543 156.087 4.96003C156.126 5.24831 156.136 5.51508 156.146 5.75961Z" fill="#F2800D"/>
<path d="M163.943 5.6445C163.419 5.54695 162.8 5.80794 161.96 5.34035C162.247 5.66665 162.333 5.77566 162.447 5.88395C162.561 5.99224 162.674 6.10052 162.957 6.31567C162.3 6.33285 161.863 6.34431 161.425 6.35576C161.432 6.53361 161.436 6.62253 161.442 6.77815C161.962 6.76455 162.454 6.75166 163.001 6.73734C163.013 7.04857 163.024 7.31534 163.038 7.67103C162.6 7.68248 162.19 7.69322 161.753 7.70468C161.754 7.74914 161.756 7.7936 161.758 7.83806C162.277 7.82446 162.77 7.81157 163.289 7.79797C163.884 7.60437 163.481 7.10309 163.686 6.7639C163.932 6.75746 164.151 6.75173 164.37 6.74601C164.433 6.96688 164.469 7.16624 164.504 7.3656C164.559 7.36417 164.613 7.36274 164.641 7.36202C164.66 7.16123 164.708 6.98195 164.727 6.78116C165.188 6.68006 165.791 6.68654 165.954 6.66002C166.469 6.53526 166.73 6.88451 167.207 7.18357C167.097 6.47434 166.912 5.96732 166.457 5.53416C166.302 5.76077 166.174 5.98666 166.019 6.21326C165.499 6.22686 165.007 6.23975 164.46 6.25407C164.289 6.08052 164.116 5.86251 163.943 5.6445Z" fill="#F2800D"/>
<path d="M35.4966 6.82651C35.3925 6.96276 35.2619 7.12195 35.0802 7.3715C35.5468 7.40379 35.8759 7.41743 36.2331 7.45259C36.3742 7.56016 36.5436 7.68924 36.7694 7.86136C37.177 7.78393 37.7053 7.99263 38.1014 7.6262C38.3802 7.75243 38.6854 7.8557 38.9914 7.98121C39.0444 7.93532 39.1511 7.86576 39.2305 7.79692C39.3999 7.92601 39.5692 8.05511 39.7104 8.16268C40.0359 8.0874 40.3631 8.05657 40.6313 7.91603C40.8192 7.8221 40.9198 7.59692 41.0759 7.39255C39.175 7.08626 37.3428 7.13423 35.4966 6.82651Z" fill="#F2800D"/>
<path d="M215.557 7.38644C215.605 7.20717 215.629 7.11753 215.701 6.87084C215.819 7.09028 215.906 7.22152 215.966 7.33124C216.576 7.5378 216.885 7.04013 217.485 6.97992C217.71 7.12981 218.02 7.36647 218.443 7.68919C218.576 7.57446 218.654 7.48338 218.814 7.36794C218.422 7.15565 218.116 7.03015 217.89 6.8358C217.663 6.64145 217.516 6.40049 217.314 6.13873C217.074 6.30079 216.94 6.37106 216.808 6.4858C216.748 6.35384 216.689 6.24412 216.598 6.02396C216.382 6.09638 216.167 6.19104 215.869 6.28784C215.73 6.22472 215.48 6.14224 215.286 6.08056C214.639 6.32005 214.792 6.73885 214.835 7.11606C215.029 7.17774 215.251 7.26093 215.557 7.38644Z" fill="#F2800D"/>
<path d="M222.976 7.3925C222.963 7.05904 222.948 6.70335 222.931 6.25874C222.446 6.44947 222.069 6.61511 221.611 6.80512C221.228 6.81514 221.094 6.19555 220.554 6.38771C220.312 6.48308 220.127 6.66594 219.888 6.85022C220.307 7.06179 220.615 7.23176 221.062 7.44261C221.581 7.42901 222.292 7.4104 222.976 7.3925Z" fill="#F2800D"/>
<path d="M98.6736 6.77473C98.7609 6.90596 98.8491 7.05943 98.9373 7.21289C98.8023 7.26094 98.6409 7.33193 98.3454 7.47319C99.0625 7.61019 99.643 7.75076 100.333 7.88848C101.01 7.71497 100.352 6.99782 100.859 6.67299C100.439 6.41696 100.153 6.80276 99.7974 6.81207C99.4701 6.84289 99.127 6.47356 98.6736 6.77473Z" fill="#F2800D"/>
<path d="M3.36151 15.1673C3.15952 14.9056 3.01575 14.7313 2.89932 14.5563C2.43445 14.5685 2.02427 14.5792 1.5047 14.5928C1.71373 15.0324 1.97129 15.315 2.49526 15.4125C3.15684 15.5287 3.79283 15.6901 4.45441 15.8063C4.59202 15.825 4.75345 15.754 5.05249 15.7017C4.51179 15.1817 3.9887 15.1064 3.36151 15.1673Z" fill="#F2800D"/>
<path d="M87.541 52.5972C88.1382 52.4703 88.2635 52.1777 88.1691 51.8687C87.8868 51.6535 87.661 51.4814 87.3223 51.2232C86.92 51.434 86.4384 51.7137 85.8756 52.0177C86.1014 52.1898 86.2425 52.2974 86.4119 52.4265C86.6809 52.3082 86.8962 52.2135 87.1379 52.0959C87.309 52.2695 87.4254 52.4445 87.541 52.5972Z" fill="#F2800D"/>
<path d="M171.918 7.2605C172.35 7.11566 172.783 6.99305 173.216 6.84822C173.061 6.40718 172.102 6.36555 172.514 5.7094C172.21 5.65059 171.879 5.57026 171.519 5.46841C171.494 5.53582 171.444 5.6484 171.475 5.73661C171.603 6.22282 171.758 6.68608 171.918 7.2605Z" fill="#F2800D"/>
<path d="M216.267 3.89627C214.839 3.08801 213.651 3.49744 212.488 3.83946C213.661 3.74198 214.806 4.31285 216.267 3.89627Z" fill="#F2800D"/>
<path d="M107.479 5.85433C107.377 6.05727 107.225 6.35056 107.072 6.64385C106.854 6.67181 106.664 6.69906 106.445 6.70479C106.344 6.90773 106.241 7.08843 106.139 7.26914C106.252 7.3552 106.393 7.46277 106.534 7.57034C106.591 6.94574 107.217 6.84035 107.837 6.60158C107.925 6.75505 108.013 6.88628 108.131 7.10573C108.346 7.01108 108.561 6.91643 108.776 6.79955C108.325 6.47754 107.901 6.15482 107.479 5.85433Z" fill="#F2800D"/>
<path d="M249.454 51.1176C248.069 50.7088 246.996 51.271 245.796 51.3692C246.846 51.6087 247.474 51.57 249.454 51.1176Z" fill="#F2800D"/>
<path d="M77.9076 8.43108C76.7212 8.1951 75.5065 8.62747 74.2283 8.1491C74.0731 8.3757 73.8914 8.62526 73.789 8.80596C75.0328 8.41734 76.4945 8.69062 77.9076 8.43108Z" fill="#F2800D"/>
<path d="M145.164 55.3836C144.865 55.4359 144.539 55.5112 144.24 55.5635C144.174 55.2759 144.112 55.0773 144.044 54.7453C143.945 55.0149 143.896 55.1497 143.847 55.3068C143.546 55.3146 143.245 55.3225 142.999 55.329C142.84 55.4666 142.708 55.5814 142.576 55.6961C142.693 55.8933 144.033 55.8582 145.612 55.6389C145.388 55.5112 145.249 55.4481 145.164 55.3836Z" fill="#F2800D"/>
<path d="M140.656 55.5906C140.595 55.4364 140.535 55.3045 140.446 55.1288C140.263 55.3561 140.133 55.5375 139.951 55.7648C140.667 55.8796 141.273 55.975 141.878 56.0482C141.975 55.7341 142.047 55.4652 142.145 55.1733C142.088 55.1303 141.947 55.0227 141.749 54.8721C141.704 55.1181 141.684 55.2966 141.639 55.5426C141.339 55.5727 141.038 55.5806 140.656 55.5906Z" fill="#F2800D"/>
<path d="M95.4203 6.88215C95.4335 7.21561 95.4397 7.37123 95.4468 7.54907C95.834 7.6502 96.2213 7.75134 96.6641 7.87326C96.8149 7.53551 96.9684 7.26444 97.1458 6.90374C96.4886 6.89869 95.9946 7.55699 95.4203 6.88215Z" fill="#F2800D"/>
<path d="M202.348 5.64042C202.34 5.41811 202.34 4.72824 202.34 4.72824C201.78 4.4091 201.174 4.3137 200.252 4.53811C200.692 4.59335 200.937 4.56468 201.05 4.65074C201.275 4.80062 201.394 5.04229 201.592 5.1929C201.762 5.34422 202.012 5.44893 202.348 5.64042Z" fill="#F2800D"/>
<path d="M66.4508 7.37356C66.4534 7.44026 66.4287 7.50767 66.4349 7.66328C67.4511 7.74794 68.432 7.63325 69.5823 7.64764C69.3274 7.43178 69.1862 7.3242 69.0733 7.23815C68.8299 7.31128 68.6755 7.56011 68.3112 7.34711C68.1427 7.24026 67.7131 7.45178 67.4123 7.45966C67.1124 7.48976 66.8081 7.40872 66.4508 7.37356Z" fill="#F2800D"/>
<path d="M73.9636 51.2169C74.3614 51.5848 74.6445 51.8222 74.8721 52.0388C75.1447 52.0094 75.3361 52.0044 75.5548 51.9986C75.6166 51.4852 75.03 51.189 73.9636 51.2169Z" fill="#F2800D"/>
<path d="M88.8916 51.4492C88.7548 51.4528 88.6455 51.4556 88.3447 51.4635C89.0459 51.8902 88.5422 52.304 88.4495 52.7292C88.8871 52.7178 89.2152 52.7092 89.7348 52.6956C89.4499 52.4137 89.2514 52.2409 89.1068 52.0444C88.9903 51.8694 88.9542 51.6478 88.8916 51.4492Z" fill="#F2800D"/>
<path d="M235.666 7.10476C234.962 7.30122 234.354 6.4715 233.675 7.29041C234.331 7.27323 234.96 7.94663 235.666 7.10476Z" fill="#F2800D"/>
<path d="M215.856 4.57465C215.026 4.35159 214.277 4.77178 213.685 4.3422C213.552 4.45694 213.446 4.54872 213.288 4.6864C213.976 4.77966 214.61 4.89658 215.242 4.9468C215.433 4.94179 215.616 4.7367 215.856 4.57465Z" fill="#F2800D"/>
<path d="M241.956 11.1015C242.236 11.2722 242.516 11.4207 242.769 11.5921C243.066 11.473 243.336 11.377 243.605 11.2586C243.576 11.2149 243.572 11.126 243.517 11.1274C243.021 11.0291 242.525 10.9531 242.028 10.8548C242.031 10.9215 242.007 11.0112 241.956 11.1015Z" fill="#F2800D"/>
<path d="M199.529 7.02719C199.781 7.17636 199.922 7.26171 200.062 7.34705C200.319 6.91751 200.64 7.42094 200.937 7.32414C201.067 7.14271 201.168 6.93977 201.323 6.69094C201.185 6.67229 201.046 6.63141 200.938 6.65651C200.531 6.75617 200.152 6.85511 199.529 7.02719Z" fill="#F2800D"/>
<path d="M169.064 7.06819C169.058 6.93481 169.049 6.69027 169.037 6.40127C168.764 6.40843 168.572 6.41344 168.217 6.42275C168.363 6.66371 168.695 6.74404 168.785 6.94196C168.876 7.16212 168.832 7.43032 168.847 7.83047C169.195 7.62109 169.409 7.50421 169.596 7.38805C169.458 7.34717 169.373 7.28262 169.064 7.06819Z" fill="#F2800D"/>
<path d="M43.3006 7.5791C42.8304 7.45789 42.4997 7.39979 42.1406 7.32017C42.0674 7.54463 41.9686 7.81426 41.8707 8.10612C41.9527 8.10397 42.1194 8.16636 42.2006 8.14198C42.5499 7.97706 42.871 7.79063 43.3006 7.5791Z" fill="#F2800D"/>
<path d="M20.686 60C20.9718 59.6142 21.18 59.3417 21.3873 59.047C21.1915 58.9408 20.9674 58.8132 20.6322 58.6439C20.6516 59.133 20.6657 59.4887 20.686 60Z" fill="#F2800D"/>
<path d="M2.99153 47.9789C2.22145 47.8878 1.61633 47.8147 0.845367 47.7013C1.5272 48.3288 2.15879 48.3791 2.99153 47.9789Z" fill="#F2800D"/>
<path d="M12.3415 0C11.6358 0.151998 11.1471 0.253807 10.5499 0.380711C10.6099 0.512663 10.6725 0.711307 10.7272 0.709875C11.3579 0.73787 11.8149 0.525623 12.3415 0Z" fill="#F2800D"/>
<path d="M227.818 6.62037C227.681 6.62395 227.599 6.6261 227.517 6.62825C227.402 7.18759 227.55 7.47301 228.136 7.74697C228.011 7.34969 227.914 6.97391 227.818 6.62037Z" fill="#F2800D"/>
<path d="M1.84953 15.6965C1.64574 16.0801 1.51694 16.2838 1.38902 16.5097C1.74451 16.5004 2.07266 16.4918 2.61957 16.4775C2.33466 16.1956 2.13532 16.0006 1.84953 15.6965Z" fill="#F2800D"/>
<path d="M76.3937 51.7541C76.5534 51.6387 76.7131 51.5232 76.8719 51.3856C76.8163 51.3648 76.7334 51.3447 76.6496 51.3024C76.3982 51.1754 76.1733 51.0255 75.8663 50.8778C75.8778 51.1668 75.8883 51.4336 75.9015 51.767C76.0656 51.7627 76.2297 51.7584 76.3937 51.7541Z" fill="#F2800D"/>
<path d="M73.7821 7.24839C72.9811 7.06907 72.4122 6.52762 71.8952 7.29778C72.4421 7.28347 72.989 7.26915 73.7821 7.24839Z" fill="#F2800D"/>
<path d="M0 38.7997C0.601603 38.784 1.12117 38.7704 1.88685 38.7503C1.13795 38.5029 0.627232 38.0489 0 38.7997Z" fill="#F2800D"/>
<path d="M101.659 6.11797C101.354 6.03693 101.133 5.97597 100.912 5.93723C100.887 5.98241 100.888 6.00464 100.862 6.04982C101.2 6.28576 101.537 6.49948 101.902 6.73471C101.922 6.53392 101.938 6.26643 101.956 6.02118C101.675 5.8505 101.686 6.11726 101.659 6.11797Z" fill="#F2800D"/>
<path d="M232.348 7.65895C232.308 7.32621 232.273 7.14908 232.23 6.74964C231.859 7.04867 231.646 7.21001 231.275 7.50903C231.716 7.5865 231.935 7.603 232.348 7.65895Z" fill="#F2800D"/>
<path d="M129.147 55.9809C129.152 56.1143 129.155 56.2032 129.16 56.3144C129.661 56.5238 129.955 56.3381 130.268 55.9516C129.83 55.963 129.502 55.9716 129.147 55.9809Z" fill="#F2800D"/>
<path d="M1.45099 40.186C1.84263 40.3983 2.15136 40.5905 2.57035 40.802C2.56154 40.5797 2.58096 40.3789 2.57216 40.1566C2.18932 40.1666 1.86117 40.1752 1.45099 40.186Z" fill="#F2800D"/>
<path d="M104.134 10.5707C103.962 11.0647 104.138 11.3494 104.77 11.4219C105.212 10.8317 104.041 10.9737 104.134 10.5707Z" fill="#F2800D"/>
<path d="M85.7423 53.49C86.1798 53.4785 86.4806 53.4706 86.7541 53.4635C86.8599 53.3717 86.8599 53.3717 86.1816 52.8331C86.0528 53.0368 85.9231 53.2182 85.7423 53.49Z" fill="#F2800D"/>
<path d="M147.657 6.36019C147.781 6.04538 147.855 5.84316 147.977 5.46166C147.685 5.69184 147.605 5.76068 147.552 5.80657C147.33 5.72338 147.163 5.66098 146.997 5.59859C146.838 5.73626 146.838 5.73627 147.657 6.36019Z" fill="#F2800D"/>
<path d="M83.0539 7.74001C82.7602 7.92573 82.5193 8.06556 82.1727 8.29717C83.135 8.4055 83.135 8.4055 83.0539 7.74001Z" fill="#F2800D"/>
<path d="M83.7534 8.12226C84.0816 8.11367 84.4097 8.10508 84.7652 8.09577C84.7599 7.96239 84.7555 7.85124 84.7476 7.65117C84.37 7.79457 84.0454 7.89208 83.749 8.01111C83.7508 8.05557 83.7517 8.0778 83.7534 8.12226Z" fill="#F2800D"/>
<path d="M5.38328 15.7598C5.82081 15.7483 6.12161 15.7404 6.4771 15.7311C6.35891 15.5117 6.24249 15.3367 6.15252 15.1388C5.91346 15.3231 5.70174 15.5066 5.38328 15.7598Z" fill="#F2800D"/>
<path d="M0.337565 43.1749C-0.0823514 43.6309 -0.0823514 43.6309 0.808559 44.0082C0.632156 43.7012 0.514848 43.504 0.337565 43.1749Z" fill="#F2800D"/>
<path d="M90.7024 52.9373C90.7112 53.1596 90.7192 53.3597 90.728 53.582C90.8929 53.5999 91.0023 53.597 91.1946 53.6143C91.1858 53.3919 91.1788 53.2141 91.1691 52.9696C91.0032 52.9294 90.8392 52.9337 90.7024 52.9373Z" fill="#F2800D"/>
<path d="M63.7841 7.77719C64.0532 7.65887 64.2684 7.56422 64.5366 7.42368C64.2852 7.29674 64.0885 7.16837 63.7533 6.99911C63.7674 7.3548 63.7762 7.57711 63.7841 7.77719Z" fill="#F2800D"/>
<path d="M152.452 7.8814C152.89 7.86995 153.3 7.85921 153.738 7.84775C153.29 7.61467 152.856 7.71505 152.452 7.8814Z" fill="#F2800D"/>
<path d="M95.1474 53.8891C95.5849 53.8776 95.9951 53.8669 96.7334 53.8476C95.9854 53.6223 95.5514 53.7227 95.1474 53.8891Z" fill="#F2800D"/>
<path d="M95.2562 7.57632C94.6317 7.70394 94.3362 7.84519 94.4129 8.39953C94.6246 8.21596 94.7578 8.12346 94.8636 8.03167C94.9686 7.91765 95.0736 7.80364 95.2562 7.57632Z" fill="#F2800D"/>
<path d="M148.377 54.9434C148.013 54.7526 147.817 54.6242 147.509 54.4543C147.463 54.678 147.44 54.7899 147.392 54.9692C147.693 54.9613 147.939 54.9548 148.377 54.9434Z" fill="#F2800D"/>
<path d="M134.794 5.76228C134.801 5.9179 134.803 5.98459 134.809 6.11797C135.164 6.10867 135.547 6.09864 136.203 6.08146C135.567 5.92008 135.209 5.8627 134.794 5.76228Z" fill="#F2800D"/>
<path d="M145.802 5.16253C145.615 5.27869 145.401 5.39557 145.079 5.55978C145.33 5.66449 145.496 5.72689 145.664 5.81152C145.741 5.67598 145.842 5.47304 145.944 5.29233C145.914 5.22635 145.859 5.20556 145.802 5.16253Z" fill="#F2800D"/>
<path d="M236.842 7.76384C236.581 7.4146 236.465 7.23962 236.291 6.99937C236.133 7.15928 236.028 7.25107 235.87 7.41098C236.12 7.51569 236.37 7.59817 236.842 7.76384Z" fill="#F2800D"/>
<path d="M78.2931 8.48776C78.6213 8.47917 78.9494 8.47058 79.3049 8.46127C79.3031 8.41681 79.3014 8.37235 79.2996 8.32789C78.9706 8.31425 78.6416 8.3006 78.2861 8.30991C78.2878 8.35437 78.2905 8.42107 78.2931 8.48776Z" fill="#F2800D"/>
<path d="M125.745 6.73358C125.642 6.91429 125.565 7.02759 125.569 7.13874C125.572 7.20544 125.795 7.31086 125.821 7.28792C125.928 7.21836 126.034 7.12658 126.084 7.01399C126.083 6.96953 125.915 6.8849 125.745 6.73358Z" fill="#F2800D"/>
<path d="M193.108 4.54713C193.121 4.88059 193.128 5.05844 193.137 5.28074C193.589 4.95734 193.589 4.95734 193.108 4.54713Z" fill="#F2800D"/>
<path d="M4.44367 45.2482C4.5892 45.467 4.70563 45.6419 4.9085 45.9259C4.95174 45.6355 4.97116 45.4347 5.0144 45.1443C4.71536 45.1966 4.55217 45.2231 4.44367 45.2482Z" fill="#F2800D"/>
<path d="M204.393 4.74123C204.804 4.75272 205.051 4.76851 205.326 4.78359C205.32 4.62797 205.314 4.49459 205.308 4.33897C205.039 4.45729 204.796 4.55265 204.393 4.74123Z" fill="#F2800D"/>
<path d="M88.015 7.20956C88.4569 7.30926 88.6227 7.34942 88.7612 7.3903C88.8724 7.4319 88.9297 7.49716 89.07 7.5825C89.0911 7.42617 89.115 7.33653 89.1361 7.1802C88.8627 7.18736 88.5892 7.19452 88.015 7.20956Z" fill="#F2800D"/>
<path d="M192.291 7.43922C192.477 7.2786 192.61 7.18609 192.608 7.14163C192.549 7.03191 192.436 6.94585 192.324 6.88203C192.296 6.86051 192.082 6.99962 192.084 7.04408C192.089 7.15524 192.175 7.26424 192.291 7.43922Z" fill="#F2800D"/>
<path d="M199.716 6.91103C199.682 6.7339 199.834 6.4406 199.398 6.47429C199.316 6.47644 199.183 6.59117 199.186 6.65786C199.146 7.03722 199.497 6.89452 199.716 6.91103Z" fill="#F2800D"/>
<path d="M111.134 8.98541C111.142 9.18549 111.146 9.27441 111.151 9.4078C111.424 9.40064 111.643 9.39491 112.081 9.38345C111.691 9.21563 111.468 9.13244 111.134 8.98541Z" fill="#F2800D"/>
<path d="M230.055 7.11814C229.952 7.29885 229.875 7.41216 229.879 7.52331C229.882 7.59 230.105 7.69543 230.131 7.67248C230.238 7.60292 230.344 7.51114 230.394 7.39855C230.393 7.35409 230.225 7.26946 230.055 7.11814Z" fill="#F2800D"/>
<path d="M203.483 3.87492C203.811 3.86633 204.139 3.85775 204.495 3.84844C204.493 3.80398 204.491 3.75951 204.49 3.71505C204.161 3.70141 203.831 3.68777 203.503 3.69636C203.478 3.74154 203.48 3.80823 203.483 3.87492Z" fill="#F2800D"/>
<path d="M11.467 5.56407C11.2447 5.48087 11.1053 5.41776 10.9686 5.42134C10.8866 5.42349 10.7569 5.60491 10.7851 5.62642C10.8707 5.7132 10.9836 5.79926 11.1221 5.84014C11.1768 5.83871 11.2809 5.70246 11.467 5.56407Z" fill="#F2800D"/>
</svg>
