<svg width="156" height="60" viewBox="0 0 156 60" fill="none" xmlns="http://www.w3.org/2000/svg">
<path d="M130.784 7.41401C130.852 7.56676 130.904 7.72023 130.989 7.91672C130.832 8.10173 130.676 8.28673 130.503 8.45022C130.601 8.49039 130.698 8.53055 130.812 8.59223C130.447 8.80877 130.269 9.41759 129.782 9.1723C129.681 8.99875 129.58 8.78075 129.496 8.60648C129.289 8.70471 129.13 8.77856 128.955 8.85313C128.903 8.67743 128.868 8.54548 128.833 8.41353C128.236 8.2844 127.601 8.60204 126.935 8.2757C126.877 8.54533 126.804 8.83791 126.746 9.12977C126.645 8.91176 126.528 8.69447 126.444 8.54243C126.027 8.58328 126.367 9.39149 125.886 9.41297C125.881 9.21289 125.877 9.03505 125.871 8.76829C125.776 8.83927 125.729 8.86365 125.681 8.88803C125.634 8.91241 125.587 8.98125 125.555 8.98268C125.409 8.92243 125.181 8.75461 125.149 8.8005C125.011 9.07371 124.91 8.8557 124.781 8.81697C124.345 8.70291 123.883 8.85705 123.52 9.14029C123.11 9.4479 122.785 9.28437 122.427 9.10005C122.363 9.08068 122.342 8.88133 122.274 8.70635C122.017 8.7178 121.728 8.73069 121.424 8.74429C121.332 8.94866 121.241 9.17526 121.119 9.46999C120.73 9.30932 120.389 9.12428 120.017 9.00737C119.645 8.89045 119.259 8.84094 118.823 8.74912C118.806 8.70537 118.771 8.57342 118.736 8.4637C118.205 8.42063 118.205 8.42063 117.846 8.85948C117.828 8.74904 117.809 8.63861 117.773 8.4622C117.466 8.38688 117.113 8.40263 116.794 8.48364C116.523 8.54027 116.388 8.99132 116.106 9.27098C116.067 8.96118 116.03 8.76254 116.009 8.56318C115.993 8.54167 115.96 8.49863 115.96 8.49863C115.897 8.56819 115.804 8.70587 115.804 8.70587C115.49 8.31932 115.144 8.6463 114.788 8.52867C114.794 8.7732 114.798 8.92882 114.804 9.19559C114.628 9.22569 114.484 9.25437 114.308 9.28447C114.303 9.06217 114.283 8.88504 114.279 8.70719C113.954 8.54366 113.656 8.17863 113.28 8.57374C113.249 8.61963 113.133 8.46903 113.053 8.45038C112.554 8.40588 112.075 8.51628 111.67 9.0462C111.585 8.82747 111.533 8.67401 111.481 8.52054C111.419 8.59009 111.372 8.65893 111.325 8.72777C111.204 8.35486 110.922 8.65675 110.773 8.44089C110.574 8.16048 110.521 8.67465 110.31 8.5728C110.131 8.46953 109.893 8.56918 109.652 8.57992C109.657 8.78 109.661 8.95784 109.668 9.24684C109.313 9.17367 109.007 9.14281 108.7 9.06749C108.506 9.00939 108.323 8.70604 108.118 8.89319C107.93 9.0574 107.835 8.46074 107.668 8.84654C107.652 8.86949 107.621 8.89315 107.621 8.89315C107.151 8.02397 106.72 8.82209 106.146 8.98125C106.112 8.89376 106.043 8.69655 106.009 8.60906C105.364 8.50431 104.794 8.81909 104.316 8.28408C104.362 8.21524 104.408 8.12417 104.47 8.03238C104.389 7.9915 104.308 7.97285 104.179 7.93412C104.168 8.15714 104.141 8.35864 104.129 8.55944C104.082 8.58381 104.035 8.65266 104.003 8.63186C103.696 8.57877 103.397 8.81468 103.084 8.47259C102.935 8.30119 102.757 8.93224 102.475 8.54426C102.343 8.37214 102.056 8.45172 101.837 8.68405C101.695 8.82387 101.375 8.86042 101.228 8.73348C100.916 8.45809 100.614 8.58285 100.309 8.57422C100.068 8.56273 99.8277 8.5957 99.5872 8.60644C99.3466 8.61718 99.0755 8.69604 98.8955 8.5483C98.6338 8.33745 98.5178 8.87671 98.2721 8.66514C98.1573 8.559 97.9964 8.54392 97.835 8.50662C97.6575 8.47004 97.4149 8.39186 97.3052 8.50802C97.0404 8.85365 96.746 8.622 96.5236 8.72095C96.3911 8.54883 96.2918 8.41974 96.209 8.31217C96.0207 8.49861 95.8484 8.68432 95.6756 8.84781C95.7274 9.00128 95.763 9.15546 95.8494 9.41865C95.6218 9.29529 95.4915 9.2121 95.3451 9.12962C95.3901 8.99408 95.4351 8.85855 95.4946 8.65561C95.2188 8.5344 94.9757 8.43399 94.732 8.31134C94.672 8.49205 94.627 8.62758 94.537 8.89865C94.4201 8.70358 94.3363 8.55155 94.252 8.37728C94.1557 8.38158 94.0274 8.38731 93.8831 8.39375C93.8696 8.50562 93.8562 8.61748 93.8288 8.81899C93.7005 8.82472 93.5411 8.87634 93.4113 8.81538C93.298 8.77593 93.1826 8.64756 93.0838 8.5407C92.8531 8.28396 92.6622 8.35924 92.4289 8.68121C92.313 8.53061 92.1971 8.38 92.0813 8.2294C91.9545 8.30182 91.6865 8.51406 91.6363 8.42729C91.3875 8.08234 91.0662 8.76429 90.8459 8.26229C90.8174 8.41934 90.7879 8.53193 90.7429 8.66746C90.3797 8.92846 89.9669 8.43505 89.5737 8.78641C89.5386 8.65446 89.5034 8.52251 89.4682 8.39056C89.4356 8.36976 89.3865 8.32744 89.3384 8.32959C89.2095 8.31309 89.0647 8.2973 88.9374 8.34749C88.2856 8.62138 88.2856 8.62138 87.6447 7.98238C88.1894 7.93581 88.67 7.89211 89.1506 7.8484C89.1496 7.80394 89.1485 7.75947 89.1475 7.71501C88.6503 7.7372 88.1532 7.7594 87.624 7.78302C87.565 8.00819 87.4915 8.30077 87.433 8.54817C86.8422 8.68581 86.3151 8.79836 85.8045 8.93243C85.6384 8.69505 85.4724 8.45767 85.3394 8.26332C85.1185 8.42896 84.9923 8.52361 84.834 8.6197C84.8391 8.842 84.8448 9.08654 84.8515 9.37554C84.5468 9.38914 84.2581 9.40203 83.9695 9.41491C83.8686 9.21913 83.7507 8.9796 83.5996 8.69705C83.4278 8.905 83.3032 9.06635 83.1469 9.25135C83.0797 9.12083 82.9964 8.99103 82.9116 8.79453C82.8019 8.91069 82.7393 8.98025 82.6606 9.05052C82.4175 8.95011 82.1904 8.84897 81.9638 8.77007C81.9447 8.6374 81.9266 8.5492 81.908 8.43876C81.6865 8.58217 81.6012 9.05331 81.3244 8.88764C81.1128 8.76356 80.8236 8.75422 80.7605 8.11168C80.655 8.40569 80.5955 8.60863 80.4894 8.88041C80.3699 8.57419 80.3182 8.42072 80.267 8.28948C80.0238 8.87893 79.4863 9.23674 78.9819 8.9477C78.7383 8.82506 78.5303 8.8566 78.3042 8.79993C78.0781 8.74326 77.85 8.59767 77.642 8.6292C77.3699 8.6636 77.1408 8.47355 76.8992 8.43983C76.6576 8.40611 76.3725 8.57461 76.1925 8.42688C75.9799 8.25834 75.746 8.55807 75.5629 8.27694C75.5132 8.2124 75.2934 8.4225 75.149 8.42895C75.0212 8.45691 74.8914 8.39594 74.73 8.35864C74.7176 8.51497 74.7062 8.71576 74.6808 9.00619C74.5505 8.92299 74.4532 8.88283 74.403 8.79605C74.3032 8.64473 74.2504 8.44681 74.1997 8.3378C73.8831 8.52996 73.6296 8.67481 73.3446 8.84331C73.2753 8.62387 73.2401 8.49191 73.1878 8.31621C73.0611 8.38863 72.8723 8.55284 72.8391 8.50981C72.64 8.2294 72.5319 8.41226 72.3756 8.59727C72.2659 8.71343 72.1066 8.76505 71.9483 8.86113C71.8164 8.71125 71.6845 8.56136 71.536 8.38996C71.4574 8.46023 71.3617 8.48676 71.3472 8.55416C71.1237 9.29852 70.6772 9.42971 70.1619 9.3637C70.0062 8.88107 69.6896 9.76309 69.5484 9.21305C69.3073 9.20156 69.0823 9.18936 68.8572 9.17715C68.7414 9.02655 68.642 8.89746 68.5924 8.83292C68.2442 9.04874 67.9116 9.24162 67.5794 9.45673C67.4925 9.17131 67.4056 8.8859 67.3177 8.55602C67.1625 8.78548 67.0533 8.92388 66.9442 9.06228C66.8785 8.99845 66.8283 8.91168 66.7791 8.86936C66.5567 8.96831 66.3503 9.06653 66.1759 9.16333C66.0424 8.94675 66.0968 8.52151 65.7496 8.7818C65.8205 9.06793 65.8764 9.39924 65.9829 9.83956C65.7889 9.78146 65.6761 9.76424 65.4656 9.68462C65.387 9.75489 65.1971 9.87464 65.0398 10.0152C64.73 9.80648 64.8008 9.40275 64.8097 9.0908C64.5965 8.90003 64.3999 8.73078 64.2194 8.56081C63.7527 9.20475 63.4077 8.17423 62.9628 8.37212C62.715 8.7615 62.5836 9.3237 62.0859 9.32366C62.1537 9.47641 62.2044 9.58542 62.2545 9.6722C62.2069 10.3864 61.7015 10.0529 61.4656 10.2638C61.5261 10.7951 61.7418 11.0971 62.0822 11.2376C62.1132 11.1918 62.1758 11.1222 62.269 10.9845C62.4531 11.3101 62.897 11.0678 63.0429 11.8179C63.0853 11.5712 63.1138 11.4141 63.1557 11.1452C63.1055 11.0584 62.9224 10.7773 62.7387 10.474C63.2318 10.2739 63.7093 10.0968 64.2504 9.89465C64.478 10.018 64.8029 10.1815 65.1929 10.3867C65.0507 10.482 64.9079 10.5552 64.8127 10.6039C64.9368 11.1102 65.0248 11.4401 65.1143 11.8367C65.1929 11.7664 65.2881 11.7176 65.3672 11.6696C65.1639 11.2113 65.4423 10.7538 65.3 10.1593C65.8049 10.4706 66.1837 9.4968 66.6177 10.2118C66.7589 10.072 66.8531 9.97874 67.0103 9.8382C67.0626 10.0139 67.0978 10.1458 67.1495 10.2993C67.493 10.5733 67.9627 10.0627 68.3435 10.5576C68.3725 10.4228 68.4014 10.2879 68.4444 10.0635C68.6068 10.1452 68.7527 10.2055 68.9638 10.3073C69.0088 10.1718 69.0372 10.0148 69.0667 9.90217C69.5183 9.99328 69.9772 10.3956 70.3958 9.75383C70.9208 10.2422 71.6436 9.5646 72.1764 10.3865C72.2048 10.2294 72.2343 10.1168 72.2633 9.982C73.3621 9.59915 74.4661 10.1285 75.5701 9.96791C75.6063 10.1443 75.6249 10.2548 75.6782 10.4749C75.8168 10.2239 75.9084 10.0196 76.0155 9.79225C76.3238 9.93426 76.6451 9.94217 77.046 9.92427C77.8153 9.86768 78.6016 9.85483 79.3714 9.82046C79.4516 9.81688 79.5323 9.83553 79.5815 9.87784C79.941 10.1511 80.2752 10.0249 80.6218 9.74239C80.7537 9.89227 80.8862 10.0644 81.0838 10.2781C81.1598 10.0967 81.2048 9.96116 81.2809 9.77973C81.2969 9.77902 81.3756 9.70874 81.4402 9.7281C81.748 9.84788 82.0595 10.1233 82.3544 9.6873C82.8841 9.6859 83.3709 9.90896 83.7563 10.6039C83.7791 10.2023 83.7884 9.91257 83.8127 9.57768C84.1842 9.67237 84.1619 10.0962 84.3124 10.3565C84.1702 10.4519 84.0594 10.5236 83.8385 10.6892C84.1112 10.677 84.3057 10.7574 84.3833 10.6426C84.5075 10.4591 84.5649 10.1672 84.701 9.80508C85.1019 9.78718 85.599 9.76498 86.0962 9.74279C86.478 10.2821 87.0238 9.59011 87.4216 10.1287C87.4506 9.99388 87.4795 9.85906 87.5235 9.67907C87.7812 9.71208 88.0548 9.74437 88.4407 9.77165C88.4573 9.79316 88.5732 9.94377 88.6389 10.0076C88.9415 9.90507 89.196 9.80469 89.5302 9.6785C89.628 9.7409 89.8075 9.8664 89.987 9.99191C90.0181 9.94602 90.0952 9.80906 90.1278 9.82986C90.4526 9.99339 90.837 9.95397 91.0548 10.3448C91.1945 10.1383 91.3497 9.90883 91.4894 9.70231C91.8298 9.84289 92.0874 9.8759 92.3 10.0444C92.4966 10.2137 92.6761 9.64933 92.8789 10.0854C92.9974 10.3471 93.3041 10.4224 93.6963 10.7165C93.5607 10.411 93.5266 10.3235 93.4754 10.1922C93.5219 10.1234 93.5835 10.0094 93.6456 9.9176C93.776 10.0008 93.9058 10.0618 94.0688 10.1658C94.09 10.3873 94.0956 10.6319 94.1168 10.8535C94.4252 10.9955 94.718 11.1604 95.0263 11.3025C95.1851 11.2286 95.3595 11.1318 95.5659 11.0336C95.4355 10.9504 95.3377 10.888 95.1587 10.7847C95.3129 10.5108 95.4516 10.2598 95.5442 10.0999C95.9425 9.97084 96.2617 9.88983 96.5965 9.78587C96.6311 9.89559 96.6663 10.0275 96.7185 10.2032C97.2152 9.46895 97.7366 9.80173 98.2746 10.156C98.4635 9.99182 98.6523 9.82762 98.8887 9.63903C99.1815 9.80399 99.4914 10.0127 99.8334 10.22C99.8489 10.197 99.927 10.1045 100.052 9.9654C100.171 10.2272 100.256 10.4459 100.341 10.6646C100.268 10.9794 100.211 11.2713 100.124 11.6535C99.7045 11.5832 99.2855 11.5129 98.8344 11.444C98.7888 11.5573 98.7443 11.7151 98.6998 11.8728C98.2948 11.7129 97.8897 11.5529 97.4846 11.393C97.5938 11.2546 97.7035 11.1384 97.9534 10.838C97.6 10.8315 97.391 10.8186 97.1665 10.8286C97.1732 11.1176 97.1794 11.3844 97.1846 11.6067C96.7935 12.047 96.4572 11.3944 96.1241 11.565C95.8069 11.7349 95.4867 11.7715 95.151 11.831C94.8152 11.8905 94.48 11.2823 94.1561 11.8531C93.7226 11.8502 93.5017 11.326 93.1587 11.0743C93.1934 11.184 93.2436 11.2708 93.2782 11.3805C93.2146 11.4056 93.152 11.4751 93.1194 11.4543C92.8897 11.2421 92.6756 11.0068 92.314 10.6447C92.4034 11.0412 92.4888 11.26 92.4769 11.4385C92.465 11.6171 92.3408 11.8007 92.2803 11.9591C92.0371 11.8587 91.8105 11.7798 91.5674 11.6794C91.5643 11.546 91.5602 11.3682 91.5571 11.2348C91.4577 11.1057 91.375 10.9981 91.2757 10.869C91.2312 11.0268 91.1862 11.1623 91.1116 11.4105C90.9953 11.2376 90.912 11.1078 90.779 10.9135C90.6869 11.0956 90.5948 11.2777 90.5178 11.4147C90.3424 11.467 90.183 11.5187 89.9601 11.5954C89.9394 11.396 89.9027 11.1974 89.882 10.998C89.8499 10.9994 89.7852 10.9801 89.7697 11.003C89.6766 11.1407 89.5669 11.2569 89.4903 11.4161C89.3843 11.6879 89.3439 12.0235 89.2047 12.2522C89.0811 12.458 88.8747 12.5562 88.6858 12.7204C88.6662 12.5655 88.6295 12.3669 88.5927 12.1683C88.3988 12.1102 88.2208 12.0513 88.0102 11.9717C87.9952 12.0169 87.9818 12.1288 87.9538 12.308C87.8421 12.3353 87.6978 12.3417 87.5058 12.3726C87.5648 12.1474 87.6248 11.9667 87.6988 11.6963C87.9073 11.687 88.1639 11.6756 88.4205 11.6641C88.4189 11.5974 88.4179 11.553 88.4164 11.4863C88.2555 11.4712 88.1106 11.4554 87.9497 11.4403C87.7573 11.4489 87.5809 11.4568 87.3403 11.4675C87.3305 11.735 87.3212 12.0247 87.2958 12.3152C87.2472 12.2951 87.183 12.298 87.1825 12.2757C87.1758 11.9867 87.0998 11.4783 86.9414 11.5744C86.6404 11.7436 86.5835 11.3678 86.4055 11.309C86.2115 11.2509 85.988 11.3054 85.7314 11.3168C85.704 11.5183 85.6926 11.7191 85.6667 11.9873C85.4567 11.9299 85.2457 11.8281 85.0367 11.8152C84.8277 11.8023 84.9725 11.1282 84.6264 11.4329C84.6626 11.6093 84.7149 11.785 84.719 11.9629C84.7195 11.9851 84.5922 12.0353 84.4655 12.1077C84.4251 11.7535 84.4024 11.4652 84.3621 11.1109C84.1799 11.5641 84.0289 11.9714 83.8773 12.3565C83.6165 12.1901 83.4205 12.0431 83.2084 11.8968C83.1153 12.0345 83.0061 12.1729 82.913 12.3105C82.4603 12.175 82.0232 12.0165 81.6026 11.8795C81.6285 11.6113 81.6544 11.3431 81.6942 10.9852C81.1681 11.1422 81.198 11.7418 80.9844 12.2186C80.9466 11.9755 80.9104 11.7991 80.8732 11.5782C80.5767 11.2577 80.3962 11.7775 80.1241 11.8119C80.0966 12.0135 80.0858 12.2365 80.0594 12.4824C79.9269 12.3103 79.8437 12.1805 79.7609 12.073C79.6176 12.1239 79.4908 12.1963 79.3625 12.202C79.2663 12.2063 79.182 12.032 79.0863 12.0586C78.3662 12.1575 78.3181 12.1596 77.9042 11.6217C77.8711 11.5787 77.8214 11.5142 77.7552 11.4281C77.6481 11.6554 77.5571 11.882 77.4495 12.0871C77.2332 11.763 77.2514 11.1613 76.7822 11.0042C76.6787 11.3872 76.5907 11.7471 76.4577 12.2427C76.3372 11.892 76.2337 11.5851 76.1469 11.2996C75.943 11.509 75.9218 11.9773 75.6197 12.102C75.5239 12.1286 75.4283 12.1551 75.3336 12.2261C75.0816 12.4376 74.823 11.6703 74.5793 12.2375C74.2906 12.2504 73.9864 12.2862 73.6973 12.2769C73.569 12.2826 73.4546 12.1987 73.3413 12.1592C73.0816 12.0373 72.8406 12.0258 72.6543 12.3012C72.4748 12.1757 72.2953 12.0502 72.0827 11.8816C72.0201 11.9512 71.9414 12.0215 71.8157 12.1383C71.795 11.939 71.7588 11.7626 71.7382 11.5632C71.6719 11.4771 71.3739 11.7797 71.2839 12.0508C71.0594 12.0608 70.8328 11.9819 70.659 12.101C70.2793 12.3405 70.0035 12.2192 69.7521 11.7631C69.4334 11.8664 69.1235 12.3475 68.7738 11.8068C68.7294 11.9646 68.7004 12.0994 68.6714 12.2342C68.6238 12.2586 68.5767 12.3052 68.5281 12.2851C68.3662 12.2256 68.2037 12.1438 68.0258 12.085C67.7511 12.0082 67.4365 12.2893 67.2032 11.9214C66.9694 12.2212 66.7138 12.2771 66.4345 12.0003C66.2627 12.2082 66.0144 11.8855 65.8607 12.1816C65.5488 11.884 65.2141 11.988 64.8773 12.003C64.6047 12.0152 64.3486 12.0489 64.0754 12.0388C63.8183 12.028 63.5804 12.1499 63.3176 11.8946C63.1536 11.7462 62.8168 11.7612 62.6274 11.9032C62.1225 12.2818 61.6036 12.0601 60.9973 12.2207C60.9673 12.3111 60.8913 12.4925 60.7531 12.7657C60.7128 12.4115 60.6755 12.1906 60.6564 12.0579C60.4567 11.7553 60.3745 12.3598 60.1758 12.1016C60.093 11.9941 59.8851 12.0256 59.7247 12.0328C59.5317 12.0191 59.3559 12.0492 59.1634 12.0578C59.0641 11.9287 58.9808 11.7989 58.8815 11.6698C58.66 11.8132 58.4557 12.0004 58.2327 12.0771C58.0097 12.1538 57.7682 12.1201 57.5116 12.1316C57.7397 11.5873 58.0879 11.3715 58.4531 11.1994C58.5509 11.2618 58.6652 11.3457 58.7635 11.4303C58.8898 11.3357 58.9839 11.2424 59.0781 11.1492C59.1929 11.2554 59.2746 11.3185 59.3569 11.4038C59.5933 11.2152 59.8463 11.0482 60.1303 10.8352C60.2354 10.519 60.3704 10.1124 60.5204 9.66059C60.3906 9.59963 60.2933 9.55947 60.2447 9.53938C60.1061 9.1005 59.968 8.68384 59.8133 8.24567C59.5086 8.25928 59.252 8.27073 58.9633 8.28362C59.0958 8.45573 59.2277 8.60562 59.3932 8.82077C58.9959 8.99428 58.6886 9.58659 58.3498 8.82284C58.5386 8.65864 58.7269 8.4722 58.9633 8.28362C58.9721 7.97167 58.8138 8.06775 58.6855 8.07348C58.012 8.10355 57.3544 8.13291 56.6809 8.16297C56.5738 8.39029 56.4667 8.61761 56.3601 8.86716C56.0037 8.7273 55.6125 9.16758 55.326 8.57952C55.1547 8.8097 55.014 8.97176 54.8583 9.179C54.7284 9.11804 54.58 8.94663 54.4682 8.97387C54.2447 9.02836 54.0756 8.6576 53.8557 8.86769C53.6514 9.05485 53.4734 8.99603 53.3073 8.75865C53.1216 9.05624 52.9302 9.1093 52.699 8.83032C52.4962 9.08417 52.3187 9.04758 52.1206 8.81163C51.7977 9.42689 51.3141 8.64735 50.955 9.0862C50.7678 9.3171 50.5324 8.86028 50.2804 9.07181C50.0911 9.21378 49.8645 9.13488 49.6203 8.99001C49.4082 8.8437 49.0228 8.83866 48.85 9.00214C48.552 9.30475 48.2442 9.18497 47.94 9.2208C47.6203 9.27958 47.2639 9.13972 46.9949 9.3075C46.7103 9.49823 46.4786 9.19702 46.2401 9.29668C46.0973 9.36982 45.9545 9.44296 45.8112 9.49386C45.7315 9.51967 45.6369 9.59066 45.5877 9.54834C45.1961 9.27653 44.7817 9.40629 44.3637 9.38045C43.9938 9.35245 43.5298 9.41768 43.2458 9.63064C42.969 9.46496 42.7248 9.32009 42.432 9.15513C42.3249 9.38245 42.2494 9.5861 42.1573 9.76824C41.9442 9.57748 41.7967 9.45054 41.4858 9.19737C41.8376 9.13716 42.0145 9.15152 42.1568 9.05615C42.3151 8.96007 42.475 8.93068 42.6353 8.92352C42.5293 8.50543 42.9028 8.68905 42.9437 8.37567C42.5267 8.39428 42.1056 8.23505 41.7787 8.67247C41.6798 8.56561 41.6297 8.47884 41.564 8.41501C41.4708 8.55269 41.3777 8.69036 41.3312 8.7592C41.0575 8.72691 40.8004 8.71614 40.5583 8.66019C40.3327 8.62575 40.1475 8.2557 39.85 8.58053C39.7248 8.71965 39.3989 8.51166 39.1894 8.4765C39.0673 8.749 38.9607 8.99854 38.8386 9.27104C38.5438 9.01716 38.298 8.8056 38.0358 8.57251C37.8816 8.84644 37.7062 8.89878 37.4936 8.73024C37.2805 8.53947 37.0668 8.32647 36.8371 8.11419C36.8299 7.80296 36.8227 7.49173 36.8165 7.22497C36.9412 7.06363 37.0338 6.90371 37.1429 6.76532C37.1259 6.72157 37.0928 6.67855 37.0762 6.65703C36.9815 6.72802 36.8874 6.82123 36.7756 6.84848C36.6478 6.87643 36.519 6.85993 36.3747 6.86637C36.3152 7.06931 36.2391 7.25074 36.1796 7.45368C36.2127 7.49671 36.2629 7.58349 36.3457 7.69106C36.1863 7.74268 36.043 7.79358 35.8516 7.84663C36.0824 8.10337 36.297 8.36084 36.5448 8.66133C36.4522 8.82124 36.3596 8.98115 36.236 9.18695C36.104 9.03706 35.9256 8.95602 35.8733 8.78032C35.7497 8.29626 35.564 7.90398 35.2189 7.56332C35.1429 7.74475 35.0508 7.92689 34.9742 8.08609C34.6975 7.92041 34.4072 7.86661 34.3167 7.42558C33.8268 7.759 33.7146 7.76401 33.0291 7.28277C32.9981 7.32867 32.9515 7.3975 32.8884 7.44483C32.6044 7.65779 32.3395 7.31356 32.0829 7.32502C31.8103 7.33719 31.5625 7.72656 31.2852 7.53865C31.1222 7.43466 31.0751 7.48127 30.9158 7.53289C30.6928 7.60961 30.4331 7.48768 30.0948 7.43602C30.0798 7.4812 30.0353 7.63896 29.9768 7.88636C29.862 7.78021 29.7792 7.67265 29.5651 7.43742C29.6784 7.47687 29.6292 7.43455 29.6137 7.4575C29.0922 7.81458 28.5288 7.75072 28.0115 7.59579C27.5909 7.45879 27.0803 7.59285 26.7156 7.0973C26.6494 7.01124 26.4419 7.06501 26.3307 7.11448C26.2195 7.16395 26.1269 7.32386 26.0648 7.41565C26.1331 7.59063 26.1848 7.7441 26.236 7.87533C25.8118 8.27258 25.4606 7.66515 25.0788 7.81572C25.2438 8.00864 25.3933 8.2245 25.5749 8.43893C25.5371 8.88569 25.2665 8.98679 24.9473 9.0678C25.1108 9.19402 25.2748 9.34247 25.4382 9.4687C25.3762 9.56049 25.2985 9.67522 25.2209 9.78995C25.0544 9.53034 24.8774 9.51598 24.6933 9.88027C24.6555 9.63716 24.6348 9.4378 24.5976 9.21693C24.146 9.12582 23.7186 9.38969 23.2861 9.43125C22.9178 9.46995 22.4046 9.49286 21.9938 9.77824C21.9426 9.647 21.8904 9.47131 21.7875 9.18661C21.7724 9.23178 21.8175 9.09625 21.878 8.93777C21.8454 8.91697 21.7957 8.85243 21.7476 8.85458C21.1863 8.87964 20.624 8.86023 20.0637 8.92975C19.7274 8.96702 19.2619 8.96555 18.9204 8.78051C18.8288 8.98488 18.7538 9.21076 18.6623 9.41513C18.5479 9.33122 18.4165 9.20357 18.401 9.22652C18.2003 9.56928 17.999 9.19995 17.8071 9.23077C17.5671 9.26374 17.326 9.25225 17.0854 9.26299C16.6204 9.28375 16.1801 8.99186 15.7011 9.10226C15.3177 9.18613 14.9282 9.00324 14.5262 8.97668C14.2365 8.9451 14.1186 8.70558 13.9385 8.55784C13.8604 8.65034 13.7818 8.72061 13.6566 8.85972C13.5371 8.5535 13.4347 8.29103 13.3488 8.05008C13.3954 7.98124 13.4109 7.95829 13.4264 7.93535C13.6928 7.65641 13.9996 8.42159 14.2438 7.8766C14.5325 7.86372 14.8367 7.82788 15.1258 7.83722C15.3674 7.87095 15.6106 7.97136 15.8366 8.02803C15.9406 7.66733 16.0302 7.37403 16.1497 6.99039C16.8077 7.67313 17.5583 7.50609 18.1936 7.90055C18.2588 7.94215 18.371 7.93714 18.4342 7.88981C19.0022 7.46389 19.6178 7.70345 20.2247 7.56509C20.2205 7.38725 20.2169 7.23164 20.2107 6.96487C19.9039 6.88955 19.5351 6.90601 19.2257 6.71954C19.0141 6.59546 18.922 6.7776 18.7932 6.7611C18.5682 6.74889 18.3162 6.96042 18.1161 6.63556C17.949 6.35372 17.8025 6.96111 17.6023 6.63624C17.5522 6.54946 17.3442 6.581 17.2325 6.60824C16.8326 6.6706 16.4311 6.66626 16.0421 6.5056C16.026 6.50632 16.0085 6.44034 15.9764 6.44178C15.2237 6.51989 14.4756 6.10821 13.71 6.32042C13.5667 6.37133 13.4404 6.46597 13.3297 6.53767C13.0975 6.21424 12.8657 5.91303 12.6179 5.61254C12.3644 5.75738 12.1901 5.85418 11.9842 5.97464C11.5853 5.3916 10.9826 5.7078 10.5088 5.35064C9.74311 5.56285 9.00904 5.06154 8.24287 5.25152C8.12699 5.10091 7.99508 4.95103 7.89575 4.82194C7.71934 4.82982 7.57501 4.83626 7.41464 4.84342C7.18492 5.321 7.16473 5.83374 7.2242 6.32066C6.86103 6.58167 6.93088 6.13347 6.74931 5.91904C6.591 6.01512 6.40165 6.1571 6.16419 6.30122C6.28214 6.54075 6.34938 6.67127 6.40008 6.78027C6.33074 7.2507 6.1181 7.77202 6.20706 8.14637C6.31516 8.65337 6.24634 9.14602 6.35857 9.83087C6.19459 9.68242 6.12941 9.64082 5.99801 9.51317C5.89091 9.74049 5.75277 10.0137 5.63016 10.264C5.49566 10.0029 5.41031 9.78419 5.30944 9.58841C4.94058 9.60488 4.60432 9.64215 4.25098 9.63567C3.99387 9.6249 3.75589 9.74678 3.4931 9.49147C3.3617 9.36382 3.05751 9.39965 2.86713 9.49716C2.4874 9.73665 2.06991 9.73304 1.67156 9.86209C1.94678 9.96107 2.20596 10.0608 2.59447 10.1992C2.27837 10.4136 2.07299 10.5563 1.88364 10.6983C1.93743 10.9406 2.00726 11.1823 2.06209 11.4692C2.38387 11.4993 2.72168 11.5287 3.15624 11.5761C3.25091 11.5051 3.45578 11.3402 3.69272 11.1738C3.74445 11.3273 3.77911 11.437 3.83135 11.6127C3.99172 11.6056 4.18417 11.597 4.39265 11.5877C4.42008 11.3862 4.43147 11.1854 4.45838 10.9616C4.74705 10.9487 4.86396 11.1438 4.90326 11.4536C4.95861 11.7627 5.01343 12.0495 5.07032 12.4253C4.59127 12.5357 4.12307 13.113 3.58093 12.5808C3.40968 12.811 3.25137 12.9071 3.08325 12.5808C2.94873 13.0096 2.79355 12.5492 2.65025 12.6001C2.36364 12.7019 2.04393 12.7607 1.75784 12.8847C1.51935 12.9844 1.29896 13.1723 1.02529 13.14C0.945108 13.1436 0.853532 13.3479 0.729366 13.5315C1.56537 13.5832 2.28031 13.9518 3.06768 13.9835C3.77487 14.0186 4.46135 14.5443 5.24717 14.5093C5.38012 14.7036 5.53013 14.9417 5.81361 15.3964C5.35992 15.2163 5.10074 15.1166 4.77638 14.9754C4.63618 15.1596 4.44941 15.4128 4.27817 15.6429C4.24506 15.5999 4.1954 15.5354 4.11263 15.4278C4.06814 15.5856 4.02364 15.7433 3.99466 15.8781C4.15659 15.9377 4.41628 16.0596 4.69201 16.1808C4.69563 16.3364 4.69976 16.5143 4.70492 16.7366C4.43074 16.6821 4.13846 16.5393 3.89893 16.5945C3.64337 16.6504 3.42765 16.3485 3.12759 16.5622C2.93824 16.7042 2.54405 16.3212 2.33867 16.4639C2.03809 16.6553 1.82134 16.309 1.56888 16.4983C1.52387 16.6338 1.44833 16.8375 1.3583 17.1085C1.71525 17.2706 2.07272 17.4549 2.4783 17.6371C2.49692 17.7476 2.51709 17.9247 2.53778 18.124C3.08563 18.2108 3.64951 18.2969 4.27806 18.4024C4.71933 18.7388 4.36081 19.1998 4.25991 19.6939C4.06643 19.6581 3.87243 19.6 3.67895 19.5641C3.66291 19.5648 3.64533 19.4988 3.61325 19.5003C3.28683 19.27 3.02814 19.8824 2.68412 19.5863C2.34011 19.2901 2.04522 19.726 1.74206 19.8063C1.42235 19.8651 1.4513 20.4202 1.29712 20.6941C1.4435 21.4664 2.1652 20.7444 2.29554 21.5174C2.66439 21.5009 3.00118 21.4859 3.30588 21.4723C3.40727 21.6903 3.49159 21.8646 3.59194 22.0381C3.84283 22.472 3.84283 22.472 3.56604 22.9962C2.85575 22.8276 2.26602 22.3199 1.51901 21.9526C1.55625 22.1735 1.5759 22.3284 1.59504 22.4611C1.59504 22.4611 1.64315 22.4589 1.67522 22.4575C2.04305 22.3966 1.9023 23.2485 2.36531 23.1388C2.5888 23.0843 2.86867 23.3834 3.11284 23.5283C3.19406 23.5691 3.25976 23.633 3.35753 23.6954C2.94157 24.4483 2.77658 23.5655 2.42324 23.559C2.33115 23.7412 2.22353 23.9463 2.0854 24.2195C2.02125 24.2224 1.89347 24.2503 1.76568 24.2783C1.72532 24.6139 1.68496 24.9495 1.6301 25.3525C1.79048 25.3453 1.98292 25.3368 2.20744 25.3267C2.1826 25.6394 2.17173 25.8624 2.14688 26.1751C2.02065 26.2697 1.81578 26.4346 1.62644 26.5766C1.69523 26.7738 1.77955 26.9481 1.88197 27.2106C2.05632 27.1138 2.23014 26.9947 3.61709 27.2666C4.67088 27.7092 4.49808 27.8727 4.36824 27.8117C3.6383 27.4882 2.84834 27.3454 2.31914 26.6792C2.37864 26.4763 2.42262 26.2963 2.46815 26.183C2.69525 26.2841 2.9239 26.4519 2.95495 26.406C3.13964 26.064 3.28811 26.2354 3.48417 26.3824C3.61505 26.4878 3.85871 26.6105 3.95339 26.5395C4.34709 26.2104 4.54883 26.6019 4.81163 26.8572C4.81731 27.1018 4.82299 27.3463 3.61709 27.2666C2.5426 27.3146 2.66416 27.7097 2.78675 28.1493C2.67552 28.1988 2.59585 28.2246 2.48462 28.2741C2.4448 27.9421 2.42205 27.6538 2.37913 27.1884C2.2446 27.6172 2.17113 27.9098 2.08111 28.1808C2.0004 28.1622 1.90366 28.1442 1.80744 28.1485C1.66362 28.1772 1.50377 28.2066 1.36098 28.2797C1.24975 28.3292 1.14007 28.4454 0.998321 28.563C1.17886 28.7329 1.34285 28.8814 1.50684 29.0299C1.42923 29.1446 1.39819 29.1905 1.35163 29.2593C1.57977 29.4049 1.79135 29.529 2.00345 29.6753C2.00603 29.7865 2.00862 29.8976 1.91704 30.102C2.12243 29.9593 2.24814 29.8424 2.38989 29.7248C2.35937 29.7929 2.34488 29.8603 2.31436 29.9285C2.42765 29.9679 2.5575 30.0289 2.67079 30.0683C2.63975 30.1142 2.62475 30.1594 2.5937 30.2053C2.40074 30.1917 2.19226 30.201 1.91704 30.102C1.93101 30.0123 1.80168 29.9736 1.77064 30.0195C1.56939 30.34 1.38417 30.6599 1.15291 31.0707C1.39501 31.1267 1.55642 31.164 1.71783 31.2013C1.72092 31.3347 1.72247 31.4014 1.72506 31.5125C1.58175 31.5634 1.43794 31.5921 1.24652 31.6452C1.4431 31.8144 1.6076 31.9851 1.8047 32.1766C1.48186 32.7918 1.17403 33.3619 0.866713 33.9542C0.917407 34.0633 0.968618 34.1945 1.03638 34.3472C0.894113 34.4426 0.783918 34.5365 0.673207 34.6082C0.821647 35.4695 0.905939 36.3336 1.46567 36.9318C1.64724 37.1462 1.78329 37.4739 1.8707 37.7816C1.97416 38.0885 1.99846 38.4435 2.05483 38.797C1.95964 38.8458 1.88049 38.8938 1.76926 38.9433C1.78633 38.987 1.80444 39.0752 1.82099 39.0968C1.90169 39.1154 1.98085 39.0674 2.06207 39.1082C2.30469 39.1864 2.4216 39.3815 2.39779 39.7386C2.37243 40.029 2.26378 40.1897 2.05581 40.2212C1.92752 40.2269 1.79922 40.2327 1.68696 40.2377C1.65643 40.3058 1.62539 40.3517 1.62539 40.3517C1.65902 40.417 1.70816 40.4593 1.75782 40.5238C1.72781 40.6142 1.68177 40.7052 1.59122 40.9541C1.79713 40.8336 1.92388 40.7612 2.03459 40.6895C2.13856 41.0186 2.25753 41.3026 2.62742 41.3306C2.96524 41.3601 3.39876 41.363 3.62274 42.0206C3.32216 42.212 3.08315 42.2894 2.83433 41.9445C2.53585 41.535 2.18044 41.4396 1.75157 41.6368C1.87571 42.1431 2.2275 42.0829 2.57203 42.4013C1.81879 42.4572 1.17472 42.3746 0.466988 43.0071C0.313846 43.3255 0.924812 43.365 0.934108 43.7651C1.33659 43.8139 1.42607 44.2105 1.38881 44.6795C1.72197 44.5088 1.72197 44.5088 1.54972 44.0047C1.69406 43.9982 1.82184 43.9703 1.96617 43.9638C1.99567 43.8512 2.02464 43.7164 2.0531 43.5594C2.32573 43.5472 2.6144 43.5343 2.93515 43.52C2.946 43.9868 2.95684 44.4537 2.96717 44.8983C3.21444 45.1766 3.35307 45.6154 3.71883 45.4656C3.83626 45.6829 3.93764 45.9009 4.03852 46.0967C4.18079 46.0013 4.27546 45.9303 4.49637 45.7647C4.41099 46.2358 4.35407 46.5499 4.29819 46.9085C5.04571 47.2979 5.82947 47.1739 6.57338 47.4078C6.57545 47.4967 6.57803 47.6078 6.58113 47.7412C6.27642 47.7548 5.98775 47.7677 5.71512 47.7799C5.62819 48.1843 5.54023 48.5443 5.46831 48.9036C5.32397 48.91 5.21171 48.915 5.00323 48.9243C5.0648 48.8103 5.09532 48.7422 5.15637 48.606C5.04153 48.4998 4.89203 48.284 4.78028 48.3112C4.38193 48.4402 4.03534 48.0329 3.63596 48.1175C3.8801 48.9522 4.0115 49.0799 4.78955 49.4012C5.03269 49.5016 5.26083 49.6472 5.42327 49.729C5.74554 50.4712 5.29389 51.07 5.40509 51.7104C5.20228 51.9642 5.06828 52.4153 4.66373 52.2775C4.59078 52.5924 4.5023 52.9301 4.41382 53.2679C4.76974 53.3855 5.07703 53.4831 5.38536 53.6251C5.5152 53.686 5.39724 54.1364 5.65125 54.0138C5.84163 53.9162 5.99839 53.7535 6.26637 53.5412C6.52297 53.5298 6.90786 53.5126 7.27672 53.4961C7.35381 53.3592 7.44693 53.2215 7.50901 53.1297C7.69733 52.9433 9.5442 52.9721 9.85252 53.1141C9.9146 53.0223 9.96117 52.9535 10.0543 52.8158C10.0207 52.7505 9.98704 52.6853 9.92031 52.577C9.95135 52.5311 9.98136 52.4407 10.0279 52.3719L11.2706 51.9604C11.5365 52.349 11.8676 52.0895 12.1733 52.1203C12.5432 52.1483 12.956 51.9519 13.2809 52.1154C13.6218 52.2782 14.0181 52.0602 14.2483 52.2948C14.5928 52.6132 15 52.1722 15.2679 52.6498C15.285 52.6935 15.3642 52.6455 15.4288 52.6649C16.0719 52.7029 16.731 52.7403 17.3745 52.8005C17.6482 52.8328 17.9239 52.954 18.1971 52.9641C18.4547 52.9971 18.7263 52.9405 18.9994 52.9505C19.0636 52.9477 19.1143 53.0567 19.2136 53.1858C19.2079 52.9412 19.2043 52.7856 19.1997 52.5855C19.1014 52.5009 18.986 52.3725 18.7393 52.1165C19.2892 52.2922 19.2892 52.2922 19.6358 52.6996C19.6849 52.7419 19.7961 52.6924 20.6016 52.8123C21.0838 52.8352 20.8065 52.6473 20.7439 52.7169C20.5887 52.9464 20.3533 52.4895 20.2824 52.8933C20.1515 52.7878 20.0051 52.7054 19.8737 52.5777C19.8412 52.5569 19.8851 52.3769 19.8986 52.265C20.3823 52.3547 20.8494 52.4229 21.3166 52.491C21.3186 52.58 21.3207 52.6689 20.6016 52.8123C20.0098 52.9054 20.1438 53.1442 20.2607 53.3393C20.5814 53.325 20.8877 53.3781 21.1582 53.277C21.5406 53.1487 21.853 53.4685 22.2224 53.4743C22.5436 53.4822 22.8628 53.4012 23.2203 53.5855C23.5778 53.7698 24.0729 53.6587 24.4712 53.5297C24.6466 53.4773 24.7242 53.3626 24.9363 53.5089C25.1318 53.6337 25.404 53.5993 25.643 53.5219C25.8504 53.4681 25.9694 53.7521 26.1908 53.6087C26.3802 53.4667 26.6197 53.4115 26.8266 53.3355C26.9539 53.2853 27.1194 53.5004 27.242 53.2502C27.2576 53.2272 27.4055 53.3764 27.5028 53.4166C27.6652 53.4983 27.9425 53.6862 27.9735 53.6403C28.1427 53.3212 28.2798 53.6934 28.4226 53.6203C28.5814 53.5465 28.7226 53.4066 28.9435 53.241C28.734 53.2058 28.5892 53.19 28.4278 53.1527C28.4097 53.0645 28.391 52.9541 28.389 52.8652C28.42 52.8193 28.435 52.7741 28.4511 52.7734C28.852 52.7555 29.2369 52.7383 29.6378 52.7204C29.6564 52.8308 29.6751 52.9413 29.6947 53.0962C30.0124 52.9485 30.3135 52.7793 30.6321 52.676C30.7118 52.6502 30.8411 52.6889 30.9229 52.7521C31.2012 52.9844 31.4397 52.8848 31.6911 52.651C31.7739 52.7586 31.8401 52.8446 31.9394 52.9737C32.241 52.8267 32.5732 52.6116 32.9016 52.9308C32.9673 52.9946 33.0475 52.991 33.1277 52.9874C34.1712 52.9854 35.2213 53.2723 36.2762 53.0694C36.7718 52.9805 37.24 53.0932 37.7438 53.36C37.6833 53.5184 37.6223 53.6547 37.5478 53.9028C38.0584 53.7687 38.4882 54.3059 39.0899 53.9452C38.6207 53.7881 38.2487 53.6712 37.78 53.5364C38.0175 53.3922 38.1598 53.2969 38.3181 53.2008C38.4609 53.1277 38.6047 53.099 38.7635 53.0251C38.9591 53.1499 39.2032 53.2948 39.48 53.4605C39.3693 53.5322 39.2751 53.6254 39.1484 53.6978C39.2798 53.8255 39.3951 53.9538 39.5431 54.103C39.6316 53.7653 39.69 53.5179 39.7645 53.2697C39.779 53.2023 39.8421 53.155 39.8577 53.1321C40.0041 53.2145 40.1349 53.32 40.2488 53.3817C40.2048 53.5616 40.1603 53.7194 40.1168 53.9216C40.569 54.035 40.5576 53.5459 40.6797 53.2734C40.824 53.267 41.0149 53.1917 41.1453 53.2749C41.2922 53.3796 41.3905 53.4642 41.5628 53.2785C41.5348 53.4578 41.4908 53.6378 41.4629 53.817C41.4629 53.817 41.5126 53.8816 41.5446 53.8801C41.7055 53.8952 41.8654 53.8658 42.0258 53.8587C42.5069 53.8372 43.002 53.7261 43.5896 54.1449C43.4546 53.8616 43.42 53.7519 43.3351 53.5554C43.689 53.5841 43.9927 53.5261 44.2839 53.6243C44.5265 53.7025 44.7423 53.3146 45.0227 53.6359C45.2042 53.8503 45.5871 53.7442 45.8928 53.775C45.9052 53.6187 45.9327 53.4172 45.944 53.2164C45.9761 53.215 45.9922 53.2143 46.0242 53.2128C46.0449 53.4122 46.0816 53.6108 46.1028 53.8324C46.4396 53.8174 46.7764 53.8024 47.1613 53.7852C47.1737 53.6288 47.2011 53.4273 47.2275 53.1814C48.0537 53.5005 48.8664 53.2417 49.7019 53.2712C49.6999 53.1823 49.7138 53.0926 49.7138 53.0926C49.2736 52.8007 48.8168 52.4873 48.361 52.2184C48.1655 52.0936 48.1505 52.1388 47.9462 51.636C48.4382 51.3915 48.7206 51.8018 49.0351 52.2105C49.0641 52.0757 49.0931 51.9409 49.1655 51.6039C49.2209 51.9129 49.2741 52.1331 49.3114 52.354C49.3579 52.2851 49.4205 52.2156 49.4671 52.1467C49.7666 51.9108 50.0662 51.6749 50.3812 51.4161C50.2338 51.2891 50.2597 51.0209 50.0212 51.1206C49.8148 51.2188 49.4775 51.2116 49.3451 51.0395C49.1128 50.7161 48.8717 51.3944 48.7005 50.9348C48.3151 50.9297 47.9131 50.9031 47.5116 50.8988C47.4827 51.0336 47.4687 51.1233 47.4397 51.2581C47.1283 51.6726 46.94 51.1691 46.6932 50.9131C46.6953 51.002 46.6668 51.8489 46.6549 52.0275C46.4987 51.5226 46.3937 51.149 46.2716 50.7316C46.1314 50.9159 46.0067 51.0773 45.851 51.2845C45.7025 51.1131 45.5701 50.941 45.4713 50.8341C45.3596 50.8614 45.2649 50.9324 45.2157 50.89C45.0683 50.7631 44.9374 50.6577 44.8815 51.0162C44.9302 51.0363 44.9793 51.0786 45.0119 51.0994C44.9027 51.2378 44.8251 51.3526 44.7315 51.468C44.733 51.5347 44.7351 51.6236 44.7372 51.7125C44.9943 51.7233 45.2509 51.7119 45.5075 51.7004C45.5163 52.0783 45.5245 52.434 45.5323 52.7675C45.376 52.2626 44.9255 52.216 44.7372 51.7125C44.5954 51.8301 44.4707 51.9915 44.3295 52.1313C44.2964 52.0883 44.2467 52.0237 44.1805 51.9377C43.9348 52.416 43.6197 52.6748 43.2234 52.2029C42.9063 52.3729 42.6404 51.9842 42.3197 51.9985C42.2555 52.0014 42.1878 51.8486 42.105 51.741C42.4966 51.323 43.0393 51.8773 43.2644 51.1997C43.0362 51.0541 42.7915 50.887 42.5148 50.7213C42.3451 51.0182 42.1185 50.9393 41.8883 50.7048C41.7196 51.0461 41.4134 50.993 41.2349 50.912C41.0233 50.7879 40.8179 50.9306 40.6058 50.7843C40.4263 50.6588 40.1562 50.7821 39.9317 50.7921C39.9881 50.4558 40.0306 50.2091 40.0725 49.9402C40.4879 49.8549 40.9199 49.7911 41.431 49.6793C41.4486 49.7452 41.5334 49.9417 41.6027 50.1612C41.6498 50.1146 41.6969 50.068 41.744 50.0214C41.7574 49.9095 41.7864 49.7747 41.8149 49.6176C41.9271 49.6126 42.0554 49.6069 42.2158 49.5997C42.2334 49.6657 42.2685 49.7977 42.3203 49.9511C42.4325 49.9461 42.5608 49.9404 42.7212 49.9332C42.7352 49.8436 42.7641 49.7088 42.8086 49.551C42.9209 49.546 43.0492 49.5403 43.1775 49.5345C43.238 50.0659 43.6007 49.7827 43.7957 49.8853C44.0068 49.9871 44.2608 49.8645 44.5024 49.8982C44.5986 49.8939 44.6814 50.0015 44.7952 50.0632C44.8567 49.9492 44.9338 49.8122 44.9954 49.6982C45.3824 49.7699 45.6917 49.9564 46.0906 49.8496C46.5215 49.7413 47.0301 49.5183 47.4734 49.9436C47.8299 49.3936 48.0249 50.186 48.3296 50.1724C48.5189 50.0305 48.7238 49.8655 48.9287 49.7006C49.0756 49.8053 49.2587 50.0864 49.3917 49.5909C49.4605 49.7881 49.5122 49.9416 49.5805 50.1166C49.9281 49.8785 50.2608 49.6857 50.6684 49.9568C50.864 50.0815 51.1656 49.9346 51.4051 49.8794C51.5489 49.8507 51.6917 49.7775 51.8195 49.7496C51.8722 49.9475 51.9069 50.0572 51.9591 50.2329C52.1749 49.845 52.3922 49.5237 52.8169 49.8386C52.8505 49.9039 52.9188 50.0788 52.9876 50.276C52.9566 50.3219 52.9105 50.413 52.8484 50.5048C52.9291 50.5234 53.0114 50.6088 53.075 50.5837C53.4713 50.3657 53.8516 50.1485 54.2473 49.9083C54.3301 50.0158 54.4139 50.1679 54.5282 50.2518C54.6586 50.335 54.82 50.3723 54.9648 50.3881C55.0616 50.406 55.1568 50.3572 55.2685 50.33C55.2726 50.5078 55.2768 50.6857 55.2814 50.8858C55.0088 50.8979 54.7201 50.9108 54.4475 50.923C54.343 51.2615 54.27 51.5763 54.136 52.0273C53.9519 51.0119 53.3197 51.4407 52.9576 51.0563C52.8887 51.5489 52.8199 52.0416 52.7371 52.6239C52.8815 52.6174 52.9937 52.6124 53.0899 52.6081C53.001 52.2338 53.2229 52.1126 53.3921 51.7935C53.5757 52.0968 53.7097 52.3357 53.8768 52.6175C53.9539 52.4805 54.031 52.3436 54.1546 52.1378C54.315 52.1306 54.5204 51.9879 54.7666 52.2217C54.8654 52.3286 55.1179 52.1393 55.4045 52.0375C55.3295 52.2633 55.3005 52.3982 55.2224 52.4907C55.1132 52.6291 54.987 52.7237 54.8458 52.8635C54.9487 53.1482 55.0506 53.3885 55.1701 53.6947C55.1954 53.4043 55.2229 53.2028 55.2477 52.8901C55.6988 52.959 56.1499 53.0278 56.6497 53.1168C56.5804 52.8974 56.5281 52.7217 56.4422 52.4807C56.6988 52.4693 56.8913 52.4607 57.1158 52.4506C57.136 52.6278 57.1562 52.8049 57.1774 53.0265C57.2575 53.0229 57.3543 53.0408 57.4665 53.0358C57.3977 52.8386 57.33 52.6859 57.2441 52.4449C57.5317 52.3876 57.7718 52.3546 58.0439 52.3202C58.1215 52.2055 58.2146 52.0678 58.3388 51.8842C58.5561 52.2528 58.7733 52.6214 59.0066 52.9893C59.2446 52.8674 59.4826 52.7455 59.7206 52.6237C59.6704 52.5369 59.6047 52.4731 59.5214 52.3433C59.8582 52.3282 60.1629 52.3146 60.4997 52.2996C60.5033 52.4552 60.5074 52.633 60.5141 52.922C60.7366 52.8231 61.0046 52.6108 61.0542 52.6754C61.2705 52.9995 61.4045 52.5485 61.583 52.6295C61.7775 52.7099 61.9709 52.7457 62.181 52.8031C62.3502 52.484 62.5685 52.2072 62.8866 52.0817L63.6523 51.8695C63.8458 51.9054 64.0227 51.9198 64.2467 51.8875C64.7097 51.7778 64.7278 51.866 64.9094 51.3906C64.9394 51.3002 64.9695 51.2099 65.03 51.0514C64.7051 50.8879 64.3482 50.7258 64.5411 50.0496C65.0243 50.117 65.1366 50.8019 65.5959 51.2264C65.5784 51.1605 65.3518 51.0816 65.5504 50.6499C65.7294 50.7531 65.9245 50.8557 66.0869 50.9375C66.0921 51.1598 66.0962 51.3376 66.1039 51.6711C66.001 51.3864 65.9498 51.2551 65.8981 51.1017C65.8355 51.1712 65.7889 51.2401 65.612 51.2257C65.3926 51.458 65.3207 51.8173 65.0196 51.9865C65.3574 52.016 65.7247 51.9328 65.9492 52.6126C65.9885 52.2326 65.9999 52.0318 66.0108 51.8088C66.3688 52.0153 66.6833 52.4241 67.1065 51.9824C67.2477 51.8426 67.5069 51.9422 67.7154 51.9329C67.7371 52.1768 67.7573 52.3539 67.778 52.5533C68.0667 52.5404 68.3553 52.5275 68.66 52.5139C68.7376 52.3991 68.8308 52.2615 68.9394 52.1008C69.1158 52.093 69.4231 52.1905 69.5162 52.0528C69.7335 51.7316 69.8711 52.126 70.046 52.0514C70.2364 51.9539 70.4102 51.8349 70.6001 51.7152C70.6145 51.6477 70.628 51.5359 70.642 51.4462C70.6575 51.4233 70.673 51.4003 70.7046 51.3767C70.7899 51.5954 70.8908 51.7912 70.9927 52.0314C71.4257 52.0121 71.8582 51.9705 72.2757 51.9742C72.6771 51.9785 73.0894 51.7598 73.4671 52.1213C73.5116 51.9635 73.5405 51.8287 73.584 51.6264C74.2229 52.1765 74.9275 52.1006 75.6166 52.0475C76.2094 51.9988 76.7868 51.973 77.3807 51.9688C77.6212 51.9581 77.8515 51.5027 78.0729 52.0492C78.1469 51.7788 78.1758 51.644 78.2048 51.5092C78.3222 51.7265 78.4397 51.9438 78.541 52.1618C78.6192 52.0693 78.6652 51.9782 78.7433 51.8857C78.8737 51.9689 79.0041 52.0521 79.1344 52.1353C79.2446 52.0414 79.3548 51.9474 79.4966 51.8298C79.5974 52.0256 79.6978 52.1992 79.765 52.3297C79.9394 52.2329 80.0491 52.1167 80.1613 52.1117C80.8959 51.9454 81.6404 52.2015 82.3641 52.2582C82.6057 52.2919 82.8758 52.1686 83.1535 52.3787C83.3822 52.5465 83.7319 52.3974 84.0206 52.3845C84.3734 52.3687 84.7107 52.3759 85.063 52.338C86.0066 52.1846 86.9316 52.6106 87.8918 52.4787C88.1318 52.4457 88.377 52.6351 88.6455 52.4451C88.7878 52.3497 89.0604 52.3375 89.1758 52.4659C89.4551 52.7427 89.7226 52.5083 89.9978 52.6072C90.0237 52.339 90.0506 52.1153 90.0765 51.8471C90.2591 52.106 90.4086 52.3219 90.525 52.4947C90.6222 52.5349 90.6703 52.5327 90.719 52.5528C90.9451 52.6095 91.1815 52.4209 91.3967 52.7006C91.5788 52.9372 91.8338 52.1692 92.0552 52.7157C92.2384 52.3069 92.4427 52.8096 92.6491 52.7114C92.8721 52.6347 93.1292 52.6455 93.3708 52.6792C93.5157 52.695 93.6476 52.8449 93.7924 52.8607C93.9052 52.8779 94.0087 52.4949 94.1447 52.8227C94.1618 52.8664 94.257 52.8177 94.2896 52.8385C94.5674 53.0486 94.8385 52.2799 95.1235 52.8012C95.4267 52.7209 95.7526 52.9289 96.034 52.6048C96.7665 53.0394 97.57 52.3805 98.303 52.8373C98.4334 52.9205 98.6088 52.8682 98.7691 52.861C99.6512 52.8216 100.533 52.7823 101.415 52.7429C101.688 52.7307 101.944 52.697 102.217 52.7071C102.426 52.72 102.72 52.9294 102.846 52.8126C103.113 52.5558 103.357 52.723 103.612 52.6448C104.026 52.4928 104.404 52.8543 104.818 52.7245C104.898 52.6987 105.013 52.8271 105.155 52.7095C105.297 52.5919 105.504 52.5381 105.666 52.5754C106.602 52.7784 107.629 52.7771 108.522 52.5369C108.666 52.5082 108.83 52.6344 108.99 52.6273C109.52 52.6259 110.065 52.5793 110.594 52.5557C110.77 52.5478 110.961 52.4503 111.111 52.6884C111.161 52.7752 111.338 52.7895 111.401 52.7422C111.809 52.3457 112.262 52.5035 112.695 52.4841C113.737 52.4154 114.779 52.3688 115.822 52.3445C116.079 52.3331 116.348 52.1653 116.58 52.4887C116.613 52.5317 116.725 52.5045 116.789 52.4794C117.422 52.0951 118.068 52.2665 118.727 52.2816C118.759 52.2802 118.809 52.367 118.842 52.41C119.205 52.1268 119.531 51.6449 120.008 52.1354C120.106 52.2423 120.313 52.1441 120.473 52.1369C121.949 52.071 123.408 52.0059 124.883 51.94C125.188 51.9264 125.49 51.8017 125.77 52.0785C126.08 51.5973 126.379 52.0513 126.685 52.0821C127.006 52.09 127.327 52.0757 127.647 52.0392C127.839 52.0084 128.029 51.9108 128.3 51.8097C128.432 51.9819 128.631 52.24 128.797 52.4552C129.005 52.4236 129.248 52.5241 129.189 52.0816C129.393 51.8722 129.57 51.9088 129.737 52.1684C129.871 51.7174 130.105 52.1075 130.296 52.0544C130.44 52.0258 130.662 51.8823 130.744 51.9899C130.975 52.2467 131.211 52.0581 131.437 52.0925C131.63 52.1284 131.868 51.9843 132.02 52.2891C132.113 52.1514 132.206 52.0137 132.33 51.8301C132.538 51.8208 132.763 51.833 133.003 51.8C133.755 51.6775 134.491 51.5556 135.258 51.4101C135.27 51.2315 135.297 51.03 135.321 50.6729C135.459 51.0673 135.561 51.3298 135.665 51.6367C136.044 51.3973 136.39 51.0925 136.892 51.2482C137.264 51.3873 137.708 51.145 138.138 50.9922C138.041 50.9743 137.944 50.9341 137.847 50.9162C137.413 50.8688 136.983 51.0216 136.544 50.7741C136.283 50.63 135.919 50.8465 135.615 50.8823C135.614 50.8379 135.612 50.749 135.593 50.6163C135.785 50.5855 135.992 50.5317 136.185 50.5453C136.717 50.6329 137.226 50.4321 137.702 50.2106C138.147 50.0127 138.531 49.9288 138.968 50.0873C139.097 50.126 139.271 49.9848 139.43 49.9554C139.686 49.8995 139.957 49.8206 140.214 49.8092C140.47 49.7977 140.713 49.8759 140.987 49.9304C141.015 49.7511 141.029 49.6615 141.041 49.5052C141.403 49.1775 141.609 49.7691 141.962 49.7311C141.961 49.7089 141.99 49.5741 142.02 49.4615C142.067 49.4371 142.114 49.3905 142.162 49.3883C143.127 49.4343 144.052 49.1927 144.922 48.642C145.081 48.546 145.29 48.5811 145.467 48.5732C146.156 48.5424 146.846 48.5117 147.567 48.4794C147.578 48.2564 147.574 48.0786 147.586 47.9C147.98 47.5931 148.358 47.2647 148.878 46.8632C149.246 46.8022 149.762 46.8905 150.416 46.7277C150.189 46.6266 150.092 46.5864 149.962 46.5255C150.008 46.4122 150.038 46.3218 150.084 46.2308C149.921 46.1268 149.758 46.045 149.644 45.9611C149.469 46.0356 149.31 46.1095 149.056 46.2321C149.196 46.0034 149.242 45.9345 149.288 45.8434C149.008 45.5222 148.826 45.9754 148.538 46.0105C148.517 45.8111 148.496 45.6118 148.476 45.4124C149.227 45.2676 149.93 45.1249 150.665 44.9809C150.742 44.8661 150.836 44.7285 150.929 44.5908C151.646 44.3807 152.363 44.1484 153.065 43.9391C152.684 43.422 152.248 43.3302 151.741 43.6421C151.657 43.4678 151.557 43.2943 151.456 43.0985C151.551 43.0275 151.598 42.9809 151.645 42.9565C152.605 42.8246 153.582 42.7143 154.543 42.6046C154.831 42.5695 155.052 42.4261 155.251 41.9944C154.848 41.9012 154.526 41.871 154.209 42.0632C154.099 42.1349 153.956 42.208 153.843 42.1908C153.263 42.1054 152.698 41.9749 152.004 41.8278C152.567 41.1796 153.145 41.1538 153.704 41.062C153.605 40.2209 153.029 40.3133 152.7 39.9942C152.776 39.8128 152.821 39.655 152.912 39.4284C152.33 39.2763 151.821 39.4548 151.257 39.391C151.3 39.1665 151.393 39.0066 151.537 38.978C151.712 38.9256 151.874 38.9851 151.913 38.6051C151.926 38.471 152.21 38.258 152.356 38.296C152.727 38.3907 153.063 37.6414 153.43 38.2258C153.764 38.0996 154.098 37.9735 154.448 37.8243C154.607 37.7727 154.749 37.6773 154.907 37.559C154.666 37.5253 154.405 37.3589 154.205 37.7239C154.003 37.3546 153.719 37.5675 153.462 37.5345C153.204 37.5015 152.965 37.5567 152.703 37.3681C152.491 37.2218 152.174 37.3695 151.917 37.381C151.661 37.3924 151.388 37.4046 151.083 37.4182C151.638 37.8162 151.655 37.8377 152.378 37.8722C152.16 38.1712 151.916 38.0041 151.724 38.0572C151.485 38.1124 151.243 38.0787 150.97 38.0908C150.886 37.9166 150.785 37.7208 150.651 37.4598C150.23 37.3228 149.63 37.7501 149.225 36.9225C150.072 36.7512 150.856 36.605 151.654 36.4358C151.668 36.3239 151.682 36.2343 151.695 36.1224C152.19 36.0113 152.701 35.8772 153.196 35.7661C153.269 35.4513 153.342 35.1587 153.415 34.8439C154.268 34.9171 155.049 34.6597 155.829 34.4024C155.877 34.378 155.907 34.3098 156 34.1499C155.903 34.1098 155.806 34.0918 155.709 34.0517C155.74 34.0058 155.755 33.9828 155.786 33.9369C155.77 33.9154 155.737 33.8724 155.737 33.8724C155.658 33.9427 155.565 34.0803 155.485 34.0839C154.282 34.1598 153.079 34.1913 151.844 34.2464C151.8 33.7366 151.221 33.6957 151.333 32.9785C151.636 32.876 151.938 32.7735 152.257 32.6702C152.305 32.6459 152.385 32.6423 152.384 32.5978C152.575 31.8327 153.061 32.0335 153.461 31.9489C153.812 31.8887 154.162 31.7396 154.514 31.7016C154.85 31.6421 155.204 31.6708 155.621 31.6522C155.375 31.4406 155.226 31.247 154.969 31.2362C154.423 31.2161 153.867 31.4857 153.344 31.0862C152.938 31.5495 152.539 30.9886 152.109 31.1191C151.678 31.2496 151.195 31.1599 150.746 31.2022C150.09 31.276 149.462 31.215 148.797 30.9331C149.002 30.746 149.19 30.5596 149.331 30.4197C149.952 30.1695 150.587 30.5862 151.137 30.0721C151.456 30.6587 151.745 29.9782 152.051 30.009C152.357 30.0399 152.646 30.0492 152.945 29.7911C153.118 29.6276 153.41 29.7703 153.649 29.7151C153.873 29.6606 154.079 29.5624 154.302 29.4635C154.492 29.3659 154.682 29.2462 154.999 29.054C154.773 29.0196 154.692 29.0009 154.628 29.0038C153.921 28.9686 153.229 28.9105 152.522 28.8753C152.458 28.8782 152.376 28.815 152.312 28.7957C152.214 28.7555 152.117 28.7153 152.035 28.6522C151.887 28.5031 151.771 28.3302 151.639 28.1581C152.076 27.649 152.595 27.8706 153.072 27.6713C152.622 27.6246 152.213 27.3091 151.749 27.3743C151.461 27.4094 151.153 27.2897 150.847 27.2366C150.839 26.9031 150.833 26.6586 150.825 26.3251C151.018 26.3165 151.227 26.3517 151.418 26.2764C151.61 26.2233 151.748 25.9724 151.99 26.0283C152.2 26.0635 152.423 26.009 152.632 25.9997C152.84 25.9904 153.065 25.9803 153.338 25.9682C153.413 25.7423 153.487 25.4942 153.577 25.2009C153.447 25.1399 153.382 25.0983 153.317 25.0789C153.155 24.9972 152.992 24.9154 152.814 24.8344C152.906 24.6745 152.953 24.6056 152.999 24.5145C152.949 24.45 152.916 24.407 152.883 24.3639C152.983 23.8254 153.324 24.0104 153.564 23.9552C153.879 23.6964 153.76 22.7448 154.406 22.894C154.341 22.8746 154.26 22.8337 154.195 22.8144C154.115 22.7957 154.019 22.8222 153.985 22.757C153.886 22.6279 153.825 22.7641 153.76 22.7448C153.23 22.7239 152.714 22.6357 152.183 22.5704C152.118 22.551 152.052 22.4427 151.969 22.3574C152.445 22.1136 152.89 21.8935 153.398 21.6483C153.455 21.3342 153.393 20.7361 153.922 20.7125C153.47 20.5991 153.053 20.64 152.636 20.6586C152.219 20.6772 151.786 20.6965 151.385 20.7144C151.27 20.5638 151.186 20.434 151.053 20.2174C151.227 20.0984 151.338 20.0489 151.433 19.978C151.432 19.9557 151.431 19.9335 151.43 19.889C151.095 19.9485 150.998 19.2407 150.616 19.3913C150.489 19.4415 150.308 19.2493 150.178 19.1883C150.212 18.5859 150.735 18.9632 150.787 18.449C150.786 18.4268 151.483 18.0174 151.515 18.0159C151.804 18.003 152.093 17.9902 152.362 17.8224C151.286 17.8037 150.193 17.7634 149.246 17.7612C148.904 17.5762 148.815 17.1796 148.512 17.2599C148.209 17.3402 147.962 17.0841 147.763 16.826C147.515 16.5033 147.158 16.3412 147.033 15.8126C147.162 15.8069 147.29 15.8012 147.45 15.794C147.468 15.86 147.503 15.9919 147.539 16.1461C147.615 15.9869 147.691 15.8055 147.752 15.647C147.786 15.7123 147.835 15.7546 147.868 15.8199C148.315 15.6887 148.761 15.5575 149.224 15.4255C149.238 15.3359 149.235 15.2248 149.248 15.0684C148.652 14.9838 148.072 14.8984 147.476 14.8137C147.472 14.6581 147.468 14.4803 147.465 14.3469C147.59 14.2078 147.7 14.0916 147.809 13.9754C147.727 13.8679 147.692 13.7804 147.66 13.7818C147.532 13.7653 147.354 13.7065 147.259 13.7997C147.04 14.0098 146.865 14.1066 146.666 13.804C145.961 13.9022 145.297 13.6203 144.634 13.4273C144.197 13.291 143.764 13.3104 143.33 13.2852C143.264 13.1992 143.214 13.1346 143.099 12.984C143.092 12.7173 143.084 12.3616 143.072 11.828C142.9 12.036 142.821 12.1063 142.759 12.1981C142.697 12.2898 142.651 12.3809 142.512 12.6319C142.453 12.145 142.414 11.8574 142.375 11.5698C142.295 11.5734 142.247 11.5533 142.118 11.5591C142.171 11.757 142.239 11.9097 142.258 12.0646C142.279 12.2418 142.267 12.4203 142.269 12.5315C142.466 12.7007 142.613 12.8054 142.809 12.9747C142.698 13.0242 142.636 13.0937 142.555 13.0973C142.236 13.1561 142.131 12.7825 141.933 12.5687C141.995 12.4769 142.026 12.4311 142.088 12.3393C141.974 12.2776 141.877 12.2152 141.779 12.1528C141.84 12.0166 141.884 11.8588 141.961 11.6774C141.733 11.554 141.551 12.0294 141.334 11.6386C141.233 11.4651 140.853 11.6823 140.673 11.5346C140.493 11.3868 140.325 11.7504 140.205 11.4442C140.037 11.8077 139.775 11.5747 139.569 11.6951C139.517 11.5194 139.482 11.3875 139.447 11.2778C139.139 11.158 138.746 11.5093 138.555 10.917C139.05 10.7836 139.561 10.6718 140.087 10.5148C140.125 10.7357 140.146 10.9572 140.203 11.3553C140.308 11.039 140.368 10.8583 140.429 10.6998C140.822 11.0383 141.127 11.0247 141.442 10.7881C141.568 10.6935 141.745 10.7078 141.889 10.6791C141.931 10.4102 141.973 10.1413 142.016 9.91685C141.627 9.75619 141.253 9.55035 140.866 9.47861C140.479 9.40687 140.079 9.447 139.693 9.44195C139.468 9.42974 139.259 9.39459 138.969 9.36301C138.954 9.40819 138.877 9.54516 138.801 9.72658C139.01 9.73951 139.218 9.7302 139.411 9.72161C139.516 10.1175 139.426 10.3663 139.19 10.5993C139.072 10.3376 138.937 10.0765 138.785 9.74953C138.651 9.51072 138.518 9.29414 138.351 9.03453C138.162 9.1765 137.988 9.29554 137.799 9.43751C137.875 9.94595 138.032 9.80541 138.249 9.46193C138.27 9.70575 138.291 9.90511 138.33 10.2149C138.136 10.1346 138.022 10.0729 137.892 10.0119C137.798 10.0829 137.703 10.1539 137.545 10.2722C137.536 9.87207 137.528 9.5386 137.521 9.22738C137.277 9.10473 137.03 8.82647 136.888 8.92184C136.603 9.09034 136.378 9.07813 136.133 8.91102C135.951 9.38645 135.75 8.99489 135.54 8.93751C135.217 8.86291 134.894 8.7883 134.556 8.75888C134.218 8.72945 133.866 8.78966 133.514 8.80541C133.479 8.67346 133.443 8.54151 133.391 8.36581C133.328 8.43537 133.281 8.48198 133.235 8.55082C132.796 8.32561 133.04 7.75839 132.9 7.25282C132.725 7.34962 132.566 7.42346 132.392 7.52026C132.195 6.61668 132.195 6.61668 131.652 6.75218C131.685 6.79521 131.719 6.86046 131.818 6.98955C131.69 7.01751 131.546 7.04619 131.419 7.07415C131.468 7.13869 131.534 7.20252 131.584 7.26706C131.38 7.49868 131.09 7.44487 130.784 7.41401ZM58.5696 50.7612C58.4951 51.0093 58.4661 51.1442 58.405 51.2804C58.2835 51.5751 58.1448 51.8261 57.9239 51.9917C57.8923 52.0154 57.8427 51.9509 57.778 51.9315C57.7744 51.7759 57.7703 51.598 57.7672 51.4647C57.5121 51.5428 57.2886 51.5973 57.0176 51.6761C57.0057 51.1648 56.9959 50.7425 56.9824 50.1645C57.0854 50.4492 57.1366 50.5804 57.1878 50.7116C57.3445 50.5489 57.5013 50.3861 57.6575 50.2011C57.7429 50.4198 57.7941 50.5511 57.8458 50.7045C58.1252 50.2915 58.3533 50.4371 58.4118 50.8795C58.8288 50.8609 59.0853 50.8495 59.3099 50.8394C59.2726 50.6186 59.2525 50.4414 59.2157 50.2428C59.2478 50.2414 59.2633 50.2184 59.2954 50.217C59.4465 50.4995 59.5815 50.7828 59.7325 51.0654C60.223 50.7542 60.2711 50.752 60.7273 51.0432C60.852 50.8819 60.9762 50.6983 61.1474 50.4681C61.2561 50.9974 61.7424 50.5083 61.7899 51.1738C61.5659 51.2061 61.3424 51.2605 61.1826 51.2899C61.1386 51.4699 61.1091 51.5825 61.0796 51.6951C61.017 51.7646 60.9539 51.812 60.8753 51.8822C60.838 51.6614 60.7853 51.4634 60.748 51.2426C60.6549 51.3802 60.6083 51.4491 60.5463 51.5409C60.4459 51.3673 60.3621 51.2153 60.2788 51.0855C59.8065 51.4849 59.3197 51.2618 58.8556 51.327C58.808 51.3514 58.6906 51.1341 58.5696 50.7612ZM109.891 52.0085C109.744 51.9038 109.613 51.7983 109.433 51.6728C109.732 51.3925 109.85 51.6542 109.613 51.8206C109.473 51.9826 109.364 52.121 109.301 52.2128C109.027 52.1361 108.75 51.9482 108.655 52.0414C108.422 52.3411 108.162 52.2192 107.906 52.2751C107.778 52.3031 107.584 52.2227 107.522 52.3145C107.242 52.7053 106.949 52.5181 106.676 52.5081C106.469 51.8942 107.014 51.8699 107.003 51.403C107.335 51.8555 107.538 51.6462 107.768 51.1686C107.574 51.0882 107.412 51.0287 107.249 50.9469C107.038 50.8451 106.859 50.7196 106.96 50.2477C107.283 50.3446 107.591 50.4421 107.817 50.521C107.92 50.7835 107.988 50.9585 108.057 51.1557C108.011 51.269 107.966 51.3823 107.905 51.5185C108.437 51.6283 108.969 51.7158 109.891 52.0085ZM110.339 11.1752C110.478 10.9687 110.634 10.7392 110.773 10.5105C111.117 10.8067 111.438 10.7924 111.704 10.5134C112.125 10.6727 112.498 10.834 112.936 11.0148C112.842 11.1302 112.747 11.2012 112.686 11.3152C112.593 11.4529 112.533 11.6336 112.487 11.7469C111.744 11.5575 111.034 11.3667 109.949 10.3025C110.086 10.6746 110.19 11.0038 110.275 11.2003C110.2 11.404 110.155 11.5617 110.11 11.6973C109.785 11.5337 109.541 11.3889 109.281 11.2669C109.054 11.1658 108.901 11.462 108.709 11.4928C108.533 11.5229 108.337 11.3759 108.143 11.34C108.095 11.3421 108.05 11.4554 107.971 11.5479C107.934 11.3048 107.912 11.0832 107.875 10.8401C107.587 11.5651 107.556 11.611 107.217 11.5594C106.862 11.4862 106.522 11.3456 106.166 11.228C106.155 11.451 106.159 11.6288 106.162 11.74C106.062 11.6109 105.947 11.4603 105.88 11.3742C105.384 11.4187 104.982 11.4143 104.616 11.542C104.473 11.5929 104.396 11.7298 104.215 11.5599C103.919 11.2615 103.482 11.7706 103.181 11.2944C102.999 11.7476 102.556 11.3001 102.389 11.7304C102.321 11.5776 102.268 11.3575 102.187 11.3388C101.896 11.2406 101.826 10.9989 101.818 10.6432C101.814 10.4876 101.698 10.3148 101.695 10.1814C101.708 10.0473 101.817 9.90888 101.847 9.84076C102.074 9.94189 102.268 9.99999 102.431 10.0817C102.45 10.1922 102.468 10.3026 102.487 10.4353C102.647 10.4059 102.791 10.3772 102.903 10.3722C102.931 10.1929 102.945 10.0811 102.944 10.0366C103.154 10.1162 103.332 10.175 103.526 10.2331C103.563 10.4318 103.583 10.6311 103.621 10.852C103.776 10.6448 103.901 10.4612 103.994 10.3235C104.189 10.4261 104.319 10.5093 104.45 10.5925C104.509 10.3895 104.538 10.277 104.568 10.1644C104.717 10.3802 104.883 10.5954 105.032 10.789C105.458 10.4807 105.826 10.3975 105.927 10.6155C106.01 10.7231 106.109 10.83 106.224 10.9806C106.283 10.7554 106.312 10.6206 106.356 10.4406C107.163 10.6049 108.002 10.1001 108.832 10.5749C108.913 10.6158 109.073 10.5864 109.135 10.5168C109.385 10.2164 109.68 10.448 110.339 11.1752ZM16.2717 48.8664C15.8884 48.9502 15.5666 48.9201 15.3136 49.0872C15.0446 49.255 14.8009 49.1323 14.5593 49.0986C14.2536 49.0677 13.9623 48.9695 13.6721 48.9157C13.6121 49.0964 13.5671 49.2319 13.5076 49.4348C13.3933 49.3509 13.2795 49.2892 13.1 49.1637C13.0394 49.3222 12.9639 49.5259 12.9183 49.6392C12.6276 49.5631 12.4331 49.4828 12.2396 49.4469C12.0141 49.4125 11.7063 49.2927 11.7006 49.0482C11.6918 48.6703 11.1196 48.9183 11.3809 48.4171C11.6856 48.4035 11.9903 48.3899 12.279 48.377C12.2986 48.5319 12.3173 48.6423 12.354 48.841C12.4285 48.5929 12.4735 48.4573 12.5335 48.2766C12.9215 48.3928 13.3255 48.5083 13.7135 48.6245C13.7756 48.5327 13.8377 48.4409 13.8843 48.3721C13.8341 48.2853 13.7839 48.1985 13.666 47.959C13.9256 48.0809 14.0395 48.1426 14.1693 48.2036C14.1983 48.0688 14.2273 47.934 14.2562 47.7991C14.3369 47.8178 14.4171 47.8142 14.5465 47.853C14.5051 48.1441 14.4626 48.3908 14.4228 48.7486C14.8579 48.8182 15.3084 48.8649 15.7756 48.933C15.8977 48.6605 15.9727 48.4346 16.0798 48.2073C16.3809 48.0381 16.533 48.3651 16.7316 48.6233C17.115 47.8496 17.7684 48.3322 18.2407 47.9328C18.2438 48.0662 18.2454 48.1329 18.2474 48.2218C18.4585 48.3237 18.6706 47.7801 18.9236 48.3029C18.8139 48.4191 18.7047 48.5575 18.5174 48.7884C18.8527 48.7066 19.0793 48.7855 19.3302 48.5295C19.5806 48.2513 19.8982 48.1036 20.1828 47.9129C20.278 47.8641 20.4042 47.7695 20.4694 47.8111C20.8299 48.1288 21.2267 47.933 21.5811 47.984C21.6333 48.1597 21.6685 48.2916 21.7389 48.5555C21.861 48.283 21.937 48.1016 21.9831 48.0105C22.2878 47.9969 22.5123 47.9869 22.7689 47.9755C22.7565 48.1318 22.743 48.2437 22.7306 48.4C22.5687 48.3405 22.4549 48.2788 22.325 48.2178C22.296 48.3526 22.2671 48.4875 22.2376 48.6C21.7259 48.6896 21.2102 48.6014 20.6514 48.7376C20.7508 48.8667 20.8004 48.9312 20.8832 49.0388C20.7083 49.1134 20.536 49.2991 20.4067 49.2604C19.8558 49.0402 19.2986 49.2431 18.7528 49.2452C18.4636 49.2358 18.1274 49.2731 17.803 49.1318C17.7383 49.1124 17.6566 49.0493 17.5924 49.0522C17.4491 49.1031 17.3239 49.2422 17.1801 49.2709C17.0684 49.2981 16.9365 49.1482 16.8242 49.1533C16.6959 49.159 16.5702 49.2759 16.4434 49.3483C16.341 49.0858 16.3059 48.9539 16.2717 48.8664ZM26.9721 9.15543C27.4212 9.13539 27.9225 9.29104 28.3022 9.05155C29.1248 8.52525 30.0389 9.17431 30.8107 8.539C31.2055 8.9442 31.5852 8.70471 31.9654 8.48745C32.0291 8.46235 32.1418 8.47958 32.191 8.52189C32.4884 8.88692 32.8801 8.46887 33.1749 8.72275C33.5024 8.99743 33.8511 8.80383 34.1723 8.81175C34.2846 8.80674 34.3938 8.66834 34.4879 8.57512C34.6509 8.67912 34.8138 8.7831 34.9442 8.8663C34.9504 9.13307 34.9561 9.37761 34.9638 9.71107C34.7828 9.51887 34.6669 9.36826 34.5184 9.19686C34.1123 9.68232 33.6746 9.50157 33.2385 9.38752C33.2251 9.49939 33.2111 9.58903 33.1977 9.7009C32.9018 9.40256 32.5329 9.41902 32.312 9.58466C31.9654 9.86718 31.686 9.59035 31.3808 9.58172C31.1237 9.57094 30.9111 9.40241 30.6265 9.59314C30.3896 9.7595 30.0497 9.64114 29.761 9.65403C29.4884 9.6662 29.2023 9.79025 28.9587 9.6676C28.6664 9.52487 28.4755 10.29 28.1904 9.76865C27.9897 10.1114 27.8231 9.85181 27.6126 9.7722C27.3539 9.69473 27.0828 9.77359 26.8102 9.78576C26.6979 9.79077 26.5846 9.75133 26.3751 9.71617C26.5443 9.39707 26.6679 9.19127 26.8371 8.87216C26.4222 8.9797 26.163 8.88001 26.1165 8.25898C26.6825 8.434 27.1491 7.79006 27.5707 7.97152C27.7859 8.25121 27.9023 8.42404 28.0182 8.57465C27.8599 8.67073 27.641 8.92528 27.5593 8.86217C27.281 8.62981 27.1615 9.01346 26.9721 9.15543ZM29.5344 51.7236C29.0853 51.7437 28.6844 51.7616 28.2835 51.7795C28.2804 51.6461 28.2778 51.5349 28.2737 51.3571C28.5965 51.4317 28.9027 51.4848 29.2095 51.5601C29.2085 51.5156 29.224 51.4927 29.223 51.4482C29.1092 51.3865 29.0114 51.3241 28.9302 51.2833C28.9255 51.0832 28.9214 50.9053 28.9173 50.7275C29.1268 50.7626 29.3715 50.9298 29.4811 50.8136C29.7321 50.5576 29.8728 51.0854 30.1092 50.8968C30.2354 50.8022 30.4635 50.9478 30.641 50.9843C30.6544 50.8725 30.6684 50.7828 30.6824 50.6932C30.8981 50.9951 31.1138 51.297 31.3456 51.5982C31.6151 51.4527 31.7889 51.3337 31.9798 51.2584C32.2023 51.1594 32.464 51.3703 32.6493 51.0505C32.6803 51.0046 32.8262 51.0648 32.9074 51.1057C33.2002 51.2707 33.5246 51.412 33.7863 51.6228C34.0967 51.8537 34.3813 51.663 34.671 51.6946C34.6844 51.5827 34.6984 51.4931 34.7253 51.2693C34.8112 51.5103 34.8624 51.6415 34.9307 51.8165C35.1065 51.7864 35.2985 51.7556 35.6342 51.6961C35.3911 51.5957 35.2938 51.5555 35.164 51.4945C35.1759 51.316 35.1712 51.1159 35.1956 50.781C35.4237 50.9266 35.5877 51.0751 35.7486 51.0901C35.9095 51.1052 36.0662 50.9424 36.2877 50.799C36.2799 51.1554 36.2706 51.4451 36.2664 51.9572C36.1614 51.5835 36.1262 51.4516 36.0745 51.2981C36.0181 51.6344 35.5468 51.3884 35.688 51.9385C36.1598 52.2067 36.5359 51.8116 36.9984 51.6797C36.8598 51.9307 36.7211 52.1817 36.5825 52.4326C36.3078 52.3559 35.9927 52.6147 35.7434 52.2476C35.7263 52.2038 35.5995 52.2762 35.5364 52.3236C35.2229 52.6491 34.9793 52.5265 34.6989 52.2052C34.5504 52.0338 34.2721 51.8014 34.2064 52.4274C34.1934 52.5615 33.9384 52.6397 33.7806 52.758C33.6787 52.5178 33.5778 52.322 33.5101 52.1692C33.3657 52.1757 33.2374 52.1814 33.1252 52.1864C33.0967 52.3435 33.0838 52.4776 33.0548 52.6124C32.9389 52.4618 32.8561 52.3542 32.7899 52.2681C32.836 52.1771 32.8825 52.1082 33.0377 51.8788C32.7361 52.0258 32.5613 52.1003 32.403 52.1964C32.2871 52.0458 32.1717 51.9174 32.0559 51.7668C31.9032 52.1074 31.6756 51.9841 31.4676 52.0156C31.0667 52.0335 30.6653 52.0292 30.2804 52.0464C30.2643 52.0471 30.2473 52.0033 30.2142 51.9603C30.2281 51.8707 30.2416 51.7588 30.2395 51.6699C30.3989 51.6183 30.5427 51.5896 30.686 51.5387C30.3151 51.4662 29.9824 50.9692 29.5722 51.2768C29.5577 51.3443 29.5458 51.5228 29.5344 51.7236ZM4.33987 39.0288C4.18466 39.2583 4.16966 39.3035 4.15362 39.3042C4.04033 39.2647 3.89548 39.2489 3.82875 39.1406C3.62855 38.8158 3.27367 38.7426 3.11536 38.8387C2.81427 39.0079 2.57061 38.8853 2.28349 38.9648C2.27264 38.498 2.14902 38.0139 2.27267 37.8081C2.50393 37.3972 1.99903 37.086 2.31203 36.7382C2.79883 36.9613 3.3177 37.1829 3.85261 37.4038C3.86242 37.8262 3.87172 38.2263 3.88411 38.7599C3.99793 38.8215 4.14433 38.904 4.33987 39.0288ZM5.48936 39.4448C5.12983 39.1716 4.85203 38.9614 4.59079 38.7728C4.50492 38.5319 4.46716 38.2888 4.36681 38.1152C4.26697 37.9639 4.12005 37.8592 3.97262 37.7322C4.06678 37.639 4.0973 37.5709 4.1449 37.5465C4.19249 37.5221 4.25664 37.5193 4.30527 37.5394C4.45064 37.5774 4.59807 37.7043 4.72637 37.6986C4.88674 37.6914 5.15421 37.457 5.18783 37.5222C5.33992 37.8492 5.55514 37.4391 5.75327 37.675C5.90277 37.8909 6.20696 37.855 6.48218 37.954C6.40406 38.0465 6.35698 38.0931 6.30938 38.1175C6.24627 38.1648 6.18263 38.1899 6.08744 38.2387C6.47802 38.466 6.51268 38.5758 6.40403 38.7364C6.21003 38.6783 6.04811 38.6187 5.91826 38.5578C5.76564 38.8984 5.61146 39.1723 5.48936 39.4448ZM40.2183 52.07C39.3988 52.7297 38.5825 52.1431 37.7341 52.2477C37.7615 52.0462 37.7754 51.9566 37.8049 51.844C38.1096 51.8304 38.4133 51.7723 38.687 51.8046C38.9927 51.8355 39.3233 51.5537 39.5897 51.9646C39.8375 51.5752 40.0672 51.7875 40.3274 51.9317C40.4412 51.9933 40.6342 52.007 40.7123 51.9145C40.9927 51.5459 41.4164 51.8163 41.6937 51.3143C41.7341 51.6686 41.7708 51.8672 41.7915 52.0666C41.9048 52.106 42.002 52.1462 41.9374 52.1268C41.8779 52.3298 41.7883 52.6231 41.6688 53.0067C41.435 52.6166 41.2845 52.3563 41.1345 52.1182C41.0558 52.1884 41.0243 52.2121 40.9772 52.2587C41.0274 52.3455 41.077 52.41 41.1432 52.4961C41.0175 52.613 40.9084 52.7514 40.7516 52.9141C40.5524 52.6337 40.4019 52.3734 40.2183 52.07ZM26.4192 48.2353C26.0498 48.2296 25.7508 48.4877 25.3917 48.2367C25.0984 48.0495 24.699 48.1341 24.3524 48.4166C24.2267 48.5335 24.0596 48.9415 23.8258 48.5514C23.7756 48.4646 23.5857 48.5844 23.4238 48.5248C23.2293 48.4445 23.0208 48.4538 22.8837 48.0816C23.9743 47.3431 25.1005 48.1384 26.1709 47.9126C26.2536 48.0202 26.3364 48.1278 26.4192 48.2353ZM119.918 51.7389C119.771 51.6341 119.672 51.5273 119.592 51.5309C119.416 51.5387 119.254 51.4792 119.082 51.6872C119.004 51.7797 118.787 51.411 118.586 51.7316C118.477 51.9144 117.941 51.6491 117.857 51.4748C117.935 51.3601 117.997 51.2683 117.997 51.2683C118.36 51.0073 118.67 51.216 118.986 51.0238C119.224 50.8797 119.582 51.0863 119.905 51.1609C119.908 51.3165 119.912 51.4943 119.918 51.7389ZM102.773 51.0578C102.281 50.6346 101.787 50.7902 101.209 50.7938C101.429 50.5837 101.553 50.4001 101.697 50.3492C101.856 50.2753 102.049 50.3112 102.209 50.304C102.237 50.1025 102.251 50.0129 102.263 49.8566C102.424 49.8716 102.569 49.8652 102.778 49.8781C102.687 50.1269 102.626 50.2632 102.596 50.3535C102.666 50.5952 102.72 50.8376 102.773 51.0578ZM16.0493 47.5856C16.6598 46.913 17.1983 47.2895 17.7487 47.4875C17.0022 47.8323 17.0022 47.8323 16.0493 47.5856ZM56.5447 50.6736C56.3709 50.7926 56.2757 50.8414 56.1966 50.8894C56.1976 50.9339 56.2147 50.9776 56.2157 51.0221C56.4082 51.0135 56.6166 51.0042 56.8412 50.9942C56.8313 51.2616 56.8199 51.4624 56.7956 51.7973C56.5494 51.5635 56.4014 51.4144 56.1717 51.2021C55.9953 51.2099 55.7708 51.22 55.4982 51.2321C55.7796 50.908 56.014 50.6305 56.1707 50.4677C56.3326 50.5273 56.4304 50.5897 56.5447 50.6736ZM100.717 11.627C101.112 11.3646 100.912 11.0397 100.97 10.7923C101.058 10.4323 101.067 10.1204 101.418 10.0379C101.441 10.3262 101.159 10.6059 101.47 10.859C101.551 10.9221 101.497 11.3252 101.503 11.5919C101.278 11.6019 101.102 11.6098 100.717 11.627ZM109.274 49.6326C108.954 50.3813 108.52 49.6885 108.205 49.9474C108.2 49.7028 108.196 49.5472 108.191 49.3249C108.579 49.4411 108.972 49.0897 109.274 49.6326ZM112.899 10.104C112.804 10.1972 112.695 10.3134 112.585 10.4296C112.391 10.3492 112.163 10.2481 111.937 10.1692C111.933 9.99137 111.929 9.81353 111.924 9.61346C112.22 9.9118 112.667 9.13519 112.899 10.104ZM79.3766 49.4318C80.3823 49.1866 80.3823 49.1866 80.6337 49.6427C80.3306 49.723 80.0119 49.8262 79.6451 49.9316C79.5784 49.8233 79.4941 49.6491 79.3766 49.4318ZM114.806 9.97437C114.535 10.7431 114.471 10.7682 113.976 10.1894C114.051 9.96356 114.142 9.71473 114.216 9.46661C114.413 9.6581 114.61 9.82735 114.806 9.97437ZM37.894 9.37998C37.6989 9.96728 37.5427 10.1523 37.2344 10.0103C37.0399 9.92994 36.8438 9.78292 36.9638 9.4215C37.2685 9.4079 37.5733 9.3943 37.894 9.37998ZM114.112 11.8969C113.981 11.7693 113.834 11.6645 113.686 11.5154C113.62 11.4293 113.568 11.2981 113.468 11.1023C113.804 11.0873 114.029 11.0772 114.285 11.0658C114.353 11.2185 114.438 11.3928 114.522 11.5671C114.38 11.6847 114.238 11.8023 114.112 11.8969ZM58.0994 9.10107C57.7615 9.07164 57.4149 9.35416 57.1294 8.81056C57.207 8.69583 57.2691 8.60404 57.3622 8.46636C57.5872 8.47857 57.8283 8.49007 58.0849 8.47861C58.0901 8.70092 58.0932 8.8343 58.0994 9.10107ZM39.3824 49.9488C39.5779 50.0735 39.7569 50.1768 40.0176 50.3432C39.7621 50.3991 39.6188 50.45 39.4749 50.4787C39.6074 50.6508 39.7227 50.7792 39.8552 50.9513C39.6658 51.0933 39.5235 51.1887 39.3973 51.2833C38.9053 50.8379 39.297 50.4199 39.3824 49.9488ZM27.4563 50.726C27.8929 50.8622 28.3492 50.4636 28.7817 51.1119C28.3006 51.1333 27.8836 51.1519 27.4666 51.1706C27.463 51.0149 27.461 50.926 27.4563 50.726ZM2.05287 35.9486C2.16255 35.8325 2.27068 35.6496 2.39846 35.6217C2.60591 35.5679 2.8144 35.5586 3.02392 35.5937C3.08858 35.6131 3.15686 35.7881 3.20756 35.8971C2.9701 36.0412 2.79834 36.2492 2.62141 36.2348C2.44552 36.2649 2.26446 36.0727 2.05287 35.9486ZM115.995 52.1588C115.878 51.9637 115.794 51.8117 115.727 51.6812C115.835 51.4983 115.928 51.3606 115.959 51.3148C116.264 51.3011 116.488 51.2911 116.761 51.2789C116.479 51.5808 116.245 51.8583 115.995 52.1588ZM140.769 10.1505C140.646 10.3786 140.538 10.5837 140.43 10.7665C140.313 10.5492 140.16 10.1777 140.112 10.1799C139.906 10.3004 139.776 10.2616 139.622 9.82345C140.044 10.0494 140.451 9.58615 140.769 10.1505ZM67.5685 51.8282C67.4371 51.7006 67.3548 51.6152 67.2896 51.5736C67.3647 51.3478 67.4247 51.167 67.5002 50.9634C67.5965 50.9591 67.7092 50.9763 67.8049 50.9498C67.8846 50.924 67.9301 50.8107 68.0238 50.6952C68.1262 50.9577 68.1785 51.1334 68.2638 51.3521C67.9917 51.3865 67.7837 51.4181 67.6078 51.4482C67.5954 51.6045 67.5819 51.7164 67.5685 51.8282ZM38.8443 50.2843C38.9136 50.5038 38.9659 50.6795 39.0357 50.9211C38.5003 50.678 38.5003 50.678 38.5753 49.7622C38.7709 49.887 38.9499 49.9903 39.2106 50.1567C39.0352 50.209 38.9716 50.2341 38.8443 50.2843ZM39.3187 9.89497C38.9498 9.91143 38.597 9.92719 38.2121 9.94437C38.4377 9.28894 38.8459 9.58227 39.1651 9.50126C39.1971 9.49983 39.2623 9.54143 39.3115 9.58374C39.3135 9.67266 39.3156 9.76158 39.3187 9.89497ZM106.559 50.9555C106.319 50.9662 106.062 50.9777 105.789 50.9899C105.8 50.7446 105.795 50.5445 105.806 50.3215C106.114 50.4635 106.357 50.5639 106.601 50.6644C106.572 50.7992 106.573 50.8659 106.559 50.9555ZM25.0393 51.0341C25.0362 50.9007 25.0176 50.7903 25.0331 50.7674C25.4408 50.3486 25.7765 50.979 26.1619 50.984C25.8091 50.9998 25.4563 51.0155 25.0393 51.0341ZM113.162 9.71394C113.441 9.96853 113.81 9.92984 113.839 10.5071C113.296 10.6426 113.279 10.5989 113.162 9.71394ZM4.23505 33.8261C3.83722 33.9774 3.69704 33.4718 3.40218 33.218C3.90814 32.8838 4.03383 33.4568 4.23505 33.8261ZM63.6725 9.89819C63.3911 9.53244 63.209 9.29578 63.0099 9.01538C63.6157 8.83255 63.6819 8.91861 63.6725 9.89819ZM64.0998 51.7828C63.5975 51.5827 63.5975 51.5827 63.6254 50.7135C63.6896 50.7107 63.7698 50.7071 63.8339 50.7042C63.9058 51.0348 63.9932 51.3425 64.0998 51.7828ZM15.7439 52.406C15.3564 52.312 15.001 52.2166 14.6456 52.1212C14.6446 52.0768 14.6441 52.0545 14.6591 52.0094C15.0119 51.9936 15.3647 51.9779 15.7336 51.9614C15.7372 52.117 15.7393 52.2059 15.7439 52.406ZM104.84 50.1866C104.838 50.1199 104.837 50.0755 104.835 50.0088C105.076 49.998 105.333 49.9866 105.573 49.9758C105.582 50.3538 105.59 50.7095 105.598 51.0651C105.486 51.0479 105.405 51.0293 105.372 51.0085C105.414 50.7396 105.441 50.4936 105.497 50.135C105.224 50.1694 105.032 50.178 104.84 50.1866ZM62.269 51.0634C62.5396 50.9623 62.7786 50.8849 63.0491 50.7838C63.0988 50.8483 63.1655 50.9566 63.2317 51.0427C63.09 51.1603 62.9638 51.2549 62.8215 51.3503C62.7884 51.3073 62.7227 51.2434 62.673 51.1789C62.6265 51.2477 62.5639 51.3173 62.5173 51.3861C62.4506 51.2778 62.3683 51.1925 62.269 51.0634ZM100.671 52.4868C100.86 52.3449 101.034 52.2258 101.192 52.1075C101.356 52.2782 101.583 52.3793 101.432 52.7866C101.189 52.6862 100.93 52.5865 100.671 52.4868ZM131.606 8.91284C131.681 8.70918 131.743 8.59517 131.772 8.48258C131.801 8.32554 131.813 8.16921 131.84 7.94547C132.216 8.218 132.048 8.58157 132.119 8.91216C131.926 8.89853 131.798 8.90425 131.606 8.91284ZM110.13 49.8614C109.997 50.3792 109.848 50.1856 109.699 49.9697C109.637 50.0615 109.59 50.1303 109.45 50.3146C109.473 49.913 109.468 49.713 109.494 49.4448C109.739 49.6119 109.918 49.7374 110.13 49.8614ZM14.9629 47.8121C15.0141 47.9433 15.115 48.1391 15.1838 48.3363C15.2014 48.4023 15.1558 48.5156 15.1129 48.7401C14.9313 48.5256 14.7994 48.3758 14.6013 48.1398C14.7586 47.9993 14.8687 47.9053 14.9629 47.8121ZM28.2312 52.9835C28.2483 53.0272 28.2648 53.0487 28.2979 53.0918C27.8649 53.1111 27.4479 53.1297 27.0149 53.1491C27.0139 53.1046 27.0134 53.0824 27.0124 53.0379C27.4133 53.02 27.8303 53.0014 28.2312 52.9835ZM105.352 52.2111C105.561 52.2018 105.753 52.1932 105.962 52.1839C105.965 52.3173 105.967 52.4062 105.97 52.5618C105.762 52.5711 105.569 52.5797 105.361 52.589C105.357 52.4334 105.355 52.3445 105.352 52.2111ZM118.506 50.3999C118.363 50.4286 118.282 50.4321 118.219 50.4795C118.156 50.5268 118.11 50.6179 118.079 50.6638C117.932 50.5591 117.802 50.4759 117.655 50.3711C117.828 50.2299 118.002 50.1109 118.176 49.9918C118.275 50.1209 118.341 50.207 118.506 50.3999ZM36.7233 9.43224C36.7403 9.47599 36.7414 9.52044 36.7584 9.56419C36.5696 9.72839 36.3647 9.89332 36.1444 10.0812C36.1382 9.81442 36.1345 9.6588 36.1294 9.4365C36.3384 9.44942 36.5308 9.44083 36.7233 9.43224ZM81.271 51.5058C81.2001 51.9095 81.1101 52.1806 80.7878 52.1282C80.7826 51.9059 80.778 51.7059 80.7723 51.4613C80.9653 51.475 81.1101 51.4907 81.271 51.5058ZM82.5524 52.0717C82.6399 51.6895 82.7138 51.4192 82.7713 51.1273C82.869 51.1897 82.9337 51.2091 83.0475 51.2707C82.9099 51.5662 82.9689 52.0309 82.5524 52.0717ZM99.376 52.0328C99.0367 51.9367 98.8406 51.7897 98.9415 51.2956C99.2162 51.3723 99.4117 51.4971 99.376 52.0328ZM81.4934 52.0967C81.9311 51.5876 82.0744 51.5367 82.2244 51.7748C82.2105 51.8644 82.1965 51.9541 82.1831 52.066C81.9746 52.0753 81.7982 52.0831 81.4934 52.0967ZM101.983 52.2947C102.208 52.3069 102.401 52.3206 102.658 52.3314C102.534 52.5149 102.456 52.6297 102.379 52.7444C102.328 52.6576 102.279 52.5931 102.229 52.5063C102.166 52.5981 102.12 52.6669 101.995 52.8283C101.99 52.5837 101.987 52.4726 101.983 52.2947ZM103.172 52.3529C103.444 51.6064 103.444 51.6064 103.847 51.6774C103.674 51.8409 103.486 52.0274 103.172 52.3529ZM27.2494 50.8019C26.9478 50.9489 26.6462 51.0959 26.3353 50.8428C26.656 50.8284 26.9447 50.8156 27.2494 50.8019ZM24.6207 53.0556C24.6192 52.989 24.6182 52.9445 24.6326 52.8771C24.7609 52.8714 24.8898 52.8879 25.0015 52.8606C25.1293 52.8327 25.2555 52.738 25.3988 52.6871C25.4019 52.8205 25.3879 52.9101 25.391 53.0435C25.1179 53.0335 24.8773 53.0442 24.6207 53.0556ZM80.8272 51.0583C80.7935 50.993 80.7439 50.9285 80.7103 50.8632C80.8024 50.6811 80.8789 50.5219 80.9555 50.3627C81.0709 50.4911 81.1531 50.5764 81.2685 50.7048C81.0951 50.8461 80.9534 50.9637 80.8272 51.0583ZM10.3887 47.8605C10.5878 48.1409 10.7358 48.2901 10.936 48.615C10.6623 48.5827 10.518 48.5891 10.4052 48.5719C10.3995 48.3274 10.3954 48.1495 10.3887 47.8605ZM95.8318 51.5012C95.8396 51.1447 95.8494 50.8773 95.8551 50.4319C96.0093 50.8479 96.0951 51.0888 96.1981 51.3735C96.0868 51.423 95.9911 51.4495 95.8318 51.5012ZM14.6903 47.1344C14.8346 47.128 14.979 47.1215 15.1393 47.1144C15.1424 47.2478 15.1445 47.3367 15.1481 47.4923C15.0038 47.4987 14.8595 47.5052 14.6991 47.5123C14.6955 47.3567 14.6934 47.2678 14.6903 47.1344ZM47.567 51.8978C47.5985 51.8741 47.6466 51.872 47.6782 51.8483C47.747 52.0455 47.8153 52.2205 47.9016 52.4837C47.7413 52.4908 47.6771 52.4937 47.5809 52.498C47.5763 52.2979 47.5716 52.0978 47.567 51.8978ZM111.528 52.0021C111.348 51.8322 111.216 51.7045 111.003 51.5137C111.26 51.5023 111.404 51.4958 111.58 51.488C111.568 51.6443 111.555 51.7784 111.528 52.0021ZM28.7911 48.0627C28.5381 48.2298 28.2836 48.3301 28.0374 48.0963C28.294 48.0849 28.5506 48.0734 28.7911 48.0627ZM20.1205 52.1439C20.3735 51.9768 20.6275 51.8542 21.0507 52.1023C20.6177 52.1217 20.3611 52.1331 20.1205 52.1439ZM81.6524 9.18455C81.686 9.24981 81.7036 9.31578 81.7367 9.35881C81.5939 9.43195 81.4351 9.5058 81.2923 9.57893C81.2737 9.46849 81.2545 9.33583 81.2354 9.20316C81.3958 9.196 81.5241 9.19028 81.6524 9.18455ZM59.0321 10.5504C59.2266 9.9409 59.433 9.84266 59.7579 10.0062C59.537 10.1718 59.3632 10.2909 59.0321 10.5504ZM112.759 51.7692C112.55 51.7785 112.39 51.7856 112.214 51.7935C112.347 51.3202 112.347 51.3202 112.759 51.7692ZM63.4412 51.7677C63.2648 51.7756 63.1205 51.782 62.8639 51.7935C63.0672 51.5619 63.1929 51.445 63.3652 51.2593C63.3864 51.4808 63.4055 51.6135 63.4412 51.7677ZM4.091 40.0636C4.06047 40.1317 4.02943 40.1776 3.99891 40.2457C3.91769 40.2048 3.82095 40.1869 3.75525 40.1231C3.69007 40.0815 3.63937 39.9725 3.58971 39.9079C3.62075 39.862 3.65179 39.8162 3.6668 39.771C3.8132 39.8535 3.94408 39.9589 4.091 40.0636ZM117.437 51.36C117.327 51.4762 117.266 51.5902 117.186 51.616C117.139 51.6404 117.087 51.5092 117.022 51.4676C117.068 51.3765 117.114 51.2632 117.176 51.1936C117.224 51.1693 117.307 51.2768 117.437 51.36ZM114.976 51.1361C114.937 51.5384 114.925 51.7392 114.915 51.9622C114.799 51.8116 114.716 51.7263 114.634 51.6409C114.712 51.5262 114.774 51.4344 114.976 51.1361ZM104.716 51.7944C104.765 51.7922 104.813 51.7901 104.861 51.7879C104.851 52.0554 104.841 52.3229 104.847 52.5897C104.815 52.5911 104.783 52.5925 104.751 52.594C104.729 52.3279 104.723 52.0612 104.716 51.7944ZM79.8598 50.879C79.7335 50.9736 79.6559 51.0883 79.6233 51.0675C79.5576 51.0037 79.5069 50.8947 79.4568 50.8079C79.5033 50.7391 79.5649 50.6251 79.6135 50.6452C79.6787 50.6868 79.7449 50.7728 79.8598 50.879ZM40.3089 8.98287C40.445 9.3106 40.5127 9.46335 40.4956 9.41961C40.4667 9.55442 40.4387 9.7337 40.4103 9.89075C40.3937 9.86923 40.3611 9.84844 40.3446 9.82692C40.3244 9.64979 40.3198 9.44971 40.3089 8.98287ZM64.4061 51.146C64.5437 51.5404 64.6125 51.7377 64.6978 51.9564C64.5856 51.9614 64.5214 51.9643 64.4252 51.9686C64.42 51.7463 64.4154 51.5462 64.4061 51.146ZM28.1821 51.5614C28.0735 51.7221 28.0119 51.8361 27.9798 51.8375C27.8986 51.7966 27.8324 51.7106 27.7822 51.6238C27.7656 51.6023 27.8577 51.4201 27.8898 51.4187C27.97 51.4151 28.0517 51.4782 28.1821 51.5614ZM90.3372 51.3236C90.5193 51.5603 90.6016 51.6456 90.6518 51.7324C90.7019 51.8192 90.705 51.9526 90.7614 52.3061C90.5793 52.0694 90.4971 51.9841 90.4469 51.8973C90.4128 51.8098 90.4097 51.6764 90.3372 51.3236ZM36.6431 50.8944C36.7605 50.4219 36.7605 50.4219 37.1128 50.3839C36.9405 50.5696 36.8314 50.708 36.6431 50.8944ZM60.4547 51.7452C60.3285 51.8399 60.2509 51.9546 60.2183 51.9338C60.1526 51.87 60.1019 51.761 60.0517 51.6742C60.0983 51.6054 60.1598 51.4914 60.2084 51.5114C60.2736 51.553 60.3398 51.6391 60.4547 51.7452ZM114.682 10.8478C114.73 10.8457 114.778 10.8435 114.826 10.8414C114.816 11.1089 114.806 11.3763 114.813 11.6431C114.781 11.6445 114.748 11.646 114.716 11.6474C114.694 11.3813 114.688 11.1146 114.682 10.8478ZM97.8064 51.502C97.8747 51.677 97.9575 51.7846 97.9425 51.8297C97.8964 51.9208 97.8178 51.9911 97.7552 52.0606C97.7055 51.9961 97.6233 51.9108 97.6378 51.8434C97.6517 51.7537 97.7138 51.6619 97.8064 51.502ZM99.881 50.9643C99.9492 51.1393 100.032 51.2469 100.017 51.2921C99.971 51.3831 99.8923 51.4534 99.8297 51.523C99.7801 51.4584 99.6978 51.3731 99.7123 51.3057C99.7263 51.216 99.7884 51.1242 99.881 50.9643Z" fill="#F2800D"/>
<path d="M91.5743 5.75961C91.3064 5.97186 91.0498 5.29345 90.8542 5.85852C90.6701 5.53294 90.4326 5.67706 90.1595 5.667C90.2117 5.8427 90.264 6.0184 90.2841 6.19553C90.3043 6.37266 90.2924 6.55122 90.3933 6.747C90.4227 6.63441 90.4367 6.54478 90.4962 6.34184C90.5924 6.33754 90.7363 6.30887 90.8801 6.28019C90.8971 6.32394 90.8982 6.3684 90.9152 6.41214C90.8206 6.48313 90.7259 6.55412 90.474 6.76565C90.939 6.74488 91.2603 6.7528 91.5645 6.71696C91.9965 6.65317 92.3689 6.79232 92.6995 7.20038C92.7823 7.30796 92.9276 7.34597 93.042 7.42988C92.9949 7.47649 92.9643 7.54462 92.9178 7.61346C93.0016 7.76549 93.0694 7.91824 93.1697 8.09179C93.2949 7.95268 93.373 7.86018 93.4356 7.79063C93.55 7.87454 93.6638 7.93621 93.8593 8.06101C93.8174 7.64006 93.5112 7.58697 93.5189 7.23056C93.7243 7.08787 93.9452 6.92224 94.2137 6.73222C93.9111 6.14488 93.6421 5.6228 93.3736 5.12295C93.3426 5.16884 93.28 5.23839 93.2179 5.33018C93.1827 5.19823 93.1476 5.06628 93.1119 4.9121C92.8874 4.92212 92.6628 4.93214 92.3902 4.94431C92.3783 5.12287 92.3509 5.32438 92.324 5.54811C92.1957 5.55384 92.0674 5.55958 91.907 5.56673C91.8868 5.38961 91.8496 5.16873 91.8284 4.94714C91.7482 4.95072 91.668 4.9543 91.5397 4.96003C91.5625 5.24831 91.5687 5.51508 91.5743 5.75961Z" fill="#F2800D"/>
<path d="M96.147 5.6445C95.8397 5.54695 95.4766 5.80794 94.9841 5.34035C95.1522 5.66665 95.2029 5.77566 95.2696 5.88395C95.3364 5.99224 95.4031 6.10052 95.5686 6.31567C95.1837 6.33285 94.9272 6.34431 94.6706 6.35576C94.6747 6.53361 94.6768 6.62253 94.6804 6.77815C94.9851 6.76455 95.2737 6.75166 95.5945 6.73734C95.6017 7.04857 95.6079 7.31534 95.6162 7.67103C95.3596 7.68248 95.119 7.69322 94.8624 7.70468C94.8635 7.74914 94.8645 7.7936 94.8655 7.83806C95.1702 7.82446 95.4589 7.81157 95.7636 7.79797C96.1123 7.60437 95.8759 7.10309 95.9965 6.7639C96.1408 6.75746 96.2691 6.75173 96.3974 6.74601C96.4346 6.96688 96.4553 7.16624 96.476 7.3656C96.5081 7.36417 96.5401 7.36274 96.5562 7.36202C96.5676 7.16123 96.5955 6.98195 96.6069 6.78116C96.8775 6.68006 97.2308 6.68654 97.3265 6.66002C97.6286 6.53526 97.7812 6.88451 98.0611 7.18357C97.9965 6.47434 97.8884 5.96732 97.6214 5.53416C97.5304 5.76077 97.4553 5.98666 97.3643 6.21326C97.0596 6.22686 96.7709 6.23975 96.4502 6.25407C96.3498 6.08052 96.2484 5.86251 96.147 5.6445Z" fill="#F2800D"/>
<path d="M20.8175 6.82651C20.7565 6.96276 20.6799 7.12195 20.5733 7.3715C20.847 7.40379 21.04 7.41743 21.2495 7.45259C21.3323 7.56016 21.4316 7.68924 21.564 7.86136C21.803 7.78393 22.1129 7.99263 22.3452 7.6262C22.5087 7.75243 22.6877 7.8557 22.8672 7.98121C22.8982 7.93532 22.9608 7.86576 23.0074 7.79692C23.1067 7.92601 23.206 8.05511 23.2888 8.16268C23.4797 8.0874 23.6716 8.05657 23.8289 7.91603C23.9391 7.8221 23.9981 7.59692 24.0896 7.39255C22.9748 7.08626 21.9003 7.13423 20.8175 6.82651Z" fill="#F2800D"/>
<path d="M126.417 7.38644C126.445 7.20717 126.459 7.11753 126.501 6.87084C126.571 7.09028 126.622 7.22152 126.657 7.33124C127.014 7.5378 127.196 7.04013 127.547 6.97992C127.679 7.12981 127.861 7.36647 128.11 7.68919C128.187 7.57446 128.233 7.48338 128.327 7.36794C128.097 7.15565 127.918 7.03015 127.785 6.8358C127.652 6.64145 127.566 6.40049 127.448 6.13873C127.307 6.30079 127.228 6.37106 127.151 6.4858C127.115 6.35384 127.081 6.24412 127.027 6.02396C126.901 6.09638 126.775 6.19104 126.6 6.28784C126.518 6.22472 126.372 6.14224 126.258 6.08056C125.878 6.32005 125.968 6.73885 125.993 7.11606C126.107 7.17774 126.237 7.26093 126.417 7.38644Z" fill="#F2800D"/>
<path d="M130.768 7.3925C130.76 7.05904 130.752 6.70335 130.741 6.25874C130.457 6.44947 130.236 6.61511 129.967 6.80512C129.743 6.81514 129.664 6.19555 129.348 6.38771C129.205 6.48308 129.097 6.66594 128.957 6.85022C129.203 7.06179 129.383 7.23176 129.645 7.44261C129.95 7.42901 130.367 7.4104 130.768 7.3925Z" fill="#F2800D"/>
<path d="M57.8687 6.77473C57.9199 6.90596 57.9717 7.05943 58.0234 7.21289C57.9442 7.26094 57.8496 7.33193 57.6763 7.47319C58.0968 7.61019 58.4372 7.75076 58.8418 7.88848C59.2391 7.71497 58.8532 6.99782 59.1507 6.67299C58.9039 6.41696 58.7363 6.80276 58.5278 6.81207C58.3359 6.84289 58.1346 6.47356 57.8687 6.77473Z" fill="#F2800D"/>
<path d="M1.97141 15.1673C1.85295 14.9056 1.76864 14.7313 1.70036 14.5563C1.42772 14.5685 1.18716 14.5792 0.882455 14.5928C1.00505 15.0324 1.1561 15.315 1.46339 15.4125C1.85138 15.5287 2.22437 15.6901 2.61236 15.8063C2.69306 15.825 2.78774 15.754 2.96311 15.7017C2.64601 15.1817 2.33924 15.1064 1.97141 15.1673Z" fill="#F2800D"/>
<path d="M51.3398 52.5972C51.6901 52.4703 51.7635 52.1777 51.7082 51.8687C51.5426 51.6535 51.4102 51.4814 51.2116 51.2232C50.9757 51.434 50.6932 51.7137 50.3631 52.0177C50.4955 52.1898 50.5783 52.2974 50.6776 52.4265C50.8354 52.3082 50.9617 52.2135 51.1034 52.0959C51.2038 52.2695 51.2721 52.4445 51.3398 52.5972Z" fill="#F2800D"/>
<path d="M100.824 7.2605C101.078 7.11566 101.332 6.99305 101.585 6.84822C101.495 6.40718 100.932 6.36555 101.173 5.7094C100.995 5.65059 100.801 5.57026 100.59 5.46841C100.575 5.53582 100.546 5.6484 100.564 5.73661C100.64 6.22282 100.731 6.68608 100.824 7.2605Z" fill="#F2800D"/>
<path d="M126.834 3.89627C125.996 3.08801 125.299 3.49744 124.617 3.83946C125.305 3.74198 125.976 4.31285 126.834 3.89627Z" fill="#F2800D"/>
<path d="M63.0327 5.85433C62.9732 6.05727 62.8837 6.35056 62.7942 6.64385C62.6664 6.67181 62.5547 6.69906 62.4264 6.70479C62.3669 6.90773 62.3069 7.08843 62.2469 7.26914C62.3131 7.3552 62.3959 7.46277 62.4786 7.57034C62.5123 6.94574 62.8791 6.84035 63.2428 6.60158C63.2945 6.75505 63.3457 6.88628 63.415 7.10573C63.5412 7.01108 63.6675 6.91643 63.7932 6.79955C63.5288 6.47754 63.2805 6.15482 63.0327 5.85433Z" fill="#F2800D"/>
<path d="M146.296 51.1176C145.484 50.7088 144.855 51.271 144.151 51.3692C144.767 51.6087 145.135 51.57 146.296 51.1176Z" fill="#F2800D"/>
<path d="M45.6902 8.43108C44.9944 8.1951 44.282 8.62747 43.5324 8.1491C43.4414 8.3757 43.3348 8.62526 43.2748 8.80596C44.0042 8.41734 44.8614 8.69062 45.6902 8.43108Z" fill="#F2800D"/>
<path d="M85.1338 55.3836C84.9584 55.4359 84.7675 55.5112 84.5921 55.5635C84.5533 55.2759 84.5166 55.0773 84.4768 54.7453C84.4188 55.0149 84.3899 55.1497 84.3614 55.3068C84.185 55.3146 84.0086 55.3225 83.8642 55.329C83.7711 55.4666 83.6935 55.5814 83.6159 55.6961C83.6847 55.8933 84.4705 55.8582 85.3966 55.6389C85.2652 55.5112 85.1834 55.4481 85.1338 55.3836Z" fill="#F2800D"/>
<path d="M82.4897 55.5906C82.454 55.4364 82.4188 55.3045 82.3666 55.1288C82.2595 55.3561 82.1834 55.5375 82.0763 55.7648C82.4964 55.8796 82.8518 55.975 83.2067 56.0482C83.2636 55.7341 83.3055 55.4652 83.363 55.1733C83.3299 55.1303 83.2471 55.0227 83.1312 54.8721C83.1048 55.1181 83.0929 55.2966 83.0665 55.5426C82.8906 55.5727 82.7142 55.5806 82.4897 55.5906Z" fill="#F2800D"/>
<path d="M55.9608 6.88215C55.9686 7.21561 55.9722 7.37123 55.9763 7.54907C56.2034 7.6502 56.4305 7.75134 56.6902 7.87326C56.7787 7.53551 56.8687 7.26444 56.9727 6.90374C56.5873 6.89869 56.2976 7.55699 55.9608 6.88215Z" fill="#F2800D"/>
<path d="M118.671 5.64042C118.665 5.41811 118.665 4.72824 118.665 4.72824C118.337 4.4091 117.982 4.3137 117.441 4.53811C117.699 4.59335 117.843 4.56468 117.909 4.65074C118.041 4.80062 118.111 5.04229 118.227 5.1929C118.327 5.34422 118.473 5.44893 118.671 5.64042Z" fill="#F2800D"/>
<path d="M38.9711 7.37356C38.9727 7.44026 38.9582 7.50767 38.9618 7.66328C39.5578 7.74794 40.1331 7.63325 40.8077 7.64764C40.6582 7.43178 40.5754 7.3242 40.5092 7.23815C40.3664 7.31128 40.2759 7.56011 40.0622 7.34711C39.9634 7.24026 39.7114 7.45178 39.535 7.45966C39.3591 7.48976 39.1807 7.40872 38.9711 7.37356Z" fill="#F2800D"/>
<path d="M43.3771 51.2169C43.6104 51.5848 43.7765 51.8222 43.9099 52.0388C44.0698 52.0094 44.1821 52.0044 44.3104 51.9986C44.3466 51.4852 44.0026 51.189 43.3771 51.2169Z" fill="#F2800D"/>
<path d="M52.1319 51.4492C52.0517 51.4528 51.9876 51.4556 51.8111 51.4635C52.2224 51.8902 51.927 52.304 51.8727 52.7292C52.1293 52.7178 52.3217 52.7092 52.6264 52.6956C52.4593 52.4137 52.3429 52.2409 52.2581 52.0444C52.1898 51.8694 52.1686 51.6478 52.1319 51.4492Z" fill="#F2800D"/>
<path d="M138.21 7.10476C137.797 7.30122 137.441 6.4715 137.042 7.29041C137.427 7.27323 137.796 7.94663 138.21 7.10476Z" fill="#F2800D"/>
<path d="M126.592 4.57465C126.106 4.35159 125.666 4.77178 125.319 4.3422C125.241 4.45694 125.179 4.54872 125.086 4.6864C125.49 4.77966 125.861 4.89658 126.232 4.9468C126.344 4.94179 126.452 4.7367 126.592 4.57465Z" fill="#F2800D"/>
<path d="M141.899 11.1015C142.063 11.2722 142.227 11.4207 142.376 11.5921C142.55 11.473 142.708 11.377 142.866 11.2586C142.849 11.2149 142.847 11.126 142.815 11.1274C142.523 11.0291 142.233 10.9531 141.941 10.8548C141.943 10.9215 141.929 11.0112 141.899 11.1015Z" fill="#F2800D"/>
<path d="M117.017 7.02719C117.165 7.17636 117.247 7.26171 117.33 7.34705C117.48 6.91751 117.668 7.42094 117.843 7.32414C117.919 7.14271 117.978 6.93977 118.069 6.69094C117.988 6.67229 117.907 6.63141 117.843 6.65651C117.605 6.75617 117.382 6.85511 117.017 7.02719Z" fill="#F2800D"/>
<path d="M99.1501 7.06819C99.147 6.93481 99.1413 6.69027 99.1346 6.40127C98.9742 6.40843 98.862 6.41344 98.6535 6.42275C98.7393 6.66371 98.9338 6.74404 98.9866 6.94196C99.0399 7.16212 99.014 7.43032 99.0233 7.83047C99.2271 7.62109 99.3529 7.50421 99.4625 7.38805C99.3813 7.34717 99.3317 7.28262 99.1501 7.06819Z" fill="#F2800D"/>
<path d="M25.3943 7.5791C25.1186 7.45789 24.9246 7.39979 24.7141 7.32017C24.6711 7.54463 24.6132 7.81426 24.5557 8.10612C24.6038 8.10397 24.7016 8.16636 24.7492 8.14198C24.9541 7.97706 25.1424 7.79063 25.3943 7.5791Z" fill="#F2800D"/>
<path d="M12.1316 60C12.2992 59.6142 12.4213 59.3417 12.5429 59.047C12.4281 58.9408 12.2967 58.8132 12.1001 58.6439C12.1115 59.133 12.1197 59.4887 12.1316 60Z" fill="#F2800D"/>
<path d="M1.75443 47.9789C1.30281 47.8878 0.947921 47.8147 0.495779 47.7013C0.895651 48.3288 1.26606 48.3791 1.75443 47.9789Z" fill="#F2800D"/>
<path d="M7.23789 0C6.82402 0.151998 6.53742 0.253807 6.18718 0.380711C6.22236 0.512663 6.25908 0.711307 6.29115 0.709875C6.66104 0.73787 6.92903 0.525623 7.23789 0Z" fill="#F2800D"/>
<path d="M133.607 6.62037C133.527 6.62395 133.479 6.6261 133.431 6.62825C133.364 7.18759 133.451 7.47301 133.794 7.74697C133.721 7.34969 133.664 6.97391 133.607 6.62037Z" fill="#F2800D"/>
<path d="M1.08469 15.6965C0.965171 16.0801 0.889633 16.2838 0.814612 16.5097C1.0231 16.5004 1.21554 16.4918 1.53629 16.4775C1.3692 16.1956 1.25229 16.0006 1.08469 15.6965Z" fill="#F2800D"/>
<path d="M44.8023 51.7541C44.896 51.6387 44.9896 51.5232 45.0828 51.3856C45.0502 51.3648 45.0015 51.3447 44.9524 51.3024C44.805 51.1754 44.673 51.0255 44.493 50.8778C44.4997 51.1668 44.5059 51.4336 44.5137 51.767C44.6099 51.7627 44.7061 51.7584 44.8023 51.7541Z" fill="#F2800D"/>
<path d="M43.2707 7.24839C42.801 7.06907 42.4673 6.52762 42.1641 7.29778C42.4849 7.28347 42.8056 7.26915 43.2707 7.24839Z" fill="#F2800D"/>
<path d="M0 38.7997C0.35282 38.784 0.657528 38.7704 1.10657 38.7503C0.667367 38.5029 0.36785 38.0489 0 38.7997Z" fill="#F2800D"/>
<path d="M59.6194 6.11797C59.4409 6.03693 59.3111 5.97597 59.1817 5.93723C59.1667 5.98241 59.1672 6.00464 59.1522 6.04982C59.3504 6.28576 59.548 6.49948 59.7622 6.73471C59.7735 6.53392 59.7834 6.26643 59.7937 6.02118C59.6292 5.8505 59.6354 6.11726 59.6194 6.11797Z" fill="#F2800D"/>
<path d="M136.264 7.65895C136.241 7.32621 136.22 7.14908 136.195 6.74964C135.977 7.04867 135.853 7.21001 135.635 7.50903C135.893 7.5865 136.022 7.603 136.264 7.65895Z" fill="#F2800D"/>
<path d="M75.7401 55.9809C75.7432 56.1143 75.7452 56.2032 75.7478 56.3144C76.0417 56.5238 76.2139 56.3381 76.3976 55.9516C76.141 55.963 75.9486 55.9716 75.7401 55.9809Z" fill="#F2800D"/>
<path d="M0.850955 40.186C1.08064 40.3983 1.2617 40.5905 1.50742 40.802C1.50226 40.5797 1.51365 40.3789 1.50848 40.1566C1.28396 40.1666 1.09151 40.1752 0.850955 40.186Z" fill="#F2800D"/>
<path d="M61.0714 10.5707C60.9705 11.0647 61.0734 11.3494 61.4443 11.4219C61.7035 10.8317 61.0165 10.9737 61.0714 10.5707Z" fill="#F2800D"/>
<path d="M50.2849 53.49C50.5415 53.4785 50.718 53.4706 50.8783 53.4635C50.9404 53.3717 50.9404 53.3717 50.5426 52.8331C50.4671 53.0368 50.391 53.2182 50.2849 53.49Z" fill="#F2800D"/>
<path d="M86.5956 6.36019C86.6685 6.04538 86.712 5.84316 86.7834 5.46166C86.6121 5.69184 86.5656 5.76068 86.5345 5.80657C86.4042 5.72338 86.3064 5.66098 86.2086 5.59859C86.1155 5.73626 86.1155 5.73627 86.5956 6.36019Z" fill="#F2800D"/>
<path d="M48.7083 7.74001C48.536 7.92573 48.3948 8.06556 48.1915 8.29717C48.7559 8.4055 48.7559 8.4055 48.7083 7.74001Z" fill="#F2800D"/>
<path d="M49.1186 8.12226C49.311 8.11367 49.5034 8.10508 49.7119 8.09577C49.7088 7.96239 49.7062 7.85124 49.7016 7.65117C49.4802 7.79457 49.2898 7.89208 49.116 8.01111C49.117 8.05557 49.1175 8.0778 49.1186 8.12226Z" fill="#F2800D"/>
<path d="M3.15711 15.7598C3.41371 15.7483 3.59012 15.7404 3.7986 15.7311C3.72929 15.5117 3.66101 15.3367 3.60825 15.1388C3.46804 15.3231 3.34388 15.5066 3.15711 15.7598Z" fill="#F2800D"/>
<path d="M0.19797 43.1749C-0.0482963 43.6309 -0.0482963 43.6309 0.474193 44.0082C0.370738 43.7012 0.301941 43.504 0.19797 43.1749Z" fill="#F2800D"/>
<path d="M53.1939 52.9373C53.1991 53.1596 53.2037 53.3597 53.2089 53.582C53.3056 53.5999 53.3698 53.597 53.4826 53.6143C53.4774 53.3919 53.4733 53.2141 53.4676 52.9696C53.3703 52.9294 53.2741 52.9337 53.1939 52.9373Z" fill="#F2800D"/>
<path d="M37.4072 7.77719C37.565 7.65887 37.6913 7.56422 37.8485 7.42368C37.7011 7.29674 37.5858 7.16837 37.3892 6.99911C37.3974 7.3548 37.4026 7.57711 37.4072 7.77719Z" fill="#F2800D"/>
<path d="M89.4082 7.8814C89.6648 7.86995 89.9054 7.85921 90.162 7.84775C89.8997 7.61467 89.6452 7.71505 89.4082 7.8814Z" fill="#F2800D"/>
<path d="M55.8007 53.8891C56.0573 53.8776 56.2979 53.8669 56.7309 53.8476C56.2922 53.6223 56.0377 53.7227 55.8007 53.8891Z" fill="#F2800D"/>
<path d="M55.8646 7.57632C55.4983 7.70394 55.325 7.84519 55.37 8.39953C55.4941 8.21596 55.5722 8.12346 55.6343 8.03167C55.6959 7.91765 55.7575 7.80364 55.8646 7.57632Z" fill="#F2800D"/>
<path d="M87.0179 54.9434C86.8048 54.7526 86.6894 54.6242 86.5089 54.4543C86.482 54.678 86.4685 54.7899 86.4406 54.9692C86.617 54.9613 86.7613 54.9548 87.0179 54.9434Z" fill="#F2800D"/>
<path d="M79.0524 5.76228C79.056 5.9179 79.0576 5.98459 79.0607 6.11797C79.2691 6.10867 79.4936 6.09864 79.8785 6.08146C79.5055 5.92008 79.2955 5.8627 79.0524 5.76228Z" fill="#F2800D"/>
<path d="M85.5082 5.16253C85.3985 5.27869 85.2728 5.39557 85.0839 5.55978C85.2309 5.66449 85.3286 5.72689 85.4269 5.81152C85.4719 5.67598 85.5314 5.47304 85.5915 5.29233C85.5739 5.22635 85.5413 5.20556 85.5082 5.16253Z" fill="#F2800D"/>
<path d="M138.9 7.76384C138.747 7.4146 138.679 7.23962 138.577 6.99937C138.484 7.15928 138.422 7.25107 138.33 7.41098C138.476 7.51569 138.623 7.59817 138.9 7.76384Z" fill="#F2800D"/>
<path d="M45.9163 8.48776C46.1087 8.47917 46.3012 8.47058 46.5096 8.46127C46.5086 8.41681 46.5076 8.37235 46.5065 8.32789C46.3136 8.31425 46.1206 8.3006 45.9121 8.30991C45.9132 8.35437 45.9147 8.42107 45.9163 8.48776Z" fill="#F2800D"/>
<path d="M73.7451 6.73358C73.685 6.91429 73.6395 7.02759 73.6421 7.13874C73.6436 7.20544 73.7745 7.31086 73.79 7.28792C73.8526 7.21836 73.9147 7.12658 73.9442 7.01399C73.9432 6.96953 73.8449 6.8849 73.7451 6.73358Z" fill="#F2800D"/>
<path d="M113.251 4.54713C113.259 4.88059 113.263 5.05844 113.268 5.28074C113.533 4.95734 113.533 4.95734 113.251 4.54713Z" fill="#F2800D"/>
<path d="M2.60606 45.2482C2.69141 45.467 2.75969 45.6419 2.87867 45.9259C2.90403 45.6355 2.91542 45.4347 2.94078 45.1443C2.7654 45.1966 2.66969 45.2231 2.60606 45.2482Z" fill="#F2800D"/>
<path d="M119.87 4.74123C120.111 4.75272 120.256 4.76851 120.417 4.78359C120.413 4.62797 120.41 4.49459 120.406 4.33897C120.248 4.45729 120.106 4.55265 119.87 4.74123Z" fill="#F2800D"/>
<path d="M51.6178 7.20956C51.877 7.30926 51.9742 7.34942 52.0555 7.3903C52.1206 7.4319 52.1543 7.49716 52.2365 7.5825C52.2489 7.42617 52.2629 7.33653 52.2753 7.1802C52.115 7.18736 51.9546 7.19452 51.6178 7.20956Z" fill="#F2800D"/>
<path d="M112.772 7.43922C112.881 7.2786 112.959 7.18609 112.958 7.14163C112.923 7.03191 112.857 6.94585 112.792 6.88203C112.775 6.86051 112.65 6.99962 112.651 7.04408C112.653 7.15524 112.704 7.26424 112.772 7.43922Z" fill="#F2800D"/>
<path d="M117.127 6.91103C117.107 6.7339 117.196 6.4406 116.94 6.47429C116.892 6.47644 116.814 6.59117 116.816 6.65786C116.793 7.03722 116.998 6.89452 117.127 6.91103Z" fill="#F2800D"/>
<path d="M65.1764 8.98541C65.1811 9.18549 65.1832 9.27441 65.1863 9.4078C65.3466 9.40064 65.4749 9.39491 65.7315 9.38345C65.5029 9.21563 65.3725 9.13244 65.1764 8.98541Z" fill="#F2800D"/>
<path d="M134.919 7.11814C134.859 7.29885 134.814 7.41216 134.816 7.52331C134.818 7.59 134.949 7.69543 134.964 7.67248C135.027 7.60292 135.089 7.51114 135.118 7.39855C135.117 7.35409 135.019 7.26946 134.919 7.11814Z" fill="#F2800D"/>
<path d="M119.336 3.87492C119.528 3.86633 119.721 3.85775 119.929 3.84844C119.928 3.80398 119.927 3.75951 119.926 3.71505C119.733 3.70141 119.54 3.68777 119.348 3.69636C119.333 3.74154 119.334 3.80823 119.336 3.87492Z" fill="#F2800D"/>
<path d="M6.72501 5.56407C6.59464 5.48087 6.51291 5.41776 6.43272 5.42134C6.38461 5.42349 6.30856 5.60491 6.32511 5.62642C6.37529 5.7132 6.4415 5.79926 6.52272 5.84014C6.5548 5.83871 6.61585 5.70246 6.72501 5.56407Z" fill="#F2800D"/>
</svg>
