<svg width="203" height="60" viewBox="0 0 203 60" fill="none" xmlns="http://www.w3.org/2000/svg">
<path d="M169.849 7.41401C169.937 7.56676 170.004 7.72023 170.113 7.91672C169.911 8.10173 169.709 8.28673 169.485 8.45022C169.611 8.49039 169.737 8.53055 169.884 8.59223C169.413 8.80877 169.182 9.41759 168.551 9.1723C168.421 8.99875 168.289 8.78075 168.18 8.60648C167.913 8.70471 167.707 8.77856 167.481 8.85313C167.413 8.67743 167.368 8.54548 167.322 8.41353C166.549 8.2844 165.727 8.60204 164.865 8.2757C164.79 8.54533 164.695 8.83791 164.62 9.12977C164.489 8.91176 164.337 8.69447 164.229 8.54243C163.689 8.58328 164.129 9.39149 163.506 9.41297C163.5 9.21289 163.495 9.03505 163.487 8.76829C163.364 8.83927 163.303 8.86365 163.241 8.88803C163.18 8.91241 163.119 8.98125 163.078 8.98268C162.889 8.92243 162.593 8.75461 162.553 8.8005C162.374 9.07371 162.242 8.8557 162.075 8.81697C161.51 8.70291 160.912 8.85705 160.442 9.14029C159.911 9.4479 159.491 9.28437 159.028 9.10005C158.944 9.08068 158.917 8.88133 158.829 8.70635C158.496 8.7178 158.123 8.73069 157.728 8.74429C157.61 8.94866 157.492 9.17526 157.334 9.46999C156.83 9.30932 156.388 9.12428 155.907 9.00737C155.425 8.89045 154.925 8.84094 154.361 8.74912C154.339 8.70537 154.293 8.57342 154.248 8.4637C153.561 8.42063 153.561 8.42063 153.096 8.85948C153.072 8.74904 153.048 8.63861 153.001 8.4622C152.604 8.38688 152.147 8.40263 151.733 8.48364C151.382 8.54027 151.208 8.99132 150.842 9.27098C150.792 8.96118 150.744 8.76254 150.717 8.56318C150.696 8.54167 150.653 8.49863 150.653 8.49863C150.572 8.56819 150.451 8.70587 150.451 8.70587C150.045 8.31932 149.597 8.6463 149.136 8.52867C149.144 8.7732 149.148 8.92882 149.156 9.19559C148.929 9.22569 148.742 9.25437 148.515 9.28447C148.508 9.06217 148.482 8.88504 148.476 8.70719C148.056 8.54366 147.671 8.17863 147.184 8.57374C147.143 8.61963 146.993 8.46903 146.889 8.45038C146.243 8.40588 145.623 8.51628 145.098 9.0462C144.988 8.82747 144.921 8.67401 144.854 8.52054C144.773 8.59009 144.712 8.65893 144.652 8.72777C144.495 8.35486 144.13 8.65675 143.937 8.44089C143.679 8.16048 143.611 8.67465 143.338 8.5728C143.106 8.46953 142.797 8.56918 142.486 8.57992C142.492 8.78 142.497 8.95784 142.506 9.24684C142.046 9.17367 141.65 9.14281 141.253 9.06749C141.002 9.00939 140.764 8.70604 140.5 8.89319C140.255 9.0574 140.133 8.46074 139.916 8.84654C139.896 8.86949 139.855 8.89315 139.855 8.89315C139.247 8.02397 138.689 8.82209 137.945 8.98125C137.901 8.89376 137.812 8.69655 137.768 8.60906C136.933 8.50431 136.194 8.81909 135.575 8.28408C135.636 8.21524 135.695 8.12417 135.776 8.03238C135.67 7.9915 135.566 7.97285 135.398 7.93412C135.384 8.15714 135.349 8.35864 135.334 8.55944C135.273 8.58381 135.212 8.65266 135.17 8.63186C134.773 8.57877 134.386 8.81468 133.98 8.47259C133.788 8.30119 133.558 8.93224 133.193 8.54426C133.021 8.37214 132.649 8.45172 132.365 8.68405C132.182 8.82387 131.768 8.86042 131.577 8.73348C131.174 8.45809 130.782 8.58285 130.387 8.57422C130.075 8.56273 129.764 8.5957 129.453 8.60644C129.141 8.61718 128.79 8.69604 128.557 8.5483C128.218 8.33745 128.068 8.87671 127.75 8.66514C127.601 8.559 127.393 8.54392 127.184 8.50662C126.954 8.47004 126.64 8.39186 126.498 8.50802C126.155 8.85365 125.774 8.622 125.486 8.72095C125.314 8.54883 125.186 8.41974 125.078 8.31217C124.835 8.49861 124.611 8.68432 124.388 8.84781C124.455 9.00128 124.501 9.15546 124.613 9.41865C124.318 9.29529 124.149 9.2121 123.96 9.12962C124.018 8.99408 124.076 8.85855 124.153 8.65561C123.796 8.5344 123.481 8.43399 123.166 8.31134C123.088 8.49205 123.03 8.62758 122.913 8.89865C122.762 8.70358 122.653 8.55155 122.544 8.37728C122.42 8.38158 122.253 8.38731 122.067 8.39375C122.049 8.50562 122.032 8.61748 121.996 8.81899C121.83 8.82472 121.624 8.87634 121.456 8.81538C121.309 8.77593 121.16 8.64756 121.032 8.5407C120.733 8.28396 120.486 8.35924 120.184 8.68121C120.034 8.53061 119.883 8.38 119.733 8.2294C119.569 8.30182 119.222 8.51406 119.157 8.42729C118.835 8.08234 118.419 8.76429 118.134 8.26229C118.097 8.41934 118.059 8.53193 118 8.66746C117.53 8.92846 116.996 8.43505 116.486 8.78641C116.441 8.65446 116.395 8.52251 116.35 8.39056C116.308 8.36976 116.244 8.32744 116.182 8.32959C116.015 8.31309 115.827 8.2973 115.663 8.34749C114.819 8.62138 114.819 8.62138 113.989 7.98238C114.694 7.93581 115.316 7.89211 115.939 7.8484C115.937 7.80394 115.936 7.75947 115.935 7.71501C115.291 7.7372 114.647 7.7594 113.962 7.78302C113.885 8.00819 113.79 8.30077 113.715 8.54817C112.95 8.68581 112.267 8.79836 111.606 8.93243C111.391 8.69505 111.176 8.45767 111.004 8.26332C110.718 8.42896 110.554 8.52361 110.349 8.6197C110.356 8.842 110.363 9.08654 110.372 9.37554C109.977 9.38914 109.603 9.40203 109.23 9.41491C109.099 9.21913 108.946 8.9796 108.751 8.69705C108.528 8.905 108.367 9.06635 108.165 9.25135C108.078 9.12083 107.97 8.99103 107.86 8.79453C107.718 8.91069 107.637 8.98025 107.535 9.05052C107.22 8.95011 106.926 8.84897 106.633 8.77007C106.608 8.6374 106.584 8.5492 106.56 8.43876C106.274 8.58217 106.163 9.05331 105.805 8.88764C105.531 8.76356 105.156 8.75422 105.075 8.11168C104.938 8.40569 104.861 8.60863 104.723 8.88041C104.569 8.57419 104.502 8.42072 104.435 8.28948C104.121 8.87893 103.425 9.23674 102.771 8.9477C102.456 8.82506 102.187 8.8566 101.894 8.79993C101.601 8.74326 101.306 8.59767 101.036 8.6292C100.684 8.6636 100.387 8.47355 100.075 8.43983C99.7617 8.40611 99.3926 8.57461 99.1595 8.42688C98.8842 8.25834 98.5814 8.55807 98.3443 8.27694C98.28 8.2124 97.9952 8.4225 97.8083 8.42895C97.6429 8.45691 97.4748 8.39594 97.2658 8.35864C97.2497 8.51497 97.2349 8.71576 97.2021 9.00619C97.0333 8.92299 96.9074 8.88283 96.8424 8.79605C96.7131 8.64473 96.6448 8.44681 96.5791 8.3378C96.1692 8.52996 95.8409 8.67481 95.4718 8.84331C95.3821 8.62387 95.3365 8.49191 95.2689 8.31621C95.1047 8.38863 94.8602 8.55284 94.8174 8.50981C94.5595 8.2294 94.4195 8.41226 94.2171 8.59727C94.0751 8.71343 93.8688 8.76505 93.6638 8.86113C93.493 8.71125 93.3222 8.56136 93.1299 8.38996C93.0281 8.46023 92.9042 8.48676 92.8854 8.55416C92.596 9.29852 92.0179 9.42971 91.3507 9.3637C91.1491 8.88107 90.7391 9.76309 90.5562 9.21305C90.2441 9.20156 89.9527 9.18936 89.6613 9.17715C89.5112 9.02655 89.3826 8.89746 89.3183 8.83292C88.8675 9.04874 88.4368 9.24162 88.0067 9.45673C87.8942 9.17131 87.7816 8.8859 87.6678 8.55602C87.4668 8.78548 87.3254 8.92388 87.1841 9.06228C87.099 8.99845 87.034 8.91168 86.9704 8.86936C86.6824 8.96831 86.4151 9.06653 86.1893 9.16333C86.0165 8.94675 86.0869 8.52151 85.6374 8.7818C85.7291 9.06793 85.8015 9.39924 85.9394 9.83956C85.6882 9.78146 85.5422 9.76424 85.2696 9.68462C85.1677 9.75489 84.9219 9.87464 84.7182 10.0152C84.317 9.80648 84.4088 9.40275 84.4202 9.0908C84.1442 8.90003 83.8897 8.73078 83.6559 8.56081C83.0516 9.20475 82.6049 8.17423 82.0288 8.37212C81.7079 8.7615 81.5377 9.3237 80.8933 9.32366C80.981 9.47641 81.0467 9.58542 81.1116 9.6722C81.05 10.3864 80.3955 10.0529 80.09 10.2638C80.1684 10.7951 80.4477 11.0971 80.8885 11.2376C80.9287 11.1918 81.0098 11.1222 81.1303 10.9845C81.3688 11.3101 81.9436 11.0678 82.1324 11.8179C82.1874 11.5712 82.2242 11.4141 82.2785 11.1452C82.2135 11.0584 81.9764 10.7773 81.7386 10.474C82.377 10.2739 82.9953 10.0968 83.696 9.89465C83.9907 10.018 84.4114 10.1815 84.9165 10.3867C84.7323 10.482 84.5474 10.5552 84.4241 10.6039C84.5849 11.1102 84.6987 11.4401 84.8146 11.8367C84.9164 11.7664 85.0397 11.7176 85.1422 11.6696C84.8789 11.2113 85.2394 10.7538 85.0552 10.1593C85.709 10.4706 86.1994 9.4968 86.7614 10.2118C86.9442 10.072 87.0662 9.97874 87.2698 9.8382C87.3375 10.0139 87.383 10.1458 87.45 10.2993C87.8948 10.5733 88.503 10.0627 88.996 10.5576C89.0336 10.4228 89.0711 10.2879 89.1267 10.0635C89.337 10.1452 89.5259 10.2055 89.7992 10.3073C89.8575 10.1718 89.8944 10.0148 89.9326 9.90217C90.5173 9.99328 91.1115 10.3956 91.6535 9.75383C92.3334 10.2422 93.2692 9.5646 93.9592 10.3865C93.996 10.2294 94.0342 10.1168 94.0717 9.982C95.4946 9.59915 96.924 10.1285 98.3536 9.96791C98.4005 10.1443 98.4246 10.2548 98.4935 10.4749C98.6731 10.2239 98.7917 10.0196 98.9303 9.79225C99.3296 9.93426 99.7456 9.94217 100.265 9.92427C101.261 9.86768 102.279 9.85483 103.276 9.82046C103.38 9.81688 103.484 9.83553 103.548 9.87784C104.013 10.1511 104.446 10.0249 104.895 9.74239C105.066 9.89227 105.237 10.0644 105.493 10.2781C105.592 10.0967 105.65 9.96116 105.748 9.77973C105.769 9.77902 105.871 9.70874 105.955 9.7281C106.353 9.84788 106.756 10.1233 107.138 9.6873C107.824 9.6859 108.455 9.90896 108.954 10.6039C108.983 10.2023 108.995 9.91257 109.027 9.57768C109.508 9.67237 109.479 10.0962 109.674 10.3565C109.49 10.4519 109.346 10.5236 109.06 10.6892C109.413 10.677 109.665 10.7574 109.766 10.6426C109.926 10.4591 110.001 10.1672 110.177 9.80508C110.696 9.78718 111.34 9.76498 111.984 9.74279C112.478 10.2821 113.185 9.59011 113.7 10.1287C113.737 9.99388 113.775 9.85906 113.832 9.67907C114.165 9.71208 114.52 9.74437 115.019 9.77165C115.041 9.79316 115.191 9.94377 115.276 10.0076C115.668 9.90507 115.997 9.80469 116.43 9.6785C116.557 9.7409 116.789 9.8664 117.022 9.99191C117.062 9.94602 117.162 9.80906 117.204 9.82986C117.625 9.99339 118.122 9.95397 118.404 10.3448C118.585 10.1383 118.786 9.90883 118.967 9.70231C119.408 9.84289 119.741 9.8759 120.017 10.0444C120.271 10.2137 120.504 9.64933 120.766 10.0854C120.92 10.3471 121.317 10.4224 121.825 10.7165C121.649 10.411 121.605 10.3235 121.539 10.1922C121.599 10.1234 121.679 10.0094 121.759 9.9176C121.928 10.0008 122.096 10.0618 122.307 10.1658C122.334 10.3873 122.342 10.6319 122.369 10.8535C122.768 10.9955 123.148 11.1604 123.547 11.3025C123.753 11.2286 123.978 11.1318 124.246 11.0336C124.077 10.9504 123.95 10.888 123.718 10.7847C123.918 10.5108 124.098 10.2598 124.217 10.0999C124.733 9.97084 125.147 9.88983 125.58 9.78587C125.625 9.89559 125.67 10.0275 125.738 10.2032C126.381 9.46895 127.056 9.80173 127.753 10.156C127.998 9.99182 128.242 9.82762 128.548 9.63903C128.927 9.80399 129.329 10.0127 129.771 10.22C129.791 10.197 129.893 10.1045 130.055 9.9654C130.208 10.2272 130.319 10.4459 130.429 10.6646C130.335 10.9794 130.26 11.2713 130.147 11.6535C129.605 11.5832 129.062 11.5129 128.478 11.444C128.419 11.5573 128.361 11.7151 128.304 11.8728C127.779 11.7129 127.255 11.5529 126.73 11.393C126.871 11.2546 127.013 11.1384 127.337 10.838C126.88 10.8315 126.609 10.8186 126.318 10.8286C126.327 11.1176 126.335 11.3844 126.342 11.6067C125.835 12.047 125.4 11.3944 124.968 11.565C124.558 11.7349 124.143 11.7715 123.708 11.831C123.274 11.8905 122.839 11.2823 122.42 11.8531C121.859 11.8502 121.573 11.326 121.129 11.0743C121.174 11.184 121.238 11.2708 121.283 11.3805C121.201 11.4056 121.12 11.4751 121.078 11.4543C120.78 11.2421 120.503 11.0068 120.035 10.6447C120.151 11.0412 120.261 11.26 120.246 11.4385C120.23 11.6171 120.07 11.8007 119.991 11.9591C119.676 11.8587 119.383 11.7798 119.068 11.6794C119.064 11.546 119.059 11.3682 119.055 11.2348C118.926 11.1057 118.819 10.9981 118.69 10.869C118.633 11.0268 118.574 11.1623 118.478 11.4105C118.327 11.2376 118.219 11.1078 118.047 10.9135C117.928 11.0956 117.809 11.2777 117.709 11.4147C117.482 11.467 117.275 11.5187 116.987 11.5954C116.96 11.396 116.912 11.1974 116.886 10.998C116.844 10.9994 116.76 10.9801 116.74 11.003C116.62 11.1407 116.478 11.2569 116.379 11.4161C116.241 11.6879 116.189 12.0235 116.009 12.2522C115.849 12.458 115.581 12.5562 115.337 12.7204C115.311 12.5655 115.264 12.3669 115.216 12.1683C114.965 12.1102 114.735 12.0513 114.462 11.9717C114.443 12.0169 114.425 12.1288 114.389 12.308C114.244 12.3353 114.057 12.3417 113.809 12.3726C113.885 12.1474 113.963 11.9667 114.059 11.6963C114.329 11.687 114.661 11.6756 114.993 11.6641C114.991 11.5974 114.99 11.553 114.988 11.4863C114.78 11.4712 114.592 11.4554 114.384 11.4403C114.134 11.4489 113.906 11.4568 113.595 11.4675C113.582 11.735 113.57 12.0247 113.537 12.3152C113.474 12.2951 113.391 12.298 113.39 12.2757C113.381 11.9867 113.283 11.4783 113.078 11.5744C112.688 11.7436 112.614 11.3678 112.384 11.309C112.133 11.2509 111.843 11.3054 111.511 11.3168C111.476 11.5183 111.461 11.7191 111.427 11.9873C111.155 11.9299 110.882 11.8281 110.612 11.8152C110.341 11.8023 110.529 11.1282 110.08 11.4329C110.127 11.6093 110.195 11.785 110.2 11.9629C110.201 11.9851 110.036 12.0353 109.872 12.1077C109.82 11.7535 109.79 11.4652 109.738 11.1109C109.502 11.5641 109.307 11.9714 109.11 12.3565C108.773 12.1901 108.519 12.0431 108.244 11.8968C108.124 12.0345 107.982 12.1729 107.862 12.3105C107.276 12.175 106.709 12.0165 106.165 11.8795C106.198 11.6113 106.232 11.3431 106.284 10.9852C105.602 11.1422 105.641 11.7418 105.364 12.2186C105.315 11.9755 105.269 11.7991 105.22 11.5782C104.837 11.2577 104.603 11.7775 104.25 11.8119C104.215 12.0135 104.201 12.2365 104.167 12.4824C103.995 12.3103 103.887 12.1805 103.78 12.073C103.595 12.1239 103.43 12.1963 103.264 12.202C103.14 12.2063 103.031 12.032 102.907 12.0586C101.974 12.1575 101.912 12.1596 101.376 11.6217C101.333 11.5787 101.269 11.5142 101.183 11.4281C101.044 11.6554 100.926 11.882 100.787 12.0871C100.507 11.763 100.531 11.1613 99.923 11.0042C99.789 11.3872 99.6751 11.7471 99.503 12.2427C99.3469 11.892 99.2129 11.5851 99.1004 11.2996C98.8365 11.509 98.809 11.9773 98.4178 12.102C98.2938 12.1286 98.1699 12.1551 98.0473 12.2261C97.7211 12.4376 97.3862 11.6703 97.0706 12.2375C96.6968 12.2504 96.303 12.2862 95.9285 12.2769C95.7624 12.2826 95.6143 12.1987 95.4676 12.1592C95.1314 12.0373 94.8192 12.0258 94.578 12.3012C94.3456 12.1757 94.1132 12.0502 93.8378 11.8816C93.7568 11.9512 93.655 12.0215 93.4922 12.1383C93.4654 11.939 93.4185 11.7626 93.3917 11.5632C93.306 11.4771 92.9201 11.7797 92.8035 12.0508C92.5128 12.0608 92.2194 11.9819 91.9943 12.101C91.5026 12.3405 91.1456 12.2192 90.8201 11.7631C90.4074 11.8664 90.0061 12.3475 89.5533 11.8068C89.4957 11.9646 89.4582 12.0994 89.4207 12.2342C89.359 12.2586 89.2981 12.3052 89.2351 12.2851C89.0254 12.2256 88.8151 12.1438 88.5847 12.085C88.229 12.0082 87.8217 12.2893 87.5196 11.9214C87.2168 12.2212 86.8858 12.2771 86.5241 12.0003C86.3017 12.2082 85.9802 11.8855 85.7812 12.1816C85.3773 11.884 84.9439 11.988 84.5078 12.003C84.1548 12.0152 83.8232 12.0489 83.4695 12.0388C83.1366 12.028 82.8284 12.1499 82.4881 11.8946C82.2758 11.7462 81.8397 11.7612 81.5945 11.9032C80.9407 12.2818 80.2688 12.0601 79.4837 12.2207C79.4449 12.3111 79.3464 12.4925 79.1675 12.7657C79.1153 12.4115 79.0671 12.1906 79.0423 12.0579C78.7837 11.7553 78.6772 12.3598 78.42 12.1016C78.3128 11.9941 78.0435 12.0256 77.8358 12.0328C77.586 12.0191 77.3582 12.0492 77.109 12.0578C76.9804 11.9287 76.8726 11.7989 76.7439 11.6698C76.4572 11.8132 76.1926 12.0004 75.9039 12.0771C75.6152 12.1538 75.3024 12.1201 74.9701 12.1316C75.2655 11.5873 75.7164 11.3715 76.1893 11.1994C76.3159 11.2618 76.464 11.3457 76.5912 11.4303C76.7547 11.3357 76.8766 11.2424 76.9985 11.1492C77.1472 11.2554 77.2531 11.3185 77.3596 11.4038C77.6657 11.2152 77.9933 11.0482 78.3611 10.8352C78.4971 10.519 78.6719 10.1124 78.8662 9.66059C78.6981 9.59963 78.5721 9.55947 78.5092 9.53938C78.3297 9.1005 78.1508 8.68384 77.9506 8.24567C77.556 8.25928 77.2237 8.27073 76.85 8.28362C77.0214 8.45573 77.1923 8.60562 77.4066 8.82077C76.8921 8.99428 76.4942 9.58659 76.0555 8.82284C76.3 8.65864 76.5438 8.4722 76.85 8.28362C76.8614 7.97167 76.6564 8.06775 76.4902 8.07348C75.6181 8.10355 74.7666 8.13291 73.8945 8.16297C73.7558 8.39029 73.6171 8.61761 73.4791 8.86716C73.0176 8.7273 72.5111 9.16758 72.14 8.57952C71.9183 8.8097 71.7361 8.97176 71.5344 9.179C71.3663 9.11804 71.1741 8.94663 71.0294 8.97387C70.74 9.02836 70.521 8.6576 70.2362 8.86769C69.9716 9.05485 69.7412 8.99603 69.5262 8.75865C69.2857 9.05624 69.0378 9.1093 68.7384 8.83032C68.4758 9.08417 68.246 9.04758 67.9895 8.81163C67.5714 9.42689 66.9452 8.64735 66.4802 9.0862C66.2377 9.3171 65.933 8.86028 65.6067 9.07181C65.3615 9.21378 65.0681 9.13488 64.752 8.99001C64.4773 8.8437 63.9783 8.83866 63.7545 9.00214C63.3687 9.30475 62.9701 9.18497 62.5762 9.2208C62.1622 9.27958 61.7007 9.13972 61.3523 9.3075C60.9839 9.49823 60.6838 9.19702 60.375 9.29668C60.1901 9.36982 60.0052 9.44296 59.8196 9.49386C59.7165 9.51967 59.5939 9.59066 59.5303 9.54834C59.0232 9.27653 58.4866 9.40629 57.9453 9.38045C57.4664 9.35245 56.8655 9.41768 56.4977 9.63064C56.1393 9.46496 55.8232 9.32009 55.444 9.15513C55.3054 9.38245 55.2075 9.5861 55.0883 9.76824C54.8123 9.57748 54.6214 9.45054 54.2188 9.19737C54.6743 9.13716 54.9034 9.15152 55.0877 9.05615C55.2926 8.96007 55.4996 8.93068 55.7073 8.92352C55.57 8.50543 56.0536 8.68905 56.1066 8.37567C55.5667 8.39428 55.0214 8.23505 54.598 8.67247C54.4701 8.56561 54.4051 8.47884 54.32 8.41501C54.1994 8.55269 54.0788 8.69036 54.0186 8.7592C53.6642 8.72691 53.3313 8.71614 53.0178 8.66019C52.7257 8.62575 52.4859 8.2557 52.1007 8.58053C51.9386 8.71965 51.5166 8.51166 51.2453 8.4765C51.0872 8.749 50.9492 8.99854 50.7911 9.27104C50.4092 9.01716 50.0911 8.8056 49.7514 8.57251C49.5518 8.84644 49.3247 8.89878 49.0494 8.73024C48.7734 8.53947 48.4968 8.32647 48.1994 8.11419C48.19 7.80296 48.1806 7.49173 48.1726 7.22497C48.3341 7.06363 48.454 6.90371 48.5953 6.76532C48.5732 6.72157 48.5304 6.67855 48.5089 6.65703C48.3863 6.72802 48.2644 6.82123 48.1197 6.84848C47.9543 6.87643 47.7875 6.85993 47.6006 6.86637C47.5235 7.06931 47.425 7.25074 47.348 7.45368C47.3909 7.49671 47.4558 7.58349 47.563 7.69106C47.3567 7.74268 47.1711 7.79358 46.9233 7.84663C47.222 8.10337 47.5 8.36084 47.8209 8.66133C47.7009 8.82124 47.581 8.98115 47.4209 9.18695C47.2501 9.03706 47.019 8.95602 46.9514 8.78032C46.7913 8.29626 46.5508 7.90398 46.104 7.56332C46.0055 7.74475 45.8863 7.92689 45.7872 8.08609C45.4288 7.92041 45.053 7.86661 44.9358 7.42558C44.3014 7.759 44.156 7.76401 43.2685 7.28277C43.2283 7.32867 43.168 7.3975 43.0862 7.44483C42.7185 7.65779 42.3755 7.31356 42.0432 7.32502C41.6902 7.33719 41.3693 7.72656 41.0103 7.53865C40.7993 7.43466 40.7383 7.48127 40.532 7.53289C40.2433 7.60961 39.907 7.48768 39.4689 7.43602C39.4495 7.4812 39.3919 7.63896 39.3162 7.88636C39.1674 7.78021 39.0603 7.67265 38.783 7.43742C38.9297 7.47687 38.866 7.43455 38.8459 7.4575C38.1707 7.81458 37.4412 7.75072 36.7713 7.59579C36.2267 7.45879 35.5655 7.59285 35.0933 7.0973C35.0076 7.01124 34.7389 7.06501 34.5949 7.11448C34.4509 7.16395 34.331 7.32386 34.2506 7.41565C34.339 7.59063 34.406 7.7441 34.4723 7.87533C33.923 8.27258 33.4682 7.66515 32.9738 7.81572C33.1875 8.00864 33.381 8.2245 33.6162 8.43893C33.5672 8.88569 33.2169 8.98679 32.8036 9.0678C33.0152 9.19402 33.2276 9.34247 33.4393 9.4687C33.3589 9.56049 33.2584 9.67522 33.1579 9.78995C32.9422 9.53034 32.7131 9.51598 32.4746 9.88027C32.4257 9.63716 32.3989 9.4378 32.3507 9.21693C31.7659 9.12582 31.2126 9.38969 30.6526 9.43125C30.1756 9.46995 29.5111 9.49286 28.9792 9.77824C28.9129 9.647 28.8452 9.47131 28.712 9.18661C28.6925 9.23178 28.7508 9.09625 28.8292 8.93777C28.787 8.91697 28.7227 8.85243 28.6604 8.85458C27.9336 8.87964 27.2054 8.86023 26.4799 8.92975C26.0445 8.96702 25.4416 8.96555 24.9995 8.78051C24.8809 8.98488 24.7838 9.21076 24.6652 9.41513C24.5172 9.33122 24.347 9.20357 24.3269 9.22652C24.067 9.56928 23.8064 9.19995 23.5579 9.23077C23.2471 9.26374 22.9349 9.25225 22.6234 9.26299C22.0212 9.28375 21.4512 8.99186 20.8309 9.10226C20.3345 9.18613 19.8301 9.00324 19.3096 8.97668C18.9345 8.9451 18.7817 8.70558 18.5486 8.55784C18.4475 8.65034 18.3456 8.72061 18.1835 8.85972C18.0288 8.5535 17.8962 8.29103 17.785 8.05008C17.8453 7.98124 17.8654 7.95829 17.8855 7.93535C18.2305 7.65641 18.6277 8.42159 18.9439 7.8766C19.3177 7.86372 19.7116 7.82788 20.086 7.83722C20.3989 7.87095 20.7137 7.97136 21.0064 8.02803C21.1411 7.66733 21.257 7.37403 21.4118 6.99039C22.2638 7.67313 23.2358 7.50609 24.0584 7.90055C24.1428 7.94215 24.2882 7.93714 24.3699 7.88981C25.1054 7.46389 25.9026 7.70345 26.6883 7.56509C26.683 7.38725 26.6783 7.23164 26.6703 6.96487C26.2731 6.88955 25.7954 6.90601 25.3948 6.71954C25.1209 6.59546 25.0016 6.7776 24.8348 6.7611C24.5434 6.74889 24.2172 6.96042 23.958 6.63556C23.7416 6.35372 23.552 6.96111 23.2928 6.63624C23.2278 6.54946 22.9585 6.581 22.8138 6.60824C22.296 6.6706 21.7762 6.66626 21.2724 6.5056C21.2517 6.50632 21.2289 6.44034 21.1874 6.44178C20.2127 6.51989 19.2441 6.10821 18.2527 6.32042C18.0671 6.37133 17.9036 6.46597 17.7603 6.53767C17.4595 6.21424 17.1594 5.91303 16.8386 5.61254C16.5103 5.75738 16.2846 5.85418 16.018 5.97464C15.5015 5.3916 14.7211 5.7078 14.1075 5.35064C13.1161 5.56285 12.1656 5.06154 11.1735 5.25152C11.0234 5.10091 10.8526 4.95103 10.724 4.82194C10.4956 4.82982 10.3087 4.83626 10.101 4.84342C9.80355 5.321 9.7774 5.83374 9.85442 6.32066C9.38415 6.58167 9.47461 6.13347 9.23949 5.91904C9.0345 6.01512 8.78932 6.1571 8.48184 6.30122C8.63456 6.54075 8.72164 6.67127 8.78728 6.78027C8.69749 7.2507 8.42215 7.77202 8.53735 8.14637C8.67733 8.65337 8.58821 9.14602 8.73354 9.83087C8.5212 9.68242 8.43679 9.64082 8.26665 9.51317C8.12798 9.74049 7.94911 10.0137 7.79033 10.264C7.61618 10.0029 7.50566 9.78419 7.37504 9.58841C6.89742 9.60488 6.462 9.64215 6.00447 9.63567C5.67155 9.6249 5.3634 9.74678 5.02311 9.49147C4.85297 9.36382 4.45908 9.39965 4.21256 9.49716C3.72086 9.73665 3.18027 9.73304 2.66446 9.86209C3.02083 9.96107 3.35643 10.0608 3.8595 10.1992C3.4502 10.4136 3.18425 10.5563 2.93907 10.6983C3.00872 10.9406 3.09915 11.1823 3.17014 11.4692C3.5868 11.4993 4.02423 11.5287 4.58692 11.5761C4.70951 11.5051 4.97479 11.3402 5.2816 11.1738C5.34858 11.3273 5.39346 11.437 5.46111 11.6127C5.66877 11.6056 5.91796 11.597 6.18792 11.5877C6.22344 11.3862 6.23818 11.1854 6.27303 10.9616C6.64682 10.9487 6.7982 11.1438 6.8491 11.4536C6.92076 11.7627 6.99175 12.0495 7.06542 12.4253C6.44511 12.5357 5.83884 13.113 5.13684 12.5808C4.9151 12.811 4.71011 12.9071 4.49242 12.5808C4.31823 13.0096 4.11729 12.5492 3.93173 12.6001C3.56062 12.7019 3.14663 12.7607 2.77618 12.8847C2.46736 12.9844 2.18199 13.1723 1.82762 13.14C1.72379 13.1436 1.60522 13.3479 1.44444 13.5315C2.52695 13.5832 3.4527 13.9518 4.47225 13.9835C5.38797 14.0186 6.27687 14.5443 7.29441 14.5093C7.46656 14.7036 7.66082 14.9417 8.02788 15.3964C7.44041 15.2163 7.10481 15.1166 6.6848 14.9754C6.50326 15.1596 6.26142 15.4128 6.03968 15.6429C5.99681 15.5999 5.93251 15.5354 5.82533 15.4278C5.76771 15.5856 5.7101 15.7433 5.67258 15.8781C5.88225 15.9377 6.21852 16.0596 6.57555 16.1808C6.58024 16.3364 6.58559 16.5143 6.59227 16.7366C6.23724 16.6821 5.85877 16.5393 5.54861 16.5945C5.21769 16.6504 4.93837 16.3485 4.54983 16.5622C4.30465 16.7042 3.79422 16.3212 3.52827 16.4639C3.13907 16.6553 2.85841 16.309 2.5315 16.4983C2.47321 16.6338 2.3754 16.8375 2.25883 17.1085C2.72103 17.2706 3.18391 17.4549 3.70908 17.6371C3.73319 17.7476 3.75931 17.9247 3.78609 18.124C4.49549 18.2108 5.22565 18.2969 6.03954 18.4024C6.61093 18.7388 6.14668 19.1998 6.01603 19.6939C5.7655 19.6581 5.5143 19.6 5.26377 19.5641C5.243 19.5648 5.22023 19.4988 5.1787 19.5003C4.75602 19.27 4.42105 19.8824 3.9756 19.5863C3.53014 19.2901 3.14829 19.726 2.75574 19.8063C2.34176 19.8651 2.37924 20.4202 2.17961 20.6941C2.36914 21.4664 3.30365 20.7444 3.47243 21.5174C3.95005 21.5009 4.38614 21.4859 4.78069 21.4723C4.91198 21.6903 5.02116 21.8646 5.15111 22.0381C5.47598 22.472 5.47598 22.472 5.11757 22.9962C4.19784 22.8276 3.4342 22.3199 2.46692 21.9526C2.51514 22.1735 2.54059 22.3284 2.56537 22.4611C2.56537 22.4611 2.62767 22.4589 2.6692 22.4575C3.14548 22.3966 2.96323 23.2485 3.56278 23.1388C3.85217 23.0843 4.21455 23.3834 4.53073 23.5283C4.6359 23.5691 4.72097 23.633 4.84757 23.6954C4.30896 24.4483 4.09531 23.5655 3.63778 23.559C3.51854 23.7412 3.37919 23.9463 3.20032 24.2195C3.11726 24.2224 2.9518 24.2503 2.78634 24.2783C2.73407 24.6139 2.6818 24.9495 2.61077 25.3525C2.81844 25.3453 3.06763 25.3368 3.35836 25.3267C3.32619 25.6394 3.31211 25.8624 3.27994 26.1751C3.11649 26.2697 2.85121 26.4346 2.60603 26.5766C2.69511 26.7738 2.80429 26.9481 2.93691 27.2106C3.16267 27.1138 3.38775 26.9947 5.18367 27.2666C6.54819 27.7092 6.32444 27.8727 6.15631 27.8117C5.21113 27.4882 4.18823 27.3454 3.50298 26.6792C3.58003 26.4763 3.63698 26.2963 3.69593 26.183C3.99 26.2841 4.28608 26.4519 4.32627 26.406C4.56544 26.064 4.75768 26.2354 5.01156 26.3824C5.18103 26.4878 5.49654 26.6105 5.61913 26.5395C6.12892 26.2104 6.39015 26.6019 6.73044 26.8572C6.73779 27.1018 6.74515 27.3463 5.18367 27.2666C3.79234 27.3146 3.94974 27.7097 4.10848 28.1493C3.96445 28.1988 3.86129 28.2246 3.71727 28.2741C3.6657 27.9421 3.63624 27.6538 3.58066 27.1884C3.40648 27.6172 3.31134 27.9098 3.19477 28.1808C3.09027 28.1622 2.965 28.1442 2.8404 28.1485C2.65418 28.1772 2.44718 28.2066 2.26229 28.2797C2.11827 28.3292 1.97625 28.4454 1.7927 28.563C2.02648 28.7329 2.23882 28.8814 2.45116 29.0299C2.35068 29.1446 2.31048 29.1905 2.25019 29.2593C2.5456 29.4049 2.81957 29.529 3.09421 29.6753C3.09756 29.7865 3.1009 29.8976 2.98232 30.102C3.24827 29.9593 3.41105 29.8424 3.59461 29.7248C3.55508 29.7929 3.53632 29.8603 3.49679 29.9285C3.6435 29.9679 3.81163 30.0289 3.95833 30.0683C3.91814 30.1142 3.89871 30.1594 3.85851 30.2053C3.60865 30.1917 3.33869 30.201 2.98232 30.102C3.00041 30.0123 2.83295 29.9736 2.79275 30.0195C2.53215 30.34 2.29232 30.6599 1.99287 31.0707C2.30637 31.1267 2.51536 31.164 2.72436 31.2013C2.72838 31.3347 2.73038 31.4014 2.73373 31.5125C2.54817 31.5634 2.36194 31.5921 2.11409 31.6452C2.36863 31.8144 2.58164 31.9851 2.83686 32.1766C2.41882 32.7918 2.02022 33.3619 1.62228 33.9542C1.68792 34.0633 1.75424 34.1945 1.84198 34.3472C1.65776 34.4426 1.51507 34.5365 1.37172 34.6082C1.56393 35.4695 1.67308 36.3336 2.39785 36.9318C2.63297 37.1462 2.80913 37.4739 2.92232 37.7816C3.05628 38.0885 3.08775 38.4435 3.16075 38.797C3.03749 38.8458 2.93499 38.8938 2.79097 38.9433C2.81307 38.987 2.83651 39.0752 2.85795 39.0968C2.96245 39.1154 3.06494 39.0674 3.17011 39.1082C3.48428 39.1864 3.63566 39.3815 3.60483 39.7386C3.57199 40.029 3.43131 40.1897 3.16202 40.2212C2.99589 40.2269 2.82976 40.2327 2.68439 40.2377C2.64487 40.3058 2.60467 40.3517 2.60467 40.3517C2.64821 40.417 2.71185 40.4593 2.77615 40.5238C2.7373 40.6142 2.67767 40.7052 2.56043 40.9541C2.82705 40.8336 2.99117 40.7612 3.13453 40.6895C3.26916 41.0186 3.42321 41.3026 3.90217 41.3306C4.3396 41.3601 4.90096 41.363 5.19098 42.0206C4.80177 42.212 4.49229 42.2894 4.17009 41.9445C3.7836 41.535 3.3234 41.4396 2.76806 41.6368C2.9288 42.1431 3.38432 42.0829 3.83045 42.4013C2.8551 42.4572 2.02111 42.3746 1.10469 43.0071C0.906391 43.3255 1.69751 43.365 1.70955 43.7651C2.23071 43.8139 2.34658 44.2105 2.29833 44.6795C2.72973 44.5088 2.72973 44.5088 2.50669 44.0047C2.69359 43.9982 2.85905 43.9703 3.04594 43.9638C3.08413 43.8512 3.12165 43.7164 3.1585 43.5594C3.51153 43.5472 3.88532 43.5343 4.30064 43.52C4.31469 43.9868 4.32873 44.4537 4.34211 44.8983C4.66229 45.1766 4.8418 45.6154 5.31541 45.4656C5.46746 45.6829 5.59874 45.9009 5.72936 46.0967C5.91358 46.0013 6.03617 45.9303 6.32222 45.7647C6.21166 46.2358 6.13796 46.5499 6.0656 46.9085C7.03355 47.2979 8.04842 47.1739 9.01169 47.4078C9.01436 47.4967 9.01771 47.6078 9.02172 47.7412C8.62716 47.7548 8.25337 47.7677 7.90035 47.7799C7.78779 48.1843 7.67389 48.5443 7.58076 48.9036C7.39386 48.91 7.2485 48.915 6.97854 48.9243C7.05826 48.8103 7.09779 48.7422 7.17684 48.606C7.02813 48.4998 6.83455 48.284 6.68985 48.3112C6.17404 48.4402 5.72525 48.0329 5.2081 48.1175C5.52424 48.9522 5.69438 49.0799 6.70186 49.4012C7.01669 49.5016 7.3121 49.6472 7.52244 49.729C7.93973 50.4712 7.3549 51.07 7.4989 51.7104C7.23629 51.9642 7.06277 52.4153 6.53894 52.2775C6.44447 52.5924 6.3299 52.9301 6.21534 53.2679C6.67621 53.3855 7.07411 53.4831 7.47335 53.6251C7.64148 53.686 7.48873 54.1364 7.81764 54.0138C8.06416 53.9162 8.26714 53.7535 8.61415 53.5412C8.94641 53.5298 9.4448 53.5126 9.92242 53.4961C10.0222 53.3592 10.1428 53.2215 10.2232 53.1297C10.4671 52.9433 12.8585 52.9721 13.2578 53.1141C13.3381 53.0223 13.3984 52.9535 13.519 52.8158C13.4755 52.7505 13.4319 52.6853 13.3455 52.577C13.3857 52.5311 13.4246 52.4407 13.4849 52.3719L15.0939 51.9604C15.4382 52.349 15.867 52.0895 16.2629 52.1203C16.7418 52.1483 17.2764 51.9519 17.6971 52.1154C18.1385 52.2782 18.6516 52.0602 18.9497 52.2948C19.3958 52.6132 19.9231 52.1722 20.27 52.6498C20.2921 52.6935 20.3946 52.6455 20.4784 52.6649C21.311 52.7029 22.1644 52.7403 22.9978 52.8005C23.3521 52.8328 23.7092 52.954 24.0629 52.9641C24.3965 52.9971 24.7481 52.9405 25.1018 52.9505C25.1849 52.9477 25.2505 53.0567 25.3792 53.1858C25.3718 52.9412 25.3671 52.7856 25.3611 52.5855C25.2338 52.5009 25.0844 52.3725 24.7649 52.1165C25.477 52.2922 25.477 52.2922 25.9258 52.6996C25.9894 52.7419 26.1335 52.6924 27.1764 52.8123C27.8008 52.8352 27.4417 52.6473 27.3607 52.7169C27.1597 52.9464 26.8549 52.4895 26.7631 52.8933C26.5937 52.7878 26.4041 52.7054 26.2339 52.5777C26.1917 52.5569 26.2487 52.3769 26.2661 52.265C26.8924 52.3547 27.4973 52.4229 28.1022 52.491C28.1049 52.58 28.1076 52.6689 27.1764 52.8123C26.4101 52.9054 26.5836 53.1442 26.735 53.3393C27.1503 53.325 27.5469 53.3781 27.8972 53.277C28.3923 53.1487 28.7968 53.4685 29.2751 53.4743C29.6911 53.4822 30.1044 53.4012 30.5673 53.5855C31.0302 53.7698 31.6713 53.6587 32.1871 53.5297C32.4142 53.4773 32.5147 53.3626 32.7893 53.5089C33.0425 53.6337 33.3949 53.5993 33.7044 53.5219C33.973 53.4681 34.127 53.7521 34.4138 53.6087C34.6589 53.4667 34.9691 53.4115 35.237 53.3355C35.4018 53.2853 35.6162 53.5004 35.775 53.2502C35.7951 53.2272 35.9866 53.3764 36.1126 53.4166C36.3229 53.4983 36.6819 53.6862 36.7221 53.6403C36.9412 53.3212 37.1187 53.6934 37.3036 53.6203C37.5093 53.5465 37.6921 53.4066 37.9782 53.241C37.7069 53.2058 37.5193 53.19 37.3103 53.1527C37.2869 53.0645 37.2628 52.9541 37.2601 52.8652C37.3003 52.8193 37.3197 52.7741 37.3405 52.7734C37.8596 52.7555 38.358 52.7383 38.8772 52.7204C38.9013 52.8308 38.9254 52.9413 38.9508 53.0962C39.3622 52.9485 39.752 52.7793 40.1647 52.676C40.2678 52.6502 40.4353 52.6889 40.5411 52.7521C40.9015 52.9844 41.2103 52.8848 41.5359 52.651C41.6431 52.7586 41.7288 52.8446 41.8574 52.9737C42.248 52.8267 42.6781 52.6116 43.1034 52.9308C43.1885 52.9946 43.2923 52.991 43.3961 52.9874C44.7473 52.9854 46.1071 53.2723 47.473 53.0694C48.1148 52.9805 48.721 53.0932 49.3734 53.36C49.2951 53.5184 49.216 53.6547 49.1195 53.9028C49.7807 53.7687 50.3373 54.3059 51.1164 53.9452C50.5089 53.7881 50.0272 53.6712 49.4203 53.5364C49.7278 53.3922 49.912 53.2969 50.117 53.2008C50.3019 53.1277 50.4881 53.099 50.6938 53.0251C50.947 53.1499 51.2632 53.2948 51.6215 53.4605C51.4782 53.5322 51.3563 53.6254 51.1921 53.6978C51.3623 53.8255 51.5116 53.9538 51.7032 54.103C51.8178 53.7653 51.8935 53.5179 51.99 53.2697C52.0087 53.2023 52.0905 53.155 52.1106 53.1321C52.3001 53.2145 52.4696 53.32 52.617 53.3817C52.56 53.5616 52.5024 53.7194 52.4461 53.9216C53.0316 54.035 53.0169 53.5459 53.175 53.2734C53.3619 53.267 53.6091 53.1917 53.7779 53.2749C53.9681 53.3796 54.0954 53.4642 54.3185 53.2785C54.2823 53.4578 54.2253 53.6378 54.1891 53.817C54.1891 53.817 54.2535 53.8816 54.295 53.8801C54.5033 53.8952 54.7103 53.8658 54.918 53.8587C55.541 53.8372 56.182 53.7261 56.943 54.1449C56.7682 53.8616 56.7233 53.7519 56.6134 53.5554C57.0716 53.5841 57.4649 53.5261 57.842 53.6243C58.1562 53.7025 58.4355 53.3146 58.7986 53.6359C59.0337 53.8503 59.5294 53.7442 59.9253 53.775C59.9414 53.6187 59.9769 53.4172 59.9916 53.2164C60.0332 53.215 60.0539 53.2143 60.0955 53.2128C60.1223 53.4122 60.1698 53.6108 60.1973 53.8324C60.6334 53.8174 61.0694 53.8024 61.5678 53.7852C61.5839 53.6288 61.6194 53.4273 61.6536 53.1814C62.7234 53.5005 63.7758 53.2417 64.8576 53.2712C64.8549 53.1823 64.873 53.0926 64.873 53.0926C64.303 52.8007 63.7115 52.4873 63.1214 52.2184C62.8681 52.0936 62.8487 52.1388 62.5841 51.636C63.2212 51.3915 63.5869 51.8018 63.9942 52.2105C64.0317 52.0757 64.0692 51.9409 64.163 51.6039C64.2347 51.9129 64.3037 52.1331 64.3519 52.354C64.4122 52.2851 64.4933 52.2156 64.5536 52.1467C64.9414 51.9108 65.3293 51.6749 65.7373 51.4161C65.5463 51.2891 65.5799 51.0209 65.271 51.1206C65.0038 51.2188 64.567 51.2116 64.3955 51.0395C64.0948 50.7161 63.7826 51.3944 63.5609 50.9348C63.0618 50.9297 62.5413 50.9031 62.0215 50.8988C61.984 51.0336 61.9659 51.1233 61.9284 51.2581C61.5251 51.6726 61.2813 51.1691 60.9617 50.9131C60.9644 51.002 60.9275 51.8489 60.9121 52.0275C60.7098 51.5226 60.5739 51.149 60.4158 50.7316C60.2342 50.9159 60.0728 51.0773 59.8712 51.2845C59.6789 51.1131 59.5074 50.941 59.3795 50.8341C59.2348 50.8614 59.1122 50.9324 59.0486 50.89C58.8577 50.7631 58.6882 50.6577 58.6158 51.0162C58.6788 51.0363 58.7424 51.0786 58.7846 51.0994C58.6433 51.2378 58.5428 51.3526 58.4215 51.468C58.4235 51.5347 58.4262 51.6236 58.4289 51.7125C58.7618 51.7233 59.0941 51.7119 59.4263 51.7004C59.4377 52.0783 59.4484 52.434 59.4584 52.7675C59.2562 52.2626 58.6727 52.216 58.4289 51.7125C58.2453 51.8301 58.0839 51.9915 57.901 52.1313C57.8581 52.0883 57.7938 52.0237 57.7081 51.9377C57.3899 52.416 56.9819 52.6748 56.4688 52.2029C56.0582 52.3729 55.7139 51.9842 55.2986 51.9985C55.2155 52.0014 55.1277 51.8486 55.0206 51.741C55.5277 51.323 56.2304 51.8773 56.5218 51.1997C56.2264 51.0541 55.9095 50.887 55.5512 50.7213C55.3314 51.0182 55.038 50.9393 54.7399 50.7048C54.5215 51.0461 54.125 50.993 53.8939 50.912C53.6199 50.7879 53.354 50.9306 53.0793 50.7843C52.8469 50.6588 52.4972 50.7821 52.2065 50.7921C52.2795 50.4558 52.3344 50.2091 52.3887 49.9402C52.9266 49.8549 53.486 49.7911 54.1478 49.6793C54.1706 49.7452 54.2804 49.9417 54.3702 50.1612C54.4311 50.1146 54.4921 50.068 54.5531 50.0214C54.5705 49.9095 54.608 49.7747 54.6449 49.6176C54.7902 49.6126 54.9564 49.6069 55.164 49.5997C55.1868 49.6657 55.2323 49.7977 55.2993 49.9511C55.4447 49.9461 55.6108 49.9404 55.8185 49.9332C55.8366 49.8436 55.8741 49.7088 55.9317 49.551C56.0771 49.546 56.2432 49.5403 56.4093 49.5345C56.4877 50.0659 56.9573 49.7827 57.2098 49.8853C57.4831 49.9871 57.812 49.8645 58.1249 49.8982C58.2495 49.8939 58.3566 50.0015 58.504 50.0632C58.5837 49.9492 58.6835 49.8122 58.7633 49.6982C59.2643 49.7699 59.6649 49.9564 60.1814 49.8496C60.7394 49.7413 61.3979 49.5183 61.972 49.9436C62.4335 49.3936 62.686 50.186 63.0806 50.1724C63.3258 50.0305 63.5911 49.8655 63.8563 49.7006C64.0466 49.8053 64.2837 50.0864 64.4559 49.5909C64.545 49.7881 64.6119 49.9416 64.7004 50.1166C65.1505 49.8785 65.5813 49.6857 66.1091 49.9568C66.3623 50.0815 66.7529 49.9346 67.063 49.8794C67.2492 49.8507 67.4341 49.7775 67.5996 49.7496C67.6679 49.9475 67.7128 50.0572 67.7804 50.2329C68.0598 49.845 68.3412 49.5237 68.8911 49.8386C68.9347 49.9039 69.0231 50.0788 69.1122 50.276C69.072 50.3219 69.0123 50.413 68.9319 50.5048C69.0364 50.5234 69.143 50.6088 69.2253 50.5837C69.7385 50.3657 70.2309 50.1485 70.7433 49.9083C70.8505 50.0158 70.959 50.1679 71.107 50.2518C71.2758 50.335 71.4848 50.3723 71.6724 50.3881C71.7977 50.406 71.9209 50.3572 72.0656 50.33C72.071 50.5078 72.0763 50.6857 72.0824 50.8858C71.7293 50.8979 71.3555 50.9108 71.0025 50.923C70.8672 51.2615 70.7727 51.5763 70.5992 52.0273C70.3608 51.0119 69.5422 51.4407 69.0733 51.0563C68.9841 51.5489 68.895 52.0416 68.7878 52.6239C68.9747 52.6174 69.1201 52.6124 69.2447 52.6081C69.1295 52.2338 69.4169 52.1126 69.6359 51.7935C69.8737 52.0968 70.0472 52.3357 70.2635 52.6175C70.3634 52.4805 70.4632 52.3436 70.6233 52.1378C70.831 52.1306 71.0969 51.9879 71.4158 52.2217C71.5437 52.3286 71.8706 52.1393 72.2417 52.0375C72.1446 52.2633 72.1071 52.3982 72.0059 52.4907C71.8646 52.6291 71.7011 52.7237 71.5182 52.8635C71.6515 53.1482 71.7835 53.3885 71.9382 53.6947C71.971 53.4043 72.0065 53.2028 72.0387 52.8901C72.6228 52.959 73.207 53.0278 73.8541 53.1168C73.7643 52.8974 73.6967 52.7217 73.5855 52.4807C73.9177 52.4693 74.1669 52.4607 74.4577 52.4506C74.4838 52.6278 74.5099 52.8049 74.5373 53.0265C74.6412 53.0229 74.7664 53.0408 74.9118 53.0358C74.8227 52.8386 74.735 52.6859 74.6238 52.4449C74.9962 52.3876 75.3071 52.3546 75.6594 52.3202C75.7599 52.2055 75.8805 52.0678 76.0413 51.8842C76.3226 52.2528 76.6039 52.6214 76.906 52.9893C77.2142 52.8674 77.5223 52.7455 77.8305 52.6237C77.7655 52.5369 77.6804 52.4731 77.5726 52.3433C78.0087 52.3282 78.4032 52.3146 78.8393 52.2996C78.844 52.4552 78.8493 52.633 78.858 52.922C79.1461 52.8231 79.4931 52.6108 79.5574 52.6754C79.8374 52.9995 80.0109 52.5485 80.242 52.6295C80.4939 52.7099 80.7444 52.7457 81.0164 52.8031C81.2355 52.484 81.5182 52.2072 81.9301 52.0817L82.9216 51.8695C83.1721 51.9054 83.4012 51.9198 83.6913 51.8875C84.2908 51.7778 84.3142 51.866 84.5494 51.3906C84.5882 51.3002 84.6271 51.2099 84.7055 51.0514C84.2848 50.8879 83.8226 50.7258 84.0725 50.0496C84.6982 50.117 84.8435 50.8019 85.4383 51.2264C85.4156 51.1605 85.1221 51.0816 85.3794 50.6499C85.6112 50.7531 85.8637 50.8557 86.0741 50.9375C86.0807 51.1598 86.0861 51.3376 86.0961 51.6711C85.9628 51.3864 85.8965 51.2551 85.8295 51.1017C85.7485 51.1712 85.6882 51.2401 85.4591 51.2257C85.1751 51.458 85.0819 51.8173 84.692 51.9865C85.1295 52.016 85.6051 51.9328 85.8958 52.6126C85.9467 52.2326 85.9615 52.0318 85.9755 51.8088C86.4391 52.0153 86.8463 52.4241 87.3943 51.9824C87.5772 51.8426 87.9128 51.9422 88.1828 51.9329C88.2109 52.1768 88.237 52.3539 88.2638 52.5533C88.6376 52.5404 89.0114 52.5275 89.4059 52.5139C89.5064 52.3991 89.627 52.2615 89.7677 52.1008C89.9961 52.093 90.394 52.1905 90.5146 52.0528C90.796 51.7316 90.9741 52.126 91.2006 52.0514C91.4471 51.9539 91.6722 51.8349 91.918 51.7152C91.9368 51.6477 91.9542 51.5359 91.9723 51.4462C91.9924 51.4233 92.0125 51.4003 92.0533 51.3767C92.1639 51.5954 92.2945 51.7912 92.4264 52.0314C92.9871 52.0121 93.5471 51.9705 94.0877 51.9742C94.6075 51.9785 95.1414 51.7598 95.6304 52.1213C95.6881 51.9635 95.7256 51.8287 95.7819 51.6264C96.6091 52.1765 97.5215 52.1006 98.4138 52.0475C99.1815 51.9988 99.929 51.973 100.698 51.9688C101.01 51.9581 101.308 51.5027 101.594 52.0492C101.69 51.7788 101.728 51.644 101.765 51.5092C101.917 51.7265 102.069 51.9438 102.201 52.1618C102.302 52.0693 102.361 51.9782 102.463 51.8857C102.631 51.9689 102.8 52.0521 102.969 52.1353C103.112 52.0414 103.254 51.9474 103.438 51.8298C103.568 52.0256 103.698 52.1992 103.786 52.3297C104.011 52.2329 104.153 52.1167 104.299 52.1117C105.25 51.9454 106.214 52.2015 107.151 52.2582C107.464 52.2919 107.813 52.1686 108.173 52.3787C108.469 52.5465 108.922 52.3974 109.296 52.3845C109.753 52.3687 110.19 52.3759 110.646 52.338C111.868 52.1846 113.065 52.6106 114.309 52.4787C114.619 52.4457 114.937 52.6351 115.285 52.4451C115.469 52.3497 115.822 52.3375 115.971 52.4659C116.333 52.7427 116.679 52.5083 117.036 52.6072C117.069 52.339 117.104 52.1153 117.137 51.8471C117.374 52.106 117.568 52.3219 117.718 52.4947C117.844 52.5349 117.906 52.5327 117.969 52.5528C118.262 52.6095 118.568 52.4209 118.847 52.7006C119.083 52.9372 119.413 52.1692 119.7 52.7157C119.937 52.3069 120.201 52.8096 120.469 52.7114C120.757 52.6347 121.09 52.6455 121.403 52.6792C121.591 52.695 121.762 52.8449 121.949 52.8607C122.095 52.8779 122.229 52.4949 122.405 52.8227C122.427 52.8664 122.551 52.8177 122.593 52.8385C122.953 53.0486 123.304 52.2799 123.673 52.8012C124.065 52.7209 124.487 52.9289 124.852 52.6048C125.8 53.0394 126.841 52.3805 127.79 52.8373C127.959 52.9205 128.186 52.8682 128.393 52.861C129.536 52.8216 130.678 52.7823 131.82 52.7429C132.173 52.7307 132.504 52.697 132.858 52.7071C133.129 52.72 133.509 52.9294 133.672 52.8126C134.018 52.5558 134.335 52.723 134.665 52.6448C135.201 52.4928 135.69 52.8543 136.226 52.7245C136.329 52.6987 136.479 52.8271 136.662 52.7095C136.846 52.5919 137.115 52.5381 137.324 52.5754C138.535 52.7784 139.866 52.7771 141.023 52.5369C141.209 52.5082 141.42 52.6344 141.628 52.6273C142.314 52.6259 143.019 52.5793 143.705 52.5557C143.933 52.5478 144.18 52.4503 144.374 52.6884C144.439 52.7752 144.668 52.7895 144.75 52.7422C145.278 52.3457 145.865 52.5035 146.426 52.4841C147.775 52.4154 149.125 52.3688 150.475 52.3445C150.807 52.3331 151.156 52.1653 151.457 52.4887C151.499 52.5317 151.644 52.5045 151.727 52.4794C152.546 52.0951 153.383 52.2665 154.236 52.2816C154.277 52.2802 154.342 52.367 154.385 52.41C154.855 52.1268 155.277 51.6449 155.895 52.1354C156.022 52.2423 156.29 52.1441 156.497 52.1369C158.408 52.071 160.298 52.0059 162.208 51.94C162.603 51.9264 162.994 51.8017 163.356 52.0785C163.757 51.5973 164.145 52.0513 164.541 52.0821C164.957 52.09 165.372 52.0757 165.787 52.0392C166.035 52.0084 166.282 51.9108 166.632 51.8097C166.803 51.9819 167.061 52.24 167.275 52.4552C167.544 52.4236 167.859 52.5241 167.783 52.0816C168.047 51.8722 168.277 51.9088 168.493 52.1684C168.666 51.7174 168.969 52.1075 169.217 52.0544C169.403 52.0258 169.69 51.8823 169.797 51.9899C170.096 52.2467 170.402 52.0581 170.694 52.0925C170.945 52.1284 171.252 51.9843 171.448 52.2891C171.569 52.1514 171.69 52.0137 171.85 51.8301C172.12 51.8208 172.412 51.833 172.722 51.8C173.696 51.6775 174.648 51.5556 175.642 51.4101C175.657 51.2315 175.693 51.03 175.724 50.6729C175.902 51.0673 176.034 51.3298 176.168 51.6367C176.66 51.3973 177.108 51.0925 177.757 51.2482C178.24 51.3873 178.814 51.145 179.371 50.9922C179.246 50.9743 179.12 50.9341 178.995 50.9162C178.432 50.8688 177.875 51.0216 177.306 50.7741C176.97 50.63 176.498 50.8465 176.104 50.8823C176.103 50.8379 176.1 50.749 176.075 50.6163C176.324 50.5855 176.592 50.5317 176.842 50.5453C177.531 50.6329 178.19 50.4321 178.807 50.2106C179.383 50.0127 179.88 49.9288 180.446 50.0873C180.613 50.126 180.837 49.9848 181.044 49.9554C181.375 49.8995 181.726 49.8206 182.059 49.8092C182.391 49.7977 182.705 49.8759 183.06 49.9304C183.096 49.7511 183.114 49.6615 183.13 49.5052C183.599 49.1775 183.866 49.7691 184.322 49.7311C184.321 49.7089 184.359 49.5741 184.397 49.4615C184.459 49.4371 184.52 49.3905 184.582 49.3883C185.831 49.4343 187.029 49.1927 188.156 48.642C188.361 48.546 188.632 48.5811 188.861 48.5732C189.754 48.5424 190.646 48.5117 191.581 48.4794C191.595 48.2564 191.59 48.0786 191.605 47.9C192.116 47.5931 192.605 47.2647 193.279 46.8632C193.755 46.8022 194.423 46.8905 195.27 46.7277C194.976 46.6266 194.85 46.5864 194.682 46.5255C194.741 46.4122 194.78 46.3218 194.839 46.2308C194.628 46.1268 194.418 46.045 194.27 45.9611C194.044 46.0356 193.838 46.1095 193.509 46.2321C193.689 46.0034 193.749 45.9345 193.809 45.8434C193.446 45.5222 193.21 45.9754 192.837 46.0105C192.81 45.8111 192.784 45.6118 192.757 45.4124C193.729 45.2676 194.64 45.1249 195.592 44.9809C195.692 44.8661 195.813 44.7285 195.933 44.5908C196.863 44.3807 197.791 44.1484 198.699 43.9391C198.206 43.422 197.642 43.3302 196.986 43.6421C196.877 43.4678 196.747 43.2943 196.616 43.0985C196.739 43.0275 196.8 42.9809 196.861 42.9565C198.105 42.8246 199.369 42.7143 200.613 42.6046C200.986 42.5695 201.273 42.4261 201.53 41.9944C201.008 41.9012 200.591 41.871 200.181 42.0632C200.038 42.1349 199.853 42.208 199.707 42.1908C198.956 42.1054 198.224 41.9749 197.326 41.8278C198.055 41.1796 198.803 41.1538 199.527 41.062C199.398 40.2209 198.653 40.3133 198.227 39.9942C198.326 39.8128 198.383 39.655 198.501 39.4284C197.748 39.2763 197.088 39.4548 196.359 39.391C196.415 39.1665 196.535 39.0066 196.721 38.978C196.948 38.9256 197.157 38.9851 197.208 38.6051C197.225 38.471 197.593 38.258 197.781 38.296C198.262 38.3907 198.697 37.6414 199.172 38.2258C199.605 38.0996 200.037 37.9735 200.49 37.8243C200.697 37.7727 200.881 37.6773 201.085 37.559C200.772 37.5253 200.435 37.3589 200.175 37.7239C199.915 37.3546 199.547 37.5675 199.213 37.5345C198.88 37.5015 198.57 37.5567 198.231 37.3681C197.957 37.2218 197.545 37.3695 197.213 37.381C196.881 37.3924 196.528 37.4046 196.133 37.4182C196.852 37.8162 196.874 37.8377 197.81 37.8722C197.528 38.1712 197.211 38.0041 196.963 38.0572C196.653 38.1124 196.34 38.0787 195.987 38.0908C195.878 37.9166 195.747 37.7208 195.573 37.4598C195.029 37.3228 194.252 37.7501 193.728 36.9225C194.824 36.7512 195.839 36.605 196.873 36.4358C196.89 36.3239 196.908 36.2343 196.926 36.1224C197.567 36.0113 198.228 35.8772 198.869 35.7661C198.964 35.4513 199.059 35.1587 199.153 34.8439C200.257 34.9171 201.268 34.6597 202.279 34.4024C202.341 34.378 202.38 34.3098 202.5 34.1499C202.374 34.1098 202.249 34.0918 202.123 34.0517C202.163 34.0058 202.183 33.9828 202.223 33.9369C202.202 33.9154 202.159 33.8724 202.159 33.8724C202.057 33.9427 201.937 34.0803 201.833 34.0839C200.276 34.1598 198.718 34.1913 197.119 34.2464C197.062 33.7366 196.312 33.6957 196.457 32.9785C196.849 32.876 197.241 32.7735 197.654 32.6702C197.715 32.6459 197.819 32.6423 197.818 32.5978C198.065 31.8327 198.695 32.0335 199.212 31.9489C199.667 31.8887 200.12 31.7396 200.576 31.7016C201.011 31.6421 201.469 31.6708 202.009 31.6522C201.691 31.4406 201.498 31.247 201.165 31.2362C200.458 31.2161 199.738 31.4857 199.061 31.0862C198.534 31.5495 198.019 30.9886 197.461 31.1191C196.904 31.2496 196.278 31.1599 195.697 31.2022C194.847 31.276 194.034 31.215 193.173 30.9331C193.438 30.746 193.682 30.5596 193.865 30.4197C194.668 30.1695 195.491 30.5862 196.203 30.0721C196.616 30.6587 196.99 29.9782 197.386 30.009C197.782 30.0399 198.157 30.0492 198.544 29.7911C198.768 29.6276 199.146 29.7703 199.456 29.7151C199.746 29.6606 200.013 29.5624 200.301 29.4635C200.548 29.3659 200.793 29.2462 201.203 29.054C200.911 29.0196 200.807 29.0009 200.724 29.0038C199.808 28.9686 198.912 28.9105 197.997 28.8753C197.914 28.8782 197.808 28.815 197.724 28.7957C197.598 28.7555 197.472 28.7153 197.366 28.6522C197.175 28.5031 197.024 28.3302 196.853 28.1581C197.419 27.649 198.091 27.8706 198.709 27.6713C198.125 27.6246 197.596 27.3091 196.995 27.3743C196.622 27.4094 196.224 27.2897 195.827 27.2366C195.817 26.9031 195.81 26.6586 195.8 26.3251C196.049 26.3165 196.32 26.3517 196.567 26.2764C196.815 26.2233 196.995 25.9724 197.308 26.0283C197.579 26.0635 197.869 26.009 198.139 25.9997C198.409 25.9904 198.7 25.9803 199.053 25.9682C199.15 25.7423 199.246 25.4942 199.362 25.2009C199.194 25.1399 199.11 25.0983 199.026 25.0789C198.815 24.9972 198.605 24.9154 198.374 24.8344C198.494 24.6745 198.554 24.6056 198.614 24.5145C198.55 24.45 198.507 24.407 198.464 24.3639C198.593 23.8254 199.035 24.0104 199.345 23.9552C199.753 23.6964 199.6 22.7448 200.436 22.894C200.352 22.8746 200.247 22.8337 200.163 22.8144C200.059 22.7957 199.935 22.8222 199.891 22.757C199.763 22.6279 199.684 22.7641 199.6 22.7448C198.913 22.7239 198.245 22.6357 197.558 22.5704C197.474 22.551 197.387 22.4427 197.281 22.3574C197.897 22.1136 198.473 21.8935 199.13 21.6483C199.204 21.3342 199.124 20.7361 199.809 20.7125C199.224 20.5991 198.684 20.64 198.144 20.6586C197.605 20.6772 197.044 20.6965 196.525 20.7144C196.375 20.5638 196.267 20.434 196.094 20.2174C196.319 20.0984 196.463 20.0489 196.586 19.978C196.585 19.9557 196.584 19.9335 196.583 19.889C196.148 19.9485 196.023 19.2407 195.529 19.3913C195.364 19.4415 195.129 19.2493 194.961 19.1883C195.006 18.5859 195.682 18.9632 195.75 18.449C195.749 18.4268 196.651 18.0174 196.693 18.0159C197.067 18.003 197.441 17.9902 197.789 17.8224C196.396 17.8037 194.981 17.7634 193.754 17.7612C193.312 17.5762 193.196 17.1796 192.804 17.2599C192.411 17.3402 192.092 17.0841 191.834 16.826C191.513 16.5033 191.051 16.3412 190.889 15.8126C191.055 15.8069 191.222 15.8012 191.429 15.794C191.452 15.86 191.498 15.9919 191.544 16.1461C191.643 15.9869 191.741 15.8055 191.82 15.647C191.863 15.7123 191.927 15.7546 191.97 15.8199C192.549 15.6887 193.127 15.5575 193.726 15.4255C193.744 15.3359 193.74 15.2248 193.756 15.0684C192.985 14.9838 192.234 14.8984 191.462 14.8137C191.457 14.6581 191.452 14.4803 191.448 14.3469C191.61 14.2078 191.752 14.0916 191.894 13.9754C191.787 13.8679 191.743 13.7804 191.701 13.7818C191.534 13.7653 191.304 13.7065 191.182 13.7997C190.897 14.0098 190.672 14.1066 190.413 13.804C189.501 13.9022 188.641 13.6203 187.783 13.4273C187.217 13.291 186.656 13.3104 186.094 13.2852C186.009 13.1992 185.944 13.1346 185.794 12.984C185.786 12.7173 185.776 12.3616 185.76 11.828C185.537 12.036 185.435 12.1063 185.355 12.1981C185.275 12.2898 185.215 12.3809 185.035 12.6319C184.958 12.145 184.908 11.8574 184.858 11.5698C184.754 11.5734 184.691 11.5533 184.525 11.5591C184.593 11.757 184.681 11.9097 184.707 12.0646C184.733 12.2418 184.717 12.4203 184.721 12.5315C184.975 12.7007 185.165 12.8054 185.42 12.9747C185.276 13.0242 185.195 13.0937 185.091 13.0973C184.677 13.1561 184.541 12.7825 184.285 12.5687C184.366 12.4769 184.406 12.4311 184.486 12.3393C184.339 12.2776 184.212 12.2152 184.086 12.1528C184.165 12.0166 184.222 11.8588 184.321 11.6774C184.026 11.554 183.791 12.0294 183.509 11.6386C183.379 11.4651 182.886 11.6823 182.653 11.5346C182.42 11.3868 182.203 11.7504 182.048 11.4442C181.83 11.8077 181.49 11.5747 181.224 11.6951C181.156 11.5194 181.111 11.3875 181.066 11.2778C180.667 11.158 180.158 11.5093 179.912 10.917C180.552 10.7836 181.214 10.6718 181.895 10.5148C181.943 10.7357 181.971 10.9572 182.045 11.3553C182.181 11.039 182.259 10.8583 182.337 10.6998C182.846 11.0383 183.241 11.0247 183.65 10.7881C183.813 10.6935 184.042 10.7078 184.228 10.6791C184.283 10.4102 184.337 10.1413 184.392 9.91685C183.889 9.75619 183.404 9.55035 182.903 9.47861C182.402 9.40687 181.884 9.447 181.385 9.44195C181.093 9.42974 180.822 9.39459 180.447 9.36301C180.427 9.40819 180.328 9.54516 180.229 9.72658C180.5 9.73951 180.77 9.7302 181.019 9.72161C181.156 10.1175 181.038 10.3663 180.734 10.5993C180.58 10.3376 180.406 10.0765 180.209 9.74953C180.036 9.51072 179.863 9.29414 179.647 9.03453C179.402 9.1765 179.177 9.29554 178.932 9.43751C179.03 9.94595 179.234 9.80541 179.514 9.46193C179.543 9.70575 179.569 9.90511 179.62 10.2149C179.368 10.1346 179.221 10.0729 179.053 10.0119C178.93 10.0829 178.808 10.1539 178.603 10.2722C178.591 9.87207 178.581 9.5386 178.572 9.22738C178.256 9.10473 177.936 8.82647 177.752 8.92184C177.383 9.09034 177.092 9.07813 176.775 8.91102C176.54 9.38645 176.278 8.99489 176.006 8.93751C175.588 8.86291 175.17 8.7883 174.733 8.75888C174.295 8.72945 173.84 8.78966 173.383 8.80541C173.338 8.67346 173.292 8.54151 173.224 8.36581C173.143 8.43537 173.082 8.48198 173.022 8.55082C172.454 8.32561 172.77 7.75839 172.588 7.25282C172.362 7.34962 172.157 7.42346 171.931 7.52026C171.675 6.61668 171.675 6.61668 170.972 6.75218C171.015 6.79521 171.059 6.86046 171.187 6.98955C171.022 7.01751 170.836 7.04619 170.67 7.07415C170.734 7.13869 170.82 7.20252 170.884 7.26706C170.621 7.49868 170.245 7.44487 169.849 7.41401ZM76.3401 50.7612C76.2436 51.0093 76.2061 51.1442 76.127 51.2804C75.9696 51.5751 75.7901 51.8261 75.504 51.9917C75.4632 52.0154 75.3988 51.9509 75.3151 51.9315C75.3104 51.7759 75.3051 51.598 75.3011 51.4647C74.9708 51.5428 74.6814 51.5973 74.3304 51.6761C74.315 51.1648 74.3023 50.7425 74.2849 50.1645C74.4182 50.4492 74.4845 50.5804 74.5508 50.7116C74.7538 50.5489 74.9568 50.3861 75.1591 50.2011C75.2696 50.4198 75.336 50.5511 75.4029 50.7045C75.7647 50.2915 76.0601 50.4371 76.1358 50.8795C76.6757 50.8609 77.0079 50.8495 77.2987 50.8394C77.2505 50.6186 77.2243 50.4414 77.1768 50.2428C77.2183 50.2414 77.2384 50.2184 77.28 50.217C77.4755 50.4995 77.6504 50.7828 77.8459 51.0654C78.481 50.7542 78.5433 50.752 79.1341 51.0432C79.2956 50.8819 79.4564 50.6983 79.6781 50.4681C79.8187 50.9974 80.4484 50.5083 80.51 51.1738C80.22 51.2061 79.9306 51.2605 79.7236 51.2899C79.6667 51.4699 79.6285 51.5825 79.5903 51.6951C79.5092 51.7646 79.4275 51.812 79.3257 51.8822C79.2775 51.6614 79.2091 51.4634 79.1609 51.2426C79.0403 51.3802 78.98 51.4491 78.8996 51.5409C78.7697 51.3673 78.6612 51.2153 78.5534 51.0855C77.9417 51.4849 77.3114 51.2618 76.7105 51.327C76.6489 51.3514 76.4968 51.1341 76.3401 50.7612ZM142.794 52.0085C142.604 51.9038 142.435 51.7983 142.202 51.6728C142.589 51.3925 142.742 51.6542 142.435 51.8206C142.253 51.9826 142.112 52.121 142.031 52.2128C141.676 52.1361 141.317 51.9482 141.195 52.0414C140.892 52.3411 140.556 52.2192 140.225 52.2751C140.059 52.3031 139.807 52.2227 139.727 52.3145C139.365 52.7053 138.985 52.5181 138.631 52.5081C138.363 51.8942 139.069 51.8699 139.055 51.403C139.485 51.8555 139.748 51.6462 140.046 51.1686C139.794 51.0882 139.584 51.0287 139.374 50.9469C139.101 50.8451 138.868 50.7196 139 50.2477C139.418 50.3446 139.816 50.4421 140.11 50.521C140.242 50.7835 140.331 50.9585 140.42 51.1557C140.361 51.269 140.302 51.3823 140.223 51.5185C140.912 51.6283 141.601 51.7158 142.794 52.0085ZM143.375 11.1752C143.555 10.9687 143.756 10.7392 143.937 10.5105C144.382 10.8067 144.797 10.7924 145.142 10.5134C145.688 10.6727 146.171 10.834 146.737 11.0148C146.616 11.1302 146.493 11.2012 146.414 11.3152C146.293 11.4529 146.215 11.6336 146.157 11.7469C145.195 11.5575 144.274 11.3667 142.87 10.3025C143.048 10.6746 143.182 11.0038 143.292 11.2003C143.194 11.404 143.137 11.5617 143.078 11.6973C142.658 11.5337 142.342 11.3889 142.005 11.2669C141.711 11.1658 141.512 11.462 141.264 11.4928C141.036 11.5229 140.782 11.3759 140.532 11.34C140.469 11.3421 140.41 11.4554 140.309 11.5479C140.26 11.3048 140.233 11.0832 140.184 10.8401C139.811 11.5651 139.771 11.611 139.332 11.5594C138.873 11.4862 138.432 11.3456 137.971 11.228C137.957 11.451 137.963 11.6288 137.966 11.74C137.837 11.6109 137.687 11.4603 137.602 11.3742C136.958 11.4187 136.439 11.4143 135.964 11.542C135.779 11.5929 135.679 11.7298 135.445 11.5599C135.062 11.2615 134.495 11.7706 134.107 11.2944C133.871 11.7476 133.296 11.3001 133.081 11.7304C132.993 11.5776 132.924 11.3575 132.819 11.3388C132.442 11.2406 132.352 10.9989 132.341 10.6432C132.336 10.4876 132.186 10.3148 132.182 10.1814C132.198 10.0473 132.34 9.90888 132.379 9.84076C132.673 9.94189 132.925 9.99999 133.135 10.0817C133.159 10.1922 133.183 10.3026 133.208 10.4353C133.415 10.4059 133.601 10.3772 133.746 10.3722C133.783 10.1929 133.8 10.0811 133.799 10.0366C134.071 10.1162 134.302 10.175 134.553 10.2331C134.601 10.4318 134.627 10.6311 134.676 10.852C134.877 10.6448 135.038 10.4612 135.159 10.3235C135.411 10.4261 135.58 10.5093 135.749 10.5925C135.826 10.3895 135.864 10.277 135.902 10.1644C136.096 10.3802 136.31 10.5954 136.503 10.789C137.055 10.4807 137.531 10.3975 137.662 10.6155C137.769 10.7231 137.897 10.83 138.047 10.9806C138.123 10.7554 138.161 10.6206 138.218 10.4406C139.262 10.6049 140.349 10.1001 141.423 10.5749C141.528 10.6158 141.735 10.5864 141.816 10.5168C142.14 10.2164 142.521 10.448 143.375 11.1752ZM21.5698 48.8664C21.0734 48.9502 20.6567 48.9201 20.3292 49.0872C19.9808 49.255 19.6653 49.1323 19.3525 49.0986C18.9566 49.0677 18.5794 48.9695 18.2036 48.9157C18.1259 49.0964 18.0677 49.2319 17.9906 49.4348C17.8426 49.3509 17.6952 49.2892 17.4628 49.1637C17.3844 49.3222 17.2866 49.5259 17.2276 49.6392C16.8511 49.5631 16.5993 49.4828 16.3487 49.4469C16.0567 49.4125 15.6581 49.2927 15.6507 49.0482C15.6394 48.6703 14.8985 48.9183 15.2368 48.4171C15.6314 48.4035 16.0259 48.3899 16.3997 48.377C16.4251 48.5319 16.4493 48.6423 16.4968 48.841C16.5933 48.5929 16.6516 48.4573 16.7293 48.2766C17.2317 48.3928 17.7549 48.5083 18.2573 48.6245C18.3376 48.5327 18.418 48.4409 18.4783 48.3721C18.4134 48.2853 18.3484 48.1985 18.1957 47.959C18.5319 48.0809 18.6793 48.1426 18.8474 48.2036C18.885 48.0688 18.9225 47.934 18.96 47.7991C19.0645 47.8178 19.1683 47.8142 19.3358 47.853C19.2822 48.1441 19.2272 48.3908 19.1756 48.7486C19.739 48.8182 20.3225 48.8649 20.9274 48.933C21.0855 48.6605 21.1826 48.4346 21.3213 48.2073C21.7112 48.0381 21.9081 48.3651 22.1653 48.6233C22.6617 47.8496 23.5078 48.3322 24.1194 47.9328C24.1234 48.0662 24.1254 48.1329 24.1281 48.2218C24.4014 48.3237 24.676 47.7801 25.0036 48.3029C24.8616 48.4191 24.7202 48.5575 24.4777 48.7884C24.9118 48.7066 25.2052 48.7855 25.5301 48.5295C25.8543 48.2513 26.2656 48.1036 26.6341 47.9129C26.7573 47.8641 26.9208 47.7695 27.0052 47.8111C27.4721 48.1288 27.9859 47.933 28.4448 47.984C28.5124 48.1597 28.558 48.2916 28.649 48.5555C28.8071 48.283 28.9056 48.1016 28.9653 48.0105C29.3598 47.9969 29.6505 47.9869 29.9828 47.9755C29.9667 48.1318 29.9493 48.2437 29.9332 48.4C29.7235 48.3405 29.5762 48.2788 29.408 48.2178C29.3705 48.3526 29.333 48.4875 29.2948 48.6C28.6323 48.6896 27.9644 48.6014 27.241 48.7376C27.3696 48.8667 27.4339 48.9312 27.541 49.0388C27.3146 49.1134 27.0915 49.2991 26.9241 49.2604C26.2107 49.0402 25.4892 49.2431 24.7825 49.2452C24.408 49.2358 23.9726 49.2731 23.5526 49.1318C23.4689 49.1124 23.363 49.0493 23.28 49.0522C23.0944 49.1031 22.9323 49.2422 22.7461 49.2709C22.6014 49.2981 22.4306 49.1482 22.2852 49.1533C22.1191 49.159 21.9563 49.2759 21.7922 49.3483C21.6595 49.0858 21.614 48.9539 21.5698 48.8664ZM35.4255 9.15543C36.0069 9.13539 36.656 9.29104 37.1477 9.05155C38.2128 8.52525 39.3965 9.17431 40.396 8.539C40.9071 8.9442 41.3988 8.70471 41.8911 8.48745C41.9735 8.46235 42.1196 8.47958 42.1832 8.52189C42.5684 8.88692 43.0755 8.46887 43.4573 8.72275C43.8813 8.99743 44.3328 8.80383 44.7488 8.81175C44.8942 8.80674 45.0355 8.66834 45.1574 8.57512C45.3684 8.67912 45.5795 8.7831 45.7483 8.8663C45.7563 9.13307 45.7636 9.37761 45.7737 9.71107C45.5392 9.51887 45.3892 9.36826 45.1969 9.19686C44.6711 9.68232 44.1043 9.50157 43.5396 9.38752C43.5222 9.49939 43.5041 9.58903 43.4867 9.7009C43.1036 9.40256 42.6259 9.41902 42.3399 9.58466C41.8911 9.86718 41.5293 9.59035 41.1341 9.58172C40.8012 9.57094 40.5259 9.40241 40.1574 9.59314C39.8506 9.7595 39.4105 9.64114 39.0367 9.65403C38.6837 9.6662 38.3133 9.79025 37.9977 9.6676C37.6193 9.52487 37.3721 10.29 37.003 9.76865C36.743 10.1114 36.5274 9.85181 36.2547 9.7722C35.9198 9.69473 35.5688 9.77359 35.2157 9.78576C35.0704 9.79077 34.9237 9.75133 34.6524 9.71617C34.8715 9.39707 35.0316 9.19127 35.2506 8.87216C34.7134 8.9797 34.3778 8.88001 34.3175 8.25898C35.0504 8.434 35.6546 7.79006 36.2006 7.97152C36.4792 8.25121 36.6299 8.42404 36.78 8.57465C36.575 8.67073 36.2916 8.92528 36.1858 8.86217C35.8254 8.62981 35.6706 9.01346 35.4255 9.15543ZM38.7432 51.7236C38.1618 51.7437 37.6426 51.7616 37.1235 51.7795C37.1195 51.6461 37.1161 51.5349 37.1108 51.3571C37.5288 51.4317 37.9253 51.4848 38.3226 51.5601C38.3212 51.5156 38.3413 51.4927 38.34 51.4482C38.1926 51.3865 38.066 51.3241 37.9609 51.2833C37.9548 51.0832 37.9495 50.9053 37.9441 50.7275C38.2154 50.7626 38.5323 50.9298 38.6743 50.8136C38.9992 50.5576 39.1814 51.0854 39.4875 50.8968C39.651 50.8022 39.9464 50.9478 40.1762 50.9843C40.1936 50.8725 40.2117 50.7828 40.2298 50.6932C40.5091 50.9951 40.7884 51.297 41.0885 51.5982C41.4375 51.4527 41.6626 51.3337 41.9098 51.2584C42.1978 51.1594 42.5368 51.3703 42.7766 51.0505C42.8168 51.0046 43.0057 51.0648 43.1109 51.1057C43.49 51.2707 43.91 51.412 44.249 51.6228C44.6509 51.8537 45.0193 51.663 45.3945 51.6946C45.4119 51.5827 45.43 51.4931 45.4648 51.2693C45.576 51.5103 45.6423 51.6415 45.7307 51.8165C45.9585 51.7864 46.207 51.7556 46.6418 51.6961C46.3269 51.5957 46.201 51.5555 46.0329 51.4945C46.0483 51.316 46.0423 51.1159 46.0738 50.781C46.3692 50.9266 46.5815 51.0751 46.7898 51.0901C46.9982 51.1052 47.2011 50.9424 47.4879 50.799C47.4778 51.1554 47.4657 51.4451 47.4603 51.9572C47.3244 51.5835 47.2788 51.4516 47.2118 51.2981C47.1388 51.6344 46.5286 51.3884 46.7114 51.9385C47.3223 52.2067 47.8093 51.8116 48.4082 51.6797C48.2287 51.9307 48.0491 52.1817 47.8696 52.4326C47.5139 52.3559 47.1059 52.6147 46.7831 52.2476C46.761 52.2038 46.5969 52.2762 46.5151 52.3236C46.1092 52.6491 45.7937 52.5265 45.4306 52.2052C45.2384 52.0338 44.878 51.8014 44.7929 52.4274C44.7761 52.5615 44.4459 52.6397 44.2415 52.758C44.1096 52.5178 43.979 52.322 43.8912 52.1692C43.7043 52.1757 43.5382 52.1814 43.3928 52.1864C43.356 52.3435 43.3392 52.4776 43.3017 52.6124C43.1517 52.4618 43.0445 52.3542 42.9588 52.2681C43.0184 52.1771 43.0787 52.1082 43.2796 51.8788C42.8891 52.0258 42.6627 52.1003 42.4577 52.1964C42.3076 52.0458 42.1583 51.9174 42.0082 51.7668C41.8106 52.1074 41.5159 51.9841 41.2466 52.0156C40.7274 52.0335 40.2076 52.0292 39.7092 52.0464C39.6884 52.0471 39.6663 52.0033 39.6235 51.9603C39.6415 51.8707 39.659 51.7588 39.6563 51.6699C39.8626 51.6183 40.0488 51.5896 40.2344 51.5387C39.7541 51.4662 39.3234 50.9692 38.7922 51.2768C38.7734 51.3443 38.758 51.5228 38.7432 51.7236ZM6.11958 39.0288C5.9186 39.2583 5.89918 39.3035 5.87841 39.3042C5.73171 39.2647 5.54414 39.2489 5.45773 39.1406C5.19851 38.8158 4.73898 38.7426 4.53399 38.8387C4.14412 39.0079 3.82861 38.8853 3.45682 38.9648C3.44278 38.498 3.2827 38.0139 3.44281 37.8081C3.74227 37.3972 3.08849 37.086 3.49378 36.7382C4.12412 36.9613 4.79599 37.1829 5.48864 37.4038C5.50134 37.8262 5.51338 38.2263 5.52943 38.7599C5.6768 38.8215 5.86637 38.904 6.11958 39.0288ZM7.60802 39.4448C7.14247 39.1716 6.78276 38.9614 6.44448 38.7728C6.33329 38.5319 6.2844 38.2888 6.15446 38.1152C6.02518 37.9639 5.83494 37.8592 5.64403 37.7322C5.76595 37.639 5.80548 37.5709 5.86711 37.5465C5.92874 37.5221 6.0118 37.5193 6.07477 37.5394C6.263 37.5774 6.45391 37.7043 6.62004 37.6986C6.8277 37.6914 7.17404 37.457 7.21758 37.5222C7.41451 37.8492 7.6932 37.4391 7.94975 37.675C8.14333 37.8909 8.53722 37.855 8.89359 37.954C8.79243 38.0465 8.73147 38.0931 8.66984 38.1175C8.58811 38.1648 8.50572 38.1899 8.38246 38.2387C8.8882 38.466 8.93308 38.5758 8.7924 38.7364C8.5412 38.6783 8.33153 38.6187 8.16339 38.5578C7.96576 38.8984 7.76613 39.1723 7.60802 39.4448ZM52.5775 52.07C51.5164 52.7297 50.4594 52.1431 49.3608 52.2477C49.3963 52.0462 49.4144 51.9566 49.4525 51.844C49.8471 51.8304 50.2403 51.7723 50.5947 51.8046C50.9906 51.8355 51.4187 51.5537 51.7636 51.9646C52.0845 51.5752 52.3819 51.7875 52.7189 51.9317C52.8662 51.9933 53.1161 52.007 53.2173 51.9145C53.5803 51.5459 54.129 51.8163 54.488 51.3143C54.5403 51.6686 54.5878 51.8672 54.6146 52.0666C54.7613 52.106 54.8872 52.1462 54.8035 52.1268C54.7265 52.3298 54.6106 52.6231 54.4558 53.0067C54.153 52.6166 53.9581 52.3563 53.7639 52.1182C53.662 52.1884 53.6212 52.2121 53.5602 52.2587C53.6252 52.3455 53.6895 52.41 53.7752 52.4961C53.6124 52.613 53.4711 52.7514 53.2681 52.9141C53.0102 52.6337 52.8153 52.3734 52.5775 52.07ZM34.7094 48.2353C34.2311 48.2296 33.8439 48.4877 33.3791 48.2367C32.9992 48.0495 32.4821 48.1341 32.0333 48.4166C31.8705 48.5335 31.6541 48.9415 31.3513 48.5514C31.2864 48.4646 31.0405 48.5844 30.8308 48.5248C30.579 48.4445 30.309 48.4538 30.1315 48.0816C31.5436 47.3431 33.0019 48.1384 34.3879 47.9126C34.4951 48.0202 34.6023 48.1278 34.7094 48.2353ZM155.779 51.7389C155.588 51.6341 155.46 51.5273 155.357 51.5309C155.128 51.5387 154.919 51.4792 154.696 51.6872C154.595 51.7797 154.314 51.411 154.053 51.7316C153.913 51.9144 153.219 51.6491 153.11 51.4748C153.21 51.3601 153.291 51.2683 153.291 51.2683C153.761 51.0073 154.162 51.216 154.572 51.0238C154.88 50.8797 155.343 51.0863 155.761 51.1609C155.766 51.3165 155.771 51.4943 155.779 51.7389ZM133.578 51.0578C132.941 50.6346 132.302 50.7902 131.553 50.7938C131.838 50.5837 131.999 50.4001 132.184 50.3492C132.39 50.2753 132.641 50.3112 132.848 50.304C132.884 50.1025 132.902 50.0129 132.918 49.8566C133.126 49.8716 133.313 49.8652 133.584 49.8781C133.466 50.1269 133.387 50.2632 133.349 50.3535C133.439 50.5952 133.509 50.8376 133.578 51.0578ZM21.2818 47.5856C22.0723 46.913 22.7696 47.2895 23.4823 47.4875C22.5157 47.8323 22.5157 47.8323 21.2818 47.5856ZM73.7182 50.6736C73.4931 50.7926 73.3699 50.8414 73.2674 50.8894C73.2687 50.9339 73.2908 50.9776 73.2921 51.0221C73.5413 51.0135 73.8113 51.0042 74.102 50.9942C74.0893 51.2616 74.0745 51.4624 74.043 51.7973C73.7242 51.5635 73.5326 51.4144 73.2352 51.2021C73.0068 51.2099 72.716 51.22 72.363 51.2321C72.7274 50.908 73.0309 50.6305 73.2339 50.4677C73.4436 50.5273 73.5702 50.5897 73.7182 50.6736ZM130.915 11.627C131.427 11.3646 131.168 11.0397 131.244 10.7923C131.358 10.4323 131.369 10.1204 131.824 10.0379C131.853 10.3262 131.488 10.6059 131.89 10.859C131.996 10.9221 131.925 11.3252 131.933 11.5919C131.642 11.6019 131.414 11.6098 130.915 11.627ZM141.995 49.6326C141.581 50.3813 141.02 49.6885 140.612 49.9474C140.605 49.7028 140.6 49.5472 140.593 49.3249C141.096 49.4411 141.605 49.0897 141.995 49.6326ZM146.689 10.104C146.567 10.1972 146.425 10.3134 146.283 10.4296C146.031 10.3492 145.737 10.2481 145.444 10.1692C145.438 9.99137 145.433 9.81353 145.427 9.61346C145.81 9.9118 146.39 9.13519 146.689 10.104ZM103.283 49.4318C104.585 49.1866 104.585 49.1866 104.91 49.6427C104.518 49.723 104.105 49.8262 103.63 49.9316C103.544 49.8233 103.435 49.6491 103.283 49.4318ZM149.159 9.97437C148.808 10.7431 148.726 10.7682 148.084 10.1894C148.182 9.96356 148.299 9.71473 148.395 9.46661C148.651 9.6581 148.905 9.82735 149.159 9.97437ZM49.5679 9.37998C49.3153 9.96728 49.113 10.1523 48.7137 10.0103C48.4619 9.92994 48.208 9.78292 48.3634 9.4215C48.758 9.4079 49.1525 9.3943 49.5679 9.37998ZM148.261 11.8969C148.09 11.7693 147.9 11.6645 147.709 11.5154C147.623 11.4293 147.557 11.2981 147.426 11.1023C147.862 11.0873 148.153 11.0772 148.485 11.0658C148.573 11.2185 148.682 11.3928 148.791 11.5671C148.608 11.6847 148.424 11.8023 148.261 11.8969ZM75.7312 9.10107C75.2938 9.07164 74.845 9.35416 74.4752 8.81056C74.5757 8.69583 74.6561 8.60404 74.7767 8.46636C75.0681 8.47857 75.3802 8.49007 75.7125 8.47861C75.7192 8.70092 75.7232 8.8343 75.7312 9.10107ZM51.4951 49.9488C51.7483 50.0735 51.9801 50.1768 52.3177 50.3432C51.9868 50.3991 51.8012 50.45 51.615 50.4787C51.7865 50.6508 51.9358 50.7792 52.1073 50.9513C51.8621 51.0933 51.6779 51.1887 51.5145 51.2833C50.8774 50.8379 51.3845 50.4199 51.4951 49.9488ZM36.0524 50.726C36.6178 50.8622 37.2086 50.4636 37.7686 51.1119C37.1456 51.1333 36.6057 51.1519 36.0658 51.1706C36.0611 51.0149 36.0584 50.926 36.0524 50.726ZM3.15821 35.9486C3.30023 35.8325 3.44024 35.6496 3.6057 35.6217C3.87433 35.5679 4.14429 35.5586 4.41558 35.5937C4.49932 35.6131 4.58773 35.7881 4.65337 35.8971C4.34589 36.0412 4.12349 36.2492 3.89439 36.2348C3.66663 36.2649 3.43218 36.0727 3.15821 35.9486ZM150.698 52.1588C150.547 51.9637 150.438 51.8117 150.351 51.6812C150.491 51.4983 150.612 51.3606 150.652 51.3148C151.047 51.3011 151.337 51.2911 151.69 51.2789C151.325 51.5808 151.022 51.8583 150.698 52.1588ZM182.778 10.1505C182.619 10.3786 182.479 10.5837 182.339 10.7665C182.187 10.5492 181.989 10.1777 181.927 10.1799C181.66 10.3004 181.493 10.2616 181.292 9.82345C181.84 10.0494 182.366 9.58615 182.778 10.1505ZM87.9925 51.8282C87.8224 51.7006 87.7159 51.6152 87.6315 51.5736C87.7286 51.3478 87.8063 51.167 87.9042 50.9634C88.0287 50.9591 88.1748 50.9763 88.2987 50.9498C88.4019 50.924 88.4608 50.8107 88.5821 50.6952C88.7147 50.9577 88.7823 51.1334 88.8929 51.3521C88.5405 51.3865 88.2712 51.4181 88.0435 51.4482C88.0274 51.6045 88.0099 51.7164 87.9925 51.8282ZM50.7984 50.2843C50.8882 50.5038 50.9558 50.6795 51.0462 50.9211C50.3529 50.678 50.3529 50.678 50.4501 49.7622C50.7033 49.887 50.9351 49.9903 51.2727 50.1567C51.0456 50.209 50.9632 50.2341 50.7984 50.2843ZM51.4127 9.89497C50.9351 9.91143 50.4782 9.92719 49.9798 9.94437C50.2719 9.28894 50.8004 9.58227 51.2137 9.50126C51.2553 9.49983 51.3397 9.54143 51.4033 9.58374C51.406 9.67266 51.4087 9.76158 51.4127 9.89497ZM138.48 50.9555C138.169 50.9662 137.837 50.9777 137.484 50.9899C137.497 50.7446 137.491 50.5445 137.505 50.3215C137.904 50.4635 138.219 50.5639 138.534 50.6644C138.497 50.7992 138.499 50.8659 138.48 50.9555ZM32.9227 51.0341C32.9187 50.9007 32.8946 50.7903 32.9147 50.7674C33.4426 50.3486 33.8773 50.979 34.3764 50.984C33.9195 50.9998 33.4627 51.0155 32.9227 51.0341ZM147.031 9.71394C147.392 9.96853 147.869 9.92984 147.907 10.5071C147.204 10.6426 147.182 10.5989 147.031 9.71394ZM5.98385 33.8261C5.46871 33.9774 5.2872 33.4718 4.90538 33.218C5.56054 32.8838 5.72329 33.4568 5.98385 33.8261ZM82.9478 9.89819C82.5834 9.53244 82.3476 9.29578 82.0897 9.01538C82.8741 8.83255 82.9599 8.91861 82.9478 9.89819ZM83.501 51.7828C82.8506 51.5827 82.8506 51.5827 82.8868 50.7135C82.9699 50.7107 83.0737 50.7071 83.1568 50.7042C83.2499 51.0348 83.363 51.3425 83.501 51.7828ZM20.8863 52.406C20.3846 52.312 19.9244 52.2166 19.4642 52.1212C19.4629 52.0768 19.4622 52.0545 19.4816 52.0094C19.9385 51.9936 20.3953 51.9779 20.873 51.9614C20.8776 52.117 20.8803 52.2059 20.8863 52.406ZM136.254 50.1866C136.252 50.1199 136.25 50.0755 136.248 50.0088C136.56 49.998 136.892 49.9866 137.204 49.9758C137.215 50.3538 137.226 50.7095 137.236 51.0651C137.09 51.0479 136.986 51.0293 136.944 51.0085C136.998 50.7396 137.032 50.4936 137.105 50.135C136.752 50.1694 136.503 50.178 136.254 50.1866ZM81.1304 51.0634C81.4807 50.9623 81.7902 50.8849 82.1405 50.7838C82.2048 50.8483 82.2913 50.9566 82.377 51.0427C82.1934 51.1603 82.03 51.2549 81.8458 51.3503C81.8029 51.3073 81.7178 51.2434 81.6535 51.1789C81.5932 51.2477 81.5122 51.3173 81.4519 51.3861C81.3655 51.2778 81.259 51.1925 81.1304 51.0634ZM130.856 52.4868C131.101 52.3449 131.326 52.2258 131.53 52.1075C131.743 52.2782 132.038 52.3793 131.842 52.7866C131.527 52.6862 131.191 52.5865 130.856 52.4868ZM170.913 8.91284C171.01 8.70918 171.09 8.59517 171.128 8.48258C171.165 8.32554 171.181 8.16921 171.216 7.94547C171.702 8.218 171.485 8.58157 171.578 8.91216C171.328 8.89853 171.162 8.90425 170.913 8.91284ZM143.104 49.8614C142.932 50.3792 142.74 50.1856 142.546 49.9697C142.466 50.0615 142.405 50.1303 142.224 50.3146C142.253 49.913 142.247 49.713 142.281 49.4448C142.598 49.6119 142.83 49.7374 143.104 49.8614ZM19.875 47.8121C19.9414 47.9433 20.072 48.1391 20.1611 48.3363C20.1838 48.4023 20.1249 48.5156 20.0693 48.7401C19.8341 48.5256 19.6633 48.3758 19.4068 48.1398C19.6104 47.9993 19.7531 47.9053 19.875 47.8121ZM37.0558 52.9835C37.0779 53.0272 37.0993 53.0487 37.1422 53.0918C36.5815 53.1111 36.0416 53.1297 35.4809 53.1491C35.4795 53.1046 35.4789 53.0824 35.4775 53.0379C35.9967 53.02 36.5366 53.0014 37.0558 52.9835ZM136.918 52.2111C137.188 52.2018 137.437 52.1932 137.707 52.1839C137.711 52.3173 137.713 52.4062 137.718 52.5618C137.448 52.5711 137.199 52.5797 136.929 52.589C136.924 52.4334 136.922 52.3445 136.918 52.2111ZM153.951 50.3999C153.764 50.4286 153.661 50.4321 153.579 50.4795C153.497 50.5268 153.437 50.6179 153.397 50.6638C153.207 50.5591 153.038 50.4759 152.848 50.3711C153.072 50.2299 153.297 50.1109 153.523 49.9918C153.651 50.1209 153.737 50.207 153.951 50.3999ZM48.0519 9.43224C48.074 9.47599 48.0754 9.52044 48.0975 9.56419C47.853 9.72839 47.5877 9.89332 47.3023 10.0812C47.2943 9.81442 47.2896 9.6588 47.2829 9.4365C47.5535 9.44942 47.8027 9.44083 48.0519 9.43224ZM105.736 51.5058C105.644 51.9095 105.527 52.1806 105.11 52.1282C105.103 51.9059 105.097 51.7059 105.09 51.4613C105.34 51.475 105.527 51.4907 105.736 51.5058ZM107.395 52.0717C107.508 51.6895 107.604 51.4192 107.678 51.1273C107.805 51.1897 107.889 51.2091 108.036 51.2707C107.858 51.5662 107.934 52.0309 107.395 52.0717ZM129.179 52.0328C128.74 51.9367 128.486 51.7897 128.617 51.2956C128.972 51.3723 129.225 51.4971 129.179 52.0328ZM106.024 52.0967C106.59 51.5876 106.776 51.5367 106.97 51.7748C106.952 51.8644 106.934 51.9541 106.917 52.066C106.647 52.0753 106.418 52.0831 106.024 52.0967ZM132.555 52.2947C132.846 52.3069 133.096 52.3206 133.429 52.3314C133.268 52.5149 133.168 52.6297 133.067 52.7444C133.002 52.6576 132.938 52.5931 132.873 52.5063C132.792 52.5981 132.732 52.6669 132.571 52.8283C132.563 52.5837 132.56 52.4726 132.555 52.2947ZM134.095 52.3529C134.446 51.6064 134.446 51.6064 134.968 51.6774C134.745 51.8409 134.501 52.0274 134.095 52.3529ZM35.7845 50.8019C35.3939 50.9489 35.0034 51.0959 34.6008 50.8428C35.0161 50.8284 35.3899 50.8156 35.7845 50.8019ZM32.3807 53.0556C32.3787 52.989 32.3774 52.9445 32.3961 52.8771C32.5622 52.8714 32.729 52.8879 32.8737 52.8606C33.0392 52.8327 33.2027 52.738 33.3882 52.6871C33.3922 52.8205 33.3741 52.9101 33.3781 53.0435C33.0245 53.0335 32.713 53.0442 32.3807 53.0556ZM105.161 51.0583C105.117 50.993 105.053 50.9285 105.009 50.8632C105.129 50.6811 105.228 50.5219 105.327 50.3627C105.476 50.4911 105.583 50.5764 105.732 50.7048C105.508 50.8461 105.324 50.9637 105.161 51.0583ZM13.952 47.8605C14.2099 48.1409 14.4015 48.2901 14.6607 48.615C14.3063 48.5827 14.1194 48.5891 13.9734 48.5719C13.966 48.3274 13.9607 48.1495 13.952 47.8605ZM124.59 51.5012C124.6 51.1447 124.613 50.8773 124.62 50.4319C124.82 50.8479 124.931 51.0888 125.064 51.3735C124.92 51.423 124.796 51.4495 124.59 51.5012ZM19.5221 47.1344C19.709 47.128 19.8958 47.1215 20.1035 47.1144C20.1075 47.2478 20.1102 47.3367 20.1149 47.4923C19.928 47.4987 19.7411 47.5052 19.5334 47.5123C19.5287 47.3567 19.5261 47.2678 19.5221 47.1344ZM62.0931 51.8978C62.134 51.8741 62.1963 51.872 62.2371 51.8483C62.3262 52.0455 62.4146 52.2205 62.5265 52.4837C62.3188 52.4908 62.2358 52.4937 62.1112 52.498C62.1051 52.2979 62.0991 52.0978 62.0931 51.8978ZM144.915 52.0021C144.681 51.8322 144.511 51.7045 144.235 51.5137C144.567 51.5023 144.754 51.4958 144.982 51.488C144.966 51.6443 144.949 51.7784 144.915 52.0021ZM37.7808 48.0627C37.4532 48.2298 37.1237 48.3301 36.8048 48.0963C37.1371 48.0849 37.4693 48.0734 37.7808 48.0627ZM26.5535 52.1439C26.8811 51.9768 27.21 51.8542 27.7579 52.1023C27.1972 52.1217 26.865 52.1331 26.5535 52.1439ZM106.229 9.18455C106.273 9.24981 106.296 9.31578 106.339 9.35881C106.154 9.43195 105.948 9.5058 105.763 9.57893C105.739 9.46849 105.714 9.33583 105.689 9.20316C105.897 9.196 106.063 9.19028 106.229 9.18455ZM76.9389 10.5504C77.1908 9.9409 77.4581 9.84266 77.8788 10.0062C77.5928 10.1718 77.3677 10.2909 76.9389 10.5504ZM146.508 51.7692C146.238 51.7785 146.031 51.7856 145.802 51.7935C145.975 51.3202 145.975 51.3202 146.508 51.7692ZM82.6483 51.7677C82.4198 51.7756 82.2329 51.782 81.9007 51.7935C82.1639 51.5619 82.3267 51.445 82.5498 51.2593C82.5773 51.4808 82.602 51.6135 82.6483 51.7677ZM5.79732 40.0636C5.75779 40.1317 5.7176 40.1776 5.67807 40.2457C5.5729 40.2048 5.44764 40.1869 5.36256 40.1231C5.27816 40.0815 5.21252 39.9725 5.14821 39.9079C5.18841 39.862 5.2286 39.8162 5.24803 39.771C5.4376 39.8535 5.60708 39.9589 5.79732 40.0636ZM152.566 51.36C152.424 51.4762 152.344 51.5902 152.241 51.616C152.179 51.6404 152.113 51.5092 152.029 51.4676C152.088 51.3765 152.147 51.2632 152.228 51.1936C152.29 51.1693 152.397 51.2768 152.566 51.36ZM149.379 51.1361C149.328 51.5384 149.314 51.7392 149.3 51.9622C149.15 51.8116 149.043 51.7263 148.937 51.6409C149.037 51.5262 149.117 51.4344 149.379 51.1361ZM136.094 51.7944C136.157 51.7922 136.219 51.7901 136.281 51.7879C136.268 52.0554 136.256 52.3229 136.264 52.5897C136.222 52.5911 136.181 52.5925 136.139 52.594C136.11 52.3279 136.102 52.0612 136.094 51.7944ZM103.908 50.879C103.745 50.9736 103.644 51.0883 103.602 51.0675C103.517 51.0037 103.451 50.8947 103.386 50.8079C103.447 50.7391 103.526 50.6251 103.589 50.6452C103.674 50.6868 103.759 50.7728 103.908 50.879ZM52.6949 8.98287C52.871 9.3106 52.9588 9.46335 52.9367 9.41961C52.8991 9.55442 52.863 9.7337 52.8261 9.89075C52.8047 9.86923 52.7625 9.84844 52.741 9.82692C52.7149 9.64979 52.7089 9.44971 52.6949 8.98287ZM83.8976 51.146C84.0758 51.5404 84.1649 51.7377 84.2754 51.9564C84.13 51.9614 84.047 51.9643 83.9224 51.9686C83.9157 51.7463 83.9097 51.5462 83.8976 51.146ZM36.9922 51.5614C36.8515 51.7221 36.7718 51.8361 36.7303 51.8375C36.6251 51.7966 36.5394 51.7106 36.4744 51.6238C36.4529 51.6023 36.5722 51.4201 36.6137 51.4187C36.7176 51.4151 36.8234 51.4782 36.9922 51.5614ZM117.475 51.3236C117.711 51.5603 117.817 51.6456 117.882 51.7324C117.947 51.8192 117.951 51.9526 118.024 52.3061C117.789 52.0694 117.682 51.9841 117.617 51.8973C117.573 51.8098 117.569 51.6764 117.475 51.3236ZM47.9481 50.8944C48.1001 50.4219 48.1001 50.4219 48.5563 50.3839C48.3333 50.5696 48.1919 50.708 47.9481 50.8944ZM78.7811 51.7452C78.6176 51.8399 78.5171 51.9546 78.4749 51.9338C78.3899 51.87 78.3242 51.761 78.2592 51.6742C78.3195 51.6054 78.3993 51.4914 78.4622 51.5114C78.5466 51.553 78.6324 51.6391 78.7811 51.7452ZM148.998 10.8478C149.06 10.8457 149.123 10.8435 149.185 10.8414C149.172 11.1089 149.16 11.3763 149.168 11.6431C149.126 11.6445 149.085 11.646 149.043 11.6474C149.014 11.3813 149.006 11.1146 148.998 10.8478ZM127.147 51.502C127.235 51.677 127.342 51.7846 127.323 51.8297C127.263 51.9208 127.162 51.9911 127.08 52.0606C127.016 51.9961 126.91 51.9108 126.928 51.8434C126.946 51.7537 127.027 51.6619 127.147 51.502ZM129.833 50.9643C129.921 51.1393 130.029 51.2469 130.009 51.2921C129.95 51.3831 129.848 51.4534 129.767 51.523C129.702 51.4584 129.596 51.3731 129.615 51.3057C129.633 51.216 129.713 51.1242 129.833 50.9643Z" fill="#F2800D"/>
<path d="M119.077 5.75961C118.73 5.97186 118.398 5.29345 118.145 5.85852C117.906 5.53294 117.599 5.67706 117.245 5.667C117.313 5.8427 117.38 6.0184 117.406 6.19553C117.432 6.37266 117.417 6.55122 117.548 6.747C117.586 6.63441 117.604 6.54478 117.681 6.34184C117.806 6.33754 117.992 6.30887 118.178 6.28019C118.2 6.32394 118.201 6.3684 118.224 6.41214C118.101 6.48313 117.978 6.55412 117.652 6.76565C118.254 6.74488 118.67 6.7528 119.064 6.71696C119.624 6.65317 120.106 6.79232 120.534 7.20038C120.641 7.30796 120.829 7.34597 120.977 7.42988C120.916 7.47649 120.877 7.54462 120.817 7.61346C120.925 7.76549 121.013 7.91824 121.143 8.09179C121.305 7.95268 121.406 7.86018 121.487 7.79063C121.635 7.87454 121.783 7.93621 122.036 8.06101C121.982 7.64006 121.585 7.58697 121.595 7.23056C121.861 7.08787 122.147 6.92224 122.495 6.73222C122.103 6.14488 121.755 5.6228 121.407 5.12295C121.367 5.16884 121.286 5.23839 121.205 5.33018C121.16 5.19823 121.114 5.06628 121.068 4.9121C120.777 4.92212 120.486 4.93214 120.133 4.94431C120.118 5.12287 120.083 5.32438 120.048 5.54811C119.882 5.55384 119.715 5.55958 119.508 5.56673C119.482 5.38961 119.433 5.16873 119.406 4.94714C119.302 4.95072 119.198 4.9543 119.032 4.96003C119.062 5.24831 119.07 5.51508 119.077 5.75961Z" fill="#F2800D"/>
<path d="M124.998 5.6445C124.6 5.54695 124.13 5.80794 123.492 5.34035C123.71 5.66665 123.776 5.77566 123.862 5.88395C123.948 5.99224 124.035 6.10052 124.249 6.31567C123.751 6.33285 123.418 6.34431 123.086 6.35576C123.092 6.53361 123.094 6.62253 123.099 6.77815C123.493 6.76455 123.867 6.75166 124.283 6.73734C124.292 7.04857 124.3 7.31534 124.311 7.67103C123.978 7.68248 123.667 7.69322 123.335 7.70468C123.336 7.74914 123.337 7.7936 123.339 7.83806C123.733 7.82446 124.107 7.81157 124.502 7.79797C124.953 7.60437 124.647 7.10309 124.803 6.7639C124.99 6.75746 125.156 6.75173 125.322 6.74601C125.37 6.96688 125.397 7.16624 125.424 7.3656C125.466 7.36417 125.507 7.36274 125.528 7.36202C125.543 7.16123 125.579 6.98195 125.594 6.78116C125.944 6.68006 126.401 6.68654 126.525 6.66002C126.917 6.53526 127.114 6.88451 127.477 7.18357C127.393 6.47434 127.253 5.96732 126.907 5.53416C126.789 5.76077 126.692 5.98666 126.574 6.21326C126.18 6.22686 125.806 6.23975 125.391 6.25407C125.261 6.08052 125.129 5.86251 124.998 5.6445Z" fill="#F2800D"/>
<path d="M27.4561 6.82651C27.377 6.96276 27.2779 7.12195 27.1398 7.3715C27.4942 7.40379 27.7441 7.41743 28.0154 7.45259C28.1225 7.56016 28.2512 7.68924 28.4226 7.86136C28.7321 7.78393 29.1334 7.99263 29.4342 7.6262C29.6458 7.75243 29.8776 7.8557 30.11 7.98121C30.1502 7.93532 30.2313 7.86576 30.2916 7.79692C30.4202 7.92601 30.5488 8.05511 30.656 8.16268C30.9032 8.0874 31.1517 8.05657 31.3553 7.91603C31.498 7.8221 31.5744 7.59692 31.693 7.39255C30.2494 7.08626 28.8581 7.13423 27.4561 6.82651Z" fill="#F2800D"/>
<path d="M164.194 7.38644C164.23 7.20717 164.248 7.11753 164.303 6.87084C164.393 7.09028 164.459 7.22152 164.504 7.33124C164.967 7.5378 165.202 7.04013 165.657 6.97992C165.828 7.12981 166.064 7.36647 166.386 7.68919C166.486 7.57446 166.546 7.48338 166.667 7.36794C166.37 7.15565 166.137 7.03015 165.965 6.8358C165.793 6.64145 165.682 6.40049 165.528 6.13873C165.346 6.30079 165.244 6.37106 165.144 6.4858C165.098 6.35384 165.053 6.24412 164.984 6.02396C164.82 6.09638 164.657 6.19104 164.431 6.28784C164.325 6.22472 164.136 6.14224 163.988 6.08056C163.497 6.32005 163.613 6.73885 163.645 7.11606C163.793 7.17774 163.961 7.26093 164.194 7.38644Z" fill="#F2800D"/>
<path d="M169.827 7.3925C169.817 7.05904 169.807 6.70335 169.793 6.25874C169.425 6.44947 169.139 6.61511 168.791 6.80512C168.5 6.81514 168.399 6.19555 167.989 6.38771C167.804 6.48308 167.664 6.66594 167.483 6.85022C167.801 7.06179 168.035 7.23176 168.374 7.44261C168.768 7.42901 169.308 7.4104 169.827 7.3925Z" fill="#F2800D"/>
<path d="M75.4326 6.77473C75.4989 6.90596 75.5659 7.05943 75.6328 7.21289C75.5303 7.26094 75.4078 7.33193 75.1833 7.47319C75.728 7.61019 76.1687 7.75076 76.6926 7.88848C77.207 7.71497 76.7073 6.99782 77.0925 6.67299C76.773 6.41696 76.556 6.80276 76.286 6.81207C76.0375 6.84289 75.7769 6.47356 75.4326 6.77473Z" fill="#F2800D"/>
<path d="M3.05273 15.1673C2.89934 14.9056 2.79016 14.7313 2.70174 14.5563C2.34872 14.5685 2.03722 14.5792 1.64267 14.5928C1.80141 15.0324 1.997 15.315 2.3949 15.4125C2.8973 15.5287 3.38027 15.6901 3.88267 15.8063C3.98717 15.825 4.10976 15.754 4.33685 15.7017C3.92624 15.1817 3.52901 15.1064 3.05273 15.1673Z" fill="#F2800D"/>
<path d="M66.9785 52.5972C67.432 52.4703 67.5271 52.1777 67.4555 51.8687C67.2411 51.6535 67.0696 51.4814 66.8124 51.2232C66.5069 51.434 66.1412 51.7137 65.7138 52.0177C65.8853 52.1898 65.9924 52.2974 66.121 52.4265C66.3254 52.3082 66.4888 52.2135 66.6724 52.0959C66.8023 52.2695 66.8907 52.4445 66.9785 52.5972Z" fill="#F2800D"/>
<path d="M131.054 7.2605C131.383 7.11566 131.712 6.99305 132.04 6.84822C131.923 6.40718 131.194 6.36555 131.507 5.7094C131.276 5.65059 131.024 5.57026 130.751 5.46841C130.732 5.53582 130.694 5.6484 130.717 5.73661C130.815 6.22282 130.933 6.68608 131.054 7.2605Z" fill="#F2800D"/>
<path d="M164.733 3.89627C163.649 3.08801 162.746 3.49744 161.863 3.83946C162.754 3.74198 163.623 4.31285 164.733 3.89627Z" fill="#F2800D"/>
<path d="M82.1193 5.85433C82.0423 6.05727 81.9264 6.35056 81.8105 6.64385C81.645 6.67181 81.5003 6.69906 81.3342 6.70479C81.2571 6.90773 81.1794 7.08843 81.1017 7.26914C81.1875 7.3552 81.2946 7.46277 81.4018 7.57034C81.4454 6.94574 81.9203 6.84035 82.3913 6.60158C82.4582 6.75505 82.5245 6.88628 82.6143 7.10573C82.7778 7.01108 82.9412 6.91643 83.104 6.79955C82.7617 6.47754 82.4402 6.15482 82.1193 5.85433Z" fill="#F2800D"/>
<path d="M189.935 51.1176C188.883 50.7088 188.069 51.271 187.157 51.3692C187.954 51.6087 188.431 51.57 189.935 51.1176Z" fill="#F2800D"/>
<path d="M59.6629 8.43108C58.762 8.1951 57.8395 8.62747 56.8689 8.1491C56.751 8.3757 56.613 8.62526 56.5353 8.80596C57.4798 8.41734 58.5898 8.69062 59.6629 8.43108Z" fill="#F2800D"/>
<path d="M110.737 55.3836C110.51 55.4359 110.263 55.5112 110.036 55.5635C109.986 55.2759 109.938 55.0773 109.887 54.7453C109.812 55.0149 109.774 55.1497 109.737 55.3068C109.509 55.3146 109.28 55.3225 109.093 55.329C108.973 55.4666 108.872 55.5814 108.772 55.6961C108.861 55.8933 109.879 55.8582 111.078 55.6389C110.907 55.5112 110.802 55.4481 110.737 55.3836Z" fill="#F2800D"/>
<path d="M107.314 55.5906C107.267 55.4364 107.222 55.3045 107.154 55.1288C107.015 55.3561 106.917 55.5375 106.778 55.7648C107.322 55.8796 107.782 55.975 108.242 56.0482C108.316 55.7341 108.37 55.4652 108.444 55.1733C108.401 55.1303 108.294 55.0227 108.144 54.8721C108.11 55.1181 108.095 55.2966 108.06 55.5426C107.833 55.5727 107.604 55.5806 107.314 55.5906Z" fill="#F2800D"/>
<path d="M72.9621 6.88215C72.9721 7.21561 72.9768 7.37123 72.9821 7.54907C73.2762 7.6502 73.5703 7.75134 73.9065 7.87326C74.0211 7.53551 74.1377 7.26444 74.2723 6.90374C73.7733 6.89869 73.3981 7.55699 72.9621 6.88215Z" fill="#F2800D"/>
<path d="M154.163 5.64042C154.156 5.41811 154.156 4.72824 154.156 4.72824C153.731 4.4091 153.271 4.3137 152.571 4.53811C152.905 4.59335 153.091 4.56468 153.177 4.65074C153.348 4.80062 153.438 5.04229 153.588 5.1929C153.718 5.34422 153.908 5.44893 154.163 5.64042Z" fill="#F2800D"/>
<path d="M50.9626 7.37356C50.9646 7.44026 50.9459 7.50767 50.9506 7.66328C51.7223 7.74794 52.4672 7.63325 53.3407 7.64764C53.1471 7.43178 53.0399 7.3242 52.9542 7.23815C52.7693 7.31128 52.6521 7.56011 52.3754 7.34711C52.2475 7.24026 51.9212 7.45178 51.6928 7.45966C51.465 7.48976 51.2339 7.40872 50.9626 7.37356Z" fill="#F2800D"/>
<path d="M56.6678 51.2169C56.9699 51.5848 57.1849 51.8222 57.3577 52.0388C57.5647 52.0094 57.7101 52.0044 57.8762 51.9986C57.9231 51.4852 57.4777 51.189 56.6678 51.2169Z" fill="#F2800D"/>
<path d="M68.0041 51.4492C67.9003 51.4528 67.8172 51.4556 67.5888 51.4635C68.1213 51.8902 67.7388 52.304 67.6684 52.7292C68.0007 52.7178 68.2499 52.7092 68.6445 52.6956C68.4281 52.4137 68.2774 52.2409 68.1675 52.0444C68.0791 51.8694 68.0517 51.6478 68.0041 51.4492Z" fill="#F2800D"/>
<path d="M179.464 7.10476C178.93 7.30122 178.468 6.4715 177.952 7.29041C178.451 7.27323 178.928 7.94663 179.464 7.10476Z" fill="#F2800D"/>
<path d="M164.421 4.57465C163.791 4.35159 163.221 4.77178 162.772 4.3422C162.671 4.45694 162.591 4.54872 162.47 4.6864C162.993 4.77966 163.474 4.89658 163.954 4.9468C164.099 4.94179 164.239 4.7367 164.421 4.57465Z" fill="#F2800D"/>
<path d="M184.241 11.1015C184.454 11.2722 184.666 11.4207 184.859 11.5921C185.084 11.473 185.289 11.377 185.493 11.2586C185.471 11.2149 185.468 11.126 185.427 11.1274C185.05 11.0291 184.673 10.9531 184.296 10.8548C184.298 10.9215 184.28 11.0112 184.241 11.1015Z" fill="#F2800D"/>
<path d="M152.022 7.02719C152.214 7.17636 152.32 7.26171 152.427 7.34705C152.622 6.91751 152.866 7.42094 153.091 7.32414C153.19 7.14271 153.267 6.93977 153.384 6.69094C153.28 6.67229 153.174 6.63141 153.092 6.65651C152.783 6.75617 152.495 6.85511 152.022 7.02719Z" fill="#F2800D"/>
<path d="M128.887 7.06819C128.883 6.93481 128.875 6.69027 128.867 6.40127C128.659 6.40843 128.514 6.41344 128.244 6.42275C128.355 6.66371 128.607 6.74404 128.675 6.94196C128.744 7.16212 128.71 7.43032 128.722 7.83047C128.986 7.62109 129.149 7.50421 129.291 7.38805C129.186 7.34717 129.122 7.28262 128.887 7.06819Z" fill="#F2800D"/>
<path d="M33.3824 7.5791C33.0254 7.45789 32.7742 7.39979 32.5015 7.32017C32.4459 7.54463 32.3709 7.81426 32.2965 8.10612C32.3588 8.10397 32.4854 8.16636 32.547 8.14198C32.8123 7.97706 33.0562 7.79063 33.3824 7.5791Z" fill="#F2800D"/>
<path d="M16.2089 60C16.4259 59.6142 16.584 59.3417 16.7415 59.047C16.5928 58.9408 16.4226 58.8132 16.1681 58.6439C16.1828 59.133 16.1935 59.4887 16.2089 60Z" fill="#F2800D"/>
<path d="M2.77177 47.9789C2.18697 47.8878 1.72744 47.8147 1.14197 47.7013C1.65975 48.3288 2.13938 48.3791 2.77177 47.9789Z" fill="#F2800D"/>
<path d="M9.87214 0C9.33624 0.151998 8.96512 0.253807 8.51161 0.380711C8.55715 0.512663 8.6047 0.711307 8.64624 0.709875C9.1252 0.73787 9.4722 0.525623 9.87214 0Z" fill="#F2800D"/>
<path d="M173.504 6.62037C173.401 6.62395 173.338 6.6261 173.276 6.62825C173.189 7.18759 173.301 7.47301 173.746 7.74697C173.651 7.34969 173.577 6.97391 173.504 6.62037Z" fill="#F2800D"/>
<path d="M1.90453 15.6965C1.74977 16.0801 1.65196 16.2838 1.55482 16.5097C1.82478 16.5004 2.07397 16.4918 2.4893 16.4775C2.27294 16.1956 2.12156 16.0006 1.90453 15.6965Z" fill="#F2800D"/>
<path d="M58.5133 51.7541C58.6346 51.6387 58.7558 51.5232 58.8764 51.3856C58.8342 51.3648 58.7712 51.3447 58.7076 51.3024C58.5167 51.1754 58.3459 51.0255 58.1128 50.8778C58.1215 51.1668 58.1295 51.4336 58.1395 51.767C58.2641 51.7627 58.3887 51.7584 58.5133 51.7541Z" fill="#F2800D"/>
<path d="M56.53 7.24839C55.9217 7.06907 55.4897 6.52762 55.0971 7.29778C55.5124 7.28347 55.9278 7.26915 56.53 7.24839Z" fill="#F2800D"/>
<path d="M0.5 38.7997C0.956856 38.784 1.35141 38.7704 1.93287 38.7503C1.36415 38.5029 0.976319 38.0489 0.5 38.7997Z" fill="#F2800D"/>
<path d="M77.6995 6.11797C77.4684 6.03693 77.3002 5.97597 77.1328 5.93723C77.1133 5.98241 77.114 6.00464 77.0946 6.04982C77.3511 6.28576 77.607 6.49948 77.8843 6.73471C77.8991 6.53392 77.9118 6.26643 77.9252 6.02118C77.7122 5.8505 77.7202 6.11726 77.6995 6.11797Z" fill="#F2800D"/>
<path d="M176.945 7.65895C176.914 7.32621 176.888 7.14908 176.855 6.74964C176.573 7.04867 176.412 7.21001 176.13 7.50903C176.465 7.5865 176.631 7.603 176.945 7.65895Z" fill="#F2800D"/>
<path d="M98.5737 55.9809C98.5777 56.1143 98.5804 56.2032 98.5837 56.3144C98.9642 56.5238 99.1873 56.3381 99.4251 55.9516C99.0928 55.963 98.8436 55.9716 98.5737 55.9809Z" fill="#F2800D"/>
<path d="M1.60188 40.186C1.89929 40.3983 2.13374 40.5905 2.45192 40.802C2.44523 40.5797 2.45998 40.3789 2.45329 40.1566C2.16256 40.1666 1.91337 40.1752 1.60188 40.186Z" fill="#F2800D"/>
<path d="M79.5796 10.5707C79.4489 11.0647 79.5822 11.3494 80.0625 11.4219C80.3982 10.8317 79.5086 10.9737 79.5796 10.5707Z" fill="#F2800D"/>
<path d="M65.6126 53.49C65.9448 53.4785 66.1733 53.4706 66.3809 53.4635C66.4613 53.3717 66.4613 53.3717 65.9462 52.8331C65.8484 53.0368 65.7499 53.2182 65.6126 53.49Z" fill="#F2800D"/>
<path d="M112.63 6.36019C112.725 6.04538 112.781 5.84316 112.873 5.46166C112.652 5.69184 112.591 5.76068 112.551 5.80657C112.382 5.72338 112.256 5.66098 112.129 5.59859C112.009 5.73626 112.009 5.73627 112.63 6.36019Z" fill="#F2800D"/>
<path d="M63.571 7.74001C63.348 7.92573 63.1651 8.06556 62.9018 8.29717C63.6326 8.4055 63.6326 8.4055 63.571 7.74001Z" fill="#F2800D"/>
<path d="M64.1022 8.12226C64.3514 8.11367 64.6006 8.10508 64.8706 8.09577C64.8666 7.96239 64.8632 7.85124 64.8572 7.65117C64.5705 7.79457 64.324 7.89208 64.0989 8.01111C64.1002 8.05557 64.1009 8.0778 64.1022 8.12226Z" fill="#F2800D"/>
<path d="M4.58805 15.7598C4.92031 15.7483 5.14874 15.7404 5.4187 15.7311C5.32895 15.5117 5.24053 15.3367 5.17222 15.1388C4.99067 15.3231 4.82989 15.5066 4.58805 15.7598Z" fill="#F2800D"/>
<path d="M0.756346 43.1749C0.437462 43.6309 0.437462 43.6309 1.11402 44.0082C0.980059 43.7012 0.890975 43.504 0.756346 43.1749Z" fill="#F2800D"/>
<path d="M69.3793 52.9373C69.386 53.1596 69.392 53.3597 69.3987 53.582C69.524 53.5999 69.607 53.597 69.7531 53.6143C69.7464 53.3919 69.741 53.2141 69.7337 52.9696C69.6077 52.9294 69.4831 52.9337 69.3793 52.9373Z" fill="#F2800D"/>
<path d="M48.9376 7.77719C49.1419 7.65887 49.3054 7.56422 49.509 7.42368C49.3181 7.29674 49.1687 7.16837 48.9142 6.99911C48.9249 7.3548 48.9316 7.57711 48.9376 7.77719Z" fill="#F2800D"/>
<path d="M116.272 7.8814C116.604 7.86995 116.916 7.85921 117.248 7.84775C116.909 7.61467 116.579 7.71505 116.272 7.8814Z" fill="#F2800D"/>
<path d="M72.7548 53.8891C73.087 53.8776 73.3985 53.8669 73.9592 53.8476C73.3912 53.6223 73.0616 53.7227 72.7548 53.8891Z" fill="#F2800D"/>
<path d="M72.8374 7.57632C72.3632 7.70394 72.1387 7.84519 72.197 8.39953C72.3578 8.21596 72.4589 8.12346 72.5393 8.03167C72.619 7.91765 72.6988 7.80364 72.8374 7.57632Z" fill="#F2800D"/>
<path d="M113.177 54.9434C112.901 54.7526 112.752 54.6242 112.518 54.4543C112.483 54.678 112.466 54.7899 112.429 54.9692C112.658 54.9613 112.845 54.9548 113.177 54.9434Z" fill="#F2800D"/>
<path d="M102.863 5.76228C102.867 5.9179 102.869 5.98459 102.873 6.11797C103.143 6.10867 103.434 6.09864 103.932 6.08146C103.449 5.92008 103.178 5.8627 102.863 5.76228Z" fill="#F2800D"/>
<path d="M111.222 5.16253C111.08 5.27869 110.917 5.39557 110.673 5.55978C110.863 5.66449 110.99 5.72689 111.117 5.81152C111.175 5.67598 111.252 5.47304 111.33 5.29233C111.307 5.22635 111.265 5.20556 111.222 5.16253Z" fill="#F2800D"/>
<path d="M180.357 7.76384C180.16 7.4146 180.071 7.23962 179.939 6.99937C179.819 7.15928 179.739 7.25107 179.619 7.41098C179.809 7.51569 179.999 7.59817 180.357 7.76384Z" fill="#F2800D"/>
<path d="M59.9557 8.48776C60.2049 8.47917 60.4541 8.47058 60.724 8.46127C60.7227 8.41681 60.7213 8.37235 60.72 8.32789C60.4701 8.31425 60.2203 8.3006 59.9503 8.30991C59.9517 8.35437 59.9537 8.42107 59.9557 8.48776Z" fill="#F2800D"/>
<path d="M95.9904 6.73358C95.9127 6.91429 95.8537 7.02759 95.8571 7.13874C95.8591 7.20544 96.0286 7.31086 96.0487 7.28792C96.1297 7.21836 96.2101 7.12658 96.2483 7.01399C96.247 6.96953 96.1197 6.8849 95.9904 6.73358Z" fill="#F2800D"/>
<path d="M147.146 4.54713C147.156 4.88059 147.161 5.05844 147.168 5.28074C147.511 4.95734 147.511 4.95734 147.146 4.54713Z" fill="#F2800D"/>
<path d="M3.87452 45.2482C3.98503 45.467 4.07345 45.6419 4.22751 45.9259C4.26035 45.6355 4.27509 45.4347 4.30793 45.1443C4.08084 45.1966 3.95691 45.2231 3.87452 45.2482Z" fill="#F2800D"/>
<path d="M155.716 4.74123C156.028 4.75272 156.216 4.76851 156.424 4.78359C156.419 4.62797 156.415 4.49459 156.411 4.33897C156.206 4.45729 156.022 4.55265 155.716 4.74123Z" fill="#F2800D"/>
<path d="M67.3384 7.20956C67.674 7.30926 67.8 7.34942 67.9051 7.3903C67.9895 7.4319 68.0331 7.49716 68.1396 7.5825C68.1557 7.42617 68.1738 7.33653 68.1898 7.1802C67.9822 7.18736 67.7745 7.19452 67.3384 7.20956Z" fill="#F2800D"/>
<path d="M146.526 7.43922C146.666 7.2786 146.768 7.18609 146.766 7.14163C146.721 7.03191 146.636 6.94585 146.551 6.88203C146.529 6.86051 146.367 6.99962 146.368 7.04408C146.372 7.15524 146.437 7.26424 146.526 7.43922Z" fill="#F2800D"/>
<path d="M152.164 6.91103C152.138 6.7339 152.254 6.4406 151.922 6.47429C151.86 6.47644 151.76 6.59117 151.762 6.65786C151.731 7.03722 151.997 6.89452 152.164 6.91103Z" fill="#F2800D"/>
<path d="M84.8951 8.98541C84.9012 9.18549 84.9038 9.27441 84.9078 9.4078C85.1155 9.40064 85.2816 9.39491 85.6139 9.38345C85.3178 9.21563 85.149 9.13244 84.8951 8.98541Z" fill="#F2800D"/>
<path d="M175.203 7.11814C175.126 7.29885 175.067 7.41216 175.07 7.52331C175.072 7.59 175.241 7.69543 175.261 7.67248C175.343 7.60292 175.423 7.51114 175.461 7.39855C175.46 7.35409 175.332 7.26946 175.203 7.11814Z" fill="#F2800D"/>
<path d="M155.025 3.87492C155.274 3.86633 155.523 3.85775 155.793 3.84844C155.792 3.80398 155.79 3.75951 155.789 3.71505C155.539 3.70141 155.289 3.68777 155.04 3.69636C155.021 3.74154 155.023 3.80823 155.025 3.87492Z" fill="#F2800D"/>
<path d="M9.20802 5.56407C9.03922 5.48087 8.93338 5.41776 8.82955 5.42134C8.76725 5.42349 8.66877 5.60491 8.69021 5.62642C8.75518 5.7132 8.84092 5.79926 8.94609 5.84014C8.98762 5.83871 9.06667 5.70246 9.20802 5.56407Z" fill="#F2800D"/>
</svg>
